<?xml version="1.0" encoding="UTF-8" standalone="no"?>
<svg
   id="Camada_1"
   data-name="Camada 1"
   viewBox="0 0 1500 607.09"
   version="1.1"
   sodipodi:docname="apyb-light.svg"
   inkscape:version="1.3 (0e150ed, 2023-07-21)"
   xmlns:inkscape="http://www.inkscape.org/namespaces/inkscape"
   xmlns:sodipodi="http://sodipodi.sourceforge.net/DTD/sodipodi-0.dtd"
   xmlns="http://www.w3.org/2000/svg"
   xmlns:svg="http://www.w3.org/2000/svg">
  <sodipodi:namedview
     id="namedview52"
     pagecolor="#ffffff"
     bordercolor="#000000"
     borderopacity="0.25"
     inkscape:showpageshadow="2"
     inkscape:pageopacity="0.0"
     inkscape:pagecheckerboard="0"
     inkscape:deskcolor="#d1d1d1"
     inkscape:zoom="0.38873971"
     inkscape:cx="751.14529"
     inkscape:cy="302.25881"
     inkscape:window-width="1512"
     inkscape:window-height="916"
     inkscape:window-x="0"
     inkscape:window-y="38"
     inkscape:window-maximized="1"
     inkscape:current-layer="Camada_1" />
  <defs
     id="defs1">
    <style
       id="style1">&#10;      .cls-1 {&#10;        fill: #fff;&#10;      }&#10;&#10;      .cls-1, .cls-2, .cls-3, .cls-4, .cls-5 {&#10;        stroke-width: 0px;&#10;      }&#10;&#10;      .cls-2 {&#10;        fill: #0056cd;&#10;      }&#10;&#10;      .cls-3 {&#10;        fill: #ffb93b;&#10;      }&#10;&#10;      .cls-4 {&#10;        fill: #00d0b7;&#10;      }&#10;&#10;      .cls-5 {&#10;        fill: #011224;&#10;      }&#10;    </style>
  </defs>
  <g
     id="g27">
    <path
       class="cls-1"
       d="m65.58,1.18h277.67c3.96,0,7.16,3.21,7.16,7.16v414.83c0,3.97-3.22,7.18-7.19,7.16l-141.08-.56c-4.17-.02-7.45-3.58-7.11-7.74l5.52-67.79c.34-4.17-2.95-7.74-7.14-7.74h-71.1c-3.57,0-6.6,2.63-7.09,6.17l-9.99,71.52c-.49,3.54-3.52,6.17-7.09,6.17H7.16c-4.35,0-7.7-3.85-7.09-8.16L58.48,7.34c.5-3.53,3.52-6.16,7.09-6.16Zm86.02,87.56l-15.26,109c-.6,4.31,2.74,8.15,7.09,8.15h62.23c3.73,0,6.84-2.87,7.14-6.59l8.72-109c.33-4.17-2.96-7.73-7.14-7.73h-55.69c-3.57,0-6.6,2.63-7.09,6.17Z"
       id="path1" />
    <path
       class="cls-1"
       d="m392.09,1.18h333c4.13,0,7.4,3.48,7.15,7.61l-19.46,312.49c-.24,3.78-3.37,6.72-7.15,6.72h-197.61c-3.96,0-7.16,3.21-7.16,7.16v88.04c0,3.96-3.21,7.16-7.16,7.16h-101.6c-3.96,0-7.16-3.21-7.16-7.16V8.34c0-3.96,3.21-7.16,7.16-7.16Zm108.77,65.13v136.75c0,3.96,3.21,7.16,7.16,7.16h63.77c3.8,0,6.93-2.96,7.15-6.75l7.81-136.75c.23-4.11-3.03-7.57-7.15-7.57h-71.58c-3.96,0-7.16,3.21-7.16,7.16Z"
       id="path2" />
    <path
       class="cls-1"
       d="m1004.45,1.11L1107.57.03c4.29-.04,7.66,3.67,7.19,7.94l-45.3,416.62c-.4,3.63-3.46,6.39-7.12,6.39h-264.83c-3.83,0-6.98-3.01-7.15-6.84l-3.05-67.05c-.19-4.09,3.09-7.5,7.18-7.49l171.4.57c3.77.01,6.9-2.89,7.17-6.65l3.28-45.86c.3-4.23-3.11-7.79-7.35-7.67l-179.34,5.12c-3.89.11-7.15-2.9-7.36-6.78l-14.66-279.67c-.21-4.07,3.01-7.5,7.09-7.54L915.49,0c3.95-.03,7.18,3.14,7.22,7.08l2.31,214.55c.04,3.92,3.24,7.08,7.16,7.08h42.37c3.75,0,6.87-2.9,7.14-6.64l15.68-214.33c.27-3.71,3.34-6.6,7.07-6.64Z"
       id="path3" />
    <path
       class="cls-1"
       d="m1489.66,236.21l10.33,185.98c.23,4.1-3.03,7.55-7.14,7.56l-335.52.59c-3.96,0-7.17-3.2-7.17-7.16V8.94c0-3.95,3.2-7.15,7.15-7.16l279.72-.59c3.75,0,6.87,2.88,7.16,6.62l11.32,148.92c.28,3.73-2.36,7.06-6.06,7.62l-75.98,11.61c-3.57.55-6.18,3.67-6.08,7.28l.87,31.01c.1,3.66,2.96,6.66,6.61,6.94l108.17,8.28c3.58.27,6.4,3.16,6.6,6.74Zm-241.99-98.99l59.26-1.99c3.99-.13,7.1-3.51,6.91-7.49l-1.81-38.56c-.18-3.73-3.19-6.7-6.92-6.82l-60.65-1.99c-4.26-.14-7.7,3.45-7.38,7.7l3.2,42.54c.29,3.83,3.54,6.75,7.38,6.62Zm63.99,96.12l-54.7-2.44c-4.09-.18-7.51,3.1-7.48,7.2l.53,88.33c.02,3.94,3.22,7.12,7.16,7.12h54.17c3.96,0,7.16-3.21,7.16-7.16v-85.88c0-3.83-3.01-6.98-6.84-7.15Z"
       id="path4" />
    <g
       id="g26">
      <path
         class="cls-3"
         d="m82.43,581c-1.19-3.48-2.42-6.91-3.7-10.31-1.28-3.39-2.51-6.87-3.7-10.44h-37.26c-1.19,3.56-2.4,7.06-3.64,10.5-1.23,3.44-2.45,6.85-3.64,10.25H13.82c3.31-9.42,6.44-18.11,9.41-26.09,2.97-7.98,5.87-15.53,8.71-22.66,2.84-7.13,5.66-13.91,8.46-20.36,2.8-6.45,5.68-12.81,8.65-19.09h15.31c2.97,6.28,5.85,12.64,8.65,19.09,2.8,6.45,5.62,13.24,8.46,20.36,2.84,7.13,5.77,14.68,8.78,22.66,3.01,7.98,6.17,16.67,9.48,26.09h-17.31Zm-26.03-71.15c-1.95,4.5-4.18,9.97-6.68,16.42-2.5,6.45-5.11,13.45-7.83,21h29.02c-2.72-7.55-5.35-14.59-7.89-21.13-2.55-6.53-4.75-11.96-6.62-16.29Z"
         id="path5" />
      <path
         class="cls-3"
         d="m128.12,569.93c4.07,0,7.04-.49,8.91-1.46,1.87-.97,2.8-2.65,2.8-5.03,0-2.21-1-4.03-2.99-5.47-1.99-1.44-5.28-3.01-9.86-4.71-2.8-1.02-5.37-2.1-7.7-3.25-2.33-1.15-4.35-2.48-6.05-4.01-1.7-1.53-3.03-3.37-4.01-5.54-.98-2.16-1.46-4.82-1.46-7.95,0-6.11,2.25-10.92,6.75-14.45,4.5-3.52,10.61-5.28,18.33-5.28,3.9,0,7.64.36,11.2,1.08,3.56.72,6.24,1.42,8.02,2.1l-2.8,12.47c-1.7-.76-3.86-1.46-6.49-2.1-2.63-.64-5.69-.95-9.16-.95-3.14,0-5.69.53-7.64,1.59-1.95,1.06-2.93,2.7-2.93,4.9,0,1.1.19,2.08.57,2.93.38.85,1.04,1.63,1.97,2.35.93.72,2.16,1.44,3.69,2.16,1.53.72,3.39,1.46,5.6,2.23,3.65,1.36,6.75,2.7,9.29,4.01,2.55,1.32,4.65,2.8,6.3,4.45,1.65,1.65,2.86,3.54,3.63,5.66.76,2.12,1.15,4.67,1.15,7.64,0,6.36-2.35,11.18-7.06,14.45-4.71,3.26-11.43,4.9-20.17,4.9-5.85,0-10.56-.49-14.13-1.46-3.56-.97-6.07-1.76-7.51-2.35l2.67-12.85c2.29.94,5.03,1.83,8.21,2.67,3.18.85,6.81,1.27,10.88,1.27Z"
         id="path6" />
      <path
         class="cls-3"
         d="m186.28,569.93c4.07,0,7.04-.49,8.91-1.46,1.87-.97,2.8-2.65,2.8-5.03,0-2.21-1-4.03-2.99-5.47-1.99-1.44-5.28-3.01-9.86-4.71-2.8-1.02-5.37-2.1-7.7-3.25-2.33-1.15-4.35-2.48-6.05-4.01-1.7-1.53-3.03-3.37-4.01-5.54-.98-2.16-1.46-4.82-1.46-7.95,0-6.11,2.25-10.92,6.75-14.45,4.5-3.52,10.61-5.28,18.33-5.28,3.9,0,7.64.36,11.2,1.08,3.56.72,6.24,1.42,8.02,2.1l-2.8,12.47c-1.7-.76-3.86-1.46-6.49-2.1-2.63-.64-5.69-.95-9.16-.95-3.14,0-5.69.53-7.64,1.59-1.95,1.06-2.93,2.7-2.93,4.9,0,1.1.19,2.08.57,2.93.38.85,1.04,1.63,1.97,2.35.93.72,2.16,1.44,3.69,2.16,1.53.72,3.39,1.46,5.6,2.23,3.65,1.36,6.75,2.7,9.29,4.01,2.55,1.32,4.65,2.8,6.3,4.45,1.65,1.65,2.86,3.54,3.63,5.66.76,2.12,1.15,4.67,1.15,7.64,0,6.36-2.35,11.18-7.06,14.45-4.71,3.26-11.43,4.9-20.17,4.9-5.85,0-10.56-.49-14.13-1.46-3.56-.97-6.07-1.76-7.51-2.35l2.67-12.85c2.29.94,5.03,1.83,8.21,2.67,3.18.85,6.81,1.27,10.88,1.27Z"
         id="path7" />
      <path
         class="cls-3"
         d="m287.97,547.66c0,5.26-.76,10.06-2.29,14.38-1.53,4.33-3.69,8.02-6.49,11.07-2.8,3.06-6.17,5.43-10.12,7.13-3.95,1.7-8.29,2.54-13.05,2.54s-9.08-.85-12.98-2.54c-3.9-1.7-7.26-4.07-10.05-7.13-2.8-3.05-4.99-6.74-6.55-11.07-1.57-4.33-2.35-9.12-2.35-14.38s.78-10.03,2.35-14.32c1.57-4.28,3.77-7.95,6.62-11.01,2.84-3.05,6.21-5.41,10.12-7.06,3.9-1.65,8.19-2.48,12.85-2.48s8.97.83,12.92,2.48c3.95,1.66,7.32,4.01,10.12,7.06,2.8,3.05,4.98,6.73,6.55,11.01,1.57,4.29,2.35,9.06,2.35,14.32Zm-15.78,0c0-6.62-1.42-11.86-4.26-15.72-2.84-3.86-6.81-5.79-11.9-5.79s-9.06,1.93-11.9,5.79c-2.84,3.86-4.26,9.1-4.26,15.72s1.42,12.01,4.26,15.91c2.84,3.9,6.81,5.86,11.9,5.86s9.06-1.95,11.9-5.86c2.84-3.9,4.26-9.2,4.26-15.91Z"
         id="path8" />
      <path
         class="cls-3"
         d="m300.19,547.78c0-4.92.76-9.52,2.29-13.81,1.53-4.28,3.71-8,6.55-11.14,2.84-3.14,6.3-5.6,10.37-7.38,4.07-1.78,8.65-2.67,13.75-2.67,6.28,0,12.22,1.15,17.82,3.44l-3.31,12.6c-1.78-.76-3.8-1.4-6.05-1.91-2.25-.51-4.65-.76-7.19-.76-6.03,0-10.61,1.89-13.75,5.66-3.14,3.78-4.71,9.1-4.71,15.97s1.48,11.86,4.45,15.72c2.97,3.86,7.97,5.79,15.02,5.79,2.63,0,5.22-.25,7.76-.76,2.55-.51,4.75-1.15,6.62-1.91l2.16,12.73c-1.7.85-4.26,1.61-7.7,2.29-3.44.68-6.98,1.02-10.63,1.02-5.69,0-10.63-.87-14.83-2.61-4.2-1.74-7.68-4.16-10.44-7.25-2.76-3.1-4.82-6.79-6.17-11.07-1.36-4.28-2.04-8.93-2.04-13.94Z"
         id="path9" />
      <path
         class="cls-3"
         d="m381.14,494.96c0,2.89-.93,5.18-2.8,6.87-1.87,1.7-4.07,2.54-6.62,2.54s-4.88-.85-6.75-2.54c-1.87-1.7-2.8-3.99-2.8-6.87s.93-5.3,2.8-7c1.87-1.7,4.11-2.55,6.75-2.55s4.75.85,6.62,2.55c1.87,1.7,2.8,4.03,2.8,7Zm-1.65,86.04h-15.4v-66.57h15.4v66.57Z"
         id="path10" />
      <path
         class="cls-3"
         d="m421.23,512.78c5.09,0,9.37.64,12.85,1.91,3.48,1.27,6.26,3.05,8.34,5.34,2.08,2.29,3.56,5.07,4.45,8.34.89,3.27,1.34,6.85,1.34,10.75v40.35c-2.38.51-5.96,1.13-10.75,1.85-4.79.72-10.2,1.08-16.23,1.08-3.99,0-7.64-.38-10.95-1.15-3.31-.76-6.13-1.99-8.46-3.69-2.33-1.7-4.16-3.9-5.47-6.62-1.32-2.71-1.97-6.07-1.97-10.05s.74-7.04,2.23-9.67c1.48-2.63,3.5-4.77,6.05-6.43,2.55-1.66,5.49-2.84,8.85-3.56,3.35-.72,6.85-1.08,10.5-1.08,1.7,0,3.48.11,5.35.32,1.87.21,3.86.57,5.98,1.08v-2.54c0-1.78-.21-3.48-.64-5.09-.43-1.61-1.17-3.03-2.23-4.26-1.06-1.23-2.46-2.18-4.2-2.86-1.74-.68-3.93-1.02-6.55-1.02-3.56,0-6.83.25-9.8.76-2.97.51-5.39,1.1-7.25,1.78l-1.91-12.47c1.95-.68,4.79-1.36,8.53-2.04,3.73-.68,7.72-1.02,11.96-1.02Zm1.27,57.4c4.75,0,8.36-.25,10.82-.76v-17.06c-.85-.25-2.08-.51-3.69-.76-1.61-.25-3.39-.38-5.35-.38-1.7,0-3.42.13-5.15.38-1.74.25-3.31.72-4.71,1.4-1.4.68-2.53,1.64-3.37,2.86-.85,1.23-1.27,2.78-1.27,4.65,0,3.65,1.15,6.17,3.44,7.57,2.29,1.4,5.39,2.1,9.29,2.1Z"
         id="path11" />
      <path
         class="cls-3"
         d="m497.59,585.97c2.71,1.27,4.6,2.71,5.66,4.33,1.06,1.61,1.59,3.61,1.59,5.98,0,2.97-1.27,5.51-3.82,7.64-2.55,2.12-6.36,3.18-11.45,3.18-4.07,0-7.68-.55-10.82-1.65l1.78-9.16c.85.25,1.95.55,3.31.89,1.36.34,2.76.51,4.2.51s2.57-.25,3.37-.76c.81-.51,1.21-1.27,1.21-2.29,0-1.36-.59-2.35-1.78-2.99-1.19-.64-2.38-1.17-3.56-1.59l-1.27-.38c.34-1.1.81-2.35,1.4-3.75.59-1.4,1.19-2.7,1.78-3.88-4.41-.76-8.23-2.12-11.46-4.07-3.23-1.95-5.9-4.43-8.02-7.45-2.12-3.01-3.71-6.43-4.77-10.24-1.06-3.82-1.59-7.98-1.59-12.47,0-4.92.76-9.52,2.29-13.81,1.53-4.28,3.71-8,6.55-11.14,2.84-3.14,6.3-5.6,10.37-7.38,4.07-1.78,8.65-2.67,13.75-2.67,6.28,0,12.22,1.15,17.82,3.44l-3.31,12.6c-1.78-.76-3.8-1.4-6.05-1.91-2.25-.51-4.65-.76-7.19-.76-6.03,0-10.61,1.89-13.75,5.66-3.14,3.78-4.71,9.1-4.71,15.97s1.48,11.86,4.45,15.72c2.97,3.86,7.97,5.79,15.02,5.79,2.63,0,5.22-.25,7.76-.76,2.55-.51,4.75-1.15,6.62-1.91l2.16,12.73c-1.53.76-3.78,1.44-6.75,2.04-2.97.59-6.07.97-9.29,1.15-.34.68-.64,1.31-.89,1.91-.25.59-.47,1.1-.64,1.53Z"
         id="path12" />
      <path
         class="cls-3"
         d="m549.26,512.78c5.09,0,9.37.64,12.85,1.91,3.48,1.27,6.26,3.05,8.34,5.34,2.08,2.29,3.56,5.07,4.45,8.34.89,3.27,1.34,6.85,1.34,10.75v40.35c-2.38.51-5.96,1.13-10.75,1.85-4.79.72-10.2,1.08-16.23,1.08-3.99,0-7.64-.38-10.95-1.15-3.31-.76-6.13-1.99-8.46-3.69-2.33-1.7-4.16-3.9-5.47-6.62-1.32-2.71-1.97-6.07-1.97-10.05s.74-7.04,2.23-9.67c1.48-2.63,3.5-4.77,6.05-6.43,2.55-1.66,5.49-2.84,8.85-3.56,3.35-.72,6.85-1.08,10.5-1.08,1.7,0,3.48.11,5.35.32,1.87.21,3.86.57,5.98,1.08v-2.54c0-1.78-.21-3.48-.64-5.09-.43-1.61-1.17-3.03-2.23-4.26-1.06-1.23-2.46-2.18-4.2-2.86-1.74-.68-3.93-1.02-6.55-1.02-3.56,0-6.83.25-9.8.76-2.97.51-5.39,1.1-7.25,1.78l-1.91-12.47c1.95-.68,4.79-1.36,8.53-2.04,3.73-.68,7.72-1.02,11.96-1.02Zm22.46-18.26c-.81,1.4-1.8,2.72-2.99,3.95-1.19,1.23-2.55,2.27-4.07,3.12-1.53.85-3.23,1.27-5.09,1.27-1.53,0-2.97-.23-4.33-.7-1.36-.47-2.69-1-4.01-1.59-1.32-.59-2.59-1.12-3.82-1.59-1.23-.47-2.44-.7-3.63-.7-1.61,0-2.99.55-4.14,1.65-1.15,1.1-2.06,2.38-2.74,3.82l-7.76-4.58c.42-1.19,1.04-2.48,1.85-3.88.81-1.4,1.82-2.71,3.05-3.95,1.23-1.23,2.61-2.27,4.14-3.12,1.53-.85,3.22-1.27,5.09-1.27,1.53,0,2.97.25,4.33.76,1.36.51,2.69,1.04,4.01,1.59,1.31.55,2.59,1.08,3.82,1.59,1.23.51,2.44.76,3.63.76,1.61,0,2.99-.57,4.14-1.72,1.15-1.15,2.06-2.44,2.74-3.88l7.76,4.58c-.51,1.19-1.17,2.48-1.97,3.88Zm-21.19,75.67c4.75,0,8.36-.25,10.82-.76v-17.06c-.85-.25-2.08-.51-3.69-.76-1.61-.25-3.39-.38-5.35-.38-1.7,0-3.42.13-5.15.38-1.74.25-3.31.72-4.71,1.4-1.4.68-2.53,1.64-3.37,2.86-.85,1.23-1.27,2.78-1.27,4.65,0,3.65,1.15,6.17,3.44,7.57,2.29,1.4,5.39,2.1,9.29,2.1Z"
         id="path13" />
      <path
         class="cls-3"
         d="m655.28,547.66c0,5.26-.76,10.06-2.29,14.38-1.53,4.33-3.69,8.02-6.49,11.07-2.8,3.06-6.17,5.43-10.12,7.13-3.95,1.7-8.29,2.54-13.05,2.54s-9.08-.85-12.98-2.54c-3.9-1.7-7.26-4.07-10.05-7.13-2.8-3.05-4.99-6.74-6.55-11.07-1.57-4.33-2.35-9.12-2.35-14.38s.78-10.03,2.35-14.32c1.57-4.28,3.77-7.95,6.62-11.01,2.84-3.05,6.21-5.41,10.12-7.06,3.9-1.65,8.19-2.48,12.85-2.48s8.97.83,12.92,2.48c3.95,1.66,7.32,4.01,10.12,7.06s4.98,6.73,6.55,11.01c1.57,4.29,2.35,9.06,2.35,14.32Zm-15.78,0c0-6.62-1.42-11.86-4.26-15.72-2.84-3.86-6.81-5.79-11.9-5.79s-9.06,1.93-11.9,5.79c-2.84,3.86-4.26,9.1-4.26,15.72s1.42,12.01,4.26,15.91c2.84,3.9,6.81,5.86,11.9,5.86s9.06-1.95,11.9-5.86c2.84-3.9,4.26-9.2,4.26-15.91Z"
         id="path14" />
      <path
         class="cls-3"
         d="m726.56,491.91c12.81,0,22.63,2.33,29.46,7,6.83,4.67,10.25,11.96,10.25,21.89,0,5.18-.91,9.61-2.74,13.3-1.83,3.69-4.48,6.7-7.95,9.04-3.48,2.33-7.72,4.05-12.73,5.16-5.01,1.1-10.73,1.65-17.18,1.65h-8.02v31.06h-16.04v-86.93c3.73-.85,7.87-1.42,12.41-1.72,4.54-.3,8.72-.45,12.54-.45Zm1.15,13.87c-4.07,0-7.43.13-10.05.38v30.04h7.76c7.72,0,13.66-1.08,17.82-3.25,4.16-2.16,6.24-6.26,6.24-12.28,0-2.88-.55-5.3-1.65-7.25-1.1-1.95-2.63-3.48-4.58-4.58-1.95-1.1-4.26-1.89-6.94-2.35-2.67-.47-5.54-.7-8.59-.7Z"
         id="path15" />
      <path
         class="cls-3"
         d="m835.63,514.44c-6.86,25.29-14.82,48.2-23.88,68.73-1.7,3.82-3.44,7.08-5.22,9.8-1.78,2.71-3.78,4.96-5.99,6.74-2.21,1.78-4.67,3.08-7.39,3.88-2.72.81-5.86,1.21-9.43,1.21-2.38,0-4.74-.25-7.07-.76-2.34-.51-4.1-1.06-5.29-1.65l2.8-12.35c3.07,1.19,6.1,1.78,9.08,1.78,4,0,7.14-.95,9.4-2.86,2.26-1.91,4.24-4.86,5.95-8.85-4.86-9.33-9.52-19.52-14-30.55-4.47-11.03-8.46-22.74-11.95-35.13h16.42c.85,3.56,1.89,7.43,3.13,11.58,1.24,4.16,2.58,8.38,4.03,12.66,1.45,4.29,2.98,8.55,4.6,12.79,1.62,4.24,3.24,8.19,4.86,11.84,2.7-7.55,5.24-15.59,7.6-24.12,2.36-8.53,4.52-16.78,6.46-24.75h15.91Z"
         id="path16" />
      <path
         class="cls-3"
         d="m846.57,496.87l15.4-2.54v20.11h23.67v12.85h-23.67v27.11c0,5.35.85,9.16,2.55,11.45,1.7,2.29,4.58,3.44,8.65,3.44,2.8,0,5.28-.3,7.45-.89,2.16-.59,3.88-1.15,5.15-1.66l2.55,12.22c-1.78.76-4.12,1.55-7,2.35-2.89.81-6.28,1.21-10.18,1.21-4.75,0-8.72-.64-11.9-1.91-3.18-1.27-5.71-3.12-7.57-5.54-1.87-2.42-3.18-5.35-3.95-8.78-.76-3.44-1.15-7.36-1.15-11.77v-57.66Z"
         id="path17" />
      <path
         class="cls-3"
         d="m900.54,581v-96.22l15.4-2.55v32.96c1.7-.59,3.67-1.1,5.92-1.53,2.25-.42,4.47-.64,6.68-.64,5.35,0,9.78.74,13.3,2.23,3.52,1.49,6.34,3.56,8.46,6.24,2.12,2.67,3.63,5.88,4.52,9.61.89,3.73,1.34,7.89,1.34,12.47v37.42h-15.4v-35c0-3.56-.23-6.6-.7-9.1-.47-2.5-1.23-4.54-2.29-6.11-1.06-1.57-2.48-2.71-4.26-3.44-1.78-.72-3.99-1.08-6.62-1.08-2.04,0-4.12.21-6.24.64-2.12.43-3.69.81-4.71,1.15v52.95h-15.4Z"
         id="path18" />
      <path
         class="cls-3"
         d="m1034.81,547.66c0,5.26-.76,10.06-2.29,14.38-1.53,4.33-3.69,8.02-6.49,11.07-2.8,3.06-6.17,5.43-10.12,7.13-3.95,1.7-8.29,2.54-13.05,2.54s-9.08-.85-12.98-2.54c-3.9-1.7-7.26-4.07-10.05-7.13-2.8-3.05-4.99-6.74-6.55-11.07-1.57-4.33-2.35-9.12-2.35-14.38s.78-10.03,2.35-14.32c1.57-4.28,3.77-7.95,6.62-11.01,2.84-3.05,6.21-5.41,10.12-7.06,3.9-1.65,8.19-2.48,12.85-2.48s8.97.83,12.92,2.48c3.95,1.66,7.32,4.01,10.12,7.06,2.8,3.05,4.98,6.73,6.55,11.01,1.57,4.29,2.35,9.06,2.35,14.32Zm-15.78,0c0-6.62-1.42-11.86-4.26-15.72-2.84-3.86-6.81-5.79-11.9-5.79s-9.06,1.93-11.9,5.79c-2.84,3.86-4.26,9.1-4.26,15.72s1.42,12.01,4.26,15.91c2.84,3.9,6.81,5.86,11.9,5.86s9.06-1.95,11.9-5.86c2.84-3.9,4.26-9.2,4.26-15.91Z"
         id="path19" />
      <path
         class="cls-3"
         d="m1050.72,516.6c2.97-.85,6.83-1.66,11.58-2.42,4.75-.76,10.01-1.15,15.78-1.15,5.43,0,9.97.74,13.62,2.23,3.65,1.49,6.55,3.56,8.72,6.24,2.16,2.67,3.69,5.9,4.58,9.67.89,3.78,1.34,7.91,1.34,12.41v37.42h-15.4v-35c0-3.56-.23-6.6-.7-9.1-.47-2.5-1.23-4.54-2.29-6.11-1.06-1.57-2.5-2.71-4.33-3.44-1.83-.72-4.05-1.08-6.68-1.08-1.95,0-3.99.13-6.11.38-2.12.25-3.69.47-4.71.64v53.71h-15.4v-64.4Z"
         id="path20" />
      <path
         class="cls-3"
         d="m1182.19,582.02c-4.67,0-9.38-.15-14.13-.45-4.75-.3-8.91-.91-12.47-1.85v-85.66c1.87-.34,3.86-.66,5.98-.95,2.12-.3,4.28-.53,6.49-.7,2.21-.17,4.39-.3,6.55-.38,2.16-.08,4.22-.13,6.17-.13,5.35,0,10.31.4,14.89,1.21,4.58.81,8.55,2.14,11.9,4.01,3.35,1.87,5.96,4.33,7.83,7.38,1.87,3.05,2.8,6.83,2.8,11.33,0,4.16-1,7.72-2.99,10.69-1.99,2.97-4.77,5.35-8.34,7.13,5.35,1.78,9.29,4.41,11.84,7.89,2.55,3.48,3.82,7.89,3.82,13.24,0,9.08-3.31,15.89-9.93,20.43-6.62,4.54-16.76,6.81-30.42,6.81Zm-10.82-53.33h11.33c6.11,0,10.9-.87,14.38-2.61,3.48-1.74,5.22-4.86,5.22-9.35,0-4.24-1.8-7.26-5.41-9.04-3.61-1.78-8.29-2.67-14.06-2.67-2.46,0-4.65.04-6.55.13-1.91.08-3.54.21-4.9.38v23.16Zm0,12.6v26.86c1.78.17,3.69.3,5.73.38,2.04.08,3.9.13,5.6.13,3.31,0,6.38-.21,9.23-.64,2.84-.42,5.3-1.17,7.38-2.23,2.08-1.06,3.73-2.48,4.96-4.26,1.23-1.78,1.85-4.07,1.85-6.87,0-5.01-1.83-8.48-5.47-10.44-3.65-1.95-8.7-2.93-15.15-2.93h-14.13Z"
         id="path21" />
      <path
         class="cls-3"
         d="m1276.38,528.31c-1.27-.42-3.03-.87-5.28-1.34-2.25-.47-4.86-.7-7.83-.7-1.7,0-3.5.17-5.41.51-1.91.34-3.25.64-4.01.89v53.33h-15.4v-63.38c2.97-1.1,6.68-2.14,11.14-3.12,4.45-.97,9.4-1.46,14.83-1.46,1.02,0,2.21.06,3.56.19,1.36.13,2.71.3,4.07.51,1.36.21,2.67.47,3.95.76,1.27.3,2.29.57,3.05.83l-2.67,12.98Z"
         id="path22" />
      <path
         class="cls-3"
         d="m1311.89,512.78c5.09,0,9.37.64,12.85,1.91,3.48,1.27,6.26,3.05,8.34,5.34,2.08,2.29,3.56,5.07,4.45,8.34.89,3.27,1.34,6.85,1.34,10.75v40.35c-2.38.51-5.96,1.13-10.75,1.85-4.79.72-10.2,1.08-16.23,1.08-3.99,0-7.64-.38-10.95-1.15-3.31-.76-6.13-1.99-8.46-3.69-2.33-1.7-4.16-3.9-5.47-6.62-1.32-2.71-1.97-6.07-1.97-10.05s.74-7.04,2.23-9.67c1.48-2.63,3.5-4.77,6.05-6.43,2.55-1.66,5.49-2.84,8.85-3.56,3.35-.72,6.85-1.08,10.5-1.08,1.7,0,3.48.11,5.35.32,1.87.21,3.86.57,5.98,1.08v-2.54c0-1.78-.21-3.48-.64-5.09-.43-1.61-1.17-3.03-2.23-4.26-1.06-1.23-2.46-2.18-4.2-2.86-1.74-.68-3.93-1.02-6.55-1.02-3.56,0-6.83.25-9.8.76-2.97.51-5.39,1.1-7.25,1.78l-1.91-12.47c1.95-.68,4.79-1.36,8.53-2.04,3.73-.68,7.72-1.02,11.96-1.02Zm1.27,57.4c4.75,0,8.36-.25,10.82-.76v-17.06c-.85-.25-2.08-.51-3.69-.76-1.61-.25-3.39-.38-5.35-.38-1.7,0-3.42.13-5.15.38-1.74.25-3.31.72-4.71,1.4-1.4.68-2.53,1.64-3.37,2.86-.85,1.23-1.27,2.78-1.27,4.65,0,3.65,1.15,6.17,3.44,7.57,2.29,1.4,5.39,2.1,9.29,2.1Z"
         id="path23" />
      <path
         class="cls-3"
         d="m1374.38,569.93c4.07,0,7.04-.49,8.91-1.46,1.87-.97,2.8-2.65,2.8-5.03,0-2.21-1-4.03-2.99-5.47-1.99-1.44-5.28-3.01-9.86-4.71-2.8-1.02-5.37-2.1-7.7-3.25-2.33-1.15-4.35-2.48-6.05-4.01-1.7-1.53-3.03-3.37-4.01-5.54-.98-2.16-1.46-4.82-1.46-7.95,0-6.11,2.25-10.92,6.75-14.45,4.5-3.52,10.61-5.28,18.33-5.28,3.9,0,7.64.36,11.2,1.08,3.56.72,6.24,1.42,8.02,2.1l-2.8,12.47c-1.7-.76-3.86-1.46-6.49-2.1-2.63-.64-5.69-.95-9.16-.95-3.14,0-5.69.53-7.64,1.59-1.95,1.06-2.93,2.7-2.93,4.9,0,1.1.19,2.08.57,2.93.38.85,1.04,1.63,1.97,2.35.93.72,2.16,1.44,3.69,2.16,1.53.72,3.39,1.46,5.6,2.23,3.65,1.36,6.75,2.7,9.29,4.01,2.55,1.32,4.65,2.8,6.3,4.45,1.65,1.65,2.86,3.54,3.63,5.66.76,2.12,1.15,4.67,1.15,7.64,0,6.36-2.35,11.18-7.06,14.45-4.71,3.26-11.43,4.9-20.17,4.9-5.85,0-10.56-.49-14.13-1.46-3.56-.97-6.07-1.76-7.51-2.35l2.67-12.85c2.29.94,5.03,1.83,8.21,2.67,3.18.85,6.81,1.27,10.88,1.27Z"
         id="path24" />
      <path
         class="cls-3"
         d="m1433.05,494.96c0,2.89-.93,5.18-2.8,6.87-1.87,1.7-4.07,2.54-6.62,2.54s-4.88-.85-6.75-2.54c-1.87-1.7-2.8-3.99-2.8-6.87s.93-5.3,2.8-7c1.87-1.7,4.11-2.55,6.75-2.55s4.75.85,6.62,2.55c1.87,1.7,2.8,4.03,2.8,7Zm-1.65,86.04h-15.4v-66.57h15.4v66.57Z"
         id="path25" />
      <path
         class="cls-3"
         d="m1474.16,582.28c-4.58-.09-8.38-.59-11.39-1.53-3.01-.93-5.41-2.27-7.19-4.01-1.78-1.74-3.03-3.9-3.75-6.49-.72-2.59-1.08-5.54-1.08-8.85v-76.62l15.4-2.55v76.24c0,1.87.15,3.44.45,4.71.3,1.27.83,2.35,1.59,3.25.76.89,1.8,1.57,3.12,2.04,1.31.47,2.99.83,5.03,1.08l-2.16,12.73Z"
         id="path26" />
    </g>
  </g>
  <path
     class="cls-2"
     d="m65.58,1.18h277.67c3.96,0,7.16,3.21,7.16,7.16v414.83c0,3.97-3.22,7.18-7.19,7.16l-141.08-.56c-4.17-.02-7.45-3.58-7.11-7.74l5.52-67.79c.34-4.17-2.95-7.74-7.14-7.74h-71.1c-3.57,0-6.6,2.63-7.09,6.17l-9.99,71.52c-.49,3.54-3.52,6.17-7.09,6.17H7.16c-4.35,0-7.7-3.85-7.09-8.16L58.48,7.34c.5-3.53,3.52-6.16,7.09-6.16Zm86.02,87.56l-15.26,109c-.6,4.31,2.74,8.15,7.09,8.15h62.23c3.73,0,6.84-2.87,7.14-6.59l8.72-109c.33-4.17-2.96-7.73-7.14-7.73h-55.69c-3.57,0-6.6,2.63-7.09,6.17Z"
     id="path27" />
  <path
     class="cls-3"
     d="m392.09,1.18h333c4.13,0,7.4,3.48,7.15,7.61l-19.46,312.49c-.24,3.78-3.37,6.72-7.15,6.72h-197.61c-3.96,0-7.16,3.21-7.16,7.16v88.04c0,3.96-3.21,7.16-7.16,7.16h-101.6c-3.96,0-7.16-3.21-7.16-7.16V8.34c0-3.96,3.21-7.16,7.16-7.16Zm108.77,65.13v136.75c0,3.96,3.21,7.16,7.16,7.16h63.77c3.8,0,6.93-2.96,7.15-6.75l7.81-136.75c.23-4.11-3.03-7.57-7.15-7.57h-71.58c-3.96,0-7.16,3.21-7.16,7.16Z"
     id="path28" />
  <path
     class="cls-4"
     d="m1004.45,1.11L1107.57.03c4.29-.04,7.66,3.67,7.19,7.94l-45.3,416.62c-.4,3.63-3.46,6.39-7.12,6.39h-264.83c-3.83,0-6.98-3.01-7.15-6.84l-3.05-67.05c-.19-4.09,3.09-7.5,7.18-7.49l171.4.57c3.77.01,6.9-2.89,7.17-6.65l3.28-45.86c.3-4.23-3.11-7.79-7.35-7.67l-179.34,5.12c-3.89.11-7.15-2.9-7.36-6.78l-14.66-279.67c-.21-4.07,3.01-7.5,7.09-7.54L915.49,0c3.95-.03,7.18,3.14,7.22,7.08l2.31,214.55c.04,3.92,3.24,7.08,7.16,7.08h42.37c3.75,0,6.87-2.9,7.14-6.64l15.68-214.33c.27-3.71,3.34-6.6,7.07-6.64Z"
     id="path29" />
  <path
     class="cls-2"
     d="m1489.66,236.21l10.33,185.98c.23,4.1-3.03,7.55-7.14,7.56l-335.52.59c-3.96,0-7.17-3.2-7.17-7.16V8.94c0-3.95,3.2-7.15,7.15-7.16l279.72-.59c3.75,0,6.87,2.88,7.16,6.62l11.32,148.92c.28,3.73-2.36,7.06-6.06,7.62l-75.98,11.61c-3.57.55-6.18,3.67-6.08,7.28l.87,31.01c.1,3.66,2.96,6.66,6.61,6.94l108.17,8.28c3.58.27,6.4,3.16,6.6,6.74Zm-241.99-98.99l59.26-1.99c3.99-.13,7.1-3.51,6.91-7.49l-1.81-38.56c-.18-3.73-3.19-6.7-6.92-6.82l-60.65-1.99c-4.26-.14-7.7,3.45-7.38,7.7l3.2,42.54c.29,3.83,3.54,6.75,7.38,6.62Zm63.99,96.12l-54.7-2.44c-4.09-.18-7.51,3.1-7.48,7.2l.53,88.33c.02,3.94,3.22,7.12,7.16,7.12h54.17c3.96,0,7.16-3.21,7.16-7.16v-85.88c0-3.83-3.01-6.98-6.84-7.15Z"
     id="path30" />
  <g
     id="g52">
    <path
       class="cls-5"
       d="m82.43,581c-1.19-3.48-2.42-6.91-3.7-10.31-1.28-3.39-2.51-6.87-3.7-10.44h-37.26c-1.19,3.56-2.4,7.06-3.64,10.5-1.23,3.44-2.45,6.85-3.64,10.25H13.82c3.31-9.42,6.44-18.11,9.41-26.09,2.97-7.98,5.87-15.53,8.71-22.66,2.84-7.13,5.66-13.91,8.46-20.36,2.8-6.45,5.68-12.81,8.65-19.09h15.31c2.97,6.28,5.85,12.64,8.65,19.09,2.8,6.45,5.62,13.24,8.46,20.36,2.84,7.13,5.77,14.68,8.78,22.66,3.01,7.98,6.17,16.67,9.48,26.09h-17.31Zm-26.03-71.15c-1.95,4.5-4.18,9.97-6.68,16.42-2.5,6.45-5.11,13.45-7.83,21h29.02c-2.72-7.55-5.35-14.59-7.89-21.13-2.55-6.53-4.75-11.96-6.62-16.29Z"
       id="path31" />
    <path
       class="cls-5"
       d="m128.12,569.93c4.07,0,7.04-.49,8.91-1.46,1.87-.97,2.8-2.65,2.8-5.03,0-2.21-1-4.03-2.99-5.47-1.99-1.44-5.28-3.01-9.86-4.71-2.8-1.02-5.37-2.1-7.7-3.25-2.33-1.15-4.35-2.48-6.05-4.01-1.7-1.53-3.03-3.37-4.01-5.54-.98-2.16-1.46-4.82-1.46-7.95,0-6.11,2.25-10.92,6.75-14.45,4.5-3.52,10.61-5.28,18.33-5.28,3.9,0,7.64.36,11.2,1.08,3.56.72,6.24,1.42,8.02,2.1l-2.8,12.47c-1.7-.76-3.86-1.46-6.49-2.1-2.63-.64-5.69-.95-9.16-.95-3.14,0-5.69.53-7.64,1.59-1.95,1.06-2.93,2.7-2.93,4.9,0,1.1.19,2.08.57,2.93.38.85,1.04,1.63,1.97,2.35.93.72,2.16,1.44,3.69,2.16,1.53.72,3.39,1.46,5.6,2.23,3.65,1.36,6.75,2.7,9.29,4.01,2.55,1.32,4.65,2.8,6.3,4.45,1.65,1.65,2.86,3.54,3.63,5.66.76,2.12,1.15,4.67,1.15,7.64,0,6.36-2.35,11.18-7.06,14.45-4.71,3.26-11.43,4.9-20.17,4.9-5.85,0-10.56-.49-14.13-1.46-3.56-.97-6.07-1.76-7.51-2.35l2.67-12.85c2.29.94,5.03,1.83,8.21,2.67,3.18.85,6.81,1.27,10.88,1.27Z"
       id="path32" />
    <path
       class="cls-5"
       d="m186.28,569.93c4.07,0,7.04-.49,8.91-1.46,1.87-.97,2.8-2.65,2.8-5.03,0-2.21-1-4.03-2.99-5.47-1.99-1.44-5.28-3.01-9.86-4.71-2.8-1.02-5.37-2.1-7.7-3.25-2.33-1.15-4.35-2.48-6.05-4.01-1.7-1.53-3.03-3.37-4.01-5.54-.98-2.16-1.46-4.82-1.46-7.95,0-6.11,2.25-10.92,6.75-14.45,4.5-3.52,10.61-5.28,18.33-5.28,3.9,0,7.64.36,11.2,1.08,3.56.72,6.24,1.42,8.02,2.1l-2.8,12.47c-1.7-.76-3.86-1.46-6.49-2.1-2.63-.64-5.69-.95-9.16-.95-3.14,0-5.69.53-7.64,1.59-1.95,1.06-2.93,2.7-2.93,4.9,0,1.1.19,2.08.57,2.93.38.85,1.04,1.63,1.97,2.35.93.72,2.16,1.44,3.69,2.16,1.53.72,3.39,1.46,5.6,2.23,3.65,1.36,6.75,2.7,9.29,4.01,2.55,1.32,4.65,2.8,6.3,4.45,1.65,1.65,2.86,3.54,3.63,5.66.76,2.12,1.15,4.67,1.15,7.64,0,6.36-2.35,11.18-7.06,14.45-4.71,3.26-11.43,4.9-20.17,4.9-5.85,0-10.56-.49-14.13-1.46-3.56-.97-6.07-1.76-7.51-2.35l2.67-12.85c2.29.94,5.03,1.83,8.21,2.67,3.18.85,6.81,1.27,10.88,1.27Z"
       id="path33" />
    <path
       class="cls-5"
       d="m287.97,547.66c0,5.26-.76,10.06-2.29,14.38-1.53,4.33-3.69,8.02-6.49,11.07-2.8,3.06-6.17,5.43-10.12,7.13-3.95,1.7-8.29,2.54-13.05,2.54s-9.08-.85-12.98-2.54c-3.9-1.7-7.26-4.07-10.05-7.13-2.8-3.05-4.99-6.74-6.55-11.07-1.57-4.33-2.35-9.12-2.35-14.38s.78-10.03,2.35-14.32c1.57-4.28,3.77-7.95,6.62-11.01,2.84-3.05,6.21-5.41,10.12-7.06,3.9-1.65,8.19-2.48,12.85-2.48s8.97.83,12.92,2.48c3.95,1.66,7.32,4.01,10.12,7.06,2.8,3.05,4.98,6.73,6.55,11.01,1.57,4.29,2.35,9.06,2.35,14.32Zm-15.78,0c0-6.62-1.42-11.86-4.26-15.72-2.84-3.86-6.81-5.79-11.9-5.79s-9.06,1.93-11.9,5.79c-2.84,3.86-4.26,9.1-4.26,15.72s1.42,12.01,4.26,15.91c2.84,3.9,6.81,5.86,11.9,5.86s9.06-1.95,11.9-5.86c2.84-3.9,4.26-9.2,4.26-15.91Z"
       id="path34" />
    <path
       class="cls-5"
       d="m300.19,547.78c0-4.92.76-9.52,2.29-13.81,1.53-4.28,3.71-8,6.55-11.14,2.84-3.14,6.3-5.6,10.37-7.38,4.07-1.78,8.65-2.67,13.75-2.67,6.28,0,12.22,1.15,17.82,3.44l-3.31,12.6c-1.78-.76-3.8-1.4-6.05-1.91-2.25-.51-4.65-.76-7.19-.76-6.03,0-10.61,1.89-13.75,5.66-3.14,3.78-4.71,9.1-4.71,15.97s1.48,11.86,4.45,15.72c2.97,3.86,7.97,5.79,15.02,5.79,2.63,0,5.22-.25,7.76-.76,2.55-.51,4.75-1.15,6.62-1.91l2.16,12.73c-1.7.85-4.26,1.61-7.7,2.29-3.44.68-6.98,1.02-10.63,1.02-5.69,0-10.63-.87-14.83-2.61-4.2-1.74-7.68-4.16-10.44-7.25-2.76-3.1-4.82-6.79-6.17-11.07-1.36-4.28-2.04-8.93-2.04-13.94Z"
       id="path35" />
    <path
       class="cls-5"
       d="m381.14,494.96c0,2.89-.93,5.18-2.8,6.87-1.87,1.7-4.07,2.54-6.62,2.54s-4.88-.85-6.75-2.54c-1.87-1.7-2.8-3.99-2.8-6.87s.93-5.3,2.8-7c1.87-1.7,4.11-2.55,6.75-2.55s4.75.85,6.62,2.55c1.87,1.7,2.8,4.03,2.8,7Zm-1.65,86.04h-15.4v-66.57h15.4v66.57Z"
       id="path36" />
    <path
       class="cls-5"
       d="m421.23,512.78c5.09,0,9.37.64,12.85,1.91,3.48,1.27,6.26,3.05,8.34,5.34,2.08,2.29,3.56,5.07,4.45,8.34.89,3.27,1.34,6.85,1.34,10.75v40.35c-2.38.51-5.96,1.13-10.75,1.85-4.79.72-10.2,1.08-16.23,1.08-3.99,0-7.64-.38-10.95-1.15-3.31-.76-6.13-1.99-8.46-3.69-2.33-1.7-4.16-3.9-5.47-6.62-1.32-2.71-1.97-6.07-1.97-10.05s.74-7.04,2.23-9.67c1.48-2.63,3.5-4.77,6.05-6.43,2.55-1.66,5.49-2.84,8.85-3.56,3.35-.72,6.85-1.08,10.5-1.08,1.7,0,3.48.11,5.35.32,1.87.21,3.86.57,5.98,1.08v-2.54c0-1.78-.21-3.48-.64-5.09-.43-1.61-1.17-3.03-2.23-4.26-1.06-1.23-2.46-2.18-4.2-2.86-1.74-.68-3.93-1.02-6.55-1.02-3.56,0-6.83.25-9.8.76-2.97.51-5.39,1.1-7.25,1.78l-1.91-12.47c1.95-.68,4.79-1.36,8.53-2.04,3.73-.68,7.72-1.02,11.96-1.02Zm1.27,57.4c4.75,0,8.36-.25,10.82-.76v-17.06c-.85-.25-2.08-.51-3.69-.76-1.61-.25-3.39-.38-5.35-.38-1.7,0-3.42.13-5.15.38-1.74.25-3.31.72-4.71,1.4-1.4.68-2.53,1.64-3.37,2.86-.85,1.23-1.27,2.78-1.27,4.65,0,3.65,1.15,6.17,3.44,7.57,2.29,1.4,5.39,2.1,9.29,2.1Z"
       id="path37" />
    <path
       class="cls-5"
       d="m497.59,585.97c2.71,1.27,4.6,2.71,5.66,4.33,1.06,1.61,1.59,3.61,1.59,5.98,0,2.97-1.27,5.51-3.82,7.64-2.55,2.12-6.36,3.18-11.45,3.18-4.07,0-7.68-.55-10.82-1.65l1.78-9.16c.85.25,1.95.55,3.31.89,1.36.34,2.76.51,4.2.51s2.57-.25,3.37-.76c.81-.51,1.21-1.27,1.21-2.29,0-1.36-.59-2.35-1.78-2.99-1.19-.64-2.38-1.17-3.56-1.59l-1.27-.38c.34-1.1.81-2.35,1.4-3.75.59-1.4,1.19-2.7,1.78-3.88-4.41-.76-8.23-2.12-11.46-4.07-3.23-1.95-5.9-4.43-8.02-7.45-2.12-3.01-3.71-6.43-4.77-10.24-1.06-3.82-1.59-7.98-1.59-12.47,0-4.92.76-9.52,2.29-13.81,1.53-4.28,3.71-8,6.55-11.14,2.84-3.14,6.3-5.6,10.37-7.38,4.07-1.78,8.65-2.67,13.75-2.67,6.28,0,12.22,1.15,17.82,3.44l-3.31,12.6c-1.78-.76-3.8-1.4-6.05-1.91-2.25-.51-4.65-.76-7.19-.76-6.03,0-10.61,1.89-13.75,5.66-3.14,3.78-4.71,9.1-4.71,15.97s1.48,11.86,4.45,15.72c2.97,3.86,7.97,5.79,15.02,5.79,2.63,0,5.22-.25,7.76-.76,2.55-.51,4.75-1.15,6.62-1.91l2.16,12.73c-1.53.76-3.78,1.44-6.75,2.04-2.97.59-6.07.97-9.29,1.15-.34.68-.64,1.31-.89,1.91-.25.59-.47,1.1-.64,1.53Z"
       id="path38" />
    <path
       class="cls-5"
       d="m549.26,512.78c5.09,0,9.37.64,12.85,1.91,3.48,1.27,6.26,3.05,8.34,5.34,2.08,2.29,3.56,5.07,4.45,8.34.89,3.27,1.34,6.85,1.34,10.75v40.35c-2.38.51-5.96,1.13-10.75,1.85-4.79.72-10.2,1.08-16.23,1.08-3.99,0-7.64-.38-10.95-1.15-3.31-.76-6.13-1.99-8.46-3.69-2.33-1.7-4.16-3.9-5.47-6.62-1.32-2.71-1.97-6.07-1.97-10.05s.74-7.04,2.23-9.67c1.48-2.63,3.5-4.77,6.05-6.43,2.55-1.66,5.49-2.84,8.85-3.56,3.35-.72,6.85-1.08,10.5-1.08,1.7,0,3.48.11,5.35.32,1.87.21,3.86.57,5.98,1.08v-2.54c0-1.78-.21-3.48-.64-5.09-.43-1.61-1.17-3.03-2.23-4.26-1.06-1.23-2.46-2.18-4.2-2.86-1.74-.68-3.93-1.02-6.55-1.02-3.56,0-6.83.25-9.8.76-2.97.51-5.39,1.1-7.25,1.78l-1.91-12.47c1.95-.68,4.79-1.36,8.53-2.04,3.73-.68,7.72-1.02,11.96-1.02Zm22.46-18.26c-.81,1.4-1.8,2.72-2.99,3.95-1.19,1.23-2.55,2.27-4.07,3.12-1.53.85-3.23,1.27-5.09,1.27-1.53,0-2.97-.23-4.33-.7-1.36-.47-2.69-1-4.01-1.59-1.32-.59-2.59-1.12-3.82-1.59-1.23-.47-2.44-.7-3.63-.7-1.61,0-2.99.55-4.14,1.65-1.15,1.1-2.06,2.38-2.74,3.82l-7.76-4.58c.42-1.19,1.04-2.48,1.85-3.88.81-1.4,1.82-2.71,3.05-3.95,1.23-1.23,2.61-2.27,4.14-3.12,1.53-.85,3.22-1.27,5.09-1.27,1.53,0,2.97.25,4.33.76,1.36.51,2.69,1.04,4.01,1.59,1.31.55,2.59,1.08,3.82,1.59,1.23.51,2.44.76,3.63.76,1.61,0,2.99-.57,4.14-1.72,1.15-1.15,2.06-2.44,2.74-3.88l7.76,4.58c-.51,1.19-1.17,2.48-1.97,3.88Zm-21.19,75.67c4.75,0,8.36-.25,10.82-.76v-17.06c-.85-.25-2.08-.51-3.69-.76-1.61-.25-3.39-.38-5.35-.38-1.7,0-3.42.13-5.15.38-1.74.25-3.31.72-4.71,1.4-1.4.68-2.53,1.64-3.37,2.86-.85,1.23-1.27,2.78-1.27,4.65,0,3.65,1.15,6.17,3.44,7.57,2.29,1.4,5.39,2.1,9.29,2.1Z"
       id="path39" />
    <path
       class="cls-5"
       d="m655.28,547.66c0,5.26-.76,10.06-2.29,14.38-1.53,4.33-3.69,8.02-6.49,11.07-2.8,3.06-6.17,5.43-10.12,7.13-3.95,1.7-8.29,2.54-13.05,2.54s-9.08-.85-12.98-2.54c-3.9-1.7-7.26-4.07-10.05-7.13-2.8-3.05-4.99-6.74-6.55-11.07-1.57-4.33-2.35-9.12-2.35-14.38s.78-10.03,2.35-14.32c1.57-4.28,3.77-7.95,6.62-11.01,2.84-3.05,6.21-5.41,10.12-7.06,3.9-1.65,8.19-2.48,12.85-2.48s8.97.83,12.92,2.48c3.95,1.66,7.32,4.01,10.12,7.06s4.98,6.73,6.55,11.01c1.57,4.29,2.35,9.06,2.35,14.32Zm-15.78,0c0-6.62-1.42-11.86-4.26-15.72-2.84-3.86-6.81-5.79-11.9-5.79s-9.06,1.93-11.9,5.79c-2.84,3.86-4.26,9.1-4.26,15.72s1.42,12.01,4.26,15.91c2.84,3.9,6.81,5.86,11.9,5.86s9.06-1.95,11.9-5.86c2.84-3.9,4.26-9.2,4.26-15.91Z"
       id="path40" />
    <path
       class="cls-5"
       d="m726.56,491.91c12.81,0,22.63,2.33,29.46,7,6.83,4.67,10.25,11.96,10.25,21.89,0,5.18-.91,9.61-2.74,13.3-1.83,3.69-4.48,6.7-7.95,9.04-3.48,2.33-7.72,4.05-12.73,5.16-5.01,1.1-10.73,1.65-17.18,1.65h-8.02v31.06h-16.04v-86.93c3.73-.85,7.87-1.42,12.41-1.72,4.54-.3,8.72-.45,12.54-.45Zm1.15,13.87c-4.07,0-7.43.13-10.05.38v30.04h7.76c7.72,0,13.66-1.08,17.82-3.25,4.16-2.16,6.24-6.26,6.24-12.28,0-2.88-.55-5.3-1.65-7.25-1.1-1.95-2.63-3.48-4.58-4.58-1.95-1.1-4.26-1.89-6.94-2.35-2.67-.47-5.54-.7-8.59-.7Z"
       id="path41" />
    <path
       class="cls-5"
       d="m835.63,514.44c-6.86,25.29-14.82,48.2-23.88,68.73-1.7,3.82-3.44,7.08-5.22,9.8-1.78,2.71-3.78,4.96-5.99,6.74-2.21,1.78-4.67,3.08-7.39,3.88-2.72.81-5.86,1.21-9.43,1.21-2.38,0-4.74-.25-7.07-.76-2.34-.51-4.1-1.06-5.29-1.65l2.8-12.35c3.07,1.19,6.1,1.78,9.08,1.78,4,0,7.14-.95,9.4-2.86,2.26-1.91,4.24-4.86,5.95-8.85-4.86-9.33-9.52-19.52-14-30.55-4.47-11.03-8.46-22.74-11.95-35.13h16.42c.85,3.56,1.89,7.43,3.13,11.58,1.24,4.16,2.58,8.38,4.03,12.66,1.45,4.29,2.98,8.55,4.6,12.79,1.62,4.24,3.24,8.19,4.86,11.84,2.7-7.55,5.24-15.59,7.6-24.12,2.36-8.53,4.52-16.78,6.46-24.75h15.91Z"
       id="path42" />
    <path
       class="cls-5"
       d="m846.57,496.87l15.4-2.54v20.11h23.67v12.85h-23.67v27.11c0,5.35.85,9.16,2.55,11.45,1.7,2.29,4.58,3.44,8.65,3.44,2.8,0,5.28-.3,7.45-.89,2.16-.59,3.88-1.15,5.15-1.66l2.55,12.22c-1.78.76-4.12,1.55-7,2.35-2.89.81-6.28,1.21-10.18,1.21-4.75,0-8.72-.64-11.9-1.91-3.18-1.27-5.71-3.12-7.57-5.54-1.87-2.42-3.18-5.35-3.95-8.78-.76-3.44-1.15-7.36-1.15-11.77v-57.66Z"
       id="path43" />
    <path
       class="cls-5"
       d="m900.54,581v-96.22l15.4-2.55v32.96c1.7-.59,3.67-1.1,5.92-1.53,2.25-.42,4.47-.64,6.68-.64,5.35,0,9.78.74,13.3,2.23,3.52,1.49,6.34,3.56,8.46,6.24,2.12,2.67,3.63,5.88,4.52,9.61.89,3.73,1.34,7.89,1.34,12.47v37.42h-15.4v-35c0-3.56-.23-6.6-.7-9.1-.47-2.5-1.23-4.54-2.29-6.11-1.06-1.57-2.48-2.71-4.26-3.44-1.78-.72-3.99-1.08-6.62-1.08-2.04,0-4.12.21-6.24.64-2.12.43-3.69.81-4.71,1.15v52.95h-15.4Z"
       id="path44" />
    <path
       class="cls-5"
       d="m1034.81,547.66c0,5.26-.76,10.06-2.29,14.38-1.53,4.33-3.69,8.02-6.49,11.07-2.8,3.06-6.17,5.43-10.12,7.13-3.95,1.7-8.29,2.54-13.05,2.54s-9.08-.85-12.98-2.54c-3.9-1.7-7.26-4.07-10.05-7.13-2.8-3.05-4.99-6.74-6.55-11.07-1.57-4.33-2.35-9.12-2.35-14.38s.78-10.03,2.35-14.32c1.57-4.28,3.77-7.95,6.62-11.01,2.84-3.05,6.21-5.41,10.12-7.06,3.9-1.65,8.19-2.48,12.85-2.48s8.97.83,12.92,2.48c3.95,1.66,7.32,4.01,10.12,7.06,2.8,3.05,4.98,6.73,6.55,11.01,1.57,4.29,2.35,9.06,2.35,14.32Zm-15.78,0c0-6.62-1.42-11.86-4.26-15.72-2.84-3.86-6.81-5.79-11.9-5.79s-9.06,1.93-11.9,5.79c-2.84,3.86-4.26,9.1-4.26,15.72s1.42,12.01,4.26,15.91c2.84,3.9,6.81,5.86,11.9,5.86s9.06-1.95,11.9-5.86c2.84-3.9,4.26-9.2,4.26-15.91Z"
       id="path45" />
    <path
       class="cls-5"
       d="m1050.72,516.6c2.97-.85,6.83-1.66,11.58-2.42,4.75-.76,10.01-1.15,15.78-1.15,5.43,0,9.97.74,13.62,2.23,3.65,1.49,6.55,3.56,8.72,6.24,2.16,2.67,3.69,5.9,4.58,9.67.89,3.78,1.34,7.91,1.34,12.41v37.42h-15.4v-35c0-3.56-.23-6.6-.7-9.1-.47-2.5-1.23-4.54-2.29-6.11-1.06-1.57-2.5-2.71-4.33-3.44-1.83-.72-4.05-1.08-6.68-1.08-1.95,0-3.99.13-6.11.38-2.12.25-3.69.47-4.71.64v53.71h-15.4v-64.4Z"
       id="path46" />
    <path
       class="cls-5"
       d="m1182.19,582.02c-4.67,0-9.38-.15-14.13-.45-4.75-.3-8.91-.91-12.47-1.85v-85.66c1.87-.34,3.86-.66,5.98-.95,2.12-.3,4.28-.53,6.49-.7,2.21-.17,4.39-.3,6.55-.38,2.16-.08,4.22-.13,6.17-.13,5.35,0,10.31.4,14.89,1.21,4.58.81,8.55,2.14,11.9,4.01,3.35,1.87,5.96,4.33,7.83,7.38,1.87,3.05,2.8,6.83,2.8,11.33,0,4.16-1,7.72-2.99,10.69-1.99,2.97-4.77,5.35-8.34,7.13,5.35,1.78,9.29,4.41,11.84,7.89,2.55,3.48,3.82,7.89,3.82,13.24,0,9.08-3.31,15.89-9.93,20.43-6.62,4.54-16.76,6.81-30.42,6.81Zm-10.82-53.33h11.33c6.11,0,10.9-.87,14.38-2.61,3.48-1.74,5.22-4.86,5.22-9.35,0-4.24-1.8-7.26-5.41-9.04-3.61-1.78-8.29-2.67-14.06-2.67-2.46,0-4.65.04-6.55.13-1.91.08-3.54.21-4.9.38v23.16Zm0,12.6v26.86c1.78.17,3.69.3,5.73.38,2.04.08,3.9.13,5.6.13,3.31,0,6.38-.21,9.23-.64,2.84-.42,5.3-1.17,7.38-2.23,2.08-1.06,3.73-2.48,4.96-4.26,1.23-1.78,1.85-4.07,1.85-6.87,0-5.01-1.83-8.48-5.47-10.44-3.65-1.95-8.7-2.93-15.15-2.93h-14.13Z"
       id="path47" />
    <path
       class="cls-5"
       d="m1276.38,528.31c-1.27-.42-3.03-.87-5.28-1.34-2.25-.47-4.86-.7-7.83-.7-1.7,0-3.5.17-5.41.51-1.91.34-3.25.64-4.01.89v53.33h-15.4v-63.38c2.97-1.1,6.68-2.14,11.14-3.12,4.45-.97,9.4-1.46,14.83-1.46,1.02,0,2.21.06,3.56.19,1.36.13,2.71.3,4.07.51,1.36.21,2.67.47,3.95.76,1.27.3,2.29.57,3.05.83l-2.67,12.98Z"
       id="path48" />
    <path
       class="cls-5"
       d="m1311.89,512.78c5.09,0,9.37.64,12.85,1.91,3.48,1.27,6.26,3.05,8.34,5.34,2.08,2.29,3.56,5.07,4.45,8.34.89,3.27,1.34,6.85,1.34,10.75v40.35c-2.38.51-5.96,1.13-10.75,1.85-4.79.72-10.2,1.08-16.23,1.08-3.99,0-7.64-.38-10.95-1.15-3.31-.76-6.13-1.99-8.46-3.69-2.33-1.7-4.16-3.9-5.47-6.62-1.32-2.71-1.97-6.07-1.97-10.05s.74-7.04,2.23-9.67c1.48-2.63,3.5-4.77,6.05-6.43,2.55-1.66,5.49-2.84,8.85-3.56,3.35-.72,6.85-1.08,10.5-1.08,1.7,0,3.48.11,5.35.32,1.87.21,3.86.57,5.98,1.08v-2.54c0-1.78-.21-3.48-.64-5.09-.43-1.61-1.17-3.03-2.23-4.26-1.06-1.23-2.46-2.18-4.2-2.86-1.74-.68-3.93-1.02-6.55-1.02-3.56,0-6.83.25-9.8.76-2.97.51-5.39,1.1-7.25,1.78l-1.91-12.47c1.95-.68,4.79-1.36,8.53-2.04,3.73-.68,7.72-1.02,11.96-1.02Zm1.27,57.4c4.75,0,8.36-.25,10.82-.76v-17.06c-.85-.25-2.08-.51-3.69-.76-1.61-.25-3.39-.38-5.35-.38-1.7,0-3.42.13-5.15.38-1.74.25-3.31.72-4.71,1.4-1.4.68-2.53,1.64-3.37,2.86-.85,1.23-1.27,2.78-1.27,4.65,0,3.65,1.15,6.17,3.44,7.57,2.29,1.4,5.39,2.1,9.29,2.1Z"
       id="path49" />
    <path
       class="cls-5"
       d="m1374.38,569.93c4.07,0,7.04-.49,8.91-1.46,1.87-.97,2.8-2.65,2.8-5.03,0-2.21-1-4.03-2.99-5.47-1.99-1.44-5.28-3.01-9.86-4.71-2.8-1.02-5.37-2.1-7.7-3.25-2.33-1.15-4.35-2.48-6.05-4.01-1.7-1.53-3.03-3.37-4.01-5.54-.98-2.16-1.46-4.82-1.46-7.95,0-6.11,2.25-10.92,6.75-14.45,4.5-3.52,10.61-5.28,18.33-5.28,3.9,0,7.64.36,11.2,1.08,3.56.72,6.24,1.42,8.02,2.1l-2.8,12.47c-1.7-.76-3.86-1.46-6.49-2.1-2.63-.64-5.69-.95-9.16-.95-3.14,0-5.69.53-7.64,1.59-1.95,1.06-2.93,2.7-2.93,4.9,0,1.1.19,2.08.57,2.93.38.85,1.04,1.63,1.97,2.35.93.72,2.16,1.44,3.69,2.16,1.53.72,3.39,1.46,5.6,2.23,3.65,1.36,6.75,2.7,9.29,4.01,2.55,1.32,4.65,2.8,6.3,4.45,1.65,1.65,2.86,3.54,3.63,5.66.76,2.12,1.15,4.67,1.15,7.64,0,6.36-2.35,11.18-7.06,14.45-4.71,3.26-11.43,4.9-20.17,4.9-5.85,0-10.56-.49-14.13-1.46-3.56-.97-6.07-1.76-7.51-2.35l2.67-12.85c2.29.94,5.03,1.83,8.21,2.67,3.18.85,6.81,1.27,10.88,1.27Z"
       id="path50" />
    <path
       class="cls-5"
       d="m1433.05,494.96c0,2.89-.93,5.18-2.8,6.87-1.87,1.7-4.07,2.54-6.62,2.54s-4.88-.85-6.75-2.54c-1.87-1.7-2.8-3.99-2.8-6.87s.93-5.3,2.8-7c1.87-1.7,4.11-2.55,6.75-2.55s4.75.85,6.62,2.55c1.87,1.7,2.8,4.03,2.8,7Zm-1.65,86.04h-15.4v-66.57h15.4v66.57Z"
       id="path51" />
    <path
       class="cls-5"
       d="m1474.16,582.28c-4.58-.09-8.38-.59-11.39-1.53-3.01-.93-5.41-2.27-7.19-4.01-1.78-1.74-3.03-3.9-3.75-6.49-.72-2.59-1.08-5.54-1.08-8.85v-76.62l15.4-2.55v76.24c0,1.87.15,3.44.45,4.71.3,1.27.83,2.35,1.59,3.25.76.89,1.8,1.57,3.12,2.04,1.31.47,2.99.83,5.03,1.08l-2.16,12.73Z"
       id="path52" />
  </g>
</svg>
