<?xml version="1.0" encoding="UTF-8"?>
<!DOCTYPE svg PUBLIC "-//W3C//DTD SVG 1.1//EN" "http://www.w3.org/Graphics/SVG/1.1/DTD/svg11.dtd">
<svg xmlns="http://www.w3.org/2000/svg" version="1.1" width="4096px" height="2214px" style="shape-rendering:geometricPrecision; text-rendering:geometricPrecision; image-rendering:optimizeQuality; fill-rule:evenodd; clip-rule:evenodd" xmlns:xlink="http://www.w3.org/1999/xlink">
<g><path style="opacity:0.997" fill="#1d66c3" d="M 1573.5,-0.5 C 2005.17,-0.5 2436.83,-0.5 2868.5,-0.5C 2852.76,79.2159 2836.76,158.883 2820.5,238.5C 2388.83,239.5 1957.17,239.833 1525.5,239.5C 1541.37,159.474 1557.37,79.4743 1573.5,-0.5 Z"/></g>
<g><path style="opacity:0.997" fill="#1d66c3" d="M 1494.5,370.5 C 1926.17,370.5 2357.83,370.5 2789.5,370.5C 2774.01,450.27 2758.01,529.937 2741.5,609.5C 2309.83,610.5 1878.17,610.833 1446.5,610.5C 1462.37,530.473 1478.37,450.473 1494.5,370.5 Z"/></g>
<g><path style="opacity:0.996" fill="#1d65c4" d="M 1417.5,752.5 C 1549.5,752.333 1681.5,752.5 1813.5,753C 1852.05,755.851 1887.39,767.851 1919.5,789C 1961.61,821.633 1978.45,864.466 1970,917.5C 1960.45,975.815 1930.62,1020.31 1880.5,1051C 1849.06,1069.04 1815.72,1082.37 1780.5,1091C 1815.99,1096.59 1848.32,1109.59 1877.5,1130C 1900.17,1148.49 1913.67,1172.33 1918,1201.5C 1924.07,1268.96 1903.74,1326.96 1857,1375.5C 1810.5,1421.58 1754.34,1447.08 1688.5,1452C 1665.9,1454.6 1643.24,1456.26 1620.5,1457C 1502.83,1457.5 1385.17,1457.67 1267.5,1457.5C 1316.99,1222.39 1366.99,987.389 1417.5,752.5 Z M 1583.5,878.5 C 1624.17,878.333 1664.83,878.5 1705.5,879C 1750.23,881.717 1770.4,905.217 1766,949.5C 1754.44,1008.9 1718.27,1037.07 1657.5,1034C 1621.83,1034.83 1586.16,1034.67 1550.5,1033.5C 1561.88,981.912 1572.88,930.245 1583.5,878.5 Z M 1523.5,1160.5 C 1562.17,1160.33 1600.83,1160.5 1639.5,1161C 1712.6,1165.8 1735.43,1202.3 1708,1270.5C 1692.62,1300.51 1668.12,1318.35 1634.5,1324C 1626.23,1325.56 1617.9,1326.56 1609.5,1327C 1569.17,1327.5 1528.83,1327.67 1488.5,1327.5C 1500.29,1271.86 1511.96,1216.19 1523.5,1160.5 Z"/></g>
<g><path style="opacity:0.994" fill="#1d65c4" d="M -0.5,1306.5 C -0.5,1293.17 -0.5,1279.83 -0.5,1266.5C 1.48277,1253.63 3.48277,1240.63 5.5,1227.5C 71.1667,1227.5 136.833,1227.5 202.5,1227.5C 187.847,1289.73 212.18,1324.23 275.5,1331C 305.622,1334.23 334.956,1330.9 363.5,1321C 398.854,1305.51 417.854,1278.35 420.5,1239.5C 419.462,1221.25 410.796,1208.08 394.5,1200C 387.734,1196.74 380.734,1194.08 373.5,1192C 313.123,1176.16 252.79,1160.16 192.5,1144C 81.7436,1108.98 46.5769,1036.82 87,927.5C 102.811,889.039 126.978,856.873 159.5,831C 208.425,793.06 263.758,769.56 325.5,760.5C 377.312,753.008 429.312,751.508 481.5,756C 513.077,758.582 543.743,765.248 573.5,776C 645.753,805.303 675.919,858.803 664,936.5C 662.489,947.236 660.655,957.902 658.5,968.5C 592.5,968.5 526.5,968.5 460.5,968.5C 461.47,961.479 462.637,954.479 464,947.5C 468.872,907.702 451.705,884.202 412.5,877C 374.674,870.709 340.34,878.709 309.5,901C 287.893,919.144 278.393,942.31 281,970.5C 283.65,980.822 289.15,989.322 297.5,996C 304.225,1001.03 311.558,1005.03 319.5,1008C 372.369,1022.8 425.369,1037.13 478.5,1051C 511.348,1059.61 542.682,1071.95 572.5,1088C 609.732,1112.45 628.399,1147.12 628.5,1192C 623.829,1288.08 579.829,1359.41 496.5,1406C 432.814,1438.5 365.148,1455.5 293.5,1457C 244.755,1459.41 196.422,1456.07 148.5,1447C 111.836,1440.16 78.8356,1425.49 49.5,1403C 20.2538,1377.34 3.58714,1345.17 -0.5,1306.5 Z"/></g>
<g><path style="opacity:0.996" fill="#1d65c4" d="M 798.5,754.5 C 977.167,754.5 1155.83,754.5 1334.5,754.5C 1325.32,799.534 1315.99,844.534 1306.5,889.5C 1193.17,889.5 1079.83,889.5 966.5,889.5C 955.911,938.112 945.578,986.779 935.5,1035.5C 1041.83,1035.5 1148.17,1035.5 1254.5,1035.5C 1244.96,1080.53 1235.29,1125.53 1225.5,1170.5C 1118.83,1170.17 1012.16,1170.5 905.5,1171.5C 894.893,1221.04 884.226,1270.54 873.5,1320C 989.501,1320.17 1105.5,1320.67 1221.5,1321.5C 1211.5,1366.5 1201.5,1411.5 1191.5,1456.5C 1010.17,1457.83 828.833,1457.83 647.5,1456.5C 698.089,1222.55 748.423,988.552 798.5,754.5 Z"/></g>
<g><path style="opacity:0.995" fill="#1d65c4" d="M 2092.5,754.5 C 2224.17,754.333 2355.83,754.5 2487.5,755C 2523.1,753.989 2557.44,759.989 2590.5,773C 2631.99,793.889 2654.49,827.722 2658,874.5C 2660.59,1000.23 2600.42,1076.07 2477.5,1102C 2466.57,1104.39 2455.57,1106.39 2444.5,1108C 2443.09,1108.37 2442.09,1109.2 2441.5,1110.5C 2463.5,1111.52 2485.16,1114.68 2506.5,1120C 2544.24,1129.95 2564.74,1154.45 2568,1193.5C 2569.02,1203.47 2569.52,1213.47 2569.5,1223.5C 2567.25,1272.18 2564.75,1320.84 2562,1369.5C 2561.05,1397.87 2561.38,1426.2 2563,1454.5C 2706.75,1222.67 2850.25,990.668 2993.5,758.5C 3074.5,757.5 3155.5,757.167 3236.5,757.5C 3279.45,990.904 3322.78,1224.24 3366.5,1457.5C 3291.83,1457.83 3217.16,1457.5 3142.5,1456.5C 3135.92,1410.21 3129.59,1363.88 3123.5,1317.5C 3028.5,1317.17 2933.5,1317.5 2838.5,1318.5C 2812.37,1364.59 2786.37,1410.75 2760.5,1457C 2622.83,1457.5 2485.17,1457.67 2347.5,1457.5C 2347.3,1439.15 2347.8,1420.81 2349,1402.5C 2353.7,1349.18 2358.2,1295.85 2362.5,1242.5C 2363.07,1228.53 2359.91,1215.53 2353,1203.5C 2346.51,1195.67 2338.34,1190.5 2328.5,1188C 2319.93,1186.02 2311.27,1184.68 2302.5,1184C 2285.5,1183.83 2268.5,1183.67 2251.5,1183.5C 2234.11,1183.51 2216.95,1184.17 2200,1185.5C 2180.31,1276.14 2160.81,1366.81 2141.5,1457.5C 2074.83,1457.83 2008.16,1457.5 1941.5,1456.5C 1992.15,1222.56 2042.48,988.564 2092.5,754.5 Z M 2264.5,884.5 C 2302.85,884.124 2341.18,884.624 2379.5,886C 2393.88,886.729 2407.88,889.396 2421.5,894C 2444.51,903.826 2456.17,921.326 2456.5,946.5C 2451.76,1017.75 2413.76,1053.91 2342.5,1055C 2304.5,1055.5 2266.5,1055.67 2228.5,1055.5C 2240.5,998.5 2252.5,941.5 2264.5,884.5 Z M 3074.5,895.5 C 3075.5,895.5 3076.5,895.5 3077.5,895.5C 3086.7,992.846 3096.03,1090.18 3105.5,1187.5C 3041.5,1187.67 2977.5,1187.5 2913.5,1187C 2967.83,1090.18 3021.49,993.014 3074.5,895.5 Z"/></g>
<g><path style="opacity:0.996" fill="#1d65c4" d="M 4095.5,754.5 C 4095.5,756.167 4095.5,757.833 4095.5,759.5C 4085.88,802.653 4076.55,845.986 4067.5,889.5C 3954.17,889.5 3840.83,889.5 3727.5,889.5C 3717.17,938.165 3706.83,986.832 3696.5,1035.5C 3802.83,1035.5 3909.17,1035.5 4015.5,1035.5C 4006.35,1080.27 3996.68,1124.94 3986.5,1169.5C 3879.84,1170.5 3773.17,1170.83 3666.5,1170.5C 3655.91,1220.45 3645.58,1270.45 3635.5,1320.5C 3751.17,1320.5 3866.83,1320.5 3982.5,1320.5C 3972.82,1366.09 3962.82,1411.59 3952.5,1457C 3771.17,1457.67 3589.83,1457.67 3408.5,1457C 3459.28,1222.95 3509.61,988.785 3559.5,754.5C 3738.17,754.5 3916.83,754.5 4095.5,754.5 Z"/></g>
<g><path style="opacity:0.997" fill="#1d66c3" d="M 1235.5,1602.5 C 1667.17,1602.5 2098.83,1602.5 2530.5,1602.5C 2514.76,1682.22 2498.76,1761.88 2482.5,1841.5C 2050.83,1842.5 1619.17,1842.83 1187.5,1842.5C 1203.37,1762.47 1219.37,1682.47 1235.5,1602.5 Z"/></g>
<g><path style="opacity:0.997" fill="#1d66c3" d="M 2403.5,2213.5 C 1971.83,2213.5 1540.17,2213.5 1108.5,2213.5C 1124.37,2133.47 1140.37,2053.47 1156.5,1973.5C 1588.17,1973.5 2019.83,1973.5 2451.5,1973.5C 2435.88,2053.58 2419.88,2133.58 2403.5,2213.5 Z"/></g>
</svg>

