<?xml version="1.0" encoding="UTF-8"?>
<svg xmlns="http://www.w3.org/2000/svg" xmlns:xlink="http://www.w3.org/1999/xlink" viewBox="0 0 1080 1080">
  <defs>
    <style>
      .cls-1 {
        fill: #fff;
      }

      .cls-2 {
        fill: #353404;
      }

      .cls-3 {
        fill: #f8bf27;
      }

      .cls-4 {
        fill: #ffd91f;
      }

      .cls-5 {
        clip-path: url(#clippath);
      }

      .cls-6 {
        fill: none;
      }

      .cls-7 {
        fill: #f8c335;
      }

      .cls-8 {
        fill: #3f99ff;
      }

      .cls-9 {
        fill: #434215;
      }

      .cls-10 {
        fill: #ff5c27;
      }
    </style>
    <clipPath id="clippath">
      <rect class="cls-6" width="1080" height="1080"/>
    </clipPath>
  </defs>
  <g id="Camada_1" data-name="Camada 1">
    <rect class="cls-8" x="-.25" y="-1.08" width="1080.5" height="1080.5"/>
  </g>
  <g id="Camada_2" data-name="Camada 2">
    <g>
      <g>
        <path class="cls-2" d="M787.14,372.69v143.42c30.55-2.23,52.41,11.47,65.87,40.61-13.46-8.26-30.38-8.59-44.15-.91-11.63,6.43-19.49,17.75-21.72,30.54v151.09c0,35.98,30.95,65.19,57.76,65.19,2.2,0,4.29,.87,5.86,2.41,1.54,1.56,2.4,3.66,2.4,5.84v66.02c0,2.19-.86,4.29-2.4,5.83-1.54,1.54-3.66,2.41-5.83,2.41h-109.77c-42.07,0-81.02-17.72-129.54-82.52-44.47-59.36-168.75-248.3-193.67-286.27-.57-.87-1.66-1.27-2.66-.97s-1.69,1.23-1.69,2.29c.14,40.34,.8,219.77,.8,219.77,0,35.98,29.86,65.19,56.93,65.19,4.57,0,8.26,3.7,8.26,8.26v66.33c0,4.33-3.52,7.84-7.83,7.84h-.03c-5.37,0-16.66-3.79-27.46-8.9-19.06-9.09-41.01-9.99-60.81-2.49-17.18,6.53-27.58,11.89-43.67,11.89s-26.55-5.36-43.81-11.89c-19.72-7.5-41.67-6.6-60.81,2.4-10.8,5.03-22.12,8.92-27.41,8.92-2.17,0-4.29-.87-5.83-2.43-1.54-1.54-2.4-3.64-2.4-5.83v-65.6c0-2.14,.83-4.2,2.37-5.72,1.51-1.51,3.54-2.37,5.72-2.37h.06c27.49,0,57.87-29.21,57.87-65.19v-148.53c-1.4-14.03-9.57-26.58-22.12-33.51-13.77-7.67-30.69-7.34-44.15,.91,13.6-29.31,35.55-43,66.27-40.61v-143.42c0-35.98-31.04-65.19-58.18-65.19-2.2,0-4.29-.87-5.83-2.41-1.54-1.54-2.43-3.64-2.43-5.83v-66.07c0-4.53,3.69-8.2,8.2-8.2h115.57c54.47,0,88.53,25.83,127.92,82.52,40.67,58.51,164.58,248.67,189.53,286.99,.57,.9,1.66,1.3,2.69,1,1-.3,1.71-1.24,1.71-2.3v-220.51c0-35.98-29.44-65.12-56.96-65.19h-.09c-4.52,0-8.14-3.64-8.14-8.14v-66.19c0-4.53,3.66-8.19,8.17-8.19h264.12c2.17,0,4.29,.87,5.8,2.43,1.54,1.56,2.4,3.66,2.37,5.84-.14,15.82-.49,50.2-.66,66-.03,4.57-3.77,8.24-8.32,8.24-26.92,0-57.78,29.21-57.87,65.19Z"/>
        <path class="cls-9" d="M788.11,367.01c-1.02,4.09-1.96,6.3-2.73,5.49-.59-.79-1.83-4.69-1.09-12.67,.78-7.85,3.58-20.24,14.09-34.1,5.27-6.82,12.55-13.91,22.79-19.54,5.21-2.64,11.13-4.97,17.97-6.06,1.68-.15,3.38-.3,5.1-.45-.38,.03,.34-.1,.4-.24,.42-.31,.63-.84,.54-1.32-.1-13.56-.2-29.09-.33-46.59-.01-4.42-.02-8.97-.03-13.64v-3.35s-.06-.14-.06-.14c-.05-.08-.14-.12-.21-.13-8.4,.08-17.21,.17-26.45,.25-14.81-.16-67.12-.74-102.6-1.13-33.27,0-65.75-.02-97.26-.03-7.88,0-15.7,0-23.45,0-3.88,0-7.74,0-11.58,0-.68-.06-1.02,.2-1.23,.65-.02,13.99-.05,27.74-.07,41.23,0,7.35,0,14.64,0,21.85v1.14c0,.11,.03,.22,.07,.32,.09,.2,.24,.38,.43,.49,.14,.11,.53,.13,.53,.13,2.12,.19,4.31,.15,6.36,.59,16.75,2.77,30.19,12.46,39.78,23.98,9.73,11.57,15.66,25.71,17.42,40.04,.42,3.49,.54,7.39,.58,10.53v9.42c0,6.23,0,12.38,0,18.43,0,48.42,0,90.96,0,126.26,0,19.76,0,37.49,0,53.02-.05,6.26,.48,13.86-1.5,16.21-.76,1.47-1.54,2.43-2.22,3.21-.82,.79-.87,1.21-2.57,2.1-1.59,.86-3.96,1.05-4.62,.85-.76-.13-1.65-.35-2.61-.67-1.9-.72-4.49-1.64-7.08-5.32-102.28-154.82-146.03-221.03-180.47-273.16-18.95-29.14-38.86-54.98-63.26-71.91-12.16-8.35-25.47-13.83-39.21-16.71-13.82-2.84-27.75-2.52-42.61-2.5-29.14,.03-57.31,.06-84.99,.09h-10.36s-3.13,.02-3.13,.02c-.15,.02-.31,.08-.41,.2-.12,.09-.19,.24-.23,.39v.23s0,2.13,0,2.13v10.26c.03,13.66,.04,27.26,.06,40.85v10.2c-.02,.45,.13,.61,.37,.77,.11,.06,.29,.09,.37,.07,2.06,.17,4.19,.14,6.18,.55,4.06,.62,7.94,1.73,11.69,3.1,14.89,5.76,26.76,16.46,35.43,29.31,4.26,6.51,7.53,13.73,9.71,21.34,1.16,3.8,1.77,7.74,2.36,11.7,.29,3.95,.53,8.22,.46,11.53,0,14.12,.02,28.43,.03,42.97,.01,30.13,.02,61.25,.03,93.86v11.46c-.04,.2,.09,.57-.09,.62h-.71s-1.42-.05-1.42-.05l-2.85-.06-5.71-.13c-1.95-.06-4.02-.24-5.83-.14l-2.06,.04c-.44,.01-.89,0-1.32,.06-1.73,.21-3.51,.24-5.21,.57-6.86,1.09-13.47,3.3-19.29,7.09-2.91,1.89-5.68,4.07-8.22,6.62l-.88,.84-.13,.15-.26,.29-.26,.33c-.28,.43-.82,1.18,.01,.66,.06-.02,.16-.05,.27-.08l.37-.06,2.78,.02c4.5,.13,8.95,.86,13.11,2.07,8.35,2.44,15.6,6.73,21.38,12.13,11.53,10.86,16.81,25.59,16.24,38.31-.05,21.42-.1,38.44-.13,52.53-.16,28.18-.26,44.65-.36,61.11-.06,8.23-.12,16.46-.19,26.16,.11,9.78-1,23.57-8.25,37.41-3.58,6.98-8.53,14.2-15.5,20.94-6.96,6.68-15.95,13.14-27.92,16.66-2.93,.97-6.17,1.47-9.47,1.88-4.61,.34-3.88,.11-4.53,.44-.46,.27-.75,.82-.7,1.39,0,2.99,0,6.05-.01,9.19-.01,13.09-.02,27.46-.04,43.3,.07,4.98-.17,12.29,.16,11.33,.21,.43,.63,.74,1.08,.82,.23,.04,.46,.02,.69,0,.16-.02,1.61-.27,2.48-.51,4.08-1,8.4-2.56,12.5-4.2,4.31-1.86,8.53-3.69,12.67-5.48,18.41-7.26,37.5-7.6,53.96-3.11,16.44,4.97,28.63,11.86,40.91,13.29,12.57,1.72,23.85-.89,36.19-6.03,6.26-2.39,12.37-5.19,19.89-7.37,7.28-2.1,14.92-3.16,22.7-3.26,7.78-.03,15.72,.92,23.55,3.12,3.92,1.07,7.82,2.45,11.62,4.15,3.87,1.72,6.69,3.07,10.24,4.45,6.07,2.65,16.52,5.23,14.78,4.2,.2-.14,.36-.35,.4-.59,.03-.12,.01-.25,.01-.37v-2.91c-.01-4.32-.02-8.72-.02-13.21,0-8.98-.02-18.33-.03-28.11,0-4.89,0-9.88,0-14.99v-3.85c0-.44,0-.37-.04-.57-.08-.27-.31-.5-.59-.59-.15-.04-.22-.05-.44-.04l-4.36-.29c-2.81-.48-5.67-.87-8.3-1.74-5.39-1.48-10.23-3.87-14.76-6.52-9.03-5.38-16.23-12.61-21.96-20.48-5.7-7.91-9.8-16.66-12.17-25.66-2.51-8.83-2.66-18.79-2.56-26.16-.09-31.48-.18-59.89-.26-86.36-.07-26.47-.13-50.98-.2-74.66-.04-14.12-.07-27.98-.11-41.77l-.02-8.1c.03-2.67,.72-4.37,1.35-5.73,1.43-2.69,2.56-3.85,3.95-5.06,1.04-.81,3.44-1.54,4.77-1.44,1.05-.01,2.2,.95,3.3,1.38l3.33,1.67c1.13,.62,2.09,.66,3.75,3.04,24.37,36.91,49.37,74.77,79,119.65,27.73,41.39,59.55,89.58,101.12,148.31,20.54,28.8,42.51,56.87,70.76,76.14,14.09,9.44,29.66,16.12,46.22,18.44,8.38,1.29,16.39,1.46,25.59,1.35l26.86-.03,53.68-.08,13.41-.02h6.7c1.16,0,.88-.03,1.32-.23,.26-.18,.43-.46,.48-.77v-4.39l-.03-13.39-.07-26.77-.04-13.37-.02-6.03c0-.27-.1-.53-.28-.72-.18-.18-.44-.29-.7-.29,.12,.01-.4-.03,.24,.03l-1.01-.06-2.03-.13c-1.36-.06-2.7-.19-3.99-.48-5.29-.8-10.23-2.55-14.9-4.66-9.34-4.26-17.27-10.63-23.91-18.02-9.12-10.11-15.47-22.61-18.3-35.95-1.34-6.53-1.58-14.04-1.51-19.6,0-5.96-.02-11.91-.03-17.83,.01-23.7,.03-47.07,.04-70.08,.04-11.51,.08-22.92,.11-34.25,.03-5.66,.05-11.3,.08-16.91,.25-2.94-.5-4.93,.58-10.16,.72-3.26,1.75-6.45,3.07-9.5,5.23-12.24,15.4-22.13,27.37-27.07,5.97-2.57,12.42-3.89,18.8-4.08h2.36c.84,0,.42,.01,.69,.02l.66,.11c.45,.1,.92,.23,1.39,.42,2.65,1.79,1.05-.72,.26-2.07-.23-.37-.52-.78-.9-1.24l-.27-.34-1.03-1.01-2.16-2.14c-3.04-2.62-6.22-5.05-9.72-6.92-6.96-3.76-14.81-5.86-22.94-6.34-2.73-.21-7.37-.03-10.81-.02-1.77-.06-3.87,.22-5.34-.13l.06-5.64c.09-5.85,.17-11.67,.26-17.46,.72-35.03,1.6-68.68,2.66-100.89,1.76-52.64,9.49-14.9,11.33,23.47,.58,12,.99,25.52,1.27,40.09,.16,13.92,.33,28.83,.51,44.28h.03s0,0,0,0l1.82,.05c2.33,.21,4.68,.39,7.03,.74,9.37,1.45,18.94,4.69,27.13,10.2,4.14,2.67,7.87,5.88,11.28,9.31,.66,.51,2.35,2.71,3.52,4.07,1.26,1.56,2.65,3.07,3.8,4.66,1.99,3.2,4.55,6.51,6.06,9.58,3.44,6.35,6.11,12.04,9.38,18.65l2.35,4.8,.55,1.35,4.24,9.18c-14.23-8.01-24.73-14.29-31.96-17.56-3.13-1.01-6.2-1.93-8.82-2.01l-2.06-.24h-.91s-1.71,0-1.71,0c-4.44,.17-8.79,1.16-12.76,2.91-8.05,3.45-14.28,9.82-17.7,17.17-.95,2.03-1.74,4.16-2.29,6.35l-.32,1.41c-.05,.28-.03-.17-.05,.82l-.05,4.19-.19,16.8c-.12,11.22-.24,22.5-.36,33.83-.21,22.65-.43,45.5-.65,68.49l-.15,17.27-.07,8.66c.17,2.64,.06,5.19,.49,7.77,1.26,10.29,5.39,20.3,11.73,28.81,6.28,8.48,14.73,15.64,24.29,19.65,2.37,1.03,4.83,1.83,7.28,2.35,1.23,.2,2.47,.61,3.7,.66l4.64,.32c4.74,.35,9.12,3.18,11.35,7.3,1.13,2.05,1.74,4.38,1.76,6.74l-.02,4.93c-.06,11.72-.13,23.45-.19,35.2l-.09,17.63-.02,4.41c-.04,1.44,.06,2.74-.1,5.4-.44,4.61-3.32,8.82-7.42,10.88-2.03,1.05-4.33,1.56-6.65,1.53l-4.79-.02-8.83-.04-17.67-.07-35.34-.12-35.32-.1c-11.63,.14-24.31-.37-36.18-3.18-24.17-5.29-45.46-18.84-63.12-34.74-18.22-16.41-32.6-34.4-45.39-51.74-12.73-17.36-24.28-33.98-35.2-49.79-21.81-31.63-40.96-60.04-58.44-86.05-33.31-50.03-60.42-90.74-86.49-129.89l-2.65-4c-.27-.74-1.24-1.31-1.91-.65-.6,.63-.23,1.56-.32,2.33l.08,10.04c.08,14.4,.16,28.89,.24,43.68,.16,29.57,.33,60.34,.51,94.03,.08,16.84,.17,34.42,.27,52.94-.1,9.17,.9,17.4,4.2,25.91,3.14,8.38,8.38,16.25,15.12,22.86,6.68,6.62,15.27,11.86,24.56,13.9,1.16,.19,2.33,.52,3.5,.62l4.01,.26c4.45,.03,8.76,2.28,11.32,5.92,1.28,1.81,2.13,3.94,2.44,6.17,.15,1.08,.16,2.34,.15,3.31v2.14c0,2.85,0,5.73,0,8.62,0,11.59,.01,23.52,.02,35.82,0,3.07,0,6.17,0,9.3v4.7s0,2.36,0,2.36c0,1.13,.03,2.51-.13,3.73-.57,4.99-4.1,9.46-8.87,11.15-2.37,.89-4.98,.97-7.57,.63-2.69-.37-3.91-.72-5.81-1.19-6.58-1.76-12.58-4.15-18.53-6.8-5.85-2.77-10.79-4.78-16.57-6.18-11.26-2.73-23.17-2.72-34.41,.12-10.94,2.74-22.49,9.03-35.41,12.37-13.12,3.47-27.4,3.05-40.23-1.01-12.69-3.81-23.82-9.94-34.98-12.15-11.36-2.36-23.29-1.9-34.47,1.31-5.7,1.49-10.6,4.03-16.82,6.68-6.03,2.48-11.98,4.78-18.94,6.24-1.62,.34-4.7,.73-6.96,.39-2.42-.35-4.73-1.37-6.62-2.89-3.92-2.89-5.65-8.43-5.2-12.8l.03-18.8,.06-37.6v-4.7s.03-3.03,.03-3.03c.05-1.22,.25-2.44,.61-3.6,1.42-4.67,5.52-8.34,10.33-9.25,1.2-.25,2.42-.24,3.68-.34l2.03-.13c1.35,0,2.7-.33,4.05-.58,2.71-.42,5.38-1.37,7.98-2.39,20.98-8.7,36.41-30.94,37.31-53.83l.2-150.1c-.51-9.22-5.44-18.71-11.7-24.35-6.31-5.9-13.83-8.92-20.1-9.9-1.58-.26-3.09-.39-4.52-.48-1.43-.02-2.56-.09-5.23,.23-2.16,.03-4.55,.95-6.55,1.38-2.54,1.09-4.86,2.22-7.16,3.33-5.57,2.94-9.69,5.12-12.17,6.43-1.3,.68-2.4,1.34-2.58,1.34,.05-.21,.04-.19-.04,.08,1.17-4.5,.23-4.64-.33-4.99,2-3.95,3.96-7.82,5.89-11.64,3.81-7.22,8.16-14.76,14.23-21.12,8.78-9.37,19.09-15.16,29.7-17.96,5.24-1.5,10.47-2.08,15.48-2.38,2.12-.05,2.33-.08,3.5-.02,.45,0,.99,.09,1.35,0v-1.4c-.03-7.55-.05-14.66-.07-21.44-.1-31.76-.17-57.32-.26-84.4-.02-6.77-.04-13.63-.06-20.71-.03-3.51-.06-7.06-.09-10.69-.08-3.32-.42-6.67-1.1-10.06-2.72-13.45-10.62-27.67-24.36-38.12-6.89-4.91-15.31-9.22-24.41-9.72l-1.7-.11c-1.7-.08-2.39-.12-3.6-.37-2.17-.46-4.24-1.43-5.99-2.83-3.53-2.77-5.68-7.32-5.46-12.05,0-5.78-.01-11.75-.02-17.92-.01-12.22-.03-25.26-.04-39.23v-5.28c.01-1.2-.22-5.24,.84-7.75,1.92-5.6,7.57-9.73,13.8-9.64,7.62,0,15.5-.01,23.65-.02,27.43-.01,50.96-.02,71.56-.03,10.36,.05,19.69-.15,29.17,.27,9.31,.63,18.05,1.7,26.06,3.87,16.14,3.95,29.34,10.83,40.28,18.52,10.98,7.72,19.94,16.18,28.22,25.07,16.45,17.92,29.99,37.85,47.03,64.12,17.35,26.24,39.01,58.99,69.27,104.74,44.32,66.57,60.47,90.82,92.07,138.28,.51,.7,1.15,1.58,1.9,2.62,.77,.46,1.16-.65,.95-1.39-.02-.77-.04-1.6-.06-2.47-.07-10.83-.15-24.13-.24-39.65-.01-8.72-.06-45.68-.12-82.77,0-18.55-.02-37.13-.02-52.23-.02-15.03,.11-27.03-.26-30.61-.56-6.89-3.61-21.61-15.52-35.04-5.92-6.45-13.9-12.66-23.2-15.41-2.28-.84-4.68-1.16-7.03-1.5l-4.74-.32c-2.55-.21-5.02-1.04-7.14-2.42-4.28-2.73-7.04-7.68-7.03-12.88v-9.49c.01-11.86,.03-23.71,.04-35.07,0-5.68,0-11.23,.01-16.6v-4.19c-.05-2.32,.28-4.59,1.13-6.65,1.63-4.16,5.09-7.33,9.09-8.76,2.01-.73,4.13-.94,6.24-.91h3.7c2.34,0,4.6,0,6.79,0,4.38,0,8.45,0,12.15,0,7.4-.02,13.31-.03,17.25-.04,11-.07,58.33-.37,116.93-.74,29.3-.03,61.42-.06,93.24-.09l12.16,.04c7.36-.4,14.24,4.52,16.29,11.38,.53,1.69,.77,3.47,.74,5.27l-.05,3.46-.09,5.86c-.07,3.89-.13,7.76-.2,11.6-.32,15.51-.64,30.55-.94,44.73-.03,6.91-4.88,13.05-11.16,14.79-1.69,.48-2.87,.62-5.09,.69l-2.26,.1c-1.5-.05-3,.38-4.49,.58-5.96,1.16-11.58,3.71-16.48,6.78-9.95,6.13-16.78,14.52-21.45,21.7-4.67,7.31-6.81,13.84-8.39,18.01-1.52,4.22-2.43,6.23-3.3,5.16Z"/>
      </g>
      <path class="cls-9" d="M222.35,780.48c3.06,2.7,6.14,6.17,5.82,8.64-.03,.18-1.27-.3-1.53-.06-3.01,2.9-5,5.05-6.13,6.29-1.9,2.09-2.64,3.56-4.69,5.49-1.85,1.74-1.64,.24-3.52,1.95-1.27,1.15-1,2.06-2.21,3.29-2.11,2.14-2.76,2.19-4.91,4.29-1.03,1-1.98,2.09-2.57,3.51-.75,1.81-2.77,2.15-7.01-.05-1.62-.85-6.88-6.53-7.93-8.09-1.76-2.62,.14-2.29,1.36-2.2,2.76,.21,4.87-.43,6.25-1.7,2.95-2.73,2.54-3.5,5.22-6.49,1.35-1.49,3.25-2.45,4.59-3.95,2.01-2.25,1.03-2.17,2.99-4.47,1.43-1.68,1.52-1.17,2.88-2.92,.76-.97,.53-1.32,1-2.58,.07-.18,.9-1.2,1.09-1.27,.33-.12,1.61-1.1,1.72-1.43,.12-.36-.07-5.91,7.58,1.74Z"/>
      <path class="cls-9" d="M498.9,846c3.17,2.56,6.33,5.98,5.84,8.73-.04,.2-1.36-.17-1.65,.14-3.43,3.57-5.72,6.17-7.01,7.68-2.18,2.53-3.06,4.23-5.4,6.62-2.11,2.15-1.79,.47-3.94,2.59-1.44,1.43-1.2,2.39-2.58,3.88-2.41,2.61-3.12,2.76-5.57,5.33-1.17,1.23-2.27,2.54-2.98,4.17-.92,2.08-3.13,2.72-7.61,.84-1.72-.73-7.11-6.28-8.16-7.86-1.76-2.65,.28-2.52,1.6-2.58,2.99-.12,5.32-1.09,6.88-2.66,3.36-3.37,2.95-4.16,6.04-7.78,1.54-1.81,3.66-3.09,5.2-4.91,2.31-2.73,1.24-2.51,3.5-5.28,1.65-2.02,1.72-1.47,3.29-3.56,.88-1.16,.65-1.52,1.23-2.95,.08-.2,1.04-1.43,1.25-1.53,.37-.18,1.8-1.4,1.95-1.78,.15-.41,.25-6.47,8.13,.94Z"/>
      <path class="cls-9" d="M871.52,854.85c3.06,2.69,6.21,6.1,6.12,8.35,0,.17-1.2-.36-1.42-.15-2.55,2.48-4.22,4.34-5.16,5.41-1.59,1.8-2.15,3.11-3.89,4.76-1.57,1.49-1.5,.11-3.11,1.57-1.08,.98-.76,1.84-1.77,2.89-1.78,1.83-2.38,1.85-4.2,3.64-.87,.86-1.66,1.8-2.09,3.07-.55,1.63-2.39,1.81-6.51-.51-1.58-.89-6.93-6.48-8.03-7.99-1.85-2.54-.06-2.1,1.08-1.94,2.58,.37,4.48-.08,5.66-1.16,2.51-2.32,2.06-3.07,4.3-5.65,1.12-1.29,2.81-2.05,3.93-3.34,1.68-1.95,.77-1.94,2.4-3.94,1.19-1.46,1.31-.98,2.43-2.5,.62-.85,.38-1.19,.71-2.31,.05-.16,.73-1.05,.9-1.1,.3-.09,1.4-.9,1.47-1.21,.08-.32-.56-5.46,7.17,2.1Z"/>
      <path class="cls-9" d="M898.59,548.12c2.92,2.84,5.87,6.43,5.58,8.74-.02,.17-1.2-.41-1.44-.2-2.82,2.48-4.69,4.33-5.75,5.4-1.78,1.8-2.46,3.13-4.39,4.77-1.74,1.48-1.55,.08-3.32,1.52-1.19,.98-.93,1.87-2.06,2.91-1.98,1.83-2.59,1.83-4.61,3.61-.96,.85-1.85,1.8-2.4,3.09-.7,1.65-2.6,1.79-6.64-.7-1.54-.96-6.57-6.84-7.58-8.42-1.68-2.65,.11-2.16,1.27-1.96,2.61,.45,4.61,.05,5.9-1.03,2.77-2.31,2.37-3.09,4.89-5.67,1.26-1.3,3.05-2.02,4.31-3.32,1.88-1.95,.96-1.97,2.79-3.97,1.34-1.46,1.43-.97,2.7-2.5,.71-.85,.49-1.21,.92-2.35,.06-.16,.84-1.05,1.02-1.1,.31-.09,1.51-.89,1.61-1.19,.11-.33-.12-5.62,7.19,2.36Z"/>
      <path class="cls-9" d="M891.26,542.21c2.94,2.82,5.98,6.33,5.98,8.4,0,.15-1.13-.47-1.32-.3-2.26,2.02-3.74,3.54-4.57,4.43-1.4,1.49-1.87,2.64-3.41,3.97-1.4,1.21-1.38-.06-2.81,1.11-.96,.79-.63,1.62-1.53,2.48-1.57,1.5-2.13,1.44-3.74,2.9-.77,.7-1.47,1.48-1.81,2.61-.44,1.44-2.14,1.41-6.04-1.18-1.49-1-6.66-6.76-7.74-8.28-1.81-2.55-.14-1.95,.92-1.67,2.4,.63,4.14,.42,5.19-.45,2.23-1.87,1.79-2.61,3.76-4.75,.99-1.07,2.52-1.58,3.5-2.66,1.47-1.62,.64-1.71,2.07-3.37,1.04-1.21,1.17-.76,2.15-2.05,.54-.71,.31-1.06,.57-2.06,.04-.14,.64-.89,.79-.92,.27-.05,1.26-.68,1.32-.95,.06-.29-.73-5.11,6.72,2.73Z"/>
      <path class="cls-9" d="M884.88,532.49c3.17,2.56,6.47,5.83,6.51,8.03,0,.17-1.2-.33-1.4-.11-2.35,2.48-3.87,4.33-4.73,5.4-1.44,1.8-1.92,3.09-3.52,4.74-1.45,1.49-1.46,.15-2.95,1.6-1,.98-.63,1.82-1.56,2.86-1.63,1.83-2.22,1.85-3.89,3.65-.8,.85-1.52,1.79-1.86,3.04-.44,1.6-2.23,1.82-6.41-.35-1.6-.84-7.2-6.18-8.37-7.64-1.97-2.44-.19-2.05,.94-1.92,2.55,.31,4.39-.17,5.48-1.26,2.32-2.32,1.83-3.04,3.87-5.61,1.02-1.29,2.63-2.06,3.64-3.35,1.52-1.94,.64-1.91,2.11-3.9,1.07-1.45,1.23-.99,2.23-2.5,.56-.84,.3-1.17,.55-2.28,.04-.16,.65-1.04,.82-1.1,.29-.1,1.32-.91,1.37-1.21,.06-.32-.89-5.33,7.16,1.9Z"/>
      <path class="cls-9" d="M878.05,552.71c3.19,2.53,6.68,5.59,7.33,7.15,.05,.11-1.03-.51-1.13-.41-1.14,1.19-1.82,2.13-2.19,2.68-.63,.92-.63,1.72-1.43,2.5-.72,.7-1.1-.24-1.86,.43-.51,.45,.01,1.13-.42,1.64-.76,.9-1.21,.78-2.02,1.65-.39,.41-.68,.9-.6,1.7,.11,1.02-1.24,.75-5.11-1.75-1.48-.96-7.34-6.01-8.66-7.3-2.22-2.17-.72-1.48,.2-1.13,2.08,.81,3.38,.9,3.93,.4,1.16-1.09,.58-1.7,1.46-3.03,.44-.66,1.48-.83,1.91-1.5,.65-1-.03-1.19,.56-2.24,.44-.76,.68-.4,1.04-1.23,.2-.46-.09-.75-.2-1.47-.01-.1,.22-.58,.33-.58,.2,0,.77-.33,.73-.53-.04-.21-2.18-3.94,6.12,3Z"/>
      <path class="cls-9" d="M873.52,525.86c2.94,2.82,5.94,6.37,5.77,8.59-.01,.17-1.17-.43-1.39-.23-2.59,2.3-4.29,4.03-5.26,5.03-1.62,1.69-2.21,2.94-3.98,4.47-1.59,1.38-1.48,.03-3.11,1.37-1.1,.9-.8,1.77-1.84,2.75-1.81,1.7-2.4,1.68-4.25,3.34-.88,.79-1.69,1.68-2.15,2.9-.59,1.57-2.41,1.64-6.4-.87-1.53-.97-6.63-6.79-7.67-8.34-1.74-2.61,0-2.07,1.12-1.85,2.53,.51,4.42,.18,5.61-.82,2.55-2.14,2.12-2.9,4.42-5.32,1.15-1.21,2.83-1.85,3.97-3.07,1.71-1.83,.82-1.87,2.49-3.74,1.22-1.36,1.32-.89,2.47-2.32,.64-.8,.41-1.15,.77-2.24,.05-.15,.75-.99,.92-1.03,.3-.07,1.41-.81,1.49-1.1,.09-.31-.38-5.41,7,2.49Z"/>
      <path class="cls-9" d="M865.35,524.97c3.38,2.27,7.01,5.17,7.42,7.15,.03,.15-1.18-.28-1.33-.09-1.78,2.25-2.89,3.93-3.52,4.9-1.05,1.63-1.27,2.79-2.5,4.29-1.1,1.35-1.34,.15-2.49,1.47-.77,.89-.29,1.64-.98,2.59-1.22,1.66-1.76,1.69-3.02,3.31-.6,.78-1.12,1.63-1.23,2.75-.14,1.44-1.78,1.66-6.04-.25-1.63-.74-7.75-5.48-9.08-6.77-2.24-2.17-.52-1.84,.56-1.73,2.43,.25,4.07-.2,4.9-1.18,1.78-2.11,1.2-2.75,2.68-5.08,.74-1.17,2.11-1.88,2.84-3.05,1.1-1.76,.28-1.72,1.32-3.52,.76-1.31,.98-.9,1.66-2.27,.38-.76,.08-1.06,.14-2.05,0-.14,.44-.94,.58-.99,.25-.09,1.08-.83,1.08-1.1,0-.28-1.71-4.77,7,1.63Z"/>
      <path class="cls-9" d="M856.96,519.5c2.27,3.38,4.56,7.42,4.78,9.06,.02,.12-.85-.79-.97-.7-1.43,.86-2.27,1.7-2.72,2.2-.77,.83-.84,1.63-1.67,2.37-.73,.69-1.11-.28-1.88,.43-.53,.48,.03,1.15-.38,1.69-.69,.97-1.16,.9-1.85,1.91-.33,.48-.53,1.05-.29,1.8,.33,.98-.99,.96-5.45-.23-1.72-.45-8.79-3.59-10.37-4.55-2.67-1.6-.92-1.65,.14-1.69,2.4-.13,3.86-.62,4.49-1.53,1.38-1.93,.76-2.5,2.03-4.57,.66-1.03,1.95-1.53,2.67-2.47,1.1-1.42,.32-1.55,1.47-2.99,.85-1.05,1.02-.59,1.84-1.68,.48-.59,.25-.94,.5-1.84,.04-.13,.61-.73,.76-.73,.25-.01,1.18-.41,1.25-.64,0-.24-.05-5.03,5.64,4.18Z"/>
      <path class="cls-9" d="M873.64,534.4c3.15,2.58,6.56,5.73,7.08,7.41,.04,.13-1.05-.49-1.17-.37-1.38,1.42-2.23,2.52-2.7,3.16-.79,1.08-.89,1.97-1.85,2.9-.86,.85-1.17-.18-2.06,.63-.61,.55-.12,1.26-.65,1.87-.93,1.07-1.41,.97-2.39,2-.47,.49-.85,1.06-.86,1.94,0,1.13-1.43,.94-5.32-1.55-1.49-.96-7.23-6.14-8.51-7.48-2.14-2.25-.6-1.6,.35-1.27,2.15,.74,3.56,.75,4.21,.14,1.39-1.3,.84-1.95,1.95-3.5,.56-.77,1.7-1.04,2.25-1.82,.82-1.17,.11-1.33,.88-2.54,.56-.89,.79-.5,1.28-1.45,.27-.53-.01-.83-.04-1.62,0-.11,.31-.66,.43-.67,.21-.02,.88-.43,.86-.65-.02-.23-1.88-4.23,6.27,2.88Z"/>
      <path class="cls-9" d="M867.15,554.95c-3.88,1.24-8.44,2.19-9.88,2.63-.11,.04,1.01-.52,.97-.59-.22-.73-.79-1.18-1.08-1.34-.54-.29-1.04-.02-1.39-.26-.33-.21,.1-1.04-.34-1.28h0s6.24-13.61,6.24-13.61h0s0,0,0,0h0s.01,.02,.01,.02l.05,.05,.09,.08,.19,.15,.37,.23,.71,.32c.48,.18,.95,.38,1.46,.93,1.7,1.98,1.63,2.59,2.93,4.77,.6,1.07,1.23,2.1,2.24,3.01,1.31,1.16,.69,3.18-3.49,5.3-1.6,.8-9.18,2.39-10.98,2.78-3.04,.6-1.58-.08-.8-.68,1.79-1.29,2.38-2.6,2.05-3.38-.78-1.66-1.56-1.29-2.81-2.41-.31-.26-.51-.63-.72-1.01l-7.77-13.95,12.26,4.16c.92,.31,1.78,.68,2.66,.92,2.51,.81,2.2-.06,4.66,1.14,1.72,1.02,1.25,1.17,2.87,2.31,.88,.69,1.24,.45,2.4,1,.18,.07,1.03,1.01,1.05,1.22,.08,.33,.66,1.75,.93,1.96,.31-.1,5.69,2.73-4.86,5.52Z"/>
      <path class="cls-9" d="M223.94,200.44c3.29,2.41,6.66,5.61,6.5,8.16-.01,.19-1.31-.17-1.55,.11-2.85,3.29-4.72,5.69-5.78,7.08-1.78,2.33-2.42,3.91-4.37,6.1-1.75,1.98-1.65,.43-3.44,2.37-1.21,1.31-.87,2.21-2.01,3.59-1.99,2.41-2.64,2.54-4.68,4.9-.97,1.13-1.86,2.34-2.36,3.85-.64,1.93-2.66,2.5-7.11,.72-1.71-.69-7.43-5.9-8.6-7.37-1.96-2.48-.02-2.34,1.22-2.38,2.81-.09,4.91-.97,6.22-2.41,2.8-3.1,2.33-3.84,4.84-7.18,1.26-1.67,3.12-2.85,4.37-4.52,1.88-2.51,.89-2.33,2.72-4.88,1.33-1.86,1.46-1.35,2.71-3.28,.7-1.07,.44-1.41,.83-2.73,.06-.19,.82-1.32,1.01-1.41,.33-.16,1.55-1.29,1.64-1.64,.1-.38-.49-6.01,7.8,.94Z"/>
      <path class="cls-9" d="M221.03,200.58c3.19,2.54,6.44,5.86,6.28,8.29-.01,.18-1.27-.25-1.5,0-2.78,2.95-4.6,5.12-5.63,6.38-1.73,2.11-2.36,3.58-4.26,5.54-1.71,1.77-1.6,.29-3.34,2.03-1.18,1.17-.85,2.06-1.96,3.3-1.94,2.17-2.57,2.24-4.55,4.37-.95,1.01-1.81,2.11-2.3,3.52-.62,1.8-2.59,2.21-6.9,.18-1.65-.78-7.19-6.19-8.32-7.69-1.9-2.52,0-2.25,1.2-2.2,2.73,.11,4.77-.58,6.04-1.87,2.73-2.77,2.27-3.52,4.72-6.54,1.23-1.51,3.04-2.51,4.26-4.03,1.83-2.28,.87-2.17,2.65-4.49,1.3-1.69,1.42-1.2,2.65-2.96,.68-.98,.44-1.32,.82-2.56,.06-.18,.8-1.2,.99-1.28,.32-.13,1.51-1.13,1.6-1.46,.1-.36-.45-5.8,7.57,1.46Z"/>
      <path class="cls-9" d="M232.04,271.47c3.54,2.03,7.25,4.83,7.22,7.56,0,.2-1.35,0-1.59,.33-2.82,3.8-4.79,6.45-5.92,7.98-1.92,2.54-2.7,4.21-4.92,6.52-2.03,2.04-1.73,.44-3.82,2.39-1.4,1.32-1.21,2.25-2.59,3.62-2.47,2.33-3.16,2.4-5.75,4.58-1.23,1.04-2.44,2.13-3.32,3.6-1.15,1.86-3.43,2.09-7.36-.68-1.5-1.07-5.76-7.54-6.56-9.24-1.34-2.86,.46-2.21,1.65-1.96,2.69,.58,4.91,.16,6.42-1.01,3.22-2.53,2.85-3.35,5.65-6.29,1.38-1.48,3.31-2.46,4.62-4.03,1.95-2.37,.98-2.23,2.79-4.67,1.32-1.79,1.42-1.31,2.62-3.19,.64-1.06,.37-1.39,.69-2.68,.04-.19,.72-1.31,.9-1.41,.32-.16,1.42-1.32,1.48-1.67,.11-.39-1.18-5.71,7.83,.26Z"/>
      <path class="cls-9" d="M608.13,199.8c2.94,2.83,5.82,6.48,5.19,9.09-.05,.2-1.31-.31-1.61-.04-3.53,3.1-5.89,5.38-7.23,6.71-2.25,2.22-3.2,3.78-5.6,5.84-2.16,1.86-1.77,.27-3.96,2.09-1.48,1.23-1.3,2.19-2.72,3.49-2.48,2.28-3.18,2.34-5.7,4.58-1.2,1.07-2.34,2.23-3.12,3.73-1.01,1.92-3.19,2.3-7.44,0-1.63-.89-6.56-6.86-7.49-8.5-1.56-2.76,.41-2.42,1.69-2.33,2.9,.2,5.22-.49,6.83-1.85,3.45-2.91,3.09-3.72,6.29-6.91,1.6-1.59,3.73-2.61,5.32-4.21,2.39-2.4,1.34-2.31,3.69-4.76,1.71-1.79,1.75-1.25,3.39-3.11,.91-1.03,.71-1.41,1.35-2.73,.09-.19,1.09-1.27,1.3-1.35,.37-.13,1.83-1.17,1.99-1.52,.17-.38,.6-6.25,7.84,1.78Z"/>
      <path class="cls-9" d="M883.2,271.17c3.04,2.72,6.05,6.27,5.54,8.88-.04,.19-1.31-.27-1.6,0-3.36,3.17-5.6,5.5-6.87,6.85-2.13,2.27-3.01,3.84-5.29,5.95-2.06,1.9-1.74,.31-3.84,2.18-1.41,1.26-1.19,2.21-2.54,3.54-2.36,2.32-3.05,2.41-5.45,4.69-1.15,1.09-2.22,2.27-2.93,3.78-.91,1.94-3.06,2.37-7.37,.2-1.65-.84-6.8-6.62-7.79-8.22-1.67-2.7,.3-2.41,1.58-2.36,2.89,.12,5.15-.63,6.69-2.02,3.29-2.98,2.9-3.78,5.93-7.02,1.51-1.62,3.58-2.69,5.09-4.32,2.26-2.45,1.23-2.33,3.44-4.82,1.62-1.82,1.68-1.29,3.22-3.17,.86-1.05,.64-1.42,1.22-2.75,.08-.19,1.02-1.29,1.23-1.38,.36-.14,1.76-1.21,1.9-1.56,.15-.38,.32-6.21,7.85,1.55Z"/>
      <path class="cls-4" d="M815.36,344.47v143.42c30.55-2.23,52.41,11.47,65.87,40.61-13.46-8.26-30.38-8.59-44.15-.91-11.63,6.43-19.49,17.75-21.72,30.54v151.09c0,35.98,30.95,65.19,57.76,65.19,2.2,0,4.29,.87,5.86,2.41,1.54,1.56,2.4,3.66,2.4,5.84v66.02c0,2.19-.86,4.29-2.4,5.83-1.54,1.54-3.66,2.41-5.83,2.41h-109.77c-42.07,0-81.02-17.72-129.54-82.52-44.47-59.36-168.75-248.3-193.67-286.27-.57-.87-1.66-1.27-2.66-.97s-1.69,1.23-1.69,2.29c.14,40.34,.8,219.77,.8,219.77,0,35.98,29.86,65.19,56.93,65.19,4.57,0,8.26,3.7,8.26,8.26v66.33c0,4.33-3.52,7.84-7.83,7.84h-.03c-5.37,0-16.66-3.79-27.46-8.9-19.06-9.09-41.01-9.99-60.81-2.49-17.18,6.53-27.58,11.89-43.67,11.89s-26.55-5.36-43.81-11.89c-19.72-7.5-41.67-6.6-60.81,2.4-10.8,5.03-22.12,8.92-27.41,8.92-2.17,0-4.29-.87-5.83-2.43-1.54-1.54-2.4-3.64-2.4-5.83v-65.6c0-2.14,.83-4.2,2.37-5.72,1.51-1.51,3.54-2.37,5.72-2.37h.06c27.49,0,57.87-29.21,57.87-65.19v-148.53c-1.4-14.03-9.57-26.58-22.12-33.51-13.77-7.67-30.69-7.34-44.15,.91,13.6-29.31,35.55-43,66.27-40.61v-143.42c0-35.98-31.04-65.19-58.18-65.19-2.2,0-4.29-.87-5.83-2.41-1.54-1.54-2.43-3.64-2.43-5.83v-66.07c0-4.53,3.69-8.2,8.2-8.2h115.57c54.47,0,88.53,25.83,127.92,82.52,40.67,58.51,164.58,248.67,189.53,286.99,.57,.9,1.66,1.3,2.69,1,1-.3,1.71-1.24,1.71-2.3v-220.51c0-35.98-29.44-65.12-56.96-65.19h-.09c-4.52,0-8.14-3.64-8.14-8.14v-66.19c0-4.53,3.66-8.19,8.17-8.19h264.12c2.17,0,4.29,.87,5.8,2.43,1.54,1.56,2.4,3.66,2.37,5.84-.14,15.82-.49,50.2-.66,66-.03,4.57-3.77,8.24-8.32,8.24-26.92,0-57.78,29.21-57.87,65.19Z"/>
      <g>
        <path class="cls-10" d="M287.43,703.23v-98.34s26.36-.93,26.36-.93c19.9,0,37.73-8.82,49.82-22.76h0c12.08,13.94,29.92,22.76,49.82,22.76h23.57v99.27s-.38,5.98-.38,5.98c0,35.98,29.86,65.19,56.93,65.19,4.57,0,8.26,3.7,8.26,8.26v66.33c0,4.33-3.52,7.84-7.83,7.84h-.03c-5.37,0-16.66-3.79-27.46-8.9-19.06-9.09-41.01-9.99-60.81-2.49-17.18,6.53-27.58,11.89-43.67,11.89s-26.55-5.36-43.81-11.89c-19.72-7.5-41.67-6.6-60.81,2.4-10.8,5.03-22.12,8.92-27.41,8.92-2.17,0-4.29-.87-5.83-2.43-1.54-1.54-2.4-3.64-2.4-5.83v-65.6c0-2.14,.83-4.2,2.37-5.72,1.51-1.51,3.54-2.37,5.72-2.37h.06c27.49,0,57.87-29.21,57.87-65.19l-.32-6.4Z"/>
        <g>
          <path class="cls-7" d="M217.17,804.5c.11,.9-.17,1.32-.19,2.25-.02,.77,.26,1.85,.29,2.58,.07,1.41,.35,2.8,.39,4.22l.12,11.95-.06,16.44c0,.55,0,1.22-.01,1.69,0,.21,0,.36,0,.56v3.71c-.08,1.26,.15,3.53,.84,5.11,1.33,3.45,4.31,6.19,7.84,7.25,3.86,1.09,6.83,.22,9.38-.24,2.62-.6,5.09-1.35,7.52-2.18,5.54-1.64,18.39-7.64,19.22-7.92,1.75-.92,12.95-4.46,15-4.54,.75-.15,6.05-1.27,10.51-1.44,.1-2.46-1.1-4.69-.97-7.14-7.67,.38-15.28,1.85-22.48,4.36-7.38,2.54-13.53,6.13-20.08,8.41-4.05,1.49-8.25,2.91-12.2,3.59-2.11,.35-3.31,.35-4.52-.27-1.19-.59-2.13-1.68-2.51-2.95-.38-.92-.16-3.49-.22-5.69v-6.7s-.03-11.37-.03-11.37l-.07-9.78c.17-3.62,1.18-7.24,1.24-10.74,.01-.93-.21-1.9-.66-2.66-.49-.8-.36-1.05-.71-1.34-.42-.34-1.18-.46-2.08-.42-2.43,.12-5.78,1.49-5.57,3.26Z"/>
          <g>
            <path class="cls-7" d="M360.18,861.14s2.87,.11,6.28-.12c3.41-.19,7.42-.8,9.95-1.35,.68-.14,1.24-.26,2.1-.44,3.29-.74,6.97-1.93,10.57-3.3,10.12-3.56,19.45-8.3,29.14-10.2,9.77-2.04,19.94-2.06,29.72-.07,4.89,.99,9.68,2.48,14.27,4.44,4.51,2.01,9.65,4.43,14.65,6.2,5.15,1.79,10.06,3.61,16.28,4.11,3.53,.32,7.68-1.42,9.88-4.49,2.58-2.97,2.4-7.64,2.31-9.67-.04-14.7-.07-29.16-.11-44.06l.14-19.86c-.04-4.75-3.28-9.26-7.79-10.82-1.11-.4-2.29-.65-3.47-.69l-2.44-.16c-1.49-.1-2.99-.15-4.47-.53-11.98-2.15-22.94-9.6-30.98-19.09-3.89-4.44-6.52-8.63-9.08-13.39-2.47-4.8-4.61-10.41-5.85-18.17-.53-3.52-1.05-8-.55-13.28,.44-5.2,.24-10.42,.3-13.99-.1-13.24-.16-19.91-.26-33.16l-.17-44.21v-5.53c-.16-2.2,.29-6.51-.35-8.89l-14.46,.03c-7.42-.11-14.77,.42-21.54-.65-7.26-1.03-14.31-3.56-20.63-7.15-5.16-2.97-9.57-6.38-13.44-10.24-.99-.95-1.92-1.94-2.82-2.96l-.69-.75-.04-.05h-.01s0-.02,0-.02c-5.3,14.45-7.29-8.74-5.96,0l-.02,.02-.09,.09-.17,.19-.34,.38-1.37,1.52c-1.9,1.97-3.87,3.93-6.06,5.74-7.98,6.66-16.44,11.03-27.95,13.01-4.67,.83-9.22,.77-14.27,.93l-14.88,.51-10.33,.38c-.39,.17-1.43-.3-1.27,.4v1.63s0,3.25,0,3.25v4.92s.04,14.94,.04,14.94c-.02,15.36-.04,29.87-.06,44.38-.09,2.73-.18,5.46-.28,8.34-.09,1.67-.45,3.37-.34,5.01,.3,4.09-.25,7.75-.45,12.11-.08,1.79,.88,6.1,2.06,6.62,.68,.31,1.53-.15,2.23,.12,1.6,.63,4.4-2.03,4.38-4.44l-.25-7.64c-.04-2.66,.12-5.33,.01-7.97-.09-2.11-.73-4.22-.62-6.28,.06-1.1,0-2.18-.04-3.28v-1.67c.03-1.26,.07-2.53,.12-3.86,.45-18.54,.06-38.26,.09-57.46v-1.93c-.14-.54,.25-.56,.7-.52l6.34-.21,15.93-.54c11.08,.03,22.42-2.71,32.36-7.94,4.99-2.61,9.63-5.86,13.84-9.59,2.12-1.85,4.08-3.88,5.96-5.96l.18-.2,.09-.1,.04-.05,.02-.03c1.15-.01-9.94,0-5.23,0l.35,.39,.71,.78,1.42,1.56,3.02,2.95c8.27,7.62,18.37,13.28,29.23,16.13,6.81,1.92,14.29,2.48,21.07,2.33l16.62-.05c.07,12.37,.14,24.68,.2,36.74l.04,37.4v18.7c.14,3.14-.33,6.19-.33,9.39,.17,3.32,.23,6.68,.86,9.89,4.09,25.76,22.63,49.42,48.58,56.61,3.09,.67,6.21,1.22,9.42,1.28,1.92,.11,2.24,.08,3.23,.44,.82,.33,1.57,.88,2.11,1.6,.56,.7,.89,1.55,1,2.44,.08,.7,.03,2.73,.05,4.03l.02,8.83,.1,35.32,.03,13.72c-.05,2.02,.13,5.21-.13,6.14-.31,1.34-1.25,2.56-2.51,3.16-2,1.25-7.12-.16-11.11-1.32-4.22-1.3-8.41-2.9-12.52-4.68-22.47-11.26-44.24-12.88-68.03-4.86-1.11,.41-2.33,.86-3.48,1.29h0s-.57,.22-.57,.22c-6.81,2.51-13.94,5.55-21.05,7.55-14.06,4.09-27.73,3.16-41.55-2.15-3.03,1.34-6.79,2.85-7.29,5.14,3.74,1.46,7.26,2.78,11.72,4,5.54,1.49,11.82,2.56,17.98,2.71Z"/>
            <path class="cls-7" d="M218.15,814.42c.02,.86,0,1.79-.12,2.98-.06,1.33-.33,3.82-.31,5.13,.05,1.21,.09,2.11,.12,3.02l.04,.69c.01,.67,.02,1.36,.04,2.08,.02,2.69,.04,5.59,.06,8.9l.06,11.04c-.24,5.13,3.61,10.51,8.83,11.75,5.63,1.07,8.98-.54,12.8-1.42,3.69-1.09,7.23-2.4,10.73-3.81,7.16-2.86,13.34-6.32,20.13-8.05,6.76-1.94,13.8-2.85,20.83-2.83,7.4,.07,14.8,1.38,21.75,3.72,11.43,4.06,21.35,9.37,33.85,11.89,11.49,2.04,21.85,1.76,34.34-1.45,9.95-2.69,19.05-6.94,28.1-10.12,8.94-3.05,18.49-4.42,28.01-3.87,8.13,.44,15.94,2.28,23.17,5.17,7.05,3.07,14.86,6.87,22.79,9.19,3.45,.89,6.65,1.89,11.02,1.86,4.91-.15,9.36-3.83,10.43-8.59,.56-2.66,.22-4.17,.3-5.86l-.03-5.09-.03-10.23c-1.85,4-3.84,5.75-5.74,7.76l-.08,8.07c.03,3.06-.03,4.48-1.31,5.94-1.27,1.35-2.81,1.97-4.9,1.66-2.28-.27-4.8-.96-7.24-1.76-.32-.12-.53-.19-.84-.3-2.24-.7-4.48-1.51-6.76-2.45-4.27-1.72-8.19-3.63-12.73-5.71-4.54-2-9.33-3.58-14.24-4.69-9.83-2.23-20.15-2.54-30.05-1.04-11.11,1.44-21.28,6.2-31,9.87-9.82,3.86-19.65,6.46-29.91,6.02-10.21-.13-19.92-3.42-29.8-7.4-9.69-3.94-20.33-8.34-31.49-9.27-14.07-1.52-28.67,.81-41.55,6.71-6.19,2.87-12.16,5.48-18.37,7.47-3.02,.95-6.28,1.84-8.85,1.97-2.06,.14-3.95-1.12-4.71-2.92-.48-.95-.39-2.06-.4-4.22v-5.63s-.02-11.25-.02-11.25v-6.3s-.03-8.22-.03-8.22c-2.38,.69-4.64,.44-6.9-.39Z"/>
          </g>
          <g>
            <path class="cls-7" d="M249.16,769.61c.75,.62,.95,1.74,.6,2.65-.48,1.28-1.75,2.27-3.13,2.53-3.47,.48-7.44,2.36-11.03,2.94-1.97,.2-4.49,.31-6.09,.39-1.18,.06-2.27,.63-2.95,1.58-1.11,1.23-1.72,2.96-.49,6.3,.99,2.31,.25,5.4-2.03,6.7-1.1,.63-2.48,.75-3.68,.34-2.38-.83-2.65-4.32-2.74-6.48,.04-2.19,.69-3.58,1.47-6.84,.42-1.48,1.38-2.73,2.37-3.83,1.72-1.94,4.2-3.29,6.78-3.59l5.98-.16,5.27-.05c1.89-.23,3.26-1.55,4.97-1.93,1.14-.32,3.64-1.45,4.72-.55Z"/>
            <path class="cls-7" d="M263.51,767.04c-1.06,.87-4.62,3.01-5.69,1.55-.51-.69-.48-1.65-.44-2.51,.06-1.31,.08-2.61,.25-3.86,.08-.66,.23-1.28,.57-1.83,.88-1.44,2.89-1.89,4.17-2.9,2.07-1.99,5.15-2.79,7.45-4.87,2.58-2.05,3.31-4.89,6.63-4.65,.15,1.11,.49,2.79-.15,3.9-3.32,5.24-7.35,10.2-12.07,14.53l-.71,.65Z"/>
            <path class="cls-7" d="M287.47,733.45c-.41,1.21-1.04,2.36-2.05,3.1-2.67,1.85-7,.2-5.88-3.16,.53-2.14,1.73-3.24,2.82-5.24,.56-1.26,2.9-5.59,4.43-3.83,1.17,1.43,1.49,5.75,1.05,7.61-.08,.51-.2,1.02-.36,1.52Z"/>
            <path class="cls-7" d="M286.97,703.31l.2-.04c3.5-.65,6.44,5.14,4.2,8.06-1.59,2.09-5.68,2.19-7.02,.06-1.11-1.9-.12-7.37,2.63-8.08Z"/>
          </g>
        </g>
      </g>
      <g>
        <path class="cls-10" d="M654.66,800.02l-141.54-201.55,75.36,6.42,26.36-.93c19.9,0,37.73-8.82,49.82-22.76h0c12.08,13.94,29.92,22.76,49.82,22.76h100.1s.75,55.6,.75,55.6l.04,49.65c0,35.98,30.95,65.19,57.76,65.19,2.2,0,4.29,.87,5.86,2.41,1.54,1.56,2.4,3.66,2.4,5.84v66.02c0,2.19-.86,4.29-2.4,5.83-1.54,1.54-3.66,2.41-5.83,2.41h-109.77c-34.87,0-62.5-9.58-100.32-50.66"/>
        <g>
          <path class="cls-7" d="M783.49,861.48c.9-.11,1.32,.17,2.25,.19,.77,.02,1.85-.26,2.58-.29,1.41-.07,2.8-.35,4.22-.39l11.95-.12,17.54,.06c.59,0,1.31,0,1.81,0,.23,0,.38,0,.6,0h31.77c2.98,0,8.15-.02,12.74-.03,2.32-.11,4.17,.25,7-.34,2.4-.58,3.84-1.63,4.25-1.89,.67-.44,2.2-1.61,3.42-3.65,1.27-1.81,1.91-5.37,1.69-7.3-.05-3.87-.11-7.75-.12-8.87-.02-.85-.18-6.99-.3-11.93-2.45-.2-4.73,.99-7.18,.73l.06,11.78,.04,5.88,.02,2.93c.02,.93-.03,1.23-.19,1.85-.81,2.2-2.44,3.64-5.73,3.39-3.87,.02-7.72,.04-11.55,.05l-64.97,.15c-3.62-.17-7.24-1.18-10.74-1.24-.93-.01-1.9,.21-2.66,.66-.8,.49-1.05,.36-1.34,.71-.34,.42-.46,1.18-.42,2.08,.12,2.42,1.49,5.78,3.26,5.57Z"/>
          <g>
            <path class="cls-7" d="M852.99,764.98c-.04-.12-2.49-1.14-5.11-3.08-2.75-1.73-5.67-4.28-7.52-5.92-.47-.48-.85-.86-1.45-1.47-2.33-2.25-4.83-5.07-7.11-8.12-6.38-8.52-10.58-18.6-12.03-29.07-.75-5.13-.65-10.57-.65-16.3l-.03-16.86c.07-22.48-.39-44.96-.84-67.42l-.28-14.4c.68-2.4-1.69-1.7-3.29-1.78l-4.94,.02-5.88,.03c-7.85-.01-15.7-.03-23.68-.04-14.11-.08-28.24-.15-42.38-.23l-21.23-.04c-6.92,.11-13.46-.7-19.9-2.64-6.01-1.85-10.83-4.02-15.73-7.1-2.46-1.51-4.89-3.33-7.42-5.53-1.28-1.09-2.52-2.34-3.83-3.67-.62-.7-1.26-1.41-1.92-2.15l-.25-.28-.06-.07-.03-.04h0c-11.06,0-3.07,0-5.54,0l-.02,.02-.13,.14-.52,.55-1.07,1.13c-2.53,2.66-6.5,6.21-10.95,9.03-4.42,2.87-9.2,5.05-12.56,6.3-12.62,4.71-19.27,3.88-33.64,4.65l-11.84,.47c-3.28,.36-7.49-.43-11.36-.61l-23.58-1.94-23.58-1.96-13.8-1.16-10.22-.86-2.55-.21c.2,.53,.9,1.35,1.33,2.02l2.96,4.2c5.51,7.97,11.05,16,16.56,23.98,7.61,11.17,14.16,20.83,21.84,31.21,7.05,9.53,13.15,17.8,20.58,28.71,11.96,17.55,24.28,34.71,36.58,52.23,9.44,13.47,18.35,26.21,27.26,38.93,1.49,2.28,2.98,4.57,4.56,6.99,.89,1.42,1.57,3.02,2.6,4.29,2.59,3.18,4.25,6.49,6.59,10.17,.96,1.51,4.23,4.48,5.49,4.24,.73-.14,1.17-1,1.89-1.18,1.67-.4,2.43-4.19,1.03-6.15l-4.59-6.11c-1.56-2.15-2.96-4.43-4.57-6.53-1.28-1.67-3.02-3.03-4.12-4.78-.59-.93-1.25-1.78-1.91-2.66l-.97-1.35-.46-.72-1.76-2.67c-11.04-16.52-23.51-33.57-35.3-50.44-26.01-37.22-52.47-75.08-78.58-112.44l-2.26-3.27c-.05-.44,1.4,0,2.03-.05l21.34,1.73c14.47,1.16,28.87,2.32,42.97,3.46,10.65-.08,19.77-.65,29.91-.92,10.27-.31,20.57-2.99,29.73-7.77,4.58-2.39,8.91-5.28,12.83-8.64,1.95-1.69,3.84-3.46,5.61-5.34l1.31-1.43,.33-.36,.16-.18,.08-.09,.04-.05c1.1-.03-9.47-.01-4.97,0l.65,.72c.88,.95,1.72,1.93,2.66,2.82,7.29,7.31,16.24,12.98,25.99,16.41,9.6,3.64,20.61,4.21,30.19,3.91l29.52-.03,58.81-.13h1.27c.47-.06,.14,.7,.25,1.02l.1,6.25,.21,14.71,.4,29.4c.04,13.3,.08,24.95,.11,36.53,.16,11.27-1,23.73,3.71,36.78,.44,1.24,.94,2.61,1.4,3.9h0s.28,.63,.28,.63c3.08,7.51,7.93,14.95,13.86,21.27,5.94,6.21,12.6,11.21,20.04,14.83,3.75,1.74,7.64,3.25,11.79,4.17,2.09,.39,4.16,.94,6.36,.99l3.28,.23c.66,.01,1.21,.12,1.78,.34,1.12-.81,2.87-1.21,4.55-1.24,1.67-.06,3.27,.2,4.12-.64-1.62-2.7-4.27-4.63-7.25-5.41-3.6-.69-4.92-.41-7.16-.63-5.3-.55-10.97-2.44-16.1-5.24Z"/>
            <path class="cls-7" d="M793.4,860.5c.86-.02,1.79,0,2.98,.12,1.33,.06,3.82,.33,5.13,.31,1.21-.05,2.11-.08,3.02-.12l.69-.04c.71-.01,1.44-.02,2.2-.04,2.89-.02,5.99-.04,9.53-.06l47.31-.17h5.92s2.96-.02,2.96-.02c1.4,0,2.82-.26,4.14-.75,2.64-.97,4.92-2.95,6.24-5.45,1.45-2.35,1.47-5.87,1.4-7.43l-.04-23.66c.07-8.27,.15-16.6,.23-24.89,.05-3.38,.09-6.64,.14-9.84,.02-1.6,.03-3.18,.05-4.75,.11-1.31-.11-4.37-1.12-6.24-1.89-4.22-6.41-7.06-11.01-6.99-2.83-.09-5.64-.3-8.55-.92-10.62-2.4-19.51-7.67-28.08-16.81-6.67-7.57-11.99-16.38-14.91-25.99-3.11-9.58-2.74-19.73-2.75-30.64-.04-18.29,.11-35.51-.17-52.79-.18-7.19-.35-14.39-.53-21.62l-.21-10.89-.12-7.71-.03-2.31c-.54-.23-1.48-.06-2.2-.11h-4.64c7.98,.65,2.36,7.07,1.2,7.79,.08,11.08,.03,22.91-.14,34.33-.01,.38-.03,.63-.04,1,0,2.61,0,5.21,0,7.93-.14,19.95-.19,40.76,.27,61.75,1.45,23.98,16.14,46.42,37.4,57.97,5.37,2.79,11.13,5.05,17.3,5.92,2.92,.47,6.87,.31,7.82,.8,1.59,.58,2.75,1.96,3.03,3.63-.02,11.24-.04,22.46-.06,33.64,0,7.24-.02,14.51-.03,21.79l.03,10.91c.15,2.54-1.16,4.23-3.17,4.97-.52,.17-.94,.25-1.57,.25l-2.72,.02-5.43,.03-10.82,.06c-7.2,.03-14.34,.05-21.42,.08l-38.82,.06c.69,2.38,.44,4.64-.39,6.91Z"/>
          </g>
          <g>
            <path class="cls-7" d="M729.11,853.16c-.17-.96,.44-1.92,1.26-2.42,1.15-.71,2.56-.65,3.74-.13,2.9,1.47,7.03,1.39,10.22,1.79,3.75,.41,7.63,1.01,11.43,.82,2.77-.12,6.55,.51,9.23-.63,2.31-.99,5.4-.25,6.7,2.03,.63,1.1,.75,2.48,.33,3.69-.83,2.38-4.32,2.65-6.48,2.74-2.2,.11-3.79-1.07-6.06-1.09-1.12-.02-2.22-.25-3.34-.37-3.98-.33-7.96-.74-11.89-1.44-1.85-.39-3.55-1.21-5.33-1.73-1.89-.56-3.76-.25-5.56-.75-1.21-.29-4.01-1.15-4.25-2.5Z"/>
            <path class="cls-7" d="M718.74,843.83c1.12,.49,4.42,2.06,3.93,3.75-.25,.82-1.01,1.37-1.74,1.84-1.11,.74-2.2,1.36-3.42,1.88-.63,.26-1.31,.48-2,.41-1.84-.17-3.32-1.85-4.85-2.71-2.83-1.43-4.71-4.09-7.13-6.16-2.6-2.05-5.41-3.02-5.25-6.23,1.12-.18,2.74-.6,3.78-.05,5.16,2.67,10.4,5.22,15.87,6.98l.81,.29Z"/>
            <path class="cls-7" d="M686.67,823.64c.94,.72,1.7,1.66,2.07,2.79,.94,2.87-1.52,6.88-4.74,4.71-1.96-1.32-2.71-2.87-4.18-4.72-.96-1.18-3.79-5.33-1.42-5.77,1.91-.36,5.53,1.31,7.06,2.2,.41,.25,.82,.51,1.21,.8Z"/>
            <path class="cls-7" d="M662.75,806.61l.12-.16c2.35-2.77,8.08-.21,8.41,3.08,.24,2.42-2.32,5.63-4.95,4.97-2.48-.62-5.16-5.64-3.57-7.9Z"/>
          </g>
        </g>
      </g>
      <path class="cls-7" d="M816.32,338.79c-1.02,4.09-1.96,6.3-2.73,5.49-.59-.79-1.83-4.69-1.09-12.67,.78-7.85,3.58-20.24,14.09-34.1,5.27-6.82,12.55-13.91,22.79-19.54,5.21-2.64,11.13-4.97,17.97-6.06,1.68-.15,3.38-.3,5.1-.45-.38,.03,.34-.1,.4-.24,.42-.31,.63-.84,.54-1.32-.1-13.56-.2-29.09-.33-46.59-.01-4.42-.02-8.97-.03-13.64v-3.35s-.06-.14-.06-.14c-.05-.08-.14-.12-.21-.13-8.4,.08-17.21,.17-26.45,.25-14.81-.16-67.12-.74-102.6-1.13-33.27,0-65.75-.02-97.26-.03-7.88,0-15.7,0-23.45,0-3.88,0-7.74,0-11.58,0-.68-.06-1.02,.2-1.23,.65-.02,13.99-.05,27.74-.07,41.23,0,7.35,0,14.64,0,21.85v1.14c0,.11,.03,.22,.07,.32,.09,.2,.24,.38,.43,.49,.14,.11,.53,.13,.53,.13,2.12,.19,4.31,.15,6.36,.59,16.75,2.77,30.19,12.46,39.78,23.98,9.73,11.57,15.66,25.71,17.42,40.04,.42,3.49,.54,7.39,.58,10.53v9.42c0,6.23,0,12.38,0,18.43,0,48.42,0,90.96,0,126.26,0,19.76,0,37.49,0,53.02-.05,6.26,.48,13.86-1.5,16.21-.76,1.47-1.54,2.43-2.22,3.21-.82,.79-.87,1.21-2.57,2.1-1.59,.86-3.96,1.05-4.62,.85-.76-.13-1.65-.35-2.61-.67-1.9-.72-4.49-1.64-7.08-5.32-102.28-154.82-146.03-221.03-180.47-273.16-18.95-29.14-38.86-54.98-63.26-71.91-12.16-8.35-25.47-13.83-39.21-16.71-13.82-2.84-27.75-2.52-42.61-2.5-29.14,.03-57.31,.06-84.99,.09h-10.36s-3.13,.02-3.13,.02c-.15,.02-.31,.08-.41,.2-.12,.09-.19,.24-.23,.39v.23s0,2.13,0,2.13v10.26c.03,13.66,.04,27.26,.06,40.85v10.2c-.02,.45,.13,.61,.37,.77,.11,.06,.29,.09,.37,.07,2.06,.17,4.19,.14,6.18,.55,4.06,.62,7.94,1.73,11.69,3.1,14.89,5.76,26.76,16.46,35.43,29.31,4.26,6.51,7.53,13.73,9.71,21.34,1.16,3.8,1.77,7.74,2.36,11.7,.29,3.95,.53,8.22,.46,11.53,0,14.12,.02,28.43,.03,42.97,.01,30.13,.02,61.25,.03,93.86v11.46c-.04,.2,.09,.57-.09,.62h-.71s-1.42-.05-1.42-.05l-2.85-.06-5.71-.13c-1.95-.06-4.02-.24-5.83-.14l-2.06,.04c-.44,.01-.89,0-1.32,.06-1.73,.21-3.51,.24-5.21,.57-6.86,1.09-13.47,3.3-19.29,7.09-2.91,1.89-5.68,4.07-8.22,6.62l-.88,.84-.13,.15-.26,.29-.26,.33c-.28,.43-.82,1.18,.01,.66,.06-.02,.16-.05,.27-.08l.37-.06,2.78,.02c4.5,.13,8.95,.86,13.11,2.07,8.35,2.44,15.6,6.73,21.38,12.13,11.53,10.86,16.81,25.59,16.24,38.31-.05,21.42-.1,38.44-.13,52.53-.16,28.18-.26,44.65-.36,61.11-.06,8.23-.12,16.46-.19,26.16,.11,9.78-1,23.57-8.25,37.41-3.58,6.98-8.53,14.2-15.5,20.94-6.96,6.68-15.95,13.14-27.92,16.66-2.93,.97-6.17,1.47-9.47,1.88-4.61,.34-3.88,.11-4.53,.44-.46,.27-.75,.82-.7,1.39,0,2.99,0,6.05-.01,9.19-.01,13.09-.02,27.46-.04,43.3,.07,4.98-.17,12.29,.16,11.33,.21,.43,.63,.74,1.08,.82,.23,.04,.46,.02,.69,0,.16-.02,1.61-.27,2.48-.51,4.08-1,8.4-2.56,12.5-4.2,4.31-1.86,8.53-3.69,12.67-5.48,18.41-7.26,37.5-7.6,53.96-3.11,16.44,4.97,28.63,11.86,40.91,13.29,12.57,1.72,23.85-.89,36.19-6.03,6.26-2.39,12.37-5.19,19.89-7.37,7.28-2.1,14.92-3.16,22.7-3.26,7.78-.03,15.72,.92,23.55,3.12,3.92,1.07,7.82,2.45,11.62,4.15,3.87,1.72,6.69,3.07,10.24,4.45,6.07,2.65,16.52,5.23,14.78,4.2,.2-.14,.36-.35,.4-.59,.03-.12,.01-.25,.01-.37v-2.91c-.01-4.32-.02-8.72-.02-13.21,0-8.98-.02-18.33-.03-28.11,0-4.89,0-9.88,0-14.99v-3.85c0-.44,0-.37-.04-.57-.08-.27-.31-.5-.59-.59-.15-.04-.22-.05-.44-.04l-4.36-.29c-2.81-.48-5.67-.87-8.3-1.74-5.39-1.48-10.23-3.87-14.76-6.52-9.03-5.38-16.23-12.61-21.96-20.48-5.7-7.91-9.8-16.66-12.17-25.66-2.51-8.83-2.66-18.79-2.56-26.16-.09-31.48-.18-59.89-.26-86.36-.07-26.47-.13-50.98-.2-74.66-.04-14.12-.07-27.98-.11-41.77l-.02-8.1c.03-2.67,.72-4.37,1.35-5.73,1.43-2.69,2.56-3.85,3.95-5.06,1.04-.81,3.44-1.54,4.77-1.44,1.05-.01,2.2,.95,3.3,1.38l3.33,1.67c1.13,.62,2.09,.66,3.75,3.04,24.37,36.91,49.37,74.77,79,119.65,27.73,41.39,59.55,89.58,101.12,148.31,20.54,28.8,42.51,56.87,70.76,76.14,14.09,9.44,29.66,16.12,46.22,18.44,8.38,1.29,16.39,1.46,25.59,1.35l26.86-.03,53.68-.08,13.41-.02h6.7c1.16,0,.88-.03,1.32-.23,.26-.18,.43-.46,.48-.77v-4.39l-.03-13.39-.07-26.77-.04-13.37-.02-6.03c0-.27-.1-.53-.28-.72-.18-.18-.44-.29-.7-.29,.12,.01-.4-.03,.24,.03l-1.01-.06-2.03-.13c-1.36-.06-2.7-.19-3.99-.48-5.29-.8-10.23-2.55-14.9-4.66-9.34-4.26-17.27-10.63-23.91-18.02-9.12-10.11-15.47-22.61-18.3-35.95-1.34-6.53-1.58-14.04-1.51-19.6,0-5.96-.02-11.91-.03-17.83,.01-23.7,.03-47.07,.04-70.08,.04-11.51,.08-22.92,.11-34.25,.03-5.66,.05-11.3,.08-16.91,.25-2.94-.5-4.93,.58-10.16,.72-3.26,1.75-6.45,3.07-9.5,5.23-12.24,15.4-22.13,27.37-27.07,5.97-2.57,12.42-3.89,18.8-4.08h2.36c.84,0,.42,.01,.69,.02l.66,.11c.45,.1,.92,.23,1.39,.42,2.65,1.79,1.05-.72,.26-2.07-.23-.37-.52-.78-.9-1.24l-.27-.34-1.03-1.01-2.16-2.14c-3.04-2.62-6.22-5.05-9.72-6.92-6.96-3.76-14.81-5.86-22.94-6.34-2.73-.21-7.37-.03-10.81-.02-1.77-.06-3.87,.22-5.34-.13l.06-5.64c.09-5.85,.17-11.67,.26-17.46,.72-35.03,1.6-68.68,2.66-100.89,1.76-52.64,9.49-14.9,11.33,23.47,.58,12,.99,25.52,1.27,40.09,.16,13.92,.33,28.83,.51,44.28h.03s0,0,0,0l1.82,.05c2.33,.21,4.68,.39,7.03,.74,9.37,1.45,18.94,4.69,27.13,10.2,4.14,2.67,7.87,5.88,11.28,9.31,.66,.51,2.35,2.71,3.52,4.07,1.26,1.56,2.65,3.07,3.8,4.66,1.99,3.2,4.55,6.51,6.06,9.58,3.44,6.35,6.11,12.04,9.38,18.65l2.35,4.8,.55,1.35,4.24,9.18c-14.23-8.01-24.73-14.29-31.96-17.56-3.13-1.01-6.2-1.93-8.82-2.01l-2.06-.24h-.91s-1.71,0-1.71,0c-4.44,.17-8.79,1.16-12.76,2.91-8.05,3.45-14.28,9.82-17.7,17.17-.95,2.03-1.74,4.16-2.29,6.35l-.32,1.41c-.05,.28-.03-.17-.05,.82l-.05,4.19-.19,16.8c-.12,11.22-.24,22.5-.36,33.83-.21,22.65-.43,45.5-.65,68.49l-.15,17.27-.07,8.66c.17,2.64,.06,5.19,.49,7.77,1.26,10.29,5.39,20.3,11.73,28.81,6.28,8.48,14.73,15.64,24.29,19.65,2.37,1.03,4.83,1.83,7.28,2.35,1.23,.2,2.47,.61,3.7,.66l4.64,.32c4.74,.35,9.12,3.18,11.35,7.3,1.13,2.05,1.74,4.38,1.76,6.74l-.02,4.93c-.06,11.72-.13,23.45-.19,35.2l-.09,17.63-.02,4.41c-.04,1.44,.06,2.74-.1,5.4-.44,4.61-3.32,8.82-7.42,10.88-2.03,1.05-4.33,1.56-6.65,1.53l-4.79-.02-8.83-.04-17.67-.07-35.34-.12-35.32-.1c-11.63,.14-24.31-.37-36.18-3.18-24.17-5.29-45.46-18.84-63.12-34.74-18.22-16.41-32.6-34.4-45.39-51.74-12.73-17.36-24.28-33.98-35.2-49.79-21.81-31.63-40.96-60.04-58.44-86.05-33.31-50.03-60.42-90.74-86.49-129.89l-2.65-4c-.27-.74-1.24-1.31-1.91-.65-.6,.63-.23,1.56-.32,2.33l.08,10.04c.08,14.4,.16,28.89,.24,43.68,.16,29.57,.33,60.34,.51,94.03,.08,16.84,.17,34.42,.27,52.94-.1,9.17,.9,17.4,4.2,25.91,3.14,8.38,8.38,16.25,15.12,22.86,6.68,6.62,15.27,11.86,24.56,13.9,1.16,.19,2.33,.52,3.5,.62l4.01,.26c4.45,.03,8.76,2.28,11.32,5.92,1.28,1.81,2.13,3.94,2.44,6.17,.15,1.08,.16,2.34,.15,3.31v2.14c0,2.85,0,5.73,0,8.62,0,11.59,.01,23.52,.02,35.82,0,3.07,0,6.17,0,9.3v4.7s0,2.36,0,2.36c0,1.13,.03,2.51-.13,3.73-.57,4.99-4.1,9.46-8.87,11.15-2.37,.89-4.98,.97-7.57,.63-2.69-.37-3.91-.72-5.81-1.19-6.58-1.76-12.58-4.15-18.53-6.8-5.85-2.77-10.79-4.78-16.57-6.18-11.26-2.73-23.17-2.72-34.41,.12-10.94,2.74-22.49,9.03-35.41,12.37-13.12,3.47-27.4,3.05-40.23-1.01-12.69-3.81-23.82-9.94-34.98-12.15-11.36-2.36-23.29-1.9-34.47,1.31-5.7,1.49-10.6,4.03-16.82,6.68-6.03,2.48-11.98,4.78-18.94,6.24-1.62,.34-4.7,.73-6.96,.39-2.42-.35-4.73-1.37-6.62-2.89-3.92-2.89-5.65-8.43-5.2-12.8l.03-18.8,.06-37.6v-4.7s.03-3.03,.03-3.03c.05-1.22,.25-2.44,.61-3.6,1.42-4.67,5.52-8.34,10.33-9.25,1.2-.25,2.42-.24,3.68-.34l2.03-.13c1.35,0,2.7-.33,4.05-.58,2.71-.42,5.38-1.37,7.98-2.39,20.98-8.7,36.41-30.94,37.31-53.83l.2-150.1c-.51-9.22-5.44-18.71-11.7-24.35-6.31-5.9-13.83-8.92-20.1-9.9-1.58-.26-3.09-.39-4.52-.48-1.43-.02-2.56-.09-5.23,.23-2.16,.03-4.55,.95-6.55,1.38-2.54,1.09-4.86,2.22-7.16,3.33-5.57,2.94-9.69,5.12-12.17,6.43-1.3,.68-2.4,1.34-2.58,1.34,.05-.21,.04-.19-.04,.08,1.17-4.5,.23-4.64-.33-4.99,2-3.95,3.96-7.82,5.89-11.64,3.81-7.22,8.16-14.76,14.23-21.12,8.78-9.37,19.09-15.16,29.7-17.96,5.24-1.5,10.47-2.08,15.48-2.38,2.12-.05,2.33-.08,3.5-.02,.45,0,.99,.09,1.35,0v-1.4c-.03-7.55-.05-14.66-.07-21.44-.1-31.76-.17-57.32-.26-84.4-.02-6.77-.04-13.63-.06-20.71-.03-3.51-.06-7.06-.09-10.69-.08-3.32-.42-6.67-1.1-10.06-2.72-13.45-10.62-27.67-24.36-38.12-6.89-4.91-15.31-9.22-24.41-9.72l-1.7-.11c-1.7-.08-2.39-.12-3.6-.37-2.17-.46-4.24-1.43-5.99-2.83-3.53-2.77-5.68-7.32-5.46-12.05,0-5.78-.01-11.75-.02-17.92-.01-12.22-.03-25.26-.04-39.23v-5.28c.01-1.2-.22-5.24,.84-7.75,1.92-5.6,7.57-9.73,13.8-9.64,7.62,0,15.5-.01,23.65-.02,27.43-.01,50.96-.02,71.56-.03,10.36,.05,19.69-.15,29.17,.27,9.31,.63,18.05,1.7,26.06,3.87,16.14,3.95,29.34,10.83,40.28,18.52,10.98,7.72,19.94,16.18,28.22,25.07,16.45,17.92,29.99,37.85,47.03,64.12,17.35,26.24,39.01,58.99,69.27,104.74,44.32,66.57,60.47,90.82,92.07,138.28,.51,.7,1.15,1.58,1.9,2.62,.77,.46,1.16-.65,.95-1.39-.02-.77-.04-1.6-.06-2.47-.07-10.83-.15-24.13-.24-39.65-.01-8.72-.06-45.68-.12-82.77,0-18.55-.02-37.13-.02-52.23-.02-15.03,.11-27.03-.26-30.61-.56-6.89-3.61-21.61-15.52-35.04-5.92-6.45-13.9-12.66-23.2-15.41-2.28-.84-4.68-1.16-7.03-1.5l-4.74-.32c-2.55-.21-5.02-1.04-7.14-2.42-4.28-2.73-7.04-7.68-7.03-12.88v-9.49c.01-11.86,.03-23.71,.04-35.07,0-5.68,0-11.23,.01-16.6v-4.19c-.05-2.32,.28-4.59,1.13-6.65,1.63-4.16,5.09-7.33,9.09-8.76,2.01-.73,4.13-.94,6.24-.91h3.7c2.34,0,4.6,0,6.79,0,4.38,0,8.45,0,12.15,0,7.4-.02,13.31-.03,17.25-.04,11-.07,58.33-.37,116.93-.74,29.3-.03,61.42-.06,93.24-.09l12.16,.04c7.36-.4,14.24,4.52,16.29,11.38,.53,1.69,.77,3.47,.74,5.27l-.05,3.46-.09,5.86c-.07,3.89-.13,7.76-.2,11.6-.32,15.51-.64,30.55-.94,44.73-.03,6.91-4.88,13.05-11.16,14.79-1.69,.48-2.87,.62-5.09,.69l-2.26,.1c-1.5-.05-3,.38-4.49,.58-5.96,1.16-11.58,3.71-16.48,6.78-9.95,6.13-16.78,14.52-21.45,21.7-4.67,7.31-6.81,13.84-8.39,18.01-1.52,4.22-2.43,6.23-3.3,5.16Z"/>
      <path class="cls-3" d="M351.5,350.26c-.67,1.79-2.01,0-2.46-.68-.67-1.57-1.35-3.81-.9-5.38,1.79-4.26,.45-9.41-4.93-9.87-3.14-.23-5.82,1.79-7.62,4.26-1.79,2.92-2.01,6.05-1.12,9.19,1.12,3.59,2.92,6.72,4.48,10.09,1.57,3.36,3.14,6.73,4.71,10.09,3.14,6.95,5.83,13.9,8.29,21.07,4.71,14.12,7.39,29.37,5.83,44.39-.68,7.17-2.02,14.35-4.93,20.85-2.47,5.38-6.5,10.76-13.01,11.66-6.05,.9-10.76-2.92-12.33-8.74-1.35-4.48-1.12-10.76,4.03-12.78,1.79-.68,4.03,6.5,2.02,7.4-1.57,.67-3.81,2.91-3.36,4.48,.67,1.79,5.37,2.47,7.17,2.24,7.39-.67,11.43-7.62,13.67-14.12,9.87-28.47-1.79-58.06-14.12-83.62-3.36-6.73-6.95-13.9-6.5-21.75,.45-4.93,3.36-10.99,8.74-12.11,5.15-1.12,8.96,2.69,10.99,6.95,2.46,5.16,3.13,11.21,1.34,16.37Zm-13.23,81.15c0,2.24-2.01,4.26-4.48,4.26s-4.26-1.79-4.26-4.26c0-2.69,1.57-4.71,4.26-4.71s4.48,2.24,4.48,4.71Zm34.08,11.21c.45-1.79,1.57,0,2.02,.68,.89,1.57,1.56,3.81,.89,5.38-.67,1.8-1.12,4.26-.22,6.28,.89,2.02,3.14,3.36,5.38,3.59,6.94,.68,10.54-7.84,8.74-13.45-1.12-3.59-2.91-6.72-4.48-10.09-1.57-3.36-3.13-6.73-4.7-10.09-2.91-6.72-5.83-13.9-8.07-21.07-4.7-14.35-7.39-29.37-6.05-44.39,.67-7.17,2.24-14.35,5.16-20.85,2.46-5.38,6.49-10.76,12.78-11.66,6.05-.9,10.54,2.92,12.33,8.74,1.12,4.48,1.12,10.76-4.03,12.78-1.57,.68-3.81-6.72-2.02-7.4,1.79-.67,3.14-2.47,3.36-4.48,0,.68,.23,.23-.22-.23-.67-.45-1.35-.9-2.02-1.35-1.57-.67-3.14-.9-4.93-.67-7.39,.67-11.44,7.62-13.68,14.12-10.09,28.69,1.8,57.84,14.13,83.62,3.14,6.73,6.95,13.9,6.27,21.75-.22,4.93-3.13,10.99-8.51,12.11-5.15,.9-8.96-2.92-10.99-7.17-2.24-4.93-3.14-10.99-1.12-16.14Zm24.21-78.69c0,2.24-2.02,4.26-4.48,4.26-2.24,0-4.26-1.8-4.26-4.26,0-2.69,1.79-4.48,4.26-4.48,2.69,0,4.48,2.02,4.48,4.48Z"/>
      <path class="cls-3" d="M736.86,350.26c-.67,1.79-2.01,0-2.46-.68-.67-1.57-1.35-3.81-.9-5.38,1.79-4.26,.45-9.41-4.93-9.87-3.14-.23-5.82,1.79-7.62,4.26-1.79,2.92-2.01,6.05-1.12,9.19,1.12,3.59,2.92,6.72,4.48,10.09,1.57,3.36,3.14,6.73,4.71,10.09,3.14,6.95,5.83,13.9,8.29,21.07,4.71,14.12,7.39,29.37,5.83,44.39-.68,7.17-2.02,14.35-4.93,20.85-2.47,5.38-6.5,10.76-13.01,11.66-6.05,.9-10.76-2.92-12.33-8.74-1.35-4.48-1.12-10.76,4.03-12.78,1.79-.68,4.03,6.5,2.02,7.4-1.57,.67-3.81,2.91-3.36,4.48,.67,1.79,5.37,2.47,7.17,2.24,7.39-.67,11.43-7.62,13.67-14.12,9.87-28.47-1.79-58.06-14.12-83.62-3.36-6.73-6.95-13.9-6.5-21.75,.45-4.93,3.36-10.99,8.74-12.11,5.15-1.12,8.96,2.69,10.99,6.95,2.46,5.16,3.13,11.21,1.34,16.37Zm-13.23,81.15c0,2.24-2.01,4.26-4.48,4.26s-4.26-1.79-4.26-4.26c0-2.69,1.57-4.71,4.26-4.71s4.48,2.24,4.48,4.71Zm34.08,11.21c.45-1.79,1.57,0,2.02,.68,.89,1.57,1.56,3.81,.89,5.38-.67,1.8-1.12,4.26-.22,6.28,.89,2.02,3.14,3.36,5.38,3.59,6.94,.68,10.54-7.84,8.74-13.45-1.12-3.59-2.91-6.72-4.48-10.09-1.57-3.36-3.13-6.73-4.7-10.09-2.91-6.72-5.83-13.9-8.07-21.07-4.7-14.35-7.39-29.37-6.05-44.39,.67-7.17,2.24-14.35,5.16-20.85,2.46-5.38,6.49-10.76,12.78-11.66,6.05-.9,10.54,2.92,12.33,8.74,1.12,4.48,1.12,10.76-4.03,12.78-1.57,.68-3.81-6.72-2.02-7.4,1.79-.67,3.14-2.47,3.36-4.48,0,.68,.23,.23-.22-.23-.67-.45-1.35-.9-2.02-1.35-1.57-.67-3.14-.9-4.93-.67-7.39,.67-11.44,7.62-13.68,14.12-10.09,28.69,1.8,57.84,14.13,83.62,3.14,6.73,6.95,13.9,6.27,21.75-.22,4.93-3.13,10.99-8.51,12.11-5.15,.9-8.96-2.92-10.99-7.17-2.24-4.93-3.14-10.99-1.12-16.14Zm24.21-78.69c0,2.24-2.02,4.26-4.48,4.26-2.24,0-4.26-1.8-4.26-4.26,0-2.69,1.79-4.48,4.26-4.48,2.69,0,4.48,2.02,4.48,4.48Z"/>
      <path class="cls-3" d="M559.81,550.96c.13,.5,.34,2.91-.52,3.08-1.09,.13-1.44-2.19-1.43-2.78-.09-.14-.04-.37-.04-.37l-.18-.27s.14-.09,.04-.23l-.09-.14,.09,.14-.09-.14c-.09-.73-.17-1.45-.3-1.95-.4-2.09-.79-4.18-1.33-6.19-1.41-6.32-2.92-12.19-4.74-18.25-5.16-16.8-12.15-33.38-22.06-47.85-5.22-7.94-11.39-15.24-18.67-21.25l-.09-.13c1.58,7.78,3.17,15.56,4.48,23.52-.05,.82-1,.86-1.55,.63-.78-.28-1.45-1.01-1.63-1.88-1.22-8.41-2.94-16.69-4.79-24.88-4.96,7.38-9.69,14.79-14.55,22.3-.82,1.13-3.54-1.2-2.8-2.47,4.77-7.06,9.31-14.16,13.99-21.35-8.1,.81-16.19,1.63-24.37,2.3-1.32,.08-3.34-2.7-1.66-2.83,8.09-.81,16.05-1.54,24.14-2.35-1.04-.69-2.04-1.61-3.03-2.52-3.97-3.66-7.72-7.27-11.29-11.2-12.77-14.35-23.34-30.73-32.09-47.91-4.18-7.84-8.03-16.09-11.02-24.51-.49-1.05-.88-3.14-.2-4.18,.69-1.04,1.36,.28,1.59,.92-.05,.23,.04,.36,.13,.5,.13,.5,.41,.91,.54,1.41,.18,.28,.22,.64,.41,.91-.05,.22,.04,.36,.22,.64l.09,.14c.85,2.18,1.79,4.51,2.77,6.6,3,6.65,6.14,13.22,9.69,19.51,9.61,17.6,21.19,34.31,35.68,48.3,3.25,3.15,6.69,5.99,10.26,8.74-1.99-8.1-3.85-16.29-5.75-24.25-.39-2.09,2.64-.76,2.95,.61,1.77,7.46,3.49,15.15,5.35,22.75,4.5-6.88,9.17-13.48,14.17-19.9,.83-1.13,3.54,1.21,2.71,2.33-5.18,6.74-9.9,13.57-14.62,20.4,8.41-.63,16.68-1.17,25-1.34,.82,.05,1.77,.6,2.08,1.38,.27,.41,.4,1.5-.56,1.54-8.54,.13-16.95,.76-25.5,1.48,2.22,1.88,4.52,3.88,6.46,5.94,6.73,6.95,12.22,14.71,17.03,22.92,8.63,14.91,14.93,31.35,19.55,47.92,2.27,7.92,4.26,16.02,5.53,24.21Z"/>
    </g>
  </g>
  <g id="Camada_3" data-name="Camada 3">
    <g class="cls-5">
      <path class="cls-1" d="M-16,1059.97c178.29,4.18,395.23,7.63,573.53,9.39l267.44,2.67,241.85,1.53,.04-6.1,.08-9.35,.08-16.72,.13-33.43,.18-66.86,.06-133.72c-.07-89.15-.36-178.3-.73-267.44l-.52-133.72-.1-133.72-.05-66.86,.23-66.86,.53-122.77,.04-2.61-8.17-.11-11.13-.11-32.79-.22-65.57-.45-131.15-.89c-44.58-.26-89.14-.52-133.72-.78-44.58-.13-89.14-.29-133.72-.22-89.15-.16-178.3,.39-267.44,1.27l-133.72,1.51-66.86,.85-33.43,.43-16.72,.22-4.18,.05-1.78,.03-.93,.03-3.68,.11-6.72,.18,.07,6.49,.04,3.18,.02,1.57v3.23s-.1,29.52-.1,29.52l-.2,59.05-.67,133.73-1.35,267.45-1.84,567.9-53.56-33.77c5.17-89.08,9.13-178.18,12.92-267.28l2.71-66.83c.91-22.27,1.83-44.55,2.59-66.83l4.79-133.67,4.15-133.67c.67-22.28,1.35-44.56,2.02-66.84l1.74-66.84,3.48-133.68c.46-19.68,.87-39.36,1.21-59.04l.46-29.52,.45-35.53,19.12-.08,35.95-.28,33.43-.48c22.28-.3,44.58-.63,66.86-1.13l133.72-2.8c44.58-.96,89.14-1.55,133.72-2.06,44.58-.48,89.14-.45,133.72-.43,44.58-.07,89.14,.17,133.72,.36,44.58,.23,89.14,.73,133.72,1.08l131.15,1.15,65.57,.57,75.21,.5-.04,7.01-.29,74.63-.12,66.86c-.02,44.57,.08,89.15,.29,133.72,.43,89.15,1.35,178.3,2.78,267.44l1.71,133.72c.57,44.57,1.18,89.15,1.42,133.72,.43,44.57,.43,89.15,.56,133.72,.05,22.29,.03,44.57-.04,66.86l-.39,75.39-.11,19.03-47.31-.34-31.91-.4-63.82-.95-127.64-2.26-66.86-1.12c-22.29-.4-44.57-.56-66.86-.86-44.57-.64-89.15-.74-133.72-.81-89.15,.14-178.29,.93-267.44,3.72-44.57,1.35-89.15,3.1-133.72,5.43-44.57,2.36-89.15,5.13-133.72,9.21l-38.64-54.05Z"/>
    </g>
  </g>
</svg>