<?xml version="1.0" encoding="UTF-8"?>
<svg xmlns="http://www.w3.org/2000/svg" xmlns:xlink="http://www.w3.org/1999/xlink" viewBox="0 0 1080 1080">
  <defs>
    <style>
      .cls-1 {
        fill: #fff;
      }

      .cls-2 {
        clip-path: url(#clippath-2);
      }

      .cls-3 {
        fill: #55a3f9;
      }

      .cls-4 {
        clip-path: url(#clippath-1);
      }

      .cls-5 {
        fill: #f4f2e7;
      }

      .cls-6 {
        clip-path: url(#clippath);
      }

      .cls-7 {
        fill: none;
      }

      .cls-8 {
        fill: #ffd81f;
      }

      .cls-9 {
        fill: #f3f1e5;
      }
    </style>
    <clipPath id="clippath">
      <rect class="cls-7" x=".77" y="803.35" width="1080" height="273.37"/>
    </clipPath>
    <clipPath id="clippath-1">
      <rect class="cls-7" y="-1" width="1080" height="1080"/>
    </clipPath>
    <clipPath id="clippath-2">
      <rect class="cls-7" y="-1100" width="1080" height="1080"/>
    </clipPath>
  </defs>
  <g id="Camada_1" data-name="Camada 1">
    <rect class="cls-9" x=".49" y="-.51" width="1080.5" height="1080.5"/>
  </g>
  <g id="Camada_2" data-name="Camada 2">
    <g>
      <circle class="cls-8" cx="548.27" cy="461.04" r="238"/>
      <path class="cls-5" d="M798.31,429.41c-.36-2.15-.61-4.03-.79-5.77-.18-1.74-.45-3.34-.62-4.96-.2-1.62-.39-3.25-.61-5.04-.23-1.79-.49-3.75-1.02-5.96-.41-1.84-.92-3.85-1.48-5.93-.29-1.04-.58-2.1-.87-3.17-.29-1.07-.69-2.12-1.04-3.18-.72-2.11-1.43-4.2-2.1-6.19-.33-.99-.65-1.96-.95-2.89-.33-.92-.65-1.79-.95-2.62-4.32-13.01-10.48-25.1-16.83-37.2-4.39-8.56-9.49-16.72-14.78-24.73-1.34-1.99-2.78-3.91-4.17-5.87l-2.1-2.92c-.69-.98-1.4-1.95-2.16-2.88l-4.47-5.65c-.75-.94-1.48-1.89-2.25-2.81l-2.36-2.72-4.73-5.43c-1.6-1.79-3.3-3.49-4.95-5.23l-2.49-2.6c-.82-.87-1.66-1.74-2.54-2.55l-5.22-4.96c-.87-.82-1.73-1.66-2.62-2.47l-2.72-2.36-5.45-4.71c-1.84-1.55-3.76-2.99-5.63-4.48l-2.83-2.22c-.94-.75-1.88-1.49-2.87-2.17l-7.72-5.51c-2.6-1.8-5.29-3.46-7.94-5.2-2.62-1.77-5.38-3.34-8.11-4.93-2.74-1.59-5.44-3.24-8.28-4.65-.85-.45-1.9-1-2.64-1.39-.33-.16-.57-.28-.89-.44-15.5-7.97-31.87-14.3-48.75-18.62-1.18-.35-2.59-.66-4.16-1.01-1.57-.35-3.28-.73-5.08-1.13-1.8-.38-3.66-.87-5.57-1.18-1.91-.33-3.82-.66-5.68-.98-1.86-.32-3.66-.64-5.33-.93-1.68-.22-3.23-.42-4.59-.59-2.71-.35-4.61-.61-5.15-.72-1.78-.48-8.13-.77-14.48-1.08-3.17-.11-6.36-.01-8.97-.03-2.61,.02-4.66,0-5.59,.02-.71,.03-3,.14-6.14,.28-1.57,.08-3.35,.17-5.26,.27-1.91,.1-3.93,.37-5.99,.56-2.06,.21-4.15,.43-6.18,.64-1.02,.09-2.02,.23-2.99,.39-.97,.15-1.92,.3-2.83,.44-3.65,.58-6.73,1.02-8.51,1.35-4.12,.72-8.26,1.32-12.39,2.01-4.1,.84-8.22,1.58-12.31,2.44-1.85,.45-3.92,.97-6.17,1.52-2.24,.59-4.68,1.11-7.16,1.93-2.49,.78-5.1,1.6-7.77,2.44-1.34,.4-2.67,.89-4,1.4-1.33,.5-2.67,1.01-4.01,1.51-5.4,1.93-10.58,4.42-15.41,6.62-2.39,1.15-4.6,2.4-6.69,3.52-2.07,1.16-4.02,2.17-5.68,3.25,0-.02,0-.03-.01-.05l-8.06,4.69c-1.36,.76-2.65,1.62-3.96,2.46l-3.92,2.53c-.72,.42-1.3,.75-2.21,1.28-1.76,.99-3.49,2.3-5.31,3.63-1.81,1.34-3.67,2.77-5.53,4.22-20.94,15.9-39.7,34.8-54.71,56.43l-2.84,4.03c-.92,1.36-1.78,2.77-2.66,4.15l-2.64,4.17-1.32,2.08-1.23,2.14-4.85,8.59-4.42,8.81c-5.66,11.86-10.37,24.17-14.06,36.75-5.04,17.7-7.94,35.63-9.82,54.08-3.33,32.7,.68,66.35,10.97,97.82,1.24,3.7,2.36,7.1,3.78,10.3,.68,1.61,1.35,3.2,2.03,4.8,.68,1.6,1.33,3.22,2.13,4.82,1.51,3.24,3.09,6.62,4.84,10.38,.92,1.85,1.88,3.81,2.87,5.9,.49,1.05,1,2.12,1.52,3.24,.51,1.12,1.13,2.22,1.71,3.39,1.08,2.01,2.39,4.47,3.83,7.14,1.47,2.65,3.19,5.45,4.85,8.28,1.62,2.86,3.49,5.55,5.17,8.06,1.7,2.49,3.22,4.81,4.67,6.53,1.31,1.62,2.53,3.14,3.69,4.59,1.18,1.43,2.24,2.83,3.4,4.07,2.27,2.5,4.38,4.82,6.48,7.13,4.39,4.45,8.72,8.94,14.89,14.5l2.54,2.35c.84,.79,1.75,1.5,2.62,2.26l5.28,4.47c1.73,1.52,3.6,2.88,5.42,4.3l5.48,4.21c1.87,1.35,3.78,2.65,5.66,3.97l2.84,1.98c.94,.66,1.89,1.32,2.87,1.92l5.85,3.69,2.92,1.84,3,1.71c15.95,9.23,32.9,16.74,50.45,22.3l1.72,.58,1.74,.51,3.49,1.03,6.96,2.13c2.35,.62,4.69,1.25,7.03,1.87,2.34,.62,4.67,1.31,7.05,1.78,1.93,.42,3.83,.84,5.71,1.25,1.88,.38,3.72,.87,5.58,1.13,3.7,.6,7.33,1.16,10.95,1.67,3.63,.33,7.25,.61,10.91,.8,1.83,.14,3.67,.08,5.52,.05,1.86-.03,3.72-.09,5.61-.17,3.47-.08,6.81-.47,10.12-.73,3.3-.28,6.57-.48,9.87-.91,1.65-.17,3.32-.34,5-.51,.84-.08,1.69-.15,2.55-.23,.86-.06,1.72-.15,2.59-.27,3.47-.44,7.08-.83,10.92-1.18,12.3-1.49,24.43-4.18,36.29-7.83,11.81-3.82,23.32-8.53,34.6-13.91,17.8-8.71,33.63-18.89,48.28-30.52,1.88-1.39,3.61-2.97,5.41-4.47,1.79-1.52,3.57-3.03,5.36-4.55,1.72-1.6,3.44-3.2,5.17-4.81,1.72-1.62,3.5-3.18,5.13-4.9,3.31-3.41,6.77-6.72,9.94-10.38,1.62-1.8,3.25-3.6,4.89-5.42,1.56-1.89,3.12-3.79,4.7-5.7l2.79-3.32,2.69-3.41c1.78-2.28,3.63-4.53,5.37-6.84,3.34-4.72,6.73-9.41,9.29-14.46,.84-1.56,1.67-3.1,2.49-4.64,.85-1.52,1.55-3.11,2.34-4.65,.78-1.54,1.55-3.08,2.32-4.61l1.17-2.29c.38-.77,.72-1.55,1.08-2.32,1.44-3.09,2.88-6.16,4.31-9.24,1.33-3.13,2.65-6.25,3.98-9.39,5.1-12.65,9.56-25.9,12.72-40.72,1.31-6.07,2.27-16.7,1.76-26.2-.12-2.38-.28-4.68-.48-6.82-.08-1.07-.23-2.1-.41-3.09-.17-.98-.34-1.92-.52-2.79-.72-3.49-1.55-6-2.47-6.89-2.12-2.06-4.91,.97-7.08-.85-2.5-2.07-6.09,1.3-9.09,6.82-.76,1.38-1.45,2.9-2.12,4.52-.74,1.61-1.41,3.32-2,5.08-.59,1.76-1.09,3.59-1.48,5.43-.43,1.84-.84,3.69-1.06,5.55-1.89,15.62-4.87,31.19-9.96,46.18-5.3,15.64-12.88,30.46-21.31,44.56-1.73,2.77-3.27,5.67-4.95,8.5-1.7,2.82-3.4,5.63-5.09,8.44-1.82,2.72-3.66,5.44-5.56,8.1-1.94,2.62-4.08,5.07-6.24,7.47-4.73,4.99-9.28,10-14.26,14.77-2.4,2.47-5.07,4.71-7.76,7-.68,.57-1.36,1.14-2.04,1.71l-1.04,.85-1.09,.8c-1.46,1.06-2.94,2.11-4.47,3.15-1.09,.75-2.18,1.51-3.28,2.27-1.12,.72-2.25,1.45-3.37,2.18-2.26,1.45-4.45,3.02-6.74,4.47-2.31,1.42-4.61,2.88-6.9,4.36-1.13,.76-2.32,1.44-3.51,2.13l-3.55,2.08-3.55,2.11c-1.2,.67-2.43,1.3-3.64,1.95-2.45,1.27-4.84,2.65-7.33,3.84-2.5,1.17-5,2.33-7.5,3.49-1.24,.6-2.52,1.1-3.8,1.6-1.28,.5-2.56,1-3.83,1.5l-4.23,1.64-4.31,1.43-4.31,1.44c-.72,.23-1.43,.5-2.16,.71l-2.19,.61c-2.92,.8-5.84,1.66-8.77,2.43-2.96,.67-5.92,1.34-8.89,2.02-11.92,2.43-24.04,3.95-36.23,4.55-12.2,.49-24.42-.03-36.51-1.42l-9.03-1.23c-2.98-.57-5.96-1.14-8.94-1.7l-2.23-.43-2.21-.54-4.41-1.08-4.4-1.09-4.34-1.31c-14.71-4.37-29.2-9.9-42.99-16.77-13.79-6.86-26.87-15.07-38.62-24.51l-1.55-1.21-1.49-1.28-2.98-2.56c-1.98-1.71-4.01-3.38-5.87-5.22l-5.71-5.4-5.45-5.67c-.9-.96-1.84-1.87-2.7-2.86l-2.58-2.97-2.58-2.96c-.86-.99-1.73-1.97-2.52-3.01l-4.87-6.17c-.83-1.01-1.58-2.09-2.34-3.16l-2.28-3.2-2.28-3.2c-.76-1.07-1.43-2.2-2.15-3.29l-4.24-6.62c-2.58-4.56-5.35-9.02-7.64-13.74l-1.8-3.5-.9-1.75-.81-1.79-3.25-7.16c-.57-1.18-1.02-2.41-1.5-3.63l-1.45-3.65-1.45-3.65c-.48-1.22-.86-2.48-1.29-3.71l-2.53-7.44-2.16-7.56c-.35-1.26-.76-2.51-1.05-3.79l-.89-3.83-.89-3.83c-.28-1.28-.64-2.54-.84-3.84-.91-5.16-1.97-10.3-2.53-15.52l-.51-3.9-.26-1.95-.15-1.96-.63-7.85c-.54-10.48-.69-21.01,.19-31.48,.24-5.25,1.03-10.45,1.61-15.67,.35-2.6,.86-5.18,1.28-7.77l.66-3.89c.23-1.29,.56-2.57,.83-3.85l1.7-7.66,2.1-7.57c.36-1.26,.68-2.53,1.08-3.78l1.25-3.73c.86-2.47,1.61-4.99,2.56-7.43l2.88-7.32,.72-1.83,.81-1.79,1.62-3.58c2.05-4.83,4.58-9.42,6.94-14.1,6.79-12.49,13.65-22.96,21.28-32.73,7.66-9.74,16.13-18.81,26.93-27.58,1.06-.81,2.2-1.77,3.28-2.63,0,0,.01,0,.02,.02l.53-.45c1.28-1.03,2.58-2.08,3.89-3.15,1.33-1.05,2.73-2.05,4.1-3.1,1.37-1.05,2.76-2.11,4.15-3.18,1.37-1.09,2.86-2.04,4.28-3.07,2.87-2.03,5.69-4.14,8.63-5.98,2.91-1.87,5.69-3.87,8.55-5.5,11.63-6.79,23.86-12.58,36.52-17.12,12.66-4.52,25.71-7.86,38.91-9.96,15.16-2.42,30.63-3.71,46.05-3.52,15.41,.18,30.76,1.87,45.44,5.26,27.77,6.39,54.29,18.18,77.73,34.47,23.45,16.27,43.81,37.01,59.69,60.76,8.53,13.38,15.05,27.96,19.93,42.78,4.9,14.84,8.17,29.89,10.63,44.74,.78,3.93,1.33,7.98,2.2,11.81,.21,.96,.43,1.91,.66,2.84,.2,.94,.4,1.86,.6,2.76,.41,1.81,.85,3.54,1.34,5.17,.51,1.71,.94,3.13,1.16,4.35,.23,1.22,.38,2.23,.52,3.09,.27,1.73,.48,2.91,1.08,4.15,1.41,2.94,3.89,4.08,6.72,3.69,3.86-.53,8.38-3.96,11.8-9.6,1.77-2.82,2.98-6.17,3.74-9.9,.37-1.86,.62-3.82,.71-5.85,.02-2.02-.17-4.1-.51-6.21Z"/>
    </g>
    <g class="cls-6">
      <path class="cls-3" d="M-101.66,947.91c3.18-2.27,6.37-4.04,9.55-5.46,1.59-.68,3.18-1.46,4.78-2.05l4.78-1.6c6.37-1.92,12.74-3.29,19.11-3.86,12.74-1.22,25.47-.22,38.21,3.71,12.74,3.84,25.47,10.05,38.21,13.25,12.74,3.08,25.47,3.83,38.21,.6,12.74-3.08,25.47-9.23,38.21-11.09,12.74-2.19,25.47-.61,38.21,3.22,6.37,1.95,12.74,4.28,19.11,6.06l4.78,1.34,4.78,.94c3.18,.69,6.37,1.13,9.55,1.37,12.74,1.22,25.47-1.9,38.21-6.05,12.74-4.17,25.47-6.26,38.21-4.72,3.18,.33,6.37,.71,9.55,1.37,3.18,.66,6.37,1,9.55,1.94,6.37,1.55,12.74,3.48,19.11,5.41,25.47,8.29,50.95,11.82,76.42,1.51l9.55-3.23c3.18-1.03,6.37-1.84,9.55-2.76,6.37-1.53,12.74-2.32,19.11-2.27,6.37,.07,12.74,.76,19.11,2.15,6.37,1.47,12.74,3.44,19.11,5.63,12.74,4.45,25.47,8.29,38.21,8.31,6.37,.16,12.74-.5,19.11-2.08,3.19-.78,6.37-1.77,9.55-3.02,3.19-1.11,6.37-2.37,9.55-3.82,12.74-5.63,25.47-11.24,38.21-12.07,6.37-.58,12.74-.26,19.11,1.1,6.37,1.4,12.74,3.73,19.11,6.23,6.37,2.53,12.74,4.95,19.11,6.58,6.37,1.56,12.74,2.18,19.11,1.89,12.74-.22,25.47-6.66,38.21-11.42,12.74-4.95,25.47-5.95,38.21-2.85,12.74,3.15,25.47,10.44,38.21,11.86,12.74,1.43,25.47-.39,38.21-3.58,12.74-3.23,25.47-7.62,38.21-9.07,12.74-1.81,25.47-1.47,38.21,3.46,6.37,2.19,12.74,5.18,19.11,7.59,6.37,2.31,12.74,4.19,19.11,4.69,6.37,.57,12.74,.18,19.11-1.06,3.19-.6,6.37-1.48,9.55-2.59,3.19-.98,6.37-2.15,9.55-3.47,6.37-2.56,12.74-5.11,19.11-7.1,6.37-1.92,12.74-2.93,19.11-3.07,25.47-1.54,50.95,14.47,76.42,14.77,6.37,.11,12.74,.47,19.11,.39,6.37-.22,12.74-.15,19.11-.79,12.74-.92,40.01-.12,52.75-3.85,0,0-1.15,13.6-4.26,30.83-2.56,14.17-9.81,27.5-9.81,27.5-25.47,.75-51.42,1.23-76.89-.7-6.37-.66-12.74-1.44-19.11-2.66-6.37-1.19-12.74-2.7-19.11-4.04-12.74-2.89-25.47-4.51-38.21-4.18-3.19,.11-6.37,.36-9.55,.8l-9.55,1.9c-6.37,1.7-12.74,3.86-19.11,5.95-12.74,4.21-25.47,6.64-38.21,4.99-6.37-.76-12.74-2.97-19.11-5.57-6.37-2.69-12.74-5.96-19.11-8.2-12.74-5.17-25.47-4.85-38.21-2.36-12.74,2.53-25.47,8.23-38.21,12.93-12.74,4.58-25.47,7.75-38.21,7.01-12.74-.75-25.47-8.62-38.21-10.62-6.37-.96-12.74-.65-19.11,1.23-6.37,1.83-12.74,5.77-19.11,10.93-6.37,5.19-12.74,11-19.11,15.47-6.37,4.48-12.74,6.8-19.11,7.08-6.37,.41-12.74-1.48-19.11-5.13-1.59-.91-3.19-1.9-4.78-3.13-1.59-1.09-3.18-2.4-4.78-3.74-3.19-2.69-6.37-5.78-9.55-8.66-6.37-5.95-12.74-11.92-19.11-15.59-6.37-3.76-12.74-5.55-19.11-5.41-6.37-.05-12.74,1.38-19.11,4.21-6.37,2.78-12.74,7.05-19.11,10.97-12.74,8.5-25.47,14.05-38.21,13.28-12.74,.02-25.47-4.94-38.21-10.76-6.37-2.87-12.74-5.48-19.11-7.45-6.37-1.87-12.74-2.85-19.11-3.05-6.37-.17-12.74,.62-19.11,2.3-3.18,1.03-6.37,1.91-9.55,3.07l-9.55,3.68c-25.47,11.88-50.95,8.88-76.42,1.73-25.47-7.12-50.95-12.03-76.42-2.38-6.37,1.97-12.74,3.83-19.11,4.8-6.37,.92-12.74,.96-19.11,0-12.74-1.6-25.47-9.4-38.21-15.04-12.74-5.57-25.47-6.97-38.21-3.02-12.74,3.73-25.47,14.63-38.21,20.8-12.74,6.38-25.47,6.4-38.21,3.62-12.74-3-25.47-10.14-38.21-14.71-12.74-4.72-25.47-5.74-38.21-4.51-6.37,.57-12.74,1.98-19.11,3.96l-4.78,1.66c-1.59,.61-3.18,1.43-4.78,2.13-3.18,1.47-12.28,5.61-21.55,14.36,0,0,6.91-24.59,9.49-44.58,2.58-19.99,2.51-34.1,2.51-34.1Z"/>
      <path class="cls-3" d="M-101.66,999.07c3.18-2.27,6.37-4.04,9.55-5.46,1.59-.68,3.18-1.47,4.78-2.05l4.78-1.6c6.37-1.92,12.74-3.29,19.11-3.86,12.74-1.22,25.47-.22,38.21,3.71,12.74,3.84,25.47,10.05,38.21,13.25,12.74,3.08,25.47,3.83,38.21,.6,12.74-3.08,25.47-9.23,38.21-11.09,12.74-2.19,25.47-.61,38.21,3.22,6.37,1.95,12.74,4.28,19.11,6.06l4.78,1.34,4.78,.94c3.18,.69,6.37,1.13,9.55,1.37,12.74,1.22,25.47-1.9,38.21-6.05,12.74-4.18,25.47-6.26,38.21-4.72,3.18,.33,6.37,.71,9.55,1.37,3.18,.66,6.37,1,9.55,1.94,6.37,1.55,12.74,3.48,19.11,5.41,25.47,8.29,50.95,11.82,76.42,1.51l9.55-3.23c3.18-1.03,6.37-1.84,9.55-2.76,6.37-1.53,12.74-2.32,19.11-2.27,6.37,.07,12.74,.76,19.11,2.15,6.37,1.47,12.74,3.44,19.11,5.63,12.74,4.45,25.47,8.29,38.21,8.31,6.37,.16,12.74-.5,19.11-2.09,3.19-.78,6.37-1.77,9.55-3.02,3.19-1.11,6.37-2.37,9.55-3.82,12.74-5.63,25.47-11.24,38.21-12.07,6.37-.58,12.74-.26,19.11,1.1,6.37,1.4,12.74,3.73,19.11,6.23,6.37,2.53,12.74,4.95,19.11,6.58,6.37,1.57,12.74,2.18,19.11,1.89,12.74-.22,25.47-6.66,38.21-11.42,12.74-4.95,25.47-5.95,38.21-2.85,12.74,3.15,25.47,10.44,38.21,11.86,12.74,1.43,25.47-.39,38.21-3.58,12.74-3.23,25.47-7.62,38.21-9.07,12.74-1.81,25.47-1.47,38.21,3.46,6.37,2.19,12.74,5.18,19.11,7.59,6.37,2.31,12.74,4.19,19.11,4.69,6.37,.57,12.74,.18,19.11-1.06,3.19-.6,6.37-1.48,9.55-2.59,3.19-.98,6.37-2.15,9.55-3.47,6.37-2.56,12.74-5.1,19.11-7.1,6.37-1.92,12.74-2.93,19.11-3.07,25.47-1.54,50.95,14.47,76.42,14.77,6.37,.12,12.74,.47,19.11,.39,6.37-.22,12.74-.15,19.11-.79,12.74-.92,40.01-.12,52.75-3.85,0,0-1.15,13.6-4.26,30.83-2.56,14.17-9.81,27.5-9.81,27.5-25.47,.75-51.42,1.23-76.89-.7-6.37-.66-12.74-1.44-19.11-2.66-6.37-1.19-12.74-2.7-19.11-4.04-12.74-2.89-25.47-4.51-38.21-4.18-3.19,.11-6.37,.36-9.55,.8l-9.55,1.9c-6.37,1.7-12.74,3.86-19.11,5.95-12.74,4.21-25.47,6.64-38.21,4.99-6.37-.76-12.74-2.97-19.11-5.57-6.37-2.69-12.74-5.96-19.11-8.2-12.74-5.17-25.47-4.85-38.21-2.36-12.74,2.53-25.47,8.23-38.21,12.93-12.74,4.58-25.47,7.75-38.21,7.01-12.74-.75-25.47-8.62-38.21-10.62-6.37-.96-12.74-.65-19.11,1.23-6.37,1.83-12.74,5.77-19.11,10.93-6.37,5.19-12.74,11-19.11,15.47-6.37,4.48-12.74,6.8-19.11,7.08-6.37,.41-12.74-1.48-19.11-5.13-1.59-.91-3.19-1.9-4.78-3.13-1.59-1.09-3.18-2.4-4.78-3.74-3.19-2.69-6.37-5.78-9.55-8.66-6.37-5.95-12.74-11.92-19.11-15.59-6.37-3.76-12.74-5.55-19.11-5.41-6.37-.05-12.74,1.38-19.11,4.21-6.37,2.78-12.74,7.05-19.11,10.97-12.74,8.5-25.47,14.05-38.21,13.28-12.74,.02-25.47-4.94-38.21-10.76-6.37-2.87-12.74-5.48-19.11-7.45-6.37-1.87-12.74-2.85-19.11-3.05-6.37-.17-12.74,.62-19.11,2.3-3.18,1.03-6.37,1.91-9.55,3.07l-9.55,3.68c-25.47,11.88-50.95,8.88-76.42,1.73-25.47-7.12-50.95-12.03-76.42-2.38-6.37,1.97-12.74,3.83-19.11,4.8-6.37,.92-12.74,.96-19.11-.01-12.74-1.6-25.47-9.4-38.21-15.04-12.74-5.57-25.47-6.97-38.21-3.03-12.74,3.73-25.47,14.63-38.21,20.8-12.74,6.38-25.47,6.4-38.21,3.62-12.74-3.01-25.47-10.14-38.21-14.71-12.74-4.72-25.47-5.74-38.21-4.51-6.37,.57-12.74,1.98-19.11,3.96l-4.78,1.66c-1.59,.61-3.18,1.43-4.78,2.13-3.18,1.47-12.28,5.61-21.55,14.36,0,0,6.91-24.59,9.49-44.58,2.58-19.99,2.51-34.1,2.51-34.1Z"/>
      <path class="cls-3" d="M-108.53,1038.07c3.18-2.27,6.37-4.04,9.55-5.46,1.59-.68,3.18-1.47,4.78-2.05l4.78-1.6c6.37-1.92,12.74-3.29,19.11-3.86,12.74-1.22,25.47-.22,38.21,3.71,12.74,3.84,25.47,10.05,38.21,13.25,12.74,3.08,25.47,3.83,38.21,.6,12.74-3.08,25.47-9.23,38.21-11.09,12.74-2.19,25.47-.61,38.21,3.22,6.37,1.95,12.74,4.28,19.11,6.06l4.78,1.34,4.78,.94c3.18,.69,6.37,1.13,9.55,1.37,12.74,1.22,25.47-1.9,38.21-6.05,12.74-4.18,25.47-6.26,38.21-4.72,3.18,.33,6.37,.71,9.55,1.37,3.18,.66,6.37,1,9.55,1.94,6.37,1.55,12.74,3.48,19.11,5.41,25.47,8.29,50.95,11.82,76.42,1.51l9.55-3.23c3.18-1.03,6.37-1.84,9.55-2.76,6.37-1.53,12.74-2.32,19.11-2.27,6.37,.07,12.74,.76,19.11,2.15,6.37,1.47,12.74,3.44,19.11,5.63,12.74,4.45,25.47,8.29,38.21,8.31,6.37,.16,12.74-.5,19.11-2.09,3.19-.78,6.37-1.77,9.55-3.02,3.19-1.11,6.37-2.37,9.55-3.82,12.74-5.63,25.47-11.24,38.21-12.07,6.37-.58,12.74-.26,19.11,1.1,6.37,1.4,12.74,3.73,19.11,6.23,6.37,2.53,12.74,4.95,19.11,6.58,6.37,1.57,12.74,2.18,19.11,1.89,12.74-.22,25.47-6.66,38.21-11.42,12.74-4.95,25.47-5.95,38.21-2.85,12.74,3.15,25.47,10.44,38.21,11.86,12.74,1.43,25.47-.39,38.21-3.58,12.74-3.23,25.47-7.62,38.21-9.07,12.74-1.81,25.47-1.47,38.21,3.46,6.37,2.19,12.74,5.18,19.11,7.59,6.37,2.31,12.74,4.19,19.11,4.69,6.37,.57,12.74,.18,19.11-1.06,3.19-.6,6.37-1.48,9.55-2.59,3.19-.98,6.37-2.15,9.55-3.47,6.37-2.56,12.74-5.1,19.11-7.1,6.37-1.92,12.74-2.93,19.11-3.07,25.47-1.54,50.95,14.47,76.42,14.77,6.37,.12,12.74,.47,19.11,.39,6.37-.22,12.74-.15,19.11-.79,12.74-.92,40.01-.12,52.75-3.85,0,0-1.15,13.6-4.26,30.83-2.56,14.17-9.81,27.5-9.81,27.5-25.47,.75-51.42,1.23-76.89-.7-6.37-.66-12.74-1.44-19.11-2.66-6.37-1.19-12.74-2.7-19.11-4.04-12.74-2.89-25.47-4.51-38.21-4.18-3.19,.11-6.37,.36-9.55,.8l-9.55,1.9c-6.37,1.7-12.74,3.86-19.11,5.95-12.74,4.21-25.47,6.64-38.21,4.99-6.37-.76-12.74-2.97-19.11-5.57-6.37-2.69-12.74-5.96-19.11-8.2-12.74-5.17-25.47-4.85-38.21-2.36-12.74,2.53-25.47,8.23-38.21,12.93-12.74,4.58-25.47,7.75-38.21,7.01-12.74-.75-25.47-8.62-38.21-10.62-6.37-.96-12.74-.65-19.11,1.23-6.37,1.83-12.74,5.77-19.11,10.93-6.37,5.19-12.74,11-19.11,15.47-6.37,4.48-12.74,6.8-19.11,7.08-6.37,.41-12.74-1.48-19.11-5.13-1.59-.91-3.19-1.9-4.78-3.13-1.59-1.09-3.18-2.4-4.78-3.74-3.19-2.69-6.37-5.78-9.55-8.66-6.37-5.95-12.74-11.92-19.11-15.59-6.37-3.76-12.74-5.55-19.11-5.41-6.37-.05-12.74,1.38-19.11,4.21-6.37,2.78-12.74,7.05-19.11,10.97-12.74,8.5-25.47,14.05-38.21,13.28-12.74,.02-25.47-4.94-38.21-10.76-6.37-2.87-12.74-5.48-19.11-7.45-6.37-1.87-12.74-2.85-19.11-3.05-6.37-.17-12.74,.62-19.11,2.3-3.18,1.03-6.37,1.91-9.55,3.07l-9.55,3.68c-25.47,11.88-50.95,8.88-76.42,1.73-25.47-7.12-50.95-12.03-76.42-2.38-6.37,1.97-12.74,3.83-19.11,4.8-6.37,.92-12.74,.96-19.11-.01-12.74-1.6-25.47-9.4-38.21-15.04-12.74-5.57-25.47-6.97-38.21-3.03-12.74,3.73-25.47,14.63-38.21,20.8-12.74,6.38-25.47,6.4-38.21,3.62-12.74-3.01-25.47-10.14-38.21-14.71-12.74-4.72-25.47-5.74-38.21-4.51-6.37,.57-12.74,1.98-19.11,3.96l-4.78,1.66c-1.59,.61-3.18,1.43-4.78,2.13-3.18,1.47-12.28,5.61-21.55,14.36,0,0,6.91-24.59,9.49-44.58,2.58-19.99,2.51-34.1,2.51-34.1Z"/>
    </g>
  </g>
  <g id="Camada_3" data-name="Camada 3">
    <g class="cls-4">
      <path class="cls-1" d="M-16,1058.97c178.29,4.18,395.23,7.63,573.53,9.39l267.44,2.67,241.85,1.53,.04-6.1,.08-9.35,.08-16.72,.13-33.43,.18-66.86,.06-133.72c-.07-89.15-.36-178.3-.73-267.44l-.52-133.72-.1-133.72-.05-66.86,.23-66.86,.53-122.77,.04-2.61-8.17-.11-11.13-.11-32.79-.22-65.57-.45-131.15-.89c-44.58-.26-89.14-.52-133.72-.78-44.58-.13-89.14-.29-133.72-.22-89.15-.16-178.3,.39-267.44,1.27l-133.72,1.51-66.86,.85-33.43,.43-16.72,.22-4.18,.05-1.78,.03-.93,.03-3.68,.11-6.72,.18,.07,6.49,.04,3.18,.02,1.57v3.23s-.1,29.52-.1,29.52l-.2,59.05-.67,133.73-1.35,267.45-1.84,567.9-53.56-33.77c5.17-89.08,9.13-178.18,12.92-267.28l2.71-66.83c.91-22.27,1.83-44.55,2.59-66.83l4.79-133.67,4.15-133.67c.67-22.28,1.35-44.56,2.02-66.84l1.74-66.84,3.48-133.68c.46-19.68,.87-39.36,1.21-59.04l.46-29.52,.45-35.53,19.12-.08,35.95-.28,33.43-.48c22.28-.3,44.58-.63,66.86-1.13l133.72-2.8c44.58-.96,89.14-1.55,133.72-2.06,44.58-.48,89.14-.45,133.72-.43,44.58-.07,89.14,.17,133.72,.36,44.58,.23,89.14,.73,133.72,1.08l131.15,1.15,65.57,.57,75.21,.5-.04,7.01-.29,74.63-.12,66.86c-.02,44.57,.08,89.15,.29,133.72,.43,89.15,1.35,178.3,2.78,267.44l1.71,133.72c.57,44.57,1.18,89.15,1.42,133.72,.43,44.57,.43,89.15,.56,133.72,.05,22.29,.03,44.57-.04,66.86l-.39,75.39-.11,19.03-47.31-.34-31.91-.4-63.82-.95-127.64-2.26-66.86-1.12c-22.29-.4-44.57-.56-66.86-.86-44.57-.64-89.15-.74-133.72-.81-89.15,.14-178.29,.93-267.44,3.72-44.57,1.35-89.15,3.1-133.72,5.43-44.57,2.36-89.15,5.13-133.72,9.21l-38.64-54.05Z"/>
    </g>
    <g class="cls-2">
      <path class="cls-1" d="M-16-40.03c178.29,4.18,395.23,7.63,573.53,9.39l267.44,2.67,241.85,1.53,.04-6.1,.08-9.35,.08-16.72,.13-33.43,.18-66.86,.06-133.72c-.07-89.15-.36-178.3-.73-267.44l-.52-133.72-.1-133.72-.05-66.86,.23-66.86,.53-122.77,.04-2.61-8.17-.11-11.13-.11-32.79-.22-65.57-.45-131.15-.89c-44.58-.26-89.14-.52-133.72-.78-44.58-.13-89.14-.29-133.72-.22-89.15-.16-178.3,.39-267.44,1.27l-133.72,1.51-66.86,.85-33.43,.43-16.72,.22-4.18,.05-1.78,.03-.93,.03-3.68,.11-6.72,.18,.07,6.49,.04,3.18,.02,1.57v3.23s-.1,29.52-.1,29.52l-.2,59.05-.67,133.73-1.35,267.45L11.02-12.6-42.53-46.37c5.17-89.08,9.13-178.18,12.92-267.28l2.71-66.83c.91-22.27,1.83-44.55,2.59-66.83l4.79-133.67,4.15-133.67c.67-22.28,1.35-44.56,2.02-66.84l1.74-66.84,3.48-133.68c.46-19.68,.87-39.36,1.21-59.04l.46-29.52,.45-35.53,19.12-.08,35.95-.28,33.43-.48c22.28-.3,44.58-.63,66.86-1.13l133.72-2.8c44.58-.96,89.14-1.55,133.72-2.06,44.58-.48,89.14-.45,133.72-.43,44.58-.07,89.14,.17,133.72,.36,44.58,.23,89.14,.73,133.72,1.08l131.15,1.15,65.57,.57,75.21,.5-.04,7.01-.29,74.63-.12,66.86c-.02,44.57,.08,89.15,.29,133.72,.43,89.15,1.35,178.3,2.78,267.44l1.71,133.72c.57,44.57,1.18,89.15,1.42,133.72,.43,44.57,.43,89.15,.56,133.72,.05,22.29,.03,44.57-.04,66.86l-.39,75.39-.11,19.03-47.31-.34-31.91-.4-63.82-.95-127.64-2.26-66.86-1.12c-22.29-.4-44.57-.56-66.86-.86-44.57-.64-89.15-.74-133.72-.81-89.15,.14-178.29,.93-267.44,3.72-44.57,1.35-89.15,3.1-133.72,5.43C111.79,7.18,67.21,9.95,22.64,14.03L-16-40.03Z"/>
    </g>
  </g>
</svg>