<?xml version="1.0" encoding="UTF-8"?>
<svg xmlns="http://www.w3.org/2000/svg" xmlns:xlink="http://www.w3.org/1999/xlink" viewBox="0 0 1080 1080">
  <defs>
    <style>
      .cls-1 {
        fill: #fff;
      }

      .cls-2 {
        clip-path: url(#clippath);
      }

      .cls-3 {
        fill: none;
      }

      .cls-4 {
        fill: #4ca0ff;
      }

      .cls-5 {
        fill: #ffd81f;
      }

      .cls-6 {
        fill: #3f99ff;
      }

      .cls-7 {
        fill: #ff5c27;
      }
    </style>
    <clipPath id="clippath">
      <rect class="cls-3" width="1080" height="1080"/>
    </clipPath>
  </defs>
  <g id="Camada_1" data-name="Camada 1">
    <rect class="cls-6" x="0" y="1.51" width="1080.5" height="1080.5"/>
  </g>
  <g id="Camada_2" data-name="Camada 2">
    <g>
      <path class="cls-5" d="M738.33,614.68c-.3,15.25-.6,30.5-.9,45.75-66.77,3.09-133.66,3.48-200.46,1.18-74-2.55-148.04-8.41-222.01-5.04,.73-15.82,1.46-31.63,2.19-47.45l421.18,5.56"/>
      <path class="cls-4" d="M719.62,609.37c-5.16,0-7.58-.37-12.96-.51-4.45-.12-10.66,.07-14.83,.02-8.1-.13-16.11,.13-24.26,.07-22.89-.17-45.8-.45-68.7-.75l-22.63-.36c-.57-.01-1.28-.03-1.78-.04-.22,0-.38,0-.59,0-10.38-.18-20.76-.34-31.14-.42-5.85-.04-20.26-.16-21.56-.24-2.17-.14-15.14,.01-17.36-.01-1.71,0-18.47,.06-22.83,.08-5.01-.09-10.04-.26-15.02-.45-9.09-.34-27.14-.84-36.56-.64,0,0,0-.01,0-.02-3.71-.04-7.43-.07-11.14-.11-.49-.02-.9-.04-1.52-.06-2.4-.09-5.18-.07-8-.03-15.72-.17-31.45-.34-47.18-.51l-23.59-.18-11.8-.06-7.49-.04-5.12-.04c-.3-.1-.22,.21-.24,.42l-.02,.64-.05,1.29-.1,2.57c-.06,1.97-.11,3.95-.17,5.92l-.09,4.12c-.07,2.74-.13,5.48-.2,8.23-.08,2.74-.17,5.49-.25,8.25-.1,2.76-.27,5.52-.43,8.31-.15,2.73-.31,5.46-.46,8.19-.12,2.13-.21,4.23-.29,6.35l-.03,.79s0,.07,0,.1h.1s.2,0,.2,0h.39s1.57-.03,1.57-.03c1.05-.02,2.08-.01,3.16-.06l9.03-.3c2.46-.1,4.93-.15,7.4-.19,4.93-.1,9.87-.24,14.81-.25,4.94-.05,9.88-.1,14.81-.06,4.66-.02,8.53-.04,12.8-.07,4.27,0,8.93,.02,15.16,.33,5.44,.14,15.66,.7,21,.8,9.9,.25,14.88,.26,24.8,.55,22.04,.65,44.11,1.64,66.19,2.51,5.8,.24,11.64,.57,17.41,.9,9.45,.54,17.63,.95,26.69,.88,8.31-.07,15.52-.11,24.76,.19,14.88,.48,29.69,.38,44.69,.35,23.78-.08,44.94-.42,68.64-.94,6.89-.17,13.87-.11,20.59-.45,8.4-.39,16.37-.68,24.48-.97,2.39-.09,4.79-.18,7.21-.26,.97-.05,1.98-.07,2.92-.15,.03-.98,.07-1.96,.1-2.94,.03-1.41,.07-2.82,.1-4.25,.09-4.19,.19-8.49,.28-12.96,.13-7.34-.21-25.06-.83-27.24-.36-1.27-.88,.6-1.25-.53-.84-2.6-2.69,8.29-2.96,18.2-.11,5.23-.23,10.45-.34,15.68l-.15,7.84-.02,.84v.14s0,.09,0,.14c0,.04,.02,.12-.05,.1l-1.85,.09c-10.89,.5-21.84,.75-32.69,1.16-4.32,.14-8.64,.39-12.94,.59-4.3,.18-8.58,.35-12.8,.39-9.01,.04-17.72,.39-27.36,.2-13.89-.27-28.66-.08-43.05-.28-15.87-.24-31.89-.61-47.9-1.16-16.02-.56-32.04-1.29-47.96-2.12-20.24-1.09-40.82-1.8-60.64-2.66-27.54-1.21-55.13-2.24-82.77-2.26-13.82-.06-27.64,.17-41.46,.69l-3.78,.15-.69,.03h-.17s-.07,.02-.07,0v-.09s.02-.34,.02-.34c.02-.23,0-.46,0-.69v-.17c0-.08-.01-.04,0-.32l.06-1.29,.23-5.16c.26-6.88,.69-13.76,1.06-20.64,.18-3.26,.36-6.51,.54-9.77,.01-.26,0-.53,.03-.78l.03-.38v-.19c.06-.02,.14,0,.2,0l1.92,.04c6.87,.1,13.73,.2,20.59,.3,18.63,.27,32.65,.17,50.87,1,.87,.03,1.85,.07,2.76,.1h0s.46,.02,.46,.02c8.63,.32,18.53,.41,27.19,.43,17.73,.28,35.48,.58,53.12,.98,20.28,.46,40.88,.28,60.7,.49,37.5,.44,74.99,.87,112.5,1.31,10.4,.24,20.81,.74,31.14,1.22,10.33,.4,20.57,.75,30.63,.82,5.36,.03,10.91-.19,15.31-.69,4.61-.75,6.07-.78,7.72-1.2,.49-.13,.9-.27,1.24-.43,.08-.04,.16-.08,.24-.12,.08-.16,.15-.1,.21-.17,.13-.07,.25-.15,.35-.23,.4-.32,.52-.7,.4-1.11-.33-1.11-2.45-2.46-5.77-3.88-3.31-1.56-7.81-2.48-12.88-2.49Z"/>
    </g>
    <g>
      <path class="cls-5" d="M648.81,633.94c2.42,.43,3.81,3.68,2.45,5.73-1.36,2.05-4.9,2.02-6.23-.05-1.33-2.07,.1-5.3,2.53-5.69"/>
      <path class="cls-4" d="M645.8,629.76c-.26,.12-.5-.14-.84-.12-.13,.02-.29,.06-.38,.22-.09,.15-.18,.3-.26,.38-.35,.31-.51,.82-.77,1.13-.76,.87-1.31,1.73-1.81,2.59-.14,.29-.33,.57-.46,.87-.01,.02-.03,.05-.04,.07v.03c-.2,.41-.34,.86-.39,1.31-.02,.27-.04,.91-.09,.97-.1,.1,.15,.7,.16,.79,0,.09,.3,.83,.42,1,.03,.23,0,.47-.03,.72-.02,.23,0,.58,.1,.91,.1,.33,.3,.64,.53,.77,0,0-.01,0-.01,0,.1,.15,.22,.3,.34,.44,0,.03,.01,.05,.02,.08,.04,.12,.16,.21,.29,.28,1.06,1.15,2.42,1.88,3.75,1.92,.47,0,.91-.06,1.33,.09,.77,.29,1.6,.19,2.41,.03,.4-.08,.52-.47,1.13-.41,.23-.04,.77-.05,.97-.2,.36-.31,.48-.54,.78-.91,.67-.8,1.22-1.73,1.5-2.69,.09-.25,.25-.47,.41-.7,.27-.38,.47-.75,.21-1.17-.26-.37-.47-.65-.35-1.03,.19-.63-.14-1.19-.34-1.73-.33-.88-.7-1.59-1.17-2.51-.13-.26-.13-.72-.43-.85-.39-.1-.6-.38-.87-.61-.13-.13-.26-.26-.4-.39-.14-.13-.32-.19-.5-.27-.15-.07-.52,.05-.87,.37-.35,.29-.66,.67-.81,1.08-.18,.47-.29,1.07-.46,1.56-.2,.6-.41,1.56-.6,2.29-.19,.75-.37,1.31-.37,1.31,.02,0,.13-.15,.18-.15,.06-.01,0,.13,.08,.07,.05-.04,.49-.37,.45-.26-.04,.09,.23,0,.04,.2-.33,.27,.02,.19,.01,.31-.03,.11-.02,.2-.07,.26,0,.03-.06,.04-.08,.05,0,0-.04,0-.06,0l.11,.03c.18,.06,.17,.09,.1,.02-.02-.02-.04-.04-.05-.06,0,0,0,0,0,0,0,0,0,.02-.02,.02-.02,.01-.07,.04-.14,.05-.13,.04-.3,.07-.48,.14-.09,.04-.17,0-.21-.04-.04-.02-.08,.01-.11,0,0,0,0-.03,.02-.06,.01-.02,.02-.04,.05-.07l.04-.05v.02s-.03,.01-.03,.01h0c-.07,.07-.05,.05-.09,.08,.03-.02,.08-.05,.31-.1l.18-.02c.06,0,.15,0,.08,0-.07,0-.17-.04-.17-.08,0-.07,0-.17,.04-.25,0-.05,.04-.07,.05-.12,.03-.02,.07-.04,.09-.03,.03,.02,.06,.05,.09,.08,.02,.02,.04,.04,.06,.06l-.03-.03s-.08-.12-.11-.16c-.03-.04-.06-.09-.08-.14-.02-.04-.03-.06-.05-.1,0-.02-.01-.03-.02-.06-.04-.23-.04-.2-.07-.35-.06-.37-.16-1.01-.28-1.77-.16-.98-.4-2.14-.76-3.17-.34-1.01-.83-1.9-1.15-1.94Z"/>
    </g>
    <g>
      <path class="cls-5" d="M342.57,766c15.83-35.15,31.67-70.29,47.5-105.44l278.05,4.1c2.29,34.31,11.21,68.12,26.05,98.77l-351.6,2.56"/>
      <path class="cls-4" d="M359.58,768.71c4.67-.1,6.87,.06,11.74,.04,4.03-.02,9.65-.24,13.42-.29,7.33-.14,14.58-.27,21.95-.41,20.71-.18,41.45-.36,62.17-.54l20.48-.12c.52,0,1.16,0,1.61,0,.2,0,.34,0,.53,0,9.4-.07,18.79-.13,28.18-.2,5.29-.06,18.33-.19,19.52-.17,1.96,.04,13.7-.21,15.71-.23,1.55-.03,16.72-.28,20.66-.35,4.54-.02,9.09,0,13.6,.03,8.23,.06,24.57,.07,33.09-.16h0c3.36-.02,6.72-.05,10.08-.08,.45,0,.81,0,1.38,.01,2.17,.01,4.68-.03,7.24-.09,14.23-.12,28.46-.24,42.7-.35l5.34-.05,4.21-.04,2.37-.02h1.18s.59-.02,.59-.02c.18-.01,.5,.07,.3-.19l-3.72-7.91c-.76-1.59-1.44-3.22-2.17-4.83-2.83-6.47-5.41-13.04-7.75-19.7-3.24-9.34-5.98-18.75-8.06-28.54-1.84-8.67-3.3-17.44-4.33-26.28-.27-2.21-.46-4.42-.69-6.63-.12-1.11-.18-2.22-.27-3.32l-.39-5.03-.06-.74-.74-.02-1.48-.02-2.73-.04-3.36-.05-6.72-.11c-8.45-.14-14.06,0-25.37-.37-4.94-.11-14.21-.42-19.05-.47-8.98-.07-13.49-.1-22.48-.16-19.97-.24-39.96-.47-59.95-.71-5.25-.07-10.53-.22-15.76-.37-8.56-.24-15.95-.47-24.13-.39-7.51,.07-14.02,.12-22.38-.1-13.45-.37-26.83-.41-40.39-.6-10.75-.16-20.9-.31-31.05-.46l-4.66-.08h-.83s-.21-.02-.21-.02c-.03,0-.07,0-.1,0l-.04,.09-.17,.38-.69,1.52-.96,2.11c-1.05,2.32-2.11,4.64-3.18,6.98-2.14,4.68-4.31,9.42-6.54,14.3-2.6,5.66-5.38,11.33-7.8,16.9-6.07,13.95-11.95,26.25-18.68,40.98-2.76,6.04-8.83,20.89-9.04,22.94-.12,1.19,1.01-.16,.94,.93-.15,2.5,5.33-5.88,9.03-14.05,3.86-8.64,7.71-17.28,11.57-25.92,4.05-9.01,8.22-18.01,12.21-27,3.18-7.16,6.07-14.46,9.28-21.41,1.71-3.71,3.33-7.38,5-11.11,.42-.93,.84-1.87,1.26-2.81l.29-.65s.03-.19,.13-.16h.23c1.9,.06,3.84,.12,5.82,.18,12.58,.47,25.96,.45,39,.67,28.76,.5,58.04,1.02,86.9,1.52,18.35,.37,36.99,.41,54.93,.65,24.93,.35,49.87,.71,74.8,1.06l9.35,.13,3.47,.05c.08,.02,.23-.03,.26,.04l.02,.3,.11,1.35c.22,3.14,.59,6.26,.91,9.38,.41,3.11,.77,6.24,1.27,9.34,.92,6.22,2.11,12.39,3.49,18.52,1.35,6.14,2.99,12.21,4.77,18.23,3.59,11.98,8,23.75,13.18,35.14,.26,.55,.51,1.09,.76,1.62l.2,.42,.1,.21s.04,.08,.04,.1h-.11c-1.01,.01-1.99,.03-2.95,.04-3.82,.04-7.5,.07-11.17,.1-7.34,.06-14.64,.07-22.89-.02-.79,0-1.68,0-2.5-.01h0s-.41,0-.41,0c-7.82-.05-16.77,.03-24.61,.14-16.05,.07-32.11,.14-48.08,.2-18.35,.03-36.99,.41-54.93,.56-33.94,.28-67.87,.55-101.81,.83-18.83,.03-37.71-.49-55.92-.39-4.85,.03-9.87,.2-13.84,.52-4.16,.35-5.48,.27-6.96,.51-1.76,.28-2.41,.78-2.18,1.35,.63,1.55,7.8,3.65,16.98,3.45Z"/>
    </g>
    <g>
      <path class="cls-5" d="M783,214.7c-15.03-20.5-24.19-45.36-32.15-69.5h0c-42.65-3.51-82.24-1.82-125.03-1.65-98.65,.4-195.36,.21-294.02,.61l-.29,.05c-18.5,18.46-36.64,34.04-53.64,53.89l505.14,16.6Z"/>
      <path class="cls-4" d="M761.54,210.12c-5.93-.1-8.72-.44-14.9-.66-5.12-.18-12.26-.17-17.05-.3-9.32-.25-18.53-.3-27.89-.57-26.31-.82-52.65-1.65-78.97-2.47-8.67-.3-17.34-.6-26.02-.9-.66-.02-1.47-.05-2.04-.08-.25,0-.43-.01-.68-.02-11.94-.39-23.87-.79-35.79-1.18-6.72-.2-23.29-.68-24.79-.78-2.49-.16-17.41-.42-19.95-.5-1.97-.04-21.24-.48-26.25-.59-5.76-.2-11.54-.47-17.27-.74-10.45-.5-31.2-1.37-42.03-1.49h0c-4.26-.14-8.54-.28-12.8-.41-.57-.03-1.03-.05-1.75-.09-2.76-.13-5.95-.2-9.19-.25-36.14-1.11-72.32-2.32-108.48-3.23-3.17-.08-6.32-.16-9.48-.24h-1.47s-.73-.02-.73-.02c-.12,0-.26,0-.36-.01l.22-.27,.93-1.08,.54-.6c.52-.59,1.05-1.17,1.59-1.74,2.13-2.32,4.32-4.6,6.55-6.87,7.91-8.03,16.19-15.8,24.45-23.65,4.13-3.93,8.26-7.88,12.35-11.89l2.41-2.38c.05-.08,.15-.05,.23-.06h.43s2.14,0,2.14,0h8.54c10.75-.01,17.87-.32,32.24-.1,6.27,.03,18.06,.22,24.22,.18,11.41-.12,17.14-.17,28.56-.29,25.38-.14,50.79-.28,76.19-.42,6.67-.03,13.39,.05,20.04,.12,10.88,.12,20.28,.24,30.67-.04,9.54-.26,17.81-.46,28.44-.34,17.1,.16,34.09,0,51.35-.12,27.34-.25,51.63-.83,78.78-.07,7.89,.22,15.85,.79,23.54,1.14,2.4,.11,4.77,.22,7.12,.39,1.15,.08,2.29,.16,3.42,.24,.09,0,.17,.02,.26,.02,.07,.03,.07,.14,.1,.21,.7,2.07,1.39,4.12,2.08,6.18,.76,2.2,1.52,4.41,2.29,6.62,3.12,8.84,6.49,17.79,10.89,27.24,1.78,3.89,5.23,10.34,8.8,15.85,3.54,5.53,7.22,10.04,8.23,10.86,1.17,.95,.33-1.12,1.41-.3,1.25,.93,.36-1.4-1.54-5.13-1.88-3.74-4.55-9.01-7.19-13.97-5.57-10.47-10.24-21.45-14.33-32.68-1.06-2.93-2.09-5.88-3.1-8.84l-3.37-10.18-.18-.51-.09-.26c-.04-.07-.03-.21-.14-.19l-1.08-.09-2.17-.17-2.57-.21c-1.57-.12-3.14-.27-4.72-.37-3.14-.19-6.28-.44-9.42-.56-9.98-.5-20-.36-29.75-.59-10.4-.26-20.45,.01-31.55-.12-16.01-.2-33,.39-49.55,.37-36.56-.01-73.77,.05-110.45-.09-23.33-.09-47.01,.24-69.81,.3-31.69,.06-63.38,.13-95.06,.19l-11.88,.02h-1.49s-1.21,0-1.21,0c-.43,.02-.85,.05-1.24,.16-.42,.07-.72,.39-1.06,.62-.35,.21-.64,.56-.95,.86l-1.17,1.16-4.22,4.14c-5.66,5.51-11.41,10.94-17.14,16.44-5.73,5.49-11.42,11.06-16.96,16.8l-4.12,4.34-2.03,2.2-1.01,1.1-1.11,1.24c-1.15,1.27-2.27,2.54-3.37,3.8l-3.33,3.82-1.66,1.91-.41,.48c-.05,.07-.18,.18-.16,.22h.32s1.26,.06,1.26,.06l5.05,.18c16.77,.55,33.58,1.1,50.35,1.65,21.41,.72,37.53,1.03,58.48,2.15,1,.05,2.13,.1,3.17,.15h0s.52,.02,.52,.02c9.92,.48,21.3,.83,31.26,1.09,20.38,.74,40.78,1.48,61.06,2.21,23.31,.9,46.99,1.36,69.78,2.08,43.1,1.38,86.21,2.76,129.32,4.14,23.91,.94,47.86,2.62,70.98,3.43,6.16,.22,12.55,.24,17.6,0,5.3-.3,6.98-.17,8.87-.43,2.25-.31,3.1-.93,2.83-1.69-.36-1.03-2.79-2.33-6.58-3.46-3.79-1.16-8.96-2-14.79-2.1Z"/>
    </g>
    <g>
      <path class="cls-5" d="M277.8,213.13c-.53,130.52-1.06,261.05-1.6,391.57,167.01,2.97,334.02,5.94,501.03,8.91,2.7-127.47,5.4-254.93,8.1-382.4,.11-5.33,.02-11.23-3.56-15.18-3.8-4.18-10.11-4.63-15.76-4.79-162.1-4.58-327.04-8.59-489.18-11.06,1.17,4.79-.14,7.66,1.04,12.45"/>
      <path class="cls-4" d="M300.44,207.89c9.96-.02,14.64,.54,25.03,.75,8.59,.17,20.59-.07,28.64,.03,15.65,.17,31.11,0,46.84,.24,22.1,.4,44.2,.81,66.31,1.21l66.32,1.41c14.56,.32,29.13,.65,43.7,.97,1.11,.03,2.47,.06,3.43,.09,.43,0,.73,.01,1.14,.02,20.05,.48,40.09,.94,60.12,1.31,11.29,.19,39.12,.63,41.64,.77,4.18,.21,29.24,.35,33.51,.45,3.3,.1,35.68,.38,44.09,.65,4.89,.21,9.71,.16,13.15,1.3,1.74,.55,2.95,1.36,3.79,2.36,.84,.99,1.38,2.39,1.7,4.2,.3,1.63,.38,3.74,.31,6.26-.08,2.65-.17,5.51-.26,8.5-.17,6.02-.35,12.59-.54,19.18-.33,13.18-.59,26.45-.58,35.55-.01,0-.01,0-.02-.01-.13,7.16-.27,14.34-.4,21.51-.04,.96-.07,1.73-.11,2.94-.16,4.63-.21,10-.23,15.44-1.18,60.71-2.47,121.49-3.35,182.22-.31,21.28-.56,42.29-1.22,63.82-.14,4.76-.28,9.53-.42,14.3l-.2,7.16-.05,1.79v.45s-.02,.22-.02,.22v.06s-.15,.02-.08,.03v.03s0,.11,0,.11l-.06,.89-.12,1.79-.03,.45v.11s-.01,.04-.01,.04v.06s-.06,.25-.06,.25c-.06,.33-.12,.69-.19,.94l-.1,.42-.02,.1s-.08-.01-.12-.02l-.25-.05-.94-.18-.42-.08c-.05,0-.03-.02-.14-.02h-.45s-.9-.03-.9-.03l-14.34-.31c-19.13-.39-38.28-.77-57.4-1.16-18.04-.37-30.01,0-54.13-.96-10.53-.28-30.32-1.08-40.66-1.22-19.17-.17-28.79-.26-47.97-.43-21.31-.22-42.63-.45-63.96-.67l-16-.19-8-.1-4-.05c-1.34,.1-2.67,.06-4,.09-5.33,.04-10.67,.19-16,.15l-16-.05c-11.21-.04-22.48-.25-33.65-.44-18.27-.26-34.05-.65-51.5-.49-8.01,.07-15.49,.12-23.2,.11-3.85-.03-7.76-.05-11.82-.08-2.03-.03-4.1-.06-6.22-.09-2.12,.06-4.29,.02-6.52,.03-3.59,0-7.18,0-10.76,0l-2.69-.05c-.28-.01-.48-.03-.73-.03h-.18c-.06,0-.13,0-.11-.07v-.35s.01-.35,.01-.35v-.73c.02-7.17,.03-14.33,.05-21.51,0-14.35,0-28.72,0-43.19,.07-45.87,.16-86.7,.39-132.45,.07-13.29,.31-26.75,.24-39.73-.09-16.23-.03-31.61,.03-47.26,.05-15.65,.1-31.56,.15-48.85,.03-14.18-.59-48.38-1.05-52.57-.29-2.43-.65,1.19-.95-.98-.33-2.5-.8,1.53-1.26,8.57-.45,7.04-.9,17.1-1.01,26.67-.15,20.2-.29,40.38-.44,60.58-.17,21.08-.34,42.24-.51,63.24-.08,16.71,.22,33.46,.04,49.8-.2,17.42-.07,34.27-.42,52.9-.52,26.85-.43,55.42-.64,83.24-.06,7.67-.12,15.36-.18,23.07-.03,3.85-.06,7.71-.09,11.57l-.04,5.79-.03,3.88c-.01,.86,0,1.7,0,2.54v1.26s.01,.32,.01,.32v.16c0,.06,0,.12,.07,.1l.63,.02,8.32,.18,5.8,.26c3.86,.19,7.73,.33,11.6,.57,7.74,.2,15.48,.39,23.23,.59,15.49,.41,30.99,.82,46.47,1.24,15.47,.48,30.92,1.06,46.31,1.62,9.79,.33,19.61,.66,29.45,1l14.74,.67,1.84,.08c.61,.13,1.23,.05,1.84,.08l3.69,.06,7.36,.11c19.63,.3,39.14,.6,58.28,.89,53.2,.93,106.41,1.85,159.62,2.78l39.91,.68,19.95,.33,9.98,.16,4.99,.08,2.49,.04h4.3c1.48,.02,2.92,0,4.34-.01l2.14-.02h1.07s.53-.02,.53-.02c.03-.01,.11,.02,.11-.03v-.14s0-.27,0-.27l-.04-8.72v-2.14s-.02-1.04-.02-1.04v-.62s-.07-2.5-.07-2.5v-.16s0-.08,0-.08c-.16-.03-.04-.05-.08-.08v-.31s.02-.62,.02-.62l.02-1.25,.05-2.49,.38-19.95,.73-39.9c.46-26.49,1.04-53.04,1.63-79.53,.79-35.97,.99-63.05,2.45-98.24,.06-1.69,.13-3.57,.19-5.33h.01s.02-.88,.02-.88c.6-16.67,.98-35.78,1.22-52.51,.41-17.12,.82-34.25,1.23-51.35l.32-12.82,.16-6.41c.06-2.17,.09-4.52-.13-7.01-.24-2.5-.71-5.22-2.02-7.96-1.24-2.74-3.49-5.31-6.08-6.94-1.29-.82-2.63-1.44-3.95-1.92-1.32-.46-2.62-.79-3.88-1.04-2.52-.47-4.9-.63-7.15-.72-39.17-1.11-78.96-2.24-117.25-3.33l-108.61-2.96-27.16-.68-27.16-.58-54.32-1.08c-40.18-1.1-80.43-3.54-119.3-4.24-10.35-.19-21.08,.01-29.56,.64-1.81,.14-3.47,.27-4.99,.39-1.74,.1-3.07,.3-4.35,.45-2.93,.27-3.46,.58-5.85,1.04,.34,.91,.83,1.83,1.21,2.69,.36,.78,.71,1.53,1.04,2.25,.61,1.34,1.13,2.45,1.45,3.34,.23,.49,.23,.86,.29,1.25,.06,.38,.11,.75,.16,1.12l.09,.54c.04,.09-.03,.18,.1,.27l.04,.2,.14,.66c.23,1.04,.52,1.98,.82,2.72,.08,.18,.16,.36,.23,.52l.03,.06v.03s.02,.01,.02,.01h0s0,0,0,0c-.03,0,.3-.04,.16-.02h0s.05,.12,.05,.12c.04,.07,.07,.15,.1,.22,.14,.28,.27,.52,.4,.71,.56,.77,1.05,.89,1.46,.52,.54-.47,.85-1.7,1.51-3.4,.16-.42,.35-.88,.54-1.37,.1-.25,.2-.5,.31-.76,.1-.22,.19-.39,.29-.58,.37-.73,.77-1.3,.99-1.76,.1-.09,.18-.18,.24-.27l.09-.11c.05-.01,0-.12,.19,0,.57,.31,1.06,.62,1.49,.94,.37,.27,.6,.49,.78,.73l.06,.09,.38,.07c.26,.05,.53,.09,.79,.14,.53,.09,1.08,.18,1.63,.27,4.4,.68,9.3,1.08,14.52,1.08Z"/>
    </g>
    <g>
      <path class="cls-7" d="M709.36,544.55c11.89-92.15,12.09-185.06,15.51-277.9-121.98,22.72-246.67-15.72-370.75-15.17-29.47,91.26,5.99,191.87-12.32,286,121.94,10.02,244.5,12.51,366.75,7.44l.81-.37Z"/>
      <path class="cls-4" d="M683.07,539.57c-7.17,.39-10.55,.1-18.03,.33-6.19,.17-14.82,.75-20.61,.95-5.64,.21-11.24,.41-16.84,.62-5.61,.21-11.22,.44-16.89,.5-31.85,.5-63.73,.42-95.59-.23-10.5-.18-20.99-.53-31.49-.86-.8-.03-1.78-.06-2.47-.08-.31,0-.52-.01-.82-.02l-21.66-.82c-7.22-.3-14.43-.6-21.64-.9-4.07-.13-11.1-.53-17.36-.79-6.25-.26-11.72-.52-12.63-.61-3-.27-21.06-.88-24.14-1.11-2.37-.14-25.69-1.26-31.74-1.78l-2.61-.21-1.3-.11-.36-.04-.68-.08c-.1-.02-.24-.01-.31-.05l.07-.34,.15-.67,.09-.39,.25-1.3,.49-2.6,.41-2.61c1.1-6.33,2.23-15.85,2.95-25.44,.72-9.6,.84-19.26,.78-25.88,0,0,0,0,.02,0-.03-5.21-.05-10.42-.19-15.63,0-.69,0-1.26,0-2.14-.05-3.36-.22-7.25-.44-11.19-.88-21.99-2.56-43.87-3.69-65.7-1.14-21.83-1.81-43.64-.51-65.31,.08-1.9,.23-3.79,.39-5.68,.16-1.89,.27-3.78,.47-5.66l.65-5.63,.33-2.81,.42-2.8c1-7.49,2.55-14.91,4.45-22.32,.91-3.26,1.83-6.51,2.81-9.75l.8-2.41,.36-1.09,.1-.33c.06-.22,.14-.44,.21-.65,0-.16,.17-.07,.27-.09h.35s8.72,.14,8.72,.14l10.28,.29c13.71,.5,27.44,1.37,41.13,2.52,12.92,1.12,21.54,1.4,38.77,3.64,7.54,.87,21.67,2.8,29.09,3.63,13.76,1.45,20.67,2.18,34.44,3.63,15.32,1.56,30.67,3.08,46.06,4.34,15.39,1.28,30.81,2.38,46.27,2.96,8.12,.31,16.3,.66,24.41,.81,6.63,.17,12.83,.13,18.94,.05,6.12-.21,12.16-.44,18.49-1.08,1.45-.13,2.88-.26,4.29-.39,1.41-.16,2.8-.31,4.19-.46,2.77-.3,5.52-.6,8.31-.9,5.56-.73,11.3-1.32,17.74-2.21,2.59-.33,5.19-.64,7.76-1.09l.97-.16c.32-.09,.64-.12,.96-.19l.96-.17,.27-.03c.32-.02,.65-.07,.98-.16l.25-.05s.01,.15,.03,.22v.48s-.06,1.55-.06,1.55l-.26,7.76c-.3,10.36-.59,20.73-.89,31.17-.98,33.1-1.79,62.55-3.47,95.49-.26,4.78-.59,9.59-.89,14.38-.33,4.78-.62,9.53-.78,14.21-.44,11.69-1.14,22.75-2.02,33.98-.95,11.23-1.91,22.64-2.96,35.04-.18,2.55-.42,5.99-.69,9.77-.29,3.78-.37,7.92-.52,11.84-.11,1.95-.14,3.86-.3,5.62,.06,1.79-.07,3.43-.08,4.89-.07,2.91-.1,5.03-.02,5.8,.18,1.79,.89-.75,1.08,.85,.19,1.84,1.06-.98,2.38-5.94,.64-2.49,1.45-5.5,2.15-8.77,.72-3.26,1.32-6.77,1.85-10.19,.43-3.63,.92-7.25,1.29-10.89l1.14-10.9c.41-3.63,.69-7.27,.97-10.91l.89-10.92c1.12-15.2,2.36-30.46,3.06-45.63,.57-12.07,.45-24.19,1.02-35.98,.61-12.57,.67-24.74,1.42-38.18,1.07-19.37,1.26-39.99,1.94-60.04,.19-5.53,.39-11.08,.58-16.63,.12-3.3,.25-6.6,.37-9.9,.06-1.24,.08-2.43,.09-3.62l.02-1.79v-.89c0-.14,.02-.31,0-.44l-.44,.06c-2.36,.35-4.7,.67-7.14,1.08l-5.18,.81c-1.36,.22-2.72,.48-4.09,.65l-8.22,1.13c-2.74,.41-5.5,.63-8.25,.95-2.75,.3-5.51,.62-8.27,.81l-8.29,.68-8.31,.47c-2.77,.18-5.54,.25-8.31,.34-2.77,.07-5.54,.22-8.31,.22-11.09,.22-22.17-.01-33.21-.41-14.04-.55-28.18-1.43-42.25-2.52-14.07-1.11-28.04-2.53-41.75-4.09l-57.19-6.73c-19.1-2.2-38.23-4.38-57.45-5.91-19.22-1.53-38.51-2.63-57.85-2.77l-8.48-.02h-3.12s-.78,0-.78,0h-.39c-.13,0-.29-.04-.29,.13l-.47,1.48c-.31,.99-.64,1.96-.92,2.97l-.84,2.92c-.66,2.36-1.33,4.71-1.85,7.1-.54,2.38-1.16,4.75-1.63,7.14-2,9.56-3.46,19.2-4.48,28.86-.53,4.81-.87,9.63-1.27,14.45-.28,4.82-.58,9.65-.7,14.47-.29,9.65-.32,19.29-.06,28.89,.7,26.09,2.61,45.58,3.56,70.94,.05,1.21,.11,2.57,.17,3.84h0s.03,.64,.03,.64c.51,12,1.09,25.72,1.24,37.71,.06,12.28-.3,24.54-1.33,36.71l-.4,4.56c-.15,1.52-.34,3.03-.51,4.54l-.53,4.54-.66,4.52-.67,4.51-.94,5.19-.73,4.11-.35,2.05-.18,1.03-.08,.51,.52,.04,8.31,.69c7.13,.6,14.28,1.2,21.44,1.8,7.09,.53,14.18,1.07,21.25,1.6,7.08,.47,14.14,.93,21.15,1.39,7.02,.4,13.99,.8,20.9,1.2,52.27,2.75,104.62,4.32,156.98,4.32,29.04,.27,58.2,1.3,86.3,.64,3.74-.09,7.55-.26,11.18-.52,3.63-.27,7.09-.64,10.14-1.07,6.39-.93,8.44-.81,10.7-1.4,1.17-.3,2.01-.69,2.5-1.13l1.34-.32c.49-.83,.43-1.53-.05-2.11-.29-.35-.73-.66-1.31-.91l-.11,.03c-3.08-3.16-13.17-6.37-25.49-5.64Z"/>
    </g>
    <g>
      <line class="cls-5" x1="276.82" y1="200.18" x2="779.16" y2="211.76"/>
      <path class="cls-4" d="M769.24,204.96c-2.77,.09-4.06-.35-6.94-.45-2.39-.08-5.72,.25-7.96,.25-4.35,0-8.65,.32-13.01,.28-12.27-.12-24.55-.38-36.83-.67-4.04-.09-8.09-.23-12.13-.36-.31-.01-.69-.04-.95-.04-.12,0-.2,0-.32,0-5.57-.18-11.13-.35-16.69-.4-3.13-.03-10.86-.12-11.56-.22-1.16-.16-8.12,.07-9.31,.05-.92-.02-9.91,.14-12.25,.18-2.69-.09-5.38-.28-8.05-.49-4.87-.39-14.54-.93-19.6-.65,0,0,0-.02,0-.02-1.99-.02-3.98-.07-5.97-.1-.27-.02-.48-.05-.82-.07-1.29-.1-2.77-.07-4.29,0-16.85-.3-33.73-.77-50.59-.72-5.91,.02-11.75,.11-17.72-.25-10.57-.63-21.21-.85-31.83-1.19-5.01-.16-8.34,.3-15.03-.35-2.92-.15-8.41-.69-11.28-.72-5.32-.05-8,.1-13.32,.08-11.83-.04-23.68-.23-35.52-.42-3.11-.05-6.24-.3-9.33-.55-5.06-.4-9.44-.79-14.29-.42-4.46,.34-8.32,.59-13.27,.2-7.96-.63-15.89-.48-23.93-.67-12.73-.31-24.06-.62-36.75-1.36-3.69-.22-7.41-.85-11.02-.75-9.02,.24-17.07-.77-26.66-1.29-3.93-.21-13.46,1-14.66,2.72-.7,1,.28,2.28-.35,3.31-1.44,2.35,4.32,6.64,9.63,6.74,5.61,.11,11.21-.06,16.82,.02,5.85,.08,11.72,.45,17.55,.42,4.64-.02,9.31-.87,13.84-.61,4.83,.28,9.52-.13,14.68,.46,7.44,.85,15.38,.44,23.1,.67,17.04,.51,34.38,.89,51.47,1.64,10.87,.48,21.92,.18,32.55,.36,29.54,.52,59.08,1.36,88.63,1.67,7.35,.08,14.72,.26,22.08,.44,9.99,.24,17.51,0,27.26,.96,.47,.05,.99,.07,1.48,.11,0,0,0,0,0,.01,.08,0,.16,0,.24,0,4.62,.36,9.93,.43,14.58,.42,9.51,.27,19.02,.57,28.47,.99,10.87,.48,21.92,.18,32.55,.36,20.1,.35,40.21,.79,60.31,1.16,11.15,.51,22.29,2.28,33.08,2.6,2.87,.09,5.85-.17,8.22-.79,2.48-.68,3.26-.46,4.15-.97,1.06-.6,1.47-1.73,1.37-3.06-.28-3.62-4.4-8.71-9.85-8.52Z"/>
    </g>
    <g>
      <path class="cls-5" d="M267.44,770.91c73.51-14.45,149.12-12.57,224-10.63,118.15,3.06,236.31,6.12,354.46,9.18l.36,.18c16.8,60.92,20.02,123.92,19.17,187.11l-.5-.4c-224-5.61-445.94-6.11-669.67,6.22h-.39c-.14-33.97,19.47-70.01,33.34-101.02,13.04-29.16,26.23-61.71,39.27-90.87"/>
      <path class="cls-4" d="M248.14,798.26c-3.41,8.41-5.46,12.17-9.18,20.85-3.07,7.18-6.96,17.36-9.82,24.07-2.77,6.52-5.48,13.05-8.27,19.48-2.79,6.45-5.69,12.91-8.66,19.46-4.17,9.19-8.27,18.52-11.88,28.13-3.61,9.61-6.76,19.51-8.83,29.8-.6,2.55-.89,5.19-1.33,7.78-.23,1.29-.31,2.63-.45,3.94l-.19,1.98-.13,1.4c-.07,.53-.07,1.11-.09,1.67l-.09,6.72-.05,3.36v.84c.03,.24-.16,.7,.25,.57h1.66s3.29-.04,3.29-.04c1.08,0,2.22-.03,3.35-.1l5.98-.31,30.2-1.57c13.24-.65,26.45-1.16,39.68-1.73,1.01-.04,2.24-.09,3.12-.12,.39-.02,.66-.03,1.03-.05,18.21-.67,36.41-1.35,54.59-2.02,10.25-.36,35.52-1.29,37.82-1.22,3.8,.04,26.55-.95,30.43-1.06,3-.1,32.4-1.05,40.04-1.29,8.79-.17,17.62-.13,26.37-.12,15.96-.03,47.64,0,64.17-.54,0,.01,0,.01-.01,.02,6.51-.04,13.03-.09,19.55-.14,.87,.01,1.57,.02,2.68,.04,4.21,.05,9.08-.04,14.03-.16,55.17-.24,110.42,.2,165.61,.54,19.34,.14,38.44,.22,58,.79,17.31,.46,34.68,.93,52.07,1.39l13.04,.33,1.63,.04,.82,.02h.2c.08,0,.11,.04,.24-.04l.66-.34,.66-.34c.22-.08,.43-.35,.69-.05l.19,.13,.19,.05,.38,.1,.75,.2,1.51,.4,1.65,.28,3.31,.56c.48,.07,1.34,.26,1.17,.13,.02-.05,.06-.02,.07-.13v-.72s.06-5.76,.06-5.76l.09-8.94c.03-2.18,.01-4.37,.02-6.55,.02-4.37,0-8.73-.05-13.1-.02-4.12-.12-7.89-.25-11.58-.11-3.69-.24-7.28-.43-11.06-.17-3.77-.34-7.72-.54-12.1-.09-2.19-.19-4.49-.3-6.93-.12-2.44-.25-5.02-.38-7.78-.12-2.41-.31-5.34-.53-8.54-.23-3.2-.41-6.66-.74-10.11-.31-3.45-.57-6.9-.9-10.07-.36-3.17-.69-6.06-.96-8.41-1.15-8.71-2.17-15.24-3.33-21.75-.53-3.26-1.18-6.5-1.86-10.02-.34-1.76-.69-3.58-1.07-5.51-.41-1.92-.85-3.94-1.31-6.09-.98-4.79-2.15-9.54-3.3-14.3-.55-2.39-1.19-4.75-1.83-7.11l-1.08-4.05-.41-1.54c-.15-.49-.22-1.09-.5-1.43l-1.4-2.39c-.14-.18-.38-.29-.57-.43l-.58-.26c-.38-.2-.92-.24-1.38-.36-.49-.08-.93-.24-1.46-.26l-1.6-.04-4.45-.09-7.27-.15-14.54-.3c-19.39-.42-38.78-.84-58.16-1.26-10.19-.22-20.43-.62-30.58-1-16.6-.63-30.94-1.19-46.81-1.17-14.57,.02-27.21-.01-43.42-.62-26.09-.97-52.06-1.33-78.36-1.95-20.85-.51-40.55-.99-60.24-1.47-19.69-.5-39.37-1.08-60.2-1.47-12.1-.26-24.37-.55-36.21-.27-14.8,.33-28.83,.78-43.1,1.44-14.27,.64-28.78,1.68-44.49,3.41-3.22,.38-7.57,.92-12.32,1.73-2.38,.39-4.86,.8-7.36,1.21-2.5,.41-5,.95-7.43,1.41-2.43,.49-4.79,.96-6.99,1.41-2.2,.46-4.22,.98-6.01,1.4-3.57,.87-6.15,1.56-7.05,1.94-2.09,.87,1.27,.83-.59,1.66-2.13,.94,1.62,1.01,8.02,.54,3.19-.27,7.06-.6,11.21-.96,4.15-.38,8.55-.92,12.85-1.39,18.13-2.18,36.31-3.92,54.58-4.83,19.06-.97,38.24-1.09,57.29-1.11,15.15,0,30.36-.41,45.2,.04,15.81,.48,31.13,.56,48.06,1.38,24.39,1.2,50.36,1.5,75.65,2.26,55.79,1.67,112.58,3.24,168.56,5.13,17.8,.6,35.74,1.04,53.58,1.45,8.92,.2,17.82,.4,26.66,.59,4.06,.09,8.1,.18,12.13,.27,.25,.02,.52-.04,.75,.05l.2,.74c.48,1.84,.97,3.67,1.45,5.5,2.89,11.62,5.4,23.33,7.45,35.15,2.01,11.82,3.66,23.7,4.97,35.64,1.25,11.94,2.19,23.92,2.87,35.92,.65,12.01,1.01,24.04,1.19,36.07l.09,9.03v9.04s0,4.52,0,4.52l-.04,4.27v1.15s0,.29,0,.29v.14s0,.06,0,.06l-.06-.04c-.15-.11-.37-.04-.56-.07l-33.32-.77c-24.2-.51-48.39-.98-72.59-1.3-12.05-.17-24.11-.34-36.17-.51-12.06-.15-24.13-.31-36.18-.46-16.36-.18-30.7-.23-44.95-.28-7.13-.04-14.23-.1-21.55-.21-7.32-.09-14.87-.2-22.88-.4-1.53-.03-3.25-.05-4.85-.08h0s-.8-.01-.8-.01c-15.17-.31-32.56-.16-47.78,0-15.58,.08-31.17,.15-46.73,.23-15.57,.13-31.11,.26-46.62,.39-35.64,.43-71.82,1.76-106.63,2.99-32.93,1.06-65.85,2.46-98.77,3.99l-24.61,1.26-12.3,.64-2.48,.13-.4,.02c-.13,0-.32,.06-.26-.13l.02-.8c0-.27,0-.53,.03-.8l.21-2.12,.28-2.92,.46-2.92,.45-2.92c.17-.97,.4-1.94,.59-2.91,.41-1.94,.78-3.88,1.32-5.8,1.93-7.72,4.48-15.35,7.37-22.9,6.59-16.72,15.12-32.79,23.01-49.33,7.82-16.47,15.22-32.91,22.18-49.14,3.7-8.64,7.22-17.72,9.64-25.04,2.5-7.7,3.71-9.96,4.37-12.8,.79-3.37,.25-5-1.16-5.14-3.78-.41-14.22,10.23-20.91,26.8Z"/>
    </g>
    <g>
      <path class="cls-5" d="M205.2,930.92c220.05,0,440.1,0,660.15,0"/>
      <g>
        <path class="cls-4" d="M699.59,922.11c-1.33,.17-1.96-.31-3.36-.35-1.15-.03-2.76,.43-3.84,.48-2.1,.11-4.17,.58-6.28,.65-2.96,.09-5.93,.15-8.89,.18l-11.05,.03c-3.48,0-6.96-.05-10.44-.1-.26,0-.59-.01-.82-.02-.1,0-.17,0-.27,0-4.79-.06-9.58-.1-14.36-.02-2.7,.05-9.34,.15-9.95,.06-1-.16-6.98,.3-8,.31-.39,0-3.14,.4-5.39,.52-.09,4.23,.45,8.16,.33,12.39,7.1-.07,14.22-.45,21.13-.5l25.94-.14,17.52-.13c5.39,.3,10.78,2.02,15.99,2.09,1.39,.02,2.82-.36,3.96-1.15,1.19-.85,1.57-.62,1.99-1.23,.5-.72,.69-2.02,.62-3.55-.18-4.14-2.22-9.88-4.85-9.54Z"/>
        <g>
          <path class="cls-4" d="M580.68,923.27c-.09,0-5.1,.02-7.48,.04-.32-.02-.58-.04-.98-.06-1.55-.08-3.34,0-5.16,.1-20.3,.11-40.63,0-60.93,.53-7.11,.22-14.14,.51-21.34,.3-12.74-.37-25.56-.27-38.35-.3-6.03-.01-10.03,.59-18.1,.1-3.52-.07-10.14-.48-13.6-.41-6.41,.12-9.63,.36-16.04,.51-14.25,.39-28.52,.65-42.78,.88-3.75,.05-7.52-.07-11.25-.15-6.11-.16-11.38-.3-17.22,.26-5.36,.51-10,.88-15.97,.75-9.6-.19-19.15,.24-28.82,.4-7.67,.11-14.92,.21-22.16,.31-3.62,.03-7.24,.06-10.91,.09-1.83,.02-3.68,.03-5.55,.05-1.05,0-2.11-.02-3.18-.02-2.49-.03-5.02-.31-7.45-.14-6.09,.47-11.55,.3-18.03,.48-2.66,.1-9.08,1.1-9.86,1.87-.46,.46,.22,1-.18,1.46-.47,.53,.29,1.23,1.61,1.85,1.32,.62,3.21,1.17,5,1.23,3.79,.12,7.57,.1,11.37,.19,3.95,.08,7.92,.4,11.87,.34,1.57-.01,3.14-.16,4.7-.29,.78-.06,1.56-.12,2.33-.16,.39-.02,.77-.03,1.16-.03h.58s.95,.03,.95,.03c5.82,.2,11.46-.11,17.69,.29,8.98,.6,18.53,.28,27.83,.42,20.53,.32,41.42,.59,62.01,1.19,13.09,.34,26.39-.11,39.2-.09,35.58,0,71.17,.28,106.75-.01,8.86-.06,17.74-.05,26.6-.04,12.03,0,21.08-.46,32.85,.39,.56,.03,1.2,.06,1.78,.09h0s.29,.01,.29,.01c3.49,.18,7.26,.21,11,.18,7.41-.27,14.12-.3,21.53-.07,1.2-3.92,2.62-8.7,2.45-12.7-1.92-.07-3.69-.07-5.83,.03-2.66,.16-5.53,.2-8.36,.11Z"/>
          <path class="cls-4" d="M684.83,923.72c-1.28,.03-2.66,.01-4.44-.21-1.98-.1-5.69-.58-7.63-.53-2.68,.08-4.7,.15-6.71,.21-2.41,.09-4.81,.18-8.02,.24-14.25,.28-28.52,.37-42.78,.46-3.75,.02-7.52-.19-11.25-.39-6.11-.33-11.38-.66-17.22-.1-5.36,.51-10,.91-15.97,.59-9.6-.51-19.15-.13-28.82-.14-8.26-.01-16.05-.04-23.85-.14-6.49,.33-13.01,.55-19.65,.62,1.94,3.15,2.78,6.57,3.76,9.84,5.21,.14,10.42,.51,15.62,1.06,.18,.02,.28,.07,.45,.09,1.18,.03,2.36,.07,3.59,.18,8.98,.78,18.53,.1,27.83,.16,20.53,.14,41.42,.11,62.01,.53,13.09,.27,26.39-.38,39.2-.45l33.3-.1c-1.03-4.11-.65-8.01,.58-11.92Z"/>
        </g>
        <path class="cls-4" d="M784.32,926.66c1.23,1.68,1.67,4.05,.72,6.13-1.31,2.88-4.68,5.76-7.27,6-3.97,.37-8.08-2.22-12.18-2.44-5.66-.29-11.38,.56-17.08,.78-3.68,.14-7.41-.39-11.05,.07-3.29,.42-6.6,.06-9.9-.1-1.48-.07-3.02-.28-4.49-.03-1.44,.24-2.87,.88-4.33,.49-3.92-1.02-4.57-10.05-2.16-12.92,1.84-2.2,6.07-1.19,8.46-1.04,3.42,.22,6.82,.67,10.25,.66,8.23-.03,16.46,.98,24.7,1.16,3.49,.08,6.94-.55,10.42-.79,3.3-.23,6.59-.19,9.89-.2,1.63,0,3.07,.89,4.03,2.2Z"/>
        <path class="cls-4" d="M836.42,930.04c.24,.82,.14,3.04-.07,3.85-.27,1.05-.83,1.93-1.7,2.65-2.47,2.05-5.46,2.56-8.42,1.66-3.22-.98-7.65-.56-11.03-.47-3.99,.13-8,.54-11.89-.7-1.72-.55-3.36-1.55-4.38-3.1-1.65-2.51-2.06-5.59,.9-7.23,3.1-1.71,7.93-1.63,11.3-1.08,2.56,.42,5.23,.06,7.94-.46,2.71-.49,5.44-1.12,8.15-1.34,1.68-.14,3.84,.26,5.13,1.22,1.69,1.27,3.37,2.61,4.07,5.01Z"/>
        <path class="cls-4" d="M865.35,931.6c-.16,.11-.25,.37-.44,.72-.05,.09-.1,.18-.16,.27l-.05,.07c-.02,.09-.03,.07-.05,.11-.04,.05-.08,.1-.12,.16-.17,.22-.38,.46-.67,.72-.95,.84-1.99,1.57-3.08,2.13-.54,.28-1.1,.52-1.66,.71-.28,.11-.56,.16-.84,.19-.28,.13-.56,.12-.84,.16-2.25,.22-4.46-.45-6.23-2.25-1.91-1.94-1.88-7.29,1.18-8.36,1.38-.5,3.95-.82,5.18-.75,4.3,.31,7.81,1.93,7.78,6.12Z"/>
      </g>
    </g>
  </g>
  <g id="Camada_3" data-name="Camada 3">
    <g class="cls-2">
      <path class="cls-1" d="M-16,1059.97c178.29,4.18,395.23,7.63,573.53,9.39l267.44,2.67,241.85,1.53,.04-6.1,.08-9.35,.08-16.72,.13-33.43,.18-66.86,.06-133.72c-.07-89.15-.36-178.3-.73-267.44l-.52-133.72-.1-133.72-.05-66.86,.23-66.86,.53-122.77,.04-2.61-8.17-.11-11.13-.11-32.79-.22-65.57-.45-131.15-.89c-44.58-.26-89.14-.52-133.72-.78-44.58-.13-89.14-.29-133.72-.22-89.15-.16-178.3,.39-267.44,1.27l-133.72,1.51-66.86,.85-33.43,.43-16.72,.22-4.18,.05-1.78,.03-.93,.03-3.68,.11-6.72,.18,.07,6.49,.04,3.18,.02,1.57v3.23s-.1,29.52-.1,29.52l-.2,59.05-.67,133.73-1.35,267.45-1.84,567.9-53.56-33.77c5.17-89.08,9.13-178.18,12.92-267.28l2.71-66.83c.91-22.27,1.83-44.55,2.59-66.83l4.79-133.67,4.15-133.67c.67-22.28,1.35-44.56,2.02-66.84l1.74-66.84,3.48-133.68c.46-19.68,.87-39.36,1.21-59.04l.46-29.52,.45-35.53,19.12-.08,35.95-.28,33.43-.48c22.28-.3,44.58-.63,66.86-1.13l133.72-2.8c44.58-.96,89.14-1.55,133.72-2.06,44.58-.48,89.14-.45,133.72-.43,44.58-.07,89.14,.17,133.72,.36,44.58,.23,89.14,.73,133.72,1.08l131.15,1.15,65.57,.57,75.21,.5-.04,7.01-.29,74.63-.12,66.86c-.02,44.57,.08,89.15,.29,133.72,.43,89.15,1.35,178.3,2.78,267.44l1.71,133.72c.57,44.57,1.18,89.15,1.42,133.72,.43,44.57,.43,89.15,.56,133.72,.05,22.29,.03,44.57-.04,66.86l-.39,75.39-.11,19.03-47.31-.34-31.91-.4-63.82-.95-127.64-2.26-66.86-1.12c-22.29-.4-44.57-.56-66.86-.86-44.57-.64-89.15-.74-133.72-.81-89.15,.14-178.29,.93-267.44,3.72-44.57,1.35-89.15,3.1-133.72,5.43-44.57,2.36-89.15,5.13-133.72,9.21l-38.64-54.05Z"/>
    </g>
  </g>
</svg>