<?xml version="1.0" encoding="UTF-8"?>
<svg xmlns="http://www.w3.org/2000/svg" xmlns:xlink="http://www.w3.org/1999/xlink" viewBox="0 0 1080 1080">
  <defs>
    <style>
      .cls-1 {
        fill: #fff;
      }

      .cls-2 {
        fill: #383806;
      }

      .cls-3 {
        clip-path: url(#clippath-2);
      }

      .cls-4 {
        fill: #2a9307;
      }

      .cls-5 {
        fill: #389a18;
      }

      .cls-6 {
        clip-path: url(#clippath-1);
      }

      .cls-7 {
        clip-path: url(#clippath);
      }

      .cls-8 {
        fill: none;
      }

      .cls-9 {
        clip-path: url(#clippath-3);
      }

      .cls-10 {
        fill: #f3f1e5;
      }
    </style>
    <clipPath id="clippath">
      <rect class="cls-8" y="-1" width="1080" height="1080"/>
    </clipPath>
    <clipPath id="clippath-1">
      <rect class="cls-8" x="1100" y="-1" width="1080" height="1080"/>
    </clipPath>
    <clipPath id="clippath-2">
      <rect class="cls-8" y="-1100" width="1080" height="1080"/>
    </clipPath>
    <clipPath id="clippath-3">
      <rect class="cls-8" x="1100" y="-1100" width="1080" height="1080"/>
    </clipPath>
  </defs>
  <g id="Camada_1" data-name="Camada 1">
    <rect class="cls-4" x="-.25" y="-1.08" width="1080.5" height="1080.5"/>
  </g>
  <g id="Camada_2" data-name="Camada 2">
    <g>
      <path class="cls-10" d="M370.66,256.92s65.24,110.91,60.99,219.53c0,0,32.73-49.97,11.14-147.62,0,0,42.12,35.32,51.23,80.22,0,0,21.22-99.32-47.23-155.05,0,0,95.21-7,134.21,29.98,0,0-21.76-73.88-126.76-90.9,0,0,55.32-34.73,108.37-35.34,0,0-76.57-50.25-190.37,49.39,0,0-21.94-50.9-92.91-68.82,0,0,52.14,54.85,51.92,76.25,0,0-75.47-38.4-179.58,7.92,0,0,128.22-3.39,177.42,30.15,0,0-100.95,16.14-122.66,123.64,0,0,72.37-68.77,164.23-119.36"/>
      <g>
        <path class="cls-2" d="M399.31,987.85c-101.12-225-107.98-490.63-18.62-720.55,0,0-2.02-9.14-5.73-13.78-7.1-2.36-19.17,1.81-19.17,1.81-43.18,68.04-57.53,150.02-68.16,229.9-22.37,168.06-31.89,341.79,15.05,504.7l96.64-2.08Z"/>
        <path class="cls-5" d="M396.05,980.24c1.47,3.85,4.38,11.35,1.8,5.88-1.36-2.88-4.03-8.7-7.32-16.12-.41-.93-.83-1.88-1.26-2.86-.41-.99-.82-1.99-1.24-3.02-.84-2.06-1.71-4.19-2.61-6.38-1.77-4.39-3.7-8.97-5.52-13.66-7.22-18.78-14.08-38.64-16.98-48.12-1.14-3.68-2.18-7.04-3.18-10.26-1-3.22-1.96-6.29-2.81-9.43-1.74-6.26-3.6-12.62-5.75-20.51-5.89-21.86-12.24-48.61-17.68-78.04-5.45-29.43-9.9-61.56-12.64-93.94-2.77-32.38-3.84-65.01-3.38-95.36,.43-30.35,2.39-58.39,4.78-81.72,.55-5.02,1.15-10.58,1.8-16.59,.79-6,1.64-12.46,2.55-19.31,.41-3.43,1.04-6.94,1.58-10.54,.57-3.6,1.14-7.3,1.74-11.08,.55-3.78,1.29-7.62,2-11.54,.71-3.92,1.44-7.91,2.18-11.96,6.08-32.42,15.05-68.62,26.27-104.13,1.42-4.43,2.74-8.9,4.25-13.29,1.51-4.39,3.02-8.78,4.52-13.15,.75-2.19,1.5-4.37,2.25-6.54,.8-2.16,1.61-4.31,2.41-6.45,1.6-4.29,3.19-8.56,4.77-12.79l.59-1.59,.18-.48s0-.07-.01-.11l-.06-.25c-.27-1.06-.57-2.12-.9-3.17-.66-2.08-1.42-4.13-2.37-6.04-.46-.96-.99-1.86-1.57-2.7l-.24-.32s-.07-.02-.1-.04l-.2-.05c-.47-.15-.97-.22-1.47-.29-2.01-.28-4.13-.2-6.21,.03-2.09,.24-4.17,.64-6.2,1.15-1.02,.25-2.03,.54-3.02,.84l-.33,.1c-.06,.06-.06,.08-.16,.25l-.82,1.36c-2.17,3.62-4.32,7.19-6.43,10.7-8.04,14.3-14.49,28.24-19.79,40.93-1.24,3.21-2.45,6.32-3.62,9.33-.58,1.51-1.15,2.99-1.72,4.45-.51,1.47-1.02,2.92-1.51,4.34-.99,2.84-1.94,5.57-2.85,8.19-.92,2.61-1.64,5.16-2.41,7.55-.74,2.37-1.52,4.85-2.33,7.44-.77,2.6-1.51,5.33-2.31,8.14-.77,2.82-1.65,5.72-2.41,8.76-.76,3.03-1.55,6.15-2.35,9.36-.84,3.2-1.56,6.51-2.33,9.9-.75,3.39-1.59,6.84-2.3,10.39-.72,3.55-1.46,7.16-2.21,10.83-.76,3.67-1.39,7.43-2.11,11.23-5.63,30.4-10.01,64.44-14.15,97.54-3.98,33.12-7.16,65.37-9.31,92.43-.55,6.76-.91,13.21-1.33,19.25-.39,6.05-.81,11.69-1.09,16.88-.48,10.38-.87,18.91-1.15,25.05-1.28,35.61-1.48,71.57-.11,107.57l.64,13.5,.32,6.75c.11,2.25,.19,4.5,.39,6.75l2.08,26.96c.14,2.25,.43,4.48,.67,6.72l.74,6.72,1.47,13.43,.74,6.71,.97,6.68c.65,4.45,1.29,8.9,1.94,13.35,1.4,10.84,3.56,21.56,5.51,32.33l1.48,8.07c.23,1.35,.51,2.69,.82,4.02l.89,4,3.58,16.01,1.79,8c.65,2.65,1.39,5.28,2.08,7.92,1.4,5.28,2.8,10.55,4.2,15.82l1.05,3.95,.51,1.93,.08,.32,.04,.15c0,.06,.09,.02,.13,.03l7.25-.15c5.45-.11,10.9-.22,16.35-.33,23.3-.45,45.97-.45,60.8-.12,9.93,.2,12.51,.32,10.12,.59-1.19,.15-3.63,.31-7.02,.54-3.38,.21-7.71,.55-12.7,.79-15.2,.81-32.25,1.43-51.07,1.9-4.71,.11-9.52,.22-14.45,.33-2.46,.05-4.95,.1-7.47,.15-.82,.02-1.63,.03-2.45,.05l-1.89,.03h-.24s-.12,0-.12,0c-.04,0-.08,0-.08-.05l-.12-.46-.24-.92c-.4-1.53-.8-3.07-1.21-4.62-1.29-4.99-2.61-10.09-3.96-15.3-.67-2.6-1.34-5.23-2.02-7.89-.32-1.33-.71-2.65-.99-4.01-.29-1.35-.58-2.71-.87-4.08-.8-3.74-1.75-8.15-2.81-13.08-.54-2.46-1.1-5.05-1.69-7.76-.59-2.7-1.24-5.5-1.72-8.43-1.05-5.83-2.17-12.03-3.32-18.41-.58-3.19-1.17-6.43-1.76-9.7-.48-3.29-.96-6.6-1.44-9.92-.96-6.64-1.93-13.32-2.88-19.86-.83-6.55-1.47-13-2.17-19.13-.34-3.07-.67-6.06-.99-8.96-.16-1.45-.32-2.87-.47-4.27-.15-1.4-.23-2.78-.34-4.12-.42-5.39-.81-10.32-1.14-14.61-.21-2.76-.43-5.49-.64-8.18-.2-2.69-.45-5.35-.54-7.98-.25-5.26-.5-10.4-.74-15.43-.23-5.03-.51-9.95-.67-14.78-.1-4.83-.19-9.58-.29-14.24-.09-4.67-.18-9.27-.27-13.81-.07-2.27-.04-4.53-.03-6.78,.01-2.25,.03-4.48,.04-6.71,.03-4.45,.05-8.87,.08-13.27,.01-2.2,.03-4.39,.04-6.59,.01-2.19,.11-4.38,.16-6.57,.25-8.75,.51-17.51,.77-26.41,.45-8.89,.9-17.93,1.37-27.26,1.12-18.64,2.52-38.44,4.56-60.51,.28-3.04,.52-6.27,.87-9.65,.34-3.38,.71-6.92,1.08-10.6,.77-7.35,1.49-15.26,2.44-23.52,.94-8.26,1.93-16.88,2.94-25.68,1.1-8.79,2.23-17.77,3.35-26.74,2.28-17.95,4.8-35.87,7.41-52.31,2.64-16.43,5.48-31.35,8-43.35,.76-3.57,1.8-8.02,2.98-13.28,.57-2.64,1.31-5.44,2.06-8.45,.76-3,1.57-6.19,2.43-9.56,3.65-13.41,8.47-29.56,15.26-47.34,6.79-17.76,15.64-37.15,27.37-56.57,.73-1.21,1.47-2.43,2.2-3.66l1.11-1.84,.34-.56,.23-.38,.12-.2c.04-.07,.08-.13,.16-.14l.88-.29,.58-.18c2.81-.84,5.69-1.5,8.65-1.9,1.48-.19,2.99-.33,4.53-.32,1.53-.02,3.1,.13,4.67,.51l.71,.19,.45,.12c.07,.03,.16,.02,.22,.08l.14,.19,.53,.72c.11,.16,.25,.32,.35,.49,.44,.66,.83,1.34,1.2,2.02,.72,1.38,1.32,2.79,1.86,4.22,.54,1.43,1.01,2.89,1.43,4.36l.3,1.11,.31,1.25,.11,.47c.03,.08,.02,.16-.02,.23l-.08,.23-.28,.76-.4,1.06c-1.06,2.82-2.12,5.65-3.18,8.49-2.12,5.69-4.34,11.41-6.29,17.26-12.39,35.2-23.68,75.05-30.83,109.07-7.33,33.98-11.39,61.9-12.78,72.81-3.92,28.56-6.79,59.23-8.05,92.21-1.25,32.98-.89,68.27,1.8,105.96,2.09,28.4,5.81,59.54,10.8,88.76,4.93,29.23,11.14,56.51,16.52,77.54,1.3,4.98,2.6,9.96,3.9,14.93,1.41,4.94,2.82,9.88,4.23,14.81l2.12,7.4c.73,2.46,1.52,4.89,2.28,7.34,1.53,4.89,3.06,9.77,4.59,14.65,1.64,4.84,3.29,9.68,4.93,14.52l2.47,7.25c.84,2.41,1.76,4.79,2.63,7.19,1.77,4.78,3.53,9.57,5.3,14.34,1.84,4.75,3.76,9.47,5.64,14.2,.99,2.5,1.91,4.83,2.76,7,.84,2.17,1.71,4.14,2.44,5.97,1.5,3.65,2.68,6.66,3.59,9.02Z"/>
      </g>
    </g>
    <g>
      <path class="cls-10" d="M698.06,357.35s56.3,95.71,52.63,189.45c0,0,28.25-43.13,9.61-127.39,0,0,36.35,30.48,44.21,69.23,0,0,18.31-85.71-40.76-133.81,0,0,82.17-6.04,115.82,25.88,0,0-18.78-63.75-109.39-78.44,0,0,47.74-29.97,93.52-30.5,0,0-66.08-43.36-164.28,42.63,0,0-18.93-43.93-80.18-59.39,0,0,45,47.34,44.8,65.8,0,0-65.13-33.14-154.98,6.84,0,0,110.65-2.93,153.12,26.02,0,0-87.12,13.93-105.86,106.7,0,0,62.45-59.35,141.72-103"/>
      <g>
        <path class="cls-2" d="M722.79,988.14c-87.26-194.17-93.19-423.41-16.07-621.83,0,0-1.74-7.89-4.94-11.89-6.13-2.03-16.55,1.56-16.55,1.56-37.27,58.72-49.65,129.46-58.83,198.4-19.3,145.03-27.52,294.96,12.98,435.55l83.4-1.8Z"/>
        <path class="cls-5" d="M694.71,986.33c-7.7,.22-11.32,.15-19.36,.32-6.64,.14-15.91,.49-22.13,.64-3.02,.08-6.04,.16-9.05,.24l-2.26,.06-.56,.02c-.09,0-.05,0-.09,.01-.03,0-.07,.01-.11,.02-.07,0-.06-.11-.1-.21l-.59-2.16c-1.57-5.79-3.15-11.59-4.74-17.43-8.36-33.02-14.16-66.71-17.85-100.61-1.4-11.15-2.1-22.37-3-33.57-.07-.85-.15-1.9-.2-2.64-.03-.33-.05-.56-.07-.88-.47-7.72-.77-15.45-1.17-23.17l-.28-5.79-.13-5.8-.26-11.59c-.05-2.18-.12-5.15-.2-8.42-.07-3.27,0-6.83-.02-10.18,.03-6.7,.05-12.56,.05-13.53,0-.81,.01-2.62,.02-4.94,.05-2.32,.11-5.14,.17-7.96,.12-5.65,.25-11.31,.28-12.96-.11-2.55,1.08-27.52,1.34-34.01,.54-7.46,1.08-14.93,1.62-22.35,.13-1.69,.27-3.59,.42-5.64,.19-2.05,.39-4.26,.6-6.58,.41-4.63,.86-9.69,1.31-14.76,.41-5.07,.94-10.15,1.41-14.84,.45-4.69,.86-8.99,1.2-12.48h0c.52-5.5,1.18-11,1.8-16.51,.09-.73,.16-1.33,.28-2.26,.43-3.56,.88-7.67,1.33-11.85,.67-5.82,1.45-11.64,2.18-17.45,.75-5.82,1.44-11.64,2.25-17.45,1.54-11.63,3.25-23.23,5.08-34.81,3.79-23.13,8.21-46.17,14.47-68.72,4.34-15.8,9.42-31.21,15.9-46.46,1.49-3.35,2.88-6.75,4.45-10.06,1.6-3.3,3.21-6.6,4.81-9.91,1.71-3.25,3.48-6.47,5.22-9.71,.44-.8,.86-1.63,1.33-2.42l1.42-2.36,2.84-4.72,1.42-2.36,.48-.79c.1-.07,.09-.04,.65-.22,1.72-.51,3.47-.92,5.23-1.23,1.75-.31,3.52-.5,5.24-.49,.43-.01,.86,.02,1.28,.05,.43,.01,.83,.08,1.24,.15,.2,.03,.41,.05,.6,.11l.33,.09c.06,0,.1,.04,.12,.09l.22,.31c1.82,2.82,3.01,6.33,3.91,9.77l.07,.28c0,.05-.03,.1-.04,.14l-.48,1.28-.97,2.6-1.95,5.2c-1.22,3.28-2.33,6.28-3.41,9.21-1.01,2.96-1.99,5.85-3.02,8.88-1.04,3.03-2.12,6.19-3.33,9.71-1.14,3.54-2.38,7.42-3.81,11.87-.62,1.94-1.38,4.31-2.21,6.89-.77,2.6-1.6,5.41-2.43,8.22-1.62,5.62-3.35,11.2-4.3,15.09-1.84,7.19-3.31,12.57-4.58,18-1.25,5.43-2.49,10.87-4.15,18.11-6.93,32.27-12.01,64.97-15.16,97.84-.36,4.32-.73,8.66-1.09,12.99-.19,2.17-.37,4.33-.56,6.49-.14,2.17-.28,4.33-.41,6.48-.42,7.06-.93,13.63-1.09,20.15-.2,6.51-.52,12.94-.45,19.7-.09,12.4,.11,23.16,.41,36.96,.2,5.55,.4,11.1,.6,16.64,.35,5.54,.69,11.07,1.04,16.62,.15,2.77,.39,5.54,.65,8.31,.24,2.77,.49,5.54,.73,8.32,.26,2.77,.45,5.56,.77,8.33,.31,2.77,.62,5.55,.93,8.34,1.87,17.66,4.44,34.25,7.21,50.78,.76,4.12,1.53,8.24,2.29,12.38,.38,2.07,.77,4.14,1.16,6.21,.43,2.07,.87,4.14,1.31,6.22,.87,4.16,1.75,8.35,2.64,12.58,.99,4.21,1.98,8.46,2.99,12.77,.59,2.5,1.18,5.02,1.77,7.53,.64,2.5,1.29,5,1.93,7.49,.65,2.49,1.29,4.97,1.93,7.44,.32,1.23,.65,2.46,.97,3.69,.35,1.22,.71,2.43,1.06,3.63,6.94,24.15,13.88,45.59,23.5,70.57,.93,2.58,2.41,5.99,3.95,9.77,1.57,3.76,3.24,7.88,4.92,11.72,.86,1.91,1.7,3.77,2.48,5.5,.8,1.72,1.55,3.33,2.21,4.73,1.31,2.82,2.28,4.86,2.67,5.57,.89,1.66-.07-.98,.74,.5,.93,1.7-.11-1.25-2.05-6.34-1.92-5.1-4.91-12.27-7.58-19.15l-4.36-10.85-4.1-10.95-2.04-5.47-1.02-2.74-.95-2.76-3.8-11.06c-.65-1.93-1.34-3.84-1.96-5.78l-1.83-5.83-3.66-11.66c-1.13-3.91-2.25-7.82-3.38-11.73-1.12-3.91-2.31-7.79-3.3-11.72-.83-3.12-1.67-6.23-2.5-9.35-.83-3.11-1.71-6.21-2.44-9.34-.76-3.12-1.51-6.23-2.27-9.33-.72-3.1-1.54-6.17-2.14-9.27-.69-3.29-1.38-6.55-2.06-9.82-.67-3.27-1.44-6.51-2.02-9.83-.61-3.31-1.23-6.65-1.86-10.04-.61-3.4-1.29-6.84-1.79-10.4-.8-5.12-1.6-10.32-2.42-15.58-.72-5.27-1.44-10.59-2.16-15.93l-.55-4.01-.46-4.03-.9-8.07c-.3-2.69-.6-5.38-.9-8.06-.23-2.69-.46-5.37-.69-8.05-2.08-23.6-3.16-47.5-3.19-71.42,.02-23.92,1.09-47.86,3.19-71.53,2.67-30.1,6.77-60.57,12.64-89.53,8.09-40.25,19.14-79.92,33.4-118.42l2.7-7.21,1.35-3.6,.8-2.16,.07-.2c0-.07-.03-.14-.04-.2l-.09-.41-.16-.67-.26-.96c-.71-2.55-1.56-5.06-2.78-7.5-.31-.61-.63-1.21-1.01-1.81l-.28-.44c-.11-.16-.17-.24-.37-.52l-.51-.69c-.06-.15-.23-.14-.36-.18l-.41-.11c-.64-.17-.86-.24-1.25-.32l-1.06-.17c-.7-.07-1.4-.14-2.08-.14-2.75-.04-5.4,.37-7.99,.92-1.29,.29-2.57,.62-3.84,1l-.64,.2-.8,.26c-.08,0-.12,.06-.15,.13l-.11,.18-.22,.35-.36,.6-1,1.66c-2.65,4.44-5.42,8.81-7.78,13.41l-3.68,6.83-3.37,6.98c-2.33,4.61-4.28,9.4-6.36,14.13-1.07,2.35-1.96,4.78-2.9,7.18l-2.8,7.22-2.55,7.31c-.83,2.44-1.74,4.86-2.47,7.34-6.28,19.57-11.15,39.61-15.14,59.74-2.64,13.68-4.66,25.72-6.47,37.71-1.8,11.99-3.53,23.91-5.34,37.41-.17,1.29-.37,2.74-.55,4.09h0s-.09,.68-.09,.68c-1.8,12.77-3.42,27.47-4.89,40.33l-2.06,19.77c-.33,3.3-.71,6.59-1,9.89l-.87,9.89-.88,9.89c-.29,3.29-.6,6.59-.82,9.88-.47,6.59-.95,13.18-1.42,19.76-1.96,30.26-2.69,61.07-2.39,90.71l.45,21.03,.06,2.63,.13,2.63,.26,5.25,.52,10.5c.19,3.5,.3,7.01,.57,10.5l.83,10.49,.83,10.49c.15,1.75,.26,3.5,.43,5.24l.58,5.23,2.33,20.91,3.03,20.83c.9,6.96,2.32,13.84,3.55,20.74l1.9,10.35,.48,2.59,.57,2.57,1.15,5.14,2.49,11.41c.84,3.8,1.57,7.63,2.61,11.38,2.05,7.99,4.09,15.96,6.12,23.9l.09,.33,.04,.16,.02,.08s.05,0,.08,0h.67s1.35-.02,1.35-.02l2.19-.03,2.89-.03c1.92-.02,3.84-.05,5.76-.07,3.84-.05,7.66-.1,11.48-.15,7.63-.13,15.2-.25,22.71-.38,8-.16,16.28-.46,22.82-.85,6.86-.53,9.04-.6,11.48-.87,.72-.08,1.33-.17,1.83-.25,.13-.02,.24-.05,.36-.07,.11-.08,.22-.06,.32-.09,.2-.04,.37-.08,.51-.13,.58-.17,.75-.36,.56-.56-.52-.53-3.74-1.1-8.72-1.66-4.99-.63-11.73-.88-19.3-.66Z"/>
      </g>
    </g>
  </g>
  <g id="Camada_3" data-name="Camada 3">
    <g class="cls-7">
      <path class="cls-1" d="M-16,1058.97c178.29,4.18,395.23,7.63,573.53,9.39l267.44,2.67,241.85,1.53,.04-6.1,.08-9.35,.08-16.72,.13-33.43,.18-66.86,.06-133.72c-.07-89.15-.36-178.3-.73-267.44l-.52-133.72-.1-133.72-.05-66.86,.23-66.86,.53-122.77,.04-2.61-8.17-.11-11.13-.11-32.79-.22-65.57-.45-131.15-.89c-44.58-.26-89.14-.52-133.72-.78-44.58-.13-89.14-.29-133.72-.22-89.15-.16-178.3,.39-267.44,1.27l-133.72,1.51-66.86,.85-33.43,.43-16.72,.22-4.18,.05-1.78,.03-.93,.03-3.68,.11-6.72,.18,.07,6.49,.04,3.18,.02,1.57v3.23s-.1,29.52-.1,29.52l-.2,59.05-.67,133.73-1.35,267.45-1.84,567.9-53.56-33.77c5.17-89.08,9.13-178.18,12.92-267.28l2.71-66.83c.91-22.27,1.83-44.55,2.59-66.83l4.79-133.67,4.15-133.67c.67-22.28,1.35-44.56,2.02-66.84l1.74-66.84,3.48-133.68c.46-19.68,.87-39.36,1.21-59.04l.46-29.52,.45-35.53,19.12-.08,35.95-.28,33.43-.48c22.28-.3,44.58-.63,66.86-1.13l133.72-2.8c44.58-.96,89.14-1.55,133.72-2.06,44.58-.48,89.14-.45,133.72-.43,44.58-.07,89.14,.17,133.72,.36,44.58,.23,89.14,.73,133.72,1.08l131.15,1.15,65.57,.57,75.21,.5-.04,7.01-.29,74.63-.12,66.86c-.02,44.57,.08,89.15,.29,133.72,.43,89.15,1.35,178.3,2.78,267.44l1.71,133.72c.57,44.57,1.18,89.15,1.42,133.72,.43,44.57,.43,89.15,.56,133.72,.05,22.29,.03,44.57-.04,66.86l-.39,75.39-.11,19.03-47.31-.34-31.91-.4-63.82-.95-127.64-2.26-66.86-1.12c-22.29-.4-44.57-.56-66.86-.86-44.57-.64-89.15-.74-133.72-.81-89.15,.14-178.29,.93-267.44,3.72-44.57,1.35-89.15,3.1-133.72,5.43-44.57,2.36-89.15,5.13-133.72,9.21l-38.64-54.05Z"/>
    </g>
    <g class="cls-6">
      <path class="cls-1" d="M1084,1058.97c178.29,4.18,395.23,7.63,573.53,9.39l267.44,2.67,241.85,1.53,.04-6.1,.08-9.35,.08-16.72,.13-33.43,.18-66.86,.06-133.72c-.07-89.15-.36-178.3-.73-267.44l-.52-133.72-.1-133.72-.05-66.86,.23-66.86,.53-122.77,.04-2.61-8.17-.11-11.13-.11-32.79-.22-65.57-.45-131.15-.89c-44.58-.26-89.14-.52-133.72-.78-44.58-.13-89.14-.29-133.72-.22-89.15-.16-178.3,.39-267.44,1.27l-133.72,1.51-66.86,.85-33.43,.43-16.72,.22-4.18,.05-1.78,.03-.93,.03-3.68,.11-6.72,.18,.07,6.49,.04,3.18,.02,1.57v3.23s-.1,29.52-.1,29.52l-.2,59.05-.67,133.73-1.35,267.45-1.84,567.9-53.56-33.77c5.17-89.08,9.13-178.18,12.92-267.28l2.71-66.83c.91-22.27,1.83-44.55,2.59-66.83l4.79-133.67,4.15-133.67c.67-22.28,1.35-44.56,2.02-66.84l1.74-66.84,3.48-133.68c.46-19.68,.87-39.36,1.21-59.04l.46-29.52,.45-35.53,19.12-.08,35.95-.28,33.43-.48c22.28-.3,44.58-.63,66.86-1.13l133.72-2.8c44.58-.96,89.14-1.55,133.72-2.06,44.58-.48,89.14-.45,133.72-.43,44.58-.07,89.14,.17,133.72,.36,44.58,.23,89.14,.73,133.72,1.08l131.15,1.15,65.57,.57,75.21,.5-.04,7.01-.29,74.63-.12,66.86c-.02,44.57,.08,89.15,.29,133.72,.43,89.15,1.35,178.3,2.78,267.44l1.71,133.72c.57,44.57,1.18,89.15,1.42,133.72,.43,44.57,.43,89.15,.56,133.72,.05,22.29,.03,44.57-.04,66.86l-.39,75.39-.11,19.03-47.31-.34-31.91-.4-63.82-.95-127.64-2.26-66.86-1.12c-22.29-.4-44.57-.56-66.86-.86-44.57-.64-89.15-.74-133.72-.81-89.15,.14-178.29,.93-267.44,3.72-44.57,1.35-89.15,3.1-133.72,5.43-44.57,2.36-89.15,5.13-133.72,9.21l-38.64-54.05Z"/>
    </g>
    <g class="cls-3">
      <path class="cls-1" d="M-16-40.03c178.29,4.18,395.23,7.63,573.53,9.39l267.44,2.67,241.85,1.53,.04-6.1,.08-9.35,.08-16.72,.13-33.43,.18-66.86,.06-133.72c-.07-89.15-.36-178.3-.73-267.44l-.52-133.72-.1-133.72-.05-66.86,.23-66.86,.53-122.77,.04-2.61-8.17-.11-11.13-.11-32.79-.22-65.57-.45-131.15-.89c-44.58-.26-89.14-.52-133.72-.78-44.58-.13-89.14-.29-133.72-.22-89.15-.16-178.3,.39-267.44,1.27l-133.72,1.51-66.86,.85-33.43,.43-16.72,.22-4.18,.05-1.78,.03-.93,.03-3.68,.11-6.72,.18,.07,6.49,.04,3.18,.02,1.57v3.23s-.1,29.52-.1,29.52l-.2,59.05-.67,133.73-1.35,267.45L11.02-12.6-42.53-46.37c5.17-89.08,9.13-178.18,12.92-267.28l2.71-66.83c.91-22.27,1.83-44.55,2.59-66.83l4.79-133.67,4.15-133.67c.67-22.28,1.35-44.56,2.02-66.84l1.74-66.84,3.48-133.68c.46-19.68,.87-39.36,1.21-59.04l.46-29.52,.45-35.53,19.12-.08,35.95-.28,33.43-.48c22.28-.3,44.58-.63,66.86-1.13l133.72-2.8c44.58-.96,89.14-1.55,133.72-2.06,44.58-.48,89.14-.45,133.72-.43,44.58-.07,89.14,.17,133.72,.36,44.58,.23,89.14,.73,133.72,1.08l131.15,1.15,65.57,.57,75.21,.5-.04,7.01-.29,74.63-.12,66.86c-.02,44.57,.08,89.15,.29,133.72,.43,89.15,1.35,178.3,2.78,267.44l1.71,133.72c.57,44.57,1.18,89.15,1.42,133.72,.43,44.57,.43,89.15,.56,133.72,.05,22.29,.03,44.57-.04,66.86l-.39,75.39-.11,19.03-47.31-.34-31.91-.4-63.82-.95-127.64-2.26-66.86-1.12c-22.29-.4-44.57-.56-66.86-.86-44.57-.64-89.15-.74-133.72-.81-89.15,.14-178.29,.93-267.44,3.72-44.57,1.35-89.15,3.1-133.72,5.43C111.79,7.18,67.21,9.95,22.64,14.03L-16-40.03Z"/>
    </g>
    <g class="cls-9">
      <path class="cls-1" d="M1084-40.03c178.29,4.18,395.23,7.63,573.53,9.39l267.44,2.67,241.85,1.53,.04-6.1,.08-9.35,.08-16.72,.13-33.43,.18-66.86,.06-133.72c-.07-89.15-.36-178.3-.73-267.44l-.52-133.72-.1-133.72-.05-66.86,.23-66.86,.53-122.77,.04-2.61-8.17-.11-11.13-.11-32.79-.22-65.57-.45-131.15-.89c-44.58-.26-89.14-.52-133.72-.78-44.58-.13-89.14-.29-133.72-.22-89.15-.16-178.3,.39-267.44,1.27l-133.72,1.51-66.86,.85-33.43,.43-16.72,.22-4.18,.05-1.78,.03-.93,.03-3.68,.11-6.72,.18,.07,6.49,.04,3.18,.02,1.57v3.23s-.1,29.52-.1,29.52l-.2,59.05-.67,133.73-1.35,267.45-1.84,567.9-53.56-33.77c5.17-89.08,9.13-178.18,12.92-267.28l2.71-66.83c.91-22.27,1.83-44.55,2.59-66.83l4.79-133.67,4.15-133.67c.67-22.28,1.35-44.56,2.02-66.84l1.74-66.84,3.48-133.68c.46-19.68,.87-39.36,1.21-59.04l.46-29.52,.45-35.53,19.12-.08,35.95-.28,33.43-.48c22.28-.3,44.58-.63,66.86-1.13l133.72-2.8c44.58-.96,89.14-1.55,133.72-2.06,44.58-.48,89.14-.45,133.72-.43,44.58-.07,89.14,.17,133.72,.36,44.58,.23,89.14,.73,133.72,1.08l131.15,1.15,65.57,.57,75.21,.5-.04,7.01-.29,74.63-.12,66.86c-.02,44.57,.08,89.15,.29,133.72,.43,89.15,1.35,178.3,2.78,267.44l1.71,133.72c.57,44.57,1.18,89.15,1.42,133.72,.43,44.57,.43,89.15,.56,133.72,.05,22.29,.03,44.57-.04,66.86l-.39,75.39-.11,19.03-47.31-.34-31.91-.4-63.82-.95-127.64-2.26-66.86-1.12c-22.29-.4-44.57-.56-66.86-.86-44.57-.64-89.15-.74-133.72-.81-89.15,.14-178.29,.93-267.44,3.72-44.57,1.35-89.15,3.1-133.72,5.43-44.57,2.36-89.15,5.13-133.72,9.21l-38.64-54.05Z"/>
    </g>
  </g>
</svg>