<?xml version="1.0" encoding="UTF-8"?>
<svg xmlns="http://www.w3.org/2000/svg" xmlns:xlink="http://www.w3.org/1999/xlink" viewBox="0 0 1080 1080">
  <defs>
    <style>
      .cls-1 {
        fill: #fff;
      }

      .cls-2 {
        clip-path: url(#clippath-2);
      }

      .cls-3 {
        clip-path: url(#clippath-1);
      }

      .cls-4 {
        fill: #3c96fb;
      }

      .cls-5 {
        clip-path: url(#clippath);
      }

      .cls-6 {
        fill: none;
      }

      .cls-7 {
        clip-path: url(#clippath-3);
      }

      .cls-8 {
        fill: #ff5c27;
      }

      .cls-9 {
        fill: #f3f1e5;
      }
    </style>
    <clipPath id="clippath">
      <rect class="cls-6" y="-1" width="1080" height="1080"/>
    </clipPath>
    <clipPath id="clippath-1">
      <rect class="cls-6" x="1100" y="-1" width="1080" height="1080"/>
    </clipPath>
    <clipPath id="clippath-2">
      <rect class="cls-6" y="-1100" width="1080" height="1080"/>
    </clipPath>
    <clipPath id="clippath-3">
      <rect class="cls-6" x="1100" y="-1100" width="1080" height="1080"/>
    </clipPath>
  </defs>
  <g id="Camada_1" data-name="Camada 1">
    <rect class="cls-9" x="-.25" y="-.25" width="1080.5" height="1080.5"/>
  </g>
  <g id="Camada_2" data-name="Camada 2">
    <g>
      <path class="cls-8" d="M701.27,187.85l27.46,26.92s22.43,34.66,26.06,59.35c3.62,24.69,5.13,61.86,2.26,80.49-2.87,18.63-.8,41.81-17.99,63.29-17.19,21.49-66.42,28.16-66.42,28.16l-277.83,18.7,259.07-6.11,23.14,2.23s25.96,5.87,35.69,14.9c9.73,9.03,46.52,49.61,47.03,113,.51,63.39-21.6,90.63-21.6,90.63,0,0-.49,26.38-75.13,39.62l-245.28,8.65,232.59-6.84,66.96,22.48,27.33,34.84,3.28,50.48-10.51,38.64-14.05,13.92-88.24,5.08-118.07,3.66-32.78-.89-28.82-6.21-31.43-17.29-16.32-21.28-8.17-10.95-34.79-7.98s-28.03-17.42-36.18-32.83c-8.15-15.41-24.6-57.49-16.09-83.97,8.5-26.49,7.34-61.15,26.56-69.96,19.22-8.81,8.69-26.36,127.71-27.88,119.02-1.52,192.45-9.59,200.23-16.12,7.79-6.53-1.68-4.98-1.68-4.98,0,0-241.24,18.29-303.9-8.04-62.66-26.33-64.12-44.69-66.45-92.53-2.33-47.84,20.72-108.93,73.44-132.62,52.72-23.69,300.23-15.07,300.23-15.07,0,0,8.83,1.57,8.44-6.95-.39-8.52,.47-33.56-10.92-42.46-11.39-8.9-18.24-15.25-55.01-8.09-36.77,7.16-57.76-7.89-57.76-7.89,0,0-42.43-24.21-43.4-37.95-.97-13.75,39.64-47.1,39.64-47.1,0,0,56.03-40.63,116.18-19.77l35.52,16.73Z"/>
      <path class="cls-9" d="M762.28,315.44c-.15-12.05-1.07-24.18-3.06-36.14-2.07-11.97-5.31-23.79-10.25-34.79-3.26-7.53-12.34-27.17-28.15-43.54-7.8-8.17-17-15.49-26.13-20.69-9.07-5.3-17.8-8.76-24.19-10.87-6.46-2.18-15.93-4.59-27.02-5.75-11.08-1.12-23.78-.99-36.18,1.18-12.42,2-24.45,5.91-34.64,10.29-10.19,4.42-18.56,9.31-24.29,12.97-6.66,4.23-14.22,9.94-21.7,16.86-3.69,3.49-7.56,7.1-11,11.46-3.39,4.32-6.53,9.32-7.66,15.21-1.24,5.87,.47,12.25,3.83,16.79,3.3,4.62,7.53,8.01,11.52,11,7.94,6,15.53,11.17,22.02,15.19,4.72,2.86,7.56,4.85,12.26,7.29,3.03,1.52,9.77,4.3,16.65,5.67,6.85,1.47,13.6,1.45,15.79,.64,2.07-.74-.65-2.6-1.95-3.44-1.63-.99-4.11-1.99-7.52-2.54-13-2.25-25.1-7.87-36.46-14.84-5.95-3.66-13.63-8.86-21.11-14.75-3.6-2.94-6.92-6.34-8.7-10.22-1.82-3.84-1.81-8.13-.48-12.04,1.76-5.23,5.39-9.84,9.23-13.89,3.94-4.03,8.13-7.79,12.24-11.2,8.3-6.8,16.61-12.43,24.8-16.94,3.13-1.71,11.13-6.2,21.66-10.24,5.28-1.97,11.16-3.86,17.24-5.36,6.1-1.43,12.4-2.48,18.4-3.07,15.95-1.52,31.11,.39,42.94,3.37,11.85,3.07,20.41,7.08,24.59,9.17,7.04,3.45,17.15,9.33,25.78,17.2,8.8,7.65,16.04,16.98,20.3,23.63,3.9,6.02,6.94,11.71,9.45,17.22,2.58,5.48,4.6,10.8,6.4,16.19,3.57,10.8,6.09,21.92,7.7,36.28,.62,5.57,1.37,14.45,1.43,23.2,.11,8.75-.44,17.34-1.11,22.28-1.95,14.45-3.85,26.56-3.8,36.74-.04,6.66-.17,9.88,2.69,3.76,2.15-4.57,4.48-11.84,5.62-19.54,2.18-14.38,3.09-29.09,2.86-43.74Z"/>
      <path class="cls-9" d="M751.16,385.08c-2.03,3.31-4.4,8.43-6.35,13.74-3.63,9.88-8.36,19.62-15.86,26.63-3.07,2.91-6.54,5.08-10.43,6.9-3.92,1.83-7.98,3.36-12.16,4.56-8.35,2.44-17,3.91-25.68,5.17-5.94,1.02-21.56,1.97-38.19,3.14-16.61,1.13-34.16,2.23-44.07,2.75-20.08,1.04-73.98,5.16-94.08,6.34-23.33,1.38-64.92,6.36-87.53,6.41-4.08,.01-6.63-.39-10.49-.55-4.96-.21-20.95,.2-24.01,2.14-1.46,.92,.65,2.54,1.72,3.25,1.31,.87,3.32,1.53,6,1.47,10.16-.23,20.37-.36,30.64-.92,10.82-.59,27.84-1.95,42.02-2.93,18.83-1.16,35.12-2.17,49.49-3.06,5.48-.4,28.07-2.04,46.66-3.38,24.62-1.47,46.44-2.78,53.7-3.21,12.17-.81,35.96-3.1,48.12-3.85,11.04-.62,19.85-1.24,28.64-2.52,8.76-1.3,17.63-3.05,28.25-7.38,4.02-1.62,10.74-4.97,15.95-9.98,5.21-4.95,9.01-10.8,11.2-14.14,6.4-9.87,9.09-19.56,9.15-27.42,0-5.2,0-7.59-2.69-3.15Z"/>
      <path class="cls-9" d="M678.68,317.26c-.52-3.42-1.26-7.9-2.76-12.8-1.48-4.89-3.89-10.23-7.47-14.78-3.5-4.58-8.39-8.32-13.38-10.13-4.96-1.86-9.47-2.21-12.65-2.45-4.7-.3-9.03-.04-13.11,.24-4.12,.3-8.03,.76-11.73,1.32-7.4,1.12-13.94,2.58-19.73,4.24-7.58,2.14-11.33,2.93-3.37,3.78,5.95,.59,15.01,.28,24.07-.85,4.24-.52,8.47-1,12.7-1.38,4.27-.37,8.45-.72,12.5-.53,4.04,.18,7.93,.92,11.32,2.59,3.39,1.66,6.35,4.28,8.74,7.41,3.96,5.18,6.2,11.58,7.53,18.29,.67,3.36,1.15,6.81,1.57,10.31,.4,3.54,.98,7.06,.67,9.87-.14,1.38-.54,2.74-1.09,3.59-.56,.87-1.24,1.37-2.24,1.69-1.08,.34-2.08,.26-4.08,.19l-5.34-.17c-7.13-.23-14.2-.33-21.24-.35-9.71,0-34.55-.37-60.89-.24-26.34,.11-54.18,.72-69.88,1.15-15.91,.37-45.23,1.7-74.51,3.78-14.64,1.01-29.41,2.3-42.36,4.85-12.96,2.44-24.02,6.16-31.46,9.58-8.6,3.95-18.58,10.08-27.03,19.14-8.5,8.97-15.47,20.27-20.93,32.01-11.08,23.52-16.51,48.86-18.95,66.71-.94,6.46-1.72,10.46-2.31,16.63-.4,3.96-.67,12.42-.02,20.49,.54,8.08,2.08,15.7,3.33,18.06,1.18,2.25,2.41-1.22,2.94-2.94,.62-2.12,.94-5.26,.62-9.45-1.3-15.86-.54-31.83,1.67-47.67,1.14-8.35,3.15-19.04,6.37-30.1,3.2-11.05,7.56-22.48,12.57-32.31,6.57-13.05,14.7-24.16,24.24-32.28,4.81-4,9.85-7.41,15.05-10.14,5.23-2.69,10.51-4.86,15.76-6.61,4.01-1.33,14.41-4.52,27.82-6.49,13.37-2.09,29.6-3.16,44.29-4.09,38.86-2.44,73.37-3.06,84.84-3.33,19.24-.59,56.94-1.55,76.16-1.26,17.44,.21,31.21,.55,44.98,.98,3.43,.12,6.86,.25,10.34,.37,1.76,.07,3.54,.13,5.34,.2,2.1,.11,4.63-.19,6.9-1.54,2.3-1.31,3.96-3.69,4.7-5.97,.79-2.28,.99-4.64,.93-6.84-.22-4.44-.86-8.28-1.44-12.75Z"/>
      <path class="cls-9" d="M669.4,588.41c-3.76-.77-9.4-1.11-15.08-.56-10.64,.94-21.35,2.1-32.05,2.91-17.62,1.29-35.43,1.49-52.88,2.68-6.02,.37-21.45,.87-37.82,.78-16.37-.03-33.66-.72-43.4-1.31-9.87-.56-28.07-1.55-46.24-3.12-18.18-1.46-36.3-3.62-46.1-4.95-11.35-1.61-27.24-3.33-42.27-7.97-7.5-2.31-14.74-5.38-20.9-9.1-6.15-3.73-11.24-8.02-14.82-12.06-2.52-2.98-3.74-5.1-5.54-8.22-1.2-1.98-3.73-6.11-5.64-10.27-2-4.12-3.37-8.23-4.58-9.45-1.17-1.17-2.38,1.04-2.86,2.26-.64,1.47-.75,3.61,.1,6.23,3.41,9.83,9.46,18.8,17.21,25.94,4.05,3.81,9.85,8.05,16.47,11.69,6.65,3.61,14.03,6.53,20.87,8.66,18.19,5.6,34.41,7.53,48.48,9.47,5.39,.75,27.67,3.03,46.04,4.51,24.3,2.07,45.9,3.13,53.09,3.42,12.06,.41,35.69,.04,47.72-.12,21.84-.23,34.51-.62,56.32-1.67,8.48-.42,26.83-2.05,34.38-2.15,11.03-.13,20.34-1.18,27.55-3.99,4.74-1.81,6.99-2.58,1.95-3.62Z"/>
      <path class="cls-9" d="M760.58,571.17c-1.61-9.21-3.82-18.92-6.63-28.75-2.79-9.82-6.09-19.89-10.41-29.61-4.32-9.7-9.63-19.12-16.39-27.16-6.65-8.08-14.8-14.73-23.38-19.08-8.54-4.48-17.23-6.92-25.02-8.4-7.81-1.48-14.79-2.04-20.52-2.37-13.35-.76-29.12,.06-46.08,.63-16.99,.63-35.25,1.32-53.44,2-36.4,1.33-72.58,2.51-97.96,2.47-9.18-.01-14.85-.43-23.49-.61-11.11-.24-47.07,.09-54.16,2-3.37,.91,1.18,2.54,3.51,3.26,2.86,.88,7.29,1.55,13.33,1.5,22.85-.18,45.78-.25,68.9-.75,24.36-.69,62.73-1.78,94.68-2.69,21.2-.55,40.98-1.07,59.5-1.55,18.52-.5,35.69-.89,51.28,1.69,2.95,.53,8.26,1.36,14.84,3.46,6.57,2.07,14.37,5.57,21.79,11.21,7.37,5.7,14.22,13.56,19.63,22.64,5.51,9.02,9.69,19.09,13.06,28.85,8.73,26.01,13.5,51.75,13.58,72.61,.07,10.43-.81,19.62-2.13,27.09-1.3,7.46-3.09,13.17-4.25,16.97-3.97,12.62-12.68,30.99-27.1,44.46-7.05,6.84-15.38,12.15-23.62,15.83-8.27,3.65-16.35,5.77-22.92,7.09-11.97,2.32-22.97,3.15-33.36,3.7-10.39,.52-20.23,.82-30.02,1.21-19.61,.72-39.22,1.45-64.03,2.37-19.29,.7-61.16,2.58-78.27,2.64-25.01,.09-46.2,.99-63.17,3.58-11.13,1.7-16.44,2.43-5.26,3.58,8.35,.86,21.09,1.35,34.15,.91,24.4-.97,49.03-1.95,73.55-2.92,40.35-1.59,81.08-2.48,121.02-4.74,6.88-.46,19.21-.78,34.54-2.74,15.19-1.99,33.91-6.23,50.14-17.1,8.01-5.43,15.19-12.23,21.18-19.71,5.96-7.52,10.72-15.69,14.38-23.78,7.42-16.22,10.06-32.11,11.01-43.39,1.06-11.48,.81-27.98-2.44-46.42Z"/>
      <path class="cls-9" d="M669.43,590.07c-2.07,.03-4.92,.56-8.5,1.92-13.66,5.06-28.33,6.65-43.13,7.61-15.79,.87-40.65,2.24-61.36,3.38-27.52,1.33-51.34,2.48-72.34,3.5-8.02,.45-41.05,2.3-68.24,3.82-18.05,.98-35.36,3.07-48.92,7.66-6.78,2.23-12.55,5.02-17.12,7.7-4.5,2.81-7.81,5.42-9.89,7.29-3.53,3.1-7.49,7.47-10.95,12.79-3.47,5.31-6.48,11.48-8.85,17.81-4.74,12.69-7.39,25.74-9.02,34.62-2.73,16.13-3.33,29.21-2.33,42.18,.48,6.49,1.38,12.97,2.97,19.75,1.58,6.78,3.76,13.9,7.15,21.49,2.55,5.96,7.74,14.93,14.28,22.62,6.43,7.8,14.08,14.2,18.65,17.74,13.3,10.58,28.37,14.81,39.96,13.81,7.65-.89,10.9-1.52,3.74-3.19-5.32-1.31-13.06-3.33-20.7-6.19-14.34-5.2-27.31-14.62-37.14-26.53-4.01-4.92-7.59-10.22-10.54-15.85-2.88-5.65-5.22-11.62-7.09-17.71-3.62-12.24-5.31-24.98-5.62-37.7-.19-4.38,0-12.22,1.18-21.88,1.2-9.64,3.56-21.12,7.08-32.55,3.52-11.38,8.73-22.58,15.79-30.74,7.01-8.21,15.47-13.21,21.8-16.04,3.18-1.53,7.24-2.97,11.88-4.43,4.7-1.34,10.02-2.61,15.82-3.59,11.62-1.94,25.01-2.82,38.54-3.5,27.05-1.43,54.1-2.87,68.79-3.65,17.05-.79,40.8-2.53,64.4-4.1,11.8-.78,23.57-1.53,34.45-2.09,10.92-.47,20.92-.9,29.2-1.26,6.01-.32,9.79-.2,15.52-.74,3.68-.34,11.49-1.6,18.74-4.08,7.28-2.35,13.73-6.09,15.37-8.04,1.59-1.8-1.94-1.87-3.6-1.85Z"/>
      <path class="cls-9" d="M750.6,800.42c-.39-7.3-1.48-14.7-4-22.27-2.55-7.56-6.75-15.16-12.94-22.29-4.77-5.58-13.65-13.23-23.64-18.56-4.95-2.72-10.07-5-14.74-6.73-4.61-1.72-8.69-3.09-11.68-4.14-17.51-6.07-33.31-8.3-45.95-7.61-8.31,.53-12.16,.86-4.22,3.01,5.92,1.67,14.9,3.64,24.12,5.38,8.62,1.64,17.21,3.62,25.65,6.16,8.49,2.51,16.68,5.46,24.26,9.66,12.38,6.9,23.35,16.83,29.66,29.28,6.43,12.39,7.64,26.85,7.48,41.1-.05,4.89-.45,13.86-1.51,24.72-.59,5.4-1.45,11.29-3.29,17.09-1.78,5.81-4.73,11.5-9.2,15.82-4.41,4.38-10.41,7.06-16.68,8.5-6.29,1.46-12.81,1.85-19.05,2.06-12.62,.31-23.86,.59-31.97,.79-32.86,.62-121.32,3.93-154.14,4.51-9.48,.03-20.82,0-32.8-1.73-11.97-1.66-24.57-5.43-35.56-12.26-11.03-6.72-20.44-16.02-26.93-26.04-6.59-9.99-10.13-20.57-11.53-29.42-.96-6.42-.79-10.48-.48-16.49,.17-3.88,.89-12.05,2.7-19.65,1.63-7.65,4.4-14.58,4.68-17.2,.24-2.53-2.64-.4-4.06,.86-1.71,1.5-3.67,4.28-5.12,8.54-5.35,16.12-6.3,33.99-1.88,50.89,2.34,8.87,7.08,19.97,14.68,29.97,7.49,10.06,17.65,18.91,28.11,24.87,13.9,8.07,28.76,11.35,42.36,12.82,13.68,1.42,26.41,1.16,38.2,.92,8.99-.3,46.02-1.52,76.49-2.53,40.34-1.02,76.09-1.93,87.98-2.23,4.98-.18,11.16-.26,18.12-.9,6.91-.67,14.7-1.99,21.89-5.6,7.26-3.51,13.02-9.86,16.2-16.33,3.32-6.47,4.76-12.81,5.72-17.82,1.68-9.17,2.1-17.29,2.69-24.91,.51-7.65,.81-14.92,.39-22.23Z"/>
      <path class="cls-9" d="M684.58,818.96c-3.17-.66-7.83-.76-12.48-.09-8.68,1.32-17.41,2.81-26.16,4-14.39,1.95-29.02,2.82-43.29,4.81-9.82,1.49-50.66,4.68-66.76,5.72-8.18,.44-23.12,2.18-37.97,2.62-14.89,.59-29.69-.7-37.41-2.5-8.88-1.91-21.75-5.07-30.25-14.54-8.8-9.15-13.4-21.65-14.95-30.44-.59-3.2-.48-5.29-.69-8.36-.37-3.92-1.72-16.63-3.74-18.97-.99-1.09-2.49,.76-3.14,1.7-.8,1.15-1.36,2.84-1.13,5.02,.81,8.24,1.8,16.61,4.05,24.89,1.19,4.35,3.12,9.9,5.95,15.5,2.79,5.61,6.63,11.17,10.91,15.53,5.65,5.89,12.62,9.76,19.1,12.16,6.55,2.47,12.87,3.87,18.78,4.77,2.26,.43,8.07,1.02,15.23,1.35,7.16,.28,15.64,.15,23.26-.19,10.1-.41,19.56-1.28,27.18-1.81,7.65-.55,13.54-.97,16.48-1.18,9.85-.96,29.15-2.84,38.99-3.8,17.89-1.47,28.28-2.37,46.15-4.29,6.95-.76,21.96-2.97,28.17-3.38,9.1-.47,16.69-1.86,22.42-4.85,3.76-1.95,5.55-2.8,1.3-3.66Z"/>
      <path class="cls-9" d="M643.34,235.25c-.1,.03-.2,.08-.3,.11,.12-.27,.21-.53,.27-.74,.33-1.04,.34-2.3-.48-3.26-3.01-3.69-6.49-7.2-10.67-9.79-4.33-2.85-12.04-5.8-18.73-6.91-8.87-1.58-16.84-.95-23.52,.63-1.27,.32-4.52,1.25-8.29,2.96-3.78,1.69-8.03,4.2-11.58,6.87-1.17,.89-2.31,1.79-3.37,2.72l-.79,.7c-.26,.23-.77,.68-1.14,1.05-.65,.81-1.3,1.61-1.93,2.39-.28,.4-.72,.77-.85,1.2,.15,.47,.15,1,.42,1.42,.49,.86,.97,1.7,1.44,2.53l.7,1.23c.31,.44,.53,.67,.7,.89,.38,.47,.75,.92,1.11,1.36,2.94,3.49,5.68,5.72,7.03,6.83,2.33,1.79,6.07,4.06,10.05,5.73,3.97,1.71,8.14,2.81,10.97,3.44,5.13,1.18,9.35,1.45,13.52,1.29,4.17-.19,8.35-.81,13.4-2.38,1.98-.56,4.99-1.85,7.85-3.28,2.87-1.43,5.52-3.13,7.2-3.96,4.9-2.44,8.23-6.09,8.99-10.09,.46-2.67,.63-3.74-2-2.93Zm-17.22,11.5c-6.82,3.51-14.5,4.59-21.88,5.06-2.54,.23-9.29-.25-15.87-2.95-6.65-2.54-12.63-7.27-15.41-10.38-.7-.8-1.6-1.71-2.5-2.85-.21-.26-.43-.52-.66-.79l-.21-.28c-.11-.19-.33-.36-.33-.61l.53-.55c.57-.51,1.15-1.04,1.74-1.57,1.46-1.22,3-2.44,4.65-3.53,6.51-4.5,14.2-6.91,18.4-7.59,4.86-.85,11.81-1.76,18.76-.65,6.93,.98,13.56,3.89,17.23,7.14,1.35,1.15,1.88,2.27,2.93,3.54,.65,.86,2.15,2.44,3.63,3.88,.92,.9,1.84,1.73,2.67,2.23-.88,.52-1.74,1.12-2.51,1.82-3.36,3.12-7.09,5.92-11.19,8.07Z"/>
      <path class="cls-9" d="M616.58,233.14c-.32-3.85-1.02-7.53-.91-10.3,.07-1.01,.43-1.73,.61-2.75,.28-1.3-.49-5.35-2.41-5.39-.89-.02-2.33,1.11-2.97,1.61-.78,.63-1.36,1.31-1.27,1.89,.33,2.22,.42,4.43,.69,6.57,.34,2.25,.98,5.79,.94,8.81-.02,3.99-.73,7.4-1.61,10.29-.2,.54-.47,2-1.05,3.72-.21,.81-.71,1.96-.92,2.58-.16,.21-.13,.78-.49,.69-2.26-.07-4.39-.14-6.12-.2-.69-.02-.72-.05-.81-.07-.1-.02-.18-.04-.26-.06-.18,.01-.19-.14-.21-.23-.06-.18-.11-.15-.29-.56-.31-.82-.66-1.72-.94-2.63-.62-1.82-1.07-3.71-1.22-5-.47-4.7-.36-7.48,.29-12.13,.25-1.8,.85-5.74,1.9-7.12,1.55-1.99,2.08-3.75,.97-5.96-.75-1.46-1-2.2-2.9-1.79-1.43,.31-2.88,1.19-3.41,2.49-1.02,2.4-1.58,4.98-2.09,7.54-.88,4.17-1.96,8.54-1.13,12.81,.24,1.46,.63,5.19,1.46,9.08,.23,.97,.46,1.95,.68,2.91,.13,.48,.27,.95,.4,1.41,.11,.4,.37,1.31,.59,1.94,.23,.69,.45,1.37,.67,2.02,.11,.33,.21,.65,.32,.97l.15,.47c.04,.17,.28,.05,.41,.1,1.24,.04,2.36,.08,3.3,.11,.75,.02,1.65,.05,2.67,.08,.78,0,1.65,.01,2.57,.02,1.05,0,2.16-.02,3.31-.02,.87-.01,1.76-.02,2.66-.03h.67c.21-.04,.5,.07,.54-.22l.58-1.22,1.15-2.43c.24-.59,.48-1.17,.71-1.75,.43-1,.72-2.02,1.05-2.95,.6-1.89,1.03-3.56,1.32-4.74,.71-2.74,.76-6.73,.4-10.56Z"/>
      <path class="cls-4" d="M512.37,236.33c-.65-.96-2.61-.04-3.46,.19-1.03,.38-2.01,.85-2.55,1.69-2.14,3.26-6.13,5.05-9.72,5.21-1.97,.11-4.11-.19-6.28-1.86-2.25-1.64-4.42-4.41-6.67-6.95-1.5-1.7-3.14-3.43-5.3-4.8-2.13-1.39-4.87-2.16-7.42-2-2.6,.11-5.01,1.21-6.77,2.57-1.8,1.36-3.12,2.92-4.21,4.46-.86,1.15-2.66,4.38-4.03,8.25-1.32,3.56-3.25,7.7-5.79,9.76-1.62,1.34-3.45,1.7-5.13,1.39-1.65-.35-3.2-1.45-4.48-2.75-2.55-2.66-4.09-5.56-4.94-6.89-1.49-2.43-3.98-6.28-7.88-9.26-1.93-1.48-4.36-2.71-6.91-3.02-2.54-.34-4.85,.21-6.52,.98-3.05,1.44-4.89,3.64-6.25,5.56-1.38,1.96-2.36,3.84-3.31,5.63-.99,1.89-1.73,3.38-2.88,4.78-1.14,1.4-2.59,2.77-4.24,3.58-1.35,.65-2.93,.96-4.17-.14-1.21-.93-1.85-3.55-1.86-5.16-.04-1.21-.05-2.34-.25-3.72-.23-1.44-.64-2.79-1.27-4.04-1.2-2.44-3.53-4.7-6.41-5.05-1.85-.22-3.04,.29-3.36,.74-.37,.49,.17,.96,.97,1.95,1.17,1.54,1.39,3.33,2.21,5.32,.36,.93,.65,1.94,.85,2.96,.22,1.17,.45,2.46,.77,3.78,.65,2.57,1.6,5.83,4.57,8.22,2.31,1.89,5.85,2.52,8.61,1.68,2.77-.77,4.89-2.28,6.67-3.95,1.78-1.68,3.21-3.63,4.33-5.78,.96-1.9,1.77-3.74,2.57-5.45,.55-1.15,1.65-3.27,3.41-4.78,1.7-1.52,4.28-2.09,6.83-.75,5.53,2.83,8.52,10.91,11.79,14.81,1.56,1.91,4,5.1,8.9,6.63,2.44,.66,5.3,.64,7.88-.47,2.61-1.06,4.62-2.97,6.12-4.93,2.98-3.89,4.5-8.41,5.85-11.63,1.38-3.26,3.05-5.69,4.39-6.95,1.56-1.53,3.41-2.65,5.84-2.38,2.33,.15,4.97,2.35,7.44,5.04,2.52,2.64,5,5.73,8.37,7.81,3.48,2.17,7.38,2.41,10.38,2.11,2.18-.26,3.71-.2,5.83-.96,1.34-.46,4.11-2.05,5.9-4.64,1.88-2.53,2.34-5.78,1.59-6.8Z"/>
    </g>
  </g>
  <g id="Camada_3" data-name="Camada 3">
    <g class="cls-5">
      <path class="cls-1" d="M-16,1058.97c178.29,4.18,395.23,7.63,573.53,9.39l267.44,2.67,241.85,1.53,.04-6.1,.08-9.35,.08-16.72,.13-33.43,.18-66.86,.06-133.72c-.07-89.15-.36-178.3-.73-267.44l-.52-133.72-.1-133.72-.05-66.86,.23-66.86,.53-122.77,.04-2.61-8.17-.11-11.13-.11-32.79-.22-65.57-.45-131.15-.89c-44.58-.26-89.14-.52-133.72-.78-44.58-.13-89.14-.29-133.72-.22-89.15-.16-178.3,.39-267.44,1.27l-133.72,1.51-66.86,.85-33.43,.43-16.72,.22-4.18,.05-1.78,.03-.93,.03-3.68,.11-6.72,.18,.07,6.49,.04,3.18,.02,1.57v3.23s-.1,29.52-.1,29.52l-.2,59.05-.67,133.73-1.35,267.45-1.84,567.9-53.56-33.77c5.17-89.08,9.13-178.18,12.92-267.28l2.71-66.83c.91-22.27,1.83-44.55,2.59-66.83l4.79-133.67,4.15-133.67c.67-22.28,1.35-44.56,2.02-66.84l1.74-66.84,3.48-133.68c.46-19.68,.87-39.36,1.21-59.04l.46-29.52,.45-35.53,19.12-.08,35.95-.28,33.43-.48c22.28-.3,44.58-.63,66.86-1.13l133.72-2.8c44.58-.96,89.14-1.55,133.72-2.06,44.58-.48,89.14-.45,133.72-.43,44.58-.07,89.14,.17,133.72,.36,44.58,.23,89.14,.73,133.72,1.08l131.15,1.15,65.57,.57,75.21,.5-.04,7.01-.29,74.63-.12,66.86c-.02,44.57,.08,89.15,.29,133.72,.43,89.15,1.35,178.3,2.78,267.44l1.71,133.72c.57,44.57,1.18,89.15,1.42,133.72,.43,44.57,.43,89.15,.56,133.72,.05,22.29,.03,44.57-.04,66.86l-.39,75.39-.11,19.03-47.31-.34-31.91-.4-63.82-.95-127.64-2.26-66.86-1.12c-22.29-.4-44.57-.56-66.86-.86-44.57-.64-89.15-.74-133.72-.81-89.15,.14-178.29,.93-267.44,3.72-44.57,1.35-89.15,3.1-133.72,5.43-44.57,2.36-89.15,5.13-133.72,9.21l-38.64-54.05Z"/>
    </g>
    <g class="cls-3">
      <path class="cls-1" d="M1084,1058.97c178.29,4.18,395.23,7.63,573.53,9.39l267.44,2.67,241.85,1.53,.04-6.1,.08-9.35,.08-16.72,.13-33.43,.18-66.86,.06-133.72c-.07-89.15-.36-178.3-.73-267.44l-.52-133.72-.1-133.72-.05-66.86,.23-66.86,.53-122.77,.04-2.61-8.17-.11-11.13-.11-32.79-.22-65.57-.45-131.15-.89c-44.58-.26-89.14-.52-133.72-.78-44.58-.13-89.14-.29-133.72-.22-89.15-.16-178.3,.39-267.44,1.27l-133.72,1.51-66.86,.85-33.43,.43-16.72,.22-4.18,.05-1.78,.03-.93,.03-3.68,.11-6.72,.18,.07,6.49,.04,3.18,.02,1.57v3.23s-.1,29.52-.1,29.52l-.2,59.05-.67,133.73-1.35,267.45-1.84,567.9-53.56-33.77c5.17-89.08,9.13-178.18,12.92-267.28l2.71-66.83c.91-22.27,1.83-44.55,2.59-66.83l4.79-133.67,4.15-133.67c.67-22.28,1.35-44.56,2.02-66.84l1.74-66.84,3.48-133.68c.46-19.68,.87-39.36,1.21-59.04l.46-29.52,.45-35.53,19.12-.08,35.95-.28,33.43-.48c22.28-.3,44.58-.63,66.86-1.13l133.72-2.8c44.58-.96,89.14-1.55,133.72-2.06,44.58-.48,89.14-.45,133.72-.43,44.58-.07,89.14,.17,133.72,.36,44.58,.23,89.14,.73,133.72,1.08l131.15,1.15,65.57,.57,75.21,.5-.04,7.01-.29,74.63-.12,66.86c-.02,44.57,.08,89.15,.29,133.72,.43,89.15,1.35,178.3,2.78,267.44l1.71,133.72c.57,44.57,1.18,89.15,1.42,133.72,.43,44.57,.43,89.15,.56,133.72,.05,22.29,.03,44.57-.04,66.86l-.39,75.39-.11,19.03-47.31-.34-31.91-.4-63.82-.95-127.64-2.26-66.86-1.12c-22.29-.4-44.57-.56-66.86-.86-44.57-.64-89.15-.74-133.72-.81-89.15,.14-178.29,.93-267.44,3.72-44.57,1.35-89.15,3.1-133.72,5.43-44.57,2.36-89.15,5.13-133.72,9.21l-38.64-54.05Z"/>
    </g>
    <g class="cls-2">
      <path class="cls-1" d="M-16-40.03c178.29,4.18,395.23,7.63,573.53,9.39l267.44,2.67,241.85,1.53,.04-6.1,.08-9.35,.08-16.72,.13-33.43,.18-66.86,.06-133.72c-.07-89.15-.36-178.3-.73-267.44l-.52-133.72-.1-133.72-.05-66.86,.23-66.86,.53-122.77,.04-2.61-8.17-.11-11.13-.11-32.79-.22-65.57-.45-131.15-.89c-44.58-.26-89.14-.52-133.72-.78-44.58-.13-89.14-.29-133.72-.22-89.15-.16-178.3,.39-267.44,1.27l-133.72,1.51-66.86,.85-33.43,.43-16.72,.22-4.18,.05-1.78,.03-.93,.03-3.68,.11-6.72,.18,.07,6.49,.04,3.18,.02,1.57v3.23s-.1,29.52-.1,29.52l-.2,59.05-.67,133.73-1.35,267.45L11.02-12.6-42.53-46.37c5.17-89.08,9.13-178.18,12.92-267.28l2.71-66.83c.91-22.27,1.83-44.55,2.59-66.83l4.79-133.67,4.15-133.67c.67-22.28,1.35-44.56,2.02-66.84l1.74-66.84,3.48-133.68c.46-19.68,.87-39.36,1.21-59.04l.46-29.52,.45-35.53,19.12-.08,35.95-.28,33.43-.48c22.28-.3,44.58-.63,66.86-1.13l133.72-2.8c44.58-.96,89.14-1.55,133.72-2.06,44.58-.48,89.14-.45,133.72-.43,44.58-.07,89.14,.17,133.72,.36,44.58,.23,89.14,.73,133.72,1.08l131.15,1.15,65.57,.57,75.21,.5-.04,7.01-.29,74.63-.12,66.86c-.02,44.57,.08,89.15,.29,133.72,.43,89.15,1.35,178.3,2.78,267.44l1.71,133.72c.57,44.57,1.18,89.15,1.42,133.72,.43,44.57,.43,89.15,.56,133.72,.05,22.29,.03,44.57-.04,66.86l-.39,75.39-.11,19.03-47.31-.34-31.91-.4-63.82-.95-127.64-2.26-66.86-1.12c-22.29-.4-44.57-.56-66.86-.86-44.57-.64-89.15-.74-133.72-.81-89.15,.14-178.29,.93-267.44,3.72-44.57,1.35-89.15,3.1-133.72,5.43C111.79,7.18,67.21,9.95,22.64,14.03L-16-40.03Z"/>
    </g>
    <g class="cls-7">
      <path class="cls-1" d="M1084-40.03c178.29,4.18,395.23,7.63,573.53,9.39l267.44,2.67,241.85,1.53,.04-6.1,.08-9.35,.08-16.72,.13-33.43,.18-66.86,.06-133.72c-.07-89.15-.36-178.3-.73-267.44l-.52-133.72-.1-133.72-.05-66.86,.23-66.86,.53-122.77,.04-2.61-8.17-.11-11.13-.11-32.79-.22-65.57-.45-131.15-.89c-44.58-.26-89.14-.52-133.72-.78-44.58-.13-89.14-.29-133.72-.22-89.15-.16-178.3,.39-267.44,1.27l-133.72,1.51-66.86,.85-33.43,.43-16.72,.22-4.18,.05-1.78,.03-.93,.03-3.68,.11-6.72,.18,.07,6.49,.04,3.18,.02,1.57v3.23s-.1,29.52-.1,29.52l-.2,59.05-.67,133.73-1.35,267.45-1.84,567.9-53.56-33.77c5.17-89.08,9.13-178.18,12.92-267.28l2.71-66.83c.91-22.27,1.83-44.55,2.59-66.83l4.79-133.67,4.15-133.67c.67-22.28,1.35-44.56,2.02-66.84l1.74-66.84,3.48-133.68c.46-19.68,.87-39.36,1.21-59.04l.46-29.52,.45-35.53,19.12-.08,35.95-.28,33.43-.48c22.28-.3,44.58-.63,66.86-1.13l133.72-2.8c44.58-.96,89.14-1.55,133.72-2.06,44.58-.48,89.14-.45,133.72-.43,44.58-.07,89.14,.17,133.72,.36,44.58,.23,89.14,.73,133.72,1.08l131.15,1.15,65.57,.57,75.21,.5-.04,7.01-.29,74.63-.12,66.86c-.02,44.57,.08,89.15,.29,133.72,.43,89.15,1.35,178.3,2.78,267.44l1.71,133.72c.57,44.57,1.18,89.15,1.42,133.72,.43,44.57,.43,89.15,.56,133.72,.05,22.29,.03,44.57-.04,66.86l-.39,75.39-.11,19.03-47.31-.34-31.91-.4-63.82-.95-127.64-2.26-66.86-1.12c-22.29-.4-44.57-.56-66.86-.86-44.57-.64-89.15-.74-133.72-.81-89.15,.14-178.29,.93-267.44,3.72-44.57,1.35-89.15,3.1-133.72,5.43-44.57,2.36-89.15,5.13-133.72,9.21l-38.64-54.05Z"/>
    </g>
  </g>
</svg>