<?xml version="1.0" encoding="UTF-8"?>
<svg xmlns="http://www.w3.org/2000/svg" xmlns:xlink="http://www.w3.org/1999/xlink" viewBox="0 0 1080 1080">
  <defs>
    <style>
      .cls-1 {
        fill: #fff;
      }

      .cls-2 {
        fill: #383806;
      }

      .cls-3 {
        clip-path: url(#clippath-1);
      }

      .cls-4 {
        clip-path: url(#clippath);
      }

      .cls-5 {
        fill: none;
      }

      .cls-6 {
        fill: #ffd81f;
      }

      .cls-7 {
        fill: #ffda2e;
      }

      .cls-8 {
        fill: #ff5c27;
      }
    </style>
    <clipPath id="clippath">
      <rect class="cls-5" width="1080" height="1080"/>
    </clipPath>
    <clipPath id="clippath-1">
      <rect class="cls-5" x="1100" width="1080" height="1080"/>
    </clipPath>
  </defs>
  <g id="Camada_1" data-name="Camada 1">
    <rect class="cls-6" x="-.77" y=".2" width="1080.5" height="1080.5"/>
  </g>
  <g id="Camada_2" data-name="Camada 2">
    <g>
      <g>
        <path class="cls-8" d="M299.42,318.04c-31.55,12.92-53.98,44.61-64.54,77.02-10.57,32.42-9.35,67.81-1.57,101.01,7.78,33.2,21.84,64.56,36.78,95.21,16.96,34.8,35.64,69.64,63.57,96.45,27.93,26.81,66.83,44.76,105.11,38.99l-1.78-1.17c-20.98-16.98-21.8-50.97-6.89-73.46,14.91-22.49,41.48-34.78,67.97-39.91,17.76-3.44,36.57-4.09,53.53,2.17,16.97,6.26,31.75,20.42,35.14,38.18l-.06,.58c30.22-26.81,41.12-70.12,37.67-110.37-3.45-40.25-22.27-78.06-47.59-109.53-25.33-31.47-56.99-57.21-89.41-81.31-27.63-20.54-56.72-40.43-89.91-49.59-33.19-9.16-71.6-6.36-98.01,15.72h0Z"/>
        <path class="cls-7" d="M325.7,310.53c.82-.32,1.59-.62,2.31-.91,.73-.28,1.42-.55,2.11-.72,1.37-.38,2.64-.72,3.91-1.07,.32-.08,.64-.17,.96-.26,.33-.06,.66-.13,.99-.2,.67-.13,1.36-.27,2.08-.41,1.44-.29,2.99-.66,4.83-.92,.76-.13,1.55-.27,2.37-.41,.82-.15,1.66-.32,2.54-.42,1.75-.23,3.57-.48,5.38-.72,1.83-.15,3.64-.31,5.36-.45,1.73-.09,3.36-.1,4.82-.12,1.42-.05,2.83,.01,4.25,.07,1.42,.06,2.83,.07,4.25,.16,2.82,.25,5.66,.38,8.47,.8,5.65,.64,11.24,1.81,16.81,3.3,15.69,4.32,30.72,11.28,45.03,19.59,14.34,8.31,28.01,17.97,41.54,27.95,8.92,6.58,17.72,13.3,26.34,20.2,.65,.53,1.46,1.18,2.02,1.63,.25,.2,.43,.34,.68,.53,11.82,9.55,23.27,19.49,34.14,29.96,1.54,1.46,3.58,3.53,5.86,5.77,2.21,2.29,4.67,4.76,6.87,7.17,2.22,2.4,4.29,4.65,5.82,6.45,1.55,1.78,2.65,3.03,2.93,3.41,.95,1.26,4.56,5.4,7.95,9.71,3.42,4.29,6.69,8.71,7.58,10.05,.72,1.01,4.62,6.44,8.39,12.54,1.94,3.01,3.76,6.23,5.37,9,1.57,2.79,2.8,5.19,3.56,6.57,.84,1.61,1.56,3.27,2.34,4.91l1.14,2.47c.37,.83,.7,1.67,1.06,2.5,.69,1.67,1.4,3.34,2.06,5.02,.62,1.69,1.24,3.38,1.87,5.07,2.18,6.17,5.11,15.51,7.07,25.11,2.03,9.59,3.07,19.37,3.53,26.13,0,0-.01,0-.02,0,.11,2.66,.13,5.32,.2,7.99-.08,2.66-.1,5.33-.22,7.99-.07,.71-.12,1.28-.2,2.18-.17,1.71-.25,3.57-.46,5.49-.21,1.92-.42,3.91-.63,5.92-.23,1.68-.56,3.35-.83,5.02l-.43,2.51c-.15,.83-.36,1.65-.54,2.48l-1.12,4.96-1.38,4.89c-.23,.81-.45,1.63-.7,2.44l-.83,2.4c-.56,1.59-1.07,3.21-1.68,4.78-1.31,3.11-2.48,6.28-4.04,9.27l-1.1,2.27-.55,1.14-.62,1.1-2.49,4.39c-.39,.75-.88,1.43-1.34,2.14l-1.39,2.1-1.39,2.1c-.45,.71-1.01,1.34-1.5,2.02l-3.06,4-3.33,3.76-.69,.77-.42,.41-.42,.41-.21,.21-.11,.1s0-.08,0-.12h0s-.1-.41-.1-.41c-.05-.24-.13-.48-.21-.72l-.12-.36c-.03-.06-.05-.12-.06-.15,0-.02,0,0-.02-.04l-.09-.21-.17-.42c-.24-.56-.45-1.13-.71-1.68l-.81-1.63c-.28-.54-.54-1.09-.83-1.62l-.92-1.56c-2.48-4.14-5.52-7.9-8.93-11.22-6.83-6.64-15.13-11.62-24.06-14.67-8.11-2.79-16.56-4.04-24.93-4.29-8.39-.26-16.75,.46-25.05,1.78-14.67,2.35-29.21,6.71-42.57,13.82-6.66,3.57-13.03,7.81-18.72,12.9-5.72,5.08-10.71,10.96-14.83,17.52-1.9,3.14-3.34,6.18-4.53,9.22-1.19,3.04-2.12,6.09-2.88,9.33-.75,3.24-1.33,6.69-1.65,10.54-.3,3.85-.38,8.13,.13,13,.25,2.12,.66,4.71,1.31,7.49,.68,2.78,1.62,5.74,2.84,8.61,1.22,2.86,2.68,5.64,4.3,8.04,.82,1.19,1.6,2.33,2.44,3.32,.2,.25,.4,.5,.6,.74l.07,.09s0,0,0,0c-.02-.03,0,0,0,0l.04,.05c.06,.06,.12,.13,.17,.18,.27,.27,.56,.51,.76,.66,.08,.06,.27,.15,.27,.19-.11,.02-.21,.03-.31,.05-.21,.03-.42,.07-.62,.1-.21,.04-.42,.06-.63,.07-.77,.04-1.53,.08-2.3,.12-1.14,.09-2.28,.04-3.46,.01-1.17-.03-2.37-.06-3.61-.08-1.24,.01-2.52-.18-3.86-.29-1.34-.13-2.74-.26-4.21-.41-7.8-1.06-15.49-2.99-22.96-5.6-7.47-2.62-14.73-5.92-21.62-9.9-6.91-3.95-13.51-8.45-19.75-13.41-6.24-4.97-12.01-10.5-17.51-16.33-5.76-6.14-11.07-12.78-15.98-19.6-7.95-11.24-14.14-21.43-20.91-32.79-6.2-10.44-11.25-19.73-17.1-32-9.39-19.76-18.86-39.33-26.54-59.89-6.07-16.27-10.77-32.04-13.82-48.07-3.02-16.03-4.47-32.38-3.46-49.5,.61-9.94,2.28-19.9,4.5-29.3,.36-1.47,.71-2.93,1.07-4.38,.4-1.44,.83-2.86,1.25-4.28l.64-2.12,.72-2.08c.49-1.38,.94-2.78,1.47-4.14,2.1-5.45,4.49-10.73,7.16-15.91,2.73-5.15,5.66-10.25,9.14-15.16,.43-.62,.85-1.24,1.28-1.87,.43-.62,.91-1.21,1.37-1.82,.92-1.21,1.85-2.43,2.79-3.66,2-2.35,3.96-4.81,6.2-7.1,1.75-1.96,4.27-4.45,7.07-7.15,1.46-1.28,2.94-2.69,4.51-4,1.61-1.26,3.19-2.6,4.79-3.8,1.64-1.14,3.22-2.31,4.72-3.34,1.53-.99,2.96-1.91,4.21-2.73,.31-.2,.62-.4,.91-.59,.3-.17,.59-.33,.87-.49,.55-.32,1.05-.61,1.5-.87,.88-.52,1.51-.93,1.82-1.19,1.48-1.21-1.23-.6,.07-1.73,.76-.65,.38-.83-.86-.64-1.23,.21-3.37,.69-5.98,1.61-5.24,1.81-12.33,5.58-18.19,10.34-12.44,9.99-22.27,22.73-30.1,36.41-4.1,7.14-7.58,14.66-10.46,22.38-2.89,7.72-5.12,15.71-6.62,23.77-1.17,6.42-1.9,12.92-2.25,19.38-.31,6.47-.38,12.89-.26,19.22,.15,6.75,.68,13.38,1.51,20.08,.87,6.69,1.99,13.46,3.32,20.55,1.96,10.2,4.77,20.56,8.16,30.79,3.41,10.23,7.35,20.35,11.46,30.22,4.54,10.89,9.45,21.66,14.55,32.34,5.09,10.68,10.32,21.33,15.84,31.88,5.52,10.55,11.4,20.95,17.84,31.03,3.19,5.06,6.6,9.97,10.09,14.84,3.58,4.8,7.21,9.56,11.13,14.09,2.43,2.93,5.06,5.7,7.65,8.51,2.71,2.71,5.37,5.46,8.25,8.01,1.41,1.3,2.83,2.61,4.33,3.81,1.48,1.22,2.94,2.48,4.45,3.67l4.6,3.48c1.53,1.17,3.15,2.19,4.72,3.3,6.37,4.27,12.98,8.18,19.9,11.38,.86,.41,1.7,.85,2.58,1.22l2.63,1.11c1.76,.72,3.47,1.54,5.27,2.14,1.78,.64,3.56,1.28,5.34,1.93,1.81,.54,3.61,1.09,5.42,1.63,7.75,2.17,15.71,3.64,23.78,4.25l6.06,.2c.51,.01,1.01,.05,1.52,.04l1.52-.06,3.87-.15,1.29-.05c.42-.03,.82-.08,1.23-.12l2.46-.25,5.01-.56,5.01-.56,1.25-.14c.19-.03,.47-.04,.57-.08l.35-.1,1.41-.39c-2.07-1.38-4.65-3.11-6.67-4.51l-2.91-2.05-.73-.51c-.24-.17-.51-.34-.64-.5l-1-.99-1.99-1.97c-.77-.85-.88-1.05-1.21-1.44-.62-.71-1.14-1.5-1.7-2.26-2.16-3.09-3.86-6.52-5.17-10.1-2.58-7.19-3.47-15.03-2.85-22.74,.29-3.86,.99-7.69,2.02-11.43,1.04-3.73,2.41-7.37,4.17-10.8,3.45-6.85,8.5-13.04,14.21-18.36,2.84-2.71,5.98-5.09,9.18-7.39,3.29-2.18,6.64-4.29,10.17-6.09,7.03-3.67,14.48-6.62,22.16-8.83,7.67-2.22,15.57-3.86,23.5-4.83,7.93-.97,15.91-1.19,23.74-.36,9.63,1.03,19.09,3.72,27.22,8.7,8.13,4.92,15.16,11.86,19.35,20.2,.37,.79,.81,1.54,1.1,2.33,.16,.39,.31,.78,.47,1.16,.13,.32,.26,.64,.39,.96,.12,.37,.24,.73,.36,1.09,.17,1.97,.28,3.98,.41,5.85,.03,.47,.06,.94,.09,1.4l.02,.34c0,.12,.02,.2,0,.43-.03,.4-.07,.8-.1,1.2-.13,1.58-.26,3.13-.39,4.63,1.03-.74,2.05-1.48,2.89-2.08h0s.15,0,.15,0h.02s.08-.07,.08-.07l.16-.15,.31-.3,1.24-1.19c.83-.79,1.65-1.58,2.47-2.36,1.63-1.56,3.25-3.11,4.85-4.65,.39-.39,.8-.76,1.16-1.16l1.02-1.14c.46-.51,.91-1.02,1.36-1.52,.89-1.02,1.82-2,2.67-3.03,1.62-2.12,3.28-4.18,4.82-6.31,1.44-2.19,2.95-4.33,4.32-6.55,5.44-8.92,9.81-18.53,13.38-29.55,.39-1.27,.82-2.69,1.22-4.01h0s.19-.67,.19-.67c3.54-12.64,5.36-27.66,5.15-40.77-.04-13.4-1.51-26.88-4.72-39.9l-1.2-4.88-1.39-4.82-.7-2.41-.79-2.38-1.58-4.76c-2.3-6.27-4.73-12.49-7.59-18.49-1.55-3.5-3.37-6.87-5.11-10.29-1.87-3.34-3.69-6.72-5.71-9.98-1.94-3.31-4.08-6.49-6.16-9.7-2.2-3.13-4.33-6.31-6.65-9.34-2.24-3.09-4.64-6.05-6.99-9.04-2.43-2.91-4.81-5.86-7.33-8.67-4.94-5.7-10.09-11.13-15.29-16.41-19.68-19.96-41.47-37.5-63.63-54.2-11.09-8.33-22.31-16.6-34.05-24.24-11.71-7.67-23.98-14.69-36.92-20.49-7.16-3.25-14.52-6.16-22.06-8.58-7.56-2.42-15.34-4.3-23.2-5.5-15.72-2.4-31.98-2.04-47.38,1.93-2.03,.6-4.09,1.19-6.1,1.86-1.99,.77-3.95,1.56-5.85,2.35-1.87,.89-3.66,1.84-5.37,2.75-.86,.43-1.66,.97-2.43,1.47-.77,.51-1.52,1.01-2.24,1.5-.75,.51-1.44,.98-2.07,1.42-.61,.47-1.16,.89-1.67,1.28-1.02,.76-1.87,1.39-2.59,1.93-.36,.27-.69,.52-1,.75-.3,.25-.56,.5-.82,.73-.51,.48-.95,.93-1.38,1.43-2.03,2.37-2.13,3.95-.94,4.78,.81,.57,2.21,.8,3.97,.71,1.79-.06,3.85-.55,6.33-1.05,1.22-.28,2.49-.63,3.79-1.06,1.35-.36,2.75-.76,4.17-1.27,.72-.23,1.41-.56,2.17-.78,.75-.24,1.51-.5,2.27-.78,.76-.28,1.53-.59,2.3-.92,.76-.35,1.59-.59,2.39-.93Z"/>
      </g>
      <path class="cls-2" d="M585.83,663.31c8.42,25.55,21.25,56.46,8.05,87.79-11.88,28.19-38.42,49.73-68.46,55.54-12.55,2.43-26.1,2.14-37.46-3.73-11.36-5.86-19.94-18.14-18.81-30.88,.58-6.59,3.56-13.47,.92-19.53-3.34-7.68-13.23-9.22-21.34-11.27-8.11-2.05-15.15-4.83-18.7-12.4,0,0-19.54-77.36,20.46-96.14,37.85-17.77,109.4-48.14,135.34,30.61Z"/>
    </g>
    <g>
      <g>
        <path class="cls-8" d="M414.06,197.37c-25.89,22.19-37.21,59.32-37.05,93.41,.16,34.1,12.45,67.31,30.27,96.38,17.82,29.07,41.04,54.42,64.86,78.81,27.05,27.7,55.74,54.9,90.68,71.56,34.94,16.67,77.52,21.47,112.04,3.95l-2.06-.55c-25.25-9.52-36.72-41.53-29.64-67.57,7.08-26.04,28.44-46.06,51.97-59.26,15.77-8.85,33.43-15.38,51.5-14.77,18.08,.61,36.56,9.4,45.36,25.2l.12,.57c20.25-34.95,16.98-79.49,1.05-116.62-15.93-37.12-45.68-67.09-79.62-89-33.94-21.91-72.09-36.39-110.45-49.07-32.69-10.81-66.56-20.54-100.94-18.8s-69.96,16.48-88.09,45.75h0Z"/>
        <path class="cls-7" d="M436.65,181.97c.68-.56,1.31-1.09,1.91-1.59,.6-.5,1.17-.96,1.77-1.35,1.19-.79,2.28-1.52,3.38-2.25l.83-.54c.29-.16,.59-.33,.88-.5,.59-.34,1.2-.68,1.84-1.04,1.27-.73,2.63-1.56,4.3-2.39,.68-.36,1.39-.74,2.12-1.14,.73-.4,1.48-.83,2.28-1.2,1.59-.77,3.24-1.58,4.88-2.38,1.69-.72,3.36-1.43,4.95-2.11,1.61-.63,3.16-1.15,4.54-1.63,1.33-.49,2.69-.88,4.06-1.27,1.36-.39,2.71-.83,4.08-1.18,2.76-.65,5.49-1.42,8.29-1.9,5.57-1.17,11.24-1.82,17-2.15,16.26-.83,32.7,1.05,48.91,4.43,16.23,3.38,32.24,8.25,48.22,13.47,10.54,3.44,21,7.05,31.36,10.89,.79,.3,1.75,.66,2.44,.91,.3,.11,.52,.19,.81,.29,14.22,5.35,28.22,11.19,41.83,17.71,1.93,.9,4.51,2.22,7.38,3.63,2.82,1.48,5.93,3.05,8.78,4.65,2.86,1.58,5.53,3.07,7.55,4.29,2.03,1.2,3.47,2.04,3.86,2.32,1.29,.89,6.02,3.69,10.6,6.71,4.6,3,9.09,6.17,10.36,7.15,1,.73,6.41,4.66,11.9,9.26,2.79,2.25,5.53,4.73,7.93,6.86,2.37,2.15,4.29,4.04,5.44,5.12,1.3,1.26,2.51,2.62,3.76,3.93l1.86,1.98c.61,.67,1.19,1.36,1.79,2.04,1.18,1.37,2.38,2.73,3.53,4.11,1.12,1.41,2.25,2.82,3.37,4.23,4.01,5.17,9.73,13.12,14.61,21.61,4.94,8.46,9,17.43,11.56,23.69,0,0-.01,0-.02,0,.94,2.49,1.8,5.01,2.7,7.52,.76,2.55,1.58,5.09,2.3,7.65,.16,.69,.29,1.25,.49,2.13,.37,1.68,.89,3.47,1.29,5.35,.41,1.89,.83,3.85,1.26,5.82,.31,1.67,.52,3.35,.79,5.03l.38,2.52c.12,.84,.18,1.68,.27,2.53l.5,5.06,.23,5.07c.03,.85,.09,1.69,.1,2.54l-.03,2.53c-.03,1.69,0,3.38-.09,5.07-.26,3.36-.38,6.75-.92,10.07l-.33,2.51-.16,1.25-.24,1.24-.98,4.95c-.14,.83-.38,1.64-.6,2.45l-.66,2.43-.65,2.43c-.2,.82-.53,1.59-.79,2.39l-1.65,4.76-1.98,4.62-.41,.95-.27,.52-.27,.52-.14,.26-.07,.13s-.02-.08-.04-.11h0s-.22-.35-.22-.35c-.12-.22-.27-.42-.42-.62l-.23-.3s-.09-.1-.1-.13c-.01-.01,0,0-.03-.03l-.15-.17-.3-.35c-.4-.46-.79-.93-1.2-1.37l-1.28-1.29c-.43-.42-.85-.86-1.29-1.27l-1.37-1.19c-3.66-3.15-7.72-5.76-12.01-7.84-8.57-4.16-18.02-6.28-27.45-6.36-8.58-.1-16.99,1.37-25.02,3.76-8.05,2.4-15.76,5.7-23.22,9.57-13.19,6.85-25.62,15.55-36.06,26.5-5.2,5.48-9.91,11.51-13.72,18.14-3.83,6.62-6.72,13.77-8.57,21.3-.82,3.58-1.23,6.91-1.4,10.17-.17,3.26-.1,6.45,.2,9.77,.31,3.32,.84,6.76,1.75,10.52,.93,3.75,2.19,7.83,4.21,12.3,.9,1.94,2.11,4.26,3.6,6.7,1.52,2.42,3.35,4.94,5.4,7.28,2.06,2.34,4.32,4.51,6.61,6.28,1.15,.87,2.25,1.71,3.36,2.39,.27,.17,.54,.34,.8,.51l.1,.06s0,0,0,0c-.03-.02,0,0,0,0l.06,.03c.08,.04,.15,.08,.22,.12,.34,.18,.69,.31,.92,.39,.1,.03,.3,.05,.32,.09-.09,.05-.19,.1-.28,.14-.19,.1-.37,.2-.55,.29-.18,.1-.38,.18-.58,.27-.72,.28-1.43,.56-2.14,.84-1.05,.45-2.16,.75-3.28,1.1-1.12,.34-2.27,.69-3.45,1.05-1.18,.4-2.45,.62-3.75,.94-1.31,.3-2.68,.61-4.13,.94-7.73,1.45-15.64,2.04-23.56,1.9-7.91-.14-15.84-.99-23.64-2.6-7.8-1.58-15.48-3.77-22.96-6.52-7.48-2.75-14.71-6.19-21.76-10-7.4-4.01-14.52-8.65-21.33-13.58-11.08-8.17-20.16-15.89-30.16-24.55-9.17-7.96-16.89-15.19-26.29-25-15.13-15.8-30.27-31.41-44.02-48.5-10.88-13.54-20.3-27.03-28.24-41.29-7.9-14.27-14.43-29.33-18.85-45.9-2.55-9.63-4.09-19.6-4.94-29.23-.12-1.51-.24-3-.36-4.49-.08-1.49-.11-2.98-.16-4.45l-.06-2.21,.03-2.21c.03-1.47,.02-2.93,.09-4.39,.27-5.84,.89-11.6,1.8-17.35,.97-5.74,2.15-11.51,3.91-17.27,.21-.72,.42-1.45,.63-2.17,.21-.73,.48-1.44,.72-2.16,.5-1.44,.99-2.89,1.5-4.35,1.16-2.86,2.24-5.81,3.65-8.69,1.04-2.41,2.65-5.57,4.47-9.01,.99-1.67,1.94-3.48,3.02-5.22,1.13-1.7,2.21-3.47,3.35-5.12,1.2-1.6,2.33-3.2,3.43-4.65,1.14-1.42,2.21-2.75,3.14-3.91,.23-.29,.46-.58,.68-.85,.23-.26,.46-.5,.67-.74,.42-.48,.81-.91,1.15-1.29,.67-.77,1.14-1.36,1.36-1.7,1.02-1.61-1.36-.18-.47-1.66,.52-.85,.1-.91-1.02-.34-1.1,.58-2.98,1.71-5.17,3.4-4.4,3.36-9.95,9.17-14.01,15.53-8.67,13.39-14,28.58-17.12,44.02-1.65,8.07-2.59,16.3-2.89,24.54-.31,8.24,.08,16.53,1.19,24.65,.91,6.46,2.26,12.86,3.95,19.11,1.74,6.23,3.69,12.35,5.8,18.33,2.26,6.36,4.85,12.49,7.74,18.59,2.93,6.08,6.12,12.16,9.61,18.46,5.07,9.07,10.99,18.01,17.43,26.66,6.46,8.63,13.37,17.01,20.38,25.08,7.73,8.91,15.78,17.59,23.98,26.12,8.19,8.53,16.5,17.01,25.06,25.28,8.55,8.28,17.41,16.31,26.69,23.85,4.62,3.8,9.41,7.39,14.24,10.91,4.9,3.43,9.85,6.81,14.99,9.87,3.23,2.01,6.59,3.82,9.94,5.67,3.42,1.72,6.81,3.49,10.35,5.01,1.75,.79,3.5,1.58,5.31,2.26,1.79,.69,3.57,1.44,5.38,2.08l5.46,1.86c1.82,.63,3.68,1.09,5.52,1.64,7.39,2.05,14.9,3.69,22.47,4.55,.95,.11,1.88,.28,2.83,.35l2.84,.23c1.9,.13,3.78,.37,5.68,.37,1.89,.05,3.78,.1,5.67,.15,1.89-.05,3.77-.1,5.65-.16,8.04-.37,16.06-1.49,23.91-3.45l5.82-1.71c.48-.15,.97-.27,1.45-.44l1.42-.53,3.62-1.36,1.21-.45c.39-.16,.75-.33,1.13-.5l2.26-1.01,4.58-2.11,4.58-2.11,1.15-.53c.17-.08,.43-.19,.52-.25l.3-.2,1.21-.81c-2.4-.66-5.39-1.49-7.75-2.18l-3.41-1.03-.85-.26c-.29-.09-.59-.17-.77-.28l-1.26-.62-2.51-1.25c-1-.57-1.16-.72-1.6-.99-.81-.48-1.55-1.07-2.32-1.61-3.02-2.26-5.71-4.98-8.09-7.96-4.71-6.01-8.02-13.18-9.85-20.69-.94-3.76-1.48-7.61-1.67-11.48-.19-3.87-.03-7.75,.56-11.56,1.12-7.58,3.97-15.05,7.72-21.9,1.84-3.46,4.08-6.71,6.39-9.9,2.43-3.11,4.95-6.16,7.74-8.98,5.52-5.7,11.66-10.83,18.26-15.35,6.58-4.52,13.57-8.56,20.79-11.98,7.22-3.42,14.73-6.13,22.42-7.81,9.47-2.05,19.29-2.47,28.57-.3,9.27,2.12,18.12,6.49,24.72,13.09,.59,.63,1.25,1.2,1.78,1.86,.27,.32,.54,.64,.81,.96,.23,.26,.45,.52,.67,.78,.23,.31,.46,.62,.68,.92,.78,1.82,1.51,3.69,2.23,5.43,.18,.44,.35,.87,.53,1.3l.13,.32c.04,.11,.09,.18,.13,.41,.09,.39,.19,.78,.28,1.17,.37,1.55,.73,3.05,1.09,4.52,.74-1.03,1.48-2.05,2.09-2.89h0s.14-.05,.14-.05h.02s.05-.1,.05-.1l.1-.19,.2-.38,.81-1.52c.54-1.01,1.07-2.02,1.6-3.02,1.06-2,2.11-3.98,3.14-5.94,.24-.49,.52-.98,.73-1.47l.61-1.4c.27-.63,.54-1.25,.81-1.87,.53-1.25,1.1-2.47,1.58-3.71,.87-2.53,1.8-5,2.59-7.51,.68-2.54,1.44-5.04,2.04-7.58,2.36-10.18,3.49-20.67,3.41-32.26-.03-1.33-.07-2.81-.11-4.19h0s-.03-.7-.03-.7c-.62-13.11-3.61-27.95-7.93-40.33-4.26-12.71-9.89-25.04-17.03-36.39l-2.67-4.26-2.84-4.14-1.42-2.07-1.5-2.01-3-4.02c-4.16-5.22-8.42-10.37-13.02-15.17-2.57-2.83-5.36-5.46-8.08-8.16-2.82-2.59-5.61-5.22-8.56-7.67-2.88-2.53-5.92-4.87-8.9-7.27-3.07-2.28-6.09-4.63-9.25-6.78-3.1-2.23-6.31-4.29-9.48-6.38-3.23-2-6.41-4.05-9.68-5.92-6.48-3.85-13.08-7.4-19.67-10.77-24.96-12.75-51.16-22.55-77.45-31.44-13.15-4.42-26.4-8.74-39.95-12.3-13.53-3.6-27.39-6.4-41.49-7.84-7.82-.84-15.72-1.29-23.64-1.21-7.93,.08-15.91,.74-23.76,2.07-15.68,2.67-31,8.12-44.37,16.73-1.74,1.2-3.5,2.41-5.2,3.69-1.65,1.35-3.26,2.72-4.82,4.07-1.49,1.43-2.9,2.9-4.23,4.3-.68,.68-1.27,1.44-1.85,2.16-.57,.73-1.12,1.44-1.66,2.13-.55,.72-1.06,1.39-1.52,2-.43,.63-.82,1.21-1.19,1.74-.73,1.05-1.33,1.91-1.85,2.65-.26,.37-.49,.71-.72,1.03-.21,.33-.38,.65-.55,.95-.33,.61-.61,1.18-.86,1.79-1.18,2.89-.78,4.42,.62,4.83,.95,.28,2.34,.06,4-.57,1.68-.62,3.48-1.74,5.68-2.99,1.07-.65,2.16-1.38,3.26-2.2,1.17-.77,2.38-1.59,3.56-2.51,.61-.45,1.16-.97,1.81-1.42,.64-.46,1.27-.95,1.91-1.46,.63-.51,1.26-1.04,1.89-1.6,.62-.57,1.32-1.06,1.97-1.63Z"/>
      </g>
      <path class="cls-2" d="M794.53,435.05c16.02,21.61,37.93,46.91,35.25,80.8-2.41,30.5-20.83,59.28-47.51,74.25-11.15,6.26-24.1,10.23-36.73,8.24s-24.63-10.95-27.57-23.4c-1.52-6.44-.85-13.9-5.26-18.83-5.58-6.24-15.46-4.59-23.8-3.98-8.35,.61-15.9,.18-21.66-5.89,0,0-42.88-67.29-10.81-97.7,30.34-28.77,88.71-80.1,138.1-13.5Z"/>
    </g>
  </g>
  <g id="Camada_3" data-name="Camada 3">
    <g class="cls-4">
      <path class="cls-1" d="M-16,1059.97c178.29,4.18,395.23,7.63,573.53,9.39l267.44,2.67,241.85,1.53,.04-6.1,.08-9.35,.08-16.72,.13-33.43,.18-66.86,.06-133.72c-.07-89.15-.36-178.3-.73-267.44l-.52-133.72-.1-133.72-.05-66.86,.23-66.86,.53-122.77,.04-2.61-8.17-.11-11.13-.11-32.79-.22-65.57-.45-131.15-.89c-44.58-.26-89.14-.52-133.72-.78-44.58-.13-89.14-.29-133.72-.22-89.15-.16-178.3,.39-267.44,1.27l-133.72,1.51-66.86,.85-33.43,.43-16.72,.22-4.18,.05-1.78,.03-.93,.03-3.68,.11-6.72,.18,.07,6.49,.04,3.18,.02,1.57v3.23s-.1,29.52-.1,29.52l-.2,59.05-.67,133.73-1.35,267.45-1.84,567.9-53.56-33.77c5.17-89.08,9.13-178.18,12.92-267.28l2.71-66.83c.91-22.27,1.83-44.55,2.59-66.83l4.79-133.67,4.15-133.67c.67-22.28,1.35-44.56,2.02-66.84l1.74-66.84,3.48-133.68c.46-19.68,.87-39.36,1.21-59.04l.46-29.52,.45-35.53,19.12-.08,35.95-.28,33.43-.48c22.28-.3,44.58-.63,66.86-1.13l133.72-2.8c44.58-.96,89.14-1.55,133.72-2.06,44.58-.48,89.14-.45,133.72-.43,44.58-.07,89.14,.17,133.72,.36,44.58,.23,89.14,.73,133.72,1.08l131.15,1.15,65.57,.57,75.21,.5-.04,7.01-.29,74.63-.12,66.86c-.02,44.57,.08,89.15,.29,133.72,.43,89.15,1.35,178.3,2.78,267.44l1.71,133.72c.57,44.57,1.18,89.15,1.42,133.72,.43,44.57,.43,89.15,.56,133.72,.05,22.29,.03,44.57-.04,66.86l-.39,75.39-.11,19.03-47.31-.34-31.91-.4-63.82-.95-127.64-2.26-66.86-1.12c-22.29-.4-44.57-.56-66.86-.86-44.57-.64-89.15-.74-133.72-.81-89.15,.14-178.29,.93-267.44,3.72-44.57,1.35-89.15,3.1-133.72,5.43-44.57,2.36-89.15,5.13-133.72,9.21l-38.64-54.05Z"/>
    </g>
    <g class="cls-3">
      <path class="cls-1" d="M1084,1059.97c178.29,4.18,395.23,7.63,573.53,9.39l267.44,2.67,241.85,1.53,.04-6.1,.08-9.35,.08-16.72,.13-33.43,.18-66.86,.06-133.72c-.07-89.15-.36-178.3-.73-267.44l-.52-133.72-.1-133.72-.05-66.86,.23-66.86,.53-122.77,.04-2.61-8.17-.11-11.13-.11-32.79-.22-65.57-.45-131.15-.89c-44.58-.26-89.14-.52-133.72-.78-44.58-.13-89.14-.29-133.72-.22-89.15-.16-178.3,.39-267.44,1.27l-133.72,1.51-66.86,.85-33.43,.43-16.72,.22-4.18,.05-1.78,.03-.93,.03-3.68,.11-6.72,.18,.07,6.49,.04,3.18,.02,1.57v3.23s-.1,29.52-.1,29.52l-.2,59.05-.67,133.73-1.35,267.45-1.84,567.9-53.56-33.77c5.17-89.08,9.13-178.18,12.92-267.28l2.71-66.83c.91-22.27,1.83-44.55,2.59-66.83l4.79-133.67,4.15-133.67c.67-22.28,1.35-44.56,2.02-66.84l1.74-66.84,3.48-133.68c.46-19.68,.87-39.36,1.21-59.04l.46-29.52,.45-35.53,19.12-.08,35.95-.28,33.43-.48c22.28-.3,44.58-.63,66.86-1.13l133.72-2.8c44.58-.96,89.14-1.55,133.72-2.06,44.58-.48,89.14-.45,133.72-.43,44.58-.07,89.14,.17,133.72,.36,44.58,.23,89.14,.73,133.72,1.08l131.15,1.15,65.57,.57,75.21,.5-.04,7.01-.29,74.63-.12,66.86c-.02,44.57,.08,89.15,.29,133.72,.43,89.15,1.35,178.3,2.78,267.44l1.71,133.72c.57,44.57,1.18,89.15,1.42,133.72,.43,44.57,.43,89.15,.56,133.72,.05,22.29,.03,44.57-.04,66.86l-.39,75.39-.11,19.03-47.31-.34-31.91-.4-63.82-.95-127.64-2.26-66.86-1.12c-22.29-.4-44.57-.56-66.86-.86-44.57-.64-89.15-.74-133.72-.81-89.15,.14-178.29,.93-267.44,3.72-44.57,1.35-89.15,3.1-133.72,5.43-44.57,2.36-89.15,5.13-133.72,9.21l-38.64-54.05Z"/>
    </g>
  </g>
</svg>