<?xml version="1.0" encoding="UTF-8"?>
<svg xmlns="http://www.w3.org/2000/svg" xmlns:xlink="http://www.w3.org/1999/xlink" viewBox="0 0 1080 1080">
  <defs>
    <style>
      .cls-1 {
        fill: #fff;
      }

      .cls-2 {
        clip-path: url(#clippath-2);
      }

      .cls-3 {
        fill: #ffdb2e;
      }

      .cls-4 {
        clip-path: url(#clippath-1);
      }

      .cls-5 {
        clip-path: url(#clippath);
      }

      .cls-6 {
        fill: none;
      }

      .cls-7 {
        clip-path: url(#clippath-3);
      }

      .cls-8 {
        fill: #ffd81f;
      }

      .cls-9 {
        fill: #fb4000;
      }

      .cls-10 {
        fill: #ff5c27;
      }
    </style>
    <clipPath id="clippath">
      <rect class="cls-6" y="-1101" width="1080" height="1080"/>
    </clipPath>
    <clipPath id="clippath-1">
      <rect class="cls-6" width="1080" height="1080"/>
    </clipPath>
    <clipPath id="clippath-2">
      <rect class="cls-6" x="1100" width="1080" height="1080"/>
    </clipPath>
    <clipPath id="clippath-3">
      <rect class="cls-6" x="1100" y="-1101" width="1080" height="1080"/>
    </clipPath>
  </defs>
  <g id="Camada_1" data-name="Camada 1">
    <rect class="cls-8" x="-.77" y="-.8" width="1080.5" height="1080.5"/>
  </g>
  <g id="Camada_2" data-name="Camada 2">
    <g>
      <path class="cls-10" d="M472.31,447.63c-30.5,15.99-66.44,21.36-100.29,14.98,17.28,21.53,43.59,35.55,71.09,37.91-23.86,14.27-52.94,19.56-80.3,14.62,18.89,13.8,38.11,27.78,60.12,35.69,22.01,7.91,47.6,9.05,67.98-2.42-9,21.12-29.72,36.78-52.49,39.68,22.79,8.38,46.33,16.88,70.58,15.79,24.25-1.1,49.65-14.27,57.58-37.22"/>
      <path class="cls-3" d="M556.72,574.86c-1.71,2.56-2.85,3.52-5.11,5.81-.23,.24-.46,.5-.71,.77-.26,.25-.54,.51-.82,.77-.55,.54-1.12,1.1-1.68,1.66-1.15,1.1-2.4,2.09-3.38,2.9-3.99,2.93-8.25,5.58-12.95,7.52-13.26,5.63-28.1,6.34-42.65,4.11-4.8-.71-9.57-1.71-14.31-2.96-.36-.09-.8-.21-1.12-.29-.14-.04-.24-.06-.37-.1-3.26-.89-6.51-1.83-9.75-2.86-1.62-.5-3.24-1.02-4.86-1.56l-2.43-.8-.97-.33-.19-.06c-.56-.16-2.32-.72-2.27-.77,0,0,0-.01-.02-.02l-.04-.02s.03,0,.05-.01c.07-.02,.17-.04,.3-.06,.15-.03,.32-.11,.52-.2,.2-.08,.42-.2,.52-.22,.08-.03,.16-.06,.49-.2,.23-.1,.49-.22,.77-.35,.14-.06,.29-.13,.44-.2l.23-.1,.51-.25c.78-.38,1.58-.77,2.35-1.15,.78-.37,1.53-.75,2.19-1.15,1.35-.77,2.49-1.41,3.14-1.81,3.01-1.81,6.01-3.68,8.79-5.82,.63-.49,1.34-1.04,2.11-1.63,.75-.62,1.52-1.33,2.34-2.05,.41-.37,.83-.74,1.25-1.12,.4-.41,.81-.82,1.22-1.24,.81-.85,1.7-1.67,2.46-2.6,.78-.91,1.57-1.83,2.34-2.73,.37-.46,.71-.94,1.06-1.4,.46-.62,.91-1.23,1.35-1.83,1.13-1.56,1.91-3.07,2.71-4.45,.78-1.38,1.53-2.68,2.1-3.79h.02s2.44-5.16,2.44-5.16l2.52-5.43c.25-.51,.45-.92,.77-1.56,.29-.74,.51-1.41,.77-2.22-1.76,.94-3.82,2.03-5.91,3.14l-3.93,2.01-1.96,1-.98,.5-.87,.37-6.97,2.9c-.28,.1-.54,.2-.9,.29l-.52,.15-.89,.25-1.78,.51c-1.2,.3-2.42,.54-3.63,.81-4.87,.95-9.87,1.38-14.87,1.36-5.01-.02-10.04-.47-15.02-1.3-4.98-.86-9.9-2.08-14.73-3.63-6.78-2.16-13.34-4.92-19.72-8.44-5.63-3.13-11.21-6.44-16.57-10.15-2.69-1.84-5.37-3.71-8.02-5.62l-1.39-1c-.15-.12-.31-.23-.46-.34l-.89-.66c-.34-.26-.72-.5-1.17-.78-.23-.15-.46-.29-.71-.45-.12-.08-.24-.16-.37-.24-.11-.08-.32-.2-.15-.16,.44,.06,1.28,.24,2.25,.46,.45,.09,1.09,.22,1.73,.34,.13,.02,.25,.05,.38,.07l.17,.03h.08s.41,.03,.41,.03c1.24,.06,2.38,.09,3.3,.04,1.71-.06,3.21-.09,4.6-.19,1.39-.12,2.67-.24,3.95-.35,1.28-.09,2.55-.32,3.93-.49,.69-.09,1.41-.19,2.16-.29,.75-.11,1.54-.26,2.39-.4,7.48-1.37,14.83-3.39,21.93-6.05,1.79-.62,3.53-1.39,5.27-2.12,.88-.36,1.75-.73,2.6-1.15l1.99-.93c.73-.34,1.47-.67,2.12-1.03l2.01-1.06,1.87-1.07,3.73-2.13c2.48-1.42,4.9-2.88,7.35-4.31l.87-.51c.19-.14,.32-.26,.49-.4l.96-.79c-2.97-.3-5.97-.57-8.89-.94l-4.44-.53-2.25-.27-1.13-.14-1-.19c-.71-.13-1.41-.26-2.11-.39-.67-.16-1.33-.31-1.98-.46-.87-.21-1.72-.41-2.57-.62-1.38-.4-2.73-.79-4.08-1.19-2.67-.83-5.32-1.63-8.07-2.59-5.06-1.7-9.42-3.46-14.48-6.64-4.05-2.57-8.03-5.22-11.76-8.22-.95-.73-1.89-1.47-2.78-2.27l-2.72-2.35-1.3-1.24-.47-.43c-.25-.23-.48-.48-.71-.72-.27-.29-.53-.56-.77-.86-.12-.14-.24-.28-.35-.42l-.17-.21-.08-.1s.05,0,.08,0c2.25,.39,1.42,.39,9.67,1.11,6.25,.38,12.56,.58,19.15,.31,2.35-.07,4.71-.2,7.06-.29,2.35-.15,4.68-.41,6.95-.75,5.64-1.08,10.98-2.12,16.35-3.48,5.39-1.27,10.78-2.93,16.54-5.02,1.17-.46,2.72-1.15,4.41-1.94,1.69-.78,3.46-1.82,5.13-2.76,.83-.48,1.64-.94,2.37-1.43,.7-.55,1.37-1,1.94-1.44,1.14-.87,1.94-1.56,2.15-1.95,.49-.9-.96-.95-.56-1.81,.46-.98-1.21-1.16-3.73-.86-2.51,.33-5.89,1.06-8.84,2.33-6.29,2.54-12.68,4.84-19.25,6.59l-5.17,1.25-5.22,1c-1.74,.34-3.5,.55-5.24,.84-1.74,.33-3.49,.55-5.23,.81-2.77,.47-5.55,.85-8.33,1.28-1.39,.22-2.78,.31-4.17,.44-1.39,.1-2.77,.24-4.15,.19-1.47-.02-2.92,0-4.38,.02-1.46,.02-2.91-.05-4.38-.07-1.47-.03-2.95-.06-4.45-.21-.75-.07-1.51-.14-2.27-.21-.38-.04-.77-.08-1.15-.13l-.58-.07-.29-.04c-.1-.01-.17-.02-.38-.06-3.48-.58-7.15-1.15-10.84-1.69-3.65-.59-7.33-1.19-11.04-1.78,.11,.17,.18,.32,.32,.5l.58,.67,1.16,1.34,2.32,2.69c1.55,1.82,3.09,3.52,4.62,5.22,1.54,1.7,3.01,3.4,4.7,5.08l2.32,2.21c.52,.48,1.01,.98,1.54,1.44,4.06,3.66,8.44,6.99,13.02,10.04,4.59,3.04,9.46,5.64,14.46,7.97,4.99,2.35,10.23,4.15,15.51,5.73,1.33,.36,2.65,.78,3.99,1.09l1.29,.3,.39,.1,1.3,.29,.13,.03,.22,.02h.11s-.06,.04-.08,.06l-.39,.21-.73,.4-.36,.2c-.13,.06-.29,.1-.38,.18l-.17,.11-1.09,.49c-.74,.31-1.48,.59-2.22,.89-5.92,2.36-12,4.23-18.09,5.5-7.16,1.42-14.41,2.39-21.71,2.57-.91,.02-1.82,.07-2.73,.06l-3.46-.06c-3.24-.04-6.98-.58-10.54-.94l-2.69-.3-2.89-.42-5.8-.84-10.73-1.6,.44,.39c.21,.16,.52,.37,.77,.55l1.6,1.13,3.19,2.25,6.22,4.38,6.04,4.26,5.95,4.15,2.96,2.05c.5,.32,1.01,.64,1.48,.98l1.07,.73,3.4,2.26c2.27,1.5,4.57,2.97,6.89,4.42,4.67,2.84,9.31,5.75,14.16,8.33,4.84,2.61,9.81,5,14.94,7.07,8.64,3.56,17.81,6.2,27.15,7.54,6.35,.89,12.01,1.04,17.61,.76,5.61-.31,11.18-1.03,17.39-2.52,.3-.07,.61-.15,.93-.23l.22-.05s-.02,0-.02,0l.11-.02h0s.07-.02,.07-.02c.75-.15,1.37-.35,2.05-.72l.39-.21,.05-.03s0,.03-.01,.04l-.04,.09-.07,.17c-.09,.23-.17,.47-.28,.68-.34,.6-.69,1.16-1.1,1.69l-1.03,1.36c-.4,.57-.88,1.07-1.33,1.61-.91,1.06-1.8,2.13-2.81,3.09-3.89,3.98-8.3,7.43-13.05,10.24-1.68,1.06-3.47,1.91-5.22,2.84l-2.71,1.22-.68,.31-.34,.15c-.11,.05-.39,.14-.57,.2l-2.48,.86-2.47,.86-1.23,.43-1.78,.34c-2.36,.45-4.71,.91-7.07,1.36-5.16,.85-10.31,1.7-15.44,2.55l2.02,.93,.49,.23,.25,.11,.4,.14,1.6,.58c2.11,.77,4.21,1.53,6.31,2.29,4.14,1.5,8.26,2.99,12.34,4.46l3.86,1.38,3.64,1.25c1.49,.52,3,.99,4.49,1.49,3.01,.97,6.04,1.9,9.09,2.77,6.11,1.74,12.33,3.23,18.67,4.29,6.34,1.06,12.79,1.67,19.29,1.65,6.48,0,13.11-.74,19.46-2.31,7.08-1.63,14.07-3.97,20.62-7.35,6.53-3.37,12.65-7.83,17.38-13.55,1.22-1.55,2.48-3.12,3.37-4.84,.48-.84,.92-1.66,1.33-2.46,.36-.83,.65-1.65,.91-2.42,.27-.81,.5-1.47,.71-2.02,.21-.55,.32-1.03,.45-1.43,.24-.8,.39-1.35,.42-1.97,.07-1.48-.58-2.23-1.63-2.4-1.42-.24-3.54,.53-5.48,1.92-2.05,1.36-4.02,3.28-5.62,5.83Z"/>
    </g>
    <g>
      <path class="cls-10" d="M607.28,548.09c-39.27,26.73-67.02,69.82-75.1,116.62,20.38-23.63,51.12-37.99,82.32-38.44-15.54,8.24-29.36,19.69-40.34,33.42,19.78,.21,39.47,5.66,56.55,15.64-19.71-1.68-39.98,4.63-55.26,17.19,26.12,2.68,48.9,25.02,52.08,51.08l15.47,35.36,75-78.96-15-113.42-95.72-38.49Z"/>
      <path class="cls-3" d="M621.46,558.55c4.38,1.65,6.32,2.73,10.85,4.58,3.74,1.53,9.08,3.38,12.6,4.76,6.85,2.69,13.7,5.14,20.57,7.86,9.65,3.85,19.31,7.7,28.96,11.55l3.62,1.45,1.12,.45c.1,.05,.23,.07,.3,.14l.74,5.6,2.04,15.46,2.63,20.38c.06,.52,.14,1.15,.2,1.6,.03,.2,.05,.34,.07,.53,1.2,9.35,2.4,18.7,3.68,28.03,.72,5.26,2.49,18.22,2.59,19.41,.09,.98,.57,4.38,1.09,7.79,.54,3.4,1.07,6.81,1.23,7.8,.03,.19,.09,.59,.18,1.16,.04,.28,.09,.61,.15,.96,.01,.09,.03,.18,.04,.27v.06s.04,.13,.04,.13c.01,.09,.06,.2,.05,.29-.06,.08-.13,.17-.2,.26l-.06,.07-.03,.03-.13,.15c-.18,.2-.36,.4-.54,.6-.37,.4-.74,.82-1.12,1.23-3.02,3.33-6.24,6.88-7.57,8.35-3.11,3.32-6.32,6.57-9.51,9.79-5.8,5.87-17.23,17.63-22.93,24.01h0c-2.31,2.44-4.63,4.89-6.94,7.34-.32,.32-.57,.58-.98,.98-1.53,1.55-3.23,3.41-4.95,5.31l-14.38,15.21c-.27,.27-.53,.55-.79,.83-.08,.14-.1-.06-.14-.11l-.12-.26-.23-.53-3.86-8.76-8.67-19.59-.45-1.01s-.02-.05-.03-.07c0-.03-.01-.07,0,0l-.11-.63-.49-2.8c-.13-.94-.39-1.85-.64-2.76l-.75-2.73c-.55-1.8-1.28-3.54-1.92-5.31-.79-1.7-1.57-3.42-2.44-5.08-2.52-4.62-5.61-8.84-9.06-12.74-3.49-3.87-7.48-7.28-11.77-10.36l-2.93-1.94c-.97-.66-2.04-1.16-3.06-1.74-2.02-1.2-4.22-2.06-6.37-3.03-1.09-.44-2.22-.78-3.33-1.18l-1.68-.57c-.28-.1-.57-.15-.85-.23l-.68-.17-.86-.23-.8-.13c-.11-.03-.32-.03-.34-.08l.33-.25c.22-.17,.44-.34,.67-.49,.23-.15,.44-.31,.68-.45l1.11-.7c.45-.3,.92-.58,1.39-.83,3.74-2.19,7.67-4.05,11.74-5.53,3.84-1.39,7.1-2.37,10.75-3.22,3.66-.77,7.73-1.42,13.19-1.47,2.1-.06,5.02,.06,8.09,.33l12.87,1.13-11.1-6.7c-3.4-2.05-7.14-4.01-9.67-5.17-4.22-1.91-7.47-3.12-10.76-4.25-3.3-1.07-6.62-2.09-11.12-3.17-4.31-1.01-8.68-1.79-13.08-2.32-1.1-.13-2.2-.27-3.3-.36l-1.66-.15-.83-.07h-.23c-.58-.04-1.13-.05-1.69-.06,.11-.22,.4-.54,.61-.8l.35-.42,.77-.86c1.86-2.08,3.82-4.07,5.82-6.01,4.03-3.86,8.28-7.5,12.79-10.8l1.57-1.14,1.87-1.29c1.84-1.28,3.95-2.52,6.02-3.78,4.28-2.52,9.44-5.23,14.3-7.88,.71-.38,1.42-.76,2.03-1.09-.47-.04-.93-.08-1.39-.11-.16-.03-.67,0-1.05,.01l-1.2,.04c-1.61,.05-3.2,.11-4.77,.16-3.23,.09-6.18,.29-9.26,.46-2.98,.12-6.29,.48-9.77,1.08-2.01,.28-3.86,.76-5.83,1.22-7.49,1.9-13.82,4.05-21.74,7.3-6.36,2.66-12.46,5.94-18.18,9.79-1.42,.98-2.81,2-4.22,3-1.42,.99-2.72,2.13-4.08,3.19-1.38,1.05-2.65,2.23-3.95,3.38l-1.95,1.73-.47,.47c-.6,.56-1.14,1.18-1.65,1.74-.02,.01-.05,.05-.06,.05l.02-.11,.05-.23,.09-.45,.18-.89c.06-.29,.11-.59,.19-.87l.39-1.5c.98-4.25,2.35-8.35,3.63-12.48,2.84-8.17,6.18-16.2,10.35-24.28,1.47-2.71,3.03-5.38,4.55-8.05,1.66-2.59,3.25-5.2,4.82-7.76,1.04-1.57,2.06-3.11,3.08-4.64,.51-.76,1.02-1.52,1.53-2.28,.55-.73,1.09-1.45,1.64-2.18,1.1-1.44,2.19-2.88,3.28-4.32,1.12-1.41,2.32-2.76,3.46-4.16,4.6-5.59,9.77-10.86,15.56-16.36,1.22-1.09,2.84-2.61,4.6-4.3,.86-.87,1.84-1.68,2.8-2.53,.96-.85,1.93-1.71,2.87-2.55,1.84-1.73,3.72-3.18,5.13-4.41,1.42-1.22,2.43-2.16,2.73-2.58,.7-.99-.94-.39-.34-1.31,.7-1.06-1.18-.46-4.21,1.05-.76,.38-1.58,.81-2.46,1.3-.88,.48-1.8,1-2.7,1.63-1.82,1.22-3.73,2.58-5.52,3.99-7.43,6.14-14.28,12.93-20.69,20.13l-4.88,5.76c-1.57,1.97-3.06,4-4.6,5.99l-1.14,1.5c-.37,.51-.72,1.04-1.07,1.55l-2.13,3.12c-.7,1.04-1.42,2.07-2.11,3.12l-1.95,3.22c-4.23,6.78-7.41,14.14-10.77,21.14-1.63,3.81-3.31,7.54-4.63,11.48-.35,.98-.71,1.96-1.07,2.94-.36,.98-.73,1.97-1.04,3-.64,2.03-1.31,4.09-2.03,6.2-.55,1.51-.9,3.09-1.36,4.65-.23,.86-.46,1.73-.69,2.59l-.54,2.07c-.17,.69-.3,1.36-.45,2.04-.57,2.79-1.14,5.6-1.72,8.42-.28,1.41-.57,2.82-.85,4.23l-.42,2.11c-.13,.67-.33,1.51-.32,1.88,2.04-2.24,4.09-4.49,6.14-6.73,2.07-2.23,4.23-4.42,6.32-6.62l1.58-1.64,.2-.2s.01-.02,.07-.06l.08-.06,.06-.05,.23-.2,.45-.4,1.8-1.6,1.8-1.58,1.88-1.48c2.35-1.93,4.87-3.63,7.37-5.38l3.87-2.44c1.28-.83,2.65-1.51,3.97-2.28,5.36-2.92,10.93-5.51,16.73-7.51,5.79-2.01,11.73-3.56,17.75-4.63l2.05-.3c.33-.04,.65-.06,.96-.08,.31-.03,.62-.03,.92-.04h.44s.11,0,.11,0l-.11,.06-.23,.12c-.77,.4-1.47,.81-2.09,1.19l-.19,.12-.9,.61-2.04,1.46c-1.36,.97-2.68,2-4,3.03-2.63,2.07-5.16,4.27-7.61,6.54-2.45,2.28-4.79,4.66-7.05,7.1l-1.89,2.1c-.97,1.09-1.85,2.2-2.77,3.29l-2.72,3.29-1.35,1.65-.67,.82-.33,.41c-.12,.14-.22,.27-.27,.38,2.46,.07,4.9,.13,7.33,.2,1.2,.05,2.4,.1,3.59,.15l1.79,.08,.41,.02,.24,.02,.49,.04c2.59,.21,5.15,.5,7.68,.89,13.88,2.12,27.38,6.87,39.5,13.95l1.65-5.2c-9.22-.76-18.54,.13-27.45,2.53-4.46,1.19-8.81,2.77-12.99,4.73-2.08,.99-4.15,2.02-6.14,3.19-1.01,.55-1.99,1.17-2.96,1.79l-1.1,.7c-.41,.25-.79,.54-1.19,.8l-2.25,1.67c-1.49,1.11-2.98,2.21-4.46,3.38l-2.22,1.73-1.11,.87,1.29,.27,5.19,1.08c.45,.09,.83,.18,1.33,.27l1.56,.25,1.56,.25c.52,.08,.94,.22,1.41,.33l2.3,.56c.52,.1,1.01,.29,1.51,.47l3,1.04c1,.35,1.94,.84,2.92,1.25,.97,.43,1.95,.84,2.86,1.38l2.79,1.53c.91,.55,1.78,1.16,2.67,1.73l1.33,.87c.43,.31,.84,.65,1.26,.97l2.52,1.95,2.36,2.14,1.18,1.07,1.09,1.16,2.18,2.33,1.99,2.49c3.64,4.69,6.54,9.94,8.55,15.5l.76,2.08,.56,2.14,.57,2.14c.16,.72,.25,1.45,.38,2.17l.39,2.33,.09,.53c.01,.17,.07,.32,.15,.47l.33,.75,.47,1.07,1.87,4.28c3.4,7.74,6.39,14.52,9.35,21.27,1.02,2.35,2.04,4.69,3.07,7.05,.63,1.42,1.26,2.85,1.89,4.29,.22,1.3,.89,0,1.41-.42,.55-.56,1.09-1.13,1.64-1.7,1.11-1.15,2.23-2.31,3.36-3.47,.86-.88,1.73-1.77,2.61-2.67,1.39-1.39,2.81-2.82,4.27-4.28,.56-.56,1.18-1.2,1.76-1.78h0s.29-.3,.29-.3c5.52-5.57,11.69-12.1,17.06-17.85,11.13-11.64,22.26-23.29,33.42-34.78,3.23-3.28,6.44-6.6,9.65-9.93l2.76-2.88,1.09-1.15,.54-.57,.27-.29c.07-.04,.06-.11,.04-.17l-.03-.2-.41-3.13c-.31-2.37-.62-4.73-.93-7.09-1.27-9.14-2.53-18.23-3.77-27.14l-6.8-50.61-3.5-26.15c-.13-.91-.22-1.86-.39-2.73l-2.58-1.03-3.72-1.49-5.93-2.37-11.86-4.74c-17.47-7.2-34.66-15.2-51.59-22.05-4.51-1.82-9.27-3.5-13.13-4.56-4.06-1.1-5.24-1.72-6.75-1.94-1.79-.27-2.69,.2-2.81,1.11-.33,2.48,5.08,8.26,13.7,11.51Z"/>
    </g>
    <g>
      <path class="cls-10" d="M575.29,750.32c-.43-8.3,7.89-14.14,15.44-17.62,17.28-7.96,36.06-12.67,55.06-13.8l1.16-.06c.87-8.51,1.77-17.17,5.18-25.01,3.41-7.84,9.78-14.88,18.09-16.88l3.01-3.85c-11.22-15.63-18.32-34.19-20.41-53.32l-.96-2.01c-11.14-6.1-19.86-15.73-28.35-25.17-6.45-7.17-13.04-14.58-16.33-23.63-3.88-10.68-2.76-22.45-1.58-33.76l-36.99,48.21c-1.84-4.49-6.31-7.78-11.14-8.21l-6.78-3.77c-29.03-49.26-64.44-98.76-116.91-121.48-27.54-11.93-57.9-15.57-86.52-24.65-40.53-12.86-77.46-36.9-105.62-68.76-4.86-5.5-9.56-11.38-11.93-18.33-5.9-17.23,3.65-35.56,12.88-51.26l1.46,2.07c39.82,15.24,80.5,28.21,121.8,38.83,13.6,3.5,27.26,6.74,40.88,10.19,65.24,16.55,129.25,37.92,191.34,63.88,17.3,7.23,35.12,15.31,47.03,29.8l2.29,5.8c13.95-6.26,29.89,1.44,43.21,8.95,6.06,3.42,12.12,6.84,18.17,10.26,3.88,2.19,7.79,4.4,11.1,7.37,8.17,7.34,11.77,18.36,15.04,28.85l1.8,1.09c14.98-1,27.89,10.41,36.74,22.53,13.53,18.51,22.17,40.57,24.81,63.35l.06-.23c5.19,2.34,8.61,7.36,11.4,12.33,14.04,24.91,19.2,54.71,14.35,82.89-1.71,9.96-5.13,20.45-13.33,26.34l-5.62,2.86c2.33,14.28,.53,28.93-2.56,43.07-2.53,11.6-6.04,23.26-13.01,32.87-6.97,9.61-17.96,16.93-29.83,16.93l-3.83,1.95c-6.42,16.65-23.96,25.76-40.09,33.4-16.16,7.65-32.88,15.45-50.75,16.09l-6,1.12c-36.37,17.53-77.66,24.71-117.81,20.47-15.56-1.64-32.15-5.65-42.27-17.59l-3.11-.74c-54.7-6.43-132.23-32.07-162.38-78.17,5.57,1.82,37.94-3.9,43.68-5.1-18.11-10.68-50.68-8.9-57.68-38.9,8.49,3.44,31.88,.54,40.37,3.97-16.31-17.15-31.33-23.72-39.37-45.97,0,0-5-19-5-32l23.11,7.64c64.06,16.97,87.16,57.21,147.39,84.86l19,9c24-3,27.33-1.81,41.2-5.32,9.54-2.41,19.88-3.03,28.8-1.68"/>
      <path class="cls-3" d="M519.28,749.98c-3.85,.41-7.19,.77-10.29,1.1-1.39,.15-3.66,.42-3.08,.34-.01,0-.02-.02-.04-.03-.06-.03,.13,.05-.33-.17l-1.93-.94c-5.13-2.5-10.33-5.03-17.5-8.52-2.89-1.45-6.13-2.93-9.42-4.62-3.24-1.78-6.66-3.52-9.98-5.42-3.28-1.97-6.59-3.83-9.64-5.77-3.03-1.97-5.92-3.78-8.44-5.5-19.61-13.29-38.11-28.58-59.43-41.14-3.25-1.83-6.42-3.8-9.79-5.41-3.34-1.68-6.63-3.45-10.1-4.87-3.43-1.49-6.83-3.07-10.38-4.27-3.52-1.25-7.01-2.7-10.57-3.64l-5.31-1.58c-1.78-.52-3.55-1.05-5.24-1.63l-10.3-3.4-7.35-2.43-2.38-.79-2.29-.67-4.56-1.32c-.09-.02-.2-.06-.28-.07v.31s.02,.61,.02,.61l.03,1.22,.06,2.44c.05,1.6,.07,3.18,.14,4.8l.36,4.93,.39,3.32c.5,3.75,1.14,7.44,1.87,11.1,.37,1.83,.76,3.65,1.17,5.47l.64,2.73,.33,1.37,.17,.69c.05,.19,.18,.8,.31,1.05l1.1,2.77,.54,1.36,.63,1.33,1.27,2.66,1.44,2.58c1.99,3.39,4.26,6.66,6.82,9.6,5.07,5.95,10.86,10.8,16.28,15.59,.51,.45,.96,.85,1.43,1.3,.23,.22,.45,.45,.68,.68l.08,.09c.05,.04-.05,0-.07,0l-.23-.07c-.16-.03-.31-.07-.47-.09-.41-.07-.83-.09-1.25-.11l-3.31-.08-7.15-.15c-1.16-.05-2.34-.07-3.48-.15l-1.96-.12c-1.1-.12-2.23-.3-3.34-.45-1.63-.08-3.8-.88-5.81-1.47l-6.31-1.97,.14,1.08,.07,.54c.02,.1,.01,.16,.05,.29l.11,.4,.85,3.17,.84,3.08c.3,1.02,.51,2.01,.91,3.06l1.08,3.11c.45,1.04,.98,2.08,1.47,3.13l.37,.78c.12,.26,.26,.54,.38,.72l.6,.98c.38,.63,.76,1.25,1.2,1.84,3.32,4.88,7.92,8.72,12.73,11.62,4.85,2.88,9.94,4.9,14.94,6.62l3.74,1.23,3.42,1.08,1.52,.49c.25,.09,.56,.21,.78,.29,.1,.04,.18,.07,.28,.11,.19,.08,.38,.17,.56,.27l.27,.15c.08,.03,.02,.04-.04,.05l-.16,.03-1.66,.28-3.15,.46-5.1,.67-2.54,.3-1.27,.14-.63,.07-.32,.03-.53,.04-4.27,.33c-1.64,.02-3.46-.04-5.19-.05-3.53-.1-7.66-.26-10.18-.4l.28,.53,.66,.96,1.37,1.97,2.74,3.94c1.85,2.6,3.76,5.14,5.64,7.71,.46,.63,.98,1.32,1.48,1.88l1.04,1.2,1.83,2.11c1.25,1.37,2.55,2.69,3.82,4.04,5.21,5.26,10.85,10.01,16.75,14.36,.88,.68,1.88,1.39,2.95,2.13,1.07,.74,2.21,1.53,3.41,2.37,2.44,1.59,5.1,3.35,7.96,5.05,5.7,3.45,12.08,6.89,18.19,9.88,12.24,5.94,23.35,10.09,25.19,10.78,.76,.29,2,.76,3.6,1.36,1.61,.56,3.58,1.25,5.8,2.02,4.45,1.46,9.88,3.2,15.38,4.71,10.97,3.15,22.16,5.44,25.42,6.13,1.26,.24,5.29,1.07,10.87,2.02,2.79,.45,5.96,.97,9.37,1.43,3.19,.49,7.94,.88,8.69,1.29l1.2,1.28,2.27,2.09c.8,.64,1.6,1.28,2.39,1.91,.82,.6,1.66,1.15,2.48,1.72,3.35,2.17,6.83,3.82,10.1,5.09,3.27,1.27,6.34,2.18,9,2.82,2.66,.67,4.9,1.09,6.55,1.39,3.8,.7,7.61,1.22,11.39,1.58l5.67,.52c1.89,.16,3.79,.23,5.68,.35,7.57,.39,15.16,.47,22.7,.07,6.87-.32,15.44-1.02,24.76-2.56,9.32-1.51,19.41-3.78,29.3-6.82,9.9-3.02,19.6-6.79,28.27-10.87,.54-.25,1.08-.5,1.62-.75l.2-.09c.07-.03,.15-.07,.12-.05-.02,0-.01,0,.02-.01,.04-.03,.1-.02,.14-.04,1.12-.21,2.23-.42,3.32-.63,.55-.1,1.09-.21,1.63-.31,.08-.02,.12-.02,.15-.02l.87-.06c1.16-.08,2.3-.13,3.4-.28,4.44-.48,8.49-1.28,12.03-2.22,0,.01,0,.01-.01,.02,11.22-2.83,21.61-7.45,31.64-12.15,1.34-.62,2.43-1.12,4.13-1.9,6.5-3.04,14.1-6.76,21.39-11.72,2.52-1.76,5.04-3.55,7.39-5.65,1.21-.99,2.31-2.14,3.45-3.23,.56-.56,1.08-1.17,1.62-1.76,.53-.59,1.08-1.17,1.56-1.82l1.49-1.9c.48-.65,.91-1.34,1.36-2.01,.94-1.32,1.65-2.8,2.45-4.22,.2-.36,.34-.74,.51-1.11l.25-.57c.06-.16,.11-.3,.27-.35l1.13-.58c.16-.09,.27-.15,.45-.13l.98-.04c.42-.02,.83-.08,1.25-.12,.83-.09,1.67-.18,2.48-.36,.82-.15,1.64-.3,2.44-.53,.81-.21,1.61-.41,2.39-.69,3.14-1.03,6.11-2.46,8.87-4.17,5.5-3.44,10.18-7.97,13.89-13.17,3.68-5.15,6.43-10.82,8.54-16.56,2.12-5.76,3.63-11.61,4.9-17.43,2.52-11.6,4.26-23.66,3.58-35.92-.1-1.53-.2-3.06-.39-4.59l-.06-.54-.03-.24c0-.15-.08-.34-.04-.46l1.24-.64,.97-.5,.76-.39c.31-.13,.52-.38,.76-.53l1.07-.84c.35-.26,.65-.56,.97-.85,2.55-2.31,4.65-5.02,6.29-7.88,1.64-2.86,2.87-5.84,3.85-8.84,.98-3,1.69-6.02,2.25-9.03,.29-1.51,.48-3,.71-4.49l.33-2.24c.1-.75,.16-1.5,.24-2.25,.36-3,.51-6.02,.68-9.03l.07-4.53c.04-1.51-.06-3.02-.08-4.52-.21-6.03-.78-12.04-1.81-17.98-1.04-5.94-2.47-11.8-4.28-17.55-1.79-5.76-4.08-11.35-6.67-16.79-1.27-2.74-2.74-5.37-4.18-8.02-1.52-2.64-3.23-5.35-5.47-7.86-.78-.88-1.64-1.73-2.57-2.53-.46-.4-.95-.78-1.46-1.15-.24-.19-.52-.36-.78-.53l-.39-.26,.05,.04s-.01,0-.02,0l-.05-.03c-.12-.07-.25-.14-.38-.19-.03,0-.08-.06-.08-.02-.01,.06-.02,.03-.02-.02l-.03-.21-.22-1.6c-.67-4.15-1.44-8.27-2.47-12.34-1.03-4.06-2.17-8.1-3.57-12.04-1.36-3.96-2.9-7.86-4.64-11.67-3.42-7.65-7.58-14.98-12.34-21.93-4.75-6.95-10.39-13.66-17.52-19-2.47-1.87-5.17-3.52-8.05-4.87-1.42-.71-2.95-1.25-4.47-1.79l-2.35-.66c-.78-.23-1.6-.33-2.4-.49-.4-.07-.8-.15-1.21-.21l-1.23-.11c-.82-.05-1.64-.19-2.46-.15h-1.16c-.09-.03-.17-.09-.25-.14-.03-.02-.11-.07-.1-.06l.8,.48-.86-2.76c-.45-1.4-.92-2.81-1.42-4.21-1.99-5.61-4.44-11.34-8.23-16.51-1.88-2.58-4.14-4.99-6.66-7.03-2.51-2.03-5.16-3.67-7.73-5.16l-15.14-8.58c-5.01-2.82-10.08-5.8-15.52-8.4-5.42-2.58-11.17-4.87-17.47-5.96-3.14-.51-6.4-.8-9.71-.48-.82,.03-1.65,.22-2.47,.33l-1.23,.2-.96,.25c-.44,.1-.68,.21-1.02,.34-.18-.31-.31-.75-.46-1.11l-.35-.88c-.15-.31-.21-.67-.43-.93l-.66-.76-1.74-2c-2.26-2.44-4.63-4.78-7.18-6.87-5.04-4.27-10.57-7.78-16.21-10.92-6.27-3.43-12.18-6.1-17.95-8.54-5.77-2.45-11.39-4.67-17.3-7.09-11.83-4.73-24.76-9.83-42.14-16.45-7.6-2.86-18.58-6.87-29.57-10.75-11-3.84-22.01-7.55-29.62-9.91-14.09-4.43-24.74-7.57-35.43-10.57-10.68-3.03-21.4-5.92-35.71-9.6-7.24-1.88-14.45-3.62-21.68-5.4l-21.68-5.34c-14.44-3.56-28.73-7.48-42.98-11.64-14.24-4.19-28.41-8.63-42.47-13.38-7.04-2.36-14.04-4.81-21.03-7.32-3.49-1.25-6.98-2.53-10.46-3.82l-5.21-1.95-2.87-1.08-.57-.21-.28-.11c-.09-.05-.19-.01-.29-.26l-1.16-2.21-.29-.55c-.1-.18-.2-.39-.26-.46l-.44-.63-.89-1.26-.83,.88-.21,.22c-.08,.11-.16,.27-.24,.4l-.49,.84-1.94,3.34-1.93,3.35-.76,1.35-.55,1c-1.46,2.67-2.89,5.38-4.2,8.18-1.9,4.02-3.61,8.19-4.92,12.57-1.3,4.38-2.2,8.98-2.31,13.72-.14,4.73,.61,9.57,2.2,14.11,1.64,4.55,4.13,8.58,6.81,12.22,2.22,2.97,4.52,5.68,6.84,8.24,1.16,1.28,2.31,2.56,3.46,3.83,1.14,1.27,2.36,2.46,3.52,3.68,4.67,4.89,9.55,9.37,14.47,13.73,9.97,8.59,20.53,16.24,32.24,23.23,10.77,6.39,21.29,11.51,32.4,16.11,11.11,4.57,22.92,8.51,36.28,12.03,21.47,5.71,43.1,9.67,63.32,17.36,1.27,.46,2.52,.97,3.76,1.49,1.24,.53,2.51,.98,3.72,1.58l7.31,3.45c1.24,.54,2.4,1.23,3.58,1.88l3.54,1.96c1.18,.66,2.38,1.29,3.53,1.99l3.42,2.19,3.42,2.19c.57,.37,1.15,.72,1.71,1.1l1.65,1.2,6.59,4.79,6.34,5.16,1.59,1.29,1.52,1.37,3.05,2.74c16.92,15.31,30.8,32.69,43.37,50.63,6.23,9.02,12.17,18.19,17.87,27.55l4.23,7.05,1.06,1.77,.89,1.49c.21,.61,.86,.79,1.36,1.11l4.01,2.23,1.84,1.02,.79,.44c.27,.14,.52,.34,.81,.32l.84,.11c.12,.02,.32,.04,.37,.05l.18,.04c.98,.19,1.94,.53,2.85,1.02,.45,.25,.88,.53,1.3,.84,.2,.17,.4,.3,.61,.51l.31,.29s.17,.2,.26,.3l.3,.36c.2,.25,.41,.45,.59,.74l.51,.93c.34,.58,.68,1.33,1.01,2.02,.68,1.42,1.37,2.88,2,4.24l.42-.38,.21-.19,.11-.1,.12-.16,1.01-1.32,2.02-2.64c1.3-1.69,2.59-3.38,3.9-5.07,1.54-2.01,3.09-4.02,4.65-6.04,3.11-4.04,6.25-8.11,9.41-12.22,3.16-4.1,6.34-8.23,9.54-12.39,.34-.42,.69-.85,1.03-1.28l.5-.63,.24-.31,.12-.15s.05-.08,.05-.04v.11c-.07,.49-.13,1.02-.19,1.56l-.07,.76-.03,.37v.18s-.01,.07-.01,0v.25s0,.5,0,.5c-.03,2.67,.05,5.38,.33,8.11,.54,5.43,1.99,11.02,4.49,16.01,2.46,4.99,5.68,9.38,9.01,13.39,3.37,4.02,6.74,7.68,10.16,11.39,4.3,4.61,8.73,9.14,13.62,13.22,2.45,2.04,5.01,3.96,7.7,5.69,.68,.42,1.35,.86,2.05,1.27l.7,.4s.11,.04,.13,.09l.07,.14s.09,.19,.07,.15c0,.01,.01,.02,.02,.04,.01,.02,.02,.05,.02,.07l.23,1.85c1.64,12.34,5.21,24.29,10.59,35.5,1.33,2.81,2.8,5.56,4.37,8.26,.8,1.34,1.58,2.7,2.45,4.01l1.45,2.25c.04,.07,.1,.14,.13,.2l-.07,.08-.07,.08-.03,.04-.2,.25-.07,.08s-.18,.05-.25,.08l-.16,.04h-.05s-.16,.07-.16,.07l-.32,.11-1.28,.47c-1.68,.7-3.28,1.55-4.78,2.54-1.48,1.01-2.89,2.12-4.16,3.35-2.56,2.45-4.7,5.27-6.44,8.32-1.75,3.06-3.04,6.33-4.02,9.62-.99,3.3-1.66,6.66-2.18,10-.26,1.67-.48,3.34-.67,5.01l-.14,1.25-.06,.55h0s-.01,.07-.01,.07c0,0,0,0,0,0-.33,.02-.69,.05-1.08,.08-1.62,.16-3.35,.3-5.15,.54-3.6,.43-7.52,1.06-11.57,1.89-8.11,1.64-16.76,4.16-24.64,7.28-3.94,1.55-7.7,3.21-11.14,4.9l-.04,.02h-.02c-.04-.07,.04,.12,.02,.11l-.08,.04-.16,.09-.32,.18-.64,.35c-.43,.23-.84,.48-1.25,.72-.83,.48-1.61,.99-2.38,1.5-1.53,1.01-2.91,2.11-4.16,3.21-2.48,2.21-4.32,4.58-5.33,6.73-1.05,2.13-1.31,3.9-1.35,4.8-.03,1.07,.06,1.46,.19,1.53,.12,.07,.22-.19,.39-.45,.33-.52,.59-1.02,.67,.68,.12,.98,.24,1.29,.39,1.08,.07-.11,.15-.34,.23-.69,.08-.35,.16-.81,.35-1.36,.29-1.1,.9-2.55,2.02-4.06,1.1-1.52,2.74-3.07,4.85-4.48,2.09-1.43,4.64-2.71,7.47-3.83,.36-.13,.72-.27,1.08-.41l.27-.1,.14-.05,.07-.03h.04s.02-.02,.02-.02c0-.02,.08,.15,.06,.08l.56-.22c.75-.29,1.52-.59,2.29-.89,1.56-.57,3.14-1.19,4.78-1.74,6.52-2.29,13.59-4.37,20.58-6,4.39-1.04,8.83-1.88,13.29-2.53,2.23-.33,4.47-.6,6.72-.82,1.13-.11,2.23-.22,3.38-.3,2.15-.18,4.4-.27,6.59-.38l.75-7.2c.14-1.34,.3-2.66,.47-3.97,.35-2.62,.77-5.2,1.34-7.7,1.15-5.01,2.87-9.73,5.66-13.7,2.75-3.97,6.46-7.26,10.71-8.76,.28-.14,1.65-.51,2.7-.82l.41-.12,.29-.37,.58-.75,1-1.28,2.33-2.99,1.15-1.49c.09-.06-.03-.12-.05-.18l-.13-.18-.25-.36-.5-.73-2.01-2.91-.5-.73-.3-.46-.54-.83c-.72-1.1-1.43-2.22-2.09-3.35-4.04-6.71-7.31-13.89-9.8-21.33-1.26-3.72-2.29-7.5-3.12-11.34-.23-.95-.41-1.92-.58-2.88-.18-.96-.37-1.92-.51-2.89-.14-.97-.32-1.93-.43-2.91l-.18-1.46-.09-.77c-.08-.5-.08-.98-.23-1.42l-1.16-2.44-.31-.64c-.11-.21-.16-.46-.41-.54l-1.22-.71-1.6-.93-1.21-.76c-1.61-1.02-3.16-2.14-4.69-3.31-3.04-2.36-5.94-4.96-8.73-7.74-2.8-2.77-5.5-5.68-8.19-8.66-2.69-2.99-5.43-5.97-7.95-8.95-2.83-3.36-5.45-6.78-7.54-10.4-2.12-3.62-3.54-7.42-4.39-11.5-.42-2.04-.68-4.13-.85-6.25-.08-1.06-.13-2.13-.16-3.2l-.02-1.61v-.4s0-.2,0-.2v-.39s.06-1.5,.06-1.5c.04-1.97,.2-4.02,.34-6.04l.57-6.23c.4-4.1,.81-8.2,1.21-12.29l-.29,.3c-.1,.11-.18,.17-.32,.36l-.74,.98-1.48,1.94-2.95,3.86c-1.96,2.56-3.91,5.11-5.86,7.66-2.96,3.85-5.92,7.69-8.86,11.52-4.07,5.28-8.1,10.51-12.14,15.75-2.01,2.62-4.02,5.25-6.03,7.88l-2.06,2.71-.44,.58c-.14,.14-.32,.57-.39,.17-.11-.21-.24-.42-.39-.61-.07-.1-.16-.19-.24-.28-.11-.1-.07-.08-.56-.52-1.5-1.37-3.36-2.5-5.33-3.27-.99-.37-2.03-.66-3.09-.85-.18-.04-.13-.02-.2-.03l-.13-.02c-.09,0-.17-.02-.22-.06l-.74-.41c-1.44-.81-2.89-1.62-4.35-2.43-.1-.07-.25-.1-.3-.22l-.29-.49c-.44-.75-.89-1.5-1.33-2.25-.89-1.51-1.78-3.02-2.68-4.54-1.82-3.03-3.66-6.09-5.53-9.18-10.82-17.7-23.03-35.46-37.36-51.86-1.74-2.09-3.62-4.07-5.47-6.07-1.88-1.98-3.67-4.04-5.65-5.93l-5.84-5.77-6.1-5.51c-2-1.88-4.17-3.55-6.29-5.29-2.13-1.72-4.22-3.5-6.48-5.06-2.22-1.6-4.42-3.24-6.65-4.81-2.3-1.48-4.6-2.96-6.9-4.44l-1.9-1.22-1.97-1.1-3.95-2.21c-1.32-.72-2.62-1.5-3.97-2.18l-4.1-1.95c-5.42-2.71-11.05-4.95-16.73-6.99-11.38-4.02-23.02-7.02-34.6-9.79-11.58-2.79-23.12-5.4-34.4-8.67-11.26-3.27-22.25-7.34-32.89-12.25-21.29-9.76-41.06-22.84-58.45-38.47-4.37-3.88-8.53-7.99-12.58-12.2-3.96-4.25-8.05-8.58-11.39-13.04-3.34-4.49-5.92-9.16-6.86-14.26l-.34-1.92c-.1-.64-.11-1.3-.18-1.95-.17-1.29-.05-2.63-.07-3.94,.2-2.65,.5-5.32,1.21-7.97,1.2-5.08,3.25-10.09,5.63-15,1.18-2.46,2.5-4.9,3.83-7.33l.84-1.49c.12-.16,.24-.6,.38-.22,.04,.05,.07,.11,.12,.16l.18,.07,1.47,.55,4.32,1.63,8.67,3.19c5.79,2.1,11.59,4.17,17.42,6.17,11.64,4.01,23.34,7.83,35.06,11.43,23.42,7.19,47.02,13.61,70.22,19.2,11.7,2.93,23.45,5.78,35.06,8.83,11.62,3.08,23.23,6.24,34.77,9.62,23.09,6.73,46.02,14.04,68.72,21.99,22.71,7.92,45.2,16.48,67.46,25.59,11.13,4.61,22.29,9.02,32.46,14.76,2.56,1.41,5.01,2.97,7.41,4.56,2.36,1.66,4.7,3.33,6.84,5.21,1.12,.9,2.11,1.91,3.17,2.86,.99,1.01,2.01,2,2.93,3.06l1.2,1.37c.08,.07,.1,.16,.14,.25l.59,1.5c.96,2.39,1.88,4.86,2.87,7.19l5.24-2c.44-.15,.9-.35,1.33-.47l1.21-.32,.64-.17,.66-.1c.88-.14,1.76-.3,2.67-.31l1.35-.08,1.38,.05c3.68,.14,7.44,.97,11.15,2.23,3.71,1.26,7.38,2.92,11,4.76,3.62,1.84,7.2,3.89,10.87,5.96l10.95,6.18c3.66,2.09,7.36,4.04,10.48,6.22,1.58,1.1,2.98,2.26,4.28,3.56,1.28,1.31,2.47,2.75,3.55,4.29,2.14,3.12,3.86,6.63,5.33,10.35,.74,1.86,1.41,3.77,2.07,5.7l.96,2.93,.65,2.06,.41,1.3,.2,.65c-.05,.1,.27,.24,.47,.37l.64,.39,2.69,1.64,.29,.18c.11,0,.23,0,.34,0h.68s1.34-.03,1.34-.03h.85c.22-.01,.45-.04,.67-.01l1.34,.11c1.79,.14,3.57,.57,5.32,1.08,7.03,2.26,13.34,7.26,18.68,13.08,2.7,2.93,5.1,6.1,7.42,9.47,2.29,3.36,4.49,6.79,6.45,10.35,3.97,7.1,7.29,14.57,9.86,22.29,1.57,4.69,2.87,9.46,3.91,14.29l.72,3.64,.61,3.66,.72,5.34,.11,.81,.05,.4c0,.06,0,.02,0,0v-.08s-.01-.16-.01-.16l.46,1.67,.06,.22c.08,.02,.2-.01,.3-.02l.63-.07,1.25-.13c.21-.01,.42-.06,.62-.04l.23,.14,.08,.05,.31,.2c3.29,2.24,5.89,6.19,8.22,10.51,2.41,4.31,4.45,8.81,6.34,13.37,7.33,18.34,10.14,38.5,8.13,58.11-.09,.83-.17,1.66-.26,2.49-.09,.82-.24,1.64-.35,2.46-.24,1.63-.47,3.25-.78,4.82-.62,3.14-1.38,6.17-2.41,8.99-1.04,2.81-2.28,5.47-3.88,7.73-.78,1.16-1.67,2.18-2.59,3.15-.48,.46-.96,.92-1.47,1.34l-.74,.58c-.08,.06-.12,.11-.18,.13l-.3,.15c-2.03,1.04-4.06,2.07-6.07,3.1l-.88,.45-.44,.22c-.02,.14,.03,.32,.05,.47l.27,1.94c.17,1.3,.38,2.58,.52,3.89l.13,1.16c.05,.36,.08,.73,.1,1.09l.16,2.19c.08,1.46,.14,2.92,.15,4.38,.05,5.84-.45,11.67-1.32,17.47-.86,5.79-2.07,11.61-3.5,17.34-1.45,5.71-3.24,11.32-5.73,16.61-2.49,5.29-5.67,10.25-9.87,14.32-4.18,4.07-9.32,7.4-15.02,8.94-.55,.13-1.11,.29-1.68,.41-.58,.1-1.16,.21-1.75,.31-.59,.06-1.18,.13-1.77,.19-.89,.03-1.78,.06-2.65,.09,0,0,0,0-.02,0-.42-.06-.75,.21-1.1,.37l-1.06,.54c-1.03,.52-2.06,1.03-3.1,1.55l-.96,.48-.24,.12-.11,.24-.22,.49-.86,1.94-.56,1.26c-.13,.34-.33,.64-.5,.96-.35,.63-.71,1.27-1.06,1.91-1.57,2.48-3.46,4.84-5.61,7.05-2.17,2.19-4.63,4.21-7.22,6.11-2.6,1.9-5.41,3.62-8.27,5.28-5.76,3.29-11.9,6.18-18.01,9.08-6.08,2.88-12.04,5.58-17.88,7.81-2.99,1.13-6,2.13-9.03,3.02-3.03,.87-6.08,1.57-9.14,2.12-1.53,.23-3.07,.49-4.6,.63-.77,.08-1.54,.18-2.3,.21l-2.73,.17-5.09,.95-.75,.14c-.35,.09-.73,.09-1.06,.25l-1.59,.73-2.2,1.01c-5.84,2.74-11.85,5.08-17.91,7.27-3.06,1.01-6.09,2.11-9.19,2.99-1.55,.45-3.08,.94-4.63,1.37l-4.67,1.22c-1.55,.43-3.12,.79-4.69,1.13l-4.71,1.06-4.74,.9-2.37,.45-2.39,.37-4.77,.74-4.79,.58c-3.19,.43-6.4,.61-9.6,.91-12.82,.86-25.72,.61-38.43-.81-7.24-.84-14.38-2.14-20.97-4.54-3.29-1.2-6.42-2.67-9.28-4.47-1.43-.91-2.79-1.89-4.07-2.95-.66-.51-1.22-1.12-1.85-1.67-.31-.27-.6-.57-.87-.88l-1.47-1.6-.88-.95c-.4-.13-.84-.21-1.25-.31l-2.21-.53-.69-.16-.57-.14c-.2-.03-.45-.06-.66-.09l-1.38-.17c-1.84-.23-3.69-.45-5.53-.73-1.84-.26-3.68-.53-5.52-.83-1.84-.29-3.68-.59-5.51-.93-7.33-1.31-14.63-2.86-21.85-4.64-14.45-3.57-28.65-8.01-42.32-13.47-13.66-5.46-26.84-11.9-38.97-19.62-7.51-4.81-14.67-10.14-21.21-16.08-3.2-3.03-6.37-6.11-9.19-9.46l-.95-1.1c-.13-.15-.19-.22-.28-.34l-.51-.65c-.18-.21-.32-.45-.49-.67l-.24-.34-.12-.17s.01-.02,.04-.02l.1,.02c.41,.07,.84,.05,1.26,.04l.66-.04,1.13-.1,2.47-.27,2.64-.32c1.76-.21,3.51-.46,5.26-.7l3.18-.47,4.51-.71c3.02-.47,5.96-.99,8.9-1.51,5.76-1.08,11.21-2.18,16.83-3.29-.62-.48-.88-.84-2.16-1.49l-3.04-1.67-5.64-3-2.84-1.47c-1.08-.48-2.1-.97-3.24-1.45-1.21-.46-2.32-.95-3.6-1.4-1.29-.44-2.51-.91-3.85-1.33l-3.85-1.23-3.13-.97c-1.51-.47-3.01-.94-4.48-1.43-2.95-.97-5.84-2.01-8.59-3.2-5.5-2.37-10.5-5.42-14.17-9.59-.43-.54-.9-1.05-1.32-1.61-.39-.57-.82-1.11-1.19-1.7l-.91-1.49-.27-.54c-.17-.37-.31-.74-.43-1.13-.07-.34-.41-.99,.18-.64,.35,.09,.71,.15,1.07,.2,.18,.03,.36,.04,.54,.05l.26,.02,.97,.06c2.99,.18,5.91,.24,8.79,.29l4.3,.08,3.01,.07c1.24,.03,2.53,.11,3.83,.22l1.94,.14,.97,.07c.38,.06,.83,.19,1.25,.29l5.08,1.22,7.07,2.14,8.14,2.51c-1.23-1.4-1.48-1.79-2.03-2.48l-.38-.49c-.12-.16-.29-.36-.27-.37l-.15-.32-.07-.16-.02-.04s-.01-.03-.08-.09l-.29-.29-1.16-1.18-2.31-2.35-4.53-4.58c-1.47-1.5-3.07-3.04-4.62-4.56-1.5-1.52-3.25-3.05-4.93-4.58l-2.54-2.29-1.57-1.38c-1.98-1.74-3.94-3.46-5.85-5.19-3.82-3.46-7.34-7.01-10.3-10.93-2.97-3.9-5.37-8.17-7.23-12.74l-.69-1.72c-.13-.33-.21-.51-.21-.55l-.22-.88c-.31-1.24-.61-2.5-.89-3.76-.57-2.52-1.1-5.05-1.57-7.58-.47-2.53-.91-5.07-1.24-7.59-.09-.63-.17-1.26-.24-1.89l-.13-1.07c-.03-.35-.07-.69-.09-1.04-.01-.17-.02-.35-.02-.52v-.26s0-.13,0-.13c0-.05,.07,0,.1,0l.99,.33,4.71,1.55,7.56,2.49,3.78,1.25,3.75,1.12,5.48,1.66c.91,.28,1.84,.53,2.73,.85l2.65,.99,5.3,1.98c.88,.34,1.78,.63,2.64,1.02l2.58,1.16c3.44,1.55,6.91,3.01,10.22,4.84l5.02,2.61c1.66,.9,3.26,1.9,4.89,2.85,13.03,7.65,25.18,16.8,37.36,26.11,12.18,9.3,24.57,18.61,37.75,26.71l4.94,3.04,5.06,2.83,5.05,2.82c1.72,.86,3.44,1.71,5.16,2.57,1.72,.85,3.44,1.7,5.16,2.55,1.7,.81,3.39,1.63,5.08,2.44,3.38,1.61,6.75,3.22,10.12,4.82,.9,.42,1.8,.85,2.7,1.28l2.42,1.14,.68,.32c.11,.08,.23,.07,.36,.04l.37-.05,1.49-.18c2.16-.26,4.32-.53,6.48-.79,3.91-.47,7.78-.89,11.61-1.29,3.82-.4,7.65-.78,11.44-1.4,3.79-.61,7.38-1.49,10.6-2.43,.81-.23,1.58-.45,2.32-.67,.7-.21,1.39-.37,2.04-.54,1.31-.32,2.52-.57,3.63-.79,2.23-.42,4.08-.64,5.68-.81,3.2-.32,5.36-.39,7.66-.54,2.73-.17,4.61-.3,5.77-.59,1.15-.28,1.57-.74,1.29-1.33-.38-.79-2.06-1.92-5.01-2.9-2.94-.98-7.13-1.84-12.32-2.01-2.59-.08-5.43,0-8.46,.33-.76,.09-1.53,.17-2.31,.3-.75,.12-1.52,.24-2.3,.36-1.47,.24-2.97,.47-4.49,.68-3.05,.42-6.17,.73-9.6,.96-3.42,.24-7.1,.49-10.88,.88Z"/>
    </g>
    <path class="cls-9" d="M330.03,309.27c-5.73,11.12,1.46,23.51,13.47,25.78,10.45,1.98,22.59-3.84,25.96-14.37,3.52-11.03-7.58-21.62-17.35-24.29-4.97-1.36-10.89-1.25-15.32,1.62-5.43,3.52-6.9,9.84-6.56,15.91,.64,11.52,18.65,11.59,18,0-.07-.86-.1-1.71-.08-2.57,.04-1.2-.73-.49-2.32,2.13-.1-.34,2.71,.64,2.76,.66,1.03,.46,1.7,1.54,2.64,1.97,.43,.36,.74,.81,.94,1.36,.31-.74,.33-1.43,.08-2.09,.46,.49-3.35,2.09-3.85,2.12,1-.07-4.03,.04-2.7-.63-.12-.1-.2-.22-.24-.37,.38,.59,.42,1.21,.11,1.85,5.29-10.28-10.23-19.4-15.54-9.08h0Z"/>
    <path class="cls-10" d="M334.26,381.55c-5.19-2.63-10.14-5.7-14.81-9.17-.36-.27-.72-.54-1.07-.81-.08-.06-.67-.52-.15-.12-.59-.46-1.17-.92-1.75-1.4-1.15-.94-2.29-1.91-3.4-2.9-2.12-1.88-4.16-3.85-6.12-5.89-4.2-4.36-7.42-8.32-10.61-12.94-3.31-4.79-6.24-9.83-8.77-15.08-.65-1.34-1.26-2.7-1.86-4.07-.04-.1-.33-.79-.07-.16-.12-.28-.23-.55-.34-.83-.34-.83-.67-1.66-.98-2.5-1-2.65-1.9-5.33-2.7-8.05-.83-2.86-1.55-5.76-2.13-8.68-.26-1.31-.5-2.63-.71-3.96-.12-.74-.23-1.47-.33-2.21,.03,.2,.1,.79-.01-.13-.05-.44-.11-.89-.16-1.33-.65-5.9-.78-11.85-.39-17.77,.39-6.02,1.12-10.74,2.61-16.9,.72-2.97,1.56-5.91,2.52-8.81,.43-1.31,.89-2.6,1.37-3.89,.27-.72,.54-1.43,.83-2.14,.11-.28,.23-.57,.34-.85,.03-.06,.54-1.29,.25-.62,2.32-5.49,5.12-10.79,8.3-15.83,1.63-2.58,3.37-5.1,5.21-7.54,.18-.24,.37-.49,.56-.73-.41,.53,.19-.23,.28-.35,.43-.54,.86-1.07,1.3-1.6,.97-1.18,1.97-2.34,2.99-3.47,3.98-4.44,8.34-8.5,13.01-12.22,1.15-.92-.33,.25,.36-.28,.3-.23,.61-.46,.92-.69,.55-.41,1.11-.82,1.67-1.22,1.28-.91,2.58-1.78,3.9-2.62,2.41-1.53,4.9-2.93,7.46-4.21,5.05-2.54,9.94-4.41,15.86-5.97,2.9-.77,5.85-1.38,8.82-1.82,.3-.04,.59-.09,.89-.13-.75,.1,0,0,.14-.01,.74-.08,1.48-.17,2.22-.23,1.47-.13,2.95-.22,4.43-.27,2.93-.09,5.87,0,8.78,.3,.58,.06,1.16,.12,1.73,.2-.97-.12,.45,.07,.53,.08,.29,.04,.57,.09,.86,.14,1.42,.24,2.84,.54,4.24,.88,1.33,.33,2.64,.7,3.94,1.13,.62,.2,1.23,.41,1.84,.63,.34,.12,.67,.25,1.01,.38,.15,.06,1.49,.61,.72,.28,2.53,1.08,4.97,2.37,7.29,3.85,.62,.39,1.23,.8,1.83,1.22,.24,.17,.48,.34,.72,.51-.09-.07,1.07,.8,.61,.44,.91,.69,2.62,2.17,3.77,3.25,2.39,2.25,4.59,4.69,6.65,7.24,3.92,4.83,7.82,10.67,11.35,16.2,3.6,5.64,7.04,11.69,9.16,17.71,2.2,6.24,3.08,11.13,2.59,17.59-.03,.38-.06,.75-.1,1.13-.02,.19-.15,1.16-.03,.37-.1,.67-.21,1.33-.35,2-.31,1.53-.71,3.05-1.22,4.53-.19,.56-.4,1.12-.62,1.66,.34-.81-.25,.52-.26,.54-.13,.27-.26,.53-.39,.79-.67,1.31-1.45,2.55-2.3,3.75s.29-.33-.24,.31c-.23,.28-.47,.57-.72,.84-.44,.5-.91,.98-1.39,1.44s-.98,.9-1.49,1.33c-1.07,.9,.36-.24-.31,.23-.42,.3-.84,.59-1.27,.86-1.11,.7-2.28,1.33-3.49,1.84,.65-.28-.03,0-.14,.04-.42,.14-.82,.3-1.24,.44-.7,.23-1.4,.43-2.12,.6s-1.44,.31-2.16,.44c-.9,.16-.31,.05-.12,.02-.37,.04-.73,.08-1.1,.11-1.54,.12-3.1,.13-4.64,.01-.27-.02-1.8-.21-1-.09-.73-.11-1.46-.25-2.17-.41-1.44-.33-2.85-.77-4.22-1.32,.69,.28-.18-.09-.34-.16-.34-.16-.67-.32-1-.49-.59-.31-1.18-.64-1.75-.99s-1.13-.72-1.67-1.11c.1,.07-1.07-.81-.61-.45,.19,.15-.76-.64-.92-.78-1.01-.88-1.95-1.83-2.84-2.83-.2-.22-.39-.45-.58-.68,0,0-.91-1.15-.41-.49-.45-.6-.87-1.21-1.28-1.83-.77-1.19-1.47-2.43-2.09-3.71-.16-.34-.32-.68-.47-1.02-.38-.83-.14-.35-.07-.17-.33-.83-.64-1.68-.9-2.54-.4-1.29-.73-2.59-.97-3.92-.05-.29-.1-.59-.15-.88-.24-1.42,.04,.85-.07-.58-.06-.8-.13-1.6-.16-2.4-.08-3.01,.23-6.14,1.5-8.48,.3-.55,.59-1.09,.92-1.62,.03-.05,.84-1.19,.29-.46,.17-.22,.36-.44,.54-.64,.46-.52,.95-1.02,1.47-1.49,.21-.19,.42-.37,.63-.55,.97-.84-.66,.39,.42-.32,1.13-.74,2.26-1.45,3.49-2.04,.32-.16,.65-.31,.98-.45-.67,.29,.01,0,.13-.04,.82-.3,1.64-.6,2.48-.86,1.27-.39,2.55-.71,3.85-.97,.72-.15,1.44-.28,2.17-.39,.29-.05,.58-.09,.87-.13-.91,.13,.48-.05,.53-.06,6-.67,12.08-.63,18.07,.03,.39,.04,.77,.09,1.15,.14,.87,.11-1.06-.16,.42,.06,.69,.1,1.38,.21,2.07,.32,1.61,.27,3.2,.59,4.79,.95,2.87,.65,5.72,1.45,8.51,2.39,5.64,1.89,10.42,4.08,15.83,7.28,2.67,1.58,5.25,3.3,7.74,5.16,.25,.19,.5,.37,.74,.56-.47-.37,.14,.11,.19,.15,.6,.49,1.21,.97,1.8,1.47,1.19,1,2.35,2.02,3.48,3.08,19.22,18.01,26.4,45.19,44.03,64.85,8.18,9.13,18.79,17.02,30.94,19.73,6.04,1.35,12.49,1.62,18.43-.36,5.91-1.97,11.19-5.56,14.86-10.62,3.35-4.62,4.55-10.73,2.64-16.17-.8-2.29-3.08-3.82-5.54-3.14-2.22,.61-3.95,3.23-3.14,5.54,.22,.64,.38,1.28,.55,1.93,.28,1.1,.09-.49,.03,.14-.03,.3,.04,.65,.04,.95,0,.25,0,.5-.02,.75-.01,.23-.25,1.37-.01,.29-.15,.68-.33,1.33-.52,1.99-.07,.23-.42,1-.03,.16-.11,.23-.22,.46-.33,.69-.29,.58-.62,1.13-.98,1.67,.02-.03-.72,1.02-.34,.51s-.43,.51-.4,.48c-.53,.62-1.1,1.2-1.7,1.76-.2,.19-.41,.37-.62,.55,.05-.05-1,.81-.52,.44s-.62,.44-.56,.4c-.23,.16-.47,.32-.7,.47-.6,.39-1.21,.75-1.83,1.09-.31,.17-.63,.33-.95,.49-.15,.07-1.47,.66-.69,.34-1.25,.52-2.55,.93-3.87,1.24-.62,.15-1.24,.27-1.87,.37,1-.16-.36,.03-.47,.03-.41,.03-.83,.05-1.24,.06-1.52,.04-3.04-.03-4.56-.18-.3-.03-.6-.06-.9-.1,.79,.1-.17-.04-.36-.07-.81-.14-1.62-.3-2.42-.49-1.46-.34-2.89-.76-4.3-1.26-.71-.25-1.41-.51-2.1-.8,.19,.08,.65,.3-.17-.08-.41-.19-.82-.37-1.23-.57-5.84-2.8-10.15-6.05-14.64-10.37-2.32-2.23-4.5-4.61-6.54-7.1-.45-.54-.89-1.09-1.32-1.65-.54-.7,.61,.82-.3-.39-.19-.25-.37-.5-.56-.75-1.03-1.4-2.03-2.83-2.99-4.28-3.84-5.8-7.22-11.88-10.58-17.97-6.75-12.24-13.61-24.65-23.51-34.68-17.99-18.25-44.2-28.45-69.81-26.83-12.82,.81-27.52,4.96-31.78,18.66-3.91,12.57,1.61,27.67,11.14,36.28,10.06,9.09,24.53,11.29,36.86,5.66,12.18-5.57,18.16-18.87,18.35-31.71,.21-14.31-6.62-27.46-14.24-39.13-7.63-11.69-15.9-23.67-28.11-30.99-21.69-13.01-49.49-9.68-71.27,1.26-22.29,11.19-39.69,31.66-49.35,54.43-9.92,23.38-12.04,49.57-4.86,74.03,7.01,23.87,21.93,45.08,41.89,59.89,4.67,3.47,9.63,6.53,14.81,9.17,2.17,1.1,4.88,.57,6.16-1.61,1.17-2.01,.56-5.05-1.61-6.16h0Z"/>
    <path class="cls-3" d="M727.23,491.54c-.39,.8-.87,.99-1.36,1.77-.42,.64-.72,1.7-1.03,2.34-.64,1.23-1.02,2.58-1.61,3.83-1.67,3.52-3.2,7.11-4.46,10.79-.41,1.21-.79,2.44-1.16,3.67-.03,.09-.06,.21-.09,.29,0,.04-.01,.06-.02,.1-.49,1.7-.93,3.41-1.22,5.15-.19,.97-.53,3.4-.61,3.61-.15,.35-.2,2.54-.24,2.9-.04,.29-.15,3.04-.18,3.73-.12,.8-.3,1.58-.5,2.34-.35,1.41-.99,4.11-1.07,5.54h-.01c-.1,.55-.24,1.09-.36,1.63-.03,.07-.05,.12-.09,.21-.14,.33-.2,.74-.27,1.16-.62,2.23-1.63,4.36-2.77,6.45-1.14,2.09-2.45,4.14-3.79,6.21-.94,1.45-1.89,2.9-3.09,4.23-2.13,2.34-4.15,4.87-6.19,7.33-.96,1.16-1.34,2.15-2.83,3.55-.59,.66-1.82,1.8-2.34,2.49-.97,1.28-1.37,1.99-2.32,3.29-2.11,2.88-4.3,5.71-6.49,8.53-.58,.74-1.25,1.41-1.92,2.08-1.09,1.09-2.06,2.01-2.73,3.34-.62,1.22-1.17,2.27-2.23,3.34-1.7,1.73-3,3.72-4.52,5.55-2.4,2.9-4.63,5.35-7.45,7.62-.83,.64-1.82,1.09-2.53,1.79-1.78,1.8-3.95,2.54-6.21,3.6-.46,.25-1.18,.76-1.79,1.42-.63,.58-1.18,1.26-1.2,1.78-.02,.6,.45,1.17,.44,1.78-.01,.7,.55,1.46,1.39,1.98,.83,.53,1.96,.82,2.8,.48,1.8-.64,3.42-1.64,4.99-2.64,1.61-1.07,3.3-2.06,4.68-3.36,1.12-1.02,1.84-2.44,2.93-3.36,1.18-.99,1.96-2.27,3.27-3.26,1.88-1.45,3.2-3.57,4.71-5.37,3.33-4.01,6.55-8.08,9.92-12.01,2.14-2.49,3.93-5.33,5.88-7.87l8.22-10.55c2.73-3.53,5.49-6.99,8.14-10.71,1.31-1.86,2.65-3.73,3.88-5.7,1.67-2.69,2.57-4.91,4.18-7.68,.08-.13,.15-.29,.22-.43h0s.03-.07,.03-.07c.72-1.35,1.25-3.03,1.58-4.48,.86-2.95,1.44-5.89,2.06-8.72,.71-3.26,.85-6.49,1.53-9.47,.64-2.83,1.45-5.61,2.41-8.34,.93-2.74,1.98-5.45,3.18-8.08,1.54-2.85,4.02-5.13,5.7-7.67,.46-.67,.71-1.51,.7-2.33-.28-1.04-.23-1.29-.44-1.75-.07-.14-.15-.27-.24-.4l-.07-.1h0s0-.02,0-.02h0s0,0,0,0l-.06-.04v-.02s-.05-.04-.05-.04c-.04-.05-.09-.11-.14-.16-.2-.22-.46-.43-.77-.62-.82-.52-1.97-.91-3.38-1.2-1.56-.4-2.62-.17-3,.61Z"/>
    <path class="cls-3" d="M792.84,580.35c-.54,.69-.99,.83-1.63,1.47-.53,.53-1.09,1.44-1.55,1.97-.9,1.02-1.67,2.16-2.59,3.17-2.6,2.85-5.26,5.65-7.93,8.43l-2.67,2.72c-.07,.07-.15,.15-.21,.21-.02,.03-.04,.05-.07,.07-1.23,1.24-2.45,2.49-3.63,3.78-.66,.73-2.31,2.52-2.49,2.65-.31,.21-1.66,1.94-1.91,2.22-.2,.21-2,2.39-2.47,2.96-.59,.6-1.23,1.16-1.88,1.71-1.17,1-3.42,3.09-4.34,4.43h0s-1.27,1.4-1.27,1.4c-.06,.06-.12,.1-.2,.17-.31,.28-.6,.65-.88,1.04-3.57,4.01-7.12,8.16-10.05,12.8-1.01,1.63-1.95,3.3-3.05,4.88-1.94,2.78-3.53,5.62-5.44,7.96-.9,1.08-1.27,2.01-2.83,3.03-.64,.49-1.97,1.22-2.63,1.66-1.22,.84-1.82,1.32-3.16,2.07-3.01,1.65-6.41,2.83-9.9,4.04-.92,.31-1.88,.52-2.83,.72-1.56,.32-2.91,.59-4.27,1.31-1.25,.67-2.35,1.2-3.87,1.51-2.46,.48-4.77,1.38-7.19,2.06-3.83,1.09-7.25,2.02-11.14,2.8-1.13,.23-2.33,.24-3.4,.61-2.67,.92-5.21,1.15-8.13,1.81-1.2,.27-3.91,1.73-4.08,2.63-.1,.53,.34,1.06,.27,1.59-.18,1.21,2.08,2.82,3.73,2.5,1.74-.35,3.44-.85,5.17-1.24,1.81-.4,3.64-.74,5.41-1.25,1.41-.41,2.7-1.28,4.11-1.54,1.5-.29,2.86-.93,4.51-1.1,2.38-.23,4.71-1.21,7.07-1.83,5.21-1.38,10.46-2.94,15.69-4.35,3.32-.87,6.64-2.31,9.87-3.8,2.25-1.03,4.48-2.25,6.58-3.75,2.09-1.51,4.05-3.38,5.61-5.38,3.16-4.03,5.17-8.3,7.53-12.04,1.18-1.89,2.5-3.72,3.88-5.5,1.87-2.41,3.18-4.35,5.49-6.34,.11-.1,.23-.21,.34-.31h0s.05-.05,.05-.05c1.05-.98,2.13-2.21,3.06-3.33,2.02-2.16,4.1-4.28,6.23-6.36,2.44-2.39,4.6-5.13,6.88-7.57l12.95-13.85c2.51-2.45,5.54-4.42,7.9-6.85,.63-.65,1.14-1.45,1.38-2.25,.18-.9,.37-1.06,.34-1.47-.05-.5-.38-.98-.89-1.4-.69-.58-1.72-1.06-2.8-1.31-1.12-.29-2.09-.17-2.63,.5Z"/>
    <path class="cls-3" d="M797.54,697.32c-.67,.21-1.03-.04-1.74,.02-.59,.05-1.38,.44-1.93,.53-1.07,.2-2.11,.62-3.2,.73-1.53,.18-3.06,.33-4.6,.39-1.54,.1-3.08,.13-4.62,.14-1.02,.02-2.03-.02-3.05-.07-.08,0-.17-.02-.24-.02-.03,0-.05,0-.08,0-1.4-.05-2.8-.12-4.2-.14-.79,0-2.73-.03-2.91-.12-.28-.12-2.05,.04-2.35,.02-.23,0-2.52,.04-3.11,.05-.67-.1-1.34-.24-2-.43-1.2-.36-3.6-.83-4.9-.74v-.02s-1.5-.18-1.5-.18c-.06-.02-.12-.04-.2-.07-.31-.1-.69-.1-1.08-.09-4.22-.6-8.41-1.48-12.65-2.15-1.48-.26-2.97-.44-4.4-.99-2.53-.94-5.14-1.67-7.72-2.53-1.22-.41-2.14-.32-3.68-1.15-.7-.28-1.96-.97-2.67-1.17-1.32-.38-2.03-.46-3.36-.83-2.96-.81-5.91-1.72-8.88-2.6-.78-.23-1.53-.58-2.27-.92-1.21-.57-2.28-1.04-3.59-1.12-1.2-.08-2.24-.14-3.45-.64-1.95-.82-4.06-1.1-6.13-1.59-3.31-.71-6.26-1.32-9.62-1.95-.97-.21-1.94-.59-2.93-.53-1.23,.07-2.37-.07-3.54-.17-1.17-.09-2.37-.22-3.67-.27-.54,0-1.45,.24-2.26,.56-.2,.08-.4,.17-.58,.26-.18,.17-.34,.26-.49,.39-.29,.24-.49,.46-.56,.66-.15,.46,.14,.97,.01,1.43-.15,.51,.18,1.19,.71,1.86,.53,.71,1.24,1.23,1.89,1.23,1.38-.03,2.77-.01,4.16,.05,1.45,.06,2.89,.44,4.33,.51,1.14,.12,2.37-.22,3.48,.02,1.18,.27,2.39,.24,3.62,.74,.89,.35,1.82,.62,2.78,.8,.96,.18,1.94,.33,2.88,.61,4.16,1.14,8.38,2.46,12.47,4.09,2.6,1.03,5.39,1.65,8,2.53,7.24,2.44,14.53,5.18,22.15,6.95l5.67,1.39c2.58,.59,4.56,.75,7.01,1.74,.12,.05,.25,.08,.38,.13h0s.06,.02,.06,.02c1.17,.43,2.57,.62,3.8,.73,1.24,.24,2.48,.46,3.73,.66,1.25,.22,2.49,.43,3.73,.65,2.87,.48,5.84,.29,8.66,.37,5.35,.18,10.71,.13,16.05-.28,1.49-.03,3,.21,4.51,.37,1.51,.14,3.01,.3,4.46,.13,.77-.1,1.53-.45,2.08-1.04,.54-.88,.73-.95,.9-1.42,.05-.14,.08-.29,.11-.45l.02-.12c-.01-.15,0-.1,0-.17v-.23c.02-.32-.02-.69-.1-1.08-.22-1.06-.72-2.29-1.37-3.56-.68-1.42-1.38-2.12-2.04-1.92Z"/>
    <path class="cls-3" d="M650.24,727.28c.23-.04,.22,.26,.45,.42,.19,.12,.71,.11,.99,.31,.52,.35,1.23,.71,1.67,1.32,.28,.39,.6,.95,.88,1.54,.29,.6,.55,1.25,.82,1.95,.55,1.4,1.08,2.99,1.81,4.69,.48,1.12,1.07,2.3,1.74,3.42,.05,.09,.11,.19,.16,.26,.02,.03,.04,.05,.06,.08,.96,1.51,2.1,2.87,3.36,4.01,.71,.66,2.52,2.09,2.65,2.23,.21,.3,2.01,1.26,2.3,1.42,.22,.17,2.49,1.29,3.07,1.54,.63,.38,1.22,.83,1.79,1.27,1.06,.81,3.2,2.2,4.5,2.57h0s1.39,.72,1.39,.72c.06,.04,.1,.08,.17,.13,.27,.2,.64,.34,1.02,.47,3.93,2,7.82,4.09,11.87,5.86,1.42,.62,2.84,1.19,4.16,2.03,2.34,1.49,4.83,2.74,7.27,4.05,1.15,.62,2.08,.71,3.5,1.78,.66,.39,1.82,1.27,2.5,1.58,1.26,.59,1.94,.78,3.21,1.35,2.82,1.26,5.6,2.62,8.38,3.97,.73,.36,1.41,.82,2.08,1.28,1.1,.75,2.05,1.41,3.3,1.73,1.15,.3,2.14,.58,3.22,1.31,1.73,1.17,3.66,1.94,5.52,2.9,1.48,.76,2.86,1.49,4.24,2.24,1.39,.73,2.76,1.48,4.19,2.31,.83,.48,1.58,1.16,2.46,1.49,2.21,.84,3.91,2.12,6.09,3.34,.93,.43,3.51,.86,4.11,.39,.36-.28,.37-.85,.71-1.15,.76-.65,.28-2.94-.87-3.75-1.21-.84-2.57-1.42-3.84-2.14-1.34-.75-2.61-1.63-3.96-2.32-1.08-.55-2.37-.72-3.36-1.38-1.06-.7-2.24-1.07-3.31-1.94-1.54-1.26-3.51-1.96-5.27-2.94-3.88-2.18-7.88-4.3-11.72-6.6-2.44-1.47-5.13-2.53-7.59-3.8-6.84-3.54-13.58-7.28-20.47-10.71-1.72-.85-3.4-1.78-5.08-2.69-2.28-1.24-4.13-1.94-6.13-3.6-.1-.08-.21-.15-.31-.23h0s-.06-.04-.06-.04c-.98-.73-2.19-1.37-3.29-1.88-2.14-1.24-4.31-2.47-6.23-3.8-2.21-1.52-4.58-2.68-6.32-4.29-.82-.76-1.56-1.55-2.18-2.4-.62-.86-1.13-1.71-1.58-2.7-.92-1.99-1.57-4.55-2.83-7.32-.56-1.54-1.27-3.47-2.36-5.13-1.08-1.68-2.57-3.33-4.78-4.29-1.16-.51-2.64-.61-3.75-.16-1.14,.5-1.46,.41-1.8,.84-.39,.52-.35,1.38-.13,2.35,.31,1.32,.89,2.86,1.15,4.1,.3,1.23,.23,2.12,.41,2.03Z"/>
    <path class="cls-3" d="M573.18,749.69c.2-.29,.5-.72,.82-1.04,.32-.32,.67-.55,1.11-.47,.23,.04,.5,.15,.8,.3,.28,.16,.68,.33,.87,.64,.46,.58,.94,1.34,1.29,2.16,.36,.81,.7,1.67,.91,2.43,.2,.77,.34,1.43,.37,1.88,.1,1.39-.19,2.38,0,3.79,.49,3.88,1.92,9.13,3.67,14.24,.87,2.56,1.86,5.04,2.84,7.29,.52,1.11,.96,2.2,1.46,3.16,.47,.98,.89,1.91,1.32,2.72,.34,.71,.76,1.58,1.34,2.48,.28,.46,.58,.94,.89,1.44,.35,.47,.71,.97,1.09,1.48,.72,1.06,1.61,1.99,2.62,2.94,1,.94,2.11,1.85,3.28,2.72,4.69,3.39,10.15,6.6,12.87,8.56,5.42,3.85,19.9,12.71,23.74,14.35,5.56,2.39,10.26,6.38,15.38,9.61,3.11,1.96,6.37,3.74,9.35,5.89,1.59,1.15,2.46,3.34,2.56,5.45,.08,1.4-.11,2.1-.65,2.54-.53,.44-1.42,.68-2.61,.98-3.57,.84-6.19-.88-8.63-3.99-1.66-2.13-7.05-5.31-9.42-6.96-6.1-4.24-9.69-6.63-15.9-10.72-3.43-2.25-10.65-5.89-14.09-8.16-1.03-.67-3.03-2.11-5.63-3.97-1.31-.93-2.76-1.96-4.32-3.07-1.56-1.13-3.29-2.3-4.98-3.69-2.58-2.05-5.39-4.58-7.45-7.1-1.06-1.24-1.84-2.42-2.55-3.36-.63-.98-1.08-1.75-1.32-2.18-2.52-4.61-4.27-10.16-5.97-16.39-1.27-4.71-2.75-10.22-3.59-13.68-.4-1.64-.71-3.3-1.05-4.94-.27-1.67-.63-3.3-1.05-4.93-.12-.42-.1-.85,.02-1.26,.11-.41,.39-.83,.61-1.17Z"/>
    <path class="cls-3" d="M641.99,438.79c-.14,.63-.56,.78-.85,1.39-.22,.51-.21,1.34-.36,1.83-.3,.96-.36,1.99-.63,2.95-.4,1.35-.85,2.68-1.18,4.05l-.56,2.03-.49,2.04c-.21,.9-.48,1.78-.67,2.69-.02,.07-.04,.15-.05,.21,0,.03,0,.05,0,.07-.28,1.24-.57,2.48-.7,3.75-.08,.71-.29,2.46-.36,2.61-.13,.25-.03,1.86-.05,2.13-.03,.21,0,2.26,.04,2.8-.07,.6-.21,1.21-.36,1.8-.28,1.09-.56,3.29-.33,4.44h-.02s.03,1.36,.03,1.36c-.01,.06-.02,.11-.04,.19-.05,.29,0,.63,.06,.97,.12,3.82,.29,7.67,1.13,11.41,.25,1.32,.67,2.58,.73,3.94,.03,.6,.12,1.2,.2,1.79,.02,.27,0,.35,.02,.51,0,.07,.06,.14-.01,.2l-.23,.19-.44,.37c-.72,.7-1.06,1.53-2.3,2.36-.48,.43-1.51,1.14-1.92,1.63-.77,.9-1.06,1.43-1.8,2.35-1.64,2.04-3.31,4.03-4.97,6.02-.43,.52-.96,.97-1.48,1.41-.85,.73-1.6,1.34-2.07,2.33-.43,.91-.83,1.68-1.65,2.39-1.33,1.14-2.29,2.59-3.43,3.91-1.8,2.1-3.42,3.94-5.41,5.83-.58,.55-1.33,.94-1.76,1.6-1.11,1.61-2.57,2.6-4.06,3.99-.6,.58-1.51,2.51-1.13,3.3,.23,.46,.79,.75,1.04,1.2,.54,1.04,2.86,1.62,3.76,.82,.94-.85,1.72-1.82,2.62-2.69,.9-.93,1.94-1.74,2.78-2.72,.66-.78,1-1.87,1.75-2.53,.8-.71,1.29-1.65,2.26-2.3,1.4-.94,2.33-2.44,3.49-3.66,2.58-2.69,5.06-5.54,7.73-8.13,1.69-1.65,3.05-3.64,4.59-5.34,2.14-2.35,4.33-4.65,6.57-6.83l2.74-2.7c.22-.24,.5-.45,.67-.71l-.2-1.02-.4-2.04-.33-1.56c-.09-.38-.16-.76-.22-1.14l-.42-2.28c-.25-1.52-.41-3.06-.53-4.6-.06-1.05-.19-1.96-.25-2.87-.03-.91,0-1.82,.24-2.85,.02-.1,.03-.21,.04-.31h0s0-.05,0-.05c.18-.97,.18-2.07,.11-3.04,.12-1.98,.28-3.96,.64-5.91,.18-1.12,.27-2.25,.36-3.38,.07-1.13,.16-2.26,.35-3.35,.7-4.13,1.79-8.19,3.08-12.17,.93-2.15,2.85-3.88,3.77-5.87,.26-.53,.28-1.18,0-1.84-.3-.7-.1-.78-.39-1.12-.35-.4-1.11-.85-2.04-1.26-2.54-1.13-6.42-1.87-6.71-.61Z"/>
  </g>
  <g id="Camada_3" data-name="Camada 3">
    <g class="cls-5">
      <path class="cls-1" d="M-16-41.03c178.29,4.18,395.23,7.63,573.53,9.39l267.44,2.67,241.85,1.53,.04-6.1,.08-9.35,.08-16.72,.13-33.43,.18-66.86,.06-133.72c-.07-89.15-.36-178.3-.73-267.44l-.52-133.72-.1-133.72-.05-66.86,.23-66.86,.53-122.77,.04-2.61-8.17-.11-11.13-.11-32.79-.22-65.57-.45-131.15-.89c-44.58-.26-89.14-.52-133.72-.78-44.58-.13-89.14-.29-133.72-.22-89.15-.16-178.3,.39-267.44,1.27l-133.72,1.51-66.86,.85-33.43,.43-16.72,.22-4.18,.05-1.78,.03-.93,.03-3.68,.11-6.72,.18,.07,6.49,.04,3.18,.02,1.57v3.23s-.1,29.52-.1,29.52l-.2,59.05-.67,133.73-1.35,267.45L11.02-13.6-42.53-47.37c5.17-89.08,9.13-178.18,12.92-267.28l2.71-66.83c.91-22.27,1.83-44.55,2.59-66.83l4.79-133.67,4.15-133.67c.67-22.28,1.35-44.56,2.02-66.84l1.74-66.84,3.48-133.68c.46-19.68,.87-39.36,1.21-59.04l.46-29.52,.45-35.53,19.12-.08,35.95-.28,33.43-.48c22.28-.3,44.58-.63,66.86-1.13l133.72-2.8c44.58-.96,89.14-1.55,133.72-2.06,44.58-.48,89.14-.45,133.72-.43,44.58-.07,89.14,.17,133.72,.36,44.58,.23,89.14,.73,133.72,1.08l131.15,1.15,65.57,.57,75.21,.5-.04,7.01-.29,74.63-.12,66.86c-.02,44.57,.08,89.15,.29,133.72,.43,89.15,1.35,178.3,2.78,267.44l1.71,133.72c.57,44.57,1.18,89.15,1.42,133.72,.43,44.57,.43,89.15,.56,133.72,.05,22.29,.03,44.57-.04,66.86l-.39,75.39-.11,19.03-47.31-.34-31.91-.4-63.82-.95-127.64-2.26-66.86-1.12c-22.29-.4-44.57-.56-66.86-.86-44.57-.64-89.15-.74-133.72-.81-89.15,.14-178.29,.93-267.44,3.72C245.51-.26,200.93,1.48,156.36,3.82,111.79,6.18,67.21,8.95,22.64,13.03L-16-41.03Z"/>
    </g>
    <g class="cls-4">
      <path class="cls-1" d="M-16,1059.97c178.29,4.18,395.23,7.63,573.53,9.39l267.44,2.67,241.85,1.53,.04-6.1,.08-9.35,.08-16.72,.13-33.43,.18-66.86,.06-133.72c-.07-89.15-.36-178.3-.73-267.44l-.52-133.72-.1-133.72-.05-66.86,.23-66.86,.53-122.77,.04-2.61-8.17-.11-11.13-.11-32.79-.22-65.57-.45-131.15-.89c-44.58-.26-89.14-.52-133.72-.78-44.58-.13-89.14-.29-133.72-.22-89.15-.16-178.3,.39-267.44,1.27l-133.72,1.51-66.86,.85-33.43,.43-16.72,.22-4.18,.05-1.78,.03-.93,.03-3.68,.11-6.72,.18,.07,6.49,.04,3.18,.02,1.57v3.23s-.1,29.52-.1,29.52l-.2,59.05-.67,133.73-1.35,267.45-1.84,567.9-53.56-33.77c5.17-89.08,9.13-178.18,12.92-267.28l2.71-66.83c.91-22.27,1.83-44.55,2.59-66.83l4.79-133.67,4.15-133.67c.67-22.28,1.35-44.56,2.02-66.84l1.74-66.84,3.48-133.68c.46-19.68,.87-39.36,1.21-59.04l.46-29.52,.45-35.53,19.12-.08,35.95-.28,33.43-.48c22.28-.3,44.58-.63,66.86-1.13l133.72-2.8c44.58-.96,89.14-1.55,133.72-2.06,44.58-.48,89.14-.45,133.72-.43,44.58-.07,89.14,.17,133.72,.36,44.58,.23,89.14,.73,133.72,1.08l131.15,1.15,65.57,.57,75.21,.5-.04,7.01-.29,74.63-.12,66.86c-.02,44.57,.08,89.15,.29,133.72,.43,89.15,1.35,178.3,2.78,267.44l1.71,133.72c.57,44.57,1.18,89.15,1.42,133.72,.43,44.57,.43,89.15,.56,133.72,.05,22.29,.03,44.57-.04,66.86l-.39,75.39-.11,19.03-47.31-.34-31.91-.4-63.82-.95-127.64-2.26-66.86-1.12c-22.29-.4-44.57-.56-66.86-.86-44.57-.64-89.15-.74-133.72-.81-89.15,.14-178.29,.93-267.44,3.72-44.57,1.35-89.15,3.1-133.72,5.43-44.57,2.36-89.15,5.13-133.72,9.21l-38.64-54.05Z"/>
    </g>
    <g class="cls-2">
      <path class="cls-1" d="M1084,1059.97c178.29,4.18,395.23,7.63,573.53,9.39l267.44,2.67,241.85,1.53,.04-6.1,.08-9.35,.08-16.72,.13-33.43,.18-66.86,.06-133.72c-.07-89.15-.36-178.3-.73-267.44l-.52-133.72-.1-133.72-.05-66.86,.23-66.86,.53-122.77,.04-2.61-8.17-.11-11.13-.11-32.79-.22-65.57-.45-131.15-.89c-44.58-.26-89.14-.52-133.72-.78-44.58-.13-89.14-.29-133.72-.22-89.15-.16-178.3,.39-267.44,1.27l-133.72,1.51-66.86,.85-33.43,.43-16.72,.22-4.18,.05-1.78,.03-.93,.03-3.68,.11-6.72,.18,.07,6.49,.04,3.18,.02,1.57v3.23s-.1,29.52-.1,29.52l-.2,59.05-.67,133.73-1.35,267.45-1.84,567.9-53.56-33.77c5.17-89.08,9.13-178.18,12.92-267.28l2.71-66.83c.91-22.27,1.83-44.55,2.59-66.83l4.79-133.67,4.15-133.67c.67-22.28,1.35-44.56,2.02-66.84l1.74-66.84,3.48-133.68c.46-19.68,.87-39.36,1.21-59.04l.46-29.52,.45-35.53,19.12-.08,35.95-.28,33.43-.48c22.28-.3,44.58-.63,66.86-1.13l133.72-2.8c44.58-.96,89.14-1.55,133.72-2.06,44.58-.48,89.14-.45,133.72-.43,44.58-.07,89.14,.17,133.72,.36,44.58,.23,89.14,.73,133.72,1.08l131.15,1.15,65.57,.57,75.21,.5-.04,7.01-.29,74.63-.12,66.86c-.02,44.57,.08,89.15,.29,133.72,.43,89.15,1.35,178.3,2.78,267.44l1.71,133.72c.57,44.57,1.18,89.15,1.42,133.72,.43,44.57,.43,89.15,.56,133.72,.05,22.29,.03,44.57-.04,66.86l-.39,75.39-.11,19.03-47.31-.34-31.91-.4-63.82-.95-127.64-2.26-66.86-1.12c-22.29-.4-44.57-.56-66.86-.86-44.57-.64-89.15-.74-133.72-.81-89.15,.14-178.29,.93-267.44,3.72-44.57,1.35-89.15,3.1-133.72,5.43-44.57,2.36-89.15,5.13-133.72,9.21l-38.64-54.05Z"/>
    </g>
    <g class="cls-7">
      <path class="cls-1" d="M1084-41.03c178.29,4.18,395.23,7.63,573.53,9.39l267.44,2.67,241.85,1.53,.04-6.1,.08-9.35,.08-16.72,.13-33.43,.18-66.86,.06-133.72c-.07-89.15-.36-178.3-.73-267.44l-.52-133.72-.1-133.72-.05-66.86,.23-66.86,.53-122.77,.04-2.61-8.17-.11-11.13-.11-32.79-.22-65.57-.45-131.15-.89c-44.58-.26-89.14-.52-133.72-.78-44.58-.13-89.14-.29-133.72-.22-89.15-.16-178.3,.39-267.44,1.27l-133.72,1.51-66.86,.85-33.43,.43-16.72,.22-4.18,.05-1.78,.03-.93,.03-3.68,.11-6.72,.18,.07,6.49,.04,3.18,.02,1.57v3.23s-.1,29.52-.1,29.52l-.2,59.05-.67,133.73-1.35,267.45-1.84,567.9-53.56-33.77c5.17-89.08,9.13-178.18,12.92-267.28l2.71-66.83c.91-22.27,1.83-44.55,2.59-66.83l4.79-133.67,4.15-133.67c.67-22.28,1.35-44.56,2.02-66.84l1.74-66.84,3.48-133.68c.46-19.68,.87-39.36,1.21-59.04l.46-29.52,.45-35.53,19.12-.08,35.95-.28,33.43-.48c22.28-.3,44.58-.63,66.86-1.13l133.72-2.8c44.58-.96,89.14-1.55,133.72-2.06,44.58-.48,89.14-.45,133.72-.43,44.58-.07,89.14,.17,133.72,.36,44.58,.23,89.14,.73,133.72,1.08l131.15,1.15,65.57,.57,75.21,.5-.04,7.01-.29,74.63-.12,66.86c-.02,44.57,.08,89.15,.29,133.72,.43,89.15,1.35,178.3,2.78,267.44l1.71,133.72c.57,44.57,1.18,89.15,1.42,133.72,.43,44.57,.43,89.15,.56,133.72,.05,22.29,.03,44.57-.04,66.86l-.39,75.39-.11,19.03-47.31-.34-31.91-.4-63.82-.95-127.64-2.26-66.86-1.12c-22.29-.4-44.57-.56-66.86-.86-44.57-.64-89.15-.74-133.72-.81-89.15,.14-178.29,.93-267.44,3.72-44.57,1.35-89.15,3.1-133.72,5.43-44.57,2.36-89.15,5.13-133.72,9.21l-38.64-54.05Z"/>
    </g>
  </g>
</svg>