<?xml version="1.0" encoding="UTF-8"?>
<svg xmlns="http://www.w3.org/2000/svg" xmlns:xlink="http://www.w3.org/1999/xlink" viewBox="0 0 1080 1080">
  <defs>
    <style>
      .cls-1 {
        fill: #fff;
      }

      .cls-2 {
        fill: #353404;
      }

      .cls-3 {
        fill: #f6c135;
      }

      .cls-4 {
        fill: #ffd71f;
      }

      .cls-5 {
        clip-path: url(#clippath-1);
      }

      .cls-6 {
        fill: #f6bd27;
      }

      .cls-7 {
        clip-path: url(#clippath);
      }

      .cls-8 {
        fill: none;
      }

      .cls-9 {
        fill: #fb4000;
      }

      .cls-10 {
        fill: #434215;
      }

      .cls-11 {
        fill: #ff5c27;
      }
    </style>
    <clipPath id="clippath">
      <rect class="cls-8" width="1080" height="1080"/>
    </clipPath>
    <clipPath id="clippath-1">
      <rect class="cls-8" x="1100" width="1080" height="1080"/>
    </clipPath>
  </defs>
  <g id="Camada_1" data-name="Camada 1">
    <rect class="cls-9" x=".17" y="-1" width="1081.09" height="1081.09"/>
  </g>
  <g id="Camada_2" data-name="Camada 2">
    <g>
      <g>
        <path class="cls-2" d="M305.62,370.78c-22.21-34.32-60.53-55.04-93.05-55.04-2.17,0-4.22-.86-5.74-2.38-1.55-1.52-2.39-3.59-2.39-5.74v-64.95c0-4.53,3.69-8.22,8.22-8.22h243.78c2.17,0,4.22,.86,5.74,2.38,1.55,1.53,2.39,3.59,2.39,5.76v65.02c0,4.49-3.63,8.14-8.14,8.14-4.87,0-16.55,7.02-22.69,18.31-6.14,11.3-5.6,25.04,1.38,35.83,29.45,45.47,69.34,107.07,86.32,133.28,1.8,2.77,4.87,4.45,8.19,4.45s6.36-1.68,8.16-4.45c16.98-26.21,56.87-87.81,86.29-133.26,6.98-10.8,7.52-24.54,1.38-35.83-6.14-11.3-17.82-18.33-22.69-18.33-2.17,0-4.22-.86-5.74-2.38-1.55-1.52-2.39-3.59-2.39-5.76v-64.87c0-4.57,3.72-8.29,8.31-8.29h243.64c4.5,0,8.19,3.67,8.19,8.21v64.96c0,2.15-.84,4.22-2.39,5.74-1.52,1.52-3.58,2.38-5.74,2.38-32.52,0-70.89,20.66-93.22,54.93l-98.4,151.02c20.44,3.7,35.76,16.82,46.12,39.15-7.26-4.42-14.87-6.08-24.61-6.08-14.33,0-32.49,5.74-35.78,7.32-7.57,3.63-16.81,9.63-23.51,17.61l-7.07,10.84v162.63c0,27.8,22.66,50.35,42.23,50.35,4.48,0,8.14,3.65,8.14,8.14v64.54c0,4.49-3.63,8.14-8.14,8.14-2.51,0-11.21-2.89-19.57-6.91-19.37-9.43-41.81-10.26-61.83-2.28-13.65,5.46-27.98,9.67-40.54,9.67s-27.06-4.19-40.68-9.71c-19.99-7.98-42.43-7.18-61.8,2.22-8.36,4.08-16.27,6.95-19.45,6.95-4.5,0-8.14-3.63-8.14-8.12v-64.51c0-4.48,3.63-8.12,8.14-8.12,17.82,0,39.05-21.13,39.05-47.2v-166.12l-6.59-10.19c-6.73-8.14-16.1-14.23-23.79-17.92-3.27-1.58-21.45-7.32-35.76-7.32-9.77,0-17.37,1.66-24.61,6.08,10.39-22.42,25.82-35.57,46.37-39.19l-97.61-150.86Z"/>
        <path class="cls-10" d="M307.38,374.68c-5.24-15.48,11.64,2.2,92.11,123.86,3.41,5.38,10.01,15.78,18.61,29.32-4.09,.81-8.37,1.66-12.79,2.54-2.31,.39-4.31,1.04-6.45,1.61l-3.33,.94-1.48,.58c-3.49,1.37-6.95,3.23-10.17,5.57-1.61,1.17-3.14,2.47-4.64,3.81l-2.18,2.13c-.37,.36-.72,.82-.97,1.24-1.09,1.49,.43,.45,.49,.53,.36-.11,.74-.18,1.1-.22l1.24-.06c1.66-.06,3.32-.04,5.03,.02,6.68,.28,12.65,1.31,18.25,2.51,5.62,1.25,10.68,2.62,15.76,4.42,3.12,1.12,5.31,2.4,7.44,3.54,2.15,1.19,4.17,2.43,6.07,3.69,3.8,2.52,7.11,5.15,9.94,7.77,2.89,2.84,5,4.68,7.36,8.32,3.5,5.42,5.92,9.16,7.08,10.97,0,34.09,0,66.54-.01,97.43,0,15.06,0,29.74,0,44.05,0,7.15,0,14.22,0,21.19,.02,3.39,.03,6.91-.26,11.15-.41,4.01-1.19,7.93-2.36,11.71-4.9,14.98-14.82,27.76-29.02,34.67-3.51,1.77-7.49,2.9-11.61,3.52l-3.18,.23c.53-.05,.05,0,.05,0-.19,.04-.37,.14-.51,.28-.13,.15-.24,.31-.27,.51l-.02,.29v1.86c0,3.09,0,6.15,0,9.19,0,12.18,0,24.01,0,35.51,0,5.21,0,10.35,0,15.41,.03,.74,.77,1.22,1.58,.87,4.21-1.2,9.06-3.29,13.48-5.4,5.03-2.46,10.58-4.58,16.01-5.99,10.95-2.9,22.11-3.49,32.65-2.12,10.45,1.02,20.91,5.55,28.36,8.3,8.08,2.85,16.02,4.94,23.5,5.77,14.43,1.66,29-3.13,42.11-8.11,14.57-6.14,30.48-7.83,44.26-5.92,9.78,1.25,19.81,4.64,27.66,8.62,3.67,1.67,7.49,3.19,11.1,4.34l1.63,.48c.12,.03,.24,.05,.36,.04,.24-.02,.46-.15,.62-.32,.16-.18,.23-.42,.22-.66v-5.2c0-4.14-.01-8.25-.02-12.32,0-8.15-.02-16.17-.03-24.09-.02-6.93-.04-13.76-.06-20.52-.04-.38-.66-.69-.76-.6-5.11-.05-9.74-1.48-14.05-3.16-16.96-7.46-27.92-22.07-33.06-38.22-2.6-7.96-2.72-17.47-2.6-24.16l-.03-21.8c-.02-14.51-.04-29.02-.07-43.65-.04-30.1-.07-60.71-.11-92.98,2.33-3.57,4.71-7.24,7.15-10.99,2.54-4.23,5.82-7.09,8.85-9.92,3.18-2.81,6.6-5.36,10.23-7.68,1.81-1.16,3.68-2.26,5.61-3.3l2.94-1.52,1.86-.86,1.78-.69c8.46-2.93,16.68-4.93,25.9-6.23,4.41-.62,9.78-.95,14.18-.73,.25,.01,.54,.05,.81,.13,.75,.48,.38-.16-.05-.75-.19-.22-.02-.08-.53-.59-1.68-1.76-3.47-3.47-5.44-4.97-1.93-1.57-4.05-2.9-6.23-4.19-1.14-.55-2.23-1.2-3.41-1.7l-1.77-.76s-1.29-.5-1.9-.65l-2.2-.64c-5.61-1.81-12.29-2.82-15.79-3.69-.93-.2-1.73-.37-2.36-.5-.67-.12,.23-.73,.14-.85,.29-.44,.11-.19-.46,.77,26.69-40.8,43.68-66.77,55.9-85.46,10.85-16.37,17.47-26.36,24.25-36.58,6.77-10.22,13.69-20.66,25.13-37.94,5.89-9.09,14.25-19.69,26.75-30.25,12.6-10.33,29.5-21.33,53.2-26.94,4.15-.85,8.24-1.57,12.32-1.93,2.02-.29,4.07-.24,6.07-.36l1.38-.05c.17-.01,.33-.05,.49-.12,.63-.26,.98-.95,.91-1.59,0-3.41,0-6.74,0-10.01-.02-13.2-.05-25.33-.07-36.75-.02-5.47-.04-10.76-.05-15.93,0-.46-.22-.92-.59-1.17-.17-.14-.39-.22-.61-.25-.28-.03-.03,0-1.79,0-10.34,.05-20.33,.09-30.31,.14-39.95,.11-79.9,.22-142.79,.39-13.76,0-26.8,0-39.21,0-6.21,0-12.26,0-18.16,0-2.95,0-5.87,0-8.75,0h-.88s-.24,.04-.24,.04c-.15,.05-.29,.13-.4,.25-.1,.12-.2,.24-.23,.4l-.03,.23v1.02c0,2.74,0,5.46,0,8.14,0,5.37,0,10.61-.01,15.74-.01,10.26-.02,20.07-.03,29.52-.05,4.15,.15,11.45-.35,9.54,.04-.03,.28-.07,.17-.07,.15-.04-.32-.01,.34-.16,1.35,.05,2.48,.24,3.36,.46,1.87,.45,3.3,1.02,4.66,1.64,10.17,5.03,17.1,12.27,22.03,21.45,4.78,9.2,5.91,19.89,3.64,29.61-1.14,4.87-3.15,9.49-5.81,13.67l-6.56,10.1c-17.47,26.89-34.95,53.78-55.55,85.49-5.15,7.93-10.49,16.16-16.08,24.76-2.86,4.4-5.79,8.89-8.78,13.49-2.8,3.97-7.38,6.73-12.36,7.29-4.95,.59-10.19-1.05-13.95-4.51-.94-.86-1.79-1.82-2.52-2.87l-1.34-2.04-2.33-3.61c-1.56-2.42-3.15-4.87-4.75-7.35-3.21-4.96-6.49-10.04-9.86-15.25-6.74-10.42-13.83-21.37-21.3-32.92-14.29-22.07-28.61-44.17-42.93-66.28-1.88-2.97-3.39-5.06-5.57-8.75-1.98-3.51-3.46-7.31-4.37-11.24-1.84-7.86-1.42-16.23,1.23-23.86,2.65-7.71,7.47-14.32,13.21-19.47,2.93-2.58,6.05-4.88,9.79-6.8,1.9-.95,3.88-1.84,6.78-2.42,.63-.16,1.74-.22,2.59-.27,.22-.04,.09,0,.14-.02h.03s.07-.08,.07-.08v-.03c0-.17,.02,.4,.01-.79l-.02-9.87-.04-19.73-.05-19.72-.03-9.85-.02-3.97c0-.22-.07-.44-.2-.62-.45-.38-.26-.52-1.61-.45l-9.84,.04-19.66,.08c-13.1,.06-26.18,.12-39.24,.19-33.41,.06-66.06,.11-97.84,.16-15.89-.08-31.57-.15-47.01-.23-7.72-.07-15.38-.13-22.99-.2l-4.4-.06c-.25-.01-.52,.06-.72,.23-.21,.15-.38,.38-.44,.65-.03,.25-.04,0-.05,.68l-.04,2.81c-.24,14.96-.47,29.67-.7,44.13-.07,3.61-.14,7.21-.22,10.79l-.11,4.71c-.05,.47,.04,.97,.29,1.39,.25,.42,.64,.78,1.11,.97,.7,.21,.29,.15,2.81,.31,3.81,.14,7.52,.74,11.19,1.34,29.26,5.77,53.29,22.56,69.87,42.73,6.33,7.71,8.67,13,9.24,15.52,.56,2.54-.86,2.54-3.41,.93-4.91-3.42-15.02-12.51-25.73-20.34-8.96-6.6-20.12-13.48-33.12-18.23-6.47-2.39-13.38-4.29-20.47-5.3l-5.35-.57-6.81-.27c-8.14-.61-15.13-7.42-15.86-15.64-.12-1.01-.09-2.06-.09-3.07v-1.55s.02-3.11,.02-3.11l.04-6.23,.11-12.48c.1-8.32,.2-16.61,.3-24.77,.06-4.08,.12-8.13,.18-12.13l.06-3.7c.08-1.9,.41-3.77,1.07-5.51,1.3-3.49,3.76-6.45,6.85-8.36,3.03-1.96,6.89-2.73,10.3-2.53,1.92,.03,3.82,.06,5.7,.09,3.76,.06,7.46,.12,11.06,.18,65.4,.76,133.51,1.56,202.44,2.36l12.94,.1,6.47,.05,3.64,.02c1.72,0,3.43,.29,5.02,.9,3.18,1.2,5.86,3.6,7.39,6.62,.77,1.51,1.25,3.16,1.42,4.86,.09,.85,.07,1.71,.07,2.57v1.67s-.09,12.98-.09,12.98l-.14,25.98-.06,12.99-.03,6.5v3.25c.02,1.12-.17,3.38-.78,4.92-1.18,3.37-3.74,6.18-6.98,7.66-1.61,.75-3.38,1.16-5.14,1.21-.97,.08-.81,.02-1.77,.32-2.94,.97-6.36,3.24-9.18,5.71-5.78,5.08-9.86,11.73-11.05,19.06-1.21,7.32,.4,15.01,4.43,21.24l14.01,21.68c20,30.9,37.66,58.19,53.57,82.77,3.98,6.14,7.85,12.12,11.62,17.94,1.89,2.91,3.75,5.78,5.58,8.61l1.37,2.12c.31,.48,.51,.71,.83,1.02,.6,.57,1.34,.97,2.13,1.16,1.6,.4,3.29-.07,4.45-1.17,.3-.28,.53-.56,.77-.93l1.29-2,2.56-3.97c3.4-5.26,6.71-10.39,9.96-15.41,25.91-40.18,47.16-73.14,68.41-106.1l3.94-6.15c1.12-1.76,2.01-3.66,2.75-5.62,1.43-3.92,2.08-8.17,1.74-12.38-.5-8.47-4.99-16.47-12.03-22.32-3.57-2.81-7.37-5.51-11.08-5.4-4.47-.5-8.5-3.25-10.58-7.36-1.04-1.95-1.51-4.5-1.46-6.39v-4.11c-.03-11.02-.06-22.44-.09-34.4-.01-5.98-.02-12.09-.04-18.36v-4.73c.04-1.19-.21-3.96,.44-6.46,1.21-4.93,5.36-9.02,10.47-10.09,1.27-.3,2.58-.34,3.91-.34h2.56s5.04-.01,5.04-.01c3.38,0,6.8,0,10.27-.02,6.94,0,14.06-.02,21.39-.03,29.3-.03,61.83-.06,98.67-.09h55.28s27.64,.02,27.64,.02l13.82,.02h6.97c3.69-.15,7.4,.98,10.14,3.4,2.75,2.37,4.51,5.85,4.76,9.51l.04,7.74-.02,13.82-.05,27.64-.03,13.82v1.74c0,.92,0,1.84-.1,2.74-.2,1.81-.77,3.56-1.65,5.13-1.76,3.14-4.79,5.54-8.28,6.5-1.57,.52-3.94,.51-5.14,.57l-3.21,.12c-2.14,.08-4.29,.44-6.43,.64-4.28,.63-8.53,1.58-12.74,2.76-16.77,4.93-32.45,14.07-45.46,25.98-6.51,5.96-12.37,12.62-17.42,19.84-5.05,7.31-10.09,15.31-15.13,22.94l-60.4,92.6c-7.08,10.89-13.63,20.96-18.24,28.05-1.02,1.58-1.82,2.82-2.33,3.62-.83,.92,.16,.76-.2,.74,1,.19,1.97,.43,2.91,.71,1.05,.36,1.28,.38,4.05,1.59,4.35,1.94,8.3,4.32,11.8,6.92,3.65,2.81,6.11,5.07,9.47,8.73,3.62,4.22,6.69,8.42,8.86,12.23,2.37,3.85,3.97,7.25,5.7,10.54,.83,1.66,1.62,3.23,2.37,4.72,.38,.76,.74,1.5,1.1,2.22,.32,.67,.88,1.68,.55,1.38-1.14-.18-.94,2.19,.15,5.47-9.49-5.16-16.74-9.35-21.35-11.12-2.31-.83-4.22-1.12-6.15-1.4-1.81-.19-4.11-.32-4.83-.32-4.28-.07-8.35,.29-12.43,.94-7.98,1.29-15.99,3.38-22.24,5.77-6.01,2.84-12.07,6.83-16.8,11.11-2.4,2.3-4.7,4.35-6,6.75l-4.75,7.36c.07,20.46,.14,41.5,.22,68.16,.03,13.67,.06,28.77,.09,45.96,.01,8.59,.03,17.71,.04,27.42,0,4.86,.01,9.87,.02,15.03-.09,5.47,.14,9.6,1.23,14.49,4.1,17.35,17.03,29.81,28.87,33.07,1.47,.26,2.93,.74,4.32,.72l3.49,.27c1.47,.19,2.89,.61,4.2,1.22,5.31,2.44,8.51,8.03,8.31,13.51,0,6.69,0,12.93,0,18.8-.01,11.57-.02,21.7-.03,31.11-.01,4.98-.03,9.77-.04,14.46-.06,7.39-6.21,13.62-13.31,13.96-3.52,.23-7.36-1.23-9.14-1.75-2.24-.74-4.41-1.55-6.58-2.42-4.4-1.72-8.67-3.99-12.48-5.49-8.03-3.18-17.33-5.23-27.97-4.92-5.31,.17-10.94,.94-16.79,2.54-5.58,1.51-12.15,4.63-19.74,6.99-7.48,2.4-15.76,4.61-25.26,5.38-9.69,.78-19.83-.85-29.95-3.67-5.65-1.59-10.82-3.41-15.63-5.27-4.76-1.9-8.48-3.19-12.62-4.11-8.03-1.81-15.43-2.05-22.12-1.45-6.69,.7-12.7,2.13-18.14,4.23-5.17,1.95-10.74,5.15-16.83,7.43-1.52,.58-3.06,1.15-4.7,1.66-1.29,.41-4.5,1.32-6.88,1.33-5.13,.08-10.24-2.69-12.91-7.31-1.35-2.29-2.07-4.97-2.06-7.78-.01-1.82-.03-3.66-.04-5.54-.03-3.38-.05-6.89-.08-10.55-.05-7.33-.11-15.31-.18-24.25-.03-4.47-.06-9.18-.1-14.18-.02-2.5-.03-5.07-.05-7.71,0-.45-.04-1.74,.04-2.93,.08-1.17,.26-2.35,.61-3.48,.66-2.28,1.89-4.41,3.56-6.18,.96-1,2.45-2.32,4.69-3.37,1.12-.5,2.41-.95,3.88-1.2,.79-.12,1.35-.19,2.53-.25l1.32-.1c2.67-.2,6.31-1.21,10.17-3.53,7.77-4.48,15.95-14.26,18.77-25.59,1.58-5.61,1.47-11.16,1.44-18.09,0-6.51,0-12.7,0-18.25,.01-11.11,.03-19.65,.03-23.05,.04-16.69,.19-80.56,.27-115.27-1.31-2.04-2.55-3.95-3.72-5.76l-1.13-1.74c-.51-.79-.18-.32-.62-.85-.73-.87-1.5-1.68-2.26-2.45-3.05-3.09-6.15-5.47-8.92-7.37-5.72-3.78-9.75-5.8-12.11-6.47-2.39-.78-7.92-2.5-15.81-3.94-3.92-.69-8.48-1.37-13.21-1.42-1.15-.03-2.45,0-3.71,.05-2.06,.08-5.01,.37-7.73,.96-2.92,.7-6.06,1.92-11.27,5.01-6.4,3.66-12.92,7.4-19.55,11.2,2.75-6.48,2.99-7.78,3.1-8.69-.47,.48,.92-2.24,1.84-4.16,.96-1.97,1.93-3.95,2.91-5.96,3.74-7.68,7.78-16.1,15.1-24.71,1.98-2.51,3.19-3.47,4.32-4.72,1.27-1.19,2.55-2.4,3.91-3.53,2.75-2.25,5.67-4.4,8.85-6.21,1.55-.98,3.24-1.72,4.87-2.58l2.55-1.1,1.27-.54c-.39,.17-.05,.03-.05,.03,.46-.18,.93-.3,1.4-.4-9.35-14.62-19.02-29.76-28.25-44.19-11.16-17.6-21.65-34.43-30.44-49.01-17.6-29.17-28.45-49.39-24.47-49.04Z"/>
      </g>
      <path class="cls-10" d="M432.65,776.04c2.93,2.75,5.87,6.26,5.55,8.6-.02,.17-1.22-.36-1.46-.14-2.9,2.63-4.82,4.58-5.9,5.71-1.83,1.9-2.54,3.27-4.51,5.02-1.78,1.57-1.57,.14-3.39,1.68-1.22,1.04-.97,1.93-2.13,3.03-2.03,1.94-2.65,1.96-4.72,3.85-.99,.9-1.9,1.9-2.47,3.23-.73,1.7-2.67,1.92-6.72-.43-1.55-.9-6.58-6.64-7.58-8.19-1.67-2.61,.14-2.19,1.31-2.03,2.65,.35,4.67-.15,6-1.29,2.84-2.46,2.44-3.23,5.03-5.95,1.3-1.36,3.12-2.17,4.41-3.54,1.93-2.06,.99-2.03,2.88-4.13,1.38-1.53,1.46-1.04,2.77-2.64,.73-.89,.51-1.24,.97-2.42,.07-.17,.86-1.1,1.05-1.16,.32-.1,1.54-.96,1.65-1.28,.12-.34-.05-5.68,7.26,2.08Z"/>
      <path class="cls-10" d="M439.57,847.86c2.97,2.71,5.89,6.24,5.29,8.87-.04,.19-1.32-.26-1.61,.02-3.49,3.23-5.83,5.61-7.16,6.98-2.23,2.31-3.16,3.9-5.54,6.05-2.14,1.94-1.77,.34-3.94,2.24-1.47,1.29-1.28,2.24-2.68,3.59-2.46,2.37-3.15,2.46-5.65,4.79-1.19,1.11-2.31,2.31-3.08,3.85-.98,1.96-3.16,2.42-7.43,.29-1.64-.82-6.63-6.59-7.58-8.19-1.59-2.69,.38-2.43,1.67-2.4,2.91,.08,5.21-.69,6.81-2.11,3.41-3.04,3.05-3.84,6.21-7.14,1.58-1.65,3.7-2.76,5.27-4.41,2.36-2.49,1.32-2.36,3.63-4.89,1.69-1.85,1.73-1.31,3.35-3.23,.9-1.07,.7-1.43,1.32-2.78,.09-.19,1.07-1.31,1.28-1.4,.37-.15,1.82-1.24,1.97-1.6,.17-.39,.53-6.26,7.86,1.47Z"/>
      <path class="cls-10" d="M682.39,855.16c2.24,3.33,4.3,7.43,3.74,9.52-.04,.15-1.07-.63-1.32-.47-2.96,1.84-4.81,3.45-5.83,4.41-1.73,1.6-2.32,2.86-4.04,4.43-1.51,1.46-1.49,.09-3.02,1.6-1.05,1.01-.63,1.87-1.55,2.95-1.53,1.97-2.12,2.06-3.58,4.11-.7,.98-1.25,2.07-1.38,3.36-.13,1.67-1.77,2.24-6.36,1.35-1.77-.34-8.46-3.98-9.89-5.17-2.41-1.97-.48-2.33,.73-2.61,2.74-.66,4.61-1.78,5.72-3.32,2.4-3.26,1.89-3.94,4.3-7.28,1.24-1.65,3.09-2.74,4.43-4.26,2.04-2.28,1.05-2.21,3.17-4.47,1.57-1.64,1.63-1.09,3.19-2.74,.9-.89,.72-1.26,1.4-2.47,.1-.17,1.13-1.07,1.34-1.12,.35-.09,1.83-.84,2.02-1.14,.12-.33,1.55-5.91,6.92,3.3Z"/>
      <path class="cls-10" d="M243.01,282.63c2.73,2.95,5.33,6.72,4.53,9.28-.06,.19-1.28-.37-1.6-.13-3.72,2.89-6.22,5.04-7.65,6.28-2.39,2.09-3.44,3.59-5.97,5.51-2.28,1.74-1.78,.18-4.08,1.87-1.56,1.14-1.44,2.11-2.94,3.33-2.62,2.13-3.32,2.16-5.98,4.24-1.27,1-2.48,2.09-3.36,3.54-1.13,1.86-3.33,2.12-7.39-.38-1.55-.96-6.05-7.13-6.86-8.81-1.36-2.81,.57-2.38,1.84-2.23,2.87,.34,5.22-.22,6.91-1.48,3.62-2.71,3.33-3.53,6.72-6.53,1.7-1.5,3.88-2.4,5.58-3.9,2.54-2.26,1.49-2.22,3.99-4.53,1.82-1.68,1.82-1.15,3.58-2.91,.98-.98,.81-1.36,1.53-2.64,.1-.18,1.17-1.21,1.38-1.27,.37-.11,1.9-1.07,2.08-1.41,.2-.37,1.03-6.17,7.67,2.16Z"/>
      <path class="cls-10" d="M232.84,209.57c2.3,3.29,4.4,7.37,3.61,9.61-.06,.17-1.14-.58-1.43-.4-3.42,2.12-5.64,3.86-6.88,4.9-2.09,1.73-2.94,3.06-5.07,4.72-1.9,1.53-1.62,.07-3.53,1.61-1.3,1.03-1.05,1.96-2.25,3.08-2.05,2.02-2.69,2.06-4.72,4.13-.97,.98-1.83,2.09-2.31,3.48-.6,1.8-2.48,2.22-6.87,.49-1.69-.67-7.41-5.7-8.56-7.16-1.92-2.45,.05-2.42,1.31-2.48,2.85-.16,4.99-1.01,6.4-2.42,3.06-3,2.67-3.76,5.64-6.9,1.51-1.55,3.55-2.51,5.12-3.97,2.36-2.2,1.34-2.19,3.74-4.38,1.76-1.6,1.77-1.05,3.5-2.68,.98-.89,.82-1.28,1.59-2.49,.11-.17,1.21-1.08,1.42-1.13,.37-.09,1.92-.86,2.12-1.17,.17-.34,1.65-5.98,7.14,3.16Z"/>
      <path class="cls-10" d="M632.23,279.59c2.77,2.91,5.46,6.62,4.84,9.08-.05,.18-1.25-.39-1.53-.16-3.39,2.72-5.66,4.75-6.95,5.93-2.17,1.97-3.09,3.4-5.39,5.22-2.08,1.63-1.69,.13-3.79,1.73-1.42,1.08-1.26,2.01-2.63,3.16-2.39,2.01-3.05,2.02-5.47,3.99-1.16,.94-2.25,1.97-3.01,3.36-.98,1.77-3.06,1.98-7.07-.51-1.54-.96-6.17-7.03-7.03-8.67-1.46-2.76,.42-2.29,1.64-2.12,2.76,.39,4.97-.11,6.52-1.3,3.31-2.55,2.98-3.36,6.06-6.19,1.54-1.42,3.58-2.25,5.11-3.67,2.3-2.14,1.3-2.12,3.56-4.3,1.65-1.59,1.68-1.07,3.26-2.74,.88-.93,.69-1.3,1.32-2.53,.09-.18,1.05-1.15,1.25-1.21,.35-.1,1.75-.99,1.91-1.32,.17-.35,.64-5.95,7.44,2.25Z"/>
      <path class="cls-10" d="M630.67,208.9c2.68,2.99,5.24,6.8,4.41,9.32-.06,.19-1.27-.4-1.59-.16-3.72,2.81-6.23,4.9-7.66,6.11-2.4,2.03-3.46,3.5-5.98,5.37-2.28,1.68-1.77,.14-4.07,1.78-1.56,1.11-1.45,2.07-2.96,3.26-2.63,2.07-3.32,2.09-5.98,4.11-1.27,.97-2.48,2.03-3.37,3.46-1.14,1.83-3.33,2.05-7.34-.52-1.54-.99-5.94-7.22-6.73-8.9-1.33-2.83,.59-2.35,1.85-2.18,2.85,.4,5.19-.12,6.88-1.34,3.63-2.63,3.34-3.46,6.74-6.37,1.7-1.46,3.88-2.31,5.58-3.78,2.54-2.2,1.5-2.18,4.01-4.43,1.83-1.64,1.82-1.11,3.59-2.82,.98-.95,.81-1.34,1.55-2.6,.11-.18,1.17-1.18,1.39-1.24,.37-.11,1.9-1.02,2.08-1.36,.2-.36,1.08-6.12,7.6,2.3Z"/>
      <path class="cls-10" d="M876.33,284.85c2.78,2.89,5.58,6.51,5.28,8.73-.02,.17-1.16-.45-1.39-.26-2.75,2.26-4.57,3.95-5.6,4.94-1.73,1.66-2.41,2.9-4.28,4.4-1.69,1.35-1.49,0-3.21,1.31-1.16,.88-.92,1.76-2.02,2.71-1.93,1.67-2.52,1.64-4.48,3.27-.94,.78-1.81,1.65-2.34,2.87-.69,1.56-2.53,1.6-6.39-1.01-1.48-1-6.26-6.94-7.21-8.52-1.59-2.65,.13-2.08,1.24-1.83,2.51,.57,4.44,.28,5.7-.7,2.7-2.1,2.32-2.87,4.77-5.25,1.23-1.19,2.96-1.8,4.19-3,1.83-1.8,.94-1.86,2.73-3.7,1.31-1.34,1.39-.86,2.63-2.28,.69-.79,.48-1.15,.92-2.23,.06-.16,.82-.98,.99-1.02,.3-.07,1.47-.78,1.57-1.07,.11-.31-.05-5.44,6.9,2.64Z"/>
      <path class="cls-10" d="M732.74,539.86c2.59,3.07,5.12,6.88,4.57,9.15-.04,.17-1.16-.5-1.42-.31-3.11,2.23-5.19,3.91-6.38,4.89-1.99,1.64-2.82,2.91-4.94,4.38-1.91,1.33-1.56-.05-3.5,1.24-1.31,.87-1.15,1.78-2.4,2.73-2.19,1.66-2.8,1.6-5.03,3.21-1.06,.77-2.06,1.64-2.76,2.87-.89,1.58-2.81,1.56-6.55-1.25-1.43-1.08-5.78-7.35-6.6-9-1.38-2.78,.36-2.14,1.49-1.84,2.56,.67,4.6,.43,6.02-.53,3.04-2.07,2.73-2.87,5.54-5.24,1.41-1.18,3.29-1.75,4.69-2.94,2.11-1.79,1.18-1.88,3.25-3.71,1.51-1.34,1.54-.84,2.99-2.26,.81-.79,.63-1.16,1.2-2.26,.08-.16,.96-.98,1.15-1.01,.32-.06,1.61-.76,1.75-1.05,.15-.32,.53-5.59,6.91,2.94Z"/>
      <path class="cls-10" d="M724.53,536.8c2.59,3.07,5.23,6.8,5.06,8.8-.01,.15-1.05-.58-1.24-.44-2.34,1.69-3.89,3-4.76,3.76-1.47,1.28-2.01,2.34-3.61,3.45-1.44,1-1.33-.21-2.8,.75-.99,.65-.74,1.49-1.68,2.22-1.64,1.27-2.16,1.15-3.84,2.38-.8,.58-1.53,1.26-1.96,2.31-.55,1.34-2.18,1.12-5.71-1.84-1.35-1.14-5.85-7.29-6.76-8.88-1.53-2.67,.03-1.9,1.02-1.51,2.25,.88,3.95,.88,5.03,.16,2.3-1.55,1.94-2.32,4.01-4.16,1.04-.92,2.56-1.24,3.59-2.17,1.55-1.4,.76-1.58,2.27-3.02,1.1-1.05,1.19-.6,2.24-1.73,.58-.63,.38-.99,.72-1.93,.05-.13,.68-.78,.84-.8,.27-.02,1.27-.52,1.35-.77,.09-.27-.28-5.02,6.23,3.41Z"/>
      <path class="cls-10" d="M711.22,534.53c2.4,3.21,4.9,7.04,5.2,8.64,.02,.12-.85-.74-.96-.67-1.3,.84-2.08,1.62-2.5,2.07-.71,.77-.78,1.53-1.58,2.17-.71,.6-1.05-.35-1.81,.26-.52,.4,0,1.09-.43,1.56-.72,.84-1.16,.72-1.9,1.57-.35,.4-.6,.9-.44,1.64,.21,.96-1.07,.76-5.19-1.16-1.58-.74-7.96-4.91-9.37-6.06-2.38-1.91-.74-1.58,.25-1.4,2.25,.38,3.64,.23,4.27-.45,1.35-1.45,.78-2.06,1.95-3.7,.6-.81,1.77-1.09,2.4-1.86,.95-1.16,.24-1.35,1.2-2.54,.71-.87,.88-.45,1.54-1.37,.38-.5,.15-.84,.29-1.65,.02-.12,.47-.63,.6-.62,.22,0,1-.31,1.04-.52,0-.22-.65-4.65,5.45,4.09Z"/>
      <path class="cls-10" d="M721.2,530.03c-.17-.43-.35-.9-.5-1.29-.02-.14-.42-.14,.06-.19l.02-.02,3.64,8.23c-.23-.25-.62-.75-.76-.7-2.36,.76-3.91,1.59-4.77,2.08-1.45,.85-2.02,1.72-3.49,2.48-1.32,.7-1.19-.43-2.55,.29-.91,.5-.67,1.33-1.48,1.93-1.42,1.07-1.91,.93-3.32,2.05-.67,.54-1.25,1.2-1.47,2.18-.26,1.27-1.73,1.08-5.67-1.28-1.52-.91-7.01-6.19-8.12-7.65-1.89-2.43-.13-2.04,.96-1.83,2.49,.44,4.24,.21,5.36-.66,2.41-1.84,2.03-2.6,4.39-4.58,1.19-.98,2.85-1.26,4.08-2.15,1.88-1.3,1.07-1.56,3-2.87,1.43-.92,1.41-.45,2.82-1.41,.79-.53,.69-.91,1.35-1.8,.09-.13,.99-.64,1.16-.61,.29,.04,1.52-.22,1.7-.43,.08-.1,.38-1.01,.99-1.28l5.12-2.26,3.68,4.6c3.34,4.18,1.74,8.5-.49,9.89-2.55,1.71-5.02,.22-5.72-2.73Z"/>
      <path class="cls-10" d="M708.47,524.99c2.68,2.98,5.51,6.57,5.68,8.36,.01,.13-.98-.61-1.12-.5-1.72,1.31-2.82,2.35-3.44,2.95-1.04,1.02-1.34,1.92-2.52,2.78-1.06,.77-1.16-.31-2.25,.43-.74,.5-.39,1.27-1.07,1.84-1.19,1-1.65,.84-2.88,1.79-.58,.45-1.1,1-1.3,1.9-.25,1.16-1.67,.81-5.13-2.16-1.33-1.14-6.11-7.07-7.14-8.58-1.72-2.54-.28-1.7,.63-1.27,2.05,.99,3.49,1.15,4.29,.59,1.71-1.19,1.27-1.91,2.74-3.38,.74-.74,1.97-.89,2.7-1.63,1.09-1.12,.39-1.35,1.45-2.51,.77-.85,.92-.43,1.62-1.36,.39-.51,.17-.86,.3-1.67,.02-.12,.46-.64,.59-.64,.22,0,.99-.35,1.02-.57,.03-.24-1.03-4.54,5.82,3.62Z"/>
      <path class="cls-10" d="M702.12,532.95l-1.52-.03c-.35-.02-.1,0-.18,0h.02s-.06-.04-.35,.21c-.04,.04-.16,.18-.19,.24-.05,.1-.03,.09-.01-.02v-.19s.06,.83,.06,.83c.06,.38,.24,1.04,.93,2.36,.38,.72,.79,1.44,1.66,2.87,0,0-.03,.03-.08,.07-.17,.14-.32,.25-.44,.36-.95,.77-1.23,1.56-2.3,2.15-.96,.54-1.03-.5-2.02,0-.67,.33-.37,1.12-.99,1.54-1.08,.72-1.49,.5-2.6,1.17-.53,.32-1,.74-1.19,1.55-.25,1.04-1.51,.46-4.53-2.93-1.16-1.3-5.31-7.69-6.19-9.28-1.48-2.67-.21-1.64,.59-1.07,1.81,1.29,3.09,1.69,3.81,1.31,1.55-.81,1.18-1.56,2.52-2.68,.67-.56,1.78-.48,2.44-1.05,1-.85,.38-1.19,1.34-2.1,.72-.67,.78-.21,1.52-1.01,.6-.54,.37-.93,1.37-2.01,.06-.17,1.85-.92,2.28-.86,.32-.14,3.98,.19,4.58,.47,.29,.02,2.99-.27,4.73,2.28,.83,1.2,1.09,3.09,.16,4.34-.91,1.31-2.76,1.62-5.39,1.47Z"/>
      <path class="cls-10" d="M684.32,536.93c.48,3.98,.56,8.56-.59,10.14-.08,.12-.56-1.05-.8-1.03-2.8,.19-4.73,.65-5.82,.93-1.83,.49-2.73,1.21-4.56,1.6-1.65,.37-1.12-.71-2.81-.34-1.14,.26-1.17,1.14-2.25,1.52-1.84,.67-2.43,.48-4.15,1.14-.38,.13-.28,.21-.04,.77,.57,.51-.7-.09-2.45-1.76-.16-.19-.53-.52-1-.93-.8-.66-1.76-1.43-2.71-2.21-2.43-1.94-5-3.63-6.03-4.15-3.54-1.48-1.65-.69-.6-.83,2.35-.21,4.69-1.39,6.7-2.18,3.51-1.38,3.04-2.04,6.16-3.38,1.52-.63,3.28-.47,4.81-1.01,2.31-.79,1.57-1.25,3.92-2.03,1.73-.53,1.57-.08,3.28-.67,.96-.31,.96-.73,1.88-1.42,.13-.1,1.19-.38,1.35-.32,.29,.11,1.61,.17,1.85-.02,.21-.2,3.14-4.47,3.86,6.18Z"/>
      <path class="cls-4" d="M333.42,342.99c-22.21-34.32-60.53-55.04-93.05-55.04-2.17,0-4.22-.86-5.74-2.38-1.55-1.52-2.39-3.59-2.39-5.74v-64.95c0-4.53,3.69-8.22,8.22-8.22h243.78c2.17,0,4.22,.86,5.74,2.38,1.55,1.53,2.39,3.59,2.39,5.76v65.02c0,4.49-3.63,8.14-8.14,8.14-4.87,0-16.55,7.02-22.69,18.31-6.14,11.3-5.6,25.04,1.38,35.83,29.45,45.47,69.34,107.07,86.32,133.28,1.8,2.77,4.87,4.45,8.19,4.45s6.36-1.68,8.16-4.45c16.98-26.21,56.87-87.81,86.29-133.26,6.98-10.8,7.52-24.54,1.38-35.83-6.14-11.3-17.82-18.33-22.69-18.33-2.17,0-4.22-.86-5.74-2.38-1.55-1.52-2.39-3.59-2.39-5.76v-64.87c0-4.57,3.72-8.29,8.31-8.29h243.64c4.5,0,8.19,3.67,8.19,8.21v64.96c0,2.15-.84,4.22-2.39,5.74-1.52,1.52-3.58,2.38-5.74,2.38-32.52,0-70.89,20.66-93.22,54.93l-98.4,151.02c20.44,3.7,35.76,16.82,46.12,39.15-7.26-4.42-14.87-6.08-24.61-6.08-14.33,0-32.49,5.74-35.78,7.32-7.57,3.63-16.81,9.63-23.51,17.61l-7.07,10.84v162.63c0,27.8,22.66,50.35,42.23,50.35,4.48,0,8.14,3.65,8.14,8.14v64.54c0,4.49-3.63,8.14-8.14,8.14-2.51,0-11.21-2.89-19.57-6.91-19.37-9.43-41.81-10.26-61.83-2.28-13.65,5.46-27.98,9.67-40.54,9.67s-27.06-4.19-40.68-9.71c-19.99-7.98-42.43-7.18-61.8,2.22-8.36,4.08-16.27,6.95-19.45,6.95-4.5,0-8.14-3.63-8.14-8.12v-64.51c0-4.48,3.63-8.12,8.14-8.12,17.82,0,39.05-21.13,39.05-47.2v-166.12l-6.59-10.19c-6.73-8.14-16.1-14.23-23.79-17.92-3.27-1.58-21.45-7.32-35.76-7.32-9.77,0-17.37,1.66-24.61,6.08,10.39-22.42,25.82-35.57,46.37-39.19l-97.61-150.86Z"/>
      <g>
        <path class="cls-11" d="M475.39,728.51l.73-123.73,28.13-.99c21.23,0,40.26-9.41,53.15-24.29h0c12.89,14.88,31.92,24.29,53.15,24.29h28.13s-.7,120.6-.7,120.6v.96c0,27.8,22.66,50.35,42.23,50.35,4.48,0,8.14,3.65,8.14,8.14v64.54c0,4.49-3.63,8.14-8.14,8.14-2.51,0-11.21-2.89-19.57-6.91-19.37-9.43-41.81-10.26-61.83-2.28-13.65,5.46-27.98,9.67-40.54,9.67s-27.06-4.19-40.68-9.71c-19.99-7.98-42.43-7.18-61.8,2.22-8.36,4.08-16.27,6.95-19.45,6.95-4.5,0-8.14-3.63-8.14-8.12v-64.51c0-4.48,3.63-8.12,8.14-8.12,17.82,0,39.05-21.13,39.05-47.2"/>
        <g>
          <path class="cls-3" d="M423.71,838.5c.1,.88-.17,1.3-.19,2.22-.02,.76,.26,1.83,.29,2.54,.07,1.39,.35,2.76,.38,4.16-.11,2,.55,5.66,2.28,7.83,1.67,2.38,4.22,4.11,7.06,4.77,.46,.13,.94,.18,1.41,.26-.27,0,1.76,.18,2.85-.01,1.17-.14,2.13-.37,3.08-.62,3.73-1,7.06-2.32,10.4-3.71,.5-.22,1.12-.48,1.56-.67,.19-.09,.33-.15,.51-.24,8.79-4.35,16.97-7.3,26.15-8.57,2.54-.35,6.97-.75,10.92-.7,3.95,.09,7.38,.48,7.94,.59,1.92,.02,13.07,2.43,14.85,3.32,.72,.25,5.97,2.07,10.18,3.54,.98-2.21,.74-4.69,1.79-6.87-6.33-2.42-13.6-5.35-20.86-6.51-7.27-1.39-14.68-1.59-21.88-1.03-9,.84-17.89,3.09-26.11,6.88-4.09,1.9-7.74,3.68-11.71,5.18-1.95,.75-3.92,1.43-5.81,1.93-2.02,.58-3.33,.4-3.2,.37-1.92-.24-3.62-1.77-4.07-3.67-.15-.78,.27-2.86,.51-4.59,.28-1.77,.54-3.52,.57-5.25,.01-.92-.2-1.87-.65-2.62-.49-.79-.35-1.04-.7-1.32-.41-.33-1.17-.46-2.05-.41-2.39,.12-5.69,1.47-5.49,3.21Z"/>
          <g>
            <path class="cls-3" d="M596.6,852.26c.34-.13,9.34-3.77,13.73-4.61,.59-.15,1.08-.24,1.84-.37,2.9-.59,6.27-1.11,9.73-1.44,9.65-.71,19.45,.54,28.62,3.65,4.62,1.48,8.82,3.73,13.8,5.85,2.42,1.02,4.86,1.97,7.37,2.83,2.72,.81,4.61,1.74,8.61,2.04,3.7-.01,7.36-1.89,9.49-4.92,2.4-2.9,2.31-7.49,2.22-9.46l-.04-15.27-.16-30.54-.08-10.68-.04-5.33c.03-2.36-.76-4.99-2.28-6.95-1.48-2.01-3.64-3.5-6.05-4.19-1.11-.38-2.68-.43-3.5-.48l-2.34-.17c-3.12-.46-6.28-1.27-9.23-2.81-10.57-5.14-18.91-15.03-23.27-26.14-2.19-5.58-3.4-11.53-3.4-17.5l.12-19.2c.1-12.09-.2-20.11,.21-36.29,.12-7.05,.34-20.34,.46-27.26-.03-12.83-.04-19.31-.07-32.16l.02-7.71v-2.38s0-.59,0-.59c-.09-.11-.37-.03-.54-.05h-1.2s-4.77,.02-4.77,.02l-11.54,.05c-7.13-.07-14.43,.31-21.05-.33-13.51-1.42-26.53-7.12-36.76-16.1-1.36-1.16-2.63-2.42-3.89-3.69l-1.81-1.99-.45-.5-.22-.25-.06-.06-.03-.03h-.01c1.18-7.73-.58,12.74-5.26-.02h0s0,.01,0,.01l-.11,.12-.92,.98c-2.42,2.64-5.08,5.04-7.9,7.2-9.23,7.08-18.69,11-29.47,13.41-5,1.13-9.66,1.34-14.87,1.56-5.2,.18-10.47,.36-16.5,.57l-9.23,.24c-1.03,.05-2.13,.03-3.11,.13l-.03,3.13-.05,5.59-.1,14.42c-.04,9.62-.07,19.26-.11,28.96-.11,14.92-.21,29.01-.32,43.1-.11,2.69-.21,5.37-.33,8.22-.1,1.65-.47,3.32-.36,4.93,.27,4.03-.3,7.64-.52,11.93-.09,1.76,.83,6.01,1.99,6.54,.67,.31,1.51-.14,2.19,.14,1.57,.63,4.34-1.97,4.34-4.35l-.2-7.52c-.02-2.62,.15-5.24,.06-7.85-.07-2.08-.69-4.16-.58-6.19,.06-1.08,0-2.14-.02-3.23v-1.64c.04-1.23,.09-2.47,.15-3.77,.55-18,.27-37.15,.42-55.8,.07-9.77,.15-19.57,.22-29.41-.03-.41-.05-.8,.47-.67l1.83-.06,7.76-.26,15.55-.52c10.78-.07,21.74-2.6,31.51-7.36,4.9-2.38,9.53-5.29,13.79-8.67,2.14-1.67,4.17-3.49,6.09-5.4,.99-.93,1.89-1.94,2.82-2.94l.69-.75,.09-.1,.04-.05,.02-.02c-2.4,0,5.4-.02-5.37-.02l.17,.19,.34,.38,1.36,1.51c9.34,10.15,21.78,17.58,35.19,20.97,6.66,1.73,13.68,2.45,20.36,2.31,6.52-.03,13-.05,19.42-.08,5.05,.16,3.51-1.04,3.79,2.9l-.06,13.38-.14,26.76-.29,53.52c.09,9.06-.4,17.52,.17,27.08,1.08,9.4,4.32,18.59,9.72,26.33,5.29,7.77,12.45,14.45,21.25,18.44,4.38,1.98,9.2,3.29,14.22,3.32,2.81,0,5.3,2.35,5.06,5.62l.05,53.33c0,3.02,0,5.94,0,8.79,0,1.62,.04,2.55-.21,3.32-.26,.83-.72,1.6-1.34,2.2-1.25,1.2-3.02,1.76-4.76,1.28-2.28-.5-4.77-1.33-7.14-2.2-4.9-1.73-9.2-3.96-14.46-6.28-5.17-2.17-10.72-3.9-16.77-5.07-1.16-.21-2.46-.46-3.68-.59h0s-.61-.08-.61-.08c-7.25-1-15.23-.8-22.94,.54-7.56,1.31-14.85,4.16-21.13,6.65-6.52,2.4-13.17,4.47-20.22,5.81-1.81,2.65-4.27,5.76-3.63,7.97,3.99-.54,7.61-1.3,11.88-2.48,5.3-1.48,10.87-3.36,16.3-5.36Z"/>
            <path class="cls-3" d="M424.67,848.27c.03,1.14,.15,2.5,.61,4.14,.43,1.88,2.56,4.96,4.26,5.93,1.49,.96,2.78,1.39,4.07,1.64,.32,.08,.65,.11,.98,.15l.5,.05c.17,.02,1.68,.11,2.47-.03,3.37-.49,6-1.48,9.19-2.66,3.46-1.34,6.81-2.84,10.1-4.45,3.14-1.49,6.2-2.86,9.47-3.9,6.45-2.21,13.23-3.39,20.03-3.72,6.81-.23,13.68,.35,20.3,2.02,3.34,.75,6.55,1.9,9.75,3.09,3.35,1.35,6.78,2.63,10.23,3.79,7.27,2.45,14.76,4.58,22.52,5.71,12.84,1.96,24.29-.15,35.58-3.8,5.23-1.73,9.99-3.59,14.84-5.58,4.62-1.91,9.47-3.41,15.14-4.32,9.09-1.4,18.38-1.21,27.37,.64,4.49,.93,8.91,2.24,13.16,4.03,4.08,1.77,8.79,4.11,13.41,5.81,2,.76,4,1.46,6.09,2.08,1.04,.31,2.09,.6,3.28,.83,1.16,.28,3.04,.36,4.3,.06,5.81-.81,10.03-7.01,9.5-12.11,.02-7.93,.04-15.74,.06-23.57-.11-13.06-.21-26.11-.32-39.39-1.82,3.89-3.78,5.58-5.66,7.54-.07,10.45-.28,20.88-.59,31.33-.02,.35-.03,.57-.05,.9-.03,2.36-.07,4.72-.1,7.19-.07,4.54-.13,9.09-.2,13.69l-.03,3.29c-.04,.68-.22,1.33-.53,1.94-.62,1.21-1.8,2.11-3.12,2.42-.83,.16-1.09,.19-2.06-.01-.95-.19-2.03-.48-3.08-.8-2.13-.65-4.28-1.41-6.41-2.24-4.28-1.59-8.25-3.7-12.87-5.59-19.81-8.25-43.47-7.47-62.87,1.23-9.55,3.58-19.37,6.55-29.24,7.59-9.77,1.11-19.67-.65-29.32-3.47-6.2-1.79-12.06-4.04-18.35-6.48-6.48-2.4-13.27-3.95-20.13-4.54-13.71-1.3-27.61,1.14-39.84,6.56-6.71,3.12-13.21,6.32-19.56,7.75-.76,.15-1.24,.16-1.69,.13l-.3-.05c-.2-.01-.39-.08-.59-.12-.38-.12-.76-.26-1.1-.48-1.41-.8-2.33-2.35-2.38-3.97-2.32,.54-4.54,.88-6.81-.26Z"/>
          </g>
          <g>
            <path class="cls-3" d="M427.61,784.71c.86-.42,1.94-.11,2.63,.55,.97,.92,1.37,2.33,1.08,3.62-.72,3.19,.09,7.26,.15,10.54,.07,3.83-.16,7.78,.2,11.59,.26,2.78-.32,6.62,.81,9.26,.97,2.27,.24,5.32-2,6.6-1.09,.62-2.45,.74-3.63,.33-2.35-.82-2.61-4.26-2.7-6.38-.09-2.18,1.02-3.7,1-5.9-.01-1.08,.23-2.16,.28-3.24l.43-11.57c.1-1.82,.63-3.56,.86-5.36,.24-1.92-.53-3.63-.41-5.43,.08-1.21,.09-4.02,1.31-4.61Z"/>
            <path class="cls-3" d="M436.06,780.31c-.58-.05-2,.5-3.31-.62-.6-.61-.78-1.44-.77-2.3,.03-1.25,.33-2.62,1.18-3.86,.44-.63,1.06-1.26,1.97-1.57,1.45-.34,1.89-.3,2.72-.19,.77,.12,1.57,.31,2.3,.12,2.54-.37,5.43,.03,8.33-.83,3.05-.95,4.68-3.23,7.67-2.04-.21,1.08-.43,2.81-1.42,3.63-4.92,3.9-11.06,6.77-18.09,7.57l-.58,.09Z"/>
            <path class="cls-3" d="M470.5,757.96c-.69,1.08-1.6,2.03-2.72,2.53-3.02,1.19-6.7-1.47-4.92-4.4,.99-1.89,2.46-2.62,3.78-4.37,.96-.99,3.88-4.78,5.06-2.78,1.02,1.68,.17,5.8-.51,7.62-.15,.5-.42,.95-.69,1.4Z"/>
            <path class="cls-3" d="M474.93,728.57l.2-.03c3.55-.66,5.78,5.98,3.15,8.5-1.76,1.81-5.72,1.28-6.83-1.02-.89-2.12,.8-6.75,3.48-7.44Z"/>
          </g>
        </g>
      </g>
      <path class="cls-3" d="M335.17,346.88c-5.24-15.48,11.64,2.2,92.11,123.86,3.41,5.38,10.01,15.78,18.61,29.32-4.09,.81-8.37,1.66-12.79,2.54-2.31,.39-4.31,1.04-6.45,1.61l-3.33,.94-1.48,.58c-3.49,1.37-6.95,3.23-10.17,5.57-1.61,1.17-3.14,2.47-4.64,3.81l-2.18,2.13c-.37,.36-.72,.82-.97,1.24-1.09,1.49,.43,.45,.49,.53,.36-.11,.74-.18,1.1-.22l1.24-.06c1.66-.06,3.32-.04,5.03,.02,6.68,.28,12.65,1.31,18.25,2.51,5.62,1.25,10.68,2.62,15.76,4.42,3.12,1.12,5.31,2.4,7.44,3.54,2.15,1.19,4.17,2.43,6.07,3.69,3.8,2.52,7.11,5.15,9.94,7.77,2.89,2.84,5,4.68,7.36,8.32,3.5,5.42,5.92,9.16,7.08,10.97,0,34.09,0,66.54-.01,97.43,0,15.06,0,29.74,0,44.05,0,7.15,0,14.22,0,21.19,.02,3.39,.03,6.91-.26,11.15-.41,4.01-1.19,7.93-2.36,11.71-4.9,14.98-14.82,27.76-29.02,34.67-3.51,1.77-7.49,2.9-11.61,3.52l-3.18,.23c.53-.05,.05,0,.05,0-.19,.04-.37,.14-.51,.28-.13,.15-.24,.31-.27,.51l-.02,.29v1.86c0,3.09,0,6.15,0,9.19,0,12.18,0,24.01,0,35.51,0,5.21,0,10.35,0,15.41,.03,.74,.77,1.22,1.58,.87,4.21-1.2,9.06-3.29,13.48-5.4,5.03-2.46,10.58-4.58,16.01-5.99,10.95-2.9,22.11-3.49,32.65-2.12,10.45,1.02,20.91,5.55,28.36,8.3,8.08,2.85,16.02,4.94,23.5,5.77,14.43,1.66,29-3.13,42.11-8.11,14.57-6.14,30.48-7.83,44.26-5.92,9.78,1.25,19.81,4.64,27.66,8.62,3.67,1.67,7.49,3.19,11.1,4.34l1.63,.48c.12,.03,.24,.05,.36,.04,.24-.02,.46-.15,.62-.32,.16-.18,.23-.42,.22-.66v-5.2c0-4.14-.01-8.25-.02-12.32,0-8.15-.02-16.17-.03-24.09-.02-6.93-.04-13.76-.06-20.52-.04-.38-.66-.69-.76-.6-5.11-.05-9.74-1.48-14.05-3.16-16.96-7.46-27.92-22.07-33.06-38.22-2.6-7.96-2.72-17.47-2.6-24.16l-.03-21.8c-.02-14.51-.04-29.02-.07-43.65-.04-30.1-.07-60.71-.11-92.98,2.33-3.57,4.71-7.24,7.15-10.99,2.54-4.23,5.82-7.09,8.85-9.92,3.18-2.81,6.6-5.36,10.23-7.68,1.81-1.16,3.68-2.26,5.61-3.3l2.94-1.52,1.86-.86,1.78-.69c8.46-2.93,16.68-4.93,25.9-6.23,4.41-.62,9.78-.95,14.18-.73,.25,.01,.54,.05,.81,.13,.75,.48,.38-.16-.05-.75-.19-.22-.02-.08-.53-.59-1.68-1.76-3.47-3.47-5.44-4.97-1.93-1.57-4.05-2.9-6.23-4.19-1.14-.55-2.23-1.2-3.41-1.7l-1.77-.76s-1.29-.5-1.9-.65l-2.2-.64c-5.61-1.81-12.29-2.82-15.79-3.69-.93-.2-1.73-.37-2.36-.5-.67-.12,.23-.73,.14-.85,.29-.44,.11-.19-.46,.77,26.69-40.8,43.68-66.77,55.9-85.46,10.85-16.37,17.47-26.36,24.25-36.58,6.77-10.22,13.69-20.66,25.13-37.94,5.89-9.09,14.25-19.69,26.75-30.25,12.6-10.33,29.5-21.33,53.2-26.94,4.15-.85,8.24-1.57,12.32-1.93,2.02-.29,4.07-.24,6.07-.36l1.38-.05c.17-.01,.33-.05,.49-.12,.63-.26,.98-.95,.91-1.59,0-3.41,0-6.74,0-10.01-.02-13.2-.05-25.33-.07-36.75-.02-5.47-.04-10.76-.05-15.93,0-.46-.22-.92-.59-1.17-.17-.14-.39-.22-.61-.25-.28-.03-.03,0-1.79,0-10.34,.05-20.33,.09-30.31,.14-39.95,.11-79.9,.22-142.79,.39-13.76,0-26.8,0-39.21,0-6.21,0-12.26,0-18.16,0-2.95,0-5.87,0-8.75,0h-.88s-.24,.04-.24,.04c-.15,.05-.29,.13-.4,.25-.1,.12-.2,.24-.23,.4l-.03,.23v1.02c0,2.74,0,5.46,0,8.14,0,5.37,0,10.61-.01,15.74-.01,10.26-.02,20.07-.03,29.52-.05,4.15,.15,11.45-.35,9.54,.04-.03,.28-.07,.17-.07,.15-.04-.32-.01,.34-.16,1.35,.05,2.48,.24,3.36,.46,1.87,.45,3.3,1.02,4.66,1.64,10.17,5.03,17.1,12.27,22.03,21.45,4.78,9.2,5.91,19.89,3.64,29.61-1.14,4.87-3.15,9.49-5.81,13.67l-6.56,10.1c-17.47,26.89-34.95,53.78-55.55,85.49-5.15,7.93-10.49,16.16-16.08,24.76-2.86,4.4-5.79,8.89-8.78,13.49-2.8,3.97-7.38,6.73-12.36,7.29-4.95,.59-10.19-1.05-13.95-4.51-.94-.86-1.79-1.82-2.52-2.87l-1.34-2.04-2.33-3.61c-1.56-2.42-3.15-4.87-4.75-7.35-3.21-4.96-6.49-10.04-9.86-15.25-6.74-10.42-13.83-21.37-21.3-32.92-14.29-22.07-28.61-44.17-42.93-66.28-1.88-2.97-3.39-5.06-5.57-8.75-1.98-3.51-3.46-7.31-4.37-11.24-1.84-7.86-1.42-16.23,1.23-23.86,2.65-7.71,7.47-14.32,13.21-19.47,2.93-2.58,6.05-4.88,9.79-6.8,1.9-.95,3.88-1.84,6.78-2.42,.63-.16,1.74-.22,2.59-.27,.22-.04,.09,0,.14-.02h.03s.07-.08,.07-.08v-.03c0-.17,.02,.4,.01-.79l-.02-9.87-.04-19.73-.05-19.72-.03-9.85-.02-3.97c0-.22-.07-.44-.2-.62-.45-.38-.26-.52-1.61-.45l-9.84,.04-19.66,.08c-13.1,.06-26.18,.12-39.24,.19-33.41,.06-66.06,.11-97.84,.16-15.89-.08-31.57-.15-47.01-.23-7.72-.07-15.38-.13-22.99-.2l-4.4-.06c-.25-.01-.52,.06-.72,.23-.21,.15-.38,.38-.44,.65-.03,.25-.04,0-.05,.68l-.04,2.81c-.24,14.96-.47,29.67-.7,44.13-.07,3.61-.14,7.21-.22,10.79l-.11,4.71c-.05,.47,.04,.97,.29,1.39,.25,.42,.64,.78,1.11,.97,.7,.21,.29,.15,2.81,.31,3.81,.14,7.52,.74,11.19,1.34,29.26,5.77,53.29,22.56,69.87,42.73,6.33,7.71,8.67,13,9.24,15.52,.56,2.54-.86,2.54-3.41,.93-4.91-3.42-15.02-12.51-25.73-20.34-8.96-6.6-20.12-13.48-33.12-18.23-6.47-2.39-13.38-4.29-20.47-5.3l-5.35-.57-6.81-.27c-8.14-.61-15.13-7.42-15.86-15.64-.12-1.01-.09-2.06-.09-3.07v-1.55s.02-3.11,.02-3.11l.04-6.23,.11-12.48c.1-8.32,.2-16.61,.3-24.77,.06-4.08,.12-8.13,.18-12.13l.06-3.7c.08-1.9,.41-3.77,1.07-5.51,1.3-3.49,3.76-6.45,6.85-8.36,3.03-1.96,6.89-2.73,10.3-2.53,1.92,.03,3.82,.06,5.7,.09,3.76,.06,7.46,.12,11.06,.18,65.4,.76,133.51,1.56,202.44,2.36l12.94,.1,6.47,.05,3.64,.02c1.72,0,3.43,.29,5.02,.9,3.18,1.2,5.86,3.6,7.39,6.62,.77,1.51,1.25,3.16,1.42,4.86,.09,.85,.07,1.71,.07,2.57v1.67s-.09,12.98-.09,12.98l-.14,25.98-.06,12.99-.03,6.5v3.25c.02,1.12-.17,3.38-.78,4.92-1.18,3.37-3.74,6.18-6.98,7.66-1.61,.75-3.38,1.16-5.14,1.21-.97,.08-.81,.02-1.77,.32-2.94,.97-6.36,3.24-9.18,5.71-5.78,5.08-9.86,11.73-11.05,19.06-1.21,7.32,.4,15.01,4.43,21.24l14.01,21.68c20,30.9,37.66,58.19,53.57,82.77,3.98,6.14,7.85,12.12,11.62,17.94,1.89,2.91,3.75,5.78,5.58,8.61l1.37,2.12c.31,.48,.51,.71,.83,1.02,.6,.57,1.34,.97,2.13,1.16,1.6,.4,3.29-.07,4.45-1.17,.3-.28,.53-.56,.77-.93l1.29-2,2.56-3.97c3.4-5.26,6.71-10.39,9.96-15.41,25.91-40.18,47.16-73.14,68.41-106.1l3.94-6.15c1.12-1.76,2.01-3.66,2.75-5.62,1.43-3.92,2.08-8.17,1.74-12.38-.5-8.47-4.99-16.47-12.03-22.32-3.57-2.81-7.37-5.51-11.08-5.4-4.47-.5-8.5-3.25-10.58-7.36-1.04-1.95-1.51-4.5-1.46-6.39v-4.11c-.03-11.02-.06-22.44-.09-34.4-.01-5.98-.02-12.09-.04-18.36v-4.73c.04-1.19-.21-3.96,.44-6.46,1.21-4.93,5.36-9.02,10.47-10.09,1.27-.3,2.58-.34,3.91-.34h2.56s5.04-.01,5.04-.01c3.38,0,6.8,0,10.27-.02,6.94,0,14.06-.02,21.39-.03,29.3-.03,61.83-.06,98.67-.09h55.28s27.64,.02,27.64,.02l13.82,.02h6.97c3.69-.15,7.4,.98,10.14,3.4,2.75,2.37,4.51,5.85,4.76,9.51l.04,7.74-.02,13.82-.05,27.64-.03,13.82v1.74c0,.92,0,1.84-.1,2.74-.2,1.81-.77,3.56-1.65,5.13-1.76,3.14-4.79,5.54-8.28,6.5-1.57,.52-3.94,.51-5.14,.57l-3.21,.12c-2.14,.08-4.29,.44-6.43,.64-4.28,.63-8.53,1.58-12.74,2.76-16.77,4.93-32.45,14.07-45.46,25.98-6.51,5.96-12.37,12.62-17.42,19.84-5.05,7.31-10.09,15.31-15.13,22.94l-60.4,92.6c-7.08,10.89-13.63,20.96-18.24,28.05-1.02,1.58-1.82,2.82-2.33,3.62-.83,.92,.16,.76-.2,.74,1,.19,1.97,.43,2.91,.71,1.05,.36,1.28,.38,4.05,1.59,4.35,1.94,8.3,4.32,11.8,6.92,3.65,2.81,6.11,5.07,9.47,8.73,3.62,4.22,6.69,8.42,8.86,12.23,2.37,3.85,3.97,7.25,5.7,10.54,.83,1.66,1.62,3.23,2.37,4.72,.38,.76,.74,1.5,1.1,2.22,.32,.67,.88,1.68,.55,1.38-1.14-.18-.94,2.19,.15,5.47-9.49-5.16-16.74-9.35-21.35-11.12-2.31-.83-4.22-1.12-6.15-1.4-1.81-.19-4.11-.32-4.83-.32-4.28-.07-8.35,.29-12.43,.94-7.98,1.29-15.99,3.38-22.24,5.77-6.01,2.84-12.07,6.83-16.8,11.11-2.4,2.3-4.7,4.35-6,6.75l-4.75,7.36c.07,20.46,.14,41.5,.22,68.16,.03,13.67,.06,28.77,.09,45.96,.01,8.59,.03,17.71,.04,27.42,0,4.86,.01,9.87,.02,15.03-.09,5.47,.14,9.6,1.23,14.49,4.1,17.35,17.03,29.81,28.87,33.07,1.47,.26,2.93,.74,4.32,.72l3.49,.27c1.47,.19,2.89,.61,4.2,1.22,5.31,2.44,8.51,8.03,8.31,13.51,0,6.69,0,12.93,0,18.8-.01,11.57-.02,21.7-.03,31.11-.01,4.98-.03,9.77-.04,14.46-.06,7.39-6.21,13.62-13.31,13.96-3.52,.23-7.36-1.23-9.14-1.75-2.24-.74-4.41-1.55-6.58-2.42-4.4-1.72-8.67-3.99-12.48-5.49-8.03-3.18-17.33-5.23-27.97-4.92-5.31,.17-10.94,.94-16.79,2.54-5.58,1.51-12.15,4.63-19.74,6.99-7.48,2.4-15.76,4.61-25.26,5.38-9.69,.78-19.83-.85-29.95-3.67-5.65-1.59-10.82-3.41-15.63-5.27-4.76-1.9-8.48-3.19-12.62-4.11-8.03-1.81-15.43-2.05-22.12-1.45-6.69,.7-12.7,2.13-18.14,4.23-5.17,1.95-10.74,5.15-16.83,7.43-1.52,.58-3.06,1.15-4.7,1.66-1.29,.41-4.5,1.32-6.88,1.33-5.13,.08-10.24-2.69-12.91-7.31-1.35-2.29-2.07-4.97-2.06-7.78-.01-1.82-.03-3.66-.04-5.54-.03-3.38-.05-6.89-.08-10.55-.05-7.33-.11-15.31-.18-24.25-.03-4.47-.06-9.18-.1-14.18-.02-2.5-.03-5.07-.05-7.71,0-.45-.04-1.74,.04-2.93,.08-1.17,.26-2.35,.61-3.48,.66-2.28,1.89-4.41,3.56-6.18,.96-1,2.45-2.32,4.69-3.37,1.12-.5,2.41-.95,3.88-1.2,.79-.12,1.35-.19,2.53-.25l1.32-.1c2.67-.2,6.31-1.21,10.17-3.53,7.77-4.48,15.95-14.26,18.77-25.59,1.58-5.61,1.47-11.16,1.44-18.09,0-6.51,0-12.7,0-18.25,.01-11.11,.03-19.65,.03-23.05,.04-16.69,.19-80.56,.27-115.27-1.31-2.04-2.55-3.95-3.72-5.76l-1.13-1.74c-.51-.79-.18-.32-.62-.85-.73-.87-1.5-1.68-2.26-2.45-3.05-3.09-6.15-5.47-8.92-7.37-5.72-3.78-9.75-5.8-12.11-6.47-2.39-.78-7.92-2.5-15.81-3.94-3.92-.69-8.48-1.37-13.21-1.42-1.15-.03-2.45,0-3.71,.05-2.06,.08-5.01,.37-7.73,.96-2.92,.7-6.06,1.92-11.27,5.01-6.4,3.66-12.92,7.4-19.55,11.2,2.75-6.48,2.99-7.78,3.1-8.69-.47,.48,.92-2.24,1.84-4.16,.96-1.97,1.93-3.95,2.91-5.96,3.74-7.68,7.78-16.1,15.1-24.71,1.98-2.51,3.19-3.47,4.32-4.72,1.27-1.19,2.55-2.4,3.91-3.53,2.75-2.25,5.67-4.4,8.85-6.21,1.55-.98,3.24-1.72,4.87-2.58l2.55-1.1,1.27-.54c-.39,.17-.05,.03-.05,.03,.46-.18,.93-.3,1.4-.4-9.35-14.62-19.02-29.76-28.25-44.19-11.16-17.6-21.65-34.43-30.44-49.01-17.6-29.17-28.45-49.39-24.47-49.04Z"/>
      <path class="cls-6" d="M485.36,495.6c.13,.49,.34,2.86-.51,3.04-1.07,.13-1.42-2.16-1.41-2.74-.09-.14-.04-.36-.04-.36q-.09-.13-.18-.27s.13-.09,.04-.22l-.09-.14,.09,.14-.09-.14c-.08-.72-.17-1.43-.3-1.92-.39-2.06-.78-4.12-1.31-6.1-1.39-6.23-2.88-12.01-4.67-17.98-5.09-16.55-11.97-32.89-21.73-47.14-5.14-7.82-11.22-15.02-18.4-20.93l-.09-.13c1.56,7.66,3.13,15.33,4.42,23.17-.05,.81-.99,.85-1.52,.62-.76-.28-1.43-.99-1.6-1.85-1.2-8.29-2.9-16.45-4.72-24.51-4.88,7.27-9.54,14.57-14.33,21.97-.81,1.12-3.48-1.18-2.76-2.44,4.7-6.95,9.17-13.95,13.79-21.04-7.98,.8-15.94,1.6-24.01,2.26-1.3,.08-3.29-2.66-1.64-2.78,7.97-.8,15.81-1.51,23.78-2.31-1.03-.68-2.01-1.58-2.99-2.48-3.91-3.6-7.61-7.16-11.12-11.03-12.58-14.14-22.99-30.27-31.62-47.2-4.11-7.72-7.91-15.85-10.86-24.15-.48-1.03-.87-3.09-.2-4.12,.68-1.02,1.34,.28,1.56,.91-.05,.23,.04,.36,.13,.49,.13,.49,.4,.9,.53,1.39,.18,.27,.22,.63,.4,.9-.05,.22,.04,.36,.22,.63l.09,.14c.84,2.15,1.76,4.44,2.73,6.5,2.96,6.56,6.05,13.02,9.55,19.22,9.47,17.34,20.87,33.8,35.15,47.59,3.2,3.11,6.59,5.9,10.1,8.61-1.96-7.98-3.79-16.05-5.67-23.89-.39-2.06,2.6-.74,2.91,.6,1.74,7.35,3.44,14.93,5.27,22.41,4.43-6.77,9.04-13.28,13.96-19.61,.81-1.11,3.48,1.19,2.67,2.3-5.1,6.64-9.75,13.37-14.41,20.1,8.28-.62,16.43-1.15,24.63-1.32,.8,.05,1.74,.59,2.05,1.36,.26,.4,.4,1.48-.55,1.51-8.41,.13-16.7,.75-25.12,1.46,2.18,1.85,4.45,3.83,6.36,5.85,6.63,6.85,12.04,14.49,16.78,22.58,8.5,14.69,14.71,30.89,19.26,47.21,2.23,7.8,4.2,15.79,5.45,23.85Z"/>
      <path class="cls-6" d="M636.64,471.75c4.55-16.32,10.76-32.52,19.26-47.21,4.74-8.09,10.15-15.73,16.78-22.58,1.91-2.03,4.18-4.01,6.36-5.85-8.42-.71-16.71-1.33-25.12-1.46-.94-.04-.81-1.11-.55-1.51,.31-.76,1.25-1.31,2.05-1.36,8.19,.17,16.34,.7,24.63,1.32-4.66-6.73-9.31-13.46-14.41-20.1-.81-1.11,1.86-3.41,2.67-2.3,4.92,6.32,9.53,12.83,13.96,19.61,1.83-7.48,3.53-15.06,5.27-22.41,.3-1.34,3.29-2.66,2.91-.6-1.88,7.85-3.7,15.91-5.67,23.89,3.52-2.71,6.9-5.51,10.1-8.61,14.28-13.79,25.68-30.24,35.15-47.59,3.5-6.19,6.59-12.66,9.55-19.22,.97-2.06,1.9-4.35,2.73-6.5l.09-.14c.18-.27,.27-.41,.22-.63,.18-.27,.22-.63,.4-.9,.13-.49,.4-.9,.53-1.39,.09-.14,.18-.27,.13-.49,.22-.63,.88-1.93,1.56-.91,.67,1.03,.29,3.09-.2,4.12-2.95,8.3-6.75,16.43-10.86,24.15-8.62,16.93-19.04,33.07-31.62,47.2-3.51,3.87-7.21,7.43-11.12,11.03-.98,.9-1.96,1.81-2.99,2.48,7.98,.8,15.81,1.51,23.78,2.31,1.66,.12-.34,2.86-1.64,2.78-8.07-.66-16.03-1.47-24.01-2.26,4.61,7.09,9.09,14.09,13.79,21.04,.72,1.26-1.95,3.55-2.76,2.44-4.79-7.4-9.45-14.71-14.33-21.97-1.82,8.07-3.52,16.22-4.72,24.51-.17,.85-.84,1.57-1.6,1.85-.53,.23-1.47,.19-1.52-.62,1.29-7.84,2.86-15.51,4.42-23.17l-.09,.13c-7.17,5.91-13.26,13.11-18.4,20.93-9.76,14.25-16.64,30.59-21.73,47.14-1.8,5.96-3.28,11.75-4.67,17.98-.53,1.98-.92,4.04-1.31,6.1-.13,.49-.21,1.21-.3,1.92l-.09,.14,.09-.14-.09,.14c-.09,.14,.04,.22,.04,.22l-.18,.27s.05,.23-.04,.36c0,.58-.34,2.86-1.41,2.74-.85-.17-.64-2.54-.51-3.04,1.25-8.06,3.21-16.04,5.45-23.85Z"/>
    </g>
  </g>
  <g id="Camada_3" data-name="Camada 3">
    <g class="cls-7">
      <path class="cls-1" d="M-16,1059.97c178.29,4.18,395.23,7.63,573.53,9.39l267.44,2.67,241.85,1.53,.04-6.1,.08-9.35,.08-16.72,.13-33.43,.18-66.86,.06-133.72c-.07-89.15-.36-178.3-.73-267.44l-.52-133.72-.1-133.72-.05-66.86,.23-66.86,.53-122.77,.04-2.61-8.17-.11-11.13-.11-32.79-.22-65.57-.45-131.15-.89c-44.58-.26-89.14-.52-133.72-.78-44.58-.13-89.14-.29-133.72-.22-89.15-.16-178.3,.39-267.44,1.27l-133.72,1.51-66.86,.85-33.43,.43-16.72,.22-4.18,.05-1.78,.03-.93,.03-3.68,.11-6.72,.18,.07,6.49,.04,3.18,.02,1.57v3.23s-.1,29.52-.1,29.52l-.2,59.05-.67,133.73-1.35,267.45-1.84,567.9-53.56-33.77c5.17-89.08,9.13-178.18,12.92-267.28l2.71-66.83c.91-22.27,1.83-44.55,2.59-66.83l4.79-133.67,4.15-133.67c.67-22.28,1.35-44.56,2.02-66.84l1.74-66.84,3.48-133.68c.46-19.68,.87-39.36,1.21-59.04l.46-29.52,.45-35.53,19.12-.08,35.95-.28,33.43-.48c22.28-.3,44.58-.63,66.86-1.13l133.72-2.8c44.58-.96,89.14-1.55,133.72-2.06,44.58-.48,89.14-.45,133.72-.43,44.58-.07,89.14,.17,133.72,.36,44.58,.23,89.14,.73,133.72,1.08l131.15,1.15,65.57,.57,75.21,.5-.04,7.01-.29,74.63-.12,66.86c-.02,44.57,.08,89.15,.29,133.72,.43,89.15,1.35,178.3,2.78,267.44l1.71,133.72c.57,44.57,1.18,89.15,1.42,133.72,.43,44.57,.43,89.15,.56,133.72,.05,22.29,.03,44.57-.04,66.86l-.39,75.39-.11,19.03-47.31-.34-31.91-.4-63.82-.95-127.64-2.26-66.86-1.12c-22.29-.4-44.57-.56-66.86-.86-44.57-.64-89.15-.74-133.72-.81-89.15,.14-178.29,.93-267.44,3.72-44.57,1.35-89.15,3.1-133.72,5.43-44.57,2.36-89.15,5.13-133.72,9.21l-38.64-54.05Z"/>
    </g>
    <g class="cls-5">
      <path class="cls-1" d="M1084,1059.97c178.29,4.18,395.23,7.63,573.53,9.39l267.44,2.67,241.85,1.53,.04-6.1,.08-9.35,.08-16.72,.13-33.43,.18-66.86,.06-133.72c-.07-89.15-.36-178.3-.73-267.44l-.52-133.72-.1-133.72-.05-66.86,.23-66.86,.53-122.77,.04-2.61-8.17-.11-11.13-.11-32.79-.22-65.57-.45-131.15-.89c-44.58-.26-89.14-.52-133.72-.78-44.58-.13-89.14-.29-133.72-.22-89.15-.16-178.3,.39-267.44,1.27l-133.72,1.51-66.86,.85-33.43,.43-16.72,.22-4.18,.05-1.78,.03-.93,.03-3.68,.11-6.72,.18,.07,6.49,.04,3.18,.02,1.57v3.23s-.1,29.52-.1,29.52l-.2,59.05-.67,133.73-1.35,267.45-1.84,567.9-53.56-33.77c5.17-89.08,9.13-178.18,12.92-267.28l2.71-66.83c.91-22.27,1.83-44.55,2.59-66.83l4.79-133.67,4.15-133.67c.67-22.28,1.35-44.56,2.02-66.84l1.74-66.84,3.48-133.68c.46-19.68,.87-39.36,1.21-59.04l.46-29.52,.45-35.53,19.12-.08,35.95-.28,33.43-.48c22.28-.3,44.58-.63,66.86-1.13l133.72-2.8c44.58-.96,89.14-1.55,133.72-2.06,44.58-.48,89.14-.45,133.72-.43,44.58-.07,89.14,.17,133.72,.36,44.58,.23,89.14,.73,133.72,1.08l131.15,1.15,65.57,.57,75.21,.5-.04,7.01-.29,74.63-.12,66.86c-.02,44.57,.08,89.15,.29,133.72,.43,89.15,1.35,178.3,2.78,267.44l1.71,133.72c.57,44.57,1.18,89.15,1.42,133.72,.43,44.57,.43,89.15,.56,133.72,.05,22.29,.03,44.57-.04,66.86l-.39,75.39-.11,19.03-47.31-.34-31.91-.4-63.82-.95-127.64-2.26-66.86-1.12c-22.29-.4-44.57-.56-66.86-.86-44.57-.64-89.15-.74-133.72-.81-89.15,.14-178.29,.93-267.44,3.72-44.57,1.35-89.15,3.1-133.72,5.43-44.57,2.36-89.15,5.13-133.72,9.21l-38.64-54.05Z"/>
    </g>
  </g>
</svg>