<?xml version="1.0" encoding="UTF-8"?>
<svg xmlns="http://www.w3.org/2000/svg" xmlns:xlink="http://www.w3.org/1999/xlink" viewBox="0 0 1080 1080">
  <defs>
    <style>
      .cls-1 {
        fill: #fff;
      }

      .cls-2 {
        fill: #353404;
      }

      .cls-3 {
        fill: #f6c135;
      }

      .cls-4 {
        fill: #ffd71f;
      }

      .cls-5 {
        fill: #f6bd27;
      }

      .cls-6 {
        clip-path: url(#clippath);
      }

      .cls-7 {
        fill: none;
      }

      .cls-8 {
        fill: #434215;
      }

      .cls-9 {
        fill: #ff5c27;
      }
    </style>
    <clipPath id="clippath">
      <rect class="cls-7" width="1080" height="1080"/>
    </clipPath>
  </defs>
  <g id="Camada_1" data-name="Camada 1">
    <rect class="cls-1" y="1" width="1080" height="1080"/>
  </g>
  <g id="Camada_2" data-name="Camada 2">
    <g>
      <g>
        <path class="cls-2" d="M857.97,209.38v146.44c0,4.43-3.6,8.04-8.05,8.04-12.44,0-36.29,.01-48.85,.03-2.14,0-4.22-.86-5.77-2.39-1.52-1.53-2.36-3.6-2.36-5.77,0-36.54-36.43-73.16-81.31-73.16h-32.52c-35.45,0-64.22,28.77-64.22,64.22v139.18c29.67-1.96,51.04,11.54,64.22,40.08-13.26-8.14-29.93-8.46-43.5-.9-10.47,5.86-17.96,15.77-20.72,27.15v151.37c0,35.45,29.7,64.22,56.08,64.22,4.5,.03,8.14,3.67,8.14,8.16v66.95c0,4.49-3.63,8.14-8.14,8.14-5.24,0-16.41-3.74-27.06-8.78-18.78-8.94-40.4-9.84-59.91-2.44-16.92,6.42-35.3,11.71-51.16,11.71s-34.29-5.29-51.3-11.71c-19.43-7.4-41.05-6.5-59.91,2.35-10.64,4.97-21.34,8.78-26.97,8.78-2.17,0-4.22-.86-5.77-2.38-1.52-1.52-2.36-3.59-2.36-5.74v-66.91c0-2.15,.84-4.22,2.36-5.76,1.55-1.52,3.6-2.38,5.77-2.38,27.2,0,56.9-28.77,56.9-64.22v-145.51c-1.38-13.82-9.43-26.18-21.79-33.01-13.57-7.56-30.24-7.24-43.5,.9,13.43-28.86,35.05-42.36,65.29-40.01v-139.25c0-35.45-28.77-64.22-64.22-64.22h-33.33c-44.88,0-81.31,36.61-81.31,73.16,0,4.5-3.66,8.14-8.16,8.14h-48.79c-4.45,0-8.08-3.62-8.08-8.09V209.46c0-2.17,.87-4.27,2.42-5.8,1.52-1.53,3.6-2.39,5.8-2.39H849.83c4.48,0,8.14,3.63,8.14,8.11Z"/>
        <path class="cls-8" d="M857.41,204.99c.63,2.15,.15,3.6-.34,4.11-.49,.54-1,.25-1.58-.49-.6-.71-1.49-1.97-3.17-2.6-.96-.32-1.47-.37-3.05-.1-2.2,.21-4.69,.44-7.49,.7-22.47,1.83-65.36,3.34-139,4.07-11,.11-49.84-1.1-76.19-1.11-154.86-.02-286.54-.04-395.03-.06-3.39,0-6.76,0-10.1,0h-4.45c-.21,0-.42,.04-.59,.14-.36,.26-.55,.54-.5,1.15,0,3.26,0,6.49,0,9.7,0,12.84,0,25.31,0,37.42,0,24.23,.01,47,.02,68.33,0,9.84,.02,19.34,.03,28.52,.04,.3,.25,.55,.5,.69,.13,.07,.27,.11,.42,.11h2.18c4.79,0,9.48,0,14.09,0,9.21,0,18.06,0,26.55-.01h3.17c.97-.01,.48,.01,.79-.02,.25-.04,.45-.19,.6-.38,.14-.09,.21-.67,.17-.43,.14-2.27,.28-4.52,.42-6.75,3.76-26.76,20.74-47.45,40.44-59.69,9.94-6.19,20.83-10.41,31.95-12.52,5.57-1.06,11.16-1.48,16.72-1.63,5.05,0,10.05-.01,15.01-.02,4.96,0,9.89-.01,14.78-.02,4.59-.04,10.77,.12,15.95,1.1,10.78,1.79,21.02,6.05,29.7,12.3,17.44,12.35,28.96,32.29,30.47,53.27,.39,5.48,.31,9.95,.32,14.55l.02,13.85c.01,9.24,.03,18.5,.04,27.81,.02,18.62,.05,37.45,.07,56.76,0,11.7,.02,23.55,.03,35.58v3.6s0,1.81,0,1.81c-.14,.45-1.07,.1-1.56,.19l-7.16-.16c-2.31,.02-5.02-.29-7.3-.18l-2.55,.06c-.56,0-1.11,.06-1.66,.11-4.44,.26-8.72,1.19-12.87,2.48-4.16,1.28-8.06,3.28-11.71,5.75-1.87,1.17-3.55,2.66-5.27,4.1l-2.47,2.35-.49,.52c-.33,.38-.45,.57-.63,.9-.05,.11-.23,.39-.16,.38,.15-.09,.31-.16,.48-.22,.19-.07,.42-.12,.68-.14h.8c1.24,.03,2.47-.02,3.81,.12,2.65,.16,5.37,.57,8.13,1.2,11.01,2.47,22.49,9.18,30.15,19.72,4.2,5.73,7.02,12.03,8.53,18.31,.39,1.57,.68,3.14,.91,4.7,.26,1.09,.45,4.35,.34,5.13,0,2.55,0,5.04,0,7.47-.02,9.72-.03,18.49-.04,26.44-.05,15.91-.09,28.55-.13,39.01-.16,20.93-.26,33.15-.35,45.38-.06,6.11-.12,12.23-.19,19.43-.01,1.8-.03,3.67-.05,5.62-.12,2.19-.25,4.47-.38,6.86-.51,4.79-1.5,9.99-3.29,15.57-3.74,11.01-10.52,23.98-24.3,35.35-6.91,5.5-15.52,10.94-26.74,13.23-2.78,.64-5.7,.98-8.76,1.07-.82-.01-1.07,.1-1.49,.47-.17,.18-.3,.4-.36,.64-.03,.12-.05,.25-.05,.38v1.09c0,2.81,0,5.68,0,8.62,0,15.86,0,30.28,0,43.61,0,3.33,0,6.6,.01,9.8,.01,2.21-.02,1.45,.05,2.01,.07,.28,.22,.53,.43,.72,.49,.4,.87,.48,1.7,.31,2.16-.33,4.76-1.1,7.24-1.92,5.02-1.69,9.98-3.82,14.68-6.02,5.4-2.55,10.97-4.49,16.56-5.84,11.19-2.69,22.53-3.05,33.53-1.26,5.49,.89,10.94,2.36,16.15,4.31,4.63,1.72,9.36,3.35,14.16,4.82,9.59,2.92,19.69,5.39,30.11,5.98,10.18,.6,21.54-1.39,33.81-4.93,6.18-1.79,12.38-3.94,19.19-6.5,7.55-2.79,15.85-4.61,24.65-5.11,10.2-.57,20.1,.8,29.2,3.52,4.48,1.33,9.04,3.27,12.81,5.04,3.52,1.64,7.06,3.11,10.53,4.37,3.43,1.24,6.93,2.35,9.84,2.89l.88,.14c.11,0,.21,0,.31-.02,.21-.04,.37-.18,.51-.33,.13-.16,.19-.36,.19-.56,0-1.4,0-2.79,0-4.17,0-3.49,0-6.9,0-10.23,.01-13.32,.03-25.37,.04-36.15,0-5,.01-9.7,.02-14.11,0-.59-.54-1.02-1.05-.99-7.26-.11-15.35-2.34-21.66-5.54-6.53-3.22-12.22-7.38-17.23-12.02-9.94-9.39-16.93-20.97-20.89-33.41-1.72-6.29-3.08-12.71-3.13-19.23-.2-6.26-.04-11.65-.08-17.53,.02-11.54,.04-23.14,.06-35.06,.03-23.83,.06-48.87,.1-76.99,0-7.03,.01-14.26,.02-21.7,.11-.59-.25-2.59,.25-4.25,.54-2.02,.66-2.47,1.08-3.72,.68-2.14,1.57-4.23,2.55-6.28,2.01-4.08,4.57-7.98,7.71-11.47,6.2-7.02,14.67-12.49,24.32-15.16,4.68-1.34,10.2-2.01,14.77-1.88,.7,.02,1.42,.15,2.12,.39,.07,.02,.48,.17,.87,.37,.78,.59,.21-.25,.02-.67-.26-.48-.54-.93-.85-1.38-.31-.43-.66-.86-1.07-1.31-1.61-1.64-4.05-3.9-6.22-5.56-4.55-3.47-9.7-6.02-15.21-7.66-2.76-.8-5.6-1.4-8.51-1.79-1.47-.12-2.91-.36-4.4-.41-1.4-.12-5.55-.14-8.35,0-3,0-6.11,.13-9.02,.05v-9.17s0-13.71,0-13.71l-.02-19.95-.05-39.89-.08-39.86-.05-19.91c-.07-3.17,.04-6.8,.27-10.62,.39-3.7,.79-7.45,1.78-11.05,6.69-29.35,33.25-52.7,63.31-55.26l7.11-.38,6.3-.03,12.54-.05,12.47-.04c4.34,.22,9.11,.09,13.54,.93,18.04,2.44,35,10.31,48.24,21.98,13.38,11.49,23.35,26.95,27.31,44.25l1.14,6.56,.4,6.66c-.07,.79,.16,1.05,.62,1.31-1.04,.14,4.9,.1,8.23,.17l11.38,.13c7.55,.1,15.05,.2,22.48,.31l4.83,.09c.37,.05,.76-.03,1.08-.23,.32-.2,.6-.51,.72-.89,.13-.37,.11-.39,.16-2.8,.33-14.59,.65-28.92,.96-42.97,.73-28.1,1.65-55.07,2.78-80.8,1.73-39.08,9.35-11.07,11.16,17.43,1.52,23.92,1.89,55.99,1.76,89.37-.02,4.17-.05,8.36-.07,12.56l-.05,6.3c.2,3.85-.8,8.23-3.2,11.46-2.33,3.31-5.86,5.71-9.79,6.71-1.88,.53-4.22,.58-5.9,.53l-3.13-.03c-4.17-.05-8.33-.1-12.45-.16-8.24-.12-16.35-.24-24.21-.35-1.97-.03-3.92-.06-5.85-.09-2.94,.17-7.12-.5-9.97-2.36-3.03-1.79-5.39-4.54-6.72-7.71-.67-1.58-1.08-3.27-1.23-4.98l-.18-3.7c-.22-14.16-7.17-28.53-17.6-39.65-10.34-11.35-24.55-19.33-39.78-22.9-7.74-1.67-15.27-1.94-24.16-1.94-8.51-.05-17.39-.27-25.66-.17-15.61,.18-31.07,7.17-41.72,18.93-5.34,5.84-9.5,12.79-12.08,20.31-2.72,7.72-3.36,15.13-3.25,24.04l-.26,52.47c-.06,17.5-.11,34.98-.17,52.43l-.05,22.56c.11,.39-.26,1.29,.25,1.27l1.53-.05c.51-.02,1.02-.03,1.53,0l2.33,.08c4.63,.38,9.28,.97,13.8,2.28,17.46,4.8,29.54,15.23,39.43,31.87,2.11,3.54,3.75,6.89,5.35,9.92,.79,1.6,1.55,3.12,2.26,4.55,.6,1.28,1.81,3.37,1.08,2.78-.65-.14-.94,.45-1.06,1.12,.14,1.29-.05,1.61,.32,2.9l-9.5-5-4.32-2.21-3.54-1.64c-1.1-.46-2.4-1.18-3.32-1.44l-2.68-.67c-1.85-.58-3.4-.51-5.07-.72-4.58-.26-7.75,.28-11.47,1.2-7.11,1.88-13.39,5.78-18.11,10.86-2.34,2.56-4.35,5.36-5.87,8.37-.8,1.48-1.42,3.04-2.01,4.59-.24,.79-.54,1.57-.74,2.36-.2,.67-.25,.9-.23,1.41,0,7.42,.01,14.64,.02,21.7,.04,28.24,.07,53.75,.11,78.05,.02,12.15,.05,23.99,.07,35.72,.08,5.76-.12,11.94,.18,17.29,.1,5.36,1.33,10.64,2.89,15.77,3.37,10.24,9.47,19.67,17.63,27.2,8.32,7.23,18.4,13.07,29.96,13.23,5.12-.08,10.23,2.89,12.5,7.73,1.21,2.24,1.45,5.45,1.35,7.56,0,1.74,0,3.51,.01,5.29,.02,7.14,.04,14.61,.06,22.46,.02,7.85,.03,16.06,.05,24.68,0,2.16,0,4.34,.01,6.54v3.33s.01,1.78,.01,1.78c0,.9,0,1.79-.11,2.67-.59,7.2-7.68,13.14-15.29,12.12-3.82-.36-5.71-.98-8.42-1.7-2.5-.72-4.94-1.54-7.37-2.43-4.75-1.7-9.9-4.09-14.28-6.06-8.81-3.8-18.83-6.02-29.35-5.79-5.25,.11-10.61,.8-15.93,2.13-2.67,.65-5.3,1.52-7.94,2.48-2.91,1.05-5.85,2.12-8.82,3.19-12,4.04-24.9,7.78-39.31,8.75-20.27,1.07-38.95-4.92-56.69-11.3-16.28-6.62-34.35-6.91-50.68-1.14-3.98,1.34-7.93,3.42-12.53,5.34-4.45,1.86-8.95,3.6-13.8,4.97-2.68,.68-4.44,1.26-8.45,1.57-3.7,.28-7.4-.98-10.13-3.38-2.75-2.38-4.46-5.9-4.65-9.58l-.02-7.79,.11-55.83v-3.86c0-1.84,.33-3.66,1.03-5.34,1.35-3.38,4.11-6.11,7.49-7.45,1.68-.7,3.5-.99,5.35-1.01l3.31-.21c2-.18,4.02-.62,6.01-1.09,7.93-2.22,15.51-6.55,21.77-12.38,12.55-11.65,20.49-28.45,20.28-45.66l.05-111.65c0-7.89-.01-15.44-.02-22.61,0-3.51,0-6.93-.01-10.25-.21-2.41-.91-5.65-1.8-8.18-3.69-10.71-11.5-17.88-18.97-21.42-3.72-1.86-7.39-2.86-10.7-3.39-1.66-.27-3.22-.39-4.71-.45-.76,0-1.5,0-2.21-.01-1.24,.12-2.44,.24-3.58,.36-1.1,.01-2.4,.55-3.51,.78-1.18,.34-2.09,.41-3.57,1.21-2.75,1.31-4.83,2.23-7.78,3.83-5.79,3.1-10.01,5.35-12.59,6.73,1.28-4.67,.28-4.65-.12-5.18,1.98-3.91,3.9-7.72,5.78-11.44,3.73-7.03,7.79-14.3,13.6-20.41,8.52-9.42,17.71-14.6,27.66-17.84,4.92-1.4,9.82-2.48,14.68-2.78,1.21-.14,2.42-.22,3.62-.22l1.42-.04c.74-.12,2,.36,2.28-.22-.04-7.1-.07-14.2-.11-21.65-.06-18.63-.12-39.03-.2-64.78-.02-12.88-.05-27.1-.08-43.1,.55-15.06-4.1-31.3-16.98-44.46-13.35-13.1-29.48-17.43-43.67-17.05h-21.41c-3.32,0-6.52,0-9.63,.01-2.87,.2-5.66,.19-8.34,.52-21.48,2.78-36.3,12.12-47.57,23.62-5.61,5.85-10.42,12.53-13.95,20.45-1.74,3.95-3.24,8.22-4.02,12.82-.53,2.29-.78,4.66-.85,7.11-.12,.77-.06,3.4-.56,5.67-.54,2.24-1.63,4.38-3.2,6.15-1.56,1.78-3.61,3.16-5.92,3.98-1.16,.38-2.37,.69-3.62,.76-1.27,.1-2.66,.06-3.23,.07-3.11,0-6.32,0-9.65,0-6.65,0-13.75,0-21.4,.01-3.82,0-7.78,0-11.89,.01h-3.54c-1.72-.02-3.45-.25-5.08-.85-3.26-1.16-6.1-3.58-7.76-6.76-.83-1.58-1.38-3.34-1.56-5.17-.11-.91-.09-1.85-.1-2.79v-1.71c0-2.29,0-4.61-.01-6.98,0-4.74-.01-9.65-.02-14.74-.19-45.29-.29-69.7-.39-94.1-.05-6.1-.1-12.2-.15-18.62-.01-1.61-.03-3.23-.04-4.88l-.02-2.5c-.01-1.13-.04-2.82,.24-4.18,.97-5.74,5.68-10.93,11.97-12.1,1.4-.33,3.53-.28,4.48-.29l2.87-.02c1.94-.01,3.92-.03,5.95-.05,4.07-.03,8.34-.06,12.85-.09,9.03-.06,19.04-.12,30.35-.19,12.95-.01,109.79-.1,123.53-.11,23.81,.03,141.1,.19,164.51,.23,12.65-.08,89.92-1.11,162.97-.79,36.53,.16,72,.66,97.82,1.78,12.91,.56,23.4,1.28,30.41,2.19,1.67,.11,4.55,.76,5.86,1.82,1.54,1.01,2.46,2.2,2.96,3.16,.97,1.99,.57,2.91-.26,2.72Z"/>
      </g>
      <path class="cls-8" d="M235.01,324.24c3.19,2.44,6.46,5.64,6.33,8.07-.01,.18-1.26-.21-1.49,.04-2.72,3.02-4.51,5.24-5.52,6.52-1.7,2.15-2.31,3.63-4.17,5.64-1.68,1.81-1.58,.34-3.3,2.12-1.15,1.2-.83,2.08-1.91,3.34-1.9,2.21-2.53,2.31-4.47,4.49-.93,1.04-1.78,2.16-2.24,3.58-.6,1.81-2.55,2.27-6.85,.38-1.65-.73-7.21-5.95-8.35-7.41-1.91-2.45-.03-2.24,1.16-2.23,2.71,.03,4.73-.71,5.98-2.04,2.68-2.84,2.22-3.57,4.62-6.66,1.2-1.54,2.99-2.59,4.19-4.13,1.79-2.32,.84-2.19,2.59-4.55,1.27-1.72,1.4-1.23,2.59-3.02,.67-.99,.42-1.33,.78-2.57,.05-.18,.78-1.22,.97-1.31,.32-.14,1.49-1.17,1.57-1.5,.09-.36-.51-5.76,7.53,1.23Z"/>
      <path class="cls-8" d="M238.84,173.54c3.05,2.61,6.1,6.03,5.69,8.59-.03,.19-1.29-.24-1.56,.02-3.19,3.15-5.3,5.46-6.5,6.8-2.02,2.25-2.82,3.8-4.99,5.9-1.96,1.89-1.69,.33-3.68,2.19-1.34,1.25-1.1,2.18-2.37,3.5-2.23,2.31-2.9,2.4-5.18,4.67-1.09,1.08-2.1,2.25-2.75,3.74-.83,1.9-2.92,2.36-7.19,.31-1.64-.79-6.85-6.36-7.87-7.91-1.71-2.61,.22-2.36,1.47-2.33,2.82,.07,5.02-.69,6.47-2.07,3.12-2.96,2.72-3.74,5.58-6.95,1.43-1.61,3.41-2.69,4.84-4.3,2.14-2.43,1.13-2.29,3.22-4.76,1.52-1.8,1.6-1.28,3.05-3.15,.81-1.04,.59-1.39,1.11-2.7,.08-.19,.96-1.28,1.16-1.36,.35-.14,1.68-1.21,1.81-1.56,.14-.38,.12-6.08,7.72,1.39Z"/>
      <path class="cls-8" d="M422.07,739.73c3.09,2.57,6.2,5.93,5.86,8.46-.03,.19-1.29-.23-1.55,.04-3.08,3.15-5.13,5.46-6.29,6.8-1.95,2.25-2.71,3.79-4.81,5.89-1.89,1.89-1.67,.35-3.6,2.21-1.3,1.25-1.04,2.17-2.27,3.49-2.16,2.31-2.82,2.41-5.03,4.68-1.05,1.09-2.03,2.25-2.64,3.74-.78,1.9-2.84,2.37-7.13,.38-1.65-.77-6.96-6.25-8.01-7.78-1.77-2.57,.16-2.34,1.4-2.32,2.81,.04,4.96-.73,6.37-2.12,3.03-2.96,2.61-3.73,5.36-6.95,1.38-1.61,3.32-2.69,4.7-4.31,2.06-2.43,1.06-2.28,3.08-4.75,1.47-1.8,1.55-1.29,2.95-3.15,.78-1.04,.55-1.39,1.03-2.69,.07-.19,.92-1.28,1.12-1.36,.34-.15,1.64-1.21,1.76-1.56,.13-.37-.03-6.03,7.7,1.31Z"/>
      <path class="cls-8" d="M422.49,813.21c3.16,2.48,6.37,5.74,6.11,8.27-.02,.19-1.29-.2-1.54,.07-2.95,3.19-4.91,5.53-6.01,6.88-1.86,2.27-2.56,3.82-4.57,5.95-1.82,1.92-1.65,.38-3.5,2.27-1.25,1.27-.95,2.17-2.13,3.51-2.07,2.34-2.72,2.45-4.83,4.75-1.01,1.1-1.94,2.28-2.49,3.76-.71,1.9-2.74,2.41-7.07,.53-1.66-.73-7.13-6.05-8.23-7.54-1.84-2.51,.08-2.33,1.31-2.33,2.79-.02,4.9-.83,6.26-2.24,2.9-3.01,2.46-3.76,5.09-7.01,1.31-1.62,3.21-2.74,4.52-4.38,1.96-2.45,.98-2.29,2.89-4.78,1.4-1.82,1.5-1.31,2.82-3.19,.73-1.05,.5-1.39,.93-2.69,.06-.19,.87-1.29,1.06-1.38,.33-.15,1.59-1.24,1.69-1.59,.11-.37-.24-5.98,7.69,1.13Z"/>
      <path class="cls-8" d="M711.84,503.29c2.69,2.98,5.33,6.72,4.8,9.05-.04,.17-1.19-.45-1.46-.25-3.14,2.4-5.24,4.21-6.43,5.26-2,1.76-2.84,3.08-4.97,4.68-1.93,1.44-1.59,.02-3.55,1.42-1.32,.95-1.14,1.86-2.41,2.88-2.21,1.78-2.84,1.76-5.08,3.49-1.07,.83-2.08,1.76-2.77,3.04-.88,1.64-2.85,1.72-6.71-.95-1.48-1.02-6.01-7.16-6.87-8.8-1.45-2.74,.34-2.18,1.5-1.93,2.62,.55,4.7,.21,6.14-.83,3.07-2.24,2.74-3.04,5.58-5.57,1.42-1.27,3.33-1.93,4.74-3.21,2.12-1.91,1.18-1.96,3.26-3.92,1.52-1.43,1.56-.93,3.01-2.43,.81-.84,.62-1.21,1.19-2.35,.08-.16,.96-1.04,1.15-1.08,.33-.07,1.64-.84,1.77-1.15,.15-.33,.46-5.69,7.1,2.64Z"/>
      <path class="cls-8" d="M702.77,499.91c2.87,2.81,5.83,6.3,5.76,8.39,0,.16-1.12-.45-1.32-.28-2.35,2.06-3.89,3.62-4.76,4.52-1.46,1.52-1.97,2.69-3.58,4.05-1.45,1.23-1.4-.04-2.88,1.16-1,.81-.69,1.64-1.63,2.51-1.64,1.53-2.2,1.48-3.88,2.97-.8,.71-1.53,1.51-1.92,2.65-.5,1.46-2.21,1.45-6.06-1.11-1.47-.99-6.5-6.72-7.53-8.24-1.74-2.54-.07-1.96,.99-1.7,2.4,.6,4.17,.37,5.25-.52,2.32-1.92,1.89-2.65,3.96-4.84,1.03-1.09,2.6-1.63,3.63-2.73,1.54-1.65,.7-1.73,2.2-3.43,1.09-1.24,1.21-.78,2.24-2.09,.57-.73,.34-1.07,.64-2.09,.04-.14,.67-.9,.83-.93,.28-.06,1.29-.7,1.36-.98,.07-.29-.56-5.14,6.69,2.66Z"/>
      <path class="cls-8" d="M688.91,501.44c2.76,2.91,5.73,6.39,6.11,8.02,.03,.12-.94-.63-1.06-.54-1.34,1.06-2.18,1.92-2.64,2.42-.78,.85-.92,1.64-1.85,2.33-.83,.62-1.06-.37-1.93,.22-.58,.4-.18,1.13-.7,1.59-.92,.81-1.34,.64-2.3,1.41-.46,.37-.84,.82-.89,1.63-.07,1.03-1.36,.61-4.81-2.35-1.32-1.14-6.32-6.89-7.42-8.33-1.85-2.43-.47-1.57,.39-1.1,1.94,1.06,3.23,1.31,3.86,.86,1.35-.95,.87-1.64,1.97-2.86,.55-.61,1.62-.66,2.16-1.28,.82-.93,.17-1.2,.94-2.18,.56-.71,.75-.32,1.25-1.11,.28-.44,.03-.76,.05-1.49,0-.1,.32-.55,.43-.54,.2,.02,.83-.24,.82-.44,0-.21-1.51-4.2,5.61,3.73Z"/>
      <path class="cls-8" d="M685.93,497.02c2.99,2.67,6.22,5.91,6.66,7.59,.03,.13-1.02-.52-1.14-.41-1.42,1.35-2.3,2.4-2.79,3.01-.83,1.03-.97,1.9-1.95,2.79-.88,.8-1.14-.23-2.06,.54-.62,.52-.17,1.24-.73,1.81-.97,1.02-1.43,.9-2.44,1.87-.48,.47-.88,1.01-.93,1.88-.06,1.11-1.45,.87-5.18-1.74-1.43-1-6.86-6.35-8.06-7.72-2.01-2.3-.52-1.6,.4-1.24,2.09,.82,3.47,.88,4.14,.31,1.43-1.23,.91-1.89,2.07-3.37,.58-.74,1.72-.96,2.3-1.71,.86-1.12,.16-1.31,.98-2.47,.59-.85,.8-.47,1.32-1.38,.29-.51,.02-.82,.03-1.6,0-.11,.33-.64,.45-.64,.21,0,.88-.39,.88-.6,0-.23-1.67-4.24,6.06,3.09Z"/>
      <path class="cls-8" d="M680.93,491.22c2.55,3.1,5.22,6.81,5.32,8.59,0,.13-.95-.66-1.09-.56-1.74,1.21-2.87,2.18-3.5,2.75-1.06,.96-1.39,1.83-2.58,2.62-1.08,.71-1.13-.37-2.24,.3-.75,.45-.43,1.24-1.12,1.77-1.21,.93-1.66,.75-2.91,1.63-.59,.42-1.12,.93-1.35,1.82-.29,1.14-1.68,.71-5-2.41-1.27-1.2-5.79-7.34-6.75-8.89-1.61-2.6-.21-1.7,.67-1.22,1.99,1.09,3.41,1.32,4.22,.81,1.73-1.09,1.32-1.83,2.83-3.21,.75-.69,1.98-.78,2.72-1.47,1.12-1.05,.44-1.32,1.52-2.42,.79-.8,.92-.38,1.65-1.26,.4-.49,.19-.84,.36-1.64,.02-.12,.47-.62,.6-.61,.22,.02,.99-.29,1.03-.51,.04-.23-.86-4.55,5.63,3.9Z"/>
      <path class="cls-8" d="M697.84,495.08c3.2,2.42,6.78,5.26,7.71,6.46,.07,.09-.95-.57-1-.52-.59,.58-.89,1.09-1.04,1.38-.26,.5-.06,1.05-.48,1.42-.38,.34-.94-.4-1.36-.09-.29,.21,.31,.78,.1,1.04-.37,.46-.76,.28-1.18,.71-.2,.2-.31,.48-.03,1.04,.35,.72-.79,.26-4.52-2.27-1.43-.98-7.42-5.68-8.81-6.85-2.33-1.96-.96-1.17-.14-.73,1.86,1,2.93,1.33,3.23,1.1,.64-.5,.02-1.05,.37-1.78,.18-.37,.96-.26,1.13-.63,.25-.56-.34-.83-.14-1.42,.15-.43,.44-.14,.51-.63,.04-.28-.27-.54-.54-1.05-.04-.07,.02-.35,.11-.33,.16,.04,.53-.07,.45-.21-.09-.15-2.76-3.17,5.66,3.35Z"/>
      <path class="cls-8" d="M698.87,505.54c-1.19,3.83-2.7,8.14-3.73,9.35-.08,.09,.15-1.11,.05-1.15-1.17-.5-2.04-.71-2.54-.81-.85-.17-1.45,.15-2.23-.22-.7-.33-.07-1.06-.76-1.44-.46-.26-.85,.48-1.35,.31-.86-.29-.88-.74-1.72-1.09-.4-.17-.85-.23-1.43,.17-.75,.51-.86-.77,.14-5.18,.39-1.69,2.87-8.9,3.54-10.58,1.13-2.83,.96-1.24,.9-.29-.13,2.15,.1,3.33,.61,3.59,1.1,.57,1.43-.19,2.64,.02,.61,.11,.97,.95,1.58,1.05,.91,.15,.9-.52,1.83-.43,.68,.07,.47,.43,1.18,.4,.4-.02,.55-.39,1.07-.78,.07-.06,.49-.05,.52,.05,.05,.17,.43,.54,.57,.43,.15-.12,2.49-3.52-.86,6.59Z"/>
      <path class="cls-8" d="M641.39,515.56c1.86-3.24,4.49-6.54,7.26-6.8l-10.43,.25c.05-.2,.13-.4,.24-.61,.11-.22,1.45,.32,1.87,.03,5.01-3.39,8.66-5.38,10.72-6.55,3.48-1.93,5.28-3.29,8.92-4.75,3.28-1.29,2.07,.21,5.35-.96,2.21-.73,2.52-1.73,4.71-2.51,3.83-1.35,4.6-1.16,8.42-2.35,1.82-.57,3.61-1.22,5.23-2.33,.72-.5,1.49-.76,2.31-.73l4.82,16.28c-1.53-.11-3.21-1.23-5.13-3.74-1.12-1.48-2.67-8.96-2.66-10.84,0-3.16,1.79-2.02,3.03-1.41l.42,.19,4.48,15.13c-2.68-1.13-5.25-1.31-7.47-.69-4.99,1.43-5.05,2.31-9.81,4.2-2.37,.95-4.99,1.23-7.29,2.3-3.43,1.62-2.33,1.83-5.62,3.6-2.37,1.32-2.22,.8-4.48,2.29-1.23,.86-1.16,1.24-2.13,2.46-.14,.18-1.42,1.08-1.65,1.13-.4,.08-2.1,.93-2.34,1.26-.13,.2-.56,1.89-1.82,2.2l-7.86,1.91-1.26-1.69c-.77-1.04-.71-3.11,2.18-7.29Z"/>
      <path class="cls-8" d="M295.98,335.24c2.82,2.86,5.64,6.47,5.29,8.75-.03,.17-1.18-.42-1.43-.21-2.87,2.41-4.78,4.22-5.86,5.26-1.82,1.76-2.53,3.06-4.49,4.66-1.76,1.44-1.54,.05-3.34,1.46-1.21,.95-.98,1.84-2.13,2.85-2.01,1.78-2.62,1.77-4.68,3.51-.98,.83-1.89,1.75-2.47,3.02-.74,1.62-2.64,1.73-6.56-.8-1.5-.98-6.33-6.88-7.27-8.47-1.59-2.66,.17-2.14,1.31-1.92,2.58,.49,4.57,.12,5.89-.93,2.82-2.25,2.44-3.02,5.01-5.55,1.29-1.26,3.09-1.95,4.37-3.22,1.92-1.9,1-1.93,2.89-3.89,1.37-1.43,1.44-.94,2.75-2.43,.73-.83,.52-1.19,.98-2.32,.07-.16,.86-1.03,1.04-1.08,.31-.08,1.52-.86,1.64-1.16,.12-.33,.04-5.57,7.06,2.45Z"/>
      <path class="cls-8" d="M698.07,820.49c3.14,2.5,6.39,5.72,6.38,7.97,0,.17-1.21-.3-1.41-.07-2.43,2.6-4.02,4.53-4.91,5.64-1.5,1.87-2.01,3.2-3.67,4.93-1.5,1.56-1.48,.19-3.02,1.72-1.04,1.03-.68,1.87-1.65,2.96-1.69,1.92-2.28,1.96-4.02,3.83-.83,.9-1.58,1.88-1.95,3.16-.48,1.64-2.3,1.92-6.47-.16-1.6-.8-7.12-6.06-8.26-7.5-1.93-2.42-.14-2.08,.99-1.98,2.57,.23,4.44-.31,5.56-1.45,2.4-2.44,1.92-3.15,4.05-5.84,1.06-1.34,2.71-2.18,3.76-3.53,1.59-2.02,.69-1.97,2.23-4.03,1.12-1.51,1.26-1.04,2.31-2.61,.58-.87,.33-1.2,.62-2.33,.04-.16,.68-1.08,.85-1.14,.29-.11,1.35-.97,1.42-1.27,.07-.33-.76-5.39,7.19,1.7Z"/>
      <path class="cls-8" d="M825.88,335.22c2.7,2.97,5.44,6.63,5.21,8.75-.02,.16-1.11-.51-1.32-.34-2.55,1.99-4.24,3.5-5.19,4.38-1.61,1.48-2.21,2.63-3.95,3.95-1.57,1.19-1.42-.1-3.02,1.05-1.08,.78-.83,1.63-1.85,2.48-1.79,1.48-2.35,1.41-4.17,2.84-.87,.69-1.67,1.47-2.16,2.6-.62,1.46-2.36,1.37-6.08-1.39-1.42-1.07-6.09-7.09-7.03-8.67-1.57-2.65,.08-1.99,1.13-1.68,2.4,.71,4.21,.56,5.39-.3,2.51-1.84,2.13-2.61,4.4-4.73,1.14-1.06,2.77-1.54,3.9-2.6,1.7-1.61,.85-1.72,2.51-3.38,1.21-1.21,1.29-.74,2.44-2.02,.64-.71,.43-1.07,.82-2.09,.06-.14,.75-.88,.92-.91,.29-.05,1.37-.66,1.46-.93,.1-.29-.18-5.23,6.6,2.99Z"/>
      <path class="cls-8" d="M879.45,339.61c3.55,1.88,7.37,4.4,7.6,6.82,.02,.18-1.27-.04-1.46,.22-2.27,3.23-3.95,5.41-4.93,6.65-1.63,2.09-2.31,3.5-4.28,5.3-1.82,1.57-1.56,.16-3.44,1.61-1.26,.98-1.1,1.85-2.36,2.87-2.27,1.69-2.88,1.64-5.27,3.11-1.14,.71-2.26,1.45-3.15,2.61-1.15,1.47-3.2,1.17-6.22-2.38-1.15-1.36-4.06-8.42-4.61-10.17-.9-2.95,.43-1.84,1.36-1.3,2.08,1.26,3.9,1.44,5.15,.77,2.66-1.48,2.35-2.3,4.61-4.25,1.11-1,2.71-1.46,3.74-2.59,1.53-1.68,.7-1.73,2.06-3.5,.99-1.29,1.12-.88,1.99-2.28,.45-.8,.18-1.1,.3-2.12,.01-.15,.47-.98,.62-1.04,.27-.09,1.1-.91,1.1-1.19,.07-.34-1.96-4.61,7.19,.84Z"/>
      <path class="cls-8" d="M827.46,366.03c-1.86-3.56-3.36-7.9-1.96-10.15,.1-.17,1.15,.69,1.51,.52,4.3-1.9,7.18-3.49,8.81-4.44,2.75-1.58,4.02-2.88,6.8-4.38,2.49-1.38,1.79,.1,4.3-1.28,1.7-.93,1.69-1.92,3.31-2.95,2.81-1.86,3.51-1.82,6.31-3.71,1.34-.9,2.6-1.94,3.54-3.34,1.2-1.81,3.36-1.98,7.42,.54,1.56,.98,5.98,7.19,6.73,8.9,1.27,2.87-.75,2.48-2.07,2.33-3-.32-5.48,.22-7.36,1.45-4.05,2.63-3.84,3.48-7.8,6.29-2,1.39-4.41,2.09-6.44,3.4-3.06,1.96-1.96,2.07-5.04,4.03-2.25,1.43-2.14,.86-4.37,2.34-1.25,.8-1.17,1.21-2.25,2.36-.16,.16-1.53,.98-1.77,1-.41,.05-2.25,.68-2.53,.97-.27,.33-2.94,5.9-7.14-3.89Z"/>
      <path class="cls-8" d="M820.6,361.74c-2.21-3.35-4.27-7.44-3.46-9.63,.06-.16,1.09,.64,1.37,.48,3.34-1.84,5.6-3.26,6.89-4.09,2.16-1.4,3.14-2.55,5.41-3.76,2.05-1.09,1.54,.24,3.61-.81,1.4-.71,1.34-1.63,2.69-2.42,2.36-1.38,2.96-1.25,5.36-2.58,1.14-.64,2.23-1.38,3.07-2.52,1.06-1.46,2.97-1.21,6.35,2.02,1.29,1.24,4.87,7.98,5.49,9.72,1.04,2.92-.61,2.07-1.69,1.65-2.46-.97-4.51-.98-6.03-.19-3.25,1.69-3.04,2.52-6.11,4.53-1.53,1-3.46,1.35-4.99,2.36-2.3,1.52-1.39,1.72-3.66,3.3-1.65,1.15-1.62,.65-3.22,1.88-.89,.69-.76,1.08-1.45,2.1-.1,.14-1.07,.86-1.25,.87-.33,.02-1.69,.56-1.86,.83-.19,.3-1.18,5.49-6.51-3.74Z"/>
      <path class="cls-8" d="M812.14,360.66c-2.31-3.28-4.54-7.28-3.91-9.43,.05-.16,1.07,.62,1.33,.47,3.05-1.81,5.11-3.22,6.27-4.04,1.96-1.37,2.81-2.51,4.89-3.7,1.87-1.08,1.48,.23,3.37-.81,1.28-.7,1.17-1.6,2.4-2.38,2.15-1.36,2.73-1.24,4.91-2.55,1.04-.63,2.03-1.36,2.75-2.48,.91-1.44,2.74-1.2,6.16,1.96,1.31,1.22,5.14,7.81,5.84,9.51,1.18,2.86-.44,2.04-1.5,1.62-2.4-.94-4.35-.94-5.73-.17-2.98,1.67-2.72,2.49-5.5,4.47-1.39,.99-3.2,1.33-4.59,2.33-2.08,1.5-1.21,1.69-3.26,3.24-1.49,1.13-1.5,.64-2.94,1.86-.8,.68-.65,1.06-1.24,2.07-.08,.14-.95,.84-1.13,.86-.31,.02-1.57,.55-1.71,.83-.16,.29-.76,5.38-6.42-3.65Z"/>
      <path class="cls-4" d="M885.77,181.58v146.44c0,4.43-3.6,8.04-8.05,8.04-12.44,0-36.29,.01-48.85,.03-2.14,0-4.22-.86-5.77-2.39-1.52-1.53-2.36-3.6-2.36-5.77,0-36.54-36.43-73.16-81.31-73.16h-32.52c-35.45,0-64.22,28.77-64.22,64.22v139.18c29.67-1.96,51.04,11.54,64.22,40.08-13.26-8.14-29.93-8.46-43.5-.9-10.47,5.86-17.96,15.77-20.72,27.15v151.37c0,35.45,29.7,64.22,56.08,64.22,4.5,.03,8.14,3.67,8.14,8.16v66.95c0,4.49-3.63,8.14-8.14,8.14-5.24,0-16.41-3.74-27.06-8.78-18.78-8.94-40.4-9.84-59.91-2.44-16.92,6.42-35.3,11.71-51.16,11.71s-34.29-5.29-51.3-11.71c-19.43-7.4-41.05-6.5-59.91,2.35-10.64,4.97-21.34,8.78-26.97,8.78-2.17,0-4.22-.86-5.77-2.38-1.52-1.52-2.36-3.59-2.36-5.74v-66.91c0-2.15,.84-4.22,2.36-5.76,1.55-1.52,3.6-2.38,5.77-2.38,27.2,0,56.9-28.77,56.9-64.22v-145.51c-1.38-13.82-9.43-26.18-21.79-33.01-13.57-7.56-30.24-7.24-43.5,.9,13.43-28.86,35.05-42.36,65.29-40.01v-139.25c0-35.45-28.77-64.22-64.22-64.22h-33.33c-44.88,0-81.31,36.61-81.31,73.16,0,4.5-3.66,8.14-8.16,8.14h-48.79c-4.45,0-8.08-3.62-8.08-8.09V181.67c0-2.17,.87-4.27,2.42-5.8,1.52-1.53,3.6-2.39,5.8-2.39H877.63c4.48,0,8.14,3.63,8.14,8.11Z"/>
      <g>
        <path class="cls-9" d="M642.69,675.86c0,35.45,29.7,64.22,56.08,64.22,4.5,.03,8.14,3.67,8.14,8.16v66.95c0,4.49-3.63,8.14-8.14,8.14-5.24,0-16.41-3.74-27.06-8.78-18.78-8.94-40.4-9.84-59.91-2.44-16.92,6.42-35.3,11.71-51.16,11.71s-34.29-5.29-51.3-11.71c-19.43-7.4-41.05-6.5-59.91,2.35-10.64,4.97-21.34,8.78-26.97,8.78-2.17,0-4.22-.86-5.77-2.38-1.52-1.52-2.36-3.59-2.36-5.74v-66.91c0-2.15,.84-4.22,2.36-5.76,1.55-1.52,3.6-2.38,5.77-2.38,27.53,0,56.9-28.33,56.9-63.78v-105.37s28.13-.99,28.13-.99c21.23,0,40.26-9.41,53.15-24.29h0c12.89,14.88,31.92,24.29,53.15,24.29h28.13s.76,105.92,.76,105.92"/>
        <g>
          <path class="cls-3" d="M613.43,565.43c-.83,.08-1.21-.21-2.07-.25-.71-.02-1.72,.2-2.39,.16-1.3-.05-2.62,.16-3.92-.02-3.69-.34-7.32-1.16-10.86-2.25l-.87-.28-1.83-.63-2.46-.92c-3.24-1.35-6.38-2.93-9.39-4.72-.45-.29-1-.65-1.39-.9-.17-.11-.3-.19-.46-.29-4.04-2.64-7.79-5.71-11.18-9.15-.88-.83-1.64-1.77-2.47-2.64l-.31-.33-.15-.17c-1.35,2.94,3.01-6.6-3.02,6.6,.66,1.43-5.71-12.5-3.02-6.6h0s-.02,.03-.02,.03l-.04,.04-.08,.08-.61,.67-1.22,1.34c-1.66,1.75-3.41,3.41-5.23,4.99-2.06,1.76-5.81,4.64-9.43,6.74-3.59,2.16-6.98,3.56-7.55,3.78-.92,.4-4.19,1.71-7.56,2.76-3.38,1.01-6.85,1.72-7.87,1.87-.79,.14-6.2,1.13-10.94,1.15-.15,2.42,1.04,4.62,.85,7.04,15.87-.02,31.73-5.76,43.96-15.15,3.85-2.93,7.4-6.24,10.61-9.85l.61-.67,.04-.04c1.09-.01-9.44,0-4.97,0l.02,.02,.08,.08,.15,.17,.31,.33,1.22,1.34c.8,.91,1.68,1.74,2.54,2.59,1.73,1.69,3.53,3.3,5.44,4.78,3.78,3.01,7.85,5.65,12.14,7.87,2.14,1.12,4.35,2.09,6.59,3.01l3.4,1.26,1.35,.42c3.19,1.05,6.49,1.75,9.8,2.34,3.63,.74,7.29,2.19,10.97,2.26,.99,.05,1.98-.15,2.71-.61,.79-.49,1.04-.36,1.32-.7,.33-.41,.46-1.17,.41-2.05-.11-2.4-1.5-5.68-3.18-5.5Z"/>
          <g>
            <path class="cls-3" d="M475.58,620.58c0,.19,.01,10.9,.02,15.96-.01,.69-.02,1.24-.04,2.1,.02,3.33,.04,7.12,.06,11.03-.11,10.68,.31,22.03-.26,32.17-.94,10.17-4.56,20.07-10.16,28.65-5.72,8.5-13.34,15.84-22.36,20.55-4.5,2.31-9.27,4.21-14.21,4.91-1.22,.3-2.46,.35-3.7,.43-1.3,.13-2.18,.07-4.41,.35-3.81,.62-7.26,3.33-8.72,6.93-.52,1.25-.82,2.58-.89,3.92v3.02s.04,5.68,.04,5.68l.07,11.35c-.01,7.57-.03,15.15-.04,22.86l-.15,20.44c.03,1.88-.1,3.01,.05,5.52,.27,2.42,1.31,4.77,2.99,6.58,1.69,1.82,3.88,3.04,6.31,3.54,2.58,.47,4.53,.1,6.4-.17,7.36-1.42,13.76-4.05,20.2-6.78,6.45-2.98,12.08-5.39,18.57-6.86,11.9-2.34,20.53-3.55,36.41,.71,3.39,.86,8.23,2.99,13.49,4.86,5.14,1.87,10.37,3.54,14.01,4.52,13.54,3.39,20.63,4.88,35.01,4.57,15.91-.93,30.88-5.51,45.35-10.75,13.77-5.81,28.52-7.56,42.92-4.82,7.69,1.41,14.41,4.23,21.79,7.89,6.11,2.73,11.87,5.04,18.13,6.57,1.59,.36,3.19,.69,5.02,.84,1.81,.18,4.36-.1,6.29-1.07,4.06-1.83,6.92-6.17,6.84-10.75-.28-11.54-.52-21.38-.33-34.15,.05-10.29,.1-20.48,.15-30.72-.05-1.22,.12-2.49-.23-4.51-.36-1.81-1.17-3.51-2.3-4.95-2.18-2.9-6.13-4.56-9.44-4.45-4.68-.05-9.35-1.16-13.85-2.8-7.1-2.83-13.41-7.21-18.73-12.39-2.69-2.57-5.1-5.41-7.25-8.4-1.03-1.52-2.2-2.96-3.06-4.59l-2.08-3.59c-.96-2.36-2.22-4.6-2.89-7.22-.42-1.51-.71-3.07-1.21-4.49-1.35-3.57-1.46-7.02-1.78-10.99-.03-1.62-1.16-5.52-2.35-6.04-.69-.29-1.5,.15-2.2-.11-1.61-.66-4.23,2.08-4.08,4.65,.03,2.68,.86,5.25,1.24,7.87,.54,2.71,1.16,5.43,2,8.05,.84,2.04,2.13,3.89,2.82,5.88,.43,1.05,.96,2.03,1.47,3.04l.74,1.55,.34,.81c.09,.21,.03,.1,.28,.57l1.26,2.26c4.84,8.77,11.82,16.8,20.52,22.74,8.4,6.06,19.43,9.96,29.55,10.01,1.64,.15,3.16,1.19,3.89,2.67,.37,.78,.54,1.42,.52,2.49v4.12s-.03,16.53-.03,16.53c-.01,11.04-.03,22.1-.04,33.16v8.3s-.02,4.15-.02,4.15c.02,1.14-.14,1.71-.51,2.5-.71,1.45-2.21,2.46-3.81,2.58-1.71,.1-4.53-.5-6.97-1.17-5.06-1.4-10.13-3.37-15.05-5.53-4.71-2.18-10.25-4.85-15.71-6.37-14.03-4.24-29.36-4.32-43.49-.4-7.21,2.09-13.37,4.9-19.93,6.94-6.5,2.13-13.04,3.95-19.58,5.24-18.16,4.19-36.58,.91-54.45-4.83-4.46-1.41-8.9-2.97-13.29-4.62-4.6-1.74-9.41-3.1-14.28-3.97-9.75-1.76-19.82-1.69-29.54,.2-9.79,1.6-18.98,6.37-27.31,9.86-4.3,1.72-8.7,3.32-13,4.26-2.13,.44-4.31,.77-5.49,.36-1.4-.4-2.6-1.41-3.15-2.72-.29-.69-.43-1.31-.42-2.18v-3.56s-.02-7.12-.02-7.12l-.03-14.25-.08-28.5v-13.86c.16-1.49,.98-2.88,2.22-3.68,1.39-.93,2.34-.83,5.33-1.01,10.2-.51,19.76-4.58,27.86-10.22,10.99-7.82,18.32-17.52,23.19-28.09,5.16-10.41,6.74-22.74,6.61-35.22,.02-1.21,.03-2.55,.05-3.81h0s0-.63,0-.63c.03-7.49,.07-15.51,.1-23.5-.15-15.84-.17-30.16-.04-45.98-2.24-2.55-4.96-5.59-7.24-5.23,0,4.11,.01,7.87,.02,12.46,.02,5.71,.04,11.8,.06,17.85Z"/>
            <path class="cls-3" d="M604.18,565.69c-.8-.09-1.66-.21-2.73-.57-1.22-.26-3.42-1.04-4.59-1.34-1.09-.26-1.91-.46-2.73-.66l-.62-.15-.32-.08-1.6-.52c-2.48-.89-5.14-1.89-8.02-3.39-6.45-3.23-12.34-7.56-17.42-12.68-.66-.62-1.23-1.32-1.86-1.97l-.92-1c-1.21,2.64,2.69-5.93-2.72,5.91-5.41-11.84-1.51-3.28-2.72-5.91l-.03,.03-.06,.06-.11,.12-.23,.25-.45,.5c-1.19,1.37-2.48,2.63-3.76,3.9-2.64,2.47-5.46,4.75-8.43,6.8-12.07,8.28-26.37,11.97-41.37,11.65-9.13,.25-18.33,.5-27.47,.74-.61,2.27-.21,5.68-.36,8.19-.02,1.58-.04,3.14-.06,4.68-.03,3.09-.06,6.11-.09,9.11-.03,6.01,0,11.94,.16,18.17,.29,11.44,.52,21.36,.34,34.1-.05,10.29-.1,20.48-.15,30.72,.17,10.08-1.07,19.63-5.22,28.67-6.81,15.25-19.03,27.2-33.58,32.75-3.03,1.12-6.13,1.99-9.3,2.5-1.58,.24-3.18,.26-4.78,.42-1.93-.04-4.81,.56-6.73,1.93-2.04,1.3-3.69,3.42-4.48,5.7-.41,1.16-.64,2.38-.66,3.6v2.72s.03,10.58,.03,10.58c1.82-4.14,3.78-5.95,5.66-8.03,.13-2.82-.27-5.79,.55-7.25,.78-1.77,2.53-2.98,4.41-3.17,5.08-.04,11.61-.77,17.03-2.63,.37-.12,.61-.2,.96-.32,2.47-1.02,4.97-1.99,7.36-3.34,18.03-9.33,31.43-28.72,34.6-49.36,1.68-11.67,.71-22.37,1-33.48,.01-11.03,.03-22.1,.04-33.16l.07-33.19,.03-8.29,.02-3.71c.03-.33-.04-.75,.07-.99l13.25-.39c6.93-.38,13.91-.07,21.39-1.08,7.32-.97,14.46-3.18,21.13-6.28,6.63-3.19,12.8-7.29,18.16-12.22,1.38-1.19,2.61-2.53,3.9-3.8l1.82-2.02,.45-.5,.11-.13,.03-.03v-.02c-4.51-12.33-6.2,7.46-5.06,0l.06,.06,.23,.25,.92,1c2.42,2.69,5.07,5.13,7.83,7.4,6.29,5.13,13.41,9.28,21.05,12.06,.9,.34,2.01,.75,2.76,.97l.51,.16,1.01,.31,2.04,.58c2.73,.72,5.5,1.31,8.3,1.71-.35-2.41,.28-4.57,1.37-6.68Z"/>
          </g>
          <g>
            <path class="cls-3" d="M642.71,595.2c-.85,.42-1.94,.13-2.64-.52-.98-.91-1.38-2.33-1.1-3.62,.7-3.2-.14-7.26-.22-10.54-.01-1.91-.02-3.86-.03-5.8-.12-.61,.23-1.54-.49-1.32-.23,.06-.42,.08-.61,.07h-1.41c-1.64,.03-3.26,.17-4.58,.73-2.27,.97-5.32,.24-6.6-2-.62-1.09-.74-2.45-.33-3.63,.82-2.35,4.26-2.61,6.38-2.7,2.18-.09,3.7,1.02,5.9,1,1.43-.01,3.41,.23,5,.28l2.26,.05c.78-.02,.2,1.34,.36,1.93l-.06,4.56-.2,6.1c-.09,1.82-.6,3.57-.82,5.37-.23,1.92,.56,3.62,.45,5.42-.07,1.21-.06,4.02-1.27,4.62Z"/>
            <path class="cls-3" d="M637.62,608.25c-.03-1.26,.11-5.04,1.91-5.18,.84-.06,1.61,.45,2.3,.95,1.04,.75,2.09,1.5,3.02,2.38,.48,.46,.95,.97,1.16,1.6,.55,1.65-.35,3.59-.37,5.28-.03,3.01-1.4,5.83-1.87,8.9-.49,3.21,.46,5.99-2.31,7.67-.77-.81-2.01-1.91-2.14-3.1-.55-5.85-1.1-11.73-1.65-17.61l-.06-.89Z"/>
            <path class="cls-3" d="M638.47,647c-.05-1.19,.17-2.39,.79-3.4,1.57-2.58,6.15-3.13,6.55,.58,.24,2.26-.47,3.79-.8,6.07-.21,1.45-1.34,6.25-3.24,4.87-1.53-1.12-2.74-4.92-3.12-6.67-.1-.47-.17-.96-.19-1.44Z"/>
            <path class="cls-3" d="M643.15,675.8l-.19,.04c-3.55,.5-5.95-5.3-3.97-7.91,1.45-1.91,5.46-2.4,6.91-.17,1.37,2.1-.09,7.43-2.75,8.04Z"/>
          </g>
        </g>
      </g>
      <path class="cls-3" d="M885.21,177.19c.63,2.15,.15,3.6-.34,4.11-.49,.54-1,.25-1.58-.49-.6-.71-1.49-1.97-3.17-2.6-.96-.32-1.47-.37-3.05-.1-2.2,.21-4.69,.44-7.49,.7-22.47,1.83-65.36,3.34-139,4.07-11,.11-49.84-1.1-76.19-1.11-154.86-.02-286.54-.04-395.03-.06-3.39,0-6.76,0-10.1,0h-4.45c-.21,0-.42,.04-.59,.14-.36,.26-.55,.54-.5,1.15,0,3.26,0,6.49,0,9.7,0,12.84,0,25.31,0,37.42,0,24.23,.01,47,.02,68.33,0,9.84,.02,19.34,.03,28.52,.04,.3,.25,.55,.5,.69,.13,.07,.27,.11,.42,.11h2.18c4.79,0,9.48,0,14.09,0,9.21,0,18.06,0,26.55-.01h3.17c.97-.01,.48,.01,.79-.02,.25-.04,.45-.19,.6-.38,.14-.09,.21-.67,.17-.43,.14-2.27,.28-4.52,.42-6.75,3.76-26.76,20.74-47.45,40.44-59.69,9.94-6.19,20.83-10.41,31.95-12.52,5.57-1.06,11.16-1.48,16.72-1.63,5.05,0,10.05-.01,15.01-.02,4.96,0,9.89-.01,14.78-.02,4.59-.04,10.77,.12,15.95,1.1,10.78,1.79,21.02,6.05,29.7,12.3,17.44,12.35,28.96,32.29,30.47,53.27,.39,5.48,.31,9.95,.32,14.55l.02,13.85c.01,9.24,.03,18.5,.04,27.81,.02,18.62,.05,37.45,.07,56.76,0,11.7,.02,23.55,.03,35.58v3.6s0,1.81,0,1.81c-.14,.45-1.07,.1-1.56,.19l-7.16-.16c-2.31,.02-5.02-.29-7.3-.18l-2.55,.06c-.56,0-1.11,.06-1.66,.11-4.44,.26-8.72,1.19-12.87,2.48-4.16,1.28-8.06,3.28-11.71,5.75-1.87,1.17-3.55,2.66-5.27,4.1l-2.47,2.35-.49,.52c-.33,.38-.45,.57-.63,.9-.05,.11-.23,.39-.16,.38,.15-.09,.31-.16,.48-.22,.19-.07,.42-.12,.68-.14h.8c1.24,.03,2.47-.02,3.81,.12,2.65,.16,5.37,.57,8.13,1.2,11.01,2.47,22.49,9.18,30.15,19.72,4.2,5.73,7.02,12.03,8.53,18.31,.39,1.57,.68,3.14,.91,4.7,.26,1.09,.45,4.35,.34,5.13,0,2.55,0,5.04,0,7.47-.02,9.72-.03,18.49-.04,26.44-.05,15.91-.09,28.55-.13,39.01-.16,20.93-.26,33.15-.35,45.38-.06,6.11-.12,12.23-.19,19.43-.01,1.8-.03,3.67-.05,5.62-.12,2.19-.25,4.47-.38,6.86-.51,4.79-1.5,9.99-3.29,15.57-3.74,11.01-10.52,23.98-24.3,35.35-6.91,5.5-15.52,10.94-26.74,13.23-2.78,.64-5.7,.98-8.76,1.07-.82-.01-1.07,.1-1.49,.47-.17,.18-.3,.4-.36,.64-.03,.12-.05,.25-.05,.38v1.09c0,2.81,0,5.68,0,8.62,0,15.86,0,30.28,0,43.61,0,3.33,0,6.6,.01,9.8,.01,2.21-.02,1.45,.05,2.01,.07,.28,.22,.53,.43,.72,.49,.4,.87,.48,1.7,.31,2.16-.33,4.76-1.1,7.24-1.92,5.02-1.69,9.98-3.82,14.68-6.02,5.4-2.55,10.97-4.49,16.56-5.84,11.19-2.69,22.53-3.05,33.53-1.26,5.49,.89,10.94,2.36,16.15,4.31,4.63,1.72,9.36,3.35,14.16,4.82,9.59,2.92,19.69,5.39,30.11,5.98,10.18,.6,21.54-1.39,33.81-4.93,6.18-1.79,12.38-3.94,19.19-6.5,7.55-2.79,15.85-4.61,24.65-5.11,10.2-.57,20.1,.8,29.2,3.52,4.48,1.33,9.04,3.27,12.81,5.04,3.52,1.64,7.06,3.11,10.53,4.37,3.43,1.24,6.93,2.35,9.84,2.89l.88,.14c.11,0,.21,0,.31-.02,.21-.04,.37-.18,.51-.33,.13-.16,.19-.36,.19-.56,0-1.4,0-2.79,0-4.17,0-3.49,0-6.9,0-10.23,.01-13.32,.03-25.37,.04-36.15,0-5,.01-9.7,.02-14.11,0-.59-.54-1.02-1.05-.99-7.26-.11-15.35-2.34-21.66-5.54-6.53-3.22-12.22-7.38-17.23-12.02-9.94-9.39-16.93-20.97-20.89-33.41-1.72-6.29-3.08-12.71-3.13-19.23-.2-6.26-.04-11.65-.08-17.53,.02-11.54,.04-23.14,.06-35.06,.03-23.83,.06-48.87,.1-76.99,0-7.03,.01-14.26,.02-21.7,.11-.59-.25-2.59,.25-4.25,.54-2.02,.66-2.47,1.08-3.72,.68-2.14,1.57-4.23,2.55-6.28,2.01-4.08,4.57-7.98,7.71-11.47,6.2-7.02,14.67-12.49,24.32-15.16,4.68-1.34,10.2-2.01,14.77-1.88,.7,.02,1.42,.15,2.12,.39,.07,.02,.48,.17,.87,.37,.78,.59,.21-.25,.02-.67-.26-.48-.54-.93-.85-1.38-.31-.43-.66-.86-1.07-1.31-1.61-1.64-4.05-3.9-6.22-5.56-4.55-3.47-9.7-6.02-15.21-7.66-2.76-.8-5.6-1.4-8.51-1.79-1.47-.12-2.91-.36-4.4-.41-1.4-.12-5.55-.14-8.35,0-3,0-6.11,.13-9.02,.05v-9.17s0-13.71,0-13.71l-.02-19.95-.05-39.89-.08-39.86-.05-19.91c-.07-3.17,.04-6.8,.27-10.62,.39-3.7,.79-7.45,1.78-11.05,6.69-29.35,33.25-52.7,63.31-55.26l7.11-.38,6.3-.03,12.54-.05,12.47-.04c4.34,.22,9.11,.09,13.54,.93,18.04,2.44,35,10.31,48.24,21.98,13.38,11.49,23.35,26.95,27.31,44.25l1.14,6.56,.4,6.66c-.07,.79,.16,1.05,.62,1.31-1.04,.14,4.9,.1,8.23,.17l11.38,.13c7.55,.1,15.05,.2,22.48,.31l4.83,.09c.37,.05,.76-.03,1.08-.23,.32-.2,.6-.51,.72-.89,.13-.37,.11-.39,.16-2.8,.33-14.59,.65-28.92,.96-42.97,.73-28.1,1.65-55.07,2.78-80.8,1.73-39.08,9.35-11.07,11.16,17.43,1.52,23.92,1.89,55.99,1.76,89.37-.02,4.17-.05,8.36-.07,12.56l-.05,6.3c.2,3.85-.8,8.23-3.2,11.46-2.33,3.31-5.86,5.71-9.79,6.71-1.88,.53-4.22,.58-5.9,.53l-3.13-.03c-4.17-.05-8.33-.1-12.45-.16-8.24-.12-16.35-.24-24.21-.35-1.97-.03-3.92-.06-5.85-.09-2.94,.17-7.12-.5-9.97-2.36-3.03-1.79-5.39-4.54-6.72-7.71-.67-1.58-1.08-3.27-1.23-4.98l-.18-3.7c-.22-14.16-7.17-28.53-17.6-39.65-10.34-11.35-24.55-19.33-39.78-22.9-7.74-1.67-15.27-1.94-24.16-1.94-8.51-.05-17.39-.27-25.66-.17-15.61,.18-31.07,7.17-41.72,18.93-5.34,5.84-9.5,12.79-12.08,20.31-2.72,7.72-3.36,15.13-3.25,24.04l-.26,52.47c-.06,17.5-.11,34.98-.17,52.43l-.05,22.56c.11,.39-.26,1.29,.25,1.27l1.53-.05c.51-.02,1.02-.03,1.53,0l2.33,.08c4.63,.38,9.28,.97,13.8,2.28,17.46,4.8,29.54,15.23,39.43,31.87,2.11,3.54,3.75,6.89,5.35,9.92,.79,1.6,1.55,3.12,2.26,4.55,.6,1.28,1.81,3.37,1.08,2.78-.65-.14-.94,.45-1.06,1.12,.14,1.29-.05,1.61,.32,2.9l-9.5-5-4.32-2.21-3.54-1.64c-1.1-.46-2.4-1.18-3.32-1.44l-2.68-.67c-1.85-.58-3.4-.51-5.07-.72-4.58-.26-7.75,.28-11.47,1.2-7.11,1.88-13.39,5.78-18.11,10.86-2.34,2.56-4.35,5.36-5.87,8.37-.8,1.48-1.42,3.04-2.01,4.59-.24,.79-.54,1.57-.74,2.36-.2,.67-.25,.9-.23,1.41,0,7.42,.01,14.64,.02,21.7,.04,28.24,.07,53.75,.11,78.05,.02,12.15,.05,23.99,.07,35.72,.08,5.76-.12,11.94,.18,17.29,.1,5.36,1.33,10.64,2.89,15.77,3.37,10.24,9.47,19.67,17.63,27.2,8.32,7.23,18.4,13.07,29.96,13.23,5.12-.08,10.23,2.89,12.5,7.73,1.21,2.24,1.45,5.45,1.35,7.56,0,1.74,0,3.51,.01,5.29,.02,7.14,.04,14.61,.06,22.46,.02,7.85,.03,16.06,.05,24.68,0,2.16,0,4.34,.01,6.54v3.33s.01,1.78,.01,1.78c0,.9,0,1.79-.11,2.67-.59,7.2-7.68,13.14-15.29,12.12-3.82-.36-5.71-.98-8.42-1.7-2.5-.72-4.94-1.54-7.37-2.43-4.75-1.7-9.9-4.09-14.28-6.06-8.81-3.8-18.83-6.02-29.35-5.79-5.25,.11-10.61,.8-15.93,2.13-2.67,.65-5.3,1.52-7.94,2.48-2.91,1.05-5.85,2.12-8.82,3.19-12,4.04-24.9,7.78-39.31,8.75-20.27,1.07-38.95-4.92-56.69-11.3-16.28-6.62-34.35-6.91-50.68-1.14-3.98,1.34-7.93,3.42-12.53,5.34-4.45,1.86-8.95,3.6-13.8,4.97-2.68,.68-4.44,1.26-8.45,1.57-3.7,.28-7.4-.98-10.13-3.38-2.75-2.38-4.46-5.9-4.65-9.58l-.02-7.79,.11-55.83v-3.86c0-1.84,.33-3.66,1.03-5.34,1.35-3.38,4.11-6.11,7.49-7.45,1.68-.7,3.5-.99,5.35-1.01l3.31-.21c2-.18,4.02-.62,6.01-1.09,7.93-2.22,15.51-6.55,21.77-12.38,12.55-11.65,20.49-28.45,20.28-45.66l.05-111.65c0-7.89-.01-15.44-.02-22.61,0-3.51,0-6.93-.01-10.25-.21-2.41-.91-5.65-1.8-8.18-3.69-10.71-11.5-17.88-18.97-21.42-3.72-1.86-7.39-2.86-10.7-3.39-1.66-.27-3.22-.39-4.71-.45-.76,0-1.5,0-2.21-.01-1.24,.12-2.44,.24-3.58,.36-1.1,.01-2.4,.55-3.51,.78-1.18,.34-2.09,.41-3.57,1.21-2.75,1.31-4.83,2.23-7.78,3.83-5.79,3.1-10.01,5.35-12.59,6.73,1.28-4.67,.28-4.65-.12-5.18,1.98-3.91,3.9-7.72,5.78-11.44,3.73-7.03,7.79-14.3,13.6-20.41,8.52-9.42,17.71-14.6,27.66-17.84,4.92-1.4,9.82-2.48,14.68-2.78,1.21-.14,2.42-.22,3.62-.22l1.42-.04c.74-.12,2,.36,2.28-.22-.04-7.1-.07-14.2-.11-21.65-.06-18.63-.12-39.03-.2-64.78-.02-12.88-.05-27.1-.08-43.1,.55-15.06-4.1-31.3-16.98-44.46-13.35-13.1-29.48-17.43-43.67-17.05h-21.41c-3.32,0-6.52,0-9.63,.01-2.87,.2-5.66,.19-8.34,.52-21.48,2.78-36.3,12.12-47.57,23.62-5.61,5.85-10.42,12.53-13.95,20.45-1.74,3.95-3.24,8.22-4.02,12.82-.53,2.29-.78,4.66-.85,7.11-.12,.77-.06,3.4-.56,5.67-.54,2.24-1.63,4.38-3.2,6.15-1.56,1.78-3.61,3.16-5.92,3.98-1.16,.38-2.37,.69-3.62,.76-1.27,.1-2.66,.06-3.23,.07-3.11,0-6.32,0-9.65,0-6.65,0-13.75,0-21.4,.01-3.82,0-7.78,0-11.89,.01h-3.54c-1.72-.02-3.45-.25-5.08-.85-3.26-1.16-6.1-3.58-7.76-6.76-.83-1.58-1.38-3.34-1.56-5.17-.11-.91-.09-1.85-.1-2.79v-1.71c0-2.29,0-4.61-.01-6.98,0-4.74-.01-9.65-.02-14.74-.19-45.29-.29-69.7-.39-94.1-.05-6.1-.1-12.2-.15-18.62-.01-1.61-.03-3.23-.04-4.88l-.02-2.5c-.01-1.13-.04-2.82,.24-4.18,.97-5.74,5.68-10.93,11.97-12.1,1.4-.33,3.53-.28,4.48-.29l2.87-.02c1.94-.01,3.92-.03,5.95-.05,4.07-.03,8.34-.06,12.85-.09,9.03-.06,19.04-.12,30.35-.19,12.95-.01,109.79-.1,123.53-.11,23.81,.03,141.1,.19,164.51,.23,12.65-.08,89.92-1.11,162.97-.79,36.53,.16,72,.66,97.82,1.78,12.91,.56,23.4,1.28,30.41,2.19,1.67,.11,4.55,.76,5.86,1.82,1.54,1.01,2.46,2.2,2.96,3.16,.97,1.99,.57,2.91-.26,2.72Z"/>
      <path class="cls-5" d="M551.72,324.81c-.66,1.76-1.98,0-2.43-.67-.66-1.55-1.33-3.76-.89-5.3,1.76-4.2,.44-9.28-4.86-9.72-3.09-.22-5.74,1.76-7.51,4.19-1.76,2.87-1.98,5.96-1.1,9.06,1.1,3.53,2.88,6.62,4.42,9.94,1.55,3.31,3.09,6.63,4.64,9.94,3.09,6.85,5.75,13.69,8.17,20.76,4.64,13.91,7.28,28.93,5.75,43.73-.67,7.07-1.99,14.13-4.86,20.54-2.43,5.3-6.41,10.6-12.81,11.48-5.96,.88-10.6-2.87-12.14-8.61-1.33-4.42-1.1-10.6,3.97-12.59,1.76-.67,3.97,6.4,1.99,7.29-1.55,.66-3.76,2.87-3.31,4.42,.66,1.76,5.29,2.43,7.07,2.21,7.28-.66,11.26-7.51,13.46-13.91,9.72-28.05-1.76-57.2-13.91-82.38-3.31-6.63-6.85-13.7-6.41-21.42,.44-4.86,3.31-10.82,8.61-11.93,5.08-1.1,8.83,2.65,10.82,6.85,2.43,5.08,3.09,11.04,1.32,16.13Zm-13.03,79.95c0,2.21-1.98,4.19-4.42,4.19s-4.2-1.76-4.2-4.19c0-2.65,1.55-4.64,4.2-4.64s4.42,2.21,4.42,4.64Zm33.57,11.04c.44-1.76,1.55,0,1.99,.67,.88,1.55,1.54,3.76,.88,5.3-.66,1.77-1.1,4.2-.22,6.18,.88,1.99,3.09,3.31,5.3,3.53,6.84,.67,10.38-7.73,8.61-13.25-1.1-3.53-2.87-6.62-4.42-9.94-1.55-3.31-3.09-6.63-4.63-9.94-2.87-6.62-5.75-13.69-7.95-20.76-4.63-14.13-7.28-28.93-5.96-43.73,.66-7.07,2.21-14.13,5.09-20.54,2.43-5.3,6.4-10.6,12.59-11.48,5.96-.88,10.38,2.87,12.14,8.61,1.1,4.42,1.1,10.6-3.97,12.59-1.55,.67-3.76-6.62-1.99-7.29,1.76-.66,3.09-2.43,3.31-4.42,0,.67,.23,.22-.22-.22-.66-.44-1.33-.88-1.99-1.33-1.55-.66-3.09-.88-4.86-.66-7.28,.66-11.27,7.51-13.47,13.91-9.94,28.27,1.77,56.98,13.92,82.38,3.09,6.63,6.85,13.7,6.18,21.42-.22,4.86-3.09,10.82-8.39,11.93-5.08,.88-8.83-2.87-10.82-7.07-2.21-4.86-3.09-10.82-1.1-15.9Zm23.85-77.52c0,2.21-1.99,4.2-4.42,4.2-2.21,0-4.2-1.77-4.2-4.2,0-2.65,1.76-4.42,4.2-4.42,2.65,0,4.42,1.99,4.42,4.42Z"/>
      <path class="cls-5" d="M647.48,216.83c-16.28,4.71-33.32,7.95-50.28,8.45-9.37,.22-18.72-.36-28.03-2.39-2.73-.56-5.61-1.45-8.33-2.33,3.83,7.53,7.66,14.91,11.97,22.13,.47,.82-.52,1.28-1,1.26-.81,.14-1.77-.37-2.23-1.03-4.17-7.06-8-14.27-11.83-21.64-3.27,7.5-6.55,14.99-9.51,22.82-.52,1.28-3.88,.22-3.36-1.06,2.79-7.51,5.9-14.85,9.33-22.18-7.33,2.38-14.67,4.92-21.83,7.3-1.3,.45-4-1.4-2.04-2.16,7.66-2.53,15.48-5.22,23.3-7.75-4.15-1.57-8.31-2.98-12.64-4.06-19.24-4.89-39.23-5.93-58.96-4.86-7.11,.29-14.23,1.06-21.37,1.99-2.26,.26-4.7,.68-6.97,1.1h-.16c-.33-.01-.49-.02-.65,.14-.33,0-.65,.14-.98,.13-.49,.15-.98,.14-1.46,.28-.16,0-.32,0-.49,.15-.65,.14-2.11,.26-1.59-.85,.52-1.11,2.48-1.87,3.61-2,8.61-1.86,17.52-2.9,26.25-3.47,18.94-1.57,38.14-1.2,56.78,2.06,5.14,.95,10.11,2.22,15.23,3.65,1.28,.36,2.57,.72,3.68,1.23-3.52-7.2-7.03-14.24-10.55-21.44-.77-1.48,2.62-1.22,3.23-.07,3.68,7.21,7.19,14.41,10.7,21.61,3.6-7.65,7.2-15.14,10.64-22.79,.69-1.28,4.05-.21,3.52,1.07-3.77,7.97-7.54,15.77-11.15,23.75,7.82-2.69,15.65-5.54,23.33-8.88,.82-.3,1.78-.11,2.41,.39,.47,.34,.93,1.15,.27,1.62-7.35,3.03-14.69,5.73-22.03,8.43h.16c8.8,2.99,18.13,4.38,27.48,4.64,17.25,.8,34.77-1.94,51.52-6.32,6.02-1.61,11.72-3.39,17.75-5.48,1.96-.59,3.92-1.35,5.87-2.1,.49-.15,1.14-.45,1.79-.76h.16s0,0-.16,0h.16c.16,0,.17-.15,.17-.15h.32s.17-.15,.33-.15c.49-.31,2.62-1.22,3.07-.24,.3,.82-1.83,1.89-2.31,2.03-7.51,3.18-15.33,5.71-23.15,7.91Z"/>
    </g>
  </g>
  <g id="Camada_3" data-name="Camada 3">
    <g class="cls-6">
      <path class="cls-1" d="M-16,1059.97c178.29,4.18,395.23,7.63,573.53,9.39l267.44,2.67,241.85,1.53,.04-6.1,.08-9.35,.08-16.72,.13-33.43,.18-66.86,.06-133.72c-.07-89.15-.36-178.3-.73-267.44l-.52-133.72-.1-133.72-.05-66.86,.23-66.86,.53-122.77,.04-2.61-8.17-.11-11.13-.11-32.79-.22-65.57-.45-131.15-.89c-44.58-.26-89.14-.52-133.72-.78-44.58-.13-89.14-.29-133.72-.22-89.15-.16-178.3,.39-267.44,1.27l-133.72,1.51-66.86,.85-33.43,.43-16.72,.22-4.18,.05-1.78,.03-.93,.03-3.68,.11-6.72,.18,.07,6.49,.04,3.18,.02,1.57v3.23s-.1,29.52-.1,29.52l-.2,59.05-.67,133.73-1.35,267.45-1.84,567.9-53.56-33.77c5.17-89.08,9.13-178.18,12.92-267.28l2.71-66.83c.91-22.27,1.83-44.55,2.59-66.83l4.79-133.67,4.15-133.67c.67-22.28,1.35-44.56,2.02-66.84l1.74-66.84,3.48-133.68c.46-19.68,.87-39.36,1.21-59.04l.46-29.52,.45-35.53,19.12-.08,35.95-.28,33.43-.48c22.28-.3,44.58-.63,66.86-1.13l133.72-2.8c44.58-.96,89.14-1.55,133.72-2.06,44.58-.48,89.14-.45,133.72-.43,44.58-.07,89.14,.17,133.72,.36,44.58,.23,89.14,.73,133.72,1.08l131.15,1.15,65.57,.57,75.21,.5-.04,7.01-.29,74.63-.12,66.86c-.02,44.57,.08,89.15,.29,133.72,.43,89.15,1.35,178.3,2.78,267.44l1.71,133.72c.57,44.57,1.18,89.15,1.42,133.72,.43,44.57,.43,89.15,.56,133.72,.05,22.29,.03,44.57-.04,66.86l-.39,75.39-.11,19.03-47.31-.34-31.91-.4-63.82-.95-127.64-2.26-66.86-1.12c-22.29-.4-44.57-.56-66.86-.86-44.57-.64-89.15-.74-133.72-.81-89.15,.14-178.29,.93-267.44,3.72-44.57,1.35-89.15,3.1-133.72,5.43-44.57,2.36-89.15,5.13-133.72,9.21l-38.64-54.05Z"/>
    </g>
  </g>
</svg>