<?xml version="1.0" encoding="UTF-8"?>
<svg xmlns="http://www.w3.org/2000/svg" xmlns:xlink="http://www.w3.org/1999/xlink" viewBox="0 0 1080 1080">
  <defs>
    <style>
      .cls-1 {
        fill: #fff;
      }

      .cls-2 {
        fill: #353404;
      }

      .cls-3 {
        fill: #f6c135;
      }

      .cls-4 {
        fill: #ffd71f;
      }

      .cls-5 {
        clip-path: url(#clippath-2);
      }

      .cls-6 {
        fill: #2a9307;
      }

      .cls-7 {
        fill: #55a3f9;
      }

      .cls-8 {
        clip-path: url(#clippath-1);
      }

      .cls-9 {
        fill: #f6bd27;
      }

      .cls-10 {
        clip-path: url(#clippath);
      }

      .cls-11 {
        fill: none;
      }

      .cls-12 {
        fill: #434215;
      }

      .cls-13 {
        fill: #ff5c27;
      }
    </style>
    <clipPath id="clippath">
      <rect class="cls-11" x=".77" y="-296.65" width="1080" height="273.37"/>
    </clipPath>
    <clipPath id="clippath-1">
      <rect class="cls-11" width="1080" height="1080"/>
    </clipPath>
    <clipPath id="clippath-2">
      <rect class="cls-11" y="-1101" width="1080" height="1080"/>
    </clipPath>
  </defs>
  <g id="Camada_1" data-name="Camada 1">
    <rect class="cls-6" x="-.25" y="-1.08" width="1080.5" height="1080.5"/>
  </g>
  <g id="Camada_2" data-name="Camada 2">
    <g class="cls-10">
      <path class="cls-7" d="M-108.53-61.93c3.18-2.27,6.37-4.04,9.55-5.46,1.59-.68,3.18-1.47,4.78-2.05l4.78-1.6c6.37-1.92,12.74-3.29,19.11-3.86,12.74-1.22,25.47-.22,38.21,3.71,12.74,3.84,25.47,10.05,38.21,13.25,12.74,3.08,25.47,3.83,38.21,.6,12.74-3.08,25.47-9.23,38.21-11.09,12.74-2.19,25.47-.61,38.21,3.22,6.37,1.95,12.74,4.28,19.11,6.06l4.78,1.34,4.78,.94c3.18,.69,6.37,1.13,9.55,1.37,12.74,1.22,25.47-1.9,38.21-6.05,12.74-4.18,25.47-6.26,38.21-4.72,3.18,.33,6.37,.71,9.55,1.37,3.18,.66,6.37,1,9.55,1.94,6.37,1.55,12.74,3.48,19.11,5.41,25.47,8.29,50.95,11.82,76.42,1.51l9.55-3.23c3.18-1.03,6.37-1.84,9.55-2.76,6.37-1.53,12.74-2.32,19.11-2.27,6.37,.07,12.74,.76,19.11,2.15,6.37,1.47,12.74,3.44,19.11,5.63,12.74,4.45,25.47,8.29,38.21,8.31,6.37,.16,12.74-.5,19.11-2.09,3.19-.78,6.37-1.77,9.55-3.02,3.19-1.11,6.37-2.37,9.55-3.82,12.74-5.63,25.47-11.24,38.21-12.07,6.37-.58,12.74-.26,19.11,1.1,6.37,1.4,12.74,3.73,19.11,6.23,6.37,2.53,12.74,4.95,19.11,6.58,6.37,1.57,12.74,2.18,19.11,1.89,12.74-.22,25.47-6.66,38.21-11.42,12.74-4.95,25.47-5.95,38.21-2.85,12.74,3.15,25.47,10.44,38.21,11.86,12.74,1.43,25.47-.39,38.21-3.58,12.74-3.23,25.47-7.62,38.21-9.07,12.74-1.81,25.47-1.47,38.21,3.46,6.37,2.19,12.74,5.18,19.11,7.59,6.37,2.31,12.74,4.19,19.11,4.69,6.37,.57,12.74,.18,19.11-1.06,3.19-.6,6.37-1.48,9.55-2.59,3.19-.98,6.37-2.15,9.55-3.47,6.37-2.56,12.74-5.1,19.11-7.1,6.37-1.92,12.74-2.93,19.11-3.07,25.47-1.54,50.95,14.47,76.42,14.77,6.37,.12,12.74,.47,19.11,.39,6.37-.22,12.74-.15,19.11-.79,12.74-.92,40.01-.12,52.75-3.85,0,0-1.15,13.6-4.26,30.83-2.56,14.17-9.81,27.5-9.81,27.5-25.47,.75-51.42,1.23-76.89-.7-6.37-.66-12.74-1.44-19.11-2.66-6.37-1.19-12.74-2.7-19.11-4.04-12.74-2.89-25.47-4.51-38.21-4.18-3.19,.11-6.37,.36-9.55,.8l-9.55,1.9c-6.37,1.7-12.74,3.86-19.11,5.95-12.74,4.21-25.47,6.64-38.21,4.99-6.37-.76-12.74-2.97-19.11-5.57-6.37-2.69-12.74-5.96-19.11-8.2-12.74-5.17-25.47-4.85-38.21-2.36-12.74,2.53-25.47,8.23-38.21,12.93-12.74,4.58-25.47,7.75-38.21,7.01-12.74-.75-25.47-8.62-38.21-10.62-6.37-.96-12.74-.65-19.11,1.23-6.37,1.83-12.74,5.77-19.11,10.93-6.37,5.19-12.74,11-19.11,15.47-6.37,4.48-12.74,6.8-19.11,7.08-6.37,.41-12.74-1.48-19.11-5.13-1.59-.91-3.19-1.9-4.78-3.13-1.59-1.09-3.18-2.4-4.78-3.74-3.19-2.69-6.37-5.78-9.55-8.66-6.37-5.95-12.74-11.92-19.11-15.59-6.37-3.76-12.74-5.55-19.11-5.41-6.37-.05-12.74,1.38-19.11,4.21-6.37,2.78-12.74,7.05-19.11,10.97-12.74,8.5-25.47,14.05-38.21,13.28-12.74,.02-25.47-4.94-38.21-10.76-6.37-2.87-12.74-5.48-19.11-7.45-6.37-1.87-12.74-2.85-19.11-3.05-6.37-.17-12.74,.62-19.11,2.3-3.18,1.03-6.37,1.91-9.55,3.07l-9.55,3.68c-25.47,11.88-50.95,8.88-76.42,1.73-25.47-7.12-50.95-12.03-76.42-2.38-6.37,1.97-12.74,3.83-19.11,4.8-6.37,.92-12.74,.96-19.11-.01-12.74-1.6-25.47-9.4-38.21-15.04-12.74-5.57-25.47-6.97-38.21-3.03-12.74,3.73-25.47,14.63-38.21,20.8-12.74,6.38-25.47,6.4-38.21,3.62C-6.63,10.87-19.37,3.73-32.11-.84c-12.74-4.72-25.47-5.74-38.21-4.51-6.37,.57-12.74,1.98-19.11,3.96l-4.78,1.66c-1.59,.61-3.18,1.43-4.78,2.13-3.18,1.47-12.28,5.61-21.55,14.36,0,0,6.91-24.59,9.49-44.58,2.58-19.99,2.51-34.1,2.51-34.1Z"/>
    </g>
    <g>
      <g>
        <path class="cls-2" d="M540.15,919.47c-162.59,0-262.59-97.55-262.59-266.64v-35.12c-1.86-13.4-9.85-25.31-21.76-32.04-13.71-7.73-30.49-7.39-43.86,.91,12.39-27.2,31.9-41.08,58.73-41.24,3.8-.01,6.87-3.1,6.87-6.9,.03-7.77,.03-19.1,.03-19.1,0-168.92,100-266.63,262.59-266.63s262.56,81.45,262.56,266.63v19.17c0,3.79,3.07,6.86,6.84,6.86,26.97,.04,46.57,13.92,59.01,41.22-13.37-8.31-30.15-8.64-43.86-.91-12.44,7.02-20.58,19.71-21.99,33.84v33.32c0,169.09-99.97,266.64-262.56,266.64Zm-24.63-332.89c-13.37-8.31-30.15-8.64-43.86-.91-12.3,6.94-20.41,19.43-21.93,33.38v129.21c0,87.9,41.19,104.56,86.54,104.56h7.57c45.52,0,86.57-16.67,86.57-104.56v-128.75c-1.41-14.13-9.54-26.82-21.99-33.83-13.71-7.74-30.49-7.39-43.89,.9,12.02-26.34,30.72-40.19,56.25-41.12,5.38-.21,9.63-4.62,9.63-9.99v-111.38c0-87.9-41.05-104.56-86.57-104.56h-7.57c-45.36,0-86.54,16.67-86.54,104.56,0,0,0,82.03,.06,111.29,0,5.38,4.25,9.78,9.63,10.01,25.48,1.03,44.12,14.88,56.11,41.19Z"/>
        <g>
          <path class="cls-12" d="M515.23,584.52c-.25,4.3-2.47,3.92-8.76-3.86-3.29-3.73-7.72-9.39-15.06-15.03-7.56-5.64-17.23-10.65-33.45-10.93-2.41-.18-6.61-1.15-10.44-4.45-3.83-3.04-6.97-9.2-6.64-15.11,.29-6.68,.59-14.26,.59-20.38,.14-36.13-.28-68.99,.29-100.2,.66-15.78,2.31-31.11,6.99-45.44,4.54-14.22,11.91-27.71,22.74-37.25,10.68-9.66,23.55-15.01,35.43-17.64,11.92-2.7,23.39-2.97,33.37-2.98,10.03,0,20.03,.39,29.1,2.11,9.11,1.78,17.51,4.47,24.73,8.25,12.29,6.17,21.71,16.11,28.07,26.46,6.28,10.51,9.68,21.35,12.35,31.79,4.61,20.86,4.54,40.99,4.51,59.53,.05,18.87,.1,37.73,.15,57.94,.01,10.11,.02,20.55,.03,31.49v4.13s0,2.08,0,2.08c0,.55-.04,2.4-.27,3.54-.83,5.25-4.06,10.07-8.67,12.9-2.29,1.43-4.93,2.36-7.65,2.68l-4.67,.34c-2.57,.23-5.13,.6-7.65,1.18-9.64,2.24-16.36,6.53-21.25,10.88-1.22,1.1-2.38,2.14-3.38,3.26l-.65,.65c-.19,.21-.36,.4-.51,.57-.33,.39-.62,.8-.93,1.25-.19,.31,.29-.07,.54-.04,.24-.02,.51-.04,.85-.06,.27,0,.58,0,.92,0,.8,.01,1.64,.03,2.53,.05,1.25,0,2.55,.16,3.94,.27,5.48,.62,12.2,2.2,19.54,6.26,7.24,4.05,15.25,10.86,20.76,21.68,3.83,7.78,5.71,15.57,5.41,23,.02,6.2,.05,11.89,.07,17.25,.09,10.71,.17,20.09,.25,29.46,.11,18.75,.22,37.51,.39,67.02,.26,25.88-1.5,47.78-7.28,65.89-5.7,18.12-15.79,33.12-29.83,42.9-7.04,4.88-14.87,8.19-23.14,10.7-8.33,2.22-17.08,3.46-26.42,3.95-4.68,.12-9.51,.23-14.24,.17-4.9-.09-10.25-.1-15.81-.68-11.09-1.06-23.72-3.37-36.61-10.12-12.27-6.55-22.32-17.22-28.79-29.14-6.49-11.95-10.37-24.86-12.27-37.64-1.29-6.4-1.53-12.8-2.27-19.19-.19-6.32-.56-12.84-.59-18.99-.11-12.32-.23-24.62-.34-36.88-.06-15.68-.11-31.01-.16-45.93,.08-7.46,.15-14.81,.23-22.06,.07-3.62,.13-7.22,.2-10.79,.11-3.83,.22-7.62,.33-11.38,2.27-16.85,12.86-30.73,26.27-37.51,13.37-6.97,28.88-6.62,40.59-1.08,8.85,4.63,8.04,7.81,4.76,8.35-3.4,.67-9.54,.35-15.01,.47-9.15-.15-21.29,2.8-29.92,11.66-4.3,4.31-7.51,9.89-9.17,15.77-.39,1.27-.77,3.4-.9,4.01-.06,1.71-.12,3.41-.19,5.08-.13,3.66-.25,7.2-.36,10.59-1.04,30.69-1.83,62.66-2.36,95.02-.25,16.3-.67,32.22,1.36,47.89,2,15.59,6.55,30.91,15.25,43.13,4.59,6.56,10.14,11.75,16.23,15.39,5.94,3.88,12.37,6.22,18.62,7.86,12.67,3.22,24.43,3.32,35.67,3.26,21.83,.05,39.58-3.94,53.09-14.13,13.35-10.29,21.72-26.47,25.72-47.61,2.21-10.56,2.95-22.52,3.19-35.96,0-13.74-.02-28.99-.03-46.27l.16-81.63c.05-11.5-6.44-23.4-16.21-30.05-4.9-3.38-10.57-5.67-16.49-6.42-3.07-.29-5.1-.73-11.45,.4-5.3,.9-13.57,5.81-24.8,11.77,.34-1.34,.32-1.89,.49-2.87,.13-.88-.15-.83-.21-1.3-.07-.43-.42-.2-.61-.33l-.17-.04c0-.09,.25-.54,.36-.79l.87-1.78c2.38-4.85,4.52-9.25,7.02-13.74,2.34-4.45,5.4-9.06,8.98-13.47,.79-1.11,1.89-2.26,2.7-3.11l2.06-2.17c1.5-1.33,2.88-2.79,4.49-4.01,11.01-9.06,23.13-12.65,33.15-13.78,1.26-.16,2.5-.21,3.71-.31l1.8-.13c.32-.04,.53-.04,.79-.11,1-.19,1.86-.73,2.49-1.42,1.37-1.52,1.21-2.6,1.17-6.87-.12-13.83-.2-23.61-.28-33.4-.09-9.79-.17-19.57-.29-33.4-.04-6.92-.08-14.84-.13-24.28,0-9.5,0-20.42-.67-32.94-1.21-18.38-4.61-30.99-8.33-40.38-3.72-9.42-7.77-15.83-12.79-21.19-4.92-5.44-10.73-10.16-19.89-13.99-9.1-3.95-21.72-6.44-40.09-6.4-20.83-.25-31.12,2.01-40.97,5.45-9.42,3.82-19.32,8.32-29.62,24.21-.82,1.06-2.3,4.37-4.54,8.48-1.71,4.45-3.96,9.89-5.3,15.8-1.7,5.74-2.38,11.91-3.24,16.77-.5,4.99-.89,8.82-1.05,10.35-1.31,10.12-.83,65.16-.86,75.9,.06,2.94,.27,13.39,.56,27.34,.08,6.98,.18,14.84,.28,23.07,0,2.76,.03,2.64,.19,3.04,.17,.36,.46,.72,.83,.94,.19,.11,.38,.18,.58,.24l.32,.05,1.55,.13c2.36,.14,4.72,.38,7.07,.79,9.41,1.44,18.55,5.16,25.7,10.24,7.19,5.07,12.48,11.16,15.97,16.65,6.89,11.15,7.95,19.18,5.25,19.33Z"/>
          <path class="cls-12" d="M543.06,920c-5.46-1.8-3.96-4,11.02-6.4,3.74-.6,8.33-1.21,13.86-1.83,5.49-.95,11.9-2.07,19.35-3.36,7.5-.95,15.83-3.07,25.26-5.4,9.58-1.83,19.71-5.74,31.2-9.4,3.51-.9,10.93-4.24,19.77-7.52,4.49-1.52,8.95-3.8,13.26-6.16,4.34-2.33,8.59-4.61,12.38-6.65,36.43-23.09,63.02-55.27,78.76-89.11,15.74-33.97,22.61-68.36,25.22-99.33,.74-15.63,1.55-30.1,1.34-44.32,0-7.04,0-13.84,0-20.4-.07-1.7,.27-2.73,.32-3.59,.11-.96,.31-1.9,.48-2.84,.36-1.87,.82-3.72,1.4-5.5,1.12-3.58,2.6-6.97,4.37-10.11,7.15-12.62,18.81-20.81,30.34-24.13,2.88-.9,5.78-1.39,8.61-1.78,1.42-.12,2.82-.27,4.21-.31l3-.02c.9,.04,1.15,.13,1.67,.29,1.69,1.09,.29-.72,.03-1.2-.24-.34-.48-.64-.71-.91-.75-.78-1.47-1.52-2.16-2.24-.87-.79-1.7-1.54-2.5-2.26-6.6-5.51-11.88-7.73-16.98-9.39-3.65-1.03-7.34-1.89-11.15-2.14-2.14-.31-2.82-.07-7.76-.43-3.86-.48-7.4-2.48-9.8-5.41-2.43-2.95-3.63-6.68-3.47-10.61v-6.89c-.02-4.09-.04-8.13-.05-12.13-.81-15.68-.48-30.77-2.64-45.07-2.63-28.82-9.18-55.11-18.93-79.82-2.76-6.03-4.67-12.51-8.11-18.21-3.23-5.8-6.48-11.63-9.76-17.51-3.92-5.45-7.88-10.94-11.89-16.5-4.21-5.39-9.24-10.2-13.91-15.48-19.92-19.91-45.86-36.54-78.2-47.76-7.17-2.81-14.15-4.13-20.25-6.01-6.11-1.9-11.8-3-16.99-3.87-10.33-1.96-18.53-3.6-25.49-4.09-6.91-.78-12.38-1.4-17.13-1.93-4.77-.45-8.86-.47-12.92-.72-8.14-.27-16.31-1.21-30.21-.47-6.94,.38-15.42,.02-25.87,1.59-5.24,.61-11.02,1.29-17.43,2.04-6.34,1.12-13.22,2.71-20.85,4.25-40.87,9.73-64.48,23.37-85.69,38.77-20.74,15.98-40.59,34.51-60.6,71.03-18.31,34.73-24.45,65.42-28.29,92.48-.74,6.84-1.79,13.44-2.24,20-.26,6.58-.52,13.05-.77,19.49-.35,6.39-.41,12.94-.39,19.6l-.02,4.99c-.02,.5,.04,2.64-.06,4.02-.09,1.54-.42,3-.95,4.42-2.1,5.68-7.79,9.75-14.15,9.7-1.54,.07-3.1,.13-4.68,.2-1.25,.13-2.52,.26-3.8,.4-2.54,.4-5.11,.93-7.69,1.66-5.15,1.5-10.25,3.98-15.05,7.58-2.43,1.75-4.72,3.89-6.94,6.23-.74,.76-.84,.95-1.26,1.51-.57,.91-1.9,2.74,.04,1.5,.33-.11,.81-.25,1.43-.32-1.16-.04,6.68-.37,12.54,1.06,12.42,2.42,27.04,11.3,34.86,26.54,2.42,4.73,4.2,9.82,5.07,15.08,.33,1.06,.43,4.14,.36,4.71v10.16c.07,8.99-.15,18.15,.16,27.02l1.05,26.55,3.17,26.3c5.57,34.76,16.87,68.63,35.46,97.76,24.21,36.89,57.5,64.71,93.91,80.7,36.14,16.63,73.59,23.97,108.03,27.33,26.28,2.74,7.58,9.65-12.45,10.69-8.34,.57-18.05-.69-28.62-1.52-10.56-.98-21.72-3.92-33.16-6.23-5.58-1.79-11.22-3.6-16.85-5.41l-8.38-2.76c-2.69-1.19-5.37-2.36-8.03-3.53-5.28-2.38-10.49-4.73-15.53-7-4.87-2.65-9.46-5.47-13.9-8.03-10.33-5.38-19.26-13.2-28.87-20.02-8.52-8.21-17.97-15.6-25.34-25.11-16.19-17.7-28.53-38.88-38.36-60.92l-6.86-16.82c-1.94-5.73-3.51-11.58-5.29-17.37-3.97-11.49-5.4-23.57-8.05-35.35-1.63-11.94-3.14-23.93-3.98-35.9-.27-11.95-1.15-24.06-.95-35.78,0-6.28,.01-12.37,.02-18.27,0-2.76-.01-5.48-.01-8.14-.29-2.15-.96-4.8-1.73-7.01-3.18-9.2-9.51-16.14-16.2-20.23-6.74-4.14-13.74-5.61-19.47-5.67-1.04-.09-3.86,.17-5.96,.46-2.37,.55-4.53,.96-7.42,2.46-5.19,2.32-12,6.12-17.59,9.11,.28-1.38,.21-1.97,.33-3-.16-.38-.33-.74-.54-.98-.16-.21-.92,.41-.57-.49l1.89-3.9c2.5-5.17,4.9-9.8,7.53-14.48,1.41-2.33,2.96-4.68,4.51-6.95,1.8-2.19,3.49-4.59,5.33-6.52,2.73-2.9,5.55-5.62,8.65-7.87,11.96-9.39,26.95-12.57,37.35-12.69,1.95,.26,3.82-1.45,3.61-3.38,0-3.81-.02-7.59-.02-11.35-.16-8.13,.43-16.46,.62-24.69,.14-4.13,.29-8.27,.43-12.44,.47-4.15,.94-8.33,1.42-12.56,1.07-8.44,1.62-17.12,3.76-25.91,2-8.79,3.16-18.09,6.41-27.38,2.85-9.37,5.56-19.27,10.14-29.15,7.77-20.24,20.18-41.32,37.79-62.44,16.5-20.08,37.37-36.37,59.95-48.93,11.09-6.8,23.26-11.29,35.14-16.39,12.35-3.68,24.49-8.33,37.22-10.43,50.49-10.76,102.47-9.76,152.88-.31,37.91,7.59,62.33,19.52,80.44,29.39,8.55,5.86,16.39,10.14,22.58,15.39,6.11,5.32,12.1,9.69,17.26,14.93,4.97,5.42,10.19,10.66,15.46,16.82,4.61,6.66,10.39,13.51,15.7,22.43,10.7,17.75,22.44,42.34,30.84,80.15,1.33,6.72,2.58,12.97,3.74,18.82,.82,5.89,1.32,11.4,1.93,16.54,.57,5.14,1.1,9.93,1.6,14.43,.4,4.5,.37,8.72,.56,12.69,.65,15.89,.9,28.05,.72,39.61-.1,.99,.07,2.14,.98,2.74,.42,.3,.94,.45,1.47,.45,1.19,.04,2.39,.09,3.62,.13,6.81,.48,14.22,1.88,22.01,5.23,3.92,1.6,7.82,3.89,11.73,6.63,1.92,1.42,3.87,2.93,5.72,4.66,.97,.82,1.89,1.72,2.77,2.68l1.37,1.42c.61,.6,1.28,1.39,1.88,2.18,5.46,6.23,9.2,13.18,12.9,20.34,1.86,3.75,3.78,7.63,5.77,11.66,.04,1.09-.81,1,1.03,6.46,1.35,.79-10.22-5.73-18.4-9.95-2.12-.93-4.71-2.45-6.36-2.85-1.65-.37-3.43-.99-4.9-1.14-1.38-.12-2.75-.24-4.09-.36l-2.23,.04c-2.93,.16-5.67,.66-8.19,1.37-5.06,1.42-9.21,3.77-12.58,6.41-6.74,5.35-10.52,11.78-12.57,18.47-.53,1.68-.87,3.41-1.17,5.17-.1,.77-.26,2.08-.25,2.22l.04,3.08c.05,4.36,.11,8.95,.17,13.98,.04,5.03,.09,10.51,.15,16.65-.18,6.24-.37,13.16-.59,20.98,.26,4.48-1.58,23.44-4.4,42.35-1.98,9.37-3.74,18.81-5.59,26.39-2.31,7.47-4.08,13.22-4.79,15.52-.62,1.98-1.55,4.93-2.71,8.61-1.37,3.61-3.28,7.84-5.26,12.58-2.14,4.68-3.94,10.06-6.81,15.23-2.87,5.18-5.86,10.57-8.84,15.97-2.74,5.55-6.89,10.24-10.12,15.18-3.47,4.79-6.47,9.61-10.1,13.3-6.93,7.6-12.06,14.08-15.23,16.72-3.44,2.78-14.21,14.54-31.82,26.32-4.15,3.32-9.13,5.9-14.2,8.8-5.15,2.73-10.24,6.2-15.98,8.57-5.71,2.44-11.56,4.94-17.45,7.45-5.87,2.57-12.18,3.98-18.25,5.99-12.11,4.23-24.63,5.77-35.98,8.1-11.48,1.51-22.12,2.08-31.02,2.67-17.91-.39-28.98-1.76-27.56-4.47Z"/>
        </g>
      </g>
      <path class="cls-12" d="M538.43,555.26c2.72,2.96,5.43,6.64,5.08,8.86-.03,.17-1.15-.48-1.39-.29-2.81,2.2-4.68,3.86-5.74,4.83-1.78,1.62-2.49,2.86-4.4,4.32-1.73,1.31-1.5-.03-3.25,1.24-1.18,.86-.96,1.74-2.09,2.68-1.97,1.63-2.56,1.59-4.57,3.18-.96,.76-1.85,1.61-2.42,2.82-.73,1.55-2.57,1.55-6.37-1.14-1.46-1.04-6.1-7.09-7.01-8.69-1.53-2.69,.19-2.08,1.29-1.81,2.5,.62,4.44,.37,5.73-.58,2.75-2.05,2.39-2.83,4.91-5.15,1.26-1.17,3.02-1.74,4.27-2.91,1.88-1.76,.99-1.84,2.83-3.65,1.34-1.32,1.41-.84,2.69-2.23,.71-.78,.51-1.14,.97-2.21,.07-.15,.84-.96,1.02-1,.31-.06,1.49-.76,1.6-1.04,.12-.31,.08-5.45,6.85,2.78Z"/>
      <path class="cls-12" d="M525.89,556.47c2.83,2.85,5.75,6.37,5.71,8.4,0,.15-1.09-.49-1.28-.33-2.24,1.9-3.7,3.35-4.53,4.19-1.39,1.42-1.86,2.52-3.4,3.78-1.38,1.14-1.35-.1-2.76,1-.95,.74-.64,1.56-1.53,2.37-1.56,1.42-2.1,1.35-3.7,2.72-.76,.66-1.45,1.4-1.81,2.5-.45,1.4-2.11,1.31-5.88-1.34-1.44-1.02-6.4-6.81-7.43-8.33-1.72-2.55-.1-1.91,.93-1.61,2.33,.69,4.04,.54,5.07-.28,2.21-1.76,1.79-2.5,3.75-4.53,.98-1.02,2.49-1.47,3.46-2.49,1.46-1.54,.65-1.65,2.07-3.23,1.04-1.16,1.16-.71,2.13-1.94,.54-.68,.31-1.02,.59-2,.04-.14,.63-.85,.79-.87,.27-.04,1.24-.63,1.3-.89,.07-.28-.63-5.02,6.52,2.88Z"/>
      <path class="cls-12" d="M520.2,554.75c2.64,3.02,5.43,6.64,5.65,8.37,.02,.13-.94-.65-1.08-.55-1.58,1.16-2.59,2.09-3.15,2.64-.95,.92-1.2,1.77-2.28,2.52-.98,.68-1.11-.37-2.11,.28-.68,.43-.33,1.2-.95,1.71-1.09,.89-1.53,.71-2.66,1.56-.54,.4-1.01,.89-1.16,1.75-.2,1.1-1.55,.68-4.92-2.37-1.29-1.18-6.02-7.16-7.03-8.67-1.71-2.54-.32-1.65,.55-1.18,1.97,1.07,3.34,1.31,4.07,.82,1.57-1.05,1.14-1.76,2.48-3.09,.67-.67,1.83-.74,2.5-1.41,1-1.01,.33-1.27,1.28-2.33,.7-.77,.85-.36,1.49-1.21,.35-.47,.13-.81,.23-1.58,.01-.11,.41-.59,.53-.58,.21,.02,.93-.28,.94-.49,.02-.23-1.13-4.42,5.63,3.82Z"/>
      <path class="cls-12" d="M907.83,570.57c2.88,2.81,5.73,6.38,5.21,8.79-.04,.18-1.25-.37-1.53-.14-3.24,2.68-5.41,4.67-6.64,5.83-2.06,1.94-2.92,3.35-5.13,5.13-1.99,1.61-1.65,.13-3.67,1.7-1.36,1.06-1.18,1.98-2.48,3.11-2.28,1.97-2.93,1.99-5.24,3.91-1.11,.9-2.15,1.89-2.86,3.24-.91,1.72-2.94,1.89-6.91-.64-1.52-.98-6.17-7.02-7.05-8.65-1.48-2.73,.36-2.24,1.55-2.05,2.7,.44,4.85,0,6.33-1.15,3.15-2.45,2.78-3.26,5.67-5.99,1.44-1.37,3.39-2.16,4.82-3.54,2.15-2.07,1.18-2.06,3.29-4.17,1.54-1.54,1.59-1.04,3.06-2.65,.82-.9,.62-1.26,1.17-2.45,.08-.17,.97-1.11,1.17-1.16,.34-.1,1.67-.96,1.8-1.27,.15-.35,.31-5.74,7.44,2.17Z"/>
      <path class="cls-12" d="M898.57,568.19c2.73,2.94,5.47,6.61,5.13,8.82-.03,.17-1.15-.47-1.39-.28-2.79,2.21-4.64,3.88-5.69,4.85-1.76,1.63-2.46,2.87-4.36,4.33-1.71,1.32-1.5-.03-3.24,1.26-1.18,.87-.95,1.75-2.07,2.69-1.96,1.64-2.55,1.6-4.54,3.2-.95,.76-1.84,1.62-2.4,2.83-.72,1.55-2.56,1.56-6.37-1.11-1.46-1.03-6.14-7.05-7.06-8.64-1.55-2.68,.17-2.08,1.28-1.81,2.51,.61,4.44,.35,5.71-.61,2.74-2.06,2.37-2.83,4.87-5.17,1.25-1.17,3-1.75,4.24-2.93,1.87-1.77,.98-1.84,2.8-3.66,1.33-1.32,1.4-.84,2.67-2.24,.7-.78,.5-1.14,.95-2.22,.06-.15,.84-.96,1.01-1,.31-.06,1.48-.76,1.59-1.05,.12-.31,.04-5.44,6.86,2.75Z"/>
      <path class="cls-12" d="M891.71,560.4c2.55,3.1,5.09,6.91,4.66,9.07-.03,.16-1.11-.55-1.34-.38-2.82,1.98-4.7,3.49-5.77,4.37-1.79,1.48-2.52,2.65-4.44,3.95-1.73,1.18-1.46-.14-3.22,1-1.19,.77-1,1.65-2.13,2.5-1.98,1.48-2.56,1.39-4.57,2.82-.96,.68-1.86,1.46-2.46,2.62-.76,1.48-2.57,1.35-6.19-1.56-1.39-1.12-5.72-7.4-6.56-9.03-1.41-2.75,.25-2.04,1.32-1.69,2.43,.78,4.33,.67,5.62-.19,2.76-1.83,2.43-2.62,4.97-4.74,1.27-1.06,3.01-1.51,4.27-2.58,1.9-1.61,1.03-1.74,2.89-3.4,1.36-1.21,1.41-.73,2.7-2.02,.72-.71,.54-1.09,1.02-2.12,.07-.15,.86-.89,1.03-.91,.3-.04,1.48-.64,1.6-.92,.13-.3,.26-5.36,6.6,3.21Z"/>
      <path class="cls-12" d="M881.44,554.31c1.79,3.59,3.42,7.87,2.93,9.72-.04,.14-.87-.81-1.08-.71-2.47,1.1-4.07,2.14-4.95,2.76-1.5,1.04-2.05,2.02-3.58,2.98-1.36,.9-1.28-.3-2.68,.61-.95,.61-.65,1.46-1.5,2.16-1.46,1.27-1.98,1.17-3.43,2.49-.69,.62-1.28,1.37-1.5,2.42-.26,1.36-1.8,1.32-5.89-.81-1.57-.82-7.29-5.86-8.46-7.27-1.99-2.35-.19-2.07,.92-1.93,2.54,.28,4.33-.1,5.43-1.08,2.39-2.07,1.98-2.81,4.29-5.03,1.18-1.1,2.84-1.56,4.07-2.57,1.85-1.51,1-1.7,2.89-3.21,1.39-1.09,1.42-.59,2.79-1.73,.78-.61,.64-1,1.24-1.95,.09-.13,.97-.74,1.14-.74,.3,0,1.54-.39,1.71-.63,.11-.27,1.38-5.24,5.66,4.53Z"/>
      <path class="cls-12" d="M872.86,556.96c1.55,3.7,2.92,8.08,2.87,9.69,0,.12-.69-.91-.82-.85-1.55,.62-2.51,1.39-3,1.86-.86,.78-.98,1.59-1.84,2.31-.75,.7-1.12-.28-1.9,.48-.56,.51,.04,1.18-.38,1.74-.65,1.04-1.13,1-1.72,2.11-.3,.52-.42,1.13-.09,1.84,.46,.92-.8,1.05-5.36,.81-1.76-.08-9.18-1.76-10.88-2.48-2.85-1.16-1.11-1.76-.06-2.09,2.4-.81,3.84-1.71,4.46-2.91,1.38-2.52,.76-3.06,2.22-5.63,.77-1.27,2.2-2,3.11-3.11,1.39-1.66,.55-1.75,2.08-3.4,1.14-1.19,1.25-.69,2.4-1.88,.68-.62,.51-1,1.01-1.97,.07-.13,.89-.75,1.06-.75,.28-.01,1.47-.38,1.63-.61,.02-.26,1.55-5.21,5.21,4.82Z"/>
      <path class="cls-4" d="M567.95,891.67c-162.59,0-262.59-97.55-262.59-266.64v-35.12c-1.86-13.4-9.85-25.31-21.76-32.04-13.71-7.73-30.49-7.39-43.86,.91,12.39-27.2,31.9-41.08,58.73-41.24,3.8-.01,6.87-3.1,6.87-6.9,.03-7.77,.03-19.1,.03-19.1,0-168.92,100-266.63,262.59-266.63s262.56,81.45,262.56,266.63v19.17c0,3.79,3.07,6.86,6.84,6.86,26.97,.04,46.57,13.92,59.01,41.22-13.37-8.31-30.15-8.64-43.86-.91-12.44,7.02-20.58,19.71-21.99,33.84v33.32c0,169.09-99.97,266.64-262.56,266.64Zm-24.63-332.89c-13.37-8.31-30.15-8.64-43.86-.91-12.3,6.94-20.41,19.43-21.93,33.38v129.21c0,87.9,41.19,104.56,86.54,104.56h7.57c45.52,0,86.57-16.67,86.57-104.56v-128.75c-1.41-14.13-9.54-26.82-21.99-33.83-13.71-7.74-30.49-7.39-43.89,.9,12.02-26.34,30.72-40.19,56.25-41.12,5.38-.21,9.63-4.62,9.63-9.99v-111.38c0-87.9-41.05-104.56-86.57-104.56h-7.57c-45.36,0-86.54,16.67-86.54,104.56,0,0,0,82.03,.06,111.29,0,5.38,4.25,9.78,9.63,10.01,25.48,1.03,44.12,14.88,56.11,41.19Z"/>
      <g>
        <path class="cls-13" d="M477.52,720.46c0,87.9,41.19,104.56,86.54,104.56h7.57c45.52,0,86.57-16.67,86.57-104.56h0l-.32-97.8h35.34c19.6,0,37.17-8.69,49.08-22.42h0c11.9,13.74,29.47,22.42,49.08,22.42l39.13-.26v2.63c0,169.09-99.97,266.64-262.56,266.64s-262.93-100.18-262.93-269.27l39.13,.26c19.6,0,37.17-8.69,49.08-22.42h0c11.9,13.74,29.47,22.42,49.08,22.42h35.34v97.8"/>
        <g>
          <path class="cls-3" d="M441.08,618.13c-.83,.08-1.21-.2-2.06-.24-.7-.06-1.71,.12-2.38,.1-1.3,0-2.6,.03-3.9-.09-3.65-.48-7.24-1.37-10.72-2.59l-.85-.32c.47,.16-1.88-.66-3.12-1.26-1.46-.6-2.86-1.34-4.27-2.04-5.57-2.99-10.68-6.82-15.09-11.35-.65-.71-1.45-1.58-2.02-2.19l-.34-.37-.08-.09-.02-.02h-.01s0-.02,0-.02h0s-2.99,6.54-2.99,6.54l-2.99-6.54h0s0,0,0,0h-.01s-.02,.03-.02,.03l-.17,.19c-11.44,13.15-28.65,20.91-46.05,20.81-11.41-.07-39.51-.23-42.1-.25-1.53-.63-.71,1.55-.84,3.22,.07,1.71,.15,3.81,.24,6.17,.12,2.79,.27,6.2,.43,9.61,.31,6.81,.62,13.64,.72,15.63,.2,1.5,1.59,12.17,2.73,20.88,2.43,.01,4.41-2.34,6.86-2.21-.75-6.75-1.75-13.48-2.33-20.24-.29-6.79-.57-13.57-.86-20.32l-.19-4.27c.11-.4-.38-1.27,.3-1.06h7.59c6.77,.04,13.5,.07,20.17,.1,8.13,.2,17.37,.04,25.75-2.46,8.46-2.37,16.44-6.39,23.38-11.76,3.47-2.68,6.69-5.69,9.57-9l.28-.3c-2.2,0,4.96-.03-4.91-.03l.04,.04,.07,.08,.14,.15,.55,.61,1.11,1.21c.73,.82,1.55,1.55,2.32,2.33,1.58,1.52,3.22,2.98,4.95,4.33,3.44,2.73,7.13,5.12,11.02,7.15,1.95,1.02,3.95,1.9,5.98,2.75l2.05,.76c3.17,1.15,6.43,2.05,9.75,2.67,3.6,.94,7.27,2.33,10.96,2.53,.97,.04,2.01-.14,2.78-.58,.79-.48,1.04-.35,1.32-.7,.33-.41,.46-1.17,.41-2.05-.08-2.4-1.55-5.66-3.12-5.52Z"/>
          <g>
            <path class="cls-3" d="M356.53,804.55c.11,.13,3.42,3.9,7.47,8.51,4.14,4.53,8.62,10.29,12.31,13.19,.93,.86,1.67,1.55,2.84,2.63,4.61,3.98,9.44,9.2,15.37,13.24,31.65,24.4,69.52,39.85,108.49,47.19,39.06,7.27,79.15,7.51,118.35,1.86,27.38-4.51,54.13-11.67,79.7-23.72,22.39-11.06,43.31-25.32,61.36-42.88,17.55-18.05,31.96-38.9,43.29-61.31,9.19-21.73,15.37-36.36,21.65-67.27,.65-3.38,1.73-7.45,2.41-11.97,.57-4.53,1.19-9.44,1.81-14.33,.59-4.9,1.29-9.78,1.72-14.3,.18-4.53,.35-8.67,.48-12.04,.22-6.45,.42-12.09,.6-17.34,0-2.26,.01-4.49,.02-6.68-.02-.26,.04-.59-.04-.78h-.82s-1.63-.01-1.63-.01h-3.25c-2.83,.03-5.59,.07-8.36,.1-9.26,.08-18.53,.17-30.86,.28-12.98-.32-25.81-4.95-36.02-13.03-2.58-1.99-4.96-4.23-7.16-6.61l-.82-.9-.41-.45c4.82-.01-6.59-.02-5.42,0l-.03,.03-.05,.06-.1,.11-.21,.23-1.64,1.81c-1.15,1.15-2.28,2.33-3.52,3.39-4.84,4.35-10.38,7.94-16.36,10.52-5.95,2.63-12.35,4.26-18.84,4.84-6.33,.52-13.54,.2-20.34,.3l-24.09,.1,.1,24.1c-.03,14.47-.05,29.03-.08,43.47-.43,23.65,.93,44.09-2.3,65.83-3.11,19.62-8.19,37.83-24.69,52.4-13.33,11.66-31.67,15.55-49.6,16.26-18.34,.54-36.84,.39-53.47-6.46-12.99-5.48-23.49-15.03-29.82-27.09-1.58-3-3.26-5.94-4.33-9.19-1.24-3.17-2.53-6.3-3.29-9.64-.83-3.31-1.97-6.52-2.42-9.93l-1.3-7.38c-.52-2.57-.47-5.25-.67-8.03-.07-1.62,.13-3.28-.14-4.84-.81-3.89-.09-7.52-.11-11.72,.03-1.72-1.05-5.88-2.22-6.4-.68-.3-1.5,.15-2.2-.12-1.6-.63-4.27,2.02-4.18,4.45l.48,7.63c.05,2.65,.11,5.33,.52,7.97,.29,2.1,1.13,4.14,1.23,6.2,.05,1.1,.22,2.17,.36,3.26,.4,2.53,.81,5.1,1.23,7.82,2.88,17.31,9.32,35.71,23.03,49.3,13.72,13.57,33.17,19.55,51.36,20.62,10.22,.7,20.02,.66,30.25,.17,10.14-.63,20.44-2.29,30.18-6.13,9.73-3.76,18.75-9.83,25.7-17.75,6.9-7.92,12.15-17.2,15.43-27,6.93-19.56,8.04-40.26,8.19-60.35-.02-20-.04-39.96-.06-59.86l-.03-19.01-.03-9.52c-.06-2.32-.15-2.02,.86-2.08l18.38-.03c6.37-.11,12.57,.21,19.38-.41,13.3-1.38,26.12-6.72,36.29-15.18,2.55-2.1,4.96-4.36,7.16-6.82l.83-.91,.41-.46c1.12-.02-9.64,0-5.08,0l.03,.03,.05,.06,.1,.11,.21,.23,1.67,1.82c1.15,1.18,2.3,2.34,3.52,3.44,4.85,4.42,10.3,8.12,16.16,10.95,8.04,3.91,16.85,6.22,25.77,6.74,8.91,.25,17.12-.04,25.71-.03l12.75-.09h.95s.48-.01,.48-.01v.48s-.14,4.14-.14,4.14l-.94,25.28c-2.81,33.56-10.01,66.89-23.63,97.59-11.18,24.99-26.51,48.12-45.86,67.49-19.37,19.4-42.96,34.21-68.06,45.05h0c-12.45,5.89-25.83,9.44-39,13.33-32.83,8.46-67.24,10.56-101.08,8.82-23.04-.97-42.98-4.49-62.48-9.02-9.6-2.77-19.16-5.73-28.8-9.24-4.7-2.07-9.47-4.16-14.36-6.31-4.98-1.95-9.73-4.62-14.53-7.52-1.86-1.07-3.95-2.27-5.89-3.38h0s-.98-.56-.98-.56c-5.95-3.04-11.37-7.35-17.08-11.45-2.85-2.06-5.72-4.13-8.6-6.21l-7.9-7.16c-20.86-18.82-37.1-39.26-49.36-64.72-4.38-2.88-8.73-6.96-10.61-5.4,2.66,7.06,6.65,12.87,10.53,20.31,1.28,2.28,2.58,4.6,3.9,6.95,1.55,2.21,3.12,4.45,4.71,6.71,3.15,4.52,6.35,9.12,9.53,13.68Z"/>
            <path class="cls-3" d="M431.87,618.24c-.79-.14-1.64-.31-2.7-.65-1.17-.39-3.37-1.12-4.52-1.5-1.08-.3-1.89-.52-2.7-.75l-.61-.19-.31-.1c-.14-.05-1.92-.68-2.79-1.09-4.35-1.87-8.9-4.3-13.51-7.9-2.59-1.95-4.96-4.2-7.2-6.55l-.82-.9-.41-.45-.21-.22-.1-.11c-11.07-.01-3.08,.01-5.56,.02l-.02,.03-.05,.06-1.64,1.8c-1.12,1.17-2.26,2.34-3.47,3.42-4.8,4.38-10.31,7.99-16.25,10.63-5.93,2.67-12.3,4.34-18.78,4.99-6.31,.59-13.47,.19-20.29,.25l-21.15-.11-4.51-.03c-1.44,.05-3.54-.54-2.82,1.61l.31,8.04,.4,10.42c.06,13.92,2.2,27.7,3.78,41.52,1.05,7.23,2.83,14.38,4.18,21.58,1.19,7.25,3.32,14.28,5.47,21.27,6.29,23.09,15.57,41.89,27.27,61.51,12.09,17.15,23.01,31.98,40.65,47.43,27.86,25.43,62.35,42.69,98.88,52.38,31.37,8.04,61.87,10.46,92.26,10.31,12.65-.55,25.33-.89,37.97-2.88,12.73-1.11,25.24-4.17,37.92-6.81-7.84-.21-11.44-1.46-15.46-2.53-19.57,3.96-39.58,5.47-59.53,5.62-.68,0-1.07,0-1.72,.01-4.52,.29-9.06,.12-13.73-.18-34.3-.96-70.97-6.24-104.04-19.33-36.4-14.31-69.48-37.89-94-68.84-24.05-31.35-39.27-68.92-46.68-107.47-3.01-12.16-3.58-24.8-5.32-37.25-.61-6.26-.59-12.57-.93-18.86l-.38-9.25c-.01-.45-.07-.89-.03-1.22h1.16c12.73-.02,25.12,.21,38.07,0,13.19-.8,26.08-5.41,36.51-13.18,2.95-2.2,5.79-4.58,8.35-7.24,.67-.63,1.26-1.35,1.89-2.02l.93-1.02,.06-.06,.03-.03c-10.01-.01-2.76,.01-4.99,.02l.12,.13,.23,.26,.47,.51c1.22,1.38,2.53,2.68,3.85,3.97,5.36,5.07,11.54,9.25,18.23,12.37,1.59,.7,3.59,1.58,4.9,2.02l.5,.18,1,.37,2.03,.64c2.7,.86,5.48,1.48,8.26,2-.29-2.44,.41-4.57,1.54-6.63Z"/>
          </g>
          <g>
            <path class="cls-3" d="M478.24,639.8c-.86,.42-1.94,.11-2.63-.54-.97-.92-1.37-2.34-1.08-3.63,.36-1.6,.34-3.41,.22-5.24l-.22-2.72c-.05-.35-.1-.69-.15-1.01-.08-.22,.12-.71-.15-.73l-.88-.02-2,.03-2.88,.17c-2.78,.26-6.62-.33-9.26,.81-2.27,.98-5.32,.24-6.6-2-.62-1.09-.74-2.45-.33-3.63,.82-2.35,4.26-2.61,6.38-2.7,2.18-.09,3.7,1.02,5.9,1,1.08-.01,2.16,.23,3.24,.28l6.14,.19,4.42,.1,1.08,.03c.39-.03,.77-.03,.62,.49l-.08,2.24c-.05,1.4-.21,2.79-.38,4.06l-.48,2.78c-.24,1.92,.53,3.63,.41,5.43-.08,1.21-.09,4.02-1.31,4.61Z"/>
            <path class="cls-3" d="M473.05,652.81c-.02-1.26,.15-5.04,1.95-5.17,.84-.06,1.61,.47,2.29,.96,1.04,.76,2.08,1.52,3.01,2.4,.48,.46,.94,.97,1.15,1.61,.54,1.66-.38,3.59-.4,5.28-.05,3.01-1.44,5.82-1.93,8.89-.52,3.21,.41,5.99-2.36,7.66-.76-.81-1.99-1.93-2.12-3.12-.51-5.85-1.02-11.74-1.53-17.63l-.05-.88Z"/>
            <path class="cls-3" d="M473.63,691.57c-.04-1.19,.19-2.39,.81-3.4,1.58-2.57,6.17-3.09,6.55,.63,.23,2.27-.5,3.79-.85,6.06-.22,1.45-1.38,6.24-3.27,4.84-1.52-1.13-2.7-4.94-3.07-6.69-.1-.47-.16-.96-.18-1.45Z"/>
            <path class="cls-3" d="M478.09,720.39l-.19,.03c-3.56,.47-5.92-5.34-3.91-7.94,1.47-1.9,5.48-2.36,6.91-.12,1.35,2.11-.15,7.43-2.81,8.02Z"/>
          </g>
        </g>
      </g>
      <g>
        <path class="cls-3" d="M543.03,556.72c-.25,4.3-2.47,3.92-8.76-3.86-3.29-3.73-7.72-9.39-15.06-15.03-7.56-5.64-17.23-10.65-33.45-10.93-2.41-.18-6.61-1.15-10.44-4.45-3.83-3.04-6.97-9.2-6.64-15.11,.29-6.68,.59-14.26,.59-20.38,.14-36.13-.28-68.99,.29-100.2,.66-15.78,2.31-31.11,6.99-45.44,4.54-14.22,11.91-27.71,22.74-37.25,10.68-9.66,23.55-15.01,35.43-17.64,11.92-2.7,23.39-2.97,33.37-2.98,10.03,0,20.03,.39,29.1,2.11,9.11,1.78,17.51,4.47,24.73,8.25,12.29,6.17,21.71,16.11,28.07,26.46,6.28,10.51,9.68,21.35,12.35,31.79,4.61,20.86,4.54,40.99,4.51,59.53,.05,18.87,.1,37.73,.15,57.94,.01,10.11,.02,20.55,.03,31.49v4.13s0,2.08,0,2.08c0,.55-.04,2.4-.27,3.54-.83,5.25-4.06,10.07-8.67,12.9-2.29,1.43-4.93,2.36-7.65,2.68l-4.67,.34c-2.57,.23-5.13,.6-7.65,1.18-9.64,2.24-16.36,6.53-21.25,10.88-1.22,1.1-2.38,2.14-3.38,3.26l-.65,.65c-.19,.21-.36,.4-.51,.57-.33,.39-.62,.8-.93,1.25-.19,.31,.29-.07,.54-.04,.24-.02,.51-.04,.85-.06,.27,0,.58,0,.92,0,.8,.01,1.64,.03,2.53,.05,1.25,0,2.55,.16,3.94,.27,5.48,.62,12.2,2.2,19.54,6.26,7.24,4.05,15.25,10.86,20.76,21.68,3.83,7.78,5.71,15.57,5.41,23,.02,6.2,.05,11.89,.07,17.25,.09,10.71,.17,20.09,.25,29.46,.11,18.75,.22,37.51,.39,67.02,.26,25.88-1.5,47.78-7.28,65.89-5.7,18.12-15.79,33.12-29.83,42.9-7.04,4.88-14.87,8.19-23.14,10.7-8.33,2.22-17.08,3.46-26.42,3.95-4.68,.12-9.51,.23-14.24,.17-4.9-.09-10.25-.1-15.81-.68-11.09-1.06-23.72-3.37-36.61-10.12-12.27-6.55-22.32-17.22-28.79-29.14-6.49-11.95-10.37-24.86-12.27-37.64-1.29-6.4-1.53-12.8-2.27-19.19-.19-6.32-.56-12.84-.59-18.99-.11-12.32-.23-24.62-.34-36.88-.06-15.68-.11-31.01-.16-45.93,.08-7.46,.15-14.81,.23-22.06,.07-3.62,.13-7.22,.2-10.79,.11-3.83,.22-7.62,.33-11.38,2.27-16.85,12.86-30.73,26.27-37.51,13.37-6.97,28.88-6.62,40.59-1.08,8.85,4.63,8.04,7.81,4.76,8.35-3.4,.67-9.54,.35-15.01,.47-9.15-.15-21.29,2.8-29.92,11.66-4.3,4.31-7.51,9.89-9.17,15.77-.39,1.27-.77,3.4-.9,4.01-.06,1.71-.12,3.41-.19,5.08-.13,3.66-.25,7.2-.36,10.59-1.04,30.69-1.83,62.66-2.36,95.02-.25,16.3-.67,32.22,1.36,47.89,2,15.59,6.55,30.91,15.25,43.13,4.59,6.56,10.14,11.75,16.23,15.39,5.94,3.88,12.37,6.22,18.62,7.86,12.67,3.22,24.43,3.32,35.67,3.26,21.83,.05,39.58-3.94,53.09-14.13,13.35-10.29,21.72-26.47,25.72-47.61,2.21-10.56,2.95-22.52,3.19-35.96,0-13.74-.02-28.99-.03-46.27l.16-81.63c.05-11.5-6.44-23.4-16.21-30.05-4.9-3.38-10.57-5.67-16.49-6.42-3.07-.29-5.1-.73-11.45,.4-5.3,.9-13.57,5.81-24.8,11.77,.34-1.34,.32-1.89,.49-2.87,.13-.88-.15-.83-.21-1.3-.07-.43-.42-.2-.61-.33l-.17-.04c0-.09,.25-.54,.36-.79l.87-1.78c2.38-4.85,4.52-9.25,7.02-13.74,2.34-4.45,5.4-9.06,8.98-13.47,.79-1.11,1.89-2.26,2.7-3.11l2.06-2.17c1.5-1.33,2.88-2.79,4.49-4.01,11.01-9.06,23.13-12.65,33.15-13.78,1.26-.16,2.5-.21,3.71-.31l1.8-.13c.32-.04,.53-.04,.79-.11,1-.19,1.86-.73,2.49-1.42,1.37-1.52,1.21-2.6,1.17-6.87-.12-13.83-.2-23.61-.28-33.4-.09-9.79-.17-19.57-.29-33.4-.04-6.92-.08-14.84-.13-24.28,0-9.5,0-20.42-.67-32.94-1.21-18.38-4.61-30.99-8.33-40.38-3.72-9.42-7.77-15.83-12.79-21.19-4.92-5.44-10.73-10.16-19.89-13.99-9.1-3.95-21.72-6.44-40.09-6.4-20.83-.25-31.12,2.01-40.97,5.45-9.42,3.82-19.32,8.32-29.62,24.21-.82,1.06-2.3,4.37-4.54,8.48-1.71,4.45-3.96,9.89-5.3,15.8-1.7,5.74-2.38,11.91-3.24,16.77-.5,4.99-.89,8.82-1.05,10.35-1.31,10.12-.83,65.16-.86,75.9,.06,2.94,.27,13.39,.56,27.34,.08,6.98,.18,14.84,.28,23.07,0,2.76,.03,2.64,.19,3.04,.17,.36,.46,.72,.83,.94,.19,.11,.38,.18,.58,.24l.32,.05,1.55,.13c2.36,.14,4.72,.38,7.07,.79,9.41,1.44,18.55,5.16,25.7,10.24,7.19,5.07,12.48,11.16,15.97,16.65,6.89,11.15,7.95,19.18,5.25,19.33Z"/>
        <path class="cls-3" d="M570.85,892.2c-5.46-1.8-3.96-4,11.02-6.4,3.74-.6,8.33-1.21,13.86-1.83,5.49-.95,11.9-2.07,19.35-3.36,7.5-.95,15.83-3.07,25.26-5.4,9.58-1.83,19.71-5.74,31.2-9.4,3.51-.9,10.93-4.24,19.77-7.52,4.49-1.52,8.95-3.8,13.26-6.16,4.34-2.33,8.59-4.61,12.38-6.65,36.43-23.09,63.02-55.27,78.76-89.11,15.74-33.97,22.61-68.36,25.22-99.33,.74-15.63,1.55-30.1,1.34-44.32,0-7.04,0-13.84,0-20.4-.07-1.7,.27-2.73,.32-3.59,.11-.96,.31-1.9,.48-2.84,.36-1.87,.82-3.72,1.4-5.5,1.12-3.58,2.6-6.97,4.37-10.11,7.15-12.62,18.81-20.81,30.34-24.13,2.88-.9,5.78-1.39,8.61-1.78,1.42-.12,2.82-.27,4.21-.31l3-.02c.9,.04,1.15,.13,1.67,.29,1.69,1.09,.29-.72,.03-1.2-.24-.34-.48-.64-.71-.91-.75-.78-1.47-1.52-2.16-2.24-.87-.79-1.7-1.54-2.5-2.26-6.6-5.51-11.88-7.73-16.98-9.39-3.65-1.03-7.34-1.89-11.15-2.14-2.14-.31-2.82-.07-7.76-.43-3.86-.48-7.4-2.48-9.8-5.41-2.43-2.95-3.63-6.68-3.47-10.61v-6.89c-.02-4.09-.04-8.13-.05-12.13-.81-15.68-.48-30.77-2.64-45.07-2.63-28.82-9.18-55.11-18.93-79.82-2.76-6.03-4.67-12.51-8.11-18.21-3.23-5.8-6.48-11.63-9.76-17.51-3.92-5.45-7.88-10.94-11.89-16.5-4.21-5.39-9.24-10.2-13.91-15.48-19.92-19.91-45.86-36.54-78.2-47.76-7.17-2.81-14.15-4.13-20.25-6.01-6.11-1.9-11.8-3-16.99-3.87-10.33-1.96-18.53-3.6-25.49-4.09-6.91-.78-12.38-1.4-17.13-1.93-4.77-.45-8.86-.47-12.92-.72-8.14-.27-16.31-1.21-30.21-.47-6.94,.38-15.42,.02-25.87,1.59-5.24,.61-11.02,1.29-17.43,2.04-6.34,1.12-13.22,2.71-20.85,4.25-40.87,9.73-64.48,23.37-85.69,38.77-20.74,15.98-40.59,34.51-60.6,71.03-18.31,34.73-24.45,65.42-28.29,92.48-.74,6.84-1.79,13.44-2.24,20-.26,6.58-.52,13.05-.77,19.49-.35,6.39-.41,12.94-.39,19.6l-.02,4.99c-.02,.5,.04,2.64-.06,4.02-.09,1.54-.42,3-.95,4.42-2.1,5.68-7.79,9.75-14.15,9.7-1.54,.07-3.1,.13-4.68,.2-1.25,.13-2.52,.26-3.8,.4-2.54,.4-5.11,.93-7.69,1.66-5.15,1.5-10.25,3.98-15.05,7.58-2.43,1.75-4.72,3.89-6.94,6.23-.74,.76-.84,.95-1.26,1.51-.57,.91-1.9,2.74,.04,1.5,.33-.11,.81-.25,1.43-.32-1.16-.04,6.68-.37,12.54,1.06,12.42,2.42,27.04,11.3,34.86,26.54,2.42,4.73,4.2,9.82,5.07,15.08,.33,1.06,.43,4.14,.36,4.71v10.16c.07,8.99-.15,18.15,.16,27.02l1.05,26.55,3.17,26.3c5.57,34.76,16.87,68.63,35.46,97.76,24.21,36.89,57.5,64.71,93.91,80.7,36.14,16.63,73.59,23.97,108.03,27.33,26.28,2.74,7.58,9.65-12.45,10.69-8.34,.57-18.05-.69-28.62-1.52-10.56-.98-21.72-3.92-33.16-6.23-5.58-1.79-11.22-3.6-16.85-5.41l-8.38-2.76c-2.69-1.19-5.37-2.36-8.03-3.53-5.28-2.38-10.49-4.73-15.53-7-4.87-2.65-9.46-5.47-13.9-8.03-10.33-5.38-19.26-13.2-28.87-20.02-8.52-8.21-17.97-15.6-25.34-25.11-16.19-17.7-28.53-38.88-38.36-60.92l-6.86-16.82c-1.94-5.73-3.51-11.58-5.29-17.37-3.97-11.49-5.4-23.57-8.05-35.35-1.63-11.94-3.14-23.93-3.98-35.9-.27-11.95-1.15-24.06-.95-35.78,0-6.28,.01-12.37,.02-18.27,0-2.76-.01-5.48-.01-8.14-.29-2.15-.96-4.8-1.73-7.01-3.18-9.2-9.51-16.14-16.2-20.23-6.74-4.14-13.74-5.61-19.47-5.67-1.04-.09-3.86,.17-5.96,.46-2.37,.55-4.53,.96-7.42,2.46-5.19,2.32-12,6.12-17.59,9.11,.28-1.38,.21-1.97,.33-3-.16-.38-.33-.74-.54-.98-.16-.21-.92,.41-.57-.49l1.89-3.9c2.5-5.17,4.9-9.8,7.53-14.48,1.41-2.33,2.96-4.68,4.51-6.95,1.8-2.19,3.49-4.59,5.33-6.52,2.73-2.9,5.55-5.62,8.65-7.87,11.96-9.39,26.95-12.57,37.35-12.69,1.95,.26,3.82-1.45,3.61-3.38,0-3.81-.02-7.59-.02-11.35-.16-8.13,.43-16.46,.62-24.69,.14-4.13,.29-8.27,.43-12.44,.47-4.15,.94-8.33,1.42-12.56,1.07-8.44,1.62-17.12,3.76-25.91,2-8.79,3.16-18.09,6.41-27.38,2.85-9.37,5.56-19.27,10.14-29.15,7.77-20.24,20.18-41.32,37.79-62.44,16.5-20.08,37.37-36.37,59.95-48.93,11.09-6.8,23.26-11.29,35.14-16.39,12.35-3.68,24.49-8.33,37.22-10.43,50.49-10.76,102.47-9.76,152.88-.31,37.91,7.59,62.33,19.52,80.44,29.39,8.55,5.86,16.39,10.14,22.58,15.39,6.11,5.32,12.1,9.69,17.26,14.93,4.97,5.42,10.19,10.66,15.46,16.82,4.61,6.66,10.39,13.51,15.7,22.43,10.7,17.75,22.44,42.34,30.84,80.15,1.33,6.72,2.58,12.97,3.74,18.82,.82,5.89,1.32,11.4,1.93,16.54,.57,5.14,1.1,9.93,1.6,14.43,.4,4.5,.37,8.72,.56,12.69,.65,15.89,.9,28.05,.72,39.61-.1,.99,.07,2.14,.98,2.74,.42,.3,.94,.45,1.47,.45,1.19,.04,2.39,.09,3.62,.13,6.81,.48,14.22,1.88,22.01,5.23,3.92,1.6,7.82,3.89,11.73,6.63,1.92,1.42,3.87,2.93,5.72,4.66,.97,.82,1.89,1.72,2.77,2.68l1.37,1.42c.61,.6,1.28,1.39,1.88,2.18,5.46,6.23,9.2,13.18,12.9,20.34,1.86,3.75,3.78,7.63,5.77,11.66,.04,1.09-.81,1,1.03,6.46,1.35,.79-10.22-5.73-18.4-9.95-2.12-.93-4.71-2.45-6.36-2.85-1.65-.37-3.43-.99-4.9-1.14-1.38-.12-2.75-.24-4.09-.36l-2.23,.04c-2.93,.16-5.67,.66-8.19,1.37-5.06,1.42-9.21,3.77-12.58,6.41-6.74,5.35-10.52,11.78-12.57,18.47-.53,1.68-.87,3.41-1.17,5.17-.1,.77-.26,2.08-.25,2.22l.04,3.08c.05,4.36,.11,8.95,.17,13.98,.04,5.03,.09,10.51,.15,16.65-.18,6.24-.37,13.16-.59,20.98,.26,4.48-1.58,23.44-4.4,42.35-1.98,9.37-3.74,18.81-5.59,26.39-2.31,7.47-4.08,13.22-4.79,15.52-.62,1.98-1.55,4.93-2.71,8.61-1.37,3.61-3.28,7.84-5.26,12.58-2.14,4.68-3.94,10.06-6.81,15.23-2.87,5.18-5.86,10.57-8.84,15.97-2.74,5.55-6.89,10.24-10.12,15.18-3.47,4.79-6.47,9.61-10.1,13.3-6.93,7.6-12.06,14.08-15.23,16.72-3.44,2.78-14.21,14.54-31.82,26.32-4.15,3.32-9.13,5.9-14.2,8.8-5.15,2.73-10.24,6.2-15.98,8.57-5.71,2.44-11.56,4.94-17.45,7.45-5.87,2.57-12.18,3.98-18.25,5.99-12.11,4.23-24.63,5.77-35.98,8.1-11.48,1.51-22.12,2.08-31.02,2.67-17.91-.39-28.98-1.76-27.56-4.47Z"/>
      </g>
      <path class="cls-9" d="M748.6,462.58c1.71,8.11,2.62,14.52,3.1,20.5,.54,7.5,.42,14.65-.36,21.03-.88,7.39-2.51,14.18-5.06,20.28l-1.42-.53c1.54-6.62,2.5-13.34,2.87-20.15,.45-6.55,.23-13.46-.24-20.29-.32-5.48-1.07-10.96-1.82-16.44l-.52-3.88c-1.21-8.27-1.77-14.51-2.26-20.49l1.43-.32c1.34,6,2.74,12.25,4.29,20.27Zm13.1-13.33c-3.19,.03-6.2-1.12-8.19-3-1.16-1.03-1.98-2.3-2.55-3.66-.64-1.61-.37-3.37-1.18-5.07-.81-1.7-2.81-2.74-5.16-3.12,0,0,18.96-6.25,21.4,3.31,.47,1.94,.78,3.8,1.25,5.74,.15,1.35,.71,2.71,1.79,3.48,.34,.18,.51,.26,.58,.52-.09,.16-.34,.25-.68,.49-.76,.24-1.44,.31-2.2,.55-1.69,.39-3.3,.62-5.06,.76Zm-5.95-20.72c-.67-.35-1.67-1.29-1.39-2.21,.09-.17,.35-.67,1.26-.4,6.79,1.63,13.88,.66,20.21-.5,1.1-.06,2.17,1.13,2.41,1.9-.01,.42-.27,.92-.78,1.08-6.5,1.06-14.09,2.2-21.55,.22l-.17-.09Zm-19.09,43.1c-2.01,4.68-4.35,8.34-6.93,11.67-3.26,3.81-7.01,6.53-10.83,8.14l-4.99,1.85,4.34-3.04c3.15-2.39,6.07-5.54,8.65-9.28,2.08-3.16,4.25-6.91,6-11.09,1.5-3.68,2.99-7.78,3.91-11.97,.91-3.77,1.64-7.64,2.24-12.84l.59-5.21,.84,5.32c.52,4.3,.52,8.76-.14,13.3-.58,4.36-1.75,8.63-3.68,13.15Zm17.54-51.12c-1.95,.89-2.83,2.98-3.11,5.17,0,0-6.41-19.04,3.31-21.41,1.69-.39,3.64-.86,5.49-1.17,1.43-.31,2.7-.71,3.57-1.96,.17-.33,.43-.41,.6-.33,.25-.08,.33,.17,.49,.68,.16,.51,.23,1.18,.47,1.95,.4,1.69,.61,3.29,.75,5.06-.06,3.37-1.11,6.21-3.09,8.36-.95,.99-2.22,1.81-3.58,2.38-1.61,.65-3.46,.53-4.9,1.26Zm-9.47,2.7c.09-.17,.18-.34,.09-.59,.35-.67,.44-1.26,.29-1.76l-.38-2.11,1.48,1.63c.58,.51,.73,1.44,.81,1.7,.08,.67,.23,1.18,.14,1.77-.11,1.01-.37,1.93-.64,2.85-.71,2.18-1.58,3.85-2.7,5.17l-1.38,1.83,.22-2.44c.28-1.76,.73-3.44,1.18-5.11l.17-.33c.27-.92,.54-1.84,.72-2.59Zm-9.18,5.4c.17-.33,.43-.41,.43-.41,.17,.09,.33,.17,.49,.68,.32,.59,.4,1.27,.47,1.94,.56,1.78,.7,3.55,.67,5.23,.2,3.29-.86,6.13-2.83,8.28-.95,.99-2.22,1.81-3.58,2.38-1.61,.65-3.46,.53-5.07,1.18-1.95,.89-2.82,2.98-3.11,5.17,0,0-6.24-18.96,3.31-21.41,1.86-.3,3.72-.61,5.66-1.08,1.35-.15,2.7-.72,3.57-1.96Zm-1.38-7.93c-3.19,.03-6.29-.95-8.19-3-1.16-1.03-1.98-2.31-2.55-3.66-.48-1.52-.37-3.37-1.18-5.07-.81-1.7-2.81-2.74-5.25-2.95,0,0,19.04-6.41,21.4,3.31,.56,1.78,.86,3.63,1.33,5.58,.15,1.35,.71,2.71,1.79,3.48,.34,.18,.58,.51,.49,.68,0,0-.34,.25-.59,.33-.76,.24-1.53,.48-2.2,.55-1.69,.4-3.38,.79-5.06,.76Zm7.83-24.78c-.86-3.63-1.47-7.77-1.9-12.24-.26-4.38-.45-8.51-.3-12.46,0-4.46,.31-8.32,.88-12.27l.59-4.78,.67,4.81c.77,4.22,1.12,8.44,1.47,12.23l.89,12.13c.19,3.71,.54,7.5,1.14,12.06,.44,4.04,.79,8.26-.13,12.45l-1.17,4.69-.26-4.8c-.28-3.54-.89-6.83-1.59-10.38l-.31-1.44Zm-11.1,29.01c0,.42-.44,.84-1.36,.56-6.7-1.8-13.87-.66-20.21,.5-.42,0-.58-.09-.91-.27-.67-.35-1.24-1.28-1.41-1.79,0-.42,.27-.92,.69-.92,6.58-1.23,14.18-2.36,21.63-.39,.67,.35,1.75,1.55,1.56,2.3Zm-10.19-63.46c2.97,3.25,5.52,6.91,8.14,11.25,2.2,3.91,4.23,8.15,5.85,12.38,.89,2.37,1.77,4.74,2.33,6.52,.15,.51,.32,1.02,.31,1.44,.56,1.77,1.2,3.38,1.25,5.32l.75,5.06-2.02-4.66c-.48-1.52-1.3-2.8-1.86-4.15-.49-.68-.82-1.28-1.15-1.87l-3-6.45c-2.03-3.82-3.99-7.81-6.12-11.47-2.2-3.91-4.58-7.48-7.21-10.98-2.63-3.49-5.78-6.83-8.93-9.75l-3.97-3.77,4.84,2.52c3.75,2.17,7.41,4.92,10.79,8.6Z"/>
      <path class="cls-9" d="M393.57,438.29l1.43,.32c-.49,5.98-1.06,12.22-2.26,20.49l-.52,3.88c-.75,5.48-1.5,10.96-1.82,16.44-.48,6.83-.7,13.73-.24,20.29,.37,6.81,1.32,13.53,2.87,20.15l-1.42,.53c-2.55-6.1-4.18-12.89-5.06-20.28-.78-6.38-.91-13.53-.36-21.03,.49-5.98,1.39-12.4,3.1-20.5,1.55-8.02,2.95-14.27,4.29-20.27Zm-22.45,6.19c-.76-.24-1.44-.31-2.2-.55-.34-.25-.59-.33-.68-.49,.07-.25,.24-.34,.58-.52,1.08-.77,1.65-2.13,1.79-3.48,.47-1.94,.78-3.8,1.25-5.74,2.45-9.55,21.4-3.31,21.4-3.31-2.35,.38-4.35,1.42-5.16,3.12s-.53,3.46-1.18,5.07c-.57,1.36-1.39,2.63-2.55,3.66-1.99,1.89-5,3.03-8.19,3-1.77-.14-3.38-.36-5.06-.76Zm10.85-19.88c-7.45,1.98-15.04,.84-21.55-.22-.5-.16-.77-.66-.78-1.08,.24-.77,1.32-1.96,2.41-1.9,6.33,1.16,13.42,2.13,20.21,.5,.92-.26,1.18,.23,1.26,.4,.27,.92-.73,1.86-1.39,2.21l-.17,.09Zm15.58,29.87c-.66-4.54-.66-9-.14-13.3l.84-5.32,.59,5.21c.6,5.2,1.33,9.06,2.24,12.84,.92,4.19,2.41,8.29,3.91,11.97,1.75,4.18,3.92,7.93,6,11.09,2.59,3.74,5.51,6.89,8.65,9.28l4.34,3.04-4.99-1.85c-3.82-1.62-7.56-4.33-10.83-8.14-2.58-3.32-4.92-6.98-6.93-11.67-1.93-4.51-3.1-8.78-3.68-13.15Zm-18.76-39.24c-1.36-.56-2.63-1.39-3.58-2.38-1.97-2.15-3.03-5-3.09-8.36,.14-1.77,.36-3.37,.75-5.06,.24-.76,.31-1.44,.47-1.95,.16-.51,.25-.76,.49-.68,.17-.09,.42,0,.6,.33,.86,1.25,2.14,1.65,3.57,1.96,1.86,.31,3.8,.78,5.49,1.17,9.72,2.36,3.31,21.41,3.31,21.41-.28-2.18-1.17-4.27-3.11-5.17-1.44-.73-3.29-.61-4.9-1.26Zm15.09,6.56l.17,.33c.45,1.68,.9,3.35,1.18,5.11l.22,2.44-1.38-1.83c-1.12-1.32-1.99-2.99-2.7-5.17-.27-.92-.53-1.84-.64-2.85-.09-.59,.06-1.1,.14-1.77,.08-.26,.23-1.18,.81-1.7l1.48-1.63-.38,2.11c-.16,.51-.06,1.1,.29,1.76-.08,.25,0,.42,.09,.59,.18,.75,.45,1.67,.72,2.59Zm12.03,4.76c1.94,.47,3.8,.77,5.66,1.08,9.54,2.45,3.31,21.41,3.31,21.41-.29-2.18-1.17-4.28-3.11-5.17-1.61-.65-3.46-.53-5.07-1.18-1.36-.56-2.63-1.39-3.58-2.38-1.97-2.15-3.03-5-2.83-8.28-.03-1.68,.1-3.45,.67-5.23,.07-.67,.15-1.35,.47-1.94,.16-.51,.32-.6,.49-.68,0,0,.26,.08,.43,.41,.86,1.25,2.22,1.81,3.57,1.96Zm-7.25-10.65c-.67-.07-1.44-.31-2.2-.55-.25-.08-.59-.33-.59-.33-.09-.17,.16-.51,.49-.68,1.08-.78,1.65-2.14,1.79-3.48,.47-1.94,.78-3.8,1.33-5.58,2.36-9.72,21.4-3.31,21.4-3.31-2.44,.21-4.44,1.25-5.25,2.95-.81,1.7-.7,3.55-1.18,5.07-.56,1.36-1.39,2.63-2.55,3.66-1.9,2.05-5,3.03-8.19,3-1.68,.03-3.38-.36-5.06-.76Zm-3.08-22.58c-.7,3.55-1.31,6.84-1.59,10.38l-.26,4.8-1.17-4.69c-.92-4.19-.56-8.41-.13-12.45,.6-4.56,.95-8.35,1.14-12.06l.89-12.13c.35-3.79,.7-8,1.47-12.23l.67-4.81,.59,4.78c.57,3.95,.89,7.81,.88,12.27,.15,3.95-.04,8.08-.3,12.46-.43,4.47-1.03,8.6-1.9,12.24l-.31,1.44Zm12.98,25.28c7.45-1.98,15.05-.85,21.63,.39,.42,0,.68,.49,.69,.92-.16,.51-.74,1.44-1.41,1.79-.33,.17-.5,.26-.91,.27-6.34-1.16-13.51-2.29-20.21-.5-.92,.27-1.35-.14-1.36-.56-.19-.75,.89-1.95,1.56-2.3Zm19.43-69.76l4.84-2.52-3.97,3.77c-3.15,2.92-6.29,6.26-8.93,9.75-2.63,3.49-5.01,7.07-7.21,10.98-2.13,3.66-4.08,7.65-6.12,11.47l-3,6.45c-.32,.59-.66,1.19-1.15,1.87-.56,1.36-1.39,2.63-1.86,4.15l-2.02,4.66,.75-5.06c.05-1.93,.7-3.55,1.25-5.32,0-.42,.16-.93,.31-1.44,.56-1.78,1.44-4.15,2.33-6.52,1.61-4.23,3.64-8.48,5.85-12.38,2.62-4.34,5.17-8,8.14-11.25,3.39-3.68,7.04-6.43,10.79-8.6Z"/>
    </g>
  </g>
  <g id="Camada_3" data-name="Camada 3">
    <g class="cls-8">
      <path class="cls-1" d="M-16,1059.97c178.29,4.18,395.23,7.63,573.53,9.39l267.44,2.67,241.85,1.53,.04-6.1,.08-9.35,.08-16.72,.13-33.43,.18-66.86,.06-133.72c-.07-89.15-.36-178.3-.73-267.44l-.52-133.72-.1-133.72-.05-66.86,.23-66.86,.53-122.77,.04-2.61-8.17-.11-11.13-.11-32.79-.22-65.57-.45-131.15-.89c-44.58-.26-89.14-.52-133.72-.78-44.58-.13-89.14-.29-133.72-.22-89.15-.16-178.3,.39-267.44,1.27l-133.72,1.51-66.86,.85-33.43,.43-16.72,.22-4.18,.05-1.78,.03-.93,.03-3.68,.11-6.72,.18,.07,6.49,.04,3.18,.02,1.57v3.23s-.1,29.52-.1,29.52l-.2,59.05-.67,133.73-1.35,267.45-1.84,567.9-53.56-33.77c5.17-89.08,9.13-178.18,12.92-267.28l2.71-66.83c.91-22.27,1.83-44.55,2.59-66.83l4.79-133.67,4.15-133.67c.67-22.28,1.35-44.56,2.02-66.84l1.74-66.84,3.48-133.68c.46-19.68,.87-39.36,1.21-59.04l.46-29.52,.45-35.53,19.12-.08,35.95-.28,33.43-.48c22.28-.3,44.58-.63,66.86-1.13l133.72-2.8c44.58-.96,89.14-1.55,133.72-2.06,44.58-.48,89.14-.45,133.72-.43,44.58-.07,89.14,.17,133.72,.36,44.58,.23,89.14,.73,133.72,1.08l131.15,1.15,65.57,.57,75.21,.5-.04,7.01-.29,74.63-.12,66.86c-.02,44.57,.08,89.15,.29,133.72,.43,89.15,1.35,178.3,2.78,267.44l1.71,133.72c.57,44.57,1.18,89.15,1.42,133.72,.43,44.57,.43,89.15,.56,133.72,.05,22.29,.03,44.57-.04,66.86l-.39,75.39-.11,19.03-47.31-.34-31.91-.4-63.82-.95-127.64-2.26-66.86-1.12c-22.29-.4-44.57-.56-66.86-.86-44.57-.64-89.15-.74-133.72-.81-89.15,.14-178.29,.93-267.44,3.72-44.57,1.35-89.15,3.1-133.72,5.43-44.57,2.36-89.15,5.13-133.72,9.21l-38.64-54.05Z"/>
    </g>
    <g class="cls-5">
      <path class="cls-1" d="M-16-41.03c178.29,4.18,395.23,7.63,573.53,9.39l267.44,2.67,241.85,1.53,.04-6.1,.08-9.35,.08-16.72,.13-33.43,.18-66.86,.06-133.72c-.07-89.15-.36-178.3-.73-267.44l-.52-133.72-.1-133.72-.05-66.86,.23-66.86,.53-122.77,.04-2.61-8.17-.11-11.13-.11-32.79-.22-65.57-.45-131.15-.89c-44.58-.26-89.14-.52-133.72-.78-44.58-.13-89.14-.29-133.72-.22-89.15-.16-178.3,.39-267.44,1.27l-133.72,1.51-66.86,.85-33.43,.43-16.72,.22-4.18,.05-1.78,.03-.93,.03-3.68,.11-6.72,.18,.07,6.49,.04,3.18,.02,1.57v3.23s-.1,29.52-.1,29.52l-.2,59.05-.67,133.73-1.35,267.45L11.02-13.6-42.53-47.37c5.17-89.08,9.13-178.18,12.92-267.28l2.71-66.83c.91-22.27,1.83-44.55,2.59-66.83l4.79-133.67,4.15-133.67c.67-22.28,1.35-44.56,2.02-66.84l1.74-66.84,3.48-133.68c.46-19.68,.87-39.36,1.21-59.04l.46-29.52,.45-35.53,19.12-.08,35.95-.28,33.43-.48c22.28-.3,44.58-.63,66.86-1.13l133.72-2.8c44.58-.96,89.14-1.55,133.72-2.06,44.58-.48,89.14-.45,133.72-.43,44.58-.07,89.14,.17,133.72,.36,44.58,.23,89.14,.73,133.72,1.08l131.15,1.15,65.57,.57,75.21,.5-.04,7.01-.29,74.63-.12,66.86c-.02,44.57,.08,89.15,.29,133.72,.43,89.15,1.35,178.3,2.78,267.44l1.71,133.72c.57,44.57,1.18,89.15,1.42,133.72,.43,44.57,.43,89.15,.56,133.72,.05,22.29,.03,44.57-.04,66.86l-.39,75.39-.11,19.03-47.31-.34-31.91-.4-63.82-.95-127.64-2.26-66.86-1.12c-22.29-.4-44.57-.56-66.86-.86-44.57-.64-89.15-.74-133.72-.81-89.15,.14-178.29,.93-267.44,3.72C245.51-.26,200.93,1.48,156.36,3.82,111.79,6.18,67.21,8.95,22.64,13.03L-16-41.03Z"/>
    </g>
  </g>
</svg>