<?xml version="1.0" encoding="UTF-8"?>
<svg xmlns="http://www.w3.org/2000/svg" xmlns:xlink="http://www.w3.org/1999/xlink" viewBox="0 0 1080 1080">
  <defs>
    <style>
      .cls-1 {
        fill: #fff;
      }

      .cls-2 {
        fill: #ff6735;
      }

      .cls-3 {
        clip-path: url(#clippath-2);
      }

      .cls-4 {
        clip-path: url(#clippath-1);
      }

      .cls-5 {
        clip-path: url(#clippath);
      }

      .cls-6 {
        fill: none;
      }

      .cls-7 {
        clip-path: url(#clippath-3);
      }

      .cls-8 {
        fill: #ffd81f;
      }

      .cls-9 {
        fill: #ff5c27;
      }

      .cls-10 {
        fill: #f3f1e5;
      }
    </style>
    <clipPath id="clippath">
      <rect class="cls-6" y="-1101" width="1080" height="1080"/>
    </clipPath>
    <clipPath id="clippath-1">
      <rect class="cls-6" x="1100" y="-1101" width="1080" height="1080"/>
    </clipPath>
    <clipPath id="clippath-2">
      <rect class="cls-6" x="1100" width="1080" height="1080"/>
    </clipPath>
    <clipPath id="clippath-3">
      <rect class="cls-6" width="1080" height="1080"/>
    </clipPath>
  </defs>
  <g id="Camada_1" data-name="Camada 1">
    <rect class="cls-9" x="-.77" y=".34" width="1080.5" height="1080.5"/>
  </g>
  <g id="Camada_2" data-name="Camada 2">
    <path class="cls-8" d="M121.61,448.07c-15.41-5.04-29.3-12.59-43.34-20.7,10.08-2.48,20.16-4.96,30.24-7.44l-.89-2.86c-2.57-10.42-2.68-17.73-5.25-28.15,13.71,8.09,25.55,19.32,34.36,32.57l.92,.43c39.02,6.98,75.78,24.31,107.94,47.47,32.17,23.16,59.9,52.05,84.35,83.25,1.67,2.13,3.39,4.42,3.7,7.11,.31,2.69-.32,5.14-3.02,5.32l-.09,.05c-16.98,5.2-35.12-1.21-51.63-7.73-14.86-5.86-29.7-11.91-43.58-19.8-10.31-5.86-20.03-12.71-29.72-19.54-29.9-21.08-60.09-42.42-84.33-69.81"/>
    <path class="cls-8" d="M221.87,332.64c-13.13-9.52-24.05-20.95-34.93-32.97,10.35,.72,20.71,1.44,31.06,2.17l.02-2.99c.74-10.7,2.87-17.7,3.61-28.4,10.57,11.9,18.42,26.21,22.75,41.52l.74,.69c35.01,18.58,64.71,46.32,88.25,78.21,23.54,31.89,41.11,67.88,54.84,105.06,.94,2.54,1.87,5.24,1.35,7.9-.52,2.66-1.88,4.79-4.51,4.14l-.1,.02c-17.75-.24-33.06-11.89-46.79-23.15-12.35-10.13-24.64-20.42-35.44-32.18-8.02-8.74-15.18-18.23-22.32-27.7-22.02-29.21-44.24-58.76-58.93-92.26"/>
    <path class="cls-8" d="M367.99,266.61c-9.59-13.07-16.49-27.3-23.18-42.07,9.64,3.85,19.28,7.71,28.91,11.56l.94-2.84c3.98-9.96,8.14-15.98,12.12-25.94,6.43,14.56,9.52,30.58,8.97,46.49l.5,.88c27.66,28.39,47.45,63.89,60.11,101.45,12.66,37.56,18.39,77.2,20.1,116.8,.12,2.7,.18,5.56-1.13,7.93-1.31,2.37-3.25,3.99-5.56,2.57h-.1c-16.83-5.67-27.84-21.44-37.47-36.36-8.66-13.42-17.21-26.97-23.9-41.48-4.97-10.77-8.88-21.99-12.78-33.2-12.03-34.54-24.15-69.47-27.9-105.86"/>
    <path class="cls-8" d="M538.58,255.3c-2.37-16.04-1.83-31.84-.85-48.03,6.72,7.91,13.45,15.81,20.17,23.72l2.16-2.08c8.17-6.95,14.66-10.33,22.83-17.28-1.11,15.88-5.86,31.49-13.77,45.3l.03,1.01c11.2,38.02,12.13,78.65,5.79,117.78-6.34,39.13-19.79,76.85-36.76,112.67-1.16,2.45-2.44,5-4.7,6.49-2.27,1.48-4.74,2.01-6.11-.32l-.09-.06c-12.24-12.86-14.62-31.95-16.17-49.64-1.4-15.91-2.63-31.89-1.77-47.84,.64-11.84,2.42-23.59,4.2-35.32,5.49-36.17,11.08-72.71,24.75-106.64"/>
    <path class="cls-8" d="M957.39,484.07c15.41-5.04,29.3-12.59,43.34-20.7-10.08-2.48-20.16-4.96-30.24-7.44l.89-2.86c2.57-10.42,2.68-17.73,5.25-28.15-13.71,8.09-25.55,19.32-34.36,32.57l-.92,.43c-39.02,6.98-75.78,24.31-107.94,47.47-32.17,23.16-59.9,52.05-84.35,83.25-1.67,2.13-3.39,4.42-3.7,7.11-.31,2.69,.32,5.14,3.02,5.32l.09,.05c16.98,5.2,35.12-1.21,51.63-7.73,14.86-5.86,29.7-11.91,43.58-19.8,10.31-5.86,20.03-12.71,29.72-19.54,29.9-21.08,60.09-42.42,84.33-69.81"/>
    <path class="cls-8" d="M857.13,368.64c13.13-9.52,24.05-20.95,34.93-32.97-10.35,.72-20.71,1.44-31.06,2.17l-.02-2.99c-.74-10.7-2.87-17.7-3.61-28.4-10.57,11.9-18.42,26.21-22.75,41.52l-.74,.69c-35.01,18.58-64.71,46.32-88.25,78.21-23.54,31.89-41.11,67.88-54.84,105.06-.94,2.54-1.87,5.24-1.35,7.9,.52,2.66,1.88,4.79,4.51,4.14l.1,.02c17.75-.24,33.06-11.89,46.79-23.15,12.35-10.13,24.64-20.42,35.44-32.18,8.02-8.74,15.18-18.23,22.32-27.7,22.02-29.21,44.24-58.76,58.93-92.26"/>
    <path class="cls-8" d="M711.01,302.61c9.59-13.07,16.49-27.3,23.18-42.07-9.64,3.85-19.28,7.71-28.91,11.56l-.94-2.84c-3.98-9.96-8.14-15.98-12.12-25.94-6.43,14.56-9.52,30.58-8.97,46.49l-.5,.88c-27.66,28.39-47.45,63.89-60.11,101.45-12.66,37.56-18.39,77.2-20.1,116.8-.12,2.7-.18,5.56,1.13,7.93,1.31,2.37,3.25,3.99,5.56,2.57h.1c16.83-5.67,27.84-21.44,37.47-36.36,8.66-13.42,17.21-26.97,23.9-41.48,4.97-10.77,8.88-21.99,12.78-33.2,12.03-34.54,24.15-69.47,27.9-105.86"/>
    <g>
      <path class="cls-10" d="M186.86,540.7c44.36-71.47,75.33-98.99,142.47-133.29,67.15-34.3,144.72-45.76,219.8-38.89,136.8,12.51,268.43,88.79,339.27,206.48,11.14,18.51,20.99,41.21,12.45,61.06-9.1,21.16-34.66,29.1-57.38,32.86-50.59,8.38-102.15,8.28-153.42,8.17-99.81-.23-199.63-.46-299.44-.69-56.86-.13-114.19-.31-169.84-11.96-28.72-6.01-61.85-20.7-65.43-49.82-3.31-26.91,14.27-49.26,31.53-73.91Z"/>
      <path class="cls-2" d="M160.02,565.84c-2.53,4.43-4.33,7.83-6.12,11.32-.89,1.75-1.68,3.61-2.59,5.61-.39,1.05-.8,2.14-1.24,3.3-.21,.58-.43,1.19-.65,1.81-.18,.64-.37,1.31-.57,2-1.41,4.5-2.25,10.29-2.36,16.01,.01,1.43-.01,2.86,.05,4.26,.13,1.4,.26,2.78,.39,4.12,.09,1.32,.37,2.69,.58,3.97,.23,1.29,.56,2.5,.82,3.66,1.17,4.46,3.04,8.72,5.39,12.57,2.35,3.86,5.18,7.32,8.28,10.38,6.21,6.12,13.33,10.69,20.66,14.47,10.34,5.3,21.17,8.85,32.12,11.44,1.37,.33,2.74,.62,4.12,.92l4.04,.79c2.69,.51,5.38,1.07,8.07,1.54l8.1,1.38c2.7,.46,5.41,.82,8.11,1.23,10.82,1.56,21.67,2.83,32.53,3.74,10.86,.94,21.72,1.67,32.57,2.13,14.3,.65,28.58,1.03,42.83,1.24,1.08,.02,2.42,.05,3.36,.06,.42,0,.71,0,1.11,0,19.61,.24,39.13,.28,58.66,.25,11-.02,38.12-.07,40.59,.04,4.08,.2,28.49-.28,32.66-.29,3.22-.04,34.77-.45,42.97-.56,9.43,.04,18.9,.22,28.28,.43,17.11,.37,51.09,.81,68.82,.31,0,.01,0,.02-.01,.03,6.98-.01,13.98-.02,20.96-.03,.93,.02,1.69,.04,2.87,.07,4.52,.1,9.74,.01,15.05-.1,14.79,.01,29.58-.08,44.42-.22,14.83-.15,29.7-.39,44.58-1,29.77-1.21,59.56-3.81,89.09-9.47,10.42-2.14,20.81-5.05,30.67-9.93,4.92-2.45,9.69-5.44,13.99-9.2,4.29-3.75,8.06-8.33,10.79-13.56,2.44-4.6,4.07-9.69,4.68-14.85,.64-5.16,.42-10.33-.36-15.31-1.58-10-5.35-19.18-9.69-27.78-2.18-4.3-4.58-8.49-7.08-12.5l-3.74-6.02-1.87-3.01-1.97-2.95c-2.63-3.92-5.2-7.9-8-11.7l-4.12-5.76c-1.38-1.92-2.85-3.76-4.28-5.65-1.36-1.76-2.66-3.45-3.93-5.1-1.3-1.62-2.61-3.15-3.88-4.69-2.56-3.06-5.03-6.06-7.78-9.07-2.72-3.04-5.49-6.28-8.74-9.72-1.6-1.75-3.28-3.58-5.06-5.52-1.79-1.93-3.75-3.92-5.79-6.09-1.81-1.86-3.99-4.17-6.49-6.56-2.48-2.4-5.1-5.07-7.84-7.61-2.75-2.53-5.49-5.05-8.02-7.37-2.59-2.26-4.98-4.28-6.94-5.92-3.59-3.08-6.91-5.56-9.93-7.95-1.52-1.17-2.96-2.34-4.43-3.41-1.46-1.07-2.9-2.12-4.33-3.17-2.87-2.1-5.72-4.22-8.91-6.37-3.18-2.16-6.53-4.6-10.52-7.14l-6.6-4.31c-2.21-1.43-4.47-2.77-6.7-4.15-2.25-1.36-4.45-2.79-6.74-4.09l-6.83-3.94c-1.14-.65-2.27-1.32-3.42-1.96l-3.47-1.88-6.93-3.75c-4.67-2.41-9.36-4.79-14.11-7.04-18.99-9.01-38.56-16.8-58.53-23.29-10.53-3.28-21.12-6.65-31.79-9.37-17.41-4.55-32.71-7.67-49.81-9.53-3.93-.4-7.71-.85-11.48-1.1-1.88-.15-3.75-.31-5.63-.46-1.87-.16-3.75-.33-5.64-.42-3.78-.22-7.62-.47-11.61-.75-3.99-.19-8.13-.39-12.51-.6-1.76-.12-3.53-.15-5.29-.18l-5.29-.1-5.29-.08c-1.76,0-3.53,.05-5.29,.08-3.53,.08-7.05,.11-10.57,.25l-10.57,.59-2.64,.15-2.64,.23-5.28,.48c-3.52,.31-7.04,.61-10.55,1.1-3.51,.44-7.03,.88-10.55,1.32-3.51,.55-7.02,1.09-10.53,1.64-22.29,3.55-43.04,8.83-63.25,15.63l-7.57,2.6c-2.52,.88-4.99,1.9-7.49,2.85-2.49,.97-5.01,1.91-7.5,2.92-2.47,1.07-4.94,2.13-7.43,3.21-5.01,2.06-9.87,4.51-14.85,6.88-1.24,.6-2.5,1.18-3.72,1.81-1.22,.63-2.45,1.26-3.68,1.9-2.46,1.27-4.94,2.54-7.43,3.83-11.51,6.11-23.21,12.39-33.87,19.53-13.3,8.96-25.42,18.31-36.8,28.88-11.42,10.53-21.89,22.42-32.19,35.99-4.22,5.58-10.97,15.41-16.43,24.54-1.37,2.28-2.7,4.49-3.94,6.56-1.14,2.13-2.19,4.1-3.12,5.84-1.84,3.48-3.12,6.05-3.44,7.06-.75,2.33,1.73-.29,1.11,1.82-.72,2.42,2.15-.43,6.6-5.71,1.11-1.32,2.32-2.8,3.58-4.39l.48-.6c.1-.09,.13-.22,.28-.28l.24-.31c.32-.41,.65-.83,.98-1.25,.66-.84,1.33-1.71,2.02-2.59,2.71-3.54,5.49-7.39,8.22-11.13l4.24-5.96c1.44-1.97,2.93-3.89,4.38-5.84,1.48-1.93,2.89-3.92,4.42-5.8l4.57-5.67,2.29-2.83,2.39-2.74,4.78-5.48c1.64-1.78,3.32-3.53,4.99-5.27,1.65-1.77,3.3-3.55,5.06-5.2l5.44-5.27c1.86-1.71,3.78-3.35,5.66-5.03l2.84-2.5,2.95-2.38c1.98-1.58,3.93-3.18,5.92-4.73l6.11-4.49c1.03-.74,2.02-1.52,3.07-2.23l3.14-2.13c2.1-1.41,4.17-2.86,6.28-4.24,2.14-1.35,4.28-2.71,6.41-4.06,3.36-2.21,6.87-4.2,10.29-6.33,3.41-2.14,6.95-4.1,10.42-6.13,3.46-2.05,7.01-3.95,10.53-5.85,1.77-.94,3.53-1.88,5.29-2.82,1.78-.86,3.56-1.72,5.34-2.57,15.14-7.22,30.09-13.73,47.32-18.88,6.24-1.72,12.52-3.68,18.98-5.22,6.41-1.75,12.97-3.13,19.54-4.62,13.2-2.68,26.62-4.99,39.99-6.25,58.95-5.95,120.11,.56,176.63,18.56,17.97,5.72,35.77,12.41,53.04,20.08,4.35,1.84,8.57,3.96,12.84,5.94,2.14,.98,4.23,2.06,6.32,3.12,2.08,1.08,4.19,2.1,6.28,3.15,4.16,2.14,8.25,4.39,12.36,6.57,4.03,2.32,8.06,4.59,12.02,6.95,43.93,26.33,83.36,60.34,115.02,100.58l5.87,7.59,5.63,7.77c1.91,2.57,3.67,5.24,5.46,7.89,1.77,2.66,3.62,5.27,5.28,8.01l5.1,8.13c1.62,2.71,3.21,5.44,4.67,8.21,2.94,5.53,5.52,11.19,7.42,16.98,1.85,5.78,3,11.7,2.99,17.49-.03,5.78-1.4,11.38-4.03,16.39-2.58,5.04-6.59,9.3-11.32,12.79-4.74,3.5-10.21,6.24-15.98,8.36-5.75,2.12-11.8,3.68-17.94,4.92-6.12,1.23-12.5,2.11-18.83,2.98-12.68,1.68-25.44,2.86-38.23,3.68-17.36,1.08-32.62,1.65-47.83,1.86-15.2,.21-30.33,.06-47.48-.54-1.64-.04-3.48-.09-5.19-.14,0,0,0,0,0-.01h-.86c-16.25-.45-34.87-.42-51.18-.33-33.38-.19-66.78-.41-99.98-.8-38.17-.46-76.93,.13-114.24,.16l-52.91-.03c-17.62-.04-35.19-.23-52.7-.86-17.52-.61-34.98-1.71-52.32-3.59-8.68-.9-17.3-2.1-25.9-3.42l-6.43-1.09-3.22-.55-3.2-.62-6.4-1.24c-2.12-.42-4.16-.88-6.23-1.38-9.09-2.33-17.96-5.53-26-9.81-8.03-4.25-15.22-9.71-20.16-16.23-1.23-1.63-2.3-3.32-3.25-5.05-.88-1.76-1.7-3.52-2.26-5.37-.57-1.84-1.03-3.7-1.25-5.61-.05-.49-.16-.93-.17-1.45l-.08-1.53-.09-1.52c-.04-.51-.07-1.01-.02-1.52l.1-3.04c.04-1.01,.24-2.02,.34-3.03l.18-1.51,.31-1.51c.23-1,.36-2.01,.65-3.01,1-4,2.53-7.96,4.23-11.89,1.91-4.17,4.12-8.43,6.32-12.54,2.29-4.18,4.48-8.16,6.41-11.67,.25-.47,.49-.92,.73-1.36,.2-.46,.39-.89,.57-1.31,.39-.83,.74-1.59,1.06-2.28,.66-1.38,1.22-2.5,1.71-3.47,.99-1.94,1.64-3.25,2.21-4.75,.34-.89,.58-1.66,.73-2.33,.04-.17,.07-.33,.1-.48v-.06s.02-.03,.02-.03h0s0-.02,0-.02h0s-.19-.14-.1-.07h0s.02-.11,.02-.11c.01-.07,.03-.14,.04-.21,.05-.27,.08-.52,.08-.74,.02-.89-.33-1.41-.98-1.57-1.75-.43-5.72,1.69-11.25,5.48-1.37,.96-2.83,2.03-4.36,3.22-.38,.3-.76,.61-1.15,.92-.37,.33-.71,.68-1.07,1.04-.72,.71-1.43,1.45-2.15,2.23-2.83,3.16-5.69,6.86-8.16,11.26Z"/>
    </g>
  </g>
  <g id="Camada_3" data-name="Camada 3">
    <g class="cls-5">
      <path class="cls-1" d="M-16-41.03c178.29,4.18,395.23,7.63,573.53,9.39l267.44,2.67,241.85,1.53,.04-6.1,.08-9.35,.08-16.72,.13-33.43,.18-66.86,.06-133.72c-.07-89.15-.36-178.3-.73-267.44l-.52-133.72-.1-133.72-.05-66.86,.23-66.86,.53-122.77,.04-2.61-8.17-.11-11.13-.11-32.79-.22-65.57-.45-131.15-.89c-44.58-.26-89.14-.52-133.72-.78-44.58-.13-89.14-.29-133.72-.22-89.15-.16-178.3,.39-267.44,1.27l-133.72,1.51-66.86,.85-33.43,.43-16.72,.22-4.18,.05-1.78,.03-.93,.03-3.68,.11-6.72,.18,.07,6.49,.04,3.18,.02,1.57v3.23s-.1,29.52-.1,29.52l-.2,59.05-.67,133.73-1.35,267.45L11.02-13.6-42.53-47.37c5.17-89.08,9.13-178.18,12.92-267.28l2.71-66.83c.91-22.27,1.83-44.55,2.59-66.83l4.79-133.67,4.15-133.67c.67-22.28,1.35-44.56,2.02-66.84l1.74-66.84,3.48-133.68c.46-19.68,.87-39.36,1.21-59.04l.46-29.52,.45-35.53,19.12-.08,35.95-.28,33.43-.48c22.28-.3,44.58-.63,66.86-1.13l133.72-2.8c44.58-.96,89.14-1.55,133.72-2.06,44.58-.48,89.14-.45,133.72-.43,44.58-.07,89.14,.17,133.72,.36,44.58,.23,89.14,.73,133.72,1.08l131.15,1.15,65.57,.57,75.21,.5-.04,7.01-.29,74.63-.12,66.86c-.02,44.57,.08,89.15,.29,133.72,.43,89.15,1.35,178.3,2.78,267.44l1.71,133.72c.57,44.57,1.18,89.15,1.42,133.72,.43,44.57,.43,89.15,.56,133.72,.05,22.29,.03,44.57-.04,66.86l-.39,75.39-.11,19.03-47.31-.34-31.91-.4-63.82-.95-127.64-2.26-66.86-1.12c-22.29-.4-44.57-.56-66.86-.86-44.57-.64-89.15-.74-133.72-.81-89.15,.14-178.29,.93-267.44,3.72C245.51-.26,200.93,1.48,156.36,3.82,111.79,6.18,67.21,8.95,22.64,13.03L-16-41.03Z"/>
    </g>
    <g class="cls-4">
      <path class="cls-1" d="M1084-41.03c178.29,4.18,395.23,7.63,573.53,9.39l267.44,2.67,241.85,1.53,.04-6.1,.08-9.35,.08-16.72,.13-33.43,.18-66.86,.06-133.72c-.07-89.15-.36-178.3-.73-267.44l-.52-133.72-.1-133.72-.05-66.86,.23-66.86,.53-122.77,.04-2.61-8.17-.11-11.13-.11-32.79-.22-65.57-.45-131.15-.89c-44.58-.26-89.14-.52-133.72-.78-44.58-.13-89.14-.29-133.72-.22-89.15-.16-178.3,.39-267.44,1.27l-133.72,1.51-66.86,.85-33.43,.43-16.72,.22-4.18,.05-1.78,.03-.93,.03-3.68,.11-6.72,.18,.07,6.49,.04,3.18,.02,1.57v3.23s-.1,29.52-.1,29.52l-.2,59.05-.67,133.73-1.35,267.45-1.84,567.9-53.56-33.77c5.17-89.08,9.13-178.18,12.92-267.28l2.71-66.83c.91-22.27,1.83-44.55,2.59-66.83l4.79-133.67,4.15-133.67c.67-22.28,1.35-44.56,2.02-66.84l1.74-66.84,3.48-133.68c.46-19.68,.87-39.36,1.21-59.04l.46-29.52,.45-35.53,19.12-.08,35.95-.28,33.43-.48c22.28-.3,44.58-.63,66.86-1.13l133.72-2.8c44.58-.96,89.14-1.55,133.72-2.06,44.58-.48,89.14-.45,133.72-.43,44.58-.07,89.14,.17,133.72,.36,44.58,.23,89.14,.73,133.72,1.08l131.15,1.15,65.57,.57,75.21,.5-.04,7.01-.29,74.63-.12,66.86c-.02,44.57,.08,89.15,.29,133.72,.43,89.15,1.35,178.3,2.78,267.44l1.71,133.72c.57,44.57,1.18,89.15,1.42,133.72,.43,44.57,.43,89.15,.56,133.72,.05,22.29,.03,44.57-.04,66.86l-.39,75.39-.11,19.03-47.31-.34-31.91-.4-63.82-.95-127.64-2.26-66.86-1.12c-22.29-.4-44.57-.56-66.86-.86-44.57-.64-89.15-.74-133.72-.81-89.15,.14-178.29,.93-267.44,3.72-44.57,1.35-89.15,3.1-133.72,5.43-44.57,2.36-89.15,5.13-133.72,9.21l-38.64-54.05Z"/>
    </g>
    <g class="cls-3">
      <path class="cls-1" d="M1084,1059.97c178.29,4.18,395.23,7.63,573.53,9.39l267.44,2.67,241.85,1.53,.04-6.1,.08-9.35,.08-16.72,.13-33.43,.18-66.86,.06-133.72c-.07-89.15-.36-178.3-.73-267.44l-.52-133.72-.1-133.72-.05-66.86,.23-66.86,.53-122.77,.04-2.61-8.17-.11-11.13-.11-32.79-.22-65.57-.45-131.15-.89c-44.58-.26-89.14-.52-133.72-.78-44.58-.13-89.14-.29-133.72-.22-89.15-.16-178.3,.39-267.44,1.27l-133.72,1.51-66.86,.85-33.43,.43-16.72,.22-4.18,.05-1.78,.03-.93,.03-3.68,.11-6.72,.18,.07,6.49,.04,3.18,.02,1.57v3.23s-.1,29.52-.1,29.52l-.2,59.05-.67,133.73-1.35,267.45-1.84,567.9-53.56-33.77c5.17-89.08,9.13-178.18,12.92-267.28l2.71-66.83c.91-22.27,1.83-44.55,2.59-66.83l4.79-133.67,4.15-133.67c.67-22.28,1.35-44.56,2.02-66.84l1.74-66.84,3.48-133.68c.46-19.68,.87-39.36,1.21-59.04l.46-29.52,.45-35.53,19.12-.08,35.95-.28,33.43-.48c22.28-.3,44.58-.63,66.86-1.13l133.72-2.8c44.58-.96,89.14-1.55,133.72-2.06,44.58-.48,89.14-.45,133.72-.43,44.58-.07,89.14,.17,133.72,.36,44.58,.23,89.14,.73,133.72,1.08l131.15,1.15,65.57,.57,75.21,.5-.04,7.01-.29,74.63-.12,66.86c-.02,44.57,.08,89.15,.29,133.72,.43,89.15,1.35,178.3,2.78,267.44l1.71,133.72c.57,44.57,1.18,89.15,1.42,133.72,.43,44.57,.43,89.15,.56,133.72,.05,22.29,.03,44.57-.04,66.86l-.39,75.39-.11,19.03-47.31-.34-31.91-.4-63.82-.95-127.64-2.26-66.86-1.12c-22.29-.4-44.57-.56-66.86-.86-44.57-.64-89.15-.74-133.72-.81-89.15,.14-178.29,.93-267.44,3.72-44.57,1.35-89.15,3.1-133.72,5.43-44.57,2.36-89.15,5.13-133.72,9.21l-38.64-54.05Z"/>
    </g>
    <g class="cls-7">
      <path class="cls-1" d="M-16,1059.97c178.29,4.18,395.23,7.63,573.53,9.39l267.44,2.67,241.85,1.53,.04-6.1,.08-9.35,.08-16.72,.13-33.43,.18-66.86,.06-133.72c-.07-89.15-.36-178.3-.73-267.44l-.52-133.72-.1-133.72-.05-66.86,.23-66.86,.53-122.77,.04-2.61-8.17-.11-11.13-.11-32.79-.22-65.57-.45-131.15-.89c-44.58-.26-89.14-.52-133.72-.78-44.58-.13-89.14-.29-133.72-.22-89.15-.16-178.3,.39-267.44,1.27l-133.72,1.51-66.86,.85-33.43,.43-16.72,.22-4.18,.05-1.78,.03-.93,.03-3.68,.11-6.72,.18,.07,6.49,.04,3.18,.02,1.57v3.23s-.1,29.52-.1,29.52l-.2,59.05-.67,133.73-1.35,267.45-1.84,567.9-53.56-33.77c5.17-89.08,9.13-178.18,12.92-267.28l2.71-66.83c.91-22.27,1.83-44.55,2.59-66.83l4.79-133.67,4.15-133.67c.67-22.28,1.35-44.56,2.02-66.84l1.74-66.84,3.48-133.68c.46-19.68,.87-39.36,1.21-59.04l.46-29.52,.45-35.53,19.12-.08,35.95-.28,33.43-.48c22.28-.3,44.58-.63,66.86-1.13l133.72-2.8c44.58-.96,89.14-1.55,133.72-2.06,44.58-.48,89.14-.45,133.72-.43,44.58-.07,89.14,.17,133.72,.36,44.58,.23,89.14,.73,133.72,1.08l131.15,1.15,65.57,.57,75.21,.5-.04,7.01-.29,74.63-.12,66.86c-.02,44.57,.08,89.15,.29,133.72,.43,89.15,1.35,178.3,2.78,267.44l1.71,133.72c.57,44.57,1.18,89.15,1.42,133.72,.43,44.57,.43,89.15,.56,133.72,.05,22.29,.03,44.57-.04,66.86l-.39,75.39-.11,19.03-47.31-.34-31.91-.4-63.82-.95-127.64-2.26-66.86-1.12c-22.29-.4-44.57-.56-66.86-.86-44.57-.64-89.15-.74-133.72-.81-89.15,.14-178.29,.93-267.44,3.72-44.57,1.35-89.15,3.1-133.72,5.43-44.57,2.36-89.15,5.13-133.72,9.21l-38.64-54.05Z"/>
    </g>
  </g>
</svg>