<?xml version="1.0" encoding="UTF-8"?>
<svg id="Camada_2" data-name="Camada 2" xmlns="http://www.w3.org/2000/svg" viewBox="0 0 1038.84 22.87">
  <defs>
    <style>
      .cls-1 {
        fill: #fd5c26;
      }

      .cls-2 {
        fill: #ffda1f;
      }
    </style>
  </defs>
  <g id="Camada_7" data-name="Camada 7">
    <g>
      <path class="cls-1" d="M10.1,3.95c.11,.14,.18,.25,.21,.34v.93l-.14,4.67c.44-.09,1.17-.5,2.2-1.24,1.08-.73,1.81-1.11,2.2-1.13,.3,.44,.45,.72,.45,.86,0,.12-.46,.49-1.37,1.13-.98,.67-1.58,1.13-1.79,1.41l4.47,.31c.16,0,.26,.07,.31,.21,.07,.16,.1,.55,.1,1.17,0,.73-.06,1.2-.19,1.39-.13,.2-.43,.29-.91,.29-.25,0-.87-.05-1.86-.14l-1.92,.07c.27,.34,.77,.86,1.48,1.55,.66,.67,1,1.05,1,1.17,0,.21-.13,.43-.4,.67-.26,.24-.5,.36-.7,.36-.09,0-.78-.54-2.06-1.62-.16-.16-.45-.39-.86-.69-.05,.14-.07,.37-.07,.69l.27,2.82c0,.23,0,.41-.02,.55-.01,.14-.13,.25-.36,.33-.23,.08-.41,.14-.55,.19-.82,.3-1.72,.47-2.68,.52-.18-.3-.3-.94-.34-1.92l-.07-2.92c0-.14-.06-.46-.17-.96-.18,.11-.56,.49-1.12,1.12-.56,.63-1.07,1.22-1.53,1.77-.66,.73-1.03,1.1-1.1,1.1-.34,0-.52-.37-.52-1.1,0-.37,.02-.62,.07-.76l2.85-3.33c-.46-.14-1.12-.25-1.99-.34l-2.51-.24c-.16-.05-.32-.15-.48-.31,0-.21,.15-.82,.45-1.86,.02-.16,.11-.5,.27-1.03,.11-.18,.42-.31,.93-.38l2.65,.38h.69l-.45-.55c-.21-.28-.69-.9-1.46-1.87-.77-.97-1.15-1.55-1.15-1.73,0-.21,.47-.4,1.41-.58,.3,0,.48,.05,.55,.14,.3,.5,.72,1.13,1.27,1.87s.99,1.28,1.31,1.6c.05-.28,.07-.52,.07-.72l-.07-.96-.07-1c0-.57,.09-.99,.27-1.25,.18-.26,.54-.44,1.07-.53,1.26-.28,2.05-.41,2.37-.41Z"/>
      <path class="cls-2" d="M144.38,2.47c-3.09,4-.27,13.47-4.29,16.25-1.39-2.74-1.19-5.85-1.22-8.82-.09-1.81-.47-3.61-.64-5.39C136.72,0,132.26,.19,129.75,2.69c-1.48,1.42-2.55,3.32-3.01,5.31-.78,2.06,.25,10.93-2.2,11-2.06,1.06-1.66-9.03-3.13-14.89-.97-3.87-5.77-5.3-8.65-2.53-.27,.26-.52,.56-.74,.88-3.09,4-.27,13.47-4.29,16.25-1.39-2.74-1.19-5.85-1.22-8.82-.09-1.81-.47-3.61-.64-5.39-1.32-3.23-5.97-4.32-8.48-1.82-1.48,1.42-2.55,3.32-3.01,5.31-.78,2.06,.25,10.93-2.2,11-2.56-3.04-1.31-9.89-3.49-13.77-1.57-3.86-7.38-6.01-9.85-1.84-1.8,3.45-1.23,7.88-2.43,11.54-.43,1.32-1.1,2.55-2.18,3.59-1.52-3.96-.73-8.41-2.17-12.39-1.5-4.87-7.78-5.98-9.7-.8-1.44,3.5-.44,10.04-3.92,12.07-.82-3.49-.47-7.27-2.1-10.55-1.69-4.16-7.92-6.54-10.74-2.2-2.36,3.34-1.68,11.44-4.68,13.69-1.79-4.48,.6-9.57-1.25-14.05-.76-2.55-3.34-3.53-5.81-3.18-2.41,.05-4.48,1.85-5.07,4.15-.92,3.61-1.51,7.35-1.41,11.08,.21,1.87-.33,4.39,1.44,5.63,1.09,.78,3.24,.75,3.56-.82,0-3.77-.54-7.57,.21-11.32,.39-2.14,.42-5.55,3.47-5.14,2.64,4.3-1.07,10.95,1.71,15.53,1.94,3.29,7.03,2.92,9.13-.02,2.78-3.83,1-10.81,3.45-14.08,.94,1.34,1.05,3.02,1.24,4.6,.44,3.17,.3,6.89,2.62,9.37,2.36,2.44,6.52,1.94,8.12-1.1,2.26-3.15,.98-12.45,4.62-13.76,1.19,2.06,.58,5.7,.88,8.1,.17,4.33,1.79,9.87,7.12,9.48,.55-.1,1.03-.25,1.47-.46,3.86-1.85,3.38-7.79,3.7-11.59,.17-1.87,.31-3.8,1.13-5.52,.92-1.66,2.14-1.4,2.57,.4,1.26,6.06,.01,16,8.17,17.2,5.68,.47,6.92-5.05,7.14-9.58,.19-2.84,.59-6.11,2.96-8.01,.93,.6,.84,1.85,1.17,2.81,.72,3.25,.17,6.64,1.17,9.85,.7,4.25,5.22,5.22,8.25,2.59,4.61-4.07,1.7-13.25,4.26-16.23,.22,.03,.39,.13,.44,.33,1.26,6.06-1.21,17.04,6.95,18.24,5.68,.47,6.92-5.05,7.14-9.58,.12-1.83,.33-3.83,1.1-5.53,.61-1.35,2.57-1.21,2.99,.21,.01,.04,.03,.08,.04,.13,.72,3.25,.17,6.64,1.17,9.85,.7,4.25,5.22,5.22,8.25,2.59,4.92-4.35,1.27-14.52,4.86-16.75,.74,3.88-.04,7.89,.68,11.78,.42,2.1,1.16,4.41,2.99,5.71,3.87,2.31,6.8-.6,7.43-4.46,.35-3.99,.03-8.06,.01-12.07-.02-1.36-2.65-1.92-2.77-.36,.1,2.2,.08,4.4,.08,6.61,.15,2.36-.62,4.68-2.08,6.54-1.38-4.59-.17-9.64-1.88-14.17-1.57-4.12-7.66-4.41-10-.86ZM29.78,18.14c.77,.3,.68,1.27,.71,1.94,.09,1.43-1.57,1.53-1.66,.11-.06-.73-.17-2.24,.95-2.04Z"/>
      <path class="cls-1" d="M180.68,3.95c.11,.14,.18,.25,.21,.34v.93l-.14,4.67c.44-.09,1.17-.5,2.2-1.24,1.08-.73,1.81-1.11,2.2-1.13,.3,.44,.45,.72,.45,.86,0,.12-.46,.49-1.37,1.13-.98,.67-1.58,1.13-1.79,1.41l4.47,.31c.16,0,.26,.07,.31,.21,.07,.16,.1,.55,.1,1.17,0,.73-.06,1.2-.19,1.39-.13,.2-.43,.29-.91,.29-.25,0-.87-.05-1.86-.14l-1.92,.07c.27,.34,.77,.86,1.48,1.55,.66,.67,1,1.05,1,1.17,0,.21-.13,.43-.4,.67-.26,.24-.5,.36-.7,.36-.09,0-.78-.54-2.06-1.62-.16-.16-.45-.39-.86-.69-.05,.14-.07,.37-.07,.69l.27,2.82c0,.23,0,.41-.02,.55-.01,.14-.13,.25-.36,.33-.23,.08-.41,.14-.55,.19-.82,.3-1.72,.47-2.68,.52-.18-.3-.3-.94-.34-1.92l-.07-2.92c0-.14-.06-.46-.17-.96-.18,.11-.56,.49-1.12,1.12-.56,.63-1.07,1.22-1.53,1.77-.66,.73-1.03,1.1-1.1,1.1-.34,0-.52-.37-.52-1.1,0-.37,.02-.62,.07-.76l2.85-3.33c-.46-.14-1.12-.25-1.99-.34l-2.51-.24c-.16-.05-.32-.15-.48-.31,0-.21,.15-.82,.45-1.86,.02-.16,.11-.5,.27-1.03,.11-.18,.42-.31,.93-.38l2.65,.38h.69l-.45-.55c-.21-.28-.69-.9-1.46-1.87-.77-.97-1.15-1.55-1.15-1.73,0-.21,.47-.4,1.41-.58,.3,0,.48,.05,.55,.14,.3,.5,.72,1.13,1.27,1.87s.99,1.28,1.31,1.6c.05-.28,.07-.52,.07-.72l-.07-.96-.07-1c0-.57,.09-.99,.27-1.25,.18-.26,.54-.44,1.07-.53,1.26-.28,2.05-.41,2.37-.41Z"/>
      <path class="cls-2" d="M314.34,2.47c-3.09,4-.27,13.47-4.29,16.25-1.39-2.74-1.19-5.85-1.22-8.82-.09-1.81-.47-3.61-.64-5.39C306.68,0,302.22,.19,299.71,2.69c-1.48,1.42-2.55,3.32-3.01,5.31-.78,2.06,.25,10.93-2.2,11-2.06,1.06-1.66-9.03-3.13-14.89-.97-3.87-5.77-5.3-8.65-2.53-.27,.26-.52,.56-.74,.88-3.09,4-.27,13.47-4.29,16.25-1.39-2.74-1.19-5.85-1.22-8.82-.09-1.81-.47-3.61-.64-5.39-1.32-3.23-5.97-4.32-8.48-1.82-1.48,1.42-2.55,3.32-3.01,5.31-.78,2.06,.25,10.93-2.2,11-2.56-3.04-1.31-9.89-3.49-13.77-1.57-3.86-7.38-6.01-9.85-1.84-1.8,3.45-1.23,7.88-2.43,11.54-.43,1.32-1.1,2.55-2.18,3.59-1.52-3.96-.73-8.41-2.17-12.39-1.5-4.87-7.78-5.98-9.7-.8-1.44,3.5-.44,10.04-3.92,12.07-.82-3.49-.47-7.27-2.1-10.55-1.69-4.16-7.92-6.54-10.74-2.2-2.36,3.34-1.68,11.44-4.68,13.69-1.79-4.48,.6-9.57-1.25-14.05-.76-2.55-3.34-3.53-5.81-3.18-2.41,.05-4.48,1.85-5.07,4.15-.92,3.61-1.51,7.35-1.41,11.08,.21,1.87-.33,4.39,1.44,5.63,1.09,.78,3.24,.75,3.56-.82,0-3.77-.54-7.57,.21-11.32,.39-2.14,.42-5.55,3.47-5.14,2.64,4.3-1.07,10.95,1.71,15.53,1.94,3.29,7.03,2.92,9.13-.02,2.78-3.83,1-10.81,3.45-14.08,.94,1.34,1.05,3.02,1.24,4.6,.44,3.17,.3,6.89,2.62,9.37,2.36,2.44,6.52,1.94,8.12-1.1,2.26-3.15,.98-12.45,4.62-13.76,1.19,2.06,.58,5.7,.88,8.1,.17,4.33,1.79,9.87,7.12,9.48,.55-.1,1.03-.25,1.47-.46,3.86-1.85,3.38-7.79,3.7-11.59,.17-1.87,.31-3.8,1.13-5.52,.92-1.66,2.14-1.4,2.57,.4,1.26,6.06,.01,16,8.17,17.2,5.68,.47,6.92-5.05,7.14-9.58,.19-2.84,.59-6.11,2.96-8.01,.93,.6,.84,1.85,1.17,2.81,.72,3.25,.17,6.64,1.17,9.85,.7,4.25,5.22,5.22,8.25,2.59,4.61-4.07,1.7-13.25,4.26-16.23,.22,.03,.39,.13,.44,.33,1.26,6.06-1.21,17.04,6.95,18.24,5.68,.47,6.92-5.05,7.14-9.58,.12-1.83,.33-3.83,1.1-5.53,.61-1.35,2.57-1.21,2.99,.21,.01,.04,.03,.08,.04,.13,.72,3.25,.17,6.64,1.17,9.85,.7,4.25,5.22,5.22,8.25,2.59,4.92-4.35,1.27-14.52,4.86-16.75,.74,3.88-.04,7.89,.68,11.78,.42,2.1,1.16,4.41,2.99,5.71,3.87,2.31,6.8-.6,7.43-4.46,.35-3.99,.03-8.06,.01-12.07-.02-1.36-2.65-1.92-2.77-.36,.1,2.2,.08,4.4,.08,6.61,.15,2.36-.62,4.68-2.08,6.54-1.38-4.59-.17-9.64-1.88-14.17-1.57-4.12-7.66-4.41-10-.86Zm-114.6,15.67c.77,.3,.68,1.27,.71,1.94,.09,1.43-1.57,1.53-1.66,.11-.06-.73-.17-2.24,.95-2.04Z"/>
      <path class="cls-1" d="M353.11,3.95c.11,.14,.18,.25,.21,.34v.93l-.14,4.67c.44-.09,1.17-.5,2.2-1.24,1.08-.73,1.81-1.11,2.2-1.13,.3,.44,.45,.72,.45,.86,0,.12-.46,.49-1.37,1.13-.98,.67-1.58,1.13-1.79,1.41l4.47,.31c.16,0,.26,.07,.31,.21,.07,.16,.1,.55,.1,1.17,0,.73-.06,1.2-.19,1.39-.13,.2-.43,.29-.91,.29-.25,0-.87-.05-1.86-.14l-1.92,.07c.27,.34,.77,.86,1.48,1.55,.66,.67,1,1.05,1,1.17,0,.21-.13,.43-.4,.67-.26,.24-.5,.36-.7,.36-.09,0-.78-.54-2.06-1.62-.16-.16-.45-.39-.86-.69-.05,.14-.07,.37-.07,.69l.27,2.82c0,.23,0,.41-.02,.55-.01,.14-.13,.25-.36,.33-.23,.08-.41,.14-.55,.19-.82,.3-1.72,.47-2.68,.52-.18-.3-.3-.94-.34-1.92l-.07-2.92c0-.14-.06-.46-.17-.96-.18,.11-.56,.49-1.12,1.12-.56,.63-1.07,1.22-1.53,1.77-.66,.73-1.03,1.1-1.1,1.1-.34,0-.52-.37-.52-1.1,0-.37,.02-.62,.07-.76l2.85-3.33c-.46-.14-1.12-.25-1.99-.34l-2.51-.24c-.16-.05-.32-.15-.48-.31,0-.21,.15-.82,.45-1.86,.02-.16,.11-.5,.27-1.03,.11-.18,.42-.31,.93-.38l2.65,.38h.69l-.45-.55c-.21-.28-.69-.9-1.46-1.87-.77-.97-1.15-1.55-1.15-1.73,0-.21,.47-.4,1.41-.58,.3,0,.48,.05,.55,.14,.3,.5,.72,1.13,1.27,1.87s.99,1.28,1.31,1.6c.05-.28,.07-.52,.07-.72l-.07-.96-.07-1c0-.57,.09-.99,.27-1.25,.18-.26,.54-.44,1.07-.53,1.26-.28,2.05-.41,2.37-.41Z"/>
      <path class="cls-1" d="M521.21,3.95c.12,.14,.18,.25,.21,.34v.93l-.14,4.67c.44-.09,1.17-.5,2.2-1.24,1.08-.73,1.81-1.11,2.2-1.13,.3,.44,.45,.72,.45,.86,0,.12-.46,.49-1.37,1.13-.98,.67-1.58,1.13-1.79,1.41l4.47,.31c.16,0,.26,.07,.31,.21,.07,.16,.1,.55,.1,1.17,0,.73-.06,1.2-.19,1.39-.13,.2-.43,.29-.91,.29-.25,0-.87-.05-1.86-.14l-1.92,.07c.28,.34,.77,.86,1.48,1.55,.67,.67,1,1.05,1,1.17,0,.21-.13,.43-.4,.67-.26,.24-.5,.36-.7,.36-.09,0-.78-.54-2.06-1.62-.16-.16-.45-.39-.86-.69-.05,.14-.07,.37-.07,.69l.27,2.82c0,.23,0,.41-.02,.55s-.13,.25-.36,.33c-.23,.08-.41,.14-.55,.19-.82,.3-1.72,.47-2.68,.52-.18-.3-.3-.94-.34-1.92l-.07-2.92c0-.14-.06-.46-.17-.96-.18,.11-.56,.49-1.12,1.12-.56,.63-1.07,1.22-1.53,1.77-.66,.73-1.03,1.1-1.1,1.1-.34,0-.52-.37-.52-1.1,0-.37,.02-.62,.07-.76l2.85-3.33c-.46-.14-1.12-.25-1.99-.34l-2.51-.24c-.16-.05-.32-.15-.48-.31,0-.21,.15-.82,.45-1.86,.02-.16,.11-.5,.27-1.03,.11-.18,.42-.31,.93-.38l2.65,.38h.69l-.45-.55c-.21-.28-.69-.9-1.46-1.87-.77-.97-1.15-1.55-1.15-1.73,0-.21,.47-.4,1.41-.58,.3,0,.48,.05,.55,.14,.3,.5,.72,1.13,1.27,1.87s.99,1.28,1.31,1.6c.05-.28,.07-.52,.07-.72l-.07-.96-.07-1c0-.57,.09-.99,.27-1.25,.18-.26,.54-.44,1.07-.53,1.26-.28,2.05-.41,2.37-.41Z"/>
      <path class="cls-2" d="M486.77,2.47c-3.09,4-.27,13.47-4.29,16.25-1.39-2.74-1.19-5.85-1.22-8.82-.09-1.81-.47-3.61-.64-5.39C479.11,0,474.65,.19,472.14,2.69c-1.48,1.42-2.55,3.32-3.01,5.31-.78,2.06,.25,10.93-2.2,11-2.06,1.06-1.66-9.03-3.13-14.89-.97-3.87-5.77-5.3-8.65-2.53-.27,.26-.52,.56-.74,.88-3.09,4-.27,13.47-4.29,16.25-1.39-2.74-1.19-5.85-1.22-8.82-.09-1.81-.47-3.61-.64-5.39-1.32-3.23-5.97-4.32-8.48-1.82-1.48,1.42-2.55,3.32-3.01,5.31-.78,2.06,.25,10.93-2.2,11-2.56-3.04-1.31-9.89-3.49-13.77-1.57-3.86-7.38-6.01-9.85-1.84-1.8,3.45-1.23,7.88-2.43,11.54-.43,1.32-1.1,2.55-2.18,3.59-1.52-3.96-.73-8.41-2.17-12.39-1.5-4.87-7.78-5.98-9.7-.8-1.44,3.5-.44,10.04-3.92,12.07-.82-3.49-.47-7.27-2.1-10.55-1.69-4.16-7.92-6.54-10.74-2.2-2.36,3.34-1.68,11.44-4.68,13.69-1.79-4.48,.6-9.57-1.25-14.05-.76-2.55-3.34-3.53-5.81-3.18-2.41,.05-4.48,1.85-5.07,4.15-.92,3.61-1.51,7.35-1.41,11.08,.21,1.87-.33,4.39,1.44,5.63,1.09,.78,3.24,.75,3.56-.82,0-3.77-.54-7.57,.21-11.32,.39-2.14,.42-5.55,3.47-5.14,2.64,4.3-1.07,10.95,1.71,15.53,1.94,3.29,7.03,2.92,9.13-.02,2.78-3.83,1-10.81,3.45-14.08,.94,1.34,1.05,3.02,1.24,4.6,.44,3.17,.3,6.89,2.62,9.37,2.36,2.44,6.52,1.94,8.12-1.1,2.26-3.15,.98-12.45,4.62-13.76,1.19,2.06,.58,5.7,.88,8.1,.17,4.33,1.79,9.87,7.12,9.48,.55-.1,1.03-.25,1.47-.46,3.86-1.85,3.38-7.79,3.7-11.59,.17-1.87,.31-3.8,1.13-5.52,.92-1.66,2.14-1.4,2.57,.4,1.26,6.06,.01,16,8.17,17.2,5.68,.47,6.92-5.05,7.14-9.58,.19-2.84,.59-6.11,2.96-8.01,.93,.6,.84,1.85,1.17,2.81,.72,3.25,.17,6.64,1.17,9.85,.7,4.25,5.22,5.22,8.25,2.59,4.61-4.07,1.7-13.25,4.26-16.23,.22,.03,.39,.13,.44,.33,1.26,6.06-1.21,17.04,6.95,18.24,5.68,.47,6.92-5.05,7.14-9.58,.12-1.83,.33-3.83,1.1-5.53,.61-1.35,2.57-1.21,2.99,.21,.01,.04,.03,.08,.04,.13,.72,3.25,.17,6.64,1.17,9.85,.7,4.25,5.22,5.22,8.25,2.59,4.92-4.35,1.27-14.52,4.86-16.75,.74,3.88-.04,7.89,.68,11.78,.42,2.1,1.16,4.41,2.99,5.71,3.87,2.31,6.8-.6,7.43-4.46,.35-3.99,.03-8.06,.01-12.07-.02-1.36-2.65-1.92-2.77-.36,.1,2.2,.08,4.4,.08,6.61,.15,2.36-.62,4.68-2.08,6.54-1.38-4.59-.17-9.64-1.88-14.17-1.57-4.12-7.66-4.41-10-.86Zm-114.6,15.67c.77,.3,.68,1.27,.71,1.94,.09,1.43-1.57,1.53-1.66,.11-.06-.73-.17-2.24,.95-2.04Z"/>
      <path class="cls-2" d="M655.38,2.47c-3.09,4-.27,13.47-4.29,16.25-1.39-2.74-1.19-5.85-1.22-8.82-.09-1.81-.47-3.61-.64-5.39C647.72,0,643.26,.19,640.75,2.69c-1.48,1.42-2.55,3.32-3.01,5.31-.78,2.06,.25,10.93-2.2,11-2.06,1.06-1.66-9.03-3.13-14.89-.97-3.87-5.77-5.3-8.65-2.53-.27,.26-.52,.56-.74,.88-3.09,4-.27,13.47-4.29,16.25-1.39-2.74-1.19-5.85-1.22-8.82-.09-1.81-.47-3.61-.64-5.39-1.32-3.23-5.97-4.32-8.48-1.82-1.48,1.42-2.55,3.32-3.01,5.31-.78,2.06,.25,10.93-2.2,11-2.56-3.04-1.31-9.89-3.49-13.77-1.57-3.86-7.38-6.01-9.85-1.84-1.8,3.45-1.23,7.88-2.43,11.54-.43,1.32-1.1,2.55-2.18,3.59-1.52-3.96-.73-8.41-2.17-12.39-1.5-4.87-7.78-5.98-9.7-.8-1.44,3.5-.44,10.04-3.92,12.07-.82-3.49-.47-7.27-2.1-10.55-1.69-4.16-7.92-6.54-10.74-2.2-2.36,3.34-1.68,11.44-4.68,13.69-1.79-4.48,.6-9.57-1.25-14.05-.76-2.55-3.34-3.53-5.81-3.18-2.41,.05-4.48,1.85-5.07,4.15-.92,3.61-1.51,7.35-1.41,11.08,.21,1.87-.33,4.39,1.44,5.63,1.09,.78,3.24,.75,3.56-.82,0-3.77-.54-7.57,.21-11.32,.39-2.14,.42-5.55,3.47-5.14,2.64,4.3-1.07,10.95,1.71,15.53,1.94,3.29,7.03,2.92,9.13-.02,2.78-3.83,1-10.81,3.45-14.08,.94,1.34,1.05,3.02,1.24,4.6,.44,3.17,.3,6.89,2.62,9.37,2.36,2.44,6.52,1.94,8.12-1.1,2.26-3.15,.98-12.45,4.62-13.76,1.19,2.06,.58,5.7,.88,8.1,.17,4.33,1.79,9.87,7.12,9.48,.55-.1,1.03-.25,1.47-.46,3.86-1.85,3.38-7.79,3.7-11.59,.17-1.87,.31-3.8,1.13-5.52,.92-1.66,2.14-1.4,2.57,.4,1.26,6.06,.01,16,8.17,17.2,5.68,.47,6.92-5.05,7.14-9.58,.19-2.84,.59-6.11,2.96-8.01,.93,.6,.84,1.85,1.17,2.81,.72,3.25,.17,6.64,1.17,9.85,.7,4.25,5.22,5.22,8.25,2.59,4.61-4.07,1.7-13.25,4.26-16.23,.22,.03,.39,.13,.44,.33,1.26,6.06-1.21,17.04,6.95,18.24,5.68,.47,6.92-5.05,7.14-9.58,.12-1.83,.33-3.83,1.1-5.53,.61-1.35,2.57-1.21,2.99,.21,.01,.04,.03,.08,.04,.13,.72,3.25,.17,6.64,1.17,9.85,.7,4.25,5.22,5.22,8.25,2.59,4.92-4.35,1.27-14.52,4.86-16.75,.74,3.88-.04,7.89,.68,11.78,.42,2.1,1.16,4.41,2.99,5.71,3.87,2.31,6.8-.6,7.43-4.46,.35-3.99,.03-8.06,.01-12.07-.02-1.36-2.65-1.92-2.77-.36,.1,2.2,.08,4.4,.08,6.61,.15,2.36-.62,4.68-2.08,6.54-1.38-4.59-.17-9.64-1.88-14.17-1.57-4.12-7.66-4.41-10-.86Zm-114.6,15.67c.77,.3,.68,1.27,.71,1.94,.09,1.43-1.57,1.53-1.66,.11-.06-.73-.17-2.24,.95-2.04Z"/>
      <path class="cls-1" d="M691.68,3.95c.11,.14,.18,.25,.21,.34v.93l-.14,4.67c.43-.09,1.17-.5,2.2-1.24,1.08-.73,1.81-1.11,2.2-1.13,.3,.44,.45,.72,.45,.86,0,.12-.46,.49-1.37,1.13-.99,.67-1.58,1.13-1.79,1.41l4.47,.31c.16,0,.26,.07,.31,.21,.07,.16,.1,.55,.1,1.17,0,.73-.06,1.2-.19,1.39-.12,.2-.43,.29-.91,.29-.25,0-.87-.05-1.86-.14l-1.92,.07c.27,.34,.77,.86,1.48,1.55,.67,.67,1,1.05,1,1.17,0,.21-.13,.43-.39,.67-.26,.24-.5,.36-.7,.36-.09,0-.78-.54-2.06-1.62-.16-.16-.45-.39-.86-.69-.04,.14-.07,.37-.07,.69l.27,2.82c0,.23,0,.41-.02,.55s-.13,.25-.36,.33c-.23,.08-.41,.14-.55,.19-.83,.3-1.72,.47-2.68,.52-.18-.3-.3-.94-.34-1.92l-.07-2.92c0-.14-.06-.46-.17-.96-.18,.11-.56,.49-1.12,1.12-.56,.63-1.07,1.22-1.53,1.77-.66,.73-1.03,1.1-1.1,1.1-.34,0-.52-.37-.52-1.1,0-.37,.02-.62,.07-.76l2.85-3.33c-.46-.14-1.12-.25-1.99-.34l-2.51-.24c-.16-.05-.32-.15-.48-.31,0-.21,.15-.82,.45-1.86,.02-.16,.12-.5,.28-1.03,.12-.18,.42-.31,.93-.38l2.65,.38h.69l-.45-.55c-.21-.28-.69-.9-1.46-1.87-.77-.97-1.15-1.55-1.15-1.73,0-.21,.47-.4,1.41-.58,.3,0,.48,.05,.55,.14,.3,.5,.72,1.13,1.27,1.87,.55,.74,.99,1.28,1.31,1.6,.05-.28,.07-.52,.07-.72l-.07-.96-.07-1c0-.57,.09-.99,.27-1.25,.18-.26,.54-.44,1.07-.53,1.26-.28,2.05-.41,2.37-.41Z"/>
      <path class="cls-2" d="M825.34,2.47c-3.09,4-.27,13.47-4.29,16.25-1.39-2.74-1.19-5.85-1.22-8.82-.09-1.81-.47-3.61-.64-5.39C817.68,0,813.22,.19,810.71,2.69c-1.48,1.42-2.55,3.32-3.01,5.31-.78,2.06,.25,10.93-2.2,11-2.06,1.06-1.66-9.03-3.13-14.89-.97-3.87-5.77-5.3-8.65-2.53-.27,.26-.52,.56-.74,.88-3.09,4-.27,13.47-4.29,16.25-1.39-2.74-1.19-5.85-1.22-8.82-.09-1.81-.47-3.61-.64-5.39-1.32-3.23-5.97-4.32-8.48-1.82-1.48,1.42-2.55,3.32-3.01,5.31-.78,2.06,.25,10.93-2.2,11-2.56-3.04-1.31-9.89-3.49-13.77-1.57-3.86-7.38-6.01-9.85-1.84-1.8,3.45-1.23,7.88-2.43,11.54-.43,1.32-1.1,2.55-2.18,3.59-1.52-3.96-.73-8.41-2.17-12.39-1.5-4.87-7.78-5.98-9.7-.8-1.44,3.5-.44,10.04-3.92,12.07-.82-3.49-.47-7.27-2.1-10.55-1.69-4.16-7.92-6.54-10.74-2.2-2.36,3.34-1.68,11.44-4.68,13.69-1.79-4.48,.6-9.57-1.25-14.05-.76-2.55-3.34-3.53-5.81-3.18-2.41,.05-4.48,1.85-5.07,4.15-.92,3.61-1.51,7.35-1.41,11.08,.21,1.87-.33,4.39,1.44,5.63,1.09,.78,3.24,.75,3.56-.82,0-3.77-.54-7.57,.21-11.32,.39-2.14,.42-5.55,3.47-5.14,2.64,4.3-1.07,10.95,1.71,15.53,1.94,3.29,7.03,2.92,9.13-.02,2.78-3.83,1-10.81,3.45-14.08,.94,1.34,1.05,3.02,1.24,4.6,.44,3.17,.3,6.89,2.62,9.37,2.36,2.44,6.52,1.94,8.12-1.1,2.26-3.15,.98-12.45,4.62-13.76,1.19,2.06,.58,5.7,.88,8.1,.17,4.33,1.79,9.87,7.12,9.48,.55-.1,1.03-.25,1.47-.46,3.86-1.85,3.38-7.79,3.7-11.59,.17-1.87,.31-3.8,1.13-5.52,.92-1.66,2.14-1.4,2.57,.4,1.26,6.06,.01,16,8.17,17.2,5.68,.47,6.92-5.05,7.14-9.58,.19-2.84,.59-6.11,2.96-8.01,.93,.6,.84,1.85,1.17,2.81,.72,3.25,.17,6.64,1.17,9.85,.7,4.25,5.22,5.22,8.25,2.59,4.61-4.07,1.7-13.25,4.26-16.23,.22,.03,.39,.13,.44,.33,1.26,6.06-1.21,17.04,6.95,18.24,5.68,.47,6.92-5.05,7.14-9.58,.12-1.83,.33-3.83,1.1-5.53,.61-1.35,2.57-1.21,2.99,.21,.01,.04,.03,.08,.04,.13,.72,3.25,.17,6.64,1.17,9.85,.7,4.25,5.22,5.22,8.25,2.59,4.92-4.35,1.27-14.52,4.86-16.75,.74,3.88-.04,7.89,.68,11.78,.42,2.1,1.16,4.41,2.99,5.71,3.87,2.31,6.8-.6,7.43-4.46,.35-3.99,.03-8.06,.01-12.07-.02-1.36-2.65-1.92-2.77-.36,.1,2.2,.08,4.4,.08,6.61,.15,2.36-.62,4.68-2.08,6.54-1.38-4.59-.17-9.64-1.88-14.17-1.57-4.12-7.66-4.41-10-.86Zm-114.6,15.67c.77,.3,.68,1.27,.71,1.94,.09,1.43-1.57,1.53-1.66,.11-.06-.73-.17-2.24,.95-2.04Z"/>
      <path class="cls-1" d="M864.11,3.95c.11,.14,.18,.25,.21,.34v.93l-.14,4.67c.43-.09,1.17-.5,2.2-1.24,1.08-.73,1.81-1.11,2.2-1.13,.3,.44,.45,.72,.45,.86,0,.12-.46,.49-1.37,1.13-.99,.67-1.58,1.13-1.79,1.41l4.47,.31c.16,0,.26,.07,.31,.21,.07,.16,.1,.55,.1,1.17,0,.73-.06,1.2-.19,1.39-.12,.2-.43,.29-.91,.29-.25,0-.87-.05-1.86-.14l-1.92,.07c.27,.34,.77,.86,1.48,1.55,.67,.67,1,1.05,1,1.17,0,.21-.13,.43-.39,.67-.26,.24-.5,.36-.7,.36-.09,0-.78-.54-2.06-1.62-.16-.16-.45-.39-.86-.69-.04,.14-.07,.37-.07,.69l.27,2.82c0,.23,0,.41-.02,.55s-.13,.25-.36,.33c-.23,.08-.41,.14-.55,.19-.83,.3-1.72,.47-2.68,.52-.18-.3-.3-.94-.34-1.92l-.07-2.92c0-.14-.06-.46-.17-.96-.18,.11-.56,.49-1.12,1.12-.56,.63-1.07,1.22-1.53,1.77-.66,.73-1.03,1.1-1.1,1.1-.34,0-.52-.37-.52-1.1,0-.37,.02-.62,.07-.76l2.85-3.33c-.46-.14-1.12-.25-1.99-.34l-2.51-.24c-.16-.05-.32-.15-.48-.31,0-.21,.15-.82,.45-1.86,.02-.16,.12-.5,.28-1.03,.12-.18,.42-.31,.93-.38l2.65,.38h.69l-.45-.55c-.21-.28-.69-.9-1.46-1.87-.77-.97-1.15-1.55-1.15-1.73,0-.21,.47-.4,1.41-.58,.3,0,.48,.05,.55,.14,.3,.5,.72,1.13,1.27,1.87,.55,.74,.99,1.28,1.31,1.6,.05-.28,.07-.52,.07-.72l-.07-.96-.07-1c0-.57,.09-.99,.27-1.25,.18-.26,.54-.44,1.07-.53,1.26-.28,2.05-.41,2.37-.41Z"/>
      <path class="cls-1" d="M1032.21,3.95c.12,.14,.18,.25,.21,.34v.93l-.14,4.67c.44-.09,1.17-.5,2.2-1.24,1.08-.73,1.81-1.11,2.2-1.13,.3,.44,.45,.72,.45,.86,0,.12-.46,.49-1.37,1.13-.98,.67-1.58,1.13-1.79,1.41l4.47,.31c.16,0,.26,.07,.31,.21,.07,.16,.1,.55,.1,1.17,0,.73-.06,1.2-.19,1.39-.13,.2-.43,.29-.91,.29-.25,0-.87-.05-1.86-.14l-1.92,.07c.28,.34,.77,.86,1.48,1.55,.67,.67,1,1.05,1,1.17,0,.21-.13,.43-.4,.67-.26,.24-.5,.36-.7,.36-.09,0-.78-.54-2.06-1.62-.16-.16-.45-.39-.86-.69-.05,.14-.07,.37-.07,.69l.27,2.82c0,.23,0,.41-.02,.55s-.13,.25-.36,.33c-.23,.08-.41,.14-.55,.19-.82,.3-1.72,.47-2.68,.52-.18-.3-.3-.94-.34-1.92l-.07-2.92c0-.14-.06-.46-.17-.96-.18,.11-.55,.49-1.12,1.12-.56,.63-1.07,1.22-1.53,1.77-.66,.73-1.03,1.1-1.1,1.1-.34,0-.51-.37-.51-1.1,0-.37,.02-.62,.07-.76l2.85-3.33c-.46-.14-1.12-.25-1.99-.34l-2.51-.24c-.16-.05-.32-.15-.48-.31,0-.21,.15-.82,.45-1.86,.02-.16,.11-.5,.27-1.03,.11-.18,.42-.31,.93-.38l2.65,.38h.69l-.45-.55c-.21-.28-.69-.9-1.46-1.87-.77-.97-1.15-1.55-1.15-1.73,0-.21,.47-.4,1.41-.58,.3,0,.48,.05,.55,.14,.3,.5,.72,1.13,1.27,1.87,.55,.74,.98,1.28,1.3,1.6,.05-.28,.07-.52,.07-.72l-.07-.96-.07-1c0-.57,.09-.99,.28-1.25,.18-.26,.54-.44,1.06-.53,1.26-.28,2.05-.41,2.37-.41Z"/>
      <path class="cls-2" d="M997.77,2.47c-3.09,4-.27,13.47-4.29,16.25-1.39-2.74-1.19-5.85-1.22-8.82-.09-1.81-.47-3.61-.64-5.39C990.11,0,985.65,.19,983.14,2.69c-1.48,1.42-2.55,3.32-3.01,5.31-.78,2.06,.25,10.93-2.2,11-2.06,1.06-1.66-9.03-3.13-14.89-.97-3.87-5.77-5.3-8.65-2.53-.27,.26-.52,.56-.74,.88-3.09,4-.27,13.47-4.29,16.25-1.39-2.74-1.19-5.85-1.22-8.82-.09-1.81-.47-3.61-.64-5.39-1.32-3.23-5.97-4.32-8.48-1.82-1.48,1.42-2.55,3.32-3.01,5.31-.78,2.06,.25,10.93-2.2,11-2.56-3.04-1.31-9.89-3.49-13.77-1.57-3.86-7.38-6.01-9.85-1.84-1.8,3.45-1.23,7.88-2.43,11.54-.43,1.32-1.1,2.55-2.18,3.59-1.52-3.96-.73-8.41-2.17-12.39-1.5-4.87-7.78-5.98-9.7-.8-1.44,3.5-.44,10.04-3.92,12.07-.82-3.49-.47-7.27-2.1-10.55-1.69-4.16-7.92-6.54-10.74-2.2-2.36,3.34-1.68,11.44-4.68,13.69-1.79-4.48,.6-9.57-1.25-14.05-.76-2.55-3.34-3.53-5.81-3.18-2.41,.05-4.48,1.85-5.07,4.15-.92,3.61-1.51,7.35-1.41,11.08,.21,1.87-.33,4.39,1.44,5.63,1.09,.78,3.24,.75,3.56-.82,0-3.77-.54-7.57,.21-11.32,.39-2.14,.42-5.55,3.47-5.14,2.64,4.3-1.07,10.95,1.71,15.53,1.94,3.29,7.03,2.92,9.13-.02,2.78-3.83,1-10.81,3.45-14.08,.94,1.34,1.05,3.02,1.24,4.6,.44,3.17,.3,6.89,2.62,9.37,2.36,2.44,6.52,1.94,8.12-1.1,2.26-3.15,.98-12.45,4.62-13.76,1.19,2.06,.58,5.7,.88,8.1,.17,4.33,1.79,9.87,7.12,9.48,.55-.1,1.03-.25,1.47-.46,3.86-1.85,3.38-7.79,3.7-11.59,.17-1.87,.31-3.8,1.13-5.52,.92-1.66,2.14-1.4,2.57,.4,1.26,6.06,.01,16,8.17,17.2,5.68,.47,6.92-5.05,7.14-9.58,.19-2.84,.59-6.11,2.96-8.01,.93,.6,.84,1.85,1.17,2.81,.72,3.25,.17,6.64,1.17,9.85,.7,4.25,5.22,5.22,8.25,2.59,4.61-4.07,1.7-13.25,4.26-16.23,.22,.03,.39,.13,.44,.33,1.26,6.06-1.21,17.04,6.95,18.24,5.68,.47,6.92-5.05,7.14-9.58,.12-1.83,.33-3.83,1.1-5.53,.61-1.35,2.57-1.21,2.99,.21,.01,.04,.03,.08,.04,.13,.72,3.25,.17,6.64,1.17,9.85,.7,4.25,5.22,5.22,8.25,2.59,4.92-4.35,1.27-14.52,4.86-16.75,.74,3.88-.04,7.89,.68,11.78,.42,2.1,1.16,4.41,2.99,5.71,3.87,2.31,6.8-.6,7.43-4.46,.35-3.99,.03-8.06,.01-12.07-.02-1.36-2.65-1.92-2.77-.36,.1,2.2,.08,4.4,.08,6.61,.15,2.36-.62,4.68-2.08,6.54-1.38-4.59-.17-9.64-1.88-14.17-1.57-4.12-7.66-4.41-10-.86Zm-114.6,15.67c.77,.3,.68,1.27,.71,1.94,.09,1.43-1.57,1.53-1.66,.11-.06-.73-.17-2.24,.95-2.04Z"/>
    </g>
  </g>
</svg>