<?xml version="1.0" encoding="UTF-8"?>
<svg id="Camada_2" data-name="Camada 2" xmlns="http://www.w3.org/2000/svg" viewBox="0 0 840 431.57">
  <defs>
    <style>
      .cls-1 {
        fill: #fff;
      }

      .cls-2 {
        fill: #3c98fd;
      }

      .cls-3 {
        fill: #499ffd;
      }

      .cls-4 {
        fill: #ff5c27;
      }
    </style>
  </defs>
  <g id="Camada_2-2" data-name="Camada 2">
    <g>
      <path class="cls-4" d="M28.38,334.96c-6.61-.71-12.87-3.19-18.76-7.42-5.9-4.24-9.08-9.09-9.54-14.47-.23-2.69,.03-5.64,.77-8.85,.74-3.22,1.44-6.22,2.11-9,5.24-20.53,10.2-39.83,14.87-57.86,4.67-18.03,9.39-35.48,14.16-52.34,4.77-16.85,9.93-33.83,15.46-50.94,5.54-17.1,11.79-35.06,18.76-53.92-8.47,1.37-15.7,3.31-21.69,5.89-5.99,2.59-10.89,4.82-14.67,6.76-3.79,1.95-6.48,2.83-8.08,2.7-1.14-.1-2.79-.96-4.96-2.61-2.18-1.65-4.08-3.45-5.72-5.39-1.63-1.94-2.62-4.94-2.62-4.94,0,0,12.97-4.17,21.13-6.48,8.15-2.3,17.02-4.27,26.59-5.94,9.57-1.68,19.21-2.54,28.92-2.56,10.38-.02,21.11,1.15,32.14,3.53,11.04,2.37,21.28,5.94,30.73,10.79,9.44,4.85,17.31,11,23.6,18.55,6.29,7.55,9.9,16.79,10.84,27.77,1.02,11.89-.8,22.31-5.46,31.22-4.66,8.91-11.11,16.65-19.37,23.12-8.26,6.46-17.29,11.74-27.11,15.76-9.81,4.01-19.73,6.97-29.73,8.83-10.01,1.87-19,2.97-26.98,3.42-7.98,.45-13.9,.5-17.76,.31-.95-.05-1.43-.07-2.38-.13-4.67,22.06-9.12,43.93-13.36,65.63-4.24,21.7-8.22,41.21-11.93,58.59Zm26.93-132.84c12.63-.24,25.12-2.05,37.48-5.39,12.36-3.34,23.45-8.32,33.29-14.78,9.83-6.46,17.49-14.57,23-24.18,5.5-9.61,7.73-20.51,6.69-32.62-1-11.65-4.72-20.84-11.17-27.63-6.45-6.78-14.5-11.71-24.13-14.9-9.64-3.19-19.78-4.82-30.41-4.97-6.76,15.98-13,34.87-18.7,56.67-5.7,21.8-11.06,44.4-16.06,67.8Z"/>
      <path class="cls-4" d="M35.68,328.64c-6.61-.71-12.87-3.19-18.76-7.42-5.9-4.24-9.08-9.09-9.54-14.47-.23-2.69,.03-5.64,.77-8.85,.74-3.22,1.44-6.22,2.11-9,5.24-20.53,10.2-39.83,14.87-57.86,4.67-18.03,9.39-35.48,14.16-52.34,4.77-16.85,9.93-33.83,15.46-50.94,5.54-17.1,11.79-35.06,18.76-53.92-8.47,1.37-15.7,3.31-21.69,5.89-5.99,2.59-10.89,4.82-14.67,6.76-3.79,1.95-6.48,2.83-8.08,2.7-1.14-.1-2.79-.96-4.96-2.61-2.18-1.65-4.08-3.45-5.72-5.39-1.63-1.94-2.62-4.94-2.62-4.94,0,0,12.97-4.17,21.13-6.48,8.15-2.3,17.02-4.27,26.59-5.94s19.21-2.54,28.92-2.56c10.38-.02,21.11,1.15,32.14,3.53,11.04,2.37,21.28,5.94,30.73,10.79,9.44,4.85,17.31,11,23.6,18.55,6.29,7.55,9.9,16.79,10.84,27.77,1.02,11.89-.8,22.31-5.46,31.22-4.66,8.91-11.11,16.65-19.37,23.12-8.26,6.46-17.29,11.74-27.11,15.76-9.81,4.01-19.73,6.97-29.73,8.83-10.01,1.87-19,2.97-26.98,3.42-7.98,.45-13.9,.5-17.76,.31-.95-.05-1.43-.07-2.38-.13-4.67,22.06-9.12,43.93-13.36,65.63-4.24,21.7-8.22,41.21-11.93,58.59Zm26.93-132.84c12.63-.24,25.12-2.05,37.48-5.39,12.36-3.34,23.45-8.32,33.29-14.78,9.83-6.46,17.49-14.57,23-24.18,5.5-9.61,7.73-20.51,6.69-32.62-1-11.65-4.72-20.84-11.17-27.63-6.45-6.78-14.5-11.71-24.13-14.9-9.64-3.19-19.78-4.82-30.41-4.97-6.76,15.98-13,34.87-18.7,56.67-5.7,21.8-11.06,44.4-16.06,67.8Z"/>
      <polygon class="cls-4" points="35.68 328.64 28.38 334.96 28.38 326.3 35.68 328.64"/>
      <polygon class="cls-4" points="8.5 82.57 13.53 72.83 20.97 73.61 25.37 80.88 8.5 82.57"/>
      <polygon class="cls-4" points="271.71 174.21 275.76 162.35 295.25 163.65 292.22 179.34 271.71 174.21"/>
      <g>
        <path class="cls-1" d="M66.82,188.74c-2.3,5.94-4.03,7.88-3.97,2.94,.08-6.84,2.65-24.07,5.62-37.08,2.29-9.97,4.92-20.02,7.73-30.12,3-10.08,6.32-20.16,9.72-30.2,2.35-6.93,4.85-13.83,7.59-20.67l1.24-3.05,.81-1.95c.32-.58,.33-1.59,1.3-1.28l4.24,.11,2.8,.14c3.73,.24,7.47,.66,11.17,1.29,7.4,1.3,14.7,3.22,21.69,6.42,6.96,3.2,13.36,7.72,18.58,13.49,6.93,7.67,10.09,17.92,10.94,27.68,.95,9.81-.24,19.98-4.01,29.13-3.48,8.3-8.73,15.51-15.06,21.71-6.34,6.21-13.81,11.01-21.48,14.98-6.95,3.59-14.51,6.47-21.9,8.74-7.2,2.2-14.47,4.08-22.11,4.96-10.23,1.14-16.27-.08-18.08-1.33-1.83-1.31,.43-2.7,6.41-3.76,4.58-.83,12.11-1.77,19.9-3.38,7.81-1.57,15.77-3.77,21.32-5.92,15.81-6.06,30.88-15.19,40.1-29.27,5.72-8.27,8.79-17.88,8.99-27.91,.18-9.98-1.63-20.31-7.07-28.31-5.54-7.9-14.26-13.92-23.62-17.43-4.73-1.78-9.73-3.13-14.75-4.09-2.52-.48-5.06-.85-7.61-1.12l-3.84-.34-3.26-.17h-.42c-.13,.03-.18,.34-.27,.5l-.83,2.05-2.39,6.19c-1.54,4.14-2.99,8.32-4.36,12.52-2.74,8.4-5.18,16.89-7.48,25.45-2.25,8.1-3.99,16.4-5.96,24.6l-5.81,24.67c-1.92,8.14-4.06,15.21-5.86,19.84Z"/>
        <path class="cls-1" d="M41.41,313.13c-3.81,14.36-6.07,19.3-4.86,7.91,1.68-15.79,8.36-55.96,14.51-86.72,1.2-5.88,2.4-11.79,3.61-17.72l1.86-8.9,1.38-6.6,.23-1.1,.11-.55c.03-.19,.04-.42,.29-.33l2.25,.1,2.24,.1c.61,.06,1.98,.04,2.07,.04,5.94-.09,11.92-.02,17.9-.2,5.98-.33,11.99-.98,18-1.84,23.83-3.27,47.81-11.5,66.16-27.36,6.21-5.45,11.41-12.01,15.25-19.33,3.79-7.19,5.49-15.39,5.49-23.65,.02-8.3-1.37-16.58-4.94-23.89-3.51-7.28-9.39-13.39-15.87-18.55-6.54-5.11-14.01-9.01-21.83-12.15-7.81-3.13-15.96-5.39-24.28-6.96-16.63-3.28-33.69-3.44-50.47-1.09-10.8,1.6-21.73,3.86-32.31,6.8l-15.9,4.85-1.67,.5c-.55-.01-.17,.56-.05,.81,.09,.16,.2,.31,.31,.45l1.02,1.18c.86,.94,1.79,1.83,2.76,2.66,.97,.83,2.03,1.65,3.03,2.31,1.02,.68,2.04,1.12,2.2,1.03,.66-.01,1.93-.39,3.05-.84,1.17-.46,2.33-1.04,3.55-1.64,5.13-2.35,10.25-4.7,15.36-7.05,2.68-1.12,5.41-2.04,8.16-2.84,1.37-.39,2.75-.76,4.13-1.09l2.07-.48,3.25-.67,6.96-1.22c.55-.07,1.24-.26,1.68-.23l-.54,1.66-1.08,3.32-3.55,10.34c-13.23,37.47-25.49,75.43-35.88,113.83-4.72,17.28-9.7,35.1-13.93,52.4-2.09,8.43-4.17,16.83-6.26,25.27-1.06,4.22-2.13,8.44-3.2,12.69-.89,4.18-2.25,8.67-2.76,12.48-.31,2.67-.24,5.08,.38,7.1,.62,2.08,1.7,3.94,3.01,5.55,2.62,3.22,5.87,5.57,8.6,7.39,5.57,3.6,9.85,4.91,11.82,5.9,1.99,.91,1.74,1.62-1.08,1.82-2.75,.14-8.29-.42-15.18-4.21-2.58-1.44-5.55-3.34-8.42-6.29-2.81-2.9-5.53-7.24-5.99-12.48-.55-4.9,.72-9.95,1.73-14.24,.99-4.53,2.2-9.1,3.39-13.74,4.84-18.55,9.9-37.91,13.55-51.91,10.75-39.9,21.93-79.66,35.58-118.85l10.44-29.98c-.06-.08-.34,.03-.5,.04l-2.29,.51c-2.92,.69-5.81,1.5-8.59,2.49-2.76,.93-5.48,2.26-8.29,3.55l-8.35,3.83-4.38,2.06c-1.59,.66-3.14,1.33-5.36,1.66-1.06,.21-2.98-.02-3.95-.51-1.05-.43-1.85-.91-2.62-1.4-1.52-1-2.78-2-4.08-3.12-1.28-1.12-2.49-2.32-3.61-3.61-.39-.43-1.61-1.91-2.26-3.02-.72-1.19-1.23-2.42-1.44-3.59-1.12-2.76,1.28-3.78,3.83-4.64l5.71-1.74c6.03-1.77,11.93-3.78,18.06-5.35,6.11-1.58,12.26-2.91,18.43-4.06,12.36-2.4,25.08-3.59,37.76-3.26,12.73,.4,25.28,2.37,37.53,5.8,12.19,3.56,24.11,8.56,34.56,16.27,5.19,3.88,9.89,8.36,13.93,13.53,4.03,5.26,6.92,11.38,8.56,17.74,1.4,5.41,1.96,10.91,1.99,16.37,.02,5.48-.58,11.02-2.04,16.38-1.41,5.37-3.87,10.52-6.74,15.11-2.87,4.65-6.29,8.97-10.12,12.86-15.59,15.36-35.73,24.6-56.4,29.92-9.94,2.48-19.85,4-29.97,5.03-5.05,.56-10.15,.57-15.23,.66l-7.63,.13-.92,.02c.38-.01,.05,0,.11,0h-.2c-.09,.12-.04,.1-.14,.52l-11.89,58.52c-3.93,19.34-7.85,36.29-10.82,47.5Z"/>
      </g>
      <path class="cls-2" d="M36.11,327.23c-6.61-.71-12.87-3.19-18.76-7.42-5.9-4.24-9.08-9.09-9.54-14.47-.23-2.69,.03-5.64,.77-8.85,.74-3.22,1.44-6.22,2.11-9,5.24-20.53,10.2-39.83,14.87-57.86,4.67-18.03,9.39-35.48,14.16-52.34,4.77-16.85,9.93-33.83,15.46-50.94,5.54-17.1,11.79-35.06,18.76-53.92-8.47,1.37-15.7,3.31-21.69,5.89-5.99,2.59-10.89,4.82-14.67,6.76-3.79,1.95-6.48,2.83-8.08,2.7-1.14-.1-2.79-.96-4.96-2.61-2.18-1.65-4.08-3.45-5.72-5.39-1.63-1.94-2.51-3.59-2.62-4.94,5.93-2.05,12.97-4.17,21.13-6.48,8.15-2.3,17.02-4.27,26.59-5.94,9.57-1.68,19.21-2.54,28.92-2.56,10.38-.02,21.11,1.15,32.14,3.53,11.04,2.37,21.28,5.94,30.73,10.79,9.44,4.85,17.31,11,23.6,18.55,6.29,7.55,9.9,16.79,10.84,27.77,1.02,11.89-.8,22.31-5.46,31.22-4.66,8.91-11.11,16.65-19.37,23.12-8.26,6.46-17.29,11.74-27.11,15.76-9.81,4.01-19.73,6.97-29.73,8.83-10.01,1.87-19,2.97-26.98,3.42s-13.9,.5-17.76,.31c-.95-.05-1.43-.07-2.38-.13-4.67,22.06-9.12,43.93-13.36,65.63-4.24,21.7-8.22,41.21-11.93,58.59Zm26.93-132.84c12.63-.24,25.12-2.05,37.48-5.39,12.36-3.34,23.45-8.32,33.29-14.78,9.83-6.46,17.49-14.57,23-24.18,5.5-9.61,7.73-20.51,6.69-32.62-1-11.65-4.72-20.84-11.17-27.63-6.45-6.78-14.5-11.71-24.13-14.9-9.64-3.19-19.78-4.82-30.41-4.97-6.76,15.98-13,34.87-18.7,56.67-5.7,21.8-11.06,44.4-16.06,67.8Z"/>
      <g>
        <g>
          <path class="cls-2" d="M399.42,304.78c.03,.26-.24,2.7-.8,7.34-.43,3.38-.87,7.28-1.32,11.7-1.16,15.09-1.38,26.08-.66,33l1.86,17.74c-.18,.8-1.3,1.31-3.37,1.53-.52,.05-1.78,.04-3.78-.04-2-.08-3.77-.3-5.31-.67-.22-.24-.65-.59-1.29-1.04-.72-.05-1.67-.32-2.82-.78-1.09-1.06-2.61-3.71-4.56-7.95-1.95-4.24-4.11-9.56-6.48-15.98l-3.99-10.95-2.88-7.83c-.52,1.23-1,4.45-1.44,9.66-.43,5.21-.74,10.7-.92,16.46-.18,5.77-.14,9.91,.13,12.43l1.06,10.08c.07,.65-.15,1.26-.64,1.83-.49,.57-1.07,.9-1.71,.96-.39,.04-2.34-.18-5.85-.66-5.5-.73-8.41-2.68-8.75-5.84-.08-1.43-.17-4.6-.26-9.53-.09-4.92-.14-10.16-.13-15.72,.03-4.71,.26-9.96,.7-15.75,.44-5.79,.9-10.45,1.38-13.96,1.08-7.82,2.34-13.25,3.78-16.27,.65-1.31,2.23-2.1,4.75-2.36h1.77s2.27,.17,2.27,.17l4.59-.19c2.22-.04,4.02,.22,5.42,.75,1.39,.54,2.2,1.81,2.41,3.81,.03,.32,.02,.88-.02,1.67-.03,.33,0,.92,.09,1.76,.28,2.71,1.19,6.24,2.73,10.59,1.53,4.35,3.71,10,6.53,16.95l.25-.42c.06-1.9,.43-8.31,1.12-19.23l.17-3.06c.48-4.75,1.32-8.92,2.51-12.51,.31-.82,1.43-1.33,3.37-1.53,1.55-.16,3.5,.07,5.85,.71,2.35,.64,3.7,1.3,4.03,1.98,.08,.12,.15,.51,.22,1.15Z"/>
          <path class="cls-2" d="M438.23,370.2c-1.06,1.09-2.66,2.08-4.79,2.95-2.13,.87-3.94,1.33-5.44,1.36-.91,.1-1.6,.03-2.08-.18-1.44-.63-2.29-1-2.57-1.1l-6.46-2.75c-2.46-.98-4.46-2.52-6.02-4.61-1.56-2.09-2.59-4.25-3.08-6.49-1.44-5.66-2.22-9.96-2.33-12.89l-.45-13.67c-.04-1.63,.22-4.43,.78-8.41,1.06-9.19,3.59-16.53,7.59-22.01,4-5.48,9.38-8.35,16.15-8.6,2.41-.06,5.12,.87,8.13,2.77,2.07,.44,3.55,.81,4.43,1.11,.74,.18,1.36,.54,1.88,1.08,4.66,5.2,7.46,12.22,8.38,21.08,.56,5.3,.31,11.2-.74,17.72-1.05,6.51-2.75,12.72-5.1,18.61-2.36,5.9-5.11,10.58-8.28,14.05Zm.44-46.3c-.1-2.86-.25-5.2-.44-7.01-.96-9.17-3.11-13.72-6.43-13.63-1.5,.03-3.17,1.9-5,5.62-4.59,9.17-6.68,20.07-6.27,32.7,.22,5.86,.38,9.21,.47,10.05,.45,4.33,1.58,8.23,3.38,11.7l2.04-.12c1.44-.02,2.94-1.42,4.51-4.2,1.57-2.78,2.75-5.42,3.53-7.92,1.21-4.05,2.09-7.18,2.64-9.39,1.27-5.36,1.79-11.29,1.56-17.8Z"/>
          <path class="cls-2" d="M514.19,360.96c.15,1.42-1.13,2.75-3.85,3.98-2.71,1.23-5.36,1.98-7.95,2.25-.65,.07-1.94-.45-3.89-1.55-3.54-1.98-6.75-4.88-9.63-8.69-.31-.42-.59-.83-.86-1.23-.27-.4-.48-.72-.64-.96-2.23-3.23-4.09-5.78-5.56-7.65-1.47-1.87-3.37-3.99-5.71-6.36-.44,.11-.85,.58-1.22,1.4-.21,.48-.47,1.88-.79,4.2-.31,2.32-.43,3.84-.36,4.55l1.61,15.32c.07,.71,0,1.47-.25,2.28-.24,.81-.62,1.24-1.14,1.3-.78,.08-5.23-1.28-13.37-4.09-.95-.29-1.52-1.41-1.72-3.35-.49-4.72-.47-10.6,.06-17.65,.53-7.05,1.59-17.12,3.15-30.22l1.93-16.18-.6-1.02c-.4-.74-.63-1.31-.67-1.69-.18-1.75,1.41-3.2,4.79-4.37,3.37-1.17,6.93-1.95,10.68-2.35,2.97-.31,5.35-.4,7.13-.26,1.31,.65,3.36,1.51,6.15,2.59,7.57,2.41,11.65,6.42,12.24,12.04,.49,4.72-.35,9.17-2.52,13.35-2.17,4.18-5.24,7.98-9.19,11.4-.67,.53-1.8,1.56-3.4,3.1,5.29,9.38,11.51,16.66,18.66,21.86,4.39,3.26,6.7,5.93,6.92,8Zm-24.58-58.67c-.15-1.42-.4-2.26-.75-2.52-.36-.26-1.27-.31-2.76-.15-1.16,.12-2.47,.42-3.92,.9-1.45,.48-2.29,.9-2.51,1.25-.28,.49-.84,3.55-1.68,9.19-.85,5.64-1.19,9.21-1.04,10.69l.17,1.65c2.35-1.23,4.54-3.09,6.57-5.59,2.02-2.5,3.57-5.16,4.65-7.98,1.08-2.82,1.5-5.3,1.28-7.43Z"/>
          <path class="cls-2" d="M569.64,302.91c.6,5.69-.95,13-4.65,21.95-3.98,9.37-9.39,17.97-16.21,25.81-.42,.37-1.19,1.12-2.31,2.25-1.12,1.13-2.4,2.49-3.84,4.08-1.44,1.59-3.03,3.65-4.79,6.19-.29,.36-.69,.56-1.21,.62-1.42,.15-4.31-.33-8.68-1.44-.14-.11-1.12-.67-2.92-1.65-.65,0-2.05-.28-4.2-.83-1.32-.71-2.08-2.07-2.29-4.07-.22-2.07,.12-11.28,1.02-27.65,.62-8.36,1.52-16.04,2.68-23.02,.18-1.39,.71-3.8,1.59-7.22l1.17-4.73c-.02-.19-.3-.69-.84-1.48-.54-.79-.83-1.38-.87-1.77-.13-1.29,.67-2.36,2.41-3.19,.57-.19,1.76-.67,3.57-1.45,1.02-1.48,2.31-2.3,3.86-2.46,.32-.03,1.11,.02,2.37,.14,.53,.08,1.52,.13,2.96,.18,4.77,.02,9.48,.82,14.12,2.39,4.64,1.57,8.54,3.86,11.69,6.86,3.16,3,4.95,6.51,5.37,10.51Zm-15.81-5.01c-.16-1.49-.68-2.39-1.56-2.73-.89-.33-2.36-.39-4.43-.17-.52,.05-2.98,.57-7.38,1.56-1.17,1.89-1.98,4.19-2.41,6.92-1.68,8.87-2.52,21.43-2.52,37.7,2.67-2.57,5.52-6.67,8.56-12.31,3.03-5.64,5.5-11.41,7.4-17.29,1.89-5.89,2.68-10.44,2.34-13.67Z"/>
          <path class="cls-2" d="M618.27,286.24c.14,1.29-.12,2.01-.76,2.14l-13.32,2.87c-1.01,.3-2.36,.82-4.05,1.55-1.69,.73-3.24,1.53-4.65,2.4-.12,.14-.42,1.28-.91,3.43-.62,2.81-1.06,5.79-1.31,8.96,.65,0,1.72-.13,3.19-.38,1.48-.25,2.41-.43,2.79-.54,1.1-.12,1.82-.09,2.16,.07,2.54,1.76,4.71,4.73,6.52,8.92,.26,.63,.44,1.39,.53,2.3l.09,.87-.52,.64-11.18,2.74-4.85,1.39c-.31,.16-.54,.48-.68,.96-.26,1.27-.59,3.54-1,6.82-.41,3.28-.64,5.54-.71,6.79,.02,.2,.1,.35,.25,.46l21.46-4.7c1.16-.12,2.43,.74,3.8,2.59,1.37,1.85,2.55,3.93,3.55,6.24,.99,2.31,1.43,3.8,1.3,4.47-.51,.71-1.38,1.13-2.61,1.25l-3.57,.57c-2.12,.36-6.42,1.36-12.91,3.02-1.77,.58-4.82,1.68-9.16,3.31l-5.75,2.17c-.97,.1-1.9-.36-2.79-1.37-.9-1.08-1.53-1.77-1.88-2.06-.86-.11-1.73-.27-2.6-.51-1.93-.98-3.18-1.63-3.73-1.96-.56-.33-.96-.75-1.21-1.24-.19-.5-.3-.98-.35-1.43-.21-2,.51-9.17,2.16-21.49,2.14-16.3,4.32-30.41,6.53-42.34,.2-1.2,1.08-2.2,2.62-3.02l3.66-1.56c5.61-2.61,11.42-4.23,17.43-4.86,1.81-.19,3.08-.23,3.81-.11,1,.22,2.18,1,3.53,2.33,1.35,1.33,2.51,2.79,3.5,4.39,.98,1.59,1.53,2.91,1.64,3.94Z"/>
          <path class="cls-2" d="M669.4,289.7c.18,1.75-.63,2.71-2.44,2.9-2.2,.23-4.78,.24-7.74,.03-2.96-.21-4.65-.69-5.05-1.43-.38-1.72-.86-4.09-1.43-7.1-.78-3.71-2.08-5.47-3.89-5.28-1.23,.13-2.48,.98-3.75,2.55-1.27,1.57-2.11,3.2-2.53,4.87-.73,3.01-1,5.39-.82,7.14,.5,4.78,2.15,8.01,4.93,9.68,.69,.38,1.86,.56,3.48,.52,2.35-.05,3.59-.05,3.72,0,5.67,.52,9.84,2.06,12.49,4.62,2.65,2.56,4.22,6.17,4.71,10.83,.47,4.52-.47,9.2-2.84,14.02-2.37,4.82-5.65,8.92-9.83,12.3-4.19,3.38-8.54,5.3-13.06,5.78-4.59,.48-8.77-.56-12.53-3.14-3.77-2.58-6.5-6.42-8.22-11.53-1.3-3.72-1.93-5.97-1.88-6.76l-.31-2.91,3.41-1.14,11.03-.37c1.11,.02,1.71,.41,1.79,1.18l.96,9.11c.14,1.36,.58,2.75,1.32,4.17,.74,1.43,1.53,2.09,2.37,2,.77-.08,1.8-.58,3.08-1.5,1.27-.92,2.26-1.81,2.95-2.66,4.68-6.44,6.7-12.72,6.06-18.86-.66-6.33-4.19-9.16-10.59-8.49-.26,.03-.48,.08-.67,.17-.19,.08-.41,.14-.67,.17-.91,.09-2.59-.12-5.06-.65-4.29-1.05-7.36-2.74-9.2-5.06-1.85-2.32-2.97-5.45-3.39-9.4-.91-8.66,2.59-15.49,10.49-20.5,3.31-2.11,6.09-3.28,8.35-3.52,3.17-.33,6.34-.09,9.53,.72,3.19,.81,6,2.21,8.43,4.21,2.43,2,4.13,4.51,5.1,7.55l.59,1.9c.74,2.67,1.1,3.97,1.1,3.9Z"/>
          <path class="cls-2" d="M719.85,276.47c.23,2.2-1.24,3.46-4.4,3.79l-8.24,.86-3.17,.63c-.98,2.52-1.78,7.93-2.41,16.23-.2,2.5-.41,7.59-.65,15.26-.16,2.89-.18,5.26-.09,7.12,.1,1.85,.14,3.11,.15,3.76l.63,14.44c.24,1.09,.25,3.01,.02,5.78-.12,.66-.9,1.07-2.32,1.22-1.75,.18-3.99-.06-6.74-.71-2.75-.66-4.65-1.39-5.72-2.19-.7-.38-1.13-1.45-1.32-3.19-.03-.33,.01-3.3,.14-8.93,.06-3.2,.09-5.36,.11-6.48,.21-11.65,.4-19.8,.57-24.46,.16-4.66,.44-9.19,.83-13.61l-.06-.58c-.77,.08-2.88,.56-6.32,1.45l-4.86,1.29c-.84,.09-1.53-.3-2.08-1.15-.55-.86-.98-2.01-1.29-3.44-.31-1.44-.53-2.38-.64-2.82l-1.47-6.51c1.31-1.18,4.01-2.28,8.08-3.3s10.94-2.49,20.61-4.42l11.45-2.08c1.94-.2,3.36-.17,4.27,.09,.91,.26,1.55,.74,1.91,1.42,.37,.68,.76,1.85,1.2,3.5,.26,1.21,.48,2.07,.66,2.58,.71,2.41,1.1,3.9,1.15,4.48Z"/>
          <path class="cls-2" d="M767.84,270.56c.14,1.29-.12,2.01-.76,2.14l-13.32,2.87c-1.02,.3-2.37,.82-4.05,1.55-1.69,.73-3.24,1.53-4.65,2.4-.12,.14-.42,1.28-.92,3.43-.62,2.81-1.06,5.79-1.31,8.96,.65,0,1.72-.13,3.2-.38,1.47-.25,2.4-.43,2.78-.54,1.1-.11,1.82-.09,2.16,.07,2.54,1.76,4.71,4.73,6.52,8.92,.26,.63,.44,1.39,.53,2.29l.09,.87-.52,.64-11.18,2.74-4.85,1.39c-.31,.16-.54,.48-.68,.96-.26,1.27-.59,3.54-1,6.82-.41,3.28-.64,5.54-.71,6.79,.02,.2,.1,.35,.25,.46l21.46-4.7c1.16-.12,2.43,.74,3.8,2.59,1.37,1.85,2.55,3.93,3.55,6.24,.99,2.31,1.43,3.8,1.3,4.47-.51,.71-1.38,1.12-2.61,1.25l-3.57,.57c-2.12,.36-6.42,1.36-12.91,3.02-1.77,.58-4.82,1.68-9.16,3.31l-5.75,2.17c-.97,.1-1.9-.36-2.79-1.37-.9-1.08-1.52-1.77-1.88-2.06-.86-.11-1.73-.28-2.6-.51-1.93-.97-3.18-1.63-3.73-1.96-.56-.33-.96-.75-1.21-1.24-.18-.5-.3-.98-.35-1.43-.21-2,.51-9.17,2.16-21.49,2.14-16.3,4.32-30.41,6.54-42.34,.2-1.2,1.08-2.2,2.62-3.02l3.66-1.56c5.61-2.61,11.41-4.23,17.42-4.86,1.81-.19,3.08-.23,3.81-.11,1,.22,2.18,1,3.53,2.33,1.35,1.33,2.51,2.79,3.5,4.39,.98,1.59,1.53,2.91,1.64,3.94Z"/>
        </g>
        <g>
          <path class="cls-2" d="M174.13,392.87c-5.61,.47-10.86-.83-15.74-3.88-4.89-3.05-7.63-8.07-8.23-15.02-.61-7.18,.85-13.74,4.41-19.73,3.56-5.99,8.38-11.58,14.48-16.83,6.1-5.25,12.84-10.28,20.22-15.12,7.37-4.83,18.65-9.87,21.97-14.37,2.93-3.96,4.26-16.17,6.53-26.66,2.27-10.5,4.2-20.84,5.82-31.04-6.04,11.25-12.7,21.24-19.97,29.91-7.27,8.68-15.73,13.51-25.36,14.43-4.03,.39-8.3-.07-12.82-1.39-4.52-1.32-8.42-3.96-11.68-7.89-3.26-3.93-5.2-9.28-5.77-16-.52-6.06-.07-13.3,1.36-21.75,1.42-8.44,3.42-16.72,6.01-24.83,2.58-8.1,5.38-14.95,8.41-20.53,3.02-5.57,5.88-8.5,8.56-8.77,1.12-.11,2.94,.16,5.49,.81,2.54,.64,5.06,1.62,7.53,2.93,2.48,1.31,4.02,2.84,4.63,4.58-1.78,2.92-3.68,7.09-5.7,12.51-2.02,5.43-3.88,11.39-5.58,17.89-1.7,6.5-3.02,12.85-3.96,19.04-.94,6.2-1.23,11.42-.86,15.68,.31,3.59,1.3,6.55,2.96,8.87,1.67,2.33,4.52,3.3,8.55,2.88,4.7-.49,9.51-3.05,14.41-7.69,4.91-4.65,9.66-10.5,14.25-17.55,4.59-7.05,8.61-14.23,12.05-21.51,.5-2.11,.84-4.71,1.03-7.8,.18-3.09,.62-6.41,1.19-9.87,.6-3.67,2.12-7.5,4.62-11.39,2.48-3.88,6.29-6.2,11.43-6.99,1.55-.24,3.07-.36,4.54-.36,1.47,0,3.23,.06,5.27,.19,.29,3.37-.32,10.11-1.82,20.23-1.51,10.12-3.61,21.93-6.29,35.39-2.69,13.47-5.93,27.06-9.72,40.76,9.49-5.21,18.86-13.17,28.11-23.88,9.25-10.7,16.31-24.6,21.18-41.62,2.27,1.24,3.41,1.86,5.69,3.1-2.38,11.81-6.61,22.4-12.7,31.73-6.1,9.34-13.13,17.55-21.11,24.6-7.98,7.05-16.05,13.07-24.2,18.07-4.78,15.41-10.11,29.79-15.97,43.1-5.86,13.31-12.33,24.09-19.42,32.31-7.09,8.22-15,12.72-23.75,13.45Zm-3.7-11.55c4.04-.33,9.54-5.31,16.5-15.04,6.96-9.72,13.64-24.7,20.04-44.94-7.48,4.96-14.71,10.21-21.68,15.77-6.98,5.55-12.71,11.19-17.18,16.97-4.48,5.78-6.45,11.78-5.91,18.06,.17,2.02,.91,4.11,2.23,6.26,1.31,2.15,3.32,3.13,6.01,2.91Z"/>
          <path class="cls-2" d="M315.35,293.19c-10.23,1.9-18.48,.47-24.76-4.24-6.28-4.71-9.9-12.79-10.88-24.23-.58-6.73-.36-14.78,.65-24.17,1-9.39,2.62-19.51,4.85-30.37,2.24-10.86,4.7-21.65,7.4-32.39-2.04-.09-3.98-.36-5.83-.83-1.85-.47-4.03-.93-6.56-1.4-.31-3.63-.47-5.45-.78-9.08,3.39,.09,6.18,.28,8.35,.57,2.17,.3,4.82,.28,7.96-.07,4.86-17.05,10.22-33.02,16.06-47.92,5.84-14.89,11.75-27.04,17.72-36.42,5.97-9.38,11.29-14.54,15.96-15.48,2.22-.44,4.28-.06,6.19,1.15,1.91,1.21,2.96,2.94,3.15,5.18,.23,2.69-.59,6.96-2.46,12.81-1.87,5.85-4.4,12.58-7.59,20.17-3.2,7.6-6.48,15.37-9.87,23.33-3.38,7.96-6.6,15.37-9.62,22.22-3.02,6.86-5.27,12.36-6.72,16.5,5.85-.21,11.3-.52,16.35-.94,5.05-.42,10.12-1.14,15.23-2.16,6.21-1.24,12.73-3.01,19.54-5.31,6.8-2.29,14.47-5.12,22.99-8.47,4.61-17.37,9.86-34.59,15.74-51.66,5.88-17.06,12.11-32.66,18.7-46.78,6.58-14.11,12.99-25.67,19.22-34.67,6.23-9,11.9-13.99,17.01-14.99,4.44-.87,7.93,.97,10.46,5.49,2.53,4.53,4.03,9.48,4.49,14.86,.65,7.62-.46,17.06-3.34,28.33-2.88,11.27-7.16,23.22-12.86,35.85-5.69,12.64-12.62,24.74-20.78,36.32-8.15,11.57-16.97,21.42-26.44,29.52-2.7,8.08-4.82,17.59-6.37,28.52-1.55,10.93-2.52,21.45-2.89,31.56-.38,10.12-.19,18.29,.57,24.52,4.08-15.66,8.92-30.41,14.51-44.22,5.59-13.81,12.24-25.27,19.93-34.35,7.69-9.09,16.42-14.61,26.19-16.54,9.77-1.93,17.17,.01,22.18,5.77,5,5.76,7.85,12.58,8.52,20.43,.58,6.73-.03,13.62-1.79,20.67-1.77,7.05-3.56,13.79-5.38,20.17-1.83,6.39-2.53,12.06-2.11,16.99,.36,4.26,1.56,7.05,3.59,8.36,2.03,1.32,4.27,1.74,6.71,1.28,4.88-.93,10.34-4.46,16.37-10.59,6.02-6.12,11.86-13.88,17.49-23.29,5.64-9.41,10.16-19.16,13.59-29.29,2.45,1.77,3.68,2.66,6.14,4.44-3.74,11.75-8.66,22.87-14.77,33.37-6.1,10.5-13.04,19.19-20.8,26.09-7.77,6.89-16.21,11.22-25.32,12.98-8,1.55-14.34,.58-19.05-2.93-4.7-3.51-7.34-8.51-7.89-15.01-.4-4.71,0-10.03,1.18-15.97,1.18-5.93,2.35-12.04,3.51-18.31,1.16-6.27,1.52-11.87,1.1-16.81-.46-5.38-1.91-9.04-4.32-10.94-2.42-1.91-5.41-2.52-8.96-1.8-5.55,1.11-10.31,4.3-14.26,9.55-3.96,5.25-7.46,11.78-10.52,19.6-3.06,7.81-5.81,15.91-8.25,24.28-2.45,8.37-4.87,16.35-7.28,23.91-2.4,7.57-4.91,13.9-7.52,19-2.61,5.1-5.7,8.01-9.25,8.74-3.12,.64-5.85-.4-8.23-3.1-2.38-2.71-4.37-6.24-5.98-10.58-1.61-4.35-2.86-9-3.73-13.95-.88-4.95-1.26-9.38-1.13-13.28-7.71,15.49-17.19,28.76-28.45,39.76-11.25,11-23.55,17.78-36.89,20.26Zm8.35-17.29c11.11-2.11,21.86-9.22,32.23-21.32,10.36-12.1,18.92-27.63,25.66-46.58,.95-7.26,1.94-14.2,2.96-20.79,1.02-6.59,2.54-13.98,4.55-22.15-6.98,3.03-13.59,5.52-19.86,7.48-6.27,1.96-12.51,3.56-18.73,4.8-6,1.2-11.98,1.98-17.92,2.34-5.95,.36-11.97,.67-18.05,.9-3.94,12.14-7.01,24.33-9.24,36.58-2.23,12.25-2.84,24.2-1.84,35.86,.8,9.42,2.71,15.9,5.73,19.45,3.01,3.54,7.86,4.7,14.52,3.44Zm95.28-141.62c6.38-7.24,12.25-15.22,17.6-23.95,5.35-8.73,10.01-17.54,14-26.43,3.99-8.89,7.17-17.22,9.55-24.99,2.39-7.77,3.63-14.16,3.97-18.91,.18-2.51,.18-4.48-.15-5.78-1.75,.8-4.41,3.89-8.02,9.27-3.6,5.39-7.73,12.66-12.36,21.8-4.64,9.15-9.16,19.64-13.57,31.49-4.41,11.85-8.08,24.35-11.02,37.5Z"/>
          <path class="cls-2" d="M566.87,239.76c-9.81,1.55-16.87-.49-21.2-6.24-4.33-5.75-6.84-12.65-7.53-20.72-.61-7.17-.13-14.65,1.47-22.43,1.59-7.78,4-15.24,7.24-22.38,3.23-7.13,7.01-13.09,11.35-17.87,4.33-4.78,8.95-7.54,13.86-8.27,1.34-.2,2.98-.16,4.92,.12,1.94,.28,3.4,.81,4.37,1.58-2.23,3.05-4.52,7.24-6.89,12.59-2.37,5.35-4.47,11.06-6.32,17.14-1.85,6.08-3.26,12.09-4.22,18.04-.96,5.94-1.24,11.27-.83,15.98,.44,5.16,1.68,9.06,3.71,11.69,2.03,2.63,5.05,3.64,9.06,3.03,4.46-.68,9.55-3.87,15.28-9.56,5.72-5.68,11.08-12.35,16.07-20.02-7.44-5.17-13.12-11.48-17.04-18.99-3.91-7.5-6.3-16.3-7.17-26.39-.48-5.6,.23-11.72,2.16-18.34,1.92-6.62,5.26-12.42,10.04-17.36,4.77-4.93,11.29-7.92,19.57-8.88,9.39-1.08,16.16,.9,20.31,5.8,4.15,4.91,6.54,11.07,7.17,18.47,.71,8.3-.67,17.85-4.15,28.71-3.48,10.86-7.83,21.32-13.07,31.42,3.29,1.44,6.83,1.96,10.64,1.56,3.36-.35,7.32-1.53,11.89-3.54,4.57-2,8.89-5.03,12.95-9.08,4.05-4.05,7.17-9.18,9.35-15.42,2.29,1.47,3.44,2.2,5.73,3.68-3.78,11.29-9.55,19.74-17.3,25.47-7.76,5.72-15.44,9-23.04,9.8-2.91,.31-5.85,.34-8.8,.11-2.95-.23-5.71-.76-8.26-1.59-6.8,10.32-14.65,19.49-23.56,27.53-8.91,8.05-18.16,12.84-27.73,14.35Zm47.18-58.38c4.91-8.52,8.83-17.52,11.75-27,2.91-9.49,4.05-18.02,3.4-25.65-.48-5.6-1.67-9.62-3.56-12.01-1.89-2.39-4.31-3.44-7.21-3.11-4.48,.51-8.68,4.12-12.63,10.84-3.94,6.72-5.51,14.81-4.7,24.22,.46,5.38,1.81,11.27,4.05,17.67,2.24,6.4,5.21,11.41,8.91,15.03Z"/>
          <path class="cls-2" d="M780.47,222.05c-8.4-.49-14.98-2.86-19.76-7.25-4.78-4.4-7.45-9.82-8.01-16.33-.4-4.71-.03-9.57,1.13-14.57,1.15-5,2.29-10.11,3.43-15.33,1.14-5.22,1.5-10.29,1.08-15.22-.46-5.38-2.03-9.13-4.69-11.23-2.66-2.09-5.69-3.18-9.08-3.25-6.79-.13-13.5,2.63-20.13,8.28-6.63,5.65-12.96,12.8-19,21.42-6.04,8.62-11.59,17.7-16.64,27.19-5.07,9.5-9.42,18-13.07,25.47-4.04,.28-7.91-.11-11.61-1.17-3.7-1.06-6.93-3.15-9.69-6.3,.13-1.14,1.13-4.68,2.99-10.6,1.87-5.92,3.91-13.08,6.13-21.49,2.21-8.4,4.13-17.06,5.74-25.97,1.61-8.91,.09-20.18,1.47-24.46,.41-1.28,3.65-3.51,6.64-5.48,2.99-1.97,6.18-3.05,9.56-3.21,7.19-.34,11.08,2.8,11.63,9.3,.25,2.92-.03,7.59-.84,14.03-.8,6.44-2.01,13.52-3.6,21.24,5.14-8.55,10.98-16.8,17.54-24.69,6.55-7.89,13.57-14.3,21.06-19.18,7.49-4.88,15.31-7.19,23.47-6.88,9.29,.35,16.43,3.96,21.4,10.64,4.98,6.68,7.81,13.98,8.48,21.82,.58,6.73-.03,12.98-1.79,18.76-1.77,5.78-3.5,11.25-5.2,16.38-1.71,5.14-2.34,10.3-1.9,15.45,.33,3.81,1.41,6.6,3.26,8.39,1.85,1.78,4.02,2.75,6.52,2.93,5.45,.37,10.85-1.81,16.21-6.54,5.36-4.73,10.37-10.75,15.05-18.08,4.68-7.33,8.74-14.72,12.16-22.22,2.21,2.04,3.31,3.06,5.52,5.11-3.87,10.28-8.39,19.52-13.55,27.76-5.18,8.24-11.18,14.64-18.01,19.22-6.83,4.59-14.8,6.58-23.88,6.05Z"/>
        </g>
        <g>
          <path class="cls-2" d="M550.76,419.47c.05,.47-.04,1.66-.26,3.57-.22,1.9-.45,2.96-.68,3.17-.23,.28-.58,.44-1.05,.49l-8.19,.37-3.2,.34c.11-.01,.08-.02-.08-.02-.17,0-.41,0-.74,0-.51,.01-1.74,.13-3.69,.33-.02,.18-.18,.42-.47,.71l-2.11,.22c-2.06,.22-4.3,.31-6.72,.27l-.36-1.39c-.25-.27-.38-.49-.4-.67l.21-1.17c.12-.63,.19-1.15,.22-1.56,.15-5.24,3.89-11.19,11.23-17.84,2.37-2.11,4.03-4.16,4.98-6.14,.94-1.98,1.32-3.82,1.15-5.52-.33-3.11-1.31-5.14-2.94-6.11-.62-.37-1.35-.52-2.18-.43-.94,.1-1.75,.55-2.44,1.35-.81,1-1.36,2.17-1.66,3.52-.03,1.47-.08,2.7-.16,3.69-.02,.15-.12,.39-.31,.72-.18,.33-.33,.52-.43,.57-1.17,.34-2.28,.57-3.33,.68l-3.81,.29c-.23-.41-.34-.66-.35-.73-.27-2.57,.14-4.96,1.22-7.17,1.08-2.21,2.62-4.01,4.61-5.39,1.99-1.38,4.15-2.19,6.46-2.43,3.69-.39,6.63,.47,8.82,2.58,2.2,2.11,3.51,5.19,3.93,9.24,.22,2.1,.18,3.75-.11,4.97-.29,1.22-.92,2.44-1.89,3.65-.97,1.22-2.79,3.23-5.45,6.03l-2.32,2.44c-2.67,2.8-4.18,5.48-4.53,8.04l16.38-1.72c.37,.11,.6,.47,.66,1.08Z"/>
          <path class="cls-2" d="M578.17,392.2c.36,3.4,.24,7.22-.36,11.47-.6,4.25-1.62,7.82-3.07,10.71-1.37,2.67-3.56,5.93-6.6,9.79-.29,.36-.95,.76-1.98,1.19-1.03,.44-1.89,.69-2.58,.76-.9,.1-1.68,0-2.33-.3-.3-.37-.68-.73-1.15-1.09-2.79-1.2-5.03-2.97-6.7-5.3s-2.65-4.85-2.93-7.56c-.3-2.86-.31-5.76-.04-8.71,1.16-12.26,4.25-19.62,9.25-22.08,1.78-.84,2.99-1.3,3.64-1.37,.33-.03,1.73,.09,4.21,.38,.43,.25,1.27,.61,2.53,1.1,1.87,.46,3.34,1.07,4.38,1.82,1.05,.75,1.87,1.83,2.45,3.25,.59,1.42,1.01,3.39,1.28,5.93Zm-8.78-.62c-.14-1.34-.51-3.14-1.12-5.42-.02-.22-.19-.43-.51-.66-.32-.22-.58-.32-.8-.3-1.48,.16-2.81,1.2-3.98,3.13-1.17,1.93-2.09,4.26-2.78,6.98-.68,2.72-1.13,5.35-1.34,7.9-.18,2.43-.15,4.82,.09,7.17,.35,3.33,1.25,6.21,2.72,8.65,1.91-1.95,3.51-4.52,4.78-7.71,1.27-3.18,2.16-6.53,2.65-10.04,.49-3.51,.58-6.74,.27-9.71Z"/>
          <path class="cls-2" d="M606.73,413.6c.05,.47-.04,1.66-.26,3.57-.22,1.9-.45,2.96-.68,3.17-.23,.28-.57,.44-1.05,.49l-8.19,.37-3.2,.34c.11,0,.08-.02-.08-.02-.17,0-.41,0-.74,0-.51,.02-1.74,.13-3.69,.33-.02,.19-.17,.42-.47,.71l-2.11,.22c-2.06,.22-4.3,.31-6.72,.27l-.37-1.39c-.25-.27-.38-.49-.4-.67l.21-1.17c.12-.63,.19-1.15,.22-1.56,.15-5.24,3.89-11.19,11.23-17.85,2.37-2.11,4.03-4.16,4.97-6.14,.94-1.98,1.33-3.82,1.15-5.52-.33-3.11-1.31-5.14-2.94-6.11-.62-.37-1.35-.52-2.18-.43-.94,.1-1.75,.55-2.43,1.35-.81,1-1.36,2.17-1.66,3.52-.03,1.47-.08,2.7-.16,3.69-.02,.15-.12,.39-.31,.72-.18,.33-.33,.52-.43,.57-1.17,.34-2.28,.57-3.33,.68l-3.81,.29c-.23-.41-.34-.66-.35-.73-.27-2.57,.14-4.96,1.22-7.17,1.08-2.22,2.62-4.01,4.61-5.39,1.99-1.38,4.15-2.19,6.46-2.43,3.69-.39,6.63,.47,8.82,2.58,2.2,2.11,3.51,5.19,3.93,9.24,.22,2.1,.18,3.76-.11,4.97-.29,1.22-.92,2.44-1.89,3.65-.97,1.22-2.79,3.23-5.45,6.03l-2.32,2.44c-2.67,2.8-4.18,5.48-4.53,8.04l16.38-1.72c.37,.11,.6,.47,.66,1.08Z"/>
          <path class="cls-2" d="M639.68,400.06c.04,.69-.24,1.16-.84,1.41-.84,.31-2.06,.56-3.65,.77l-4.5,1.02c-.5,.13-.88,.31-1.15,.56,.02,.22,0,.58-.05,1.1l.94,12.62c.03,.29-.04,.65-.22,1.09-.17,.44-.39,.67-.64,.7,.07,0-1.5-.41-4.73-1.2l-1.86-.46-.25-.3c-.16-.49-.27-.98-.32-1.45l-.05-.49v-2.19s0-3.12,0-3.12l-.34-5.28c-.16-.13-.31-.19-.45-.17l-8.86,2.35c-1.65-.05-3.76-1.16-6.33-3.34-.08-.06-.13-.22-.16-.48l-.03-.33c-.1-1.67,5.85-11.32,17.85-28.96l.7-.13c.25-.03,.71-.04,1.37-.04,.71,.18,2.08,.97,4.09,2.37,.2,.16,.32,.42,.36,.78,.03,.66-.15,1.53-.55,2.63-.4,1.1-.62,1.73-.68,1.88l-.25,2.33,.31,8.19,.31,2.98c2.57-.6,4.45-.96,5.64-1.09l2.5,.29c1.17,3.46,1.78,5.44,1.83,5.95Zm-21.84-2.81l4.48-1.24-.32-4.63c-1.44,1.32-2.82,3.27-4.16,5.86Z"/>
        </g>
        <path class="cls-3" d="M787.55,379.49c1.86,1.66,2.31,3.16,.15,3.48-3.1,.42-9.73-1.02-14.28-1.91-3.55-.77-7.18-1.45-11.01-1.79-3.82-.19-7.8-.23-11.7,.57-10.88,1.91-21.07,6.74-31.35,11.52-6.85,3.23-14.31,5.29-21.7,6.86-6.75,1.34-13.85,1.21-20.68-.14-3.08-.58-6.18-1.61-9.12-2.65-2.88-1-5.76-2.16-8.3-4.06-3.39-2.57-4.32-5.32-3.83-6.72,.57-1.37,2.08-1.71,4.16-.85,1.61,.66,3.87,2.14,6.41,3.51,2.55,1.32,5.31,2.59,7.41,3.22,5.98,1.89,12.41,2.56,18.84,1.95,7.73-.75,15.41-2.89,22.72-6.04,3.62-1.43,7.57-3.22,11.38-4.83,3.92-1.5,7.82-3.02,11.85-4.26,6.81-2.12,13.71-4.1,21.04-4.66,6.93-.59,14.18,.36,20.79,2.71,3.27,1.16,5.74,2.75,7.22,4.09Z"/>
        <path class="cls-3" d="M499,411.89c1.86,1.66,2.31,3.16,.15,3.48-3.1,.42-9.73-1.02-14.28-1.91-3.55-.77-7.18-1.45-11.01-1.79-3.82-.19-7.8-.23-11.7,.57-10.88,1.91-21.07,6.74-31.35,11.52-6.85,3.23-14.31,5.29-21.7,6.86-6.75,1.34-13.85,1.21-20.68-.14-3.08-.58-6.18-1.61-9.12-2.65-2.88-1-5.76-2.16-8.3-4.06-3.39-2.57-4.32-5.32-3.83-6.72,.57-1.37,2.08-1.71,4.16-.85,1.61,.66,3.87,2.14,6.41,3.51,2.55,1.32,5.31,2.59,7.41,3.22,5.98,1.89,12.41,2.56,18.84,1.95,7.73-.75,15.41-2.89,22.72-6.04,3.62-1.43,7.57-3.22,11.38-4.83,3.92-1.5,7.82-3.02,11.85-4.26,6.81-2.12,13.71-4.1,21.04-4.66,6.93-.59,14.18,.36,20.79,2.71,3.27,1.16,5.74,2.75,7.22,4.09Z"/>
        <g>
          <path class="cls-2" d="M174.13,392.87c-5.61,.47-10.86-.83-15.74-3.88-4.89-3.05-7.63-8.07-8.23-15.02-.61-7.18,.85-13.74,4.41-19.73,3.56-5.99,8.38-11.58,14.48-16.83,6.1-5.25,12.84-10.28,20.22-15.12,7.37-4.83,18.65-9.87,21.97-14.37,2.93-3.96,4.26-16.17,6.53-26.66,2.27-10.5,4.2-20.84,5.82-31.04-6.04,11.25-12.7,21.24-19.97,29.91-7.27,8.68-15.73,13.51-25.36,14.43-4.03,.39-8.3-.07-12.82-1.39-4.52-1.32-8.42-3.96-11.68-7.89-3.26-3.93-5.2-9.28-5.77-16-.52-6.06-.07-13.3,1.36-21.75,1.42-8.44,3.42-16.72,6.01-24.83,2.58-8.1,5.38-14.95,8.41-20.53,3.02-5.57,5.88-8.5,8.56-8.77,1.12-.11,2.94,.16,5.49,.81,2.54,.64,5.06,1.62,7.53,2.93,2.48,1.31,4.02,2.84,4.63,4.58-1.78,2.92-3.68,7.09-5.7,12.51-2.02,5.43-3.88,11.39-5.58,17.89-1.7,6.5-3.02,12.85-3.96,19.04-.94,6.2-1.23,11.42-.86,15.68,.31,3.59,1.3,6.55,2.96,8.87,1.67,2.33,4.52,3.3,8.55,2.88,4.7-.49,9.51-3.05,14.41-7.69,4.91-4.65,9.66-10.5,14.25-17.55,4.59-7.05,8.61-14.23,12.05-21.51,.5-2.11,.84-4.71,1.03-7.8,.18-3.09,.62-6.41,1.19-9.87,.6-3.67,2.12-7.5,4.62-11.39,2.48-3.88,6.29-6.2,11.43-6.99,1.55-.24,3.07-.36,4.54-.36,1.47,0,3.23,.06,5.27,.19,.29,3.37-.32,10.11-1.82,20.23-1.51,10.12-3.61,21.93-6.29,35.39-2.69,13.47-5.93,27.06-9.72,40.76,9.49-5.21,18.86-13.17,28.11-23.88,9.25-10.7,16.31-24.6,21.18-41.62,2.27,1.24,3.41,1.86,5.69,3.1-2.38,11.81-6.61,22.4-12.7,31.73-6.1,9.34-13.13,17.55-21.11,24.6-7.98,7.05-16.05,13.07-24.2,18.07-4.78,15.41-10.11,29.79-15.97,43.1-5.86,13.31-12.33,24.09-19.42,32.31-7.09,8.22-15,12.72-23.75,13.45Zm-3.7-11.55c4.04-.33,9.54-5.31,16.5-15.04,6.96-9.72,13.64-24.7,20.04-44.94-7.48,4.96-14.71,10.21-21.68,15.77-6.98,5.55-12.71,11.19-17.18,16.97-4.48,5.78-6.45,11.78-5.91,18.06,.17,2.02,.91,4.11,2.23,6.26,1.31,2.15,3.32,3.13,6.01,2.91Z"/>
          <path class="cls-2" d="M315.35,293.19c-10.23,1.9-18.48,.47-24.76-4.24-6.28-4.71-9.9-12.79-10.88-24.23-.58-6.73-.36-14.78,.65-24.17,1-9.39,2.62-19.51,4.85-30.37,2.24-10.86,4.7-21.65,7.4-32.39-2.04-.09-3.98-.36-5.83-.83-1.85-.47-4.03-.93-6.56-1.4-.31-3.63-.47-5.45-.78-9.08,3.39,.09,6.18,.28,8.35,.57,2.17,.3,4.82,.28,7.96-.07,4.86-17.05,10.22-33.02,16.06-47.92,5.84-14.89,11.75-27.04,17.72-36.42,5.97-9.38,11.29-14.54,15.96-15.48,2.22-.44,4.28-.06,6.19,1.15,1.91,1.21,2.96,2.94,3.15,5.18,.23,2.69-.59,6.96-2.46,12.81-1.87,5.85-4.4,12.58-7.59,20.17-3.2,7.6-6.48,15.37-9.87,23.33-3.38,7.96-6.6,15.37-9.62,22.22-3.02,6.86-5.27,12.36-6.72,16.5,5.85-.21,11.3-.52,16.35-.94,5.05-.42,10.12-1.14,15.23-2.16,6.21-1.24,12.73-3.01,19.54-5.31,6.8-2.29,14.47-5.12,22.99-8.47,4.61-17.37,9.86-34.59,15.74-51.66,5.88-17.06,12.11-32.66,18.7-46.78,6.58-14.11,12.99-25.67,19.22-34.67,6.23-9,11.9-13.99,17.01-14.99,4.44-.87,7.93,.97,10.46,5.49,2.53,4.53,4.03,9.48,4.49,14.86,.65,7.62-.46,17.06-3.34,28.33-2.88,11.27-7.16,23.22-12.86,35.85-5.69,12.64-12.62,24.74-20.78,36.32-8.15,11.57-16.97,21.42-26.44,29.52-2.7,8.08-4.82,17.59-6.37,28.52-1.55,10.93-2.52,21.45-2.89,31.56-.38,10.12-.19,18.29,.57,24.52,4.08-15.66,8.92-30.41,14.51-44.22,5.59-13.81,12.24-25.27,19.93-34.35,7.69-9.09,16.42-14.61,26.19-16.54,9.77-1.93,17.17,.01,22.18,5.77,5,5.76,7.85,12.58,8.52,20.43,.58,6.73-.03,13.62-1.79,20.67-1.77,7.05-3.56,13.79-5.38,20.17-1.83,6.39-2.53,12.06-2.11,16.99,.36,4.26,1.56,7.05,3.59,8.36,2.03,1.32,4.27,1.74,6.71,1.28,4.88-.93,10.34-4.46,16.37-10.59,6.02-6.12,11.86-13.88,17.49-23.29,5.64-9.41,10.16-19.16,13.59-29.29,2.45,1.77,3.68,2.66,6.14,4.44-3.74,11.75-8.66,22.87-14.77,33.37-6.1,10.5-13.04,19.19-20.8,26.09-7.77,6.89-16.21,11.22-25.32,12.98-8,1.55-14.34,.58-19.05-2.93-4.7-3.51-7.34-8.51-7.89-15.01-.4-4.71,0-10.03,1.18-15.97,1.18-5.93,2.35-12.04,3.51-18.31,1.16-6.27,1.52-11.87,1.1-16.81-.46-5.38-1.91-9.04-4.32-10.94-2.42-1.91-5.41-2.52-8.96-1.8-5.55,1.11-10.31,4.3-14.26,9.55-3.96,5.25-7.46,11.78-10.52,19.6-3.06,7.81-5.81,15.91-8.25,24.28-2.45,8.37-4.87,16.35-7.28,23.91-2.4,7.57-4.91,13.9-7.52,19-2.61,5.1-5.7,8.01-9.25,8.74-3.12,.64-5.85-.4-8.23-3.1-2.38-2.71-4.37-6.24-5.98-10.58-1.61-4.35-2.86-9-3.73-13.95-.88-4.95-1.26-9.38-1.13-13.28-7.71,15.49-17.19,28.76-28.45,39.76-11.25,11-23.55,17.78-36.89,20.26Zm8.35-17.29c11.11-2.11,21.86-9.22,32.23-21.32,10.36-12.1,18.92-27.63,25.66-46.58,.95-7.26,1.94-14.2,2.96-20.79,1.02-6.59,2.54-13.98,4.55-22.15-6.98,3.03-13.59,5.52-19.86,7.48-6.27,1.96-12.51,3.56-18.73,4.8-6,1.2-11.98,1.98-17.92,2.34-5.95,.36-11.97,.67-18.05,.9-3.94,12.14-7.01,24.33-9.24,36.58-2.23,12.25-2.84,24.2-1.84,35.86,.8,9.42,2.71,15.9,5.73,19.45,3.01,3.54,7.86,4.7,14.52,3.44Zm95.28-141.62c6.38-7.24,12.25-15.22,17.6-23.95,5.35-8.73,10.01-17.54,14-26.43,3.99-8.89,7.17-17.22,9.55-24.99,2.39-7.77,3.63-14.16,3.97-18.91,.18-2.51,.18-4.48-.15-5.78-1.75,.8-4.41,3.89-8.02,9.27-3.6,5.39-7.73,12.66-12.36,21.8-4.64,9.15-9.16,19.64-13.57,31.49-4.41,11.85-8.08,24.35-11.02,37.5Z"/>
          <path class="cls-2" d="M566.87,239.76c-9.81,1.55-16.87-.49-21.2-6.24-4.33-5.75-6.84-12.65-7.53-20.72-.61-7.17-.13-14.65,1.47-22.43,1.59-7.78,4-15.24,7.24-22.38,3.23-7.13,7.01-13.09,11.35-17.87,4.33-4.78,8.95-7.54,13.86-8.27,1.34-.2,2.98-.16,4.92,.12,1.94,.28,3.4,.81,4.37,1.58-2.23,3.05-4.52,7.24-6.89,12.59-2.37,5.35-4.47,11.06-6.32,17.14-1.85,6.08-3.26,12.09-4.22,18.04-.96,5.94-1.24,11.27-.83,15.98,.44,5.16,1.68,9.06,3.71,11.69,2.03,2.63,5.05,3.64,9.06,3.03,4.46-.68,9.55-3.87,15.28-9.56,5.72-5.68,11.08-12.35,16.07-20.02-7.44-5.17-13.12-11.48-17.04-18.99-3.91-7.5-6.3-16.3-7.17-26.39-.48-5.6,.23-11.72,2.16-18.34,1.92-6.62,5.26-12.42,10.04-17.36,4.77-4.93,11.29-7.92,19.57-8.88,9.39-1.08,16.16,.9,20.31,5.8,4.15,4.91,6.54,11.07,7.17,18.47,.71,8.3-.67,17.85-4.15,28.71-3.48,10.86-7.83,21.32-13.07,31.42,3.29,1.44,6.83,1.96,10.64,1.56,3.36-.35,7.32-1.53,11.89-3.54,4.57-2,8.89-5.03,12.95-9.08,4.05-4.05,7.17-9.18,9.35-15.42,2.29,1.47,3.44,2.2,5.73,3.68-3.78,11.29-9.55,19.74-17.3,25.47-7.76,5.72-15.44,9-23.04,9.8-2.91,.31-5.85,.34-8.8,.11-2.95-.23-5.71-.76-8.26-1.59-6.8,10.32-14.65,19.49-23.56,27.53-8.91,8.05-18.16,12.84-27.73,14.35Zm47.18-58.38c4.91-8.52,8.83-17.52,11.75-27,2.91-9.49,4.05-18.02,3.4-25.65-.48-5.6-1.67-9.62-3.56-12.01-1.89-2.39-4.31-3.44-7.21-3.11-4.48,.51-8.68,4.12-12.63,10.84-3.94,6.72-5.51,14.81-4.7,24.22,.46,5.38,1.81,11.27,4.05,17.67,2.24,6.4,5.21,11.41,8.91,15.03Z"/>
          <path class="cls-2" d="M780.47,222.05c-8.4-.49-14.98-2.86-19.76-7.25-4.78-4.4-7.45-9.82-8.01-16.33-.4-4.71-.03-9.57,1.13-14.57,1.15-5,2.29-10.11,3.43-15.33,1.14-5.22,1.5-10.29,1.08-15.22-.46-5.38-2.03-9.13-4.69-11.23-2.66-2.09-5.69-3.18-9.08-3.25-6.79-.13-13.5,2.63-20.13,8.28-6.63,5.65-12.96,12.8-19,21.42-6.04,8.62-11.59,17.7-16.64,27.19-5.07,9.5-9.42,18-13.07,25.47-4.04,.28-7.91-.11-11.61-1.17-3.7-1.06-6.93-3.15-9.69-6.3,.13-1.14,1.13-4.68,2.99-10.6,1.87-5.92,3.91-13.08,6.13-21.49,2.21-8.4,4.13-17.06,5.74-25.97,1.61-8.91,.09-20.18,1.47-24.46,.41-1.28,3.65-3.51,6.64-5.48,2.99-1.97,6.18-3.05,9.56-3.21,7.19-.34,11.08,2.8,11.63,9.3,.25,2.92-.03,7.59-.84,14.03-.8,6.44-2.01,13.52-3.6,21.24,5.14-8.55,10.98-16.8,17.54-24.69,6.55-7.89,13.57-14.3,21.06-19.18,7.49-4.88,15.31-7.19,23.47-6.88,9.29,.35,16.43,3.96,21.4,10.64,4.98,6.68,7.81,13.98,8.48,21.82,.58,6.73-.03,12.98-1.79,18.76-1.77,5.78-3.5,11.25-5.2,16.38-1.71,5.14-2.34,10.3-1.9,15.45,.33,3.81,1.41,6.6,3.26,8.39,1.85,1.78,4.02,2.75,6.52,2.93,5.45,.37,10.85-1.81,16.21-6.54,5.36-4.73,10.37-10.75,15.05-18.08,4.68-7.33,8.74-14.72,12.16-22.22,2.21,2.04,3.31,3.06,5.52,5.11-3.87,10.28-8.39,19.52-13.55,27.76-5.18,8.24-11.18,14.64-18.01,19.22-6.83,4.59-14.8,6.58-23.88,6.05Z"/>
        </g>
        <path class="cls-2" d="M830.14,289.57c-.39,.33-.72,.52-.98,.59h-2.63l-13.25-.39c.26,1.23,1.43,3.31,3.51,6.24,2.08,3.05,3.15,5.13,3.22,6.24-1.23,.84-2.05,1.27-2.44,1.27-.33,0-1.4-1.3-3.22-3.9-1.88-2.79-3.22-4.48-4-5.07l-.88,12.67c0,.45-.2,.75-.58,.88-.45,.2-1.56,.29-3.31,.29-2.08,0-3.4-.18-3.95-.54-.55-.36-.83-1.22-.83-2.58,0-.71,.13-2.47,.39-5.26l-.2-5.46c-.97,.78-2.44,2.18-4.39,4.19-1.88,1.88-2.99,2.83-3.31,2.83-.58,0-1.22-.37-1.9-1.12-.68-.75-1.02-1.41-1.02-2,0-.26,1.53-2.21,4.58-5.85,.45-.45,1.1-1.27,1.95-2.44-.39-.13-1.04-.2-1.95-.2l-7.99,.78c-.65,0-1.17-.01-1.56-.05-.39-.03-.7-.37-.93-1.02-.23-.65-.41-1.17-.54-1.56-.85-2.34-1.33-4.87-1.46-7.6,.84-.52,2.66-.84,5.46-.97l8.28-.2c.39,0,1.3-.16,2.73-.49-.33-.52-1.38-1.57-3.17-3.17-1.79-1.59-3.46-3.04-5.02-4.34-2.08-1.88-3.12-2.92-3.12-3.12,0-.98,1.04-1.46,3.12-1.46,1.04,0,1.75,.06,2.14,.19l9.45,8.09c.39-1.3,.71-3.18,.98-5.65l.68-7.11c.13-.45,.42-.91,.88-1.36,.58,0,2.34,.42,5.26,1.27,.45,.06,1.43,.33,2.92,.78,.52,.33,.88,1.2,1.07,2.63l-1.07,7.5v1.95l1.56-1.27c.78-.58,2.55-1.96,5.31-4.14,2.76-2.18,4.4-3.27,4.92-3.27,.58,0,1.13,1.33,1.66,4,0,.84-.13,1.36-.39,1.56-1.43,.85-3.2,2.05-5.31,3.61-2.11,1.56-3.62,2.79-4.53,3.7,.78,.13,1.46,.19,2.05,.19l2.73-.19,2.83-.2c1.62,0,2.81,.26,3.56,.78,.75,.52,1.25,1.53,1.51,3.02,.78,3.57,1.17,5.82,1.17,6.73Z"/>
        <path class="cls-2" d="M324.45,354.3c-.39,.33-.72,.52-.98,.59h-2.63l-13.25-.39c.26,1.23,1.43,3.31,3.51,6.24,2.08,3.05,3.15,5.13,3.22,6.24-1.23,.84-2.05,1.27-2.44,1.27-.33,0-1.4-1.3-3.22-3.9-1.88-2.79-3.22-4.48-4-5.07l-.88,12.67c0,.45-.2,.75-.58,.88-.46,.2-1.56,.29-3.32,.29-2.08,0-3.39-.18-3.95-.54-.55-.36-.83-1.22-.83-2.58,0-.71,.13-2.47,.39-5.26l-.2-5.46c-.98,.78-2.44,2.18-4.39,4.19-1.88,1.88-2.99,2.83-3.31,2.83-.58,0-1.22-.37-1.9-1.12-.68-.75-1.02-1.41-1.02-2,0-.26,1.53-2.21,4.58-5.85,.45-.45,1.11-1.27,1.95-2.44-.39-.13-1.04-.2-1.95-.2l-7.99,.78c-.65,0-1.17-.01-1.56-.05-.39-.03-.7-.37-.93-1.02-.23-.65-.41-1.17-.54-1.56-.85-2.34-1.33-4.87-1.46-7.6,.84-.52,2.66-.84,5.46-.97l8.29-.2c.39,0,1.3-.16,2.73-.49-.33-.52-1.38-1.57-3.17-3.17-1.79-1.59-3.46-3.04-5.02-4.34-2.08-1.88-3.12-2.92-3.12-3.12,0-.98,1.04-1.46,3.12-1.46,1.04,0,1.76,.06,2.14,.19l9.45,8.09c.39-1.3,.71-3.18,.98-5.65l.68-7.11c.13-.45,.42-.91,.88-1.36,.59,0,2.34,.42,5.26,1.27,.45,.06,1.43,.33,2.92,.78,.52,.33,.88,1.2,1.07,2.63l-1.07,7.5v1.95l1.56-1.27c.78-.58,2.55-1.96,5.31-4.14,2.76-2.18,4.4-3.27,4.92-3.27,.58,0,1.14,1.33,1.66,4,0,.84-.13,1.36-.39,1.56-1.43,.85-3.2,2.05-5.31,3.61-2.11,1.56-3.62,2.79-4.53,3.7,.78,.13,1.46,.19,2.05,.19l2.73-.19,2.83-.2c1.62,0,2.81,.26,3.56,.78,.75,.52,1.25,1.53,1.51,3.02,.78,3.57,1.17,5.82,1.17,6.73Z"/>
        <g>
          <path class="cls-4" d="M166.4,400.6c-5.61,.47-10.86-.83-15.74-3.88-4.89-3.05-7.63-8.07-8.23-15.02-.61-7.18,.85-13.74,4.41-19.73,3.56-5.99,8.38-11.58,14.48-16.83,6.1-5.25,12.84-10.28,20.22-15.12,7.37-4.83,18.65-9.87,21.97-14.37,2.93-3.96,4.26-16.17,6.53-26.66,2.27-10.5,4.2-20.84,5.82-31.04-6.04,11.25-12.7,21.24-19.97,29.91-7.27,8.68-15.73,13.51-25.36,14.43-4.03,.39-8.3-.07-12.82-1.39-4.52-1.32-8.42-3.96-11.68-7.89-3.26-3.93-5.2-9.28-5.77-16-.52-6.06-.07-13.3,1.36-21.75,1.42-8.44,3.42-16.72,6.01-24.83,2.58-8.1,5.38-14.95,8.41-20.53,3.02-5.57,5.88-8.5,8.56-8.77,1.12-.11,2.94,.16,5.49,.81,2.54,.64,5.06,1.62,7.53,2.93,2.48,1.31,4.02,2.84,4.63,4.58-1.78,2.92-3.68,7.09-5.7,12.51-2.02,5.43-3.88,11.39-5.58,17.89-1.7,6.5-3.02,12.85-3.96,19.04-.94,6.2-1.23,11.42-.86,15.68,.31,3.59,1.3,6.55,2.96,8.87,1.67,2.33,4.52,3.3,8.55,2.88,4.7-.49,9.51-3.05,14.41-7.69,4.91-4.65,9.66-10.5,14.25-17.55,4.59-7.05,8.61-14.23,12.05-21.51,.5-2.11,.84-4.71,1.03-7.8,.18-3.09,.62-6.41,1.19-9.87,.6-3.67,2.12-7.5,4.62-11.39,2.48-3.88,6.29-6.2,11.43-6.99,1.55-.24,3.07-.36,4.54-.36,1.47,0,3.23,.06,5.27,.19,.29,3.37-.32,10.11-1.82,20.23-1.51,10.12-3.61,21.93-6.29,35.39-2.69,13.47-5.93,27.06-9.72,40.76,9.49-5.21,18.86-13.17,28.11-23.88,9.25-10.7,16.31-24.6,21.18-41.62,2.27,1.24,3.41,1.86,5.69,3.1-2.38,11.81-6.61,22.4-12.7,31.73-6.1,9.34-13.13,17.55-21.11,24.6s-16.05,13.07-24.2,18.07c-4.78,15.41-10.11,29.79-15.97,43.1-5.86,13.31-12.33,24.09-19.42,32.31-7.09,8.22-15,12.72-23.75,13.45Zm-3.7-11.55c4.04-.33,9.54-5.31,16.5-15.04,6.96-9.72,13.64-24.7,20.04-44.94-7.48,4.96-14.71,10.21-21.68,15.77-6.98,5.55-12.71,11.19-17.18,16.97-4.48,5.78-6.45,11.78-5.91,18.06,.17,2.02,.91,4.11,2.23,6.26,1.31,2.15,3.32,3.13,6.01,2.91Z"/>
          <path class="cls-4" d="M307.61,300.92c-10.23,1.9-18.48,.47-24.76-4.24-6.28-4.71-9.9-12.79-10.88-24.23-.58-6.73-.36-14.78,.65-24.17,1-9.39,2.62-19.51,4.85-30.37,2.24-10.86,4.7-21.65,7.4-32.39-2.04-.09-3.98-.36-5.83-.83-1.85-.47-4.03-.93-6.56-1.4-.31-3.63-.47-5.45-.78-9.08,3.39,.09,6.18,.28,8.35,.57,2.17,.3,4.82,.28,7.96-.07,4.86-17.05,10.22-33.02,16.06-47.92,5.84-14.89,11.75-27.04,17.72-36.42,5.97-9.38,11.29-14.54,15.96-15.48,2.22-.44,4.28-.06,6.19,1.15,1.91,1.21,2.96,2.94,3.15,5.18,.23,2.69-.59,6.96-2.46,12.81-1.87,5.85-4.4,12.58-7.59,20.17-3.2,7.6-6.48,15.37-9.87,23.33-3.38,7.96-6.6,15.37-9.62,22.22-3.02,6.86-5.27,12.36-6.72,16.5,5.85-.21,11.3-.52,16.35-.94,5.05-.42,10.12-1.14,15.23-2.16,6.21-1.24,12.73-3.01,19.54-5.31,6.8-2.29,14.47-5.12,22.99-8.47,4.61-17.37,9.86-34.59,15.74-51.66,5.88-17.06,12.11-32.66,18.7-46.78,6.58-14.11,12.99-25.67,19.22-34.67,6.23-9,11.9-13.99,17.01-14.99,4.44-.87,7.93,.97,10.46,5.49,2.53,4.53,4.03,9.48,4.49,14.86,.65,7.62-.46,17.06-3.34,28.33-2.88,11.27-7.16,23.22-12.86,35.85-5.69,12.64-12.62,24.74-20.78,36.32-8.15,11.57-16.97,21.42-26.44,29.52-2.7,8.08-4.82,17.59-6.37,28.52-1.55,10.93-2.52,21.45-2.89,31.56-.38,10.12-.19,18.29,.57,24.52,4.08-15.66,8.92-30.41,14.51-44.22,5.59-13.81,12.24-25.27,19.93-34.35,7.69-9.09,16.42-14.61,26.19-16.54,9.77-1.93,17.17,.01,22.18,5.77,5,5.76,7.85,12.58,8.52,20.43,.58,6.73-.03,13.62-1.79,20.67-1.77,7.05-3.56,13.79-5.38,20.17-1.83,6.39-2.53,12.06-2.11,16.99,.36,4.26,1.56,7.05,3.59,8.36,2.03,1.32,4.27,1.74,6.71,1.28,4.88-.93,10.34-4.46,16.37-10.59,6.02-6.12,11.86-13.88,17.49-23.29,5.64-9.41,10.16-19.16,13.59-29.29,2.45,1.77,3.68,2.66,6.14,4.44-3.74,11.75-8.66,22.87-14.77,33.37-6.1,10.5-13.04,19.19-20.8,26.09-7.77,6.89-16.21,11.22-25.32,12.98-8,1.55-14.34,.58-19.05-2.93-4.7-3.51-7.34-8.51-7.89-15.01-.4-4.71,0-10.03,1.18-15.97,1.18-5.93,2.35-12.04,3.51-18.31,1.16-6.27,1.52-11.87,1.1-16.81-.46-5.38-1.91-9.04-4.32-10.94-2.42-1.91-5.41-2.52-8.96-1.8-5.55,1.11-10.31,4.3-14.26,9.55-3.96,5.25-7.46,11.78-10.52,19.6-3.06,7.81-5.81,15.91-8.25,24.28-2.45,8.37-4.87,16.35-7.28,23.91-2.4,7.57-4.91,13.9-7.52,19-2.61,5.1-5.7,8.01-9.25,8.74-3.12,.64-5.85-.4-8.23-3.1-2.38-2.71-4.37-6.24-5.98-10.58-1.61-4.35-2.86-9-3.73-13.95-.88-4.95-1.26-9.38-1.13-13.28-7.71,15.49-17.19,28.76-28.45,39.76-11.25,11-23.55,17.78-36.89,20.26Zm8.35-17.29c11.11-2.11,21.86-9.22,32.23-21.32,10.36-12.1,18.92-27.63,25.66-46.58,.95-7.26,1.94-14.2,2.96-20.79,1.02-6.59,2.54-13.98,4.55-22.15-6.98,3.03-13.59,5.52-19.86,7.48-6.27,1.96-12.51,3.56-18.73,4.8-6,1.2-11.98,1.98-17.92,2.34-5.95,.36-11.97,.67-18.05,.9-3.94,12.14-7.01,24.33-9.24,36.58-2.23,12.25-2.84,24.2-1.84,35.86,.8,9.42,2.71,15.9,5.73,19.45,3.01,3.54,7.86,4.7,14.52,3.44Zm95.28-141.62c6.38-7.24,12.25-15.22,17.6-23.95,5.35-8.73,10.01-17.54,14-26.43,3.99-8.89,7.17-17.22,9.55-24.99,2.39-7.77,3.63-14.16,3.97-18.91,.18-2.51,.18-4.48-.15-5.78-1.75,.8-4.41,3.89-8.02,9.27-3.6,5.39-7.73,12.66-12.36,21.8-4.64,9.15-9.16,19.64-13.57,31.49-4.41,11.85-8.08,24.35-11.02,37.5Z"/>
          <path class="cls-4" d="M559.14,247.49c-9.81,1.55-16.87-.49-21.2-6.24-4.33-5.75-6.84-12.65-7.53-20.72-.61-7.17-.13-14.65,1.47-22.43,1.59-7.78,4-15.24,7.24-22.38,3.23-7.13,7.01-13.09,11.35-17.87,4.33-4.78,8.95-7.54,13.86-8.27,1.34-.2,2.98-.16,4.92,.12,1.94,.28,3.4,.81,4.37,1.58-2.23,3.05-4.52,7.24-6.89,12.59-2.37,5.35-4.47,11.06-6.32,17.14-1.85,6.08-3.26,12.09-4.22,18.04-.96,5.94-1.24,11.27-.83,15.98,.44,5.16,1.68,9.06,3.71,11.69,2.03,2.63,5.05,3.64,9.06,3.03,4.46-.68,9.55-3.87,15.28-9.56,5.72-5.68,11.08-12.35,16.07-20.02-7.44-5.17-13.12-11.48-17.04-18.99-3.91-7.5-6.3-16.3-7.17-26.39-.48-5.6,.23-11.72,2.16-18.34,1.92-6.62,5.26-12.42,10.04-17.36,4.77-4.93,11.29-7.92,19.57-8.88,9.39-1.08,16.16,.9,20.31,5.8,4.15,4.91,6.54,11.07,7.17,18.47,.71,8.3-.67,17.85-4.15,28.71-3.48,10.86-7.83,21.32-13.07,31.42,3.29,1.44,6.83,1.96,10.64,1.56,3.36-.35,7.32-1.53,11.89-3.54,4.57-2,8.89-5.03,12.95-9.08,4.05-4.05,7.17-9.18,9.35-15.42,2.29,1.47,3.44,2.2,5.73,3.68-3.78,11.29-9.55,19.74-17.3,25.47-7.76,5.72-15.44,9-23.04,9.8-2.91,.31-5.85,.34-8.8,.11-2.95-.23-5.71-.76-8.26-1.59-6.8,10.32-14.65,19.49-23.56,27.53-8.91,8.05-18.16,12.84-27.73,14.35Zm47.18-58.38c4.91-8.52,8.83-17.52,11.75-27,2.91-9.49,4.05-18.02,3.4-25.65-.48-5.6-1.67-9.62-3.56-12.01-1.89-2.39-4.31-3.44-7.21-3.11-4.48,.51-8.68,4.12-12.63,10.84-3.94,6.72-5.51,14.81-4.7,24.22,.46,5.38,1.81,11.27,4.05,17.67,2.24,6.4,5.21,11.41,8.91,15.03Z"/>
          <path class="cls-4" d="M772.74,229.79c-8.4-.49-14.98-2.86-19.76-7.25-4.78-4.4-7.45-9.82-8.01-16.33-.4-4.71-.03-9.57,1.13-14.57,1.15-5,2.29-10.11,3.43-15.33,1.14-5.22,1.5-10.29,1.08-15.22-.46-5.38-2.03-9.13-4.69-11.23-2.66-2.09-5.69-3.18-9.08-3.25-6.79-.13-13.5,2.63-20.13,8.28-6.63,5.65-12.96,12.8-19,21.42-6.04,8.62-11.59,17.7-16.64,27.19-5.07,9.5-9.42,18-13.07,25.47-4.04,.28-7.91-.11-11.61-1.17-3.7-1.06-6.93-3.15-9.69-6.3,.13-1.14,1.13-4.68,2.99-10.6,1.87-5.92,3.91-13.08,6.13-21.49,2.21-8.4,4.13-17.06,5.74-25.97,1.61-8.91,.09-20.18,1.47-24.46,.41-1.28,3.65-3.51,6.64-5.48,2.99-1.97,6.18-3.05,9.56-3.21,7.19-.34,11.08,2.8,11.63,9.3,.25,2.92-.03,7.59-.84,14.03-.8,6.44-2.01,13.52-3.6,21.24,5.14-8.55,10.98-16.8,17.54-24.69,6.55-7.89,13.57-14.3,21.06-19.18,7.49-4.88,15.31-7.19,23.47-6.88,9.29,.35,16.43,3.96,21.4,10.64,4.98,6.68,7.81,13.98,8.48,21.82,.58,6.73-.03,12.98-1.79,18.76-1.77,5.78-3.5,11.25-5.2,16.38-1.71,5.14-2.34,10.3-1.9,15.45,.33,3.81,1.41,6.6,3.26,8.39,1.85,1.78,4.02,2.75,6.52,2.93,5.45,.37,10.85-1.81,16.21-6.54,5.36-4.73,10.37-10.75,15.05-18.08,4.68-7.33,8.74-14.72,12.16-22.22,2.21,2.04,3.31,3.06,5.52,5.11-3.87,10.28-8.39,19.52-13.55,27.76-5.18,8.24-11.18,14.64-18.01,19.22-6.83,4.59-14.8,6.58-23.88,6.05Z"/>
        </g>
        <g>
          <g>
            <path class="cls-1" d="M168.42,378.79c1.38,1.22,3.21,2.16,.84,3.35-.8,.32-2.13,.56-3.73,.03-1.58-.43-3.24-2.08-4.16-3.33-1.06-1.36-2.02-3.07-2.55-5.05-.51-2.08-.6-3.66-.54-5.42,.23-5.21,2.53-10.18,5.56-14.1,3.11-3.91,6.45-7.03,9.82-10.34,4.64-4.49,9.58-8.69,14.75-12.39l8.13-6.09c4.4-3.27,8.89-6.58,13.24-9.67l2.13-1.52,.53-.38-.2,.62-.41,1.26-1.65,5.06c-1.09,3.34-2.2,6.67-3.38,10.03l-1.51,4.21-1.08,2.91c-.73,1.93-1.46,3.86-2.18,5.78-2.64,6.95-6.01,13.7-10.06,20.09-1.84,2.91-4,5.67-5.98,8.38-1.95,2.65-3.89,5.39-6.68,7.64-3.72,3.12-7.74,3.03-8.6,1.67-.48-.6-.39-1.31-.15-1.97,.25-.64,.64-1.3,1.35-2.05,2.21-1.97,8.45-8.49,11.47-12.72,4.34-5.76,7.89-12.26,10.91-19.08,1.8-4.11,3.48-8.29,5.07-12.51l.51-1.37,.1-.23,.21-.5,.49-1.22-.91,.55-.56,.36-.3,.2-1.23,.87c-3.69,2.63-7.41,5.23-11.04,7.92-5.94,4.73-11.18,10.15-15.62,16.03-2.04,2.7-3.66,5.53-4.55,8.55-.45,1.5-.74,3.03-.83,4.58-.06,1.56-.04,3.18,.31,4.34,.32,1.23,.92,2.65,1.34,3.66,.32,.8,.61,1.33,1.13,1.85Z"/>
            <path class="cls-1" d="M191.69,388.47c-7.82,5.28-14.61,5.48-16.66,5.17-1.09-.16-1.16-.43-.17-.83,.99-.39,3.08-.89,6.09-2.2,4.19-1.76,9.5-5.33,14.26-11.08,4.79-5.76,9.47-13.21,13.61-21.54,4.15-8.31,7.78-17.6,11.24-26.9,1.72-4.65,3.34-9.31,4.89-13.9,.75-2.3,1.5-4.58,2.24-6.83,.77-2.43,1.52-4.83,2.26-7.19,.17-2.06,1.93-2.46,3.2-3.38l2.21-1.42,4.3-2.92c2.84-1.99,5.63-4.08,8.37-6.25,5.49-4.38,10.78-8.91,15.5-13.99,4.75-5.07,9.09-10.6,12.94-16.46,3.79-5.78,6.83-12.09,9.1-18.71,.58-1.65,1.09-3.33,1.57-5.02l.95-3.6c0-.07,.11-.19,0-.21l-.1-.06-.05-.03c-.26-.14,.66,.36,.82,.44l-.97-.55,.41,.21,.19,.1-.06-.04c-.4-.41-.45,.05-.58,.4l-1.49,4.27c-.64,1.75-1.3,3.49-2.02,5.21-1.42,3.45-2.99,6.85-4.73,10.17-3.48,6.64-7.67,12.96-12.66,18.64-4.9,5.59-10.2,10.88-16.03,15.61-2.79,2.46-11.47,8.38-17.47,11.08,.75-3.76,1.44-7.43,2.51-11.67l2.04-8.55c2.24-9.82,4.89-19.55,6.79-29.46,1.75-9.94,3.51-19.89,5.27-29.85,.84-4.98,1.47-9.98,1.9-14.92l.13-1.84,.06-1.25v-.61c0-.22,0-.44-.27-.37l-1.71-.05c-1.23-.06-2.33,.16-3.5,.22-4.64,.28-8.6,2.28-10.85,5.88-1.27,1.99-2.35,4.09-3.13,6.25-.83,2.17-1.16,4.33-1.41,6.87-.63,4.89-1.01,9.63-2.1,15.73-2.38,5.05-4.66,9.34-7.29,13.89-5.17,8.86-10.98,17.61-18.5,25.05-3.75,3.7-8.23,7.29-13.95,8.89-2.88,.72-5.78,1.07-9.1,.2-1.63-.45-3.32-1.4-4.55-2.77-1.25-1.43-1.85-2.6-2.51-4.03-1.48-3.34-1.82-6.92-1.89-10.11-.07-3.26,.16-6.45,.52-9.6,.3-3.17,1.01-6.21,1.65-9.27l1.92-9.19,.96-4.59,1.39-4.48,2.81-8.96c.91-2.99,1.84-5.97,3.11-8.88,.6-1.46,1.24-2.92,1.93-4.37l1.08-2.17,.43-.77c.06-.21-.15-.42-.27-.6-.11-.12-.09-.11-.32-.31-.24-.2-.5-.41-.79-.6-1.11-.75-2.71-1.5-4.15-2.1-1.49-.61-2.99-1.09-4.58-1.46-1.49-.37-3.44-.7-4-.56-.61,.07-1.74,.87-2.69,1.96-.97,1.1-1.87,2.43-2.7,3.83-1.65,2.83-3.14,5.94-4.46,9.05-5.24,12.57-8.77,25.99-10.79,39.36-.75,5.22-1.22,10.48-1.05,15.63,.16,5.13,1.02,10.16,3.3,14.31,2.22,4.01,6.12,7.55,10.39,9.24,4.48,1.66,9.69,2.47,14.46,1.81,4.91-.58,9.6-2.43,13.72-5.24,4.19-2.82,7.61-6.48,10.92-10.69,6.64-8.28,12.41-17.29,17.48-26.67l8.8-16.31-3.43,18.12c-.7,3.72-1.4,7.42-2.11,11.13-1.99,10.4-4,20.97-6.02,31.52-.5,2.65-1,5.32-1.65,8.03-.76,2.71-1.22,5.44-3.38,8.48-2.21,2.68-4.57,4.07-6.88,5.63-2.32,1.48-4.64,2.8-6.93,4.11-8.9,4.87-16.97,10.78-24.84,17.17-3.92,3.23-7.6,6.5-10.86,10.23-3.2,3.66-6.26,7.83-8.22,12.05-2.64,5.74-3.03,11.69-2.44,16.7,.58,4.98,2.73,8.67,5.53,10.95,5.97,4.69,11.43,5.4,13.83,6.03,2.49,.52,2.38,1.3-.92,1.97-1.64,.28-4.13,.42-7.3-.24-3.19-.78-6.91-1.9-10.9-5.35-2.97-2.62-5.34-6.87-6.26-11.58-.92-4.69-1.03-9.79,.21-15.24,1.17-5.44,4.11-10.72,7.46-15.25,3.39-4.64,7.51-8.92,11.98-12.74,8.85-7.48,18.33-14.38,28.16-19.77,4.67-2.64,9.44-5.18,12.42-7.85,.79-.73,1-1.03,1.38-1.81,.38-.76,.72-1.75,1.02-2.75,.6-2.02,1.06-4.14,1.47-6.17,2.95-15.42,5.9-30.83,8.85-46.26l6.75,2.27c-3.98,7.35-8.38,14.51-13.32,21.31-2.48,3.41-5.02,6.7-7.84,9.95-2.87,3.3-6.18,6.33-9.94,8.79-7.5,4.96-17.03,7.25-26.04,5.68-2.27-.39-4.31-.86-6.59-1.65-2.24-.79-4.38-1.91-6.3-3.28-1.93-1.37-3.66-2.98-5.17-4.72-1.56-1.76-2.89-3.84-3.88-5.96-2.32-4.94-3.1-10.23-3.3-15.24-.19-5.04,.19-9.99,.82-14.86,1.33-9.71,3.47-19.18,6.33-28.5,1.44-4.64,3.04-9.26,4.93-13.79,1.95-4.55,3.92-8.95,6.94-13.36,1.63-2.1,3.25-4.55,7.08-5.92,2.22-.63,3.79-.24,5.08-.07,1.36,.24,2.53,.52,3.83,.87,2.54,.71,4.99,1.71,7.29,2.91,1.23,.66,2.43,1.36,3.73,2.56,1.69,1.5,2.62,3.52,3.2,5.44l-1.75,2.99-.84,1.64c-.52,1.05-1.01,2.12-1.49,3.22-.92,2.2-1.89,4.41-2.59,6.74l-4.37,13.9c-.83,2.29-1.21,4.7-1.73,7.07l-1.5,7.13-1.49,7.13c-.36,2.38-.64,4.75-.81,7.11-.28,4.7-.33,9.52,1.3,13.04,.37,.82,1.02,1.86,1.38,2.22,.44,.44,.99,.77,1.75,.99,1.51,.43,3.76,.3,5.68-.2,3.98-1.05,7.72-3.77,11.05-7.01,3.4-3.29,6.5-6.95,9.35-10.82,5.65-7.77,10.65-16.27,14.92-24.97l.64-1.32,.19-1.44,.45-3.43,.93-7.36c.37-2.54,.44-5.01,1.22-7.77,.72-2.66,1.81-5.17,3.11-7.51,1.22-2.22,2.96-4.85,5.35-6.67,2.36-1.85,5.15-3,7.9-3.6,1.39-.34,2.74-.39,4.09-.5,1.36-.11,2.73-.24,3.98-.13l3.25,.12,3.12,.26c.53,1.71,.41,4.13,.41,6.11l-.11,2.25-.15,1.91-.39,3.77c-.29,2.5-.62,4.98-.98,7.44-.76,4.92-1.71,9.79-2.56,14.69-1.09,6.15-2.18,12.29-3.27,18.42-.48,3.08-1.14,6.12-1.9,9.15l-2.15,9.09-4.19,17.79c-.12,.61-.32,1.32-.39,1.86,.6-.35,1.17-.73,1.67-1.1l1.53-1.14,1.76-1.38c1.17-.93,2.31-1.9,3.44-2.89,2.25-1.98,4.42-4.06,6.52-6.23,4.21-4.37,8.19-8.87,11.49-13.79,3.36-4.92,6.19-10.22,8.63-15.7,1.2-2.75,2.31-5.55,3.33-8.39,.49-1.43,1-2.85,1.44-4.29l1.15-3.74,1.25-4.14,.3-.98c.28,.12,.6,.31,.89,.47l1.8,.98,4.32,2.35,3.84,2.09,.45,.25,.23,.12c.01,.07-.03,.16-.04,.24l-.21,1.01-.43,2.01-.71,3.19-.56,2.21c-.39,1.47-.81,2.93-1.26,4.38-1.82,5.81-4.19,11.47-7.14,16.83-6.05,10.64-13.56,20.11-22.39,28.45-4.45,4.13-9,7.91-13.78,11.55-2.39,1.81-4.82,3.56-7.3,5.25l-3.76,2.48-1.16,.74c-.28,.19-.09,.03-.24,.38-3.54,11.3-7.51,22.47-12.01,33.45-8.66,21.81-20.19,40.16-32.42,48.44Z"/>
          </g>
          <g>
            <path class="cls-1" d="M422.17,131.04c-1.72,3.54-3.22,4.65-3.62,1.5-.58-4.36,.63-15.2,3.05-23.17,3.66-12.25,9.67-23.97,15.15-35.84,3.41-7.31,7.07-14.49,10.97-21.59,1.97-3.55,4.01-7.07,6.29-10.51,1.89-2.81,4-5.74,6.02-7.62,1.01-.96,1.92-1.5,2.83-2.09,.88-.52,1.93-1.28,3.07-1.68,.5,2.62,1.05,4.27,1.15,7.28,.03,2.17-.18,4.67-.55,7.18l-.51,2.98-.46,2.22c-.65,2.94-1.43,5.83-2.29,8.68-1.73,5.69-3.73,11.24-5.78,16.69-3.72,9.86-8.42,19.41-13.67,28.55-2.36,4.12-4.95,8.27-7.43,12.31-2.41,3.93-4.81,7.88-7.83,11.51-4.05,4.86-7.43,6.79-9.15,6.75-1.74-.05-1.86-2.03,0-5.33,2.93-4.97,10.93-15.25,14.72-21.67,5.6-9.05,10.67-18.38,14.87-28.2,3.09-7.21,5.92-14.52,8.21-21.96,1.14-3.71,2.13-7.45,2.85-11.2l.19-.96,.09-.55c.05-.38,.1-.79,.06-1.23-.33-.03-.7,.49-1.01,.83l-.49,.63-1.78,2.65c-2.68,4.15-5.16,8.5-7.54,12.91-5.22,9.63-9.4,19.55-13.28,29.73-3.72,9.66-7.11,19.34-9.86,29.28-1.38,4.91-2.89,9.15-4.25,11.92Z"/>
            <path class="cls-1" d="M318.16,274c2.46,.51,4.39,.64,5.12,1.09,.73,.42,.34,1.14-1.81,1.96-1.49,.52-3.69,1.08-6.53,.85-2.78-.15-6.45-1.69-8.8-4.69-4.57-5.86-5.81-13.25-6.51-19.35-.93-9.37-.45-18.98,1.03-28.44,1.52-9.5,3.9-18.66,6.27-27.89,.83-3.17,1.71-6.34,2.64-9.49l1.42-4.72,1.03-3.27,.62-1.93,2.02-.11,10.75-.58c3.24-.2,6.55-.32,9.71-.61,6.37-.64,12.74-1.48,18.94-3.3l9.35-2.46c3.13-.78,6.24-1.61,9.25-2.72,2.56-.89,5.11-1.83,7.65-2.81l5.99-2.44,6.74-2.88c-1.53,7.37-3.06,14.74-4.59,22.09-1.29,5.47-1.87,11.15-2.63,16.7l-.74,5.61-.38,2.81-.11,.82c-.03,.44-.18,.84-.32,1.19l-.49,1.35c-1.31,3.61-2.73,7.19-4.29,10.72-3.09,7.06-6.69,13.93-10.82,20.46-3.7,5.9-8.12,11.63-12.7,16.86-4.48,5.07-9.39,9.97-15.54,13.59-8.33,4.83-14.42,4.59-16.15,3.64-1.85-1.05,0-2.6,4.56-4.88,3.5-1.8,9.13-4.91,14.39-9.39,5.3-4.39,10.22-9.9,13.48-14.08,9.3-12.01,16.28-25.86,21.49-40.41l3.12-21.19c1.39-6.68,3.61-17.26,3.3-15.61l-2.39,.91c-2.74,1.05-5.5,2.04-8.29,2.96-2.78,.98-5.63,1.69-8.48,2.38l-8.54,2.13c-11.28,3.24-23.39,3.81-34.83,4.26l-5.02,.26c-.11,.02-.26,0-.35,.04l-.11,.35-.61,2.03c-1.13,3.78-2.17,7.59-3.12,11.41-1.89,7.63-3.47,15.38-4.71,23.1-1.13,7.31-1.73,14.69-1.7,22.06,.1,7.32,.5,14.9,2.37,21.53,.95,3.25,2.23,5.98,3.74,7.41,1.52,1.53,3.69,2.25,5.59,2.67Z"/>
            <path class="cls-1" d="M344.02,283.03c-12.82,8.83-23.63,10.53-27.13,10.73-1.82,.09-1.97-.16-.3-.8,1.67-.63,5.18-1.65,10.38-3.99,7.46-3.34,17.22-9.72,26.36-19.89,4.63-5.02,9.21-10.81,13.5-17.26,1.07-1.61,2.13-3.26,3.16-4.96l1.53-2.57,.8-1.36,1.28-2.3c1.74-3.01,3.43-6.5,5.22-10.03,.88-1.77,1.77-3.55,2.66-5.33l1.33-2.67c.26-.54,.35-.63,.52-.92l.57-.95c-.04,4.73-.08,9.5-.12,14.29-.01,2.28,.15,4.1,.36,5.94l.37,2.7,.37,2.18c.73,3.82,1.72,7.6,3.01,11.28,1.28,3.7,2.85,7.15,5.01,10.04,2.34,3.14,4.11,4.06,6.6,3.28,4.91-1.58,8.03-10.56,10.76-17.54,2.67-7.31,4.71-15.01,6.96-22.22,1.67-5.67,3.44-11.37,5.47-17.13,1.97-5.74,3.93-11.48,5.91-17.24,2.3-5.76,5.04-11.42,8.56-16.74,3.32-5.21,8.38-10.85,15.2-13.22,3.24-1.14,7.07-2,11.24-.81,2.06,.64,3.83,1.62,5.46,3.22,1.58,1.6,2.53,3.44,3.18,5.18,1.26,3.52,1.54,6.88,1.66,10.11,.09,3.26-.12,6.47-.51,9.64-.86,6.41-2.27,12.14-3.39,18.21-1.21,6.1-2.5,11.7-2.47,17.42-.11,5.72,1.22,10.88,4.91,14.47,3.58,3.74,8.81,4.96,14.42,4.48,11.41-.97,22.11-6.86,30.52-15.15,8.6-8.25,15.46-18.27,21.1-28.99,2.83-5.35,5.36-10.86,7.58-16.5l1.61-4.25,1.23-3.52c.02-.22,.33-.54-.01-.64l-.6-.44-1.01-.73-.58,1.58c-4.7,12.43-11.11,24.29-18.81,35.2-3.89,5.45-8.16,10.66-13.1,15.36-2.49,2.33-5.15,4.55-8.22,6.38-3.13,1.74-6.42,3.4-10.8,3.2-2.17-.19-4.12-.91-5.94-2.28-1.92-1.56-2.81-3.62-3.36-5.45-1.02-3.74-1-7.21-.77-10.71,.28-3.48,.93-6.87,1.8-10.17l2.55-9.56c1.57-6.36,3.7-12.69,4.53-18.89,.82-6.23,.87-12.75-.61-18.65-.75-2.97-1.92-5.8-3.49-8.41-1.57-2.57-3.5-5.16-5.66-6.85-4.41-3.59-10.72-4.06-16.77-2.92-6.08,1.06-11.79,3.74-16.75,7.51-4.97,3.79-9.16,8.61-12.93,13.84-7.55,10.45-13.07,22.26-17.62,34.53-4.64,12.25-8.53,24.78-11.83,37.47l-3.78,14.57-1.74-14.94c-1-8.63-.89-17.11-.6-25.56,.32-8.46,1.04-16.9,2.07-25.29,1.02-8.37,2.36-16.79,4.4-25.08,.51-2.07,1.07-4.14,1.68-6.19l1.04-3.34c.18-.42,.21-.92,.5-1.26l1.03-.9,1.27-1.11c3.05-2.73,6.01-5.59,8.82-8.58,7.58-8.01,14.26-16.88,20.3-26.22,6.04-9.33,11.37-19.12,15.9-29.28,4.56-10.19,8.52-20.63,11.49-31.33,2.88-10.63,5.16-21.74,3.96-32.24-.33-2.59-.95-5.13-1.87-7.55-.92-2.36-2.11-4.95-3.48-6.53-1.43-1.67-3.04-2.35-5.08-2.19-2.05,.14-4.16,1.21-6.16,2.72-4.01,3.07-7.4,7.43-10.48,11.91-3.1,4.55-5.96,9.29-8.65,14.12-10.7,19.43-19.22,40.05-26.57,60.85-3.31,9.44-6.44,18.97-9.37,28.55l-4.27,14.42-2.03,7.24-.99,3.63-.69,2.59-.43,1.62c-.43,.27-1.02,.41-1.52,.62l-15.01,5.53c-4.75,1.75-9.48,3.57-14.43,4.98-4.92,1.42-9.9,2.77-14.99,3.58-5.1,.68-10.2,1.54-15.29,2.05l-19.82,1.13c.56-1.85,1.61-4.08,2.37-6.06l2.12-5.2,2.89-7.09,11.96-27.75,5.9-13.9,2.92-6.95,2.63-6.98c1.71-4.65,3.62-9.3,5.17-13.96,.7-2.33,1.32-4.68,1.67-6.93,.17-1.11,.27-2.23,.2-3.13-.06-.86-.28-1.5-.67-2.05-.67-.97-2.34-1.89-3.71-1.94-1.49-.11-3.05,.42-4.65,1.49-3.21,2.15-6.06,5.63-8.61,9.19-5.09,7.27-9.34,15.36-13.16,23.58-7.57,16.52-13.63,33.83-18.92,50.9l-4.08,13.8c.06,1.13-1.21,.86-2.06,1.02-.91,.09-1.83,.19-2.76,.24-1.35,.08-2.36,.09-3.58,.05l-6.15-.43c-.44-.01-1.18-.23-.88,.52l.27,2.78c.09,.18,.44,.13,.65,.21l3.18,.67,1.48,.33,.7,.14,1.36,.21c1.9,.21,4.01,.25,5.98,.36-2.23,9.91-4.46,19.84-6.71,29.82-2.12,8.8-3.69,17.68-5.06,26.65-1.73,11.71-2.72,22.25-2.31,31.43,.35,9.12,2.53,16.86,6.63,21.79,4.11,4.93,9.52,7.01,13.76,7.87,4.32,.87,7.68,.81,9.82,.89,4.29-.03,4.03,.84-1.34,2.14-2.69,.52-6.76,1.15-12.17,.13-2.68-.52-5.68-1.52-8.66-3.32-2.95-1.78-5.93-4.48-8.14-7.97-3.75-5.73-5.66-13.42-6.19-21.63-.56-8.22-.03-17.16,1.06-26.49,1.1-9.33,2.71-19.16,4.88-29.12,1.93-8.46,3.91-17.17,5.9-25.92h0s-2.94-.64-2.94-.64l-3.7-.8-3.28-.71-.82-.18c-.29-.04-.6-.07-.52-.44l-.14-1.67c-.33-3.9-.66-7.79-.99-11.68l-.14-1.66c0-.5-.35-1.36,.47-1.06l3.33,.23,6,.41,3.42,.26c.89,.11,1.84,.16,2.81,.15l1.45-.04c0,.09,.08-.23,.14-.42,1.19-3.9,2.36-7.76,3.52-11.56,5.16-16.3,10.67-31.27,16.08-43.81,4.22-9.68,8.88-19.22,14.78-28.24,3.03-4.48,6.2-8.96,11.05-12.69,2.36-1.79,5.76-3.54,9.59-3.29,1.9,.1,3.78,.73,5.33,1.64,1.56,.9,3.15,2.35,4.1,4.22,.97,1.84,1.21,3.94,1.16,5.52-.04,1.63-.25,3.07-.51,4.48-.54,2.8-1.29,5.41-2.1,7.98l-5.59,14.84c-1.8,5-3.87,9.77-5.91,14.56l-6.11,14.39c-4.07,9.55-8.51,19.2-12.3,28.67l-1.96,4.77c-.01,.1-.22,.34-.06,.32l.43-.02,6.38-.36,3.86-.22,3.77-.53,7.55-1.06c2.52-.31,5.03-.73,7.5-1.35,4.96-1.14,9.87-2.56,14.73-4.19l14.59-5.36,6.87-2.53c.11-.06,.2-.02,.21-.13l.16-.6,1.03-3.8c9.53-34.08,20.69-67.86,36.38-99.86,3.94-7.98,8.19-15.85,13.04-23.43,2.42-3.77,4.99-7.53,8.02-11.09,3.08-3.48,6.45-7.02,11.54-9.15,2.57-1,5.54-1.47,8.62-.64,3.09,.83,5.48,3.03,7,5.21,2.85,4.36,4.42,8.74,5.39,13.52,1.72,9.54,.42,18.73-1.36,27.57-3.83,17.67-10.37,34.37-18.23,50.42-8.07,15.98-17.82,31.1-29.7,44.63-2.97,3.37-6.11,6.61-9.37,9.72l-2.49,2.29-2.15,1.91c-.11,.09-.07,.1-.16,.34l-.48,1.53-.91,3.09c-2.31,8.3-3.84,16.86-4.98,25.52-1.16,8.66-1.97,17.36-2.37,26.07-.35,8.71-.52,17.49,.44,25.92l-6.03-.4c3.82-14.57,8.43-28.96,14.04-42.97,5.61-14.07,12.85-27.8,23.38-39.3,5.32-5.72,11.92-10.6,19.53-13.29,3.8-1.35,7.73-2.16,11.8-2.41,4.06-.21,8.41,.31,12.36,2.19,4,1.81,7.14,5.2,9.36,8.41,2.34,3.31,4.14,7.03,5.28,10.92,2.24,7.88,2.04,15.83,.89,23.54-1,6.22-2.87,11.77-4.31,17.57l-2.3,8.63c-.78,2.76-1.41,5.5-1.79,8.27-.37,2.75-.5,5.52-.24,8.17,.21,2.59,1.06,5.14,2.16,5.8,3.07,2.46,8.49,.11,12.83-3.07,8.82-6.71,15.94-16.26,22.03-25.99,3.05-4.93,5.85-9.99,8.32-15.22,1.24-2.61,2.4-5.25,3.48-7.93l1.75-4.55,2.64-7.58,10.55,7.61c1.38,.45,.41,1.66,.21,2.62l-.97,2.98-1.17,3.38c-1.6,4.49-3.4,8.91-5.37,13.26-3.98,8.67-8.56,17.07-14.17,24.93-5.65,7.82-12.14,15.06-20.15,20.92-8.04,5.8-17.59,9.69-27.87,10.22-5.48,.29-11.81-1.16-16.37-5.13-4.62-3.74-7.4-9.61-8.04-15.21-.66-5.54-.22-10.85,.65-16.05l2.83-14.88c.96-4.99,1.95-9.73,2.18-14.48,.25-4.66,.09-9.71-1.43-13.26-1.34-3.27-4.56-4.35-8.66-3.24-4.1,1.02-7.67,3.57-10.5,7.05-2.87,3.59-5.37,7.81-7.49,12.13-1.06,2.17-2.05,4.4-2.95,6.66-.89,2.28-1.62,4.68-2.44,7.02-3.19,9.42-6.48,18.74-9.31,28.5-2.97,9.6-5.57,19.43-9.9,28.96-2.16,4.47-4.38,10.22-10.54,13.53-1.54,.77-3.27,1.22-5.04,1.29-1.8,.09-3.72-.32-5.33-1.14-1.63-.8-2.93-1.92-4-3.08-1.02-1.12-1.84-2.23-2.64-3.41-3.8-5.86-5.56-11.99-7.03-17.91-.35-1.49-.66-2.98-.92-4.46-.36-2.08-.22-1.35-.28-1.73-.03-.34-.05-.72-.03-1.14,.06-.43-.11,.05-.18,.12l-.32,.5c-.89,1.39-1.76,2.76-2.61,4.09-3.25,5-6.66,9.59-10.14,13.75-6.97,8.27-14.07,14.97-20.96,19.68Z"/>
          </g>
          <g>
            <path class="cls-1" d="M614.04,177.86c.94,2.41,.94,4.02-1.35,3.27-1.55-.55-3.92-2.19-6.01-4.62-2.12-2.4-3.94-5.51-5-8.34-3.23-8.5-4.05-18.28-3.25-27.71,.51-6.52,2.4-13.22,6.01-18.88,1.75-2.81,3.79-5.59,6.71-7.86,2.89-2.22,6.98-3.87,11.32-2.66,2.82,.83,4.92,2.83,6.26,4.99,1.34,2.2,1.98,4.43,2.47,6.59,.89,4.33,1.11,8.55,1.05,12.77-.12,7.63-2.04,15.03-4.42,22.03-1.07,3.16-2.35,6.35-3.51,9.45-1.12,3.02-2.18,6.08-3.82,8.95-4.54,7.65-9.1,6.44-7.75,1.3,1.02-3.93,5.26-11.84,7.03-16.66,2.63-6.81,4.91-13.74,5.75-20.84,.51-4.26,.6-8.5,.09-12.67-.48-4.14-1.63-8.17-3.94-9.59-1.03-.7-2.4-.86-3.99-.45-1.52,.39-3.06,1.38-4.47,2.68-2.78,2.68-5.23,6.45-6.8,10.18-2.72,6.51-2.76,13.87-1.71,20.95,1.07,6.65,3.09,13.67,5.91,19.68,1.45,2.97,2.68,5.52,3.42,7.44Z"/>
            <path class="cls-1" d="M579.52,238.38c-6.02,2.23-10.43,2.42-11.94,2.14-1.56-.35-.29-.94,4.01-2.62,5.28-2.04,13.67-6.73,21.37-14.59,3.94-3.92,7.92-8.32,11.67-13,1.87-2.34,3.69-4.74,5.43-7.18l2.55-3.68c1.34-2.03,2.67-4.05,4-6.05,1.49,.45,3.01,.96,4.5,1.33l.78,.18,.5,.1,1.01,.18c1.35,.22,2.7,.36,4.07,.44,5.45,.31,10.76-.27,15.81-2.15,5.04-1.82,10.01-4.75,14.35-8.13,4.25-3.39,7.77-7.75,10.53-12.67,.69-1.23,1.33-2.49,1.94-3.78l.87-1.95,.4-1,.1-.22c.04-.1,.13-.23,.14-.33l-.14-.11-.04-.03,.29,.18,.32,.2-.21-.14c-1.08-.71-.11-.1-.14-.13-.11-.08-.24-.21-.36-.25l-1.2,2.39c-1.02,1.94-2.18,3.83-3.5,5.61-2.66,3.61-5.91,6.61-9.37,9.21-3.45,2.62-7.55,4.74-11.52,6.18-3.99,1.5-8.39,2.75-13.03,2.63-1.62-.08-2.75-.1-5.26-.72-2.13-.6-4.17-1.42-5.95-2.33l3.57-7.05,2.12-4.48c1.38-3,2.67-6.05,3.89-9.12,2.41-6.14,4.64-12.45,6.29-18.76,1.61-6.33,2.61-12.81,2.4-19.19-.18-6.36-1.76-12.6-5.29-17.59-3.22-5.21-8.92-7.1-15.22-6.97-6.26,.13-12.67,1.55-17.73,4.84-4.97,3.25-8.97,8.62-11.57,14.22-2.51,5.65-3.94,12.22-4.17,18.44,.04,8.95,1.92,18.55,5.6,26.87,1.87,4.2,4.28,8.08,7.23,11.57,1.47,1.74,3.07,3.38,4.78,4.91,.85,.77,1.73,1.5,2.63,2.22,1.6,1.22,3.37,2.49,5.06,3.7l-3.09,4.67-2.13,3.05c-1.29,1.79-2.63,3.56-4.01,5.29-2.77,3.46-5.71,6.77-8.86,9.89-3.2,3.13-6.64,6.13-10.94,8.33-2.11,1.09-4.65,1.92-7.2,2.1-2.52,.22-5.55-.22-8-1.96-3.88-2.96-5.06-6.84-5.98-10.45-.81-3.65-1.01-7.24-.96-10.79,.13-7.13,1.41-13.99,2.98-20.71,1.62-6.74,3.71-13.31,6.2-19.76,1.25-3.22,2.61-6.4,4.12-9.54,.76-1.57,1.55-3.13,2.42-4.67l.74-1.28,.36-.54c.21-.16,.05-.28-.14-.35-.16-.08-.33-.14-.51-.18-.18-.04-.36-.07-.54-.1l-.64-.06-.9-.04c-2.11-.05-4.64,.71-6.76,1.82-5.67,3.02-10.23,9.02-13.92,15.09-3.65,6.19-6.45,12.99-8.49,19.79-1.96,6.66-3.3,13.5-3.7,20.34-.36,6.85-.08,13.83,1.9,20.21,1.32,4.25,3.29,7.91,5.31,10.66,1.94,2.6,4.46,4.09,6.85,4.99,4.88,1.74,8.74,1.65,10.49,2.16,1.8,.42,1.75,1.13-.39,2.04-1.08,.41-2.68,.89-4.9,1.1-2.2,.21-5.06,.22-8.45-.81-12-3.42-18.91-21.31-17.92-37.58,.54-16.67,6.38-32.86,12.29-43.74,3.62-6.43,7.74-12.54,14.01-17.5,3.14-2.4,6.99-4.29,11.18-4.9,1.19-.17,2.28-.18,3.32-.13,.62,.04,.82,.04,1.74,.15,.84,.1,1.67,.23,2.46,.41,3.26,.66,5.36,2.64,7.22,4.14-1.46,2.05-3,4.08-4.18,6.11l-1.02,1.77-.84,1.56c-1.1,2.11-2.11,4.29-3.08,6.51-1.93,4.44-3.62,8.99-5.1,13.63-2.91,9.22-5.2,18.88-5.65,28.3-.19,5.65,.27,11.82,2.78,15.68,1.2,1.79,2.51,2.38,4.85,2.35,2.31-.05,4.58-.96,6.92-2.37,4.62-2.84,8.81-7.18,12.74-11.59,1.95-2.23,3.83-4.53,5.61-6.91,.9-1.19,1.77-2.39,2.62-3.61l.72-1.05c.74,.62-3.71-2.86-6.05-5.38-2.66-2.71-5.05-5.72-7.08-8.95-4.08-6.48-6.67-13.67-8.19-20.97-.77-3.66-1.26-7.32-1.55-11.05-.28-3.87-.01-7.71,.6-11.45,1.24-7.35,3.73-14.87,8.33-21.12,2.26-3.08,4.82-6.01,8.1-8.4,3.22-2.36,6.88-4.02,10.62-5.07,3.76-1.05,7.52-1.56,11.38-1.64,3.85-.06,7.92,.4,11.77,2.11,3.9,1.62,7.11,5,9.11,8.22,2.16,3.32,3.64,7.03,4.52,10.8,1.74,7.59,1.32,15.22,.07,22.52-1.42,8.12-4,15.8-6.76,23.29-1.4,3.75-2.9,7.46-4.52,11.12l-2.49,5.45-1.08,2.26c.09,.15,.44,.19,.64,.26l.35,.06c.24,.04,.91,.12,1.35,.15,2,.14,4.01-.04,6.05-.5,4.05-.96,8.42-2.69,12.01-4.8,3.64-2.17,7.09-5.11,9.86-8.28,1.38-1.6,2.6-3.35,3.66-5.21,.53-.93,1.04-1.88,1.49-2.86,.56-1.16,1.49-3.5,2.22-5.59l1.04-2.87,8.26,5.27,2.37,1.54c.29,.23,.74,.4,.9,.67l-.39,1.11c-.53,1.48-1.01,2.97-1.58,4.43-1.26,3.3-2.75,6.53-4.58,9.62-3.56,6.18-8.67,11.77-14.62,15.75-5.79,4.02-12.39,7.29-19.65,8.67-3.66,.67-7.23,.86-10.85,.71-1.79-.08-3.61-.25-5.43-.54-.87-.14-1.9-.35-2.64-.52l-.25-.07-3.19,4.49c-1.61,2.18-3.27,4.32-4.99,6.41-5.3,6.41-10.87,11.86-16.27,16.31-5.48,4.47-11.02,7.52-15.7,9.25Z"/>
          </g>
          <path class="cls-1" d="M794.22,223.15c-6.95,1.31-11.64,.36-13.17-.2-1.57-.69-.1-.96,4.85-1.7,3.4-.57,8.12-1.65,12.96-4.32,4.78-2.63,9.73-7,14.06-12.26,4.36-5.26,7.98-11.67,11.3-18.27,1.65-3.29,3.17-6.63,4.57-9.95,.68-1.67,1.35-3.32,2.02-4.95l.47-1.23c.14-.36,.04-.12,.07-.19h-.02c-.07-.07,.59,.54,0,0l.22,.21c.15,.15,.04,.04,.08,.08h0s0,0,0,0c0,.02,.02-.04-.02,.04l-.22,.44-.89,1.74c-1.2,2.32-2.45,4.61-3.75,6.87-2.63,4.52-5.35,8.95-8.51,13.3-3.14,4.32-6.66,8.44-10.63,12.16-3.88,3.69-8.81,7.38-14.85,8.66-3.03,.57-6.06,.78-9.46-.33-1.63-.57-3.13-1.49-4.37-2.58-1.26-1.06-2.43-2.64-3.09-4.13-1.39-3.03-1.63-6.09-1.71-8.84-.07-2.82,.17-5.64,.69-8.4,.47-2.72,1.42-5.55,2.22-7.94l2.44-7.43,2.41-7.43c.72-2.36,1.2-4.79,1.5-7.25,.61-5.56,.4-11.38-.99-16.72-1.4-5.37-4.07-10.48-7.53-14.83-6.69-8.71-19.42-10.43-29.95-7.29-5.37,1.57-10.21,4.47-14.85,7.98-4.61,3.48-8.87,7.46-12.78,11.76-7.74,8.72-14.69,18.39-20.73,28.46l-7.66,12.77,2.47-14.8,3.31-19.82c.52-3.3,.81-6.63,1.01-9.88,.16-3.27,.15-6.41-.99-8.38-.81-1.5-2.15-2.38-4.15-2.78-1.97-.37-4.36-.3-6.4,.21-2.15,.54-3.99,1.45-6.05,2.89-1.05,.7-2.09,1.41-3.02,2.13-.46,.35-.91,.72-1.26,1.05-.31,.3-.3,.28-.38,.49,0-.05-.11,.41-.15,.76-.07,.34-.09,.78-.14,1.17-.07,.82-.1,1.69-.13,2.57l-.03,5.44c-.01,3.7-.05,7.48-.53,11.35-1.32,7.57-3.14,14.55-4.67,21.83-1.41,7.27-3.71,14.26-5.64,21.33l-2.92,10.38-1.37,4.86c-.09,.5-.36,.79-.09,.9,.16,.16,.21,.22,.98,.88,2.9,2.52,6.52,3.66,10.62,4.17,1,.12,2.01,.19,3.02,.21h1.06s.38-.02,.38-.02c.07-.08,.13-.24,.17-.31l.5-.98,1.52-2.97c4.11-7.91,8.02-15.87,12.32-23.74,4.36-7.84,9.12-15.47,14.27-22.82,5.17-7.4,11-14.43,17.77-20.57,5.91-5.56,13.98-10.71,23.21-10.82,4.67-.17,9.55,1.48,13.09,5.07,3.52,3.98,4.17,8.72,4.53,12.85,.3,4.09,.1,8.19-.52,12.21-.68,4.1-1.57,7.66-2.36,11.52-.77,3.81-1.78,7.63-2.26,11.16-.49,3.59-.58,7.34-.14,10.84,.6,4.65,2.49,8.41,4.87,11.3,2.38,2.95,5.01,4.88,7.54,6.26,5.1,2.7,9.11,3.53,10.88,4.39,1.82,.79,1.59,1.49-.86,1.9-2.41,.28-7.28,.59-13.98-2.35-5.03-2.29-11.22-7.43-14.08-15.73-.69-2.04-1.15-4.21-1.38-6.41-.22-2.15-.28-4.32-.19-6.54,.1-4.37,1.16-9.07,2.08-13.06,.93-4.13,1.86-8.31,2.79-12.44,.82-3.9,1.16-7.81,1.02-11.57-.11-3.76-.8-7.23-2.22-9.23-.35-.5-.71-.89-1.14-1.22-.55-.43-1.12-.81-1.69-1.12-1.15-.63-2.34-1.01-3.54-1.19-3.54-.48-7.68,.32-11.28,2-3.71,1.72-7,4.23-10.29,7.25-6.52,5.94-12.18,12.87-17.29,20.28-5.15,7.43-9.91,15.16-14.25,23.12-4.2,8.12-8.39,16.25-12.6,24.39-.35,.51-1.56,3.44-2.71,4.8-2.06,.14-4.71,.24-5.59,.17-2.54-.08-5.09-.41-7.58-1.03-2.48-.57-5.17-1.65-7.42-3.14-1.14-.74-2.2-1.58-3.19-2.49-.68-.64-1.51-1.5-2.2-2.27-.29-.42-.89-.76-.92-1.24l.38-1.51,7.89-27.84c1.39-4.39,2.23-8.9,3.26-13.37l3-13.42,.75-3.35c.18-1.04,.32-2.1,.44-3.18,.22-2.16,.3-4.39,.33-6.66l.04-6.93c.02-1.19,.03-2.38,.12-3.65,.12-1.37,.11-2.3,.69-4.39,.35-1.23,1.61-2.52,2.2-3.03,.69-.62,1.34-1.12,1.99-1.6,1.3-.96,2.57-1.8,3.85-2.64,2.85-1.88,6.24-3.19,9.74-3.56,3.39-.29,7.08-.23,10.73,1.91,1.77,1.09,3.24,2.78,4.12,4.58,.9,1.81,1.29,3.66,1.46,5.42,.28,3.45,0,6.46-.26,9.53-.27,3.05-.67,6.05-1.23,9.01l-3.08,17.85-5.66-2.21c3.62-5.99,7.56-11.78,11.78-17.36,4.23-5.54,8.66-11.02,13.76-16,5.1-4.97,10.6-9.44,16.92-13.11,6.35-3.62,13.78-5.76,21.22-5.64,5.02,.06,10.21,1,14.89,3.39,4.67,2.32,8.61,6.23,11.29,10.37,2.8,4.09,4.98,8.67,6.33,13.5,1.36,4.86,1.77,9.85,1.66,14.75-.1,4.89-.98,10-2.5,14.54l-4.18,13.4c-1.48,4.34-2.32,8.37-2.31,12.68,0,4.38,.68,8.38,3.18,9.97,1.63,1.26,3.64,1.53,6.24,1.25,2.43-.29,4.83-1.23,7.08-2.63,4.44-2.81,8.6-7.29,12.24-11.72,3.66-4.52,6.81-9.51,9.85-14.66,1.51-2.57,2.95-5.17,4.33-7.8l2.27-4.52,3.67-7.88,6.03,5.57,3.01,2.78,1.46,1.35c.08,.12,.34,.2,.27,.36l-.18,.46-.36,.93-2.14,5.48-1.67,3.95c-2.29,5.23-4.84,10.37-7.71,15.34-4.4,7.81-9.88,14.82-15.86,19.75-5.85,5.02-12.45,8.15-17.85,9.08Z"/>
        </g>
        <g>
          <path class="cls-2" d="M174.13,392.87c-5.61,.47-10.86-.83-15.74-3.88-4.89-3.05-7.63-8.07-8.23-15.02-.61-7.18,.85-13.74,4.41-19.73,3.56-5.99,8.38-11.58,14.48-16.83,6.1-5.25,12.84-10.28,20.22-15.12,7.37-4.83,18.65-9.87,21.97-14.37,2.93-3.96,4.26-16.17,6.53-26.66,2.27-10.5,4.2-20.84,5.82-31.04-6.04,11.25-12.7,21.24-19.97,29.91-7.27,8.68-15.73,13.51-25.36,14.43-4.03,.39-8.3-.07-12.82-1.39-4.52-1.32-8.42-3.96-11.68-7.89-3.26-3.93-5.2-9.28-5.77-16-.52-6.06-.07-13.3,1.36-21.75,1.42-8.44,3.42-16.72,6.01-24.83,2.58-8.1,5.38-14.95,8.41-20.53,3.02-5.57,5.88-8.5,8.56-8.77,1.12-.11,2.94,.16,5.49,.81,2.54,.64,5.06,1.62,7.53,2.93,2.48,1.31,4.02,2.84,4.63,4.58-1.78,2.92-3.68,7.09-5.7,12.51-2.02,5.43-3.88,11.39-5.58,17.89-1.7,6.5-3.02,12.85-3.96,19.04-.94,6.2-1.23,11.42-.86,15.68,.31,3.59,1.3,6.55,2.96,8.87,1.67,2.33,4.52,3.3,8.55,2.88,4.7-.49,9.51-3.05,14.41-7.69,4.91-4.65,9.66-10.5,14.25-17.55,4.59-7.05,8.61-14.23,12.05-21.51,.5-2.11,.84-4.71,1.03-7.8,.18-3.09,.62-6.41,1.19-9.87,.6-3.67,2.12-7.5,4.62-11.39,2.48-3.88,6.29-6.2,11.43-6.99,1.55-.24,3.07-.36,4.54-.36,1.47,0,3.23,.06,5.27,.19,.29,3.37-.32,10.11-1.82,20.23-1.51,10.12-3.61,21.93-6.29,35.39-2.69,13.47-5.93,27.06-9.72,40.76,9.49-5.21,18.86-13.17,28.11-23.88,9.25-10.7,16.31-24.6,21.18-41.62,2.27,1.24,3.41,1.86,5.69,3.1-2.38,11.81-6.61,22.4-12.7,31.73-6.1,9.34-13.13,17.55-21.11,24.6-7.98,7.05-16.05,13.07-24.2,18.07-4.78,15.41-10.11,29.79-15.97,43.1-5.86,13.31-12.33,24.09-19.42,32.31-7.09,8.22-15,12.72-23.75,13.45Zm-3.7-11.55c4.04-.33,9.54-5.31,16.5-15.04,6.96-9.72,13.64-24.7,20.04-44.94-7.48,4.96-14.71,10.21-21.68,15.77-6.98,5.55-12.71,11.19-17.18,16.97-4.48,5.78-6.45,11.78-5.91,18.06,.17,2.02,.91,4.11,2.23,6.26,1.31,2.15,3.32,3.13,6.01,2.91Z"/>
          <path class="cls-2" d="M315.35,293.19c-10.23,1.9-18.48,.47-24.76-4.24-6.28-4.71-9.9-12.79-10.88-24.23-.58-6.73-.36-14.78,.65-24.17,1-9.39,2.62-19.51,4.85-30.37,2.24-10.86,4.7-21.65,7.4-32.39-2.04-.09-3.98-.36-5.83-.83-1.85-.47-4.03-.93-6.56-1.4-.31-3.63-.47-5.45-.78-9.08,3.39,.09,6.18,.28,8.35,.57,2.17,.3,4.82,.28,7.96-.07,4.86-17.05,10.22-33.02,16.06-47.92,5.84-14.89,11.75-27.04,17.72-36.42,5.97-9.38,11.29-14.54,15.96-15.48,2.22-.44,4.28-.06,6.19,1.15,1.91,1.21,2.96,2.94,3.15,5.18,.23,2.69-.59,6.96-2.46,12.81-1.87,5.85-4.4,12.58-7.59,20.17-3.2,7.6-6.48,15.37-9.87,23.33-3.38,7.96-6.6,15.37-9.62,22.22-3.02,6.86-5.27,12.36-6.72,16.5,5.85-.21,11.3-.52,16.35-.94,5.05-.42,10.12-1.14,15.23-2.16,6.21-1.24,12.73-3.01,19.54-5.31,6.8-2.29,14.47-5.12,22.99-8.47,4.61-17.37,9.86-34.59,15.74-51.66,5.88-17.06,12.11-32.66,18.7-46.78,6.58-14.11,12.99-25.67,19.22-34.67,6.23-9,11.9-13.99,17.01-14.99,4.44-.87,7.93,.97,10.46,5.49,2.53,4.53,4.03,9.48,4.49,14.86,.65,7.62-.46,17.06-3.34,28.33-2.88,11.27-7.16,23.22-12.86,35.85-5.69,12.64-12.62,24.74-20.78,36.32-8.15,11.57-16.97,21.42-26.44,29.52-2.7,8.08-4.82,17.59-6.37,28.52-1.55,10.93-2.52,21.45-2.89,31.56-.38,10.12-.19,18.29,.57,24.52,4.08-15.66,8.92-30.41,14.51-44.22,5.59-13.81,12.24-25.27,19.93-34.35,7.69-9.09,16.42-14.61,26.19-16.54,9.77-1.93,17.17,.01,22.18,5.77,5,5.76,7.85,12.58,8.52,20.43,.58,6.73-.03,13.62-1.79,20.67-1.77,7.05-3.56,13.79-5.38,20.17-1.83,6.39-2.53,12.06-2.11,16.99,.36,4.26,1.56,7.05,3.59,8.36,2.03,1.32,4.27,1.74,6.71,1.28,4.88-.93,10.34-4.46,16.37-10.59,6.02-6.12,11.86-13.88,17.49-23.29,5.64-9.41,10.16-19.16,13.59-29.29,2.45,1.77,3.68,2.66,6.14,4.44-3.74,11.75-8.66,22.87-14.77,33.37-6.1,10.5-13.04,19.19-20.8,26.09-7.77,6.89-16.21,11.22-25.32,12.98-8,1.55-14.34,.58-19.05-2.93-4.7-3.51-7.34-8.51-7.89-15.01-.4-4.71,0-10.03,1.18-15.97,1.18-5.93,2.35-12.04,3.51-18.31,1.16-6.27,1.52-11.87,1.1-16.81-.46-5.38-1.91-9.04-4.32-10.94-2.42-1.91-5.41-2.52-8.96-1.8-5.55,1.11-10.31,4.3-14.26,9.55-3.96,5.25-7.46,11.78-10.52,19.6-3.06,7.81-5.81,15.91-8.25,24.28-2.45,8.37-4.87,16.35-7.28,23.91-2.4,7.57-4.91,13.9-7.52,19-2.61,5.1-5.7,8.01-9.25,8.74-3.12,.64-5.85-.4-8.23-3.1-2.38-2.71-4.37-6.24-5.98-10.58-1.61-4.35-2.86-9-3.73-13.95-.88-4.95-1.26-9.38-1.13-13.28-7.71,15.49-17.19,28.76-28.45,39.76-11.25,11-23.55,17.78-36.89,20.26Zm8.35-17.29c11.11-2.11,21.86-9.22,32.23-21.32,10.36-12.1,18.92-27.63,25.66-46.58,.95-7.26,1.94-14.2,2.96-20.79,1.02-6.59,2.54-13.98,4.55-22.15-6.98,3.03-13.59,5.52-19.86,7.48-6.27,1.96-12.51,3.56-18.73,4.8-6,1.2-11.98,1.98-17.92,2.34-5.95,.36-11.97,.67-18.05,.9-3.94,12.14-7.01,24.33-9.24,36.58-2.23,12.25-2.84,24.2-1.84,35.86,.8,9.42,2.71,15.9,5.73,19.45,3.01,3.54,7.86,4.7,14.52,3.44Zm95.28-141.62c6.38-7.24,12.25-15.22,17.6-23.95,5.35-8.73,10.01-17.54,14-26.43,3.99-8.89,7.17-17.22,9.55-24.99,2.39-7.77,3.63-14.16,3.97-18.91,.18-2.51,.18-4.48-.15-5.78-1.75,.8-4.41,3.89-8.02,9.27-3.6,5.39-7.73,12.66-12.36,21.8-4.64,9.15-9.16,19.64-13.57,31.49-4.41,11.85-8.08,24.35-11.02,37.5Z"/>
          <path class="cls-2" d="M566.87,239.76c-9.81,1.55-16.87-.49-21.2-6.24-4.33-5.75-6.84-12.65-7.53-20.72-.61-7.17-.13-14.65,1.47-22.43,1.59-7.78,4-15.24,7.24-22.38,3.23-7.13,7.01-13.09,11.35-17.87,4.33-4.78,8.95-7.54,13.86-8.27,1.34-.2,2.98-.16,4.92,.12,1.94,.28,3.4,.81,4.37,1.58-2.23,3.05-4.52,7.24-6.89,12.59-2.37,5.35-4.47,11.06-6.32,17.14-1.85,6.08-3.26,12.09-4.22,18.04-.96,5.94-1.24,11.27-.83,15.98,.44,5.16,1.68,9.06,3.71,11.69,2.03,2.63,5.05,3.64,9.06,3.03,4.46-.68,9.55-3.87,15.28-9.56,5.72-5.68,11.08-12.35,16.07-20.02-7.44-5.17-13.12-11.48-17.04-18.99-3.91-7.5-6.3-16.3-7.17-26.39-.48-5.6,.23-11.72,2.16-18.34,1.92-6.62,5.26-12.42,10.04-17.36,4.77-4.93,11.29-7.92,19.57-8.88,9.39-1.08,16.16,.9,20.31,5.8,4.15,4.91,6.54,11.07,7.17,18.47,.71,8.3-.67,17.85-4.15,28.71-3.48,10.86-7.83,21.32-13.07,31.42,3.29,1.44,6.83,1.96,10.64,1.56,3.36-.35,7.32-1.53,11.89-3.54,4.57-2,8.89-5.03,12.95-9.08,4.05-4.05,7.17-9.18,9.35-15.42,2.29,1.47,3.44,2.2,5.73,3.68-3.78,11.29-9.55,19.74-17.3,25.47-7.76,5.72-15.44,9-23.04,9.8-2.91,.31-5.85,.34-8.8,.11-2.95-.23-5.71-.76-8.26-1.59-6.8,10.32-14.65,19.49-23.56,27.53-8.91,8.05-18.16,12.84-27.73,14.35Zm47.18-58.38c4.91-8.52,8.83-17.52,11.75-27,2.91-9.49,4.05-18.02,3.4-25.65-.48-5.6-1.67-9.62-3.56-12.01-1.89-2.39-4.31-3.44-7.21-3.11-4.48,.51-8.68,4.12-12.63,10.84-3.94,6.72-5.51,14.81-4.7,24.22,.46,5.38,1.81,11.27,4.05,17.67,2.24,6.4,5.21,11.41,8.91,15.03Z"/>
          <path class="cls-2" d="M780.47,222.05c-8.4-.49-14.98-2.86-19.76-7.25-4.78-4.4-7.45-9.82-8.01-16.33-.4-4.71-.03-9.57,1.13-14.57,1.15-5,2.29-10.11,3.43-15.33,1.14-5.22,1.5-10.29,1.08-15.22-.46-5.38-2.03-9.13-4.69-11.23-2.66-2.09-5.69-3.18-9.08-3.25-6.79-.13-13.5,2.63-20.13,8.28-6.63,5.65-12.96,12.8-19,21.42-6.04,8.62-11.59,17.7-16.64,27.19-5.07,9.5-9.42,18-13.07,25.47-4.04,.28-7.91-.11-11.61-1.17-3.7-1.06-6.93-3.15-9.69-6.3,.13-1.14,1.13-4.68,2.99-10.6,1.87-5.92,3.91-13.08,6.13-21.49,2.21-8.4,4.13-17.06,5.74-25.97,1.61-8.91,.09-20.18,1.47-24.46,.41-1.28,3.65-3.51,6.64-5.48,2.99-1.97,6.18-3.05,9.56-3.21,7.19-.34,11.08,2.8,11.63,9.3,.25,2.92-.03,7.59-.84,14.03-.8,6.44-2.01,13.52-3.6,21.24,5.14-8.55,10.98-16.8,17.54-24.69,6.55-7.89,13.57-14.3,21.06-19.18,7.49-4.88,15.31-7.19,23.47-6.88,9.29,.35,16.43,3.96,21.4,10.64,4.98,6.68,7.81,13.98,8.48,21.82,.58,6.73-.03,12.98-1.79,18.76-1.77,5.78-3.5,11.25-5.2,16.38-1.71,5.14-2.34,10.3-1.9,15.45,.33,3.81,1.41,6.6,3.26,8.39,1.85,1.78,4.02,2.75,6.52,2.93,5.45,.37,10.85-1.81,16.21-6.54,5.36-4.73,10.37-10.75,15.05-18.08,4.68-7.33,8.74-14.72,12.16-22.22,2.21,2.04,3.31,3.06,5.52,5.11-3.87,10.28-8.39,19.52-13.55,27.76-5.18,8.24-11.18,14.64-18.01,19.22-6.83,4.59-14.8,6.58-23.88,6.05Z"/>
        </g>
      </g>
    </g>
  </g>
</svg>