<?xml version="1.0" encoding="utf-8"?>
<!-- Generator: Adobe Illustrator 28.2.0, SVG Export Plug-In . SVG Version: 6.00 Build 0)  -->
<svg version="1.1" id="Camada_1" xmlns="http://www.w3.org/2000/svg" xmlns:xlink="http://www.w3.org/1999/xlink" x="0px" y="0px"
	 viewBox="0 0 108 18" style="enable-background:new 0 0 108 18;" xml:space="preserve">
<style type="text/css">
	.st0{fill:#FFFFFF;filter:url(#Adobe_OpacityMaskFilter);}
	.st1{mask:url(#mask0_149_3234_00000052098485229402906320000014752917889943510448_);}
	.st2{fill:#FFFFFF;filter:url(#Adobe_OpacityMaskFilter_00000178923145646582343230000000442768364488350634_);}
	.st3{mask:url(#mask1_149_3234_00000121257648439518551090000000590083956764756909_);}
	.st4{fill:#575657;}
	.st5{fill:#FFCC00;}
	.st6{fill:#388CC8;}
	.st7{fill:#78B441;}
</style>
<defs>
	<filter id="Adobe_OpacityMaskFilter" filterUnits="userSpaceOnUse" x="0" y="0.2" width="107.9" height="17.6">
		<feColorMatrix  type="matrix" values="1 0 0 0 0  0 1 0 0 0  0 0 1 0 0  0 0 0 1 0"/>
	</filter>
</defs>
<mask maskUnits="userSpaceOnUse" x="0" y="0.2" width="107.9" height="17.6" id="mask0_149_3234_00000052098485229402906320000014752917889943510448_">
	<path class="st0" d="M107.9,0.2H0v17.6h107.9V0.2z"/>
</mask>
<g class="st1">
	<defs>
		
			<filter id="Adobe_OpacityMaskFilter_00000052085250697053286080000001615029807844794556_" filterUnits="userSpaceOnUse" x="0" y="0.2" width="107.9" height="17.6">
			<feColorMatrix  type="matrix" values="1 0 0 0 0  0 1 0 0 0  0 0 1 0 0  0 0 0 1 0"/>
		</filter>
	</defs>
	
		<mask maskUnits="userSpaceOnUse" x="0" y="0.2" width="107.9" height="17.6" id="mask1_149_3234_00000121257648439518551090000000590083956764756909_">
		<path style="fill:#FFFFFF;filter:url(#Adobe_OpacityMaskFilter_00000052085250697053286080000001615029807844794556_);" d="
			M107.9,0.2H0v17.6h107.9V0.2z"/>
	</mask>
	<g class="st3">
		<path class="st4" d="M23.2,16.9v-1.9c1,0.7,2,1,3.1,1c1.1,0,2-0.3,2.5-0.8c0.5-0.6,0.8-1.5,0.8-2.7V0.4h1.8v12.2
			c0,1-0.1,1.9-0.4,2.6c-0.3,0.7-0.7,1.3-1.2,1.6c-0.5,0.3-1,0.6-1.5,0.7c-0.5,0.1-1.1,0.2-1.7,0.2C25.3,17.8,24.2,17.5,23.2,16.9"
			/>
		<path class="st4" d="M34.9,12.4V5.2h1.8v7.3c0,1.3,0.3,2.2,0.8,2.8c0.6,0.6,1.4,0.9,2.6,0.9c1.2,0,2-0.3,2.6-0.9
			c0.6-0.6,0.8-1.5,0.8-2.8V5.2h1.8v7.2c0,1.7-0.5,3.1-1.4,4c-0.9,0.9-2.2,1.4-3.9,1.4c-1.7,0-3-0.5-3.9-1.4
			C35.4,15.4,34.9,14.1,34.9,12.4z"/>
		<path class="st4" d="M47.5,8.5c0-1,0.4-1.8,1.1-2.5c0.7-0.7,1.8-1.1,3.3-1.1c1.1,0,2.1,0.3,3.2,0.8v1.8c-1-0.6-2-0.9-3-0.9
			c-1.9,0-2.8,0.6-2.8,1.9c0,0.4,0.2,0.8,0.7,1c0.5,0.3,1,0.5,1.7,0.7c0.7,0.2,1.3,0.4,2,0.6c0.7,0.2,1.2,0.7,1.7,1.2
			c0.5,0.6,0.7,1.3,0.7,2.2c0,1.1-0.4,1.9-1.2,2.5c-0.8,0.6-1.9,0.9-3.4,0.9c-1.4,0-2.6-0.3-3.8-0.9V15c1.2,0.7,2.4,1.1,3.7,1.1
			c1.9,0,2.8-0.6,2.8-1.7c0-0.6-0.2-1.1-0.7-1.5c-0.5-0.3-1-0.6-1.7-0.8c-0.7-0.2-1.3-0.4-2-0.6c-0.7-0.2-1.2-0.6-1.7-1.1
			C47.8,10,47.5,9.3,47.5,8.5"/>
		<path class="st4" d="M58.2,13.9V0.4H60v5c1-0.3,2-0.5,3.1-0.5c0.6,0,1.1,0,1.6,0.1c0.5,0.1,1,0.3,1.5,0.6c0.5,0.3,1,0.7,1.3,1.1
			c0.4,0.4,0.7,1.1,0.9,1.8c0.2,0.8,0.3,1.7,0.3,2.7c0,1.1-0.1,2.1-0.4,2.9c-0.3,0.8-0.6,1.5-0.9,1.9c-0.4,0.5-0.8,0.8-1.4,1.1
			c-0.5,0.3-1,0.5-1.5,0.5c-0.4,0.1-0.9,0.1-1.4,0.1c-0.9,0-1.7-0.1-2.4-0.3s-1.2-0.5-1.5-0.8s-0.6-0.6-0.8-1
			c-0.2-0.4-0.3-0.7-0.4-1C58.2,14.4,58.2,14.1,58.2,13.9 M60,14c0,1.5,1.1,2.2,3.3,2.2c0.5,0,0.9-0.1,1.3-0.2
			c0.4-0.1,0.8-0.3,1.2-0.6c0.4-0.3,0.7-0.8,0.9-1.5c0.2-0.7,0.3-1.6,0.3-2.6c0-1.6-0.3-2.8-0.9-3.5c-0.6-0.7-1.6-1.1-3-1.1
			c-1,0-2.1,0.2-3.1,0.6V14z"/>
		<path class="st4" d="M71,17.6V6.1C72.9,5.4,74.9,5,77,5v1.7c-1.4,0-2.8,0.2-4.3,0.6v10.3L71,17.6L71,17.6z"/>
		<path class="st4" d="M78.4,13.8c0-0.6,0.1-1.1,0.3-1.5c0.2-0.4,0.5-0.8,0.8-1.1c0.3-0.3,0.7-0.5,1.1-0.7c0.5-0.2,0.9-0.3,1.2-0.4
			c0.4-0.1,0.8-0.2,1.3-0.2c0.5,0,0.8-0.1,1.1-0.1c0.2,0,0.5,0,0.7,0l2,0.1c0-1.1-0.3-1.9-0.9-2.4c-0.6-0.5-1.5-0.7-2.7-0.7
			c-1.4,0-2.6,0.2-3.7,0.6V5.6c1.2-0.4,2.5-0.6,3.8-0.6c1.8,0,3.1,0.4,4,1.3c0.9,0.9,1.4,2.2,1.4,3.9v3.7c0,0.8-0.2,1.5-0.6,2
			c-0.4,0.6-0.8,1-1.4,1.2c-0.6,0.3-1.1,0.4-1.6,0.5c-0.5,0.1-1,0.1-1.5,0.1c-0.4,0-0.8,0-1.2-0.1c-0.4,0-0.9-0.2-1.4-0.3
			c-0.5-0.2-1-0.4-1.3-0.7c-0.4-0.3-0.7-0.7-1-1.2C78.5,15,78.4,14.5,78.4,13.8 M80.2,13.8c0,1.6,1.1,2.3,3.4,2.3h0
			c2.2,0,3.3-0.8,3.3-2.3v-2.4c-0.6-0.1-1.3-0.1-2.2-0.1C81.7,11.3,80.2,12.1,80.2,13.8z"/>
		<path class="st4" d="M90.9,8.5c0-1,0.4-1.8,1.1-2.5c0.7-0.7,1.8-1.1,3.3-1.1c1.1,0,2.1,0.3,3.2,0.8v1.8c-1-0.6-2-0.9-3-0.9
			c-1.9,0-2.8,0.6-2.8,1.9c0,0.4,0.2,0.8,0.7,1c0.5,0.3,1,0.5,1.7,0.7c0.7,0.2,1.3,0.4,2,0.6c0.7,0.2,1.2,0.7,1.7,1.2
			c0.5,0.6,0.7,1.3,0.7,2.2c0,1.1-0.4,1.9-1.2,2.5c-0.8,0.6-1.9,0.9-3.4,0.9c-1.4,0-2.6-0.3-3.8-0.9V15c1.2,0.7,2.4,1.1,3.7,1.1
			c1.9,0,2.8-0.6,2.8-1.7c0-0.6-0.2-1.1-0.7-1.5c-0.5-0.3-1-0.6-1.7-0.8c-0.7-0.2-1.3-0.4-2-0.6c-0.7-0.2-1.2-0.6-1.7-1.1
			C91.2,10,90.9,9.3,90.9,8.5"/>
		<path class="st4" d="M101.6,0.4h1.8v2h-1.8V0.4z M101.6,17.6h1.8V5.2h-1.8V17.6z"/>
		<path class="st4" d="M107.9,0.4h-1.8v17.2h1.8V0.4z"/>
		<path class="st5" d="M1.5,17.4c-1.4-0.8-1.9-2.6-1.1-4L7.3,1.6c0.8-1.4,2.6-1.9,4-1.1c1.4,0.8,1.9,2.6,1.1,4L5.5,16.3
			C4.7,17.7,2.9,18.2,1.5,17.4"/>
		<path class="st6" d="M18.1,17.4c-1.4,0.8-3.2,0.3-4-1.1L7.2,4.6c-0.8-1.4-0.3-3.2,1.1-4c1.4-0.8,3.2-0.3,4,1.1l6.9,11.8
			C20,14.8,19.5,16.6,18.1,17.4z"/>
		<path class="st7" d="M12.2,1.5C12.2,1.4,12.2,1.4,12.2,1.5c-0.1-0.1-0.1-0.2-0.2-0.2c0,0,0-0.1-0.1-0.1c0,0-0.1-0.1-0.1-0.1
			c0,0-0.1-0.1-0.1-0.1c0,0-0.1-0.1-0.1-0.1c0,0-0.1-0.1-0.1-0.1c0,0-0.1,0-0.1-0.1c-0.1,0-0.1-0.1-0.2-0.1c0,0-0.1,0-0.1-0.1
			c-0.1,0-0.1-0.1-0.2-0.1c0,0-0.1,0-0.1-0.1c0,0-0.1,0-0.1-0.1c-0.1,0-0.1,0-0.2,0c0,0-0.1,0-0.1,0c-0.1,0-0.1,0-0.2,0
			c0,0-0.1,0-0.1,0c-0.1,0-0.1,0-0.2,0c0,0-0.1,0-0.1,0c0,0-0.1,0-0.1,0c0,0-0.1,0-0.1,0c0,0-0.1,0-0.1,0c-0.1,0-0.1,0-0.2,0
			c0,0-0.1,0-0.1,0c-0.1,0-0.1,0-0.2,0c0,0-0.1,0-0.1,0c-0.1,0-0.1,0-0.2,0c0,0-0.1,0-0.1,0.1c0,0-0.1,0-0.1,0.1
			c-0.1,0-0.1,0.1-0.2,0.1c0,0-0.1,0-0.1,0.1c-0.1,0-0.1,0.1-0.2,0.1c0,0-0.1,0-0.1,0.1c0,0-0.1,0.1-0.1,0.1c0,0-0.1,0-0.1,0.1
			C7.8,1,7.7,1,7.7,1c0,0-0.1,0.1-0.1,0.1c0,0-0.1,0.1-0.1,0.1c0,0-0.1,0.1-0.1,0.1c0,0,0,0.1-0.1,0.1c0,0.1-0.1,0.1-0.1,0.2
			c-0.5,0.9-0.6,2,0,2.9l2.5,4.4l2.5-4.4c0.5-0.9,0.5-2.1,0-2.9C12.3,1.6,12.2,1.5,12.2,1.5"/>
	</g>
</g>
</svg>
