<svg fill="none" height="390" viewBox="0 0 962 390" width="962" xmlns="http://www.w3.org/2000/svg"><g fill="#283b4f"><path d="m548.087.3729c5.409-.750003 10.94-.095935 16.393-.3314006 2.945.1308146 6.562-.6540764 8.773 1.8488406 1.879 1.82268 1.983 4.58723 1.94 7.03782-.079 5.83434.061 11.67734-.053 17.52044.096 3.3924-2.726 6.8023-6.265 6.6192-6.195.0523-12.382.0349-18.568.0087-3.618.2355-6.51-3.218-6.396-6.6715-.079-6.4448-.044-12.8896-.018-19.33441-.105-2.79943 1.468-5.72094 4.194-6.69769z"/><path d="m527.308 17.3177c3.163-.375 6.414-.3663 9.586 0 2.272 1.2471 1.284 4.3169 1.564 6.4187-.288 2.1104.717 5.1628-1.52 6.4622-3.19.4012-6.458.3837-9.638.0087-2.264-1.2558-1.276-4.2994-1.547-6.4012.279-2.1279-.734-5.2064 1.555-6.4884z"/><path d="m558.774 40.9253c4.474-.5755 9.044-.1744 13.553-.2354 2.228-.1919 4.194 1.7355 4.264 3.9244.183 4.4215.105 8.8518.044 13.2733.113 2.3198-1.8 4.6744-4.238 4.4477-4.116.0698-8.232.1047-12.339-.0174-2.385.0697-4.045-2.3111-3.923-4.5262-.087-4.0902-.061-8.189-.017-12.2704-.088-1.8663.795-3.9244 2.656-4.596z"/><path d="m502.719 43.3847c11.543-.7064 23.182-.1308 34.76-.2965 5.846-.1396 10.39 5.5203 10.355 11.1017.079 11.1018.035 22.221.017 33.3315.245 5.782-4.377 11.8082-10.485 11.6164-10.792.0174-21.592.0436-32.392-.0175-5.724.0524-10.128-5.4506-10.189-10.9012-.105-11.0494-.017-22.1076-.043-33.1658-.219-5.032 2.892-10.4041 7.977-11.6686z"/><path d="m18.7364 253.482c10.7041-6.838 23.9859-7.701 36.3415-6.934 11.0449.742 22.5792 4.64 29.7356 13.483 6.7283 8.154 9.0614 18.916 9.6555 29.224-5.2952-.096-10.6167.192-15.9032-.139-4.605-.349-7.838-4.152-9.6381-8.067-2.9534-6.061-9.0875-10.143-15.6848-11.172-6.4224-1.029-13.4303-.846-19.2761 2.285-5.304 2.799-7.8293 9.14-7.3749 14.913.3845 4.308 3.1981 7.979 6.6234 10.43 4.7623 3.419 10.3896 5.355 15.9994 6.881 10.8963 2.887 21.6966 6.235 32.1298 10.509 6.4487 2.677 12.0323 7.613 14.9071 14.032 3.8444 8.459 3.9324 18.148 2.403 27.165-1.5379 9.175-6.0468 18.14-13.6751 23.73-9.7779 7.291-22.4131 9.105-34.3056 9.166-13.2818.026-27.7258-2.433-37.6959-11.913-9.08758-8.529-12.189583-21.419-12.477939-33.462 8.161339-.009 16.322639 0 24.492739-.009.4893 5.965 2.1933 12.288 6.8943 16.352 5.8021 5.067 13.9984 5.887 21.3995 5.564 5.7671-.305 11.9886-1.3 16.48-5.233 4.2816-3.793 5.1991-10.107 4.0894-15.462-1.0136-4.701-5.1467-7.98-9.507-9.497-10.5206-3.715-21.3645-6.427-31.9288-9.986-10.477-3.697-20.9452-9.819-26.31031-19.91-4.52631-8.285-4.3166-18.139-2.68258-27.174 1.66896-9.785 6.73699-19.361 15.30909-24.776z"/><path d="m122.981 286.046c7.629-6.75 18.289-8.521 28.172-8.381 10.232.157 21.198 1.456 29.613 7.796 6.501 4.841 9.682 13.003 9.892 20.913.139 8.983.017 17.974.061 26.957-.079 8.128.445 16.36-1.355 24.357-1.59 7.622-5.181 15-11.018 20.268-7.367 6.776-17.389 9.767-27.158 10.805-8.668 1.038-17.878.471-25.716-3.689-6.37-3.314-11.246-9.192-13.562-15.959-2.831-8.276-2.866-17.442-.472-25.823 1.862-6.523 6.213-12.27 12.041-15.767 8.302-5.041 18.132-6.55 27.613-7.719 4.622-.68 9.568-1.595 13.185-4.761 2.893-2.459 3.434-7.003 1.329-10.116-2.342-3.594-6.938-4.605-10.941-4.954-4.692-.279-9.777-.314-13.98 2.084-2.089 1.09-3.155 3.262-4.099 5.303-8.012.026-16.016.017-24.02.008 1.223-7.901 4.22-15.95 10.415-21.322zm23.095 53.773c-5.522 1.317-11.054 5.093-12.19 10.98-1.214 5.764.673 13.517 6.93 15.506 8.458 2.276 18.682-.994 23.033-8.896 4.36-7.421 3.312-16.334 3.443-24.567-6.781 3.131-13.955 5.285-21.216 6.977z"/><path d="m328.509 278.624c12.032-2.075 25.436-1.134 35.669 6.114 8.397 5.921 13.185 15.636 15.492 25.412 2.394 9.995 2.718 20.364 2.342 30.594-20.718.008-41.436 0-62.162.008.533 6.994 1.695 14.564 6.623 19.945 6.021 6.332 16.768 6.297 23.549 1.177 3.731-2.38 6.012-7.125 10.774-7.709 6.571-.445 13.186-.07 19.783-.183-2.508 10.666-7.305 21.497-16.436 28.099-7.445 5.468-16.908 7.456-26.013 7.291-10.757-.332-21.924-3.785-29.491-11.739-9.927-10.369-12.872-25.247-13.518-39.096-.481-14.703.515-30.357 8.292-43.273 5.33-8.957 14.872-14.948 25.096-16.64zm-2.08 26.425c-3.941 4.526-5.339 10.578-6.23 16.351 12.076.018 24.152.009 36.237.009-.865-6.663-2.464-14.049-8.013-18.453-6.414-4.84-16.698-4.091-21.994 2.093z"/><path d="m196.896 279.278h26.695c6.493 25.169 12.95 50.338 19.442 75.506 5.191-20.459 10.39-40.927 15.554-61.395.953-3.707 1.66-7.745 4.387-10.64 2.158-2.433 5.461-3.514 8.65-3.462 6.213-.052 12.426.009 18.639-.009-11.325 35.896-22.641 71.782-33.965 107.678-8.537 0-17.074 0-25.611 0-11.264-35.887-22.527-71.782-33.791-107.678z"/><path d="m550.482 254.964c14.706-9.68 34.052-12.27 50.628-6.131 9.524 3.471 17.93 10.012 23.357 18.584 5.085 7.884 7.497 17.198 8.065 26.495-6.213.802-12.793 2.232-18.857-.061-3.242-1.152-5.583-3.829-7.2-6.759-3.967-6.933-10.154-12.942-17.957-15.262-8.397-2.642-17.817-.34-24.641 5.041-8.537 6.549-13.326 16.927-14.855 27.384-2.394 14.852-1.634 31.046 6.239 44.259 5.13 8.755 14.444 15.758 24.947 15.61 10.206.018 19.18-6.541 24.904-14.564 2.543-3.192 3.853-7.762 7.986-9.349 5.925-2.267 12.269-.035 18.132 1.378-1.232 12.253-5.164 24.925-14.33 33.611-9.298 8.913-22.317 12.68-34.874 13.779-13.474 1.195-27.551-2.887-37.582-12.105-12.732-11.442-19.093-28.343-21.208-44.974-1.817-14.991-.62-30.366 3.557-44.878 3.906-12.968 12.251-24.671 23.689-32.058z"/><path d="m645.849 252.042c-.096-1.552.961-2.703 1.782-3.872 4.229.541 8.529-.008 12.732.742 4.404.863 7.811 4.848 8.117 9.305 1.931 14.764 1.626 29.712 1.765 44.573-.174 27.436-.664 54.898-2.464 82.282-6.684 1.849-13.754 1.831-20.351-.375-3.425-34.169-2.665-68.556-2.219-102.829.288-9.942-.009-19.901.638-29.826z"/><path d="m937.507 248.554c4.666.122 9.35-.288 13.999.218 6.256 1.247 10.223 7.814 9.978 13.919 0 25.29-.008 50.581 0 75.872.254 14.765-2.525 31.561-14.776 41.329-7.235 5.825-16.654 8.128-25.777 8.599-9.061.409-18.446-.724-26.625-4.849-7.383-3.663-13.203-10.082-16.628-17.521-5.357-11.555-6.213-24.575-5.837-37.116.428-11.05 1.931-22.378 7.008-32.355 3.591-7.151 9.612-13.186 17.135-16.142 9.035-3.532 19.722-4.143 28.495.471 5.68 2.877 9.909 7.892 13.072 13.308-.096-15.245-.026-30.489-.044-45.733zm-25.847 54.018c-6.195 1.569-10.416 7.133-12.268 12.985-2.91 8.939-3.251 18.558-2.202 27.846.786 6.175 2.412 12.689 6.868 17.311 5.252 5.372 13.929 6.07 20.666 3.358 6.186-2.599 9.603-9.026 11.088-15.244 2.045-8.782 2.158-17.992.673-26.87-1.049-5.782-2.962-11.825-7.436-15.898-4.614-4.221-11.508-5.006-17.389-3.488z"/><path d="m715.072 278.066c9.375-1.989 19.249-.75 28.223 2.424 11.473 4.474 19.023 15.375 22.938 26.634 5.828 17.049 5.811 36.105-.123 53.137-3.975 11.215-11.621 22.029-23.129 26.372-10.04 3.436-21.295 4.823-31.51 1.36-9.97-3.305-17.484-11.607-21.81-20.939-4.57-9.976-7.121-20.956-7.025-31.953-.577-13.71 1.302-28.099 8.677-39.96 5.225-8.537 13.876-15.035 23.759-17.075zm7.051 23.59c-5.129 1.91-8.974 6.27-11.351 11.084-3.049 6.096-3.635 13.029-3.871 19.736-.122 9.122 1.399 18.767 6.904 26.302 3.163 4.387 8.493 7.867 14.111 6.881 5.61-.968 9.639-5.703 12.024-10.57 5.356-10.927 5.278-23.607 2.997-35.32-1.319-6.052-3.617-12.401-8.668-16.334-3.373-2.695-8.135-3.358-12.146-1.779z"/><path d="m781.14 281.144c.445-2.424 3.285-2.538 5.251-2.52 6.405.174 12.81.698 19.224.671-.009 15.689.035 31.387-.009 47.076.079 9.035-1.249 18.122.07 27.114.682 4.892 3.277 9.846 7.969 11.956 6.065 2.721 13.885 2.887 19.329-1.299 4.413-3.611 5.374-9.707 5.348-15.088-.07-12.218.148-24.436-.131-36.645-.149-8.172-1.626-16.544.506-24.576 1.058-4.195 4.614-7.605 8.939-8.241 4.85-.672 9.778-.166 14.672-.314-.018 22.099.026 44.198-.027 66.297-.218 9.715-1.223 19.944-6.422 28.413-2.595 4.351-6.816 7.404-11.325 9.549-11.403 5.791-25.069 7.055-37.302 3.262-7.602-2.591-15.091-6.995-19.18-14.137-5.558-9.462-6.764-20.704-7.235-31.457-.647-16.29 1.328-32.572.367-48.854-.088-3.733-.7-7.509-.044-11.207z"/></g><path d="m450.213 44.0738c11.036-8.1454 24.405-13.2122 38.141-13.9448 11.997-.7326 24.108 1.8663 34.874 7.1512-6.65.1657-13.317-.2006-19.958.1744-7.052.7413-12.076 7.0902-13.483 13.6832-19.171.8198-36.665 12.8198-46.058 29.2414-3.102 5.1453-5.26 10.7878-7.043 16.5088-1.319 4.517-6.431 7.875-11.08 6.27-4.788-1.63-9.987-2.189-14.933-.924-9.996 2.328-17.642 10.901-20.342 20.59-.953 4.02-4.125 7.762-8.485 8.032-9.114.715-17.581 5.712-22.999 12.994-10.931 14.303-10.485 36.088 1.294 49.771 6.081 7.369 15.562 11.852 25.174 11.381 57.383-.585 114.774 1.43 172.157.035 7.069-.349 14.217-.236 21.199-1.544 12.853-3.724 23.951-13.343 29.097-25.718 4.334-10.143 4.509-21.907.708-32.242-3.285-8.86-8.921-17.223-17.223-22.09-8.528-5.302-19.372-6.479-28.888-3.288-5.234 2.059-11.027-2.093-11.936-7.343-.681-4.264-.935-8.598-1.913-12.8194 2.577-3.3575 4.43-7.3779 4.474-11.6686.131-7.971-.062-15.9419.078-23.9042 1.154 1.2733 2.316 2.564 3.198 4.0553 5.322 8.9738 9.009 18.8721 11.071 29.0931 12.872-1.4913 26.162 2.1018 36.587 9.7418 10.433 7.369 17.519 18.584 21.976 30.375 6.475 17.415 5.391 37.535-3.294 54.017-8.293 16.169-23.873 28.413-41.637 32.468-9.394 2.407-19.163 1.788-28.757 1.858-22.474 0-44.94 0-67.406.009-.139 11.363.114 22.761-.725 34.116-8.991-11.555-17.921-23.172-27.638-34.134-24.607 0-49.222.035-73.828-.017-14.392-.14-28.04-7.736-36.91-18.846-16.558-20.338-18.079-51.271-3.801-73.221 7.297-11.521 19.023-20.303 32.445-23.25 4.622-11.0674 12.932-20.8087 23.863-26.0413 7.358-3.6366 15.781-4.875 23.916-3.8808 5.881-14.4157 15.449-27.4623 28.085-36.6891z" fill="#069ad8"/><path d="m396.203 252.583c1.94-2.555 5.164-3.82 8.31-3.95 4.657-.236 9.332-.027 14.007-.088v138.419c-8.424 0-16.839 0-25.262-.008 0-41.137 0-82.283 0-123.419.035-3.803.542-7.867 2.945-10.954z" fill="#069ad8"/><path d="m441.868 288.601c7.777-8.372 19.765-11.163 30.828-10.893 9.507.48 19.835 1.727 27.219 8.346 7.75 6.48 9.952 16.936 11.586 26.399 3.6 24.549 1.774 49.43 1.355 74.119-5.13.427-10.381 1.012-15.458-.148-2.534-.585-5.217-1.858-6.204-4.422-1.992-4.622-2.342-9.724-2.805-14.668-1.022-14.512-.332-29.076.114-43.605.297-5.887.271-12.462-3.662-17.268-3.932-4.753-10.739-5.476-16.488-4.744-3.976.454-7.943 2.381-10.093 5.852-2.245 3.471-2.673 7.735-2.691 11.782.018 22.535.009 45.07.009 67.613-8.179 0-16.358 0-24.528 0 0-21.671-.044-43.343.018-65.014.209-11.765 2.49-24.454 10.8-33.349z" fill="#069ad8"/></svg>